<svg width="348" height="741" viewBox="0 0 348 741" fill="none" xmlns="http://www.w3.org/2000/svg">
<mask id="mask0" mask-type="alpha" maskUnits="userSpaceOnUse" x="0" y="0" width="348" height="741">
<rect width="348" height="741" fill="#C4C4C4"/>
</mask>
<g mask="url(#mask0)">
<path d="M329.671 530.269C343.186 529.753 353.322 538.167 368.507 538.683C386.936 538.683 393.853 529.753 407.343 530.269C396.467 523.546 386.939 514.858 379.245 504.647C385.77 507.395 392.483 509.673 399.333 511.464C391.926 502.823 385.441 493.434 379.982 483.448L395.426 490.154C389.472 483.72 383.928 476.919 378.827 469.789C382.174 471.252 385.684 472.308 389.283 472.934C383.814 467.98 379.297 462.069 375.953 455.492C377.647 456.503 379.513 457.195 381.457 457.531C377.046 453.969 368.507 442.792 368.507 442.792C368.507 442.792 359.968 453.945 355.57 457.531C357.51 457.194 359.372 456.503 361.062 455.492C357.718 462.069 353.2 467.98 347.732 472.934C351.334 472.308 354.848 471.252 358.199 469.789C353.095 476.916 347.552 483.717 341.601 490.154L356.995 483.509C351.557 493.499 345.084 502.889 337.682 511.526C344.532 509.736 351.245 507.458 357.769 504.709C350.07 514.897 340.542 523.565 329.671 530.269V530.269Z" fill="#F7F7F7"/>
<path d="M295.528 524.459C307.04 524.017 315.702 531.202 328.7 531.645C344.451 531.645 350.324 524.017 361.873 524.459C352.592 518.725 344.463 511.311 337.903 502.596C343.468 504.946 349.196 506.892 355.042 508.418C348.727 501.05 343.205 493.039 338.566 484.516L351.626 490.154C346.547 484.661 341.815 478.857 337.46 472.774C340.32 474.019 343.319 474.918 346.392 475.452C341.734 471.258 337.878 466.251 335.015 460.676C336.46 461.536 338.051 462.123 339.709 462.408C335.949 459.374 328.651 449.855 328.651 449.855C328.651 449.855 321.366 459.374 317.594 462.408C319.252 462.125 320.843 461.538 322.287 460.676C319.434 466.286 315.579 471.327 310.91 475.55C313.984 475.018 316.983 474.119 319.842 472.872C315.492 478.921 310.769 484.692 305.701 490.154L318.835 484.479C314.196 493.002 308.674 501.013 302.359 508.381C308.205 506.857 313.933 504.911 319.498 502.559C312.944 511.29 304.815 518.718 295.528 524.459V524.459Z" fill="#F7F7F7"/>
<path d="M-3.02197 511.354C7.54401 510.949 15.5053 517.495 27.4105 517.95C41.8834 517.95 47.277 510.949 57.8552 511.354C49.3307 506.083 41.8608 499.273 35.8264 491.272C40.9429 493.422 46.2065 495.203 51.5771 496.602C45.7754 489.837 40.702 482.48 36.4407 474.653L48.5056 479.861C43.8375 474.817 39.4919 469.484 35.4947 463.894C38.1226 465.037 40.8779 465.862 43.7018 466.35C39.4104 462.47 35.8667 457.837 33.2463 452.68C34.5763 453.466 36.0371 454.007 37.5588 454.277C34.1064 451.488 27.4105 442.743 27.4105 442.743C27.4105 442.743 20.7146 451.488 17.2622 454.277C18.7845 454.009 20.2456 453.468 21.5746 452.68C18.9586 457.836 15.4191 462.47 11.1315 466.35C13.951 465.86 16.702 465.035 19.3263 463.894C15.3291 469.484 10.9835 474.817 6.31537 479.861L18.3926 474.653C14.1267 482.478 9.05359 489.834 3.25617 496.602C8.62219 495.201 13.8816 493.42 18.9946 491.272C12.9647 499.273 5.4989 506.083 -3.02197 511.354V511.354Z" fill="#F7F7F7"/>
<path d="M50.631 502.694C61.197 502.289 69.1583 508.836 81.0635 509.29C95.5364 509.29 100.93 502.289 111.508 502.694C102.984 497.423 95.5137 490.614 89.4793 482.612C94.5955 484.766 99.8592 486.552 105.23 487.955C99.4309 481.184 94.3577 473.823 90.0937 465.994L102.159 471.202C97.4875 466.16 93.1417 460.827 89.1476 455.234C91.7735 456.383 94.5295 457.208 97.3547 457.691C93.0634 453.811 89.5197 449.178 86.8993 444.02C88.2267 444.813 89.6884 445.354 91.2117 445.617C87.7593 442.829 81.0635 434.084 81.0635 434.084C81.0635 434.084 74.3676 442.829 70.9152 445.617C72.439 445.356 73.9011 444.814 75.2276 444.02C72.6116 449.177 69.072 453.811 64.7845 457.691C67.6053 457.206 70.357 456.381 72.9792 455.234C68.9851 460.827 64.6394 466.16 59.9684 471.202L72.0455 465.994C67.7616 473.823 62.6722 481.183 56.86 487.955C62.2268 486.552 67.4864 484.766 72.5984 482.612C66.5831 490.609 59.1342 497.418 50.631 502.694Z" fill="#F7F7F7"/>
<path d="M184.082 484.123C194.66 483.718 202.621 490.264 214.526 490.719C228.987 490.719 234.393 483.718 244.959 484.123C236.438 478.852 228.972 472.042 222.942 464.041C228.058 466.195 233.322 467.981 238.693 469.384C232.898 462.609 227.825 455.249 223.557 447.423L235.634 452.631C230.963 447.589 226.617 442.256 222.623 436.663C225.245 437.81 227.997 438.635 230.818 439.12C226.53 435.239 222.991 430.606 220.375 425.449C221.701 426.243 223.163 426.784 224.687 427.046C221.235 424.258 214.539 415.512 214.539 415.512C214.539 415.512 207.843 424.258 204.39 427.046C205.914 426.782 207.375 426.241 208.703 425.449C206.082 430.606 202.539 435.24 198.247 439.12C201.073 438.637 203.829 437.812 206.455 436.663C202.46 442.256 198.115 447.589 193.444 452.631L205.508 447.423C201.244 455.252 196.171 462.612 190.372 469.384C195.743 467.98 201.007 466.195 206.123 464.041C200.085 472.043 192.611 478.853 184.082 484.123V484.123Z" fill="#F7F7F7"/>
<path d="M-33.4666 518.404C-22.8883 517.999 -14.9269 524.545 -3.0218 525C11.4389 525 16.8447 517.999 27.4107 518.404C18.8898 513.133 11.424 506.323 5.3941 498.322C10.5082 500.47 15.7673 502.256 21.1325 503.665C15.3374 496.89 10.2646 489.53 5.99614 481.704L18.061 486.911C13.3975 481.867 9.05608 476.534 5.06239 470.944C7.68467 472.091 10.4363 472.916 13.2572 473.401C8.96952 469.517 5.42638 464.885 2.80177 459.73C4.1301 460.52 5.59151 461.061 7.11417 461.327C3.6618 458.539 -3.0218 449.793 -3.0218 449.793C-3.0218 449.793 -9.71769 458.539 -13.1701 461.327C-11.6474 461.061 -10.186 460.52 -8.85766 459.73C-11.4823 464.885 -15.0254 469.517 -19.3131 473.401C-16.4883 472.916 -13.7325 472.091 -11.106 470.944C-15.1078 476.531 -19.4532 481.864 -24.1169 486.911L-12.052 481.704C-16.3161 489.533 -21.3893 496.893 -27.1884 503.665C-21.8192 502.256 -16.556 500.47 -11.4377 498.322C-17.4761 506.32 -24.9452 513.129 -33.4666 518.404V518.404Z" fill="#F7F7F7"/>
<path d="M128.881 320.445V371.234" stroke="#F7F7F7" stroke-width="1.18" stroke-miterlimit="10" stroke-linecap="round"/>
<path d="M133.427 321.084L128.881 326.034L124.323 321.084" stroke="#F7F7F7" stroke-width="1.18" stroke-miterlimit="10" stroke-linecap="round"/>
<path d="M124.323 370.595L128.881 365.645L133.427 370.595" stroke="#F7F7F7" stroke-width="1.18" stroke-miterlimit="10" stroke-linecap="round"/>
<path d="M103.473 345.833H154.276" stroke="#F7F7F7" stroke-width="1.18" stroke-miterlimit="10" stroke-linecap="round"/>
<path d="M104.112 341.289L109.063 345.833L104.112 350.378" stroke="#F7F7F7" stroke-width="1.18" stroke-miterlimit="10" stroke-linecap="round"/>
<path d="M153.637 350.378L148.686 345.833L153.637 341.289" stroke="#F7F7F7" stroke-width="1.18" stroke-miterlimit="10" stroke-linecap="round"/>
<path d="M110.918 327.876L146.843 363.791" stroke="#F7F7F7" stroke-width="1.18" stroke-miterlimit="10" stroke-linecap="round"/>
<path d="M114.58 325.113L114.875 331.831L108.154 331.549" stroke="#F7F7F7" stroke-width="1.18" stroke-miterlimit="10" stroke-linecap="round"/>
<path d="M143.169 366.554L142.887 359.835L149.607 360.13" stroke="#F7F7F7" stroke-width="1.18" stroke-miterlimit="10" stroke-linecap="round"/>
<path d="M146.843 327.876L110.918 363.791" stroke="#F7F7F7" stroke-width="1.18" stroke-miterlimit="10" stroke-linecap="round"/>
<path d="M149.607 331.549L142.887 331.831L143.169 325.113" stroke="#F7F7F7" stroke-width="1.18" stroke-miterlimit="10" stroke-linecap="round"/>
<path d="M108.154 360.13L114.875 359.835L114.58 366.554" stroke="#F7F7F7" stroke-width="1.18" stroke-miterlimit="10" stroke-linecap="round"/>
<path d="M17.4834 313.137V333.993" stroke="#F7F7F7" stroke-width="2.46" stroke-miterlimit="10" stroke-linecap="round"/>
<path d="M19.351 313.407L17.4835 315.434L15.616 313.407" stroke="#F7F7F7" stroke-width="2.46" stroke-miterlimit="10" stroke-linecap="round"/>
<path d="M15.616 333.723L17.4835 331.696L19.351 333.723" stroke="#F7F7F7" stroke-width="2.46" stroke-miterlimit="10" stroke-linecap="round"/>
<path d="M7.05249 323.565H27.9019" stroke="#F7F7F7" stroke-width="2.46" stroke-miterlimit="10" stroke-linecap="round"/>
<path d="M7.31055 321.698L9.35004 323.565L7.31055 325.432" stroke="#F7F7F7" stroke-width="2.46" stroke-miterlimit="10" stroke-linecap="round"/>
<path d="M27.644 325.432L25.6045 323.565L27.644 321.698" stroke="#F7F7F7" stroke-width="2.46" stroke-miterlimit="10" stroke-linecap="round"/>
<path d="M10.0996 316.195L24.8551 330.934" stroke="#F7F7F7" stroke-width="2.46" stroke-miterlimit="10" stroke-linecap="round"/>
<path d="M11.6107 315.053L11.7336 317.817L8.96924 317.694" stroke="#F7F7F7" stroke-width="2.46" stroke-miterlimit="10" stroke-linecap="round"/>
<path d="M23.3437 332.065L23.2332 329.313L25.9852 329.424" stroke="#F7F7F7" stroke-width="2.46" stroke-miterlimit="10" stroke-linecap="round"/>
<path d="M24.8551 316.195L10.0996 330.934" stroke="#F7F7F7" stroke-width="2.46" stroke-miterlimit="10" stroke-linecap="round"/>
<path d="M25.9852 317.694L23.2332 317.817L23.3437 315.053" stroke="#F7F7F7" stroke-width="2.46" stroke-miterlimit="10" stroke-linecap="round"/>
<path d="M8.96924 329.424L11.7336 329.313L11.6107 332.065" stroke="#F7F7F7" stroke-width="2.46" stroke-miterlimit="10" stroke-linecap="round"/>
<path d="M207.143 159.076V226.495" stroke="#F7F7F7" stroke-width="1.56" stroke-miterlimit="10" stroke-linecap="round"/>
<path d="M213.175 159.924L207.142 166.495L201.11 159.924" stroke="#F7F7F7" stroke-width="1.56" stroke-miterlimit="10" stroke-linecap="round"/>
<path d="M201.11 225.648L207.142 219.077L213.175 225.648" stroke="#F7F7F7" stroke-width="1.56" stroke-miterlimit="10" stroke-linecap="round"/>
<path d="M173.43 192.78H240.855" stroke="#F7F7F7" stroke-width="1.56" stroke-miterlimit="10" stroke-linecap="round"/>
<path d="M174.277 186.749L180.851 192.78L174.277 198.823" stroke="#F7F7F7" stroke-width="1.56" stroke-miterlimit="10" stroke-linecap="round"/>
<path d="M240.008 198.823L233.435 192.78L240.008 186.749" stroke="#F7F7F7" stroke-width="1.56" stroke-miterlimit="10" stroke-linecap="round"/>
<path d="M183.295 168.951L230.977 216.62" stroke="#F7F7F7" stroke-width="1.56" stroke-miterlimit="10" stroke-linecap="round"/>
<path d="M188.173 165.279L188.542 174.196L179.634 173.815" stroke="#F7F7F7" stroke-width="1.56" stroke-miterlimit="10" stroke-linecap="round"/>
<path d="M226.112 220.293L225.731 211.376L234.651 211.756" stroke="#F7F7F7" stroke-width="1.56" stroke-miterlimit="10" stroke-linecap="round"/>
<path d="M230.977 168.951L183.295 216.62" stroke="#F7F7F7" stroke-width="1.56" stroke-miterlimit="10" stroke-linecap="round"/>
<path d="M234.651 173.815L225.731 174.196L226.112 165.279" stroke="#F7F7F7" stroke-width="1.56" stroke-miterlimit="10" stroke-linecap="round"/>
<path d="M179.634 211.756L188.542 211.376L188.173 220.293" stroke="#F7F7F7" stroke-width="1.56" stroke-miterlimit="10" stroke-linecap="round"/>
<path d="M89.762 249.796C90.2508 249.796 90.7196 249.602 91.0652 249.256C91.4108 248.91 91.6049 248.442 91.6049 247.953C91.6049 247.465 91.4108 246.996 91.0652 246.65C90.7196 246.305 90.2508 246.111 89.762 246.111C89.2733 246.111 88.8045 246.305 88.4589 246.65C88.1133 246.996 87.9192 247.465 87.9192 247.953C87.9192 248.442 88.1133 248.91 88.4589 249.256C88.8045 249.602 89.2733 249.796 89.762 249.796Z" fill="#F7F7F7"/>
<path d="M291.978 125.447C292.466 125.447 292.935 125.252 293.281 124.907C293.626 124.561 293.82 124.093 293.82 123.604C293.82 123.115 293.626 122.647 293.281 122.301C292.935 121.956 292.466 121.762 291.978 121.762C291.489 121.762 291.02 121.956 290.675 122.301C290.329 122.647 290.135 123.115 290.135 123.604C290.135 124.093 290.329 124.561 290.675 124.907C291.02 125.252 291.489 125.447 291.978 125.447Z" fill="#F7F7F7"/>
<path d="M277.247 262.926C277.735 262.926 278.204 262.732 278.55 262.386C278.895 262.041 279.089 261.572 279.089 261.083C279.089 260.595 278.895 260.126 278.55 259.78C278.204 259.435 277.735 259.241 277.247 259.241C276.758 259.241 276.289 259.435 275.944 259.78C275.598 260.126 275.404 260.595 275.404 261.083C275.404 261.572 275.598 262.041 275.944 262.386C276.289 262.732 276.758 262.926 277.247 262.926Z" fill="#F7F7F7"/>
<path d="M214.244 299.7C214.733 299.7 215.201 299.506 215.547 299.16C215.893 298.815 216.087 298.346 216.087 297.857C216.087 297.369 215.893 296.9 215.547 296.555C215.201 296.209 214.733 296.015 214.244 296.015C213.755 296.015 213.286 296.209 212.941 296.555C212.595 296.9 212.401 297.369 212.401 297.857C212.401 298.346 212.595 298.815 212.941 299.16C213.286 299.506 213.755 299.7 214.244 299.7Z" fill="#F7F7F7"/>
<path d="M282.161 440.422C282.65 440.422 283.119 440.228 283.464 439.882C283.81 439.537 284.004 439.068 284.004 438.579C284.004 438.091 283.81 437.622 283.464 437.277C283.119 436.931 282.65 436.737 282.161 436.737C281.672 436.737 281.203 436.931 280.858 437.277C280.512 437.622 280.318 438.091 280.318 438.579C280.318 439.068 280.512 439.537 280.858 439.882C281.203 440.228 281.672 440.422 282.161 440.422V440.422Z" fill="#F7F7F7"/>
<path d="M101.311 111.751C106.053 111.751 106.065 104.382 101.311 104.382C96.5561 104.382 96.5561 111.751 101.311 111.751Z" fill="#F7F7F7"/>
<path d="M160.235 254.095C164.977 254.095 164.977 246.725 160.235 246.725C155.492 246.725 155.48 254.095 160.235 254.095Z" fill="#F7F7F7"/>
<path d="M74.3063 400.491C79.0487 400.491 79.061 393.121 74.3063 393.121C69.5516 393.121 69.5516 400.491 74.3063 400.491Z" fill="#F7F7F7"/>
<path d="M304.251 177.193C308.994 177.193 309.006 169.823 304.251 169.823C299.497 169.823 299.509 177.193 304.251 177.193Z" fill="#F7F7F7"/>
<path d="M225.694 110.118C230.437 110.118 230.449 102.748 225.694 102.748C220.94 102.748 220.94 110.118 225.694 110.118Z" fill="#F7F7F7"/>
<path d="M332.067 325.272C336.809 325.272 336.821 317.903 332.067 317.903C327.312 317.903 327.312 325.272 332.067 325.272Z" fill="#F7F7F7"/>
<path d="M176.6 415.881C177.088 415.881 177.557 415.687 177.903 415.341C178.248 414.996 178.442 414.527 178.442 414.039C178.442 413.55 178.248 413.081 177.903 412.736C177.557 412.39 177.088 412.196 176.6 412.196C176.111 412.196 175.642 412.39 175.296 412.736C174.951 413.081 174.757 413.55 174.757 414.039C174.757 414.527 174.951 414.996 175.296 415.341C175.642 415.687 176.111 415.881 176.6 415.881Z" fill="#F7F7F7"/>
<path opacity="0.3" d="M413 264.097C461.633 215.478 461.633 136.651 413 88.0324C364.368 39.4134 285.519 39.4134 236.887 88.0323C188.255 136.651 188.255 215.478 236.887 264.097C285.519 312.716 364.368 312.716 413 264.097Z" fill="#F7F7F7"/>
<path d="M-55.6305 532.357C28.3566 510.469 104.862 451.967 191.503 457.224C224.527 459.239 256.434 470.735 285.589 486.322C307.593 498.113 328.393 512.545 351.823 521.512C396.851 538.707 446.867 524.226 492.461 541.716C509.772 548.349 533.557 561.369 536.801 581.451C538.951 594.691 529.27 607.576 517.242 613.533C505.214 619.49 491.355 620.116 477.926 620.608L344.549 625.521C290.049 627.56 235.499 629.586 180.986 628.063C102.318 625.926 23.9705 616.358 -54.2053 606.839C-85.0924 603.056 -116.016 599.273 -146.547 593.217C-165.676 589.422 -188.16 584.153 -200.974 568.038C-211.835 554.367 -208.751 537.86 -189.695 536.398C-168.478 534.777 -144.766 542.539 -122.847 541.888C-100.152 541.277 -77.6007 538.079 -55.6305 532.357Z" fill="#EAE7E2"/>
<path d="M-461.906 438.776C-271.783 452.555 -93.883 534.652 92.4212 574.988C286.529 616.813 506.624 623.344 699 574.174C699 600.466 699 708.115 699 735.399C662.784 735.399 -454.61 740.183 -530.353 740.856C-567.561 740.856 -623.829 737.383 -656.129 737.383C-660.959 737.383 -658.087 707.121 -657.356 699.681C-657.356 693.231 -658.348 686.783 -657.356 679.342C-659.34 634.696 -659.34 610.388 -658.348 574.67C-658.844 556.316 -658.348 541.433 -658.348 523.574C-658.348 511.173 -658.348 476.943 -658.348 476.943C-631.823 432.65 -504.55 435.679 -461.906 438.776Z" fill="#F7F7F7"/>
<path d="M174.732 590.712C179.855 584.57 187.018 579.657 195.09 579.055C202.818 578.515 210.472 582.138 215.866 587.653C221.259 593.168 224.589 600.501 226.468 608.006C226.766 608.823 226.796 609.713 226.554 610.548C226.075 611.776 224.675 612.268 223.409 612.612C208.153 616.917 192.159 617.947 176.477 615.633C159.252 612.98 165.984 601.287 174.732 590.712Z" fill="#A7A8AB"/>
<path d="M150.516 602.724C154.202 598.327 159.264 594.851 164.952 594.458C167.707 594.363 170.449 594.863 172.993 595.922C175.538 596.982 177.823 598.577 179.696 600.599C183.424 604.663 186.017 609.636 187.215 615.019C187.418 615.601 187.439 616.23 187.276 616.825C187.04 617.222 186.718 617.56 186.333 617.815C185.948 618.071 185.51 618.236 185.052 618.298C174.232 621.342 162.891 622.071 151.77 620.436C139.545 618.483 144.324 610.216 150.516 602.724Z" fill="#8A8B8F"/>
<path d="M199.624 588.194C200.113 588.194 200.581 588 200.927 587.654C201.272 587.309 201.467 586.84 201.467 586.351C201.467 585.863 201.272 585.394 200.927 585.049C200.581 584.703 200.113 584.509 199.624 584.509C199.135 584.509 198.666 584.703 198.321 585.049C197.975 585.394 197.781 585.863 197.781 586.351C197.781 586.84 197.975 587.309 198.321 587.654C198.666 588 199.135 588.194 199.624 588.194V588.194Z" fill="#F7F7F7"/>
<path d="M157.814 605.672C158.303 605.672 158.772 605.478 159.117 605.132C159.463 604.787 159.657 604.318 159.657 603.829C159.657 603.341 159.463 602.872 159.117 602.527C158.772 602.181 158.303 601.987 157.814 601.987C157.325 601.987 156.857 602.181 156.511 602.527C156.166 602.872 155.971 603.341 155.971 603.829C155.971 604.318 156.166 604.787 156.511 605.132C156.857 605.478 157.325 605.672 157.814 605.672V605.672Z" fill="#F7F7F7"/>
<path d="M174.13 610.118C174.619 610.118 175.087 609.924 175.433 609.579C175.779 609.233 175.973 608.765 175.973 608.276C175.973 607.787 175.779 607.319 175.433 606.973C175.087 606.628 174.619 606.434 174.13 606.434C173.641 606.434 173.172 606.628 172.827 606.973C172.481 607.319 172.287 607.787 172.287 608.276C172.287 608.765 172.481 609.233 172.827 609.579C173.172 609.924 173.641 610.118 174.13 610.118V610.118Z" fill="#F7F7F7"/>
<path d="M194.574 603.302C195.063 603.302 195.532 603.107 195.877 602.762C196.223 602.416 196.417 601.948 196.417 601.459C196.417 600.97 196.223 600.502 195.877 600.156C195.532 599.811 195.063 599.617 194.574 599.617C194.085 599.617 193.617 599.811 193.271 600.156C192.925 600.502 192.731 600.97 192.731 601.459C192.731 601.948 192.925 602.416 193.271 602.762C193.617 603.107 194.085 603.302 194.574 603.302Z" fill="#F7F7F7"/>
<path d="M217.107 606.274C217.595 606.274 218.064 606.08 218.41 605.734C218.755 605.389 218.949 604.92 218.949 604.431C218.949 603.943 218.755 603.474 218.41 603.128C218.064 602.783 217.595 602.589 217.107 602.589C216.618 602.589 216.149 602.783 215.803 603.128C215.458 603.474 215.264 603.943 215.264 604.431C215.264 604.92 215.458 605.389 215.803 605.734C216.149 606.08 216.618 606.274 217.107 606.274Z" fill="#F7F7F7"/>
<path d="M211.48 595.563C211.724 595.563 211.958 595.466 212.131 595.294C212.304 595.121 212.401 594.886 212.401 594.642C212.401 594.398 212.304 594.164 212.131 593.991C211.958 593.818 211.724 593.721 211.48 593.721C211.235 593.721 211.001 593.818 210.828 593.991C210.655 594.164 210.558 594.398 210.558 594.642C210.558 594.886 210.655 595.121 210.828 595.294C211.001 595.466 211.235 595.563 211.48 595.563V595.563Z" fill="#F7F7F7"/>
<path d="M192.805 587.567C193.049 587.567 193.283 587.47 193.456 587.297C193.629 587.125 193.726 586.89 193.726 586.646C193.726 586.402 193.629 586.168 193.456 585.995C193.283 585.822 193.049 585.725 192.805 585.725C192.56 585.725 192.326 585.822 192.153 585.995C191.98 586.168 191.883 586.402 191.883 586.646C191.883 586.89 191.98 587.125 192.153 587.297C192.326 587.47 192.56 587.567 192.805 587.567V587.567Z" fill="#F7F7F7"/>
<path d="M184.204 589.643C184.449 589.643 184.683 589.546 184.856 589.373C185.029 589.201 185.126 588.966 185.126 588.722C185.126 588.478 185.029 588.243 184.856 588.071C184.683 587.898 184.449 587.801 184.204 587.801C183.96 587.801 183.726 587.898 183.553 588.071C183.38 588.243 183.283 588.478 183.283 588.722C183.283 588.966 183.38 589.201 183.553 589.373C183.726 589.546 183.96 589.643 184.204 589.643Z" fill="#F7F7F7"/>
<path d="M171.12 600.599C171.364 600.599 171.599 600.502 171.772 600.329C171.944 600.157 172.041 599.922 172.041 599.678C172.041 599.434 171.944 599.199 171.772 599.027C171.599 598.854 171.364 598.757 171.12 598.757C170.876 598.757 170.641 598.854 170.468 599.027C170.296 599.199 170.198 599.434 170.198 599.678C170.198 599.922 170.296 600.157 170.468 600.329C170.641 600.502 170.876 600.599 171.12 600.599V600.599Z" fill="#F7F7F7"/>
<path d="M163.453 599.715C163.698 599.715 163.932 599.618 164.105 599.445C164.278 599.272 164.375 599.038 164.375 598.794C164.375 598.549 164.278 598.315 164.105 598.142C163.932 597.969 163.698 597.872 163.453 597.872C163.209 597.872 162.975 597.969 162.802 598.142C162.629 598.315 162.532 598.549 162.532 598.794C162.532 599.038 162.629 599.272 162.802 599.445C162.975 599.618 163.209 599.715 163.453 599.715V599.715Z" fill="#F7F7F7"/>
<path d="M165.235 604.456C165.479 604.456 165.714 604.359 165.887 604.186C166.059 604.013 166.156 603.779 166.156 603.535C166.156 603.29 166.059 603.056 165.887 602.883C165.714 602.711 165.479 602.614 165.235 602.614C164.991 602.614 164.756 602.711 164.583 602.883C164.411 603.056 164.314 603.29 164.314 603.535C164.314 603.779 164.411 604.013 164.583 604.186C164.756 604.359 164.991 604.456 165.235 604.456V604.456Z" fill="#F7F7F7"/>
<path d="M158.121 616.309C158.366 616.309 158.6 616.212 158.773 616.039C158.946 615.866 159.043 615.632 159.043 615.387C159.043 615.143 158.946 614.909 158.773 614.736C158.6 614.563 158.366 614.466 158.121 614.466C157.877 614.466 157.643 614.563 157.47 614.736C157.297 614.909 157.2 615.143 157.2 615.387C157.2 615.632 157.297 615.866 157.47 616.039C157.643 616.212 157.877 616.309 158.121 616.309V616.309Z" fill="#F7F7F7"/>
<path d="M185.089 601.201C185.334 601.201 185.568 601.104 185.741 600.931C185.914 600.758 186.011 600.524 186.011 600.28C186.011 600.036 185.914 599.801 185.741 599.628C185.568 599.456 185.334 599.359 185.089 599.359C184.845 599.359 184.611 599.456 184.438 599.628C184.265 599.801 184.168 600.036 184.168 600.28C184.168 600.524 184.265 600.758 184.438 600.931C184.611 601.104 184.845 601.201 185.089 601.201Z" fill="#F7F7F7"/>
<path d="M196.196 581.426C196.44 581.426 196.674 581.329 196.847 581.156C197.02 580.984 197.117 580.749 197.117 580.505C197.117 580.261 197.02 580.026 196.847 579.854C196.674 579.681 196.44 579.584 196.196 579.584C195.951 579.584 195.717 579.681 195.544 579.854C195.371 580.026 195.274 580.261 195.274 580.505C195.274 580.749 195.371 580.984 195.544 581.156C195.717 581.329 195.951 581.426 196.196 581.426V581.426Z" fill="#F7F7F7"/>
<path d="M191.085 582.814C191.329 582.814 191.563 582.717 191.736 582.544C191.909 582.371 192.006 582.137 192.006 581.893C192.006 581.648 191.909 581.414 191.736 581.241C191.563 581.069 191.329 580.972 191.085 580.972C190.84 580.972 190.606 581.069 190.433 581.241C190.26 581.414 190.163 581.648 190.163 581.893C190.163 582.137 190.26 582.371 190.433 582.544C190.606 582.717 190.84 582.814 191.085 582.814Z" fill="#F7F7F7"/>
<path d="M191.49 585.43C191.735 585.43 191.969 585.333 192.142 585.16C192.315 584.988 192.412 584.753 192.412 584.509C192.412 584.265 192.315 584.03 192.142 583.858C191.969 583.685 191.735 583.588 191.49 583.588C191.246 583.588 191.012 583.685 190.839 583.858C190.666 584.03 190.569 584.265 190.569 584.509C190.569 584.753 190.666 584.988 190.839 585.16C191.012 585.333 191.246 585.43 191.49 585.43V585.43Z" fill="#F7F7F7"/>
<path d="M189.549 586.265C189.794 586.265 190.028 586.168 190.201 585.995C190.374 585.823 190.471 585.588 190.471 585.344C190.471 585.1 190.374 584.865 190.201 584.693C190.028 584.52 189.794 584.423 189.549 584.423C189.305 584.423 189.07 584.52 188.898 584.693C188.725 584.865 188.628 585.1 188.628 585.344C188.628 585.588 188.725 585.823 188.898 585.995C189.07 586.168 189.305 586.265 189.549 586.265V586.265Z" fill="#F7F7F7"/>
<path d="M189.979 589.164C190.223 589.164 190.458 589.067 190.631 588.894C190.803 588.722 190.9 588.487 190.9 588.243C190.9 587.999 190.803 587.764 190.631 587.592C190.458 587.419 190.223 587.322 189.979 587.322C189.735 587.322 189.5 587.419 189.327 587.592C189.155 587.764 189.058 587.999 189.058 588.243C189.058 588.487 189.155 588.722 189.327 588.894C189.5 589.067 189.735 589.164 189.979 589.164V589.164Z" fill="#F7F7F7"/>
<path d="M194.819 584.607C195.064 584.607 195.298 584.51 195.471 584.337C195.644 584.165 195.741 583.93 195.741 583.686C195.741 583.442 195.644 583.207 195.471 583.035C195.298 582.862 195.064 582.765 194.819 582.765C194.575 582.765 194.341 582.862 194.168 583.035C193.995 583.207 193.898 583.442 193.898 583.686C193.898 583.93 193.995 584.165 194.168 584.337C194.341 584.51 194.575 584.607 194.819 584.607V584.607Z" fill="#F7F7F7"/>
<path d="M197.302 585.713C197.546 585.713 197.78 585.616 197.953 585.443C198.126 585.27 198.223 585.036 198.223 584.791C198.223 584.547 198.126 584.313 197.953 584.14C197.78 583.967 197.546 583.87 197.302 583.87C197.057 583.87 196.823 583.967 196.65 584.14C196.477 584.313 196.38 584.547 196.38 584.791C196.38 585.036 196.477 585.27 196.65 585.443C196.823 585.616 197.057 585.713 197.302 585.713V585.713Z" fill="#F7F7F7"/>
<path d="M199.108 581.979C199.352 581.979 199.586 581.882 199.759 581.709C199.932 581.536 200.029 581.302 200.029 581.058C200.029 580.813 199.932 580.579 199.759 580.406C199.586 580.233 199.352 580.136 199.108 580.136C198.863 580.136 198.629 580.233 198.456 580.406C198.283 580.579 198.186 580.813 198.186 581.058C198.186 581.302 198.283 581.536 198.456 581.709C198.629 581.882 198.863 581.979 199.108 581.979V581.979Z" fill="#F7F7F7"/>
<path d="M203.531 583.772C203.775 583.772 204.009 583.675 204.182 583.502C204.355 583.329 204.452 583.095 204.452 582.851C204.452 582.607 204.355 582.372 204.182 582.199C204.009 582.027 203.775 581.93 203.531 581.93C203.286 581.93 203.052 582.027 202.879 582.199C202.706 582.372 202.609 582.607 202.609 582.851C202.609 583.095 202.706 583.329 202.879 583.502C203.052 583.675 203.286 583.772 203.531 583.772V583.772Z" fill="#F7F7F7"/>
<path d="M205.189 586.548C205.433 586.548 205.668 586.451 205.841 586.278C206.013 586.105 206.111 585.871 206.111 585.627C206.111 585.382 206.013 585.148 205.841 584.975C205.668 584.802 205.433 584.705 205.189 584.705C204.945 584.705 204.71 584.802 204.537 584.975C204.365 585.148 204.268 585.382 204.268 585.627C204.268 585.871 204.365 586.105 204.537 586.278C204.71 586.451 204.945 586.548 205.189 586.548V586.548Z" fill="#F7F7F7"/>
<path d="M204.636 589.029C204.881 589.029 205.115 588.932 205.288 588.759C205.461 588.587 205.558 588.352 205.558 588.108C205.558 587.864 205.461 587.629 205.288 587.457C205.115 587.284 204.881 587.187 204.636 587.187C204.392 587.187 204.158 587.284 203.985 587.457C203.812 587.629 203.715 587.864 203.715 588.108C203.715 588.352 203.812 588.587 203.985 588.759C204.158 588.932 204.392 589.029 204.636 589.029Z" fill="#F7F7F7"/>
<path d="M207.4 589.643C207.645 589.643 207.879 589.546 208.052 589.373C208.225 589.201 208.322 588.966 208.322 588.722C208.322 588.478 208.225 588.243 208.052 588.071C207.879 587.898 207.645 587.801 207.4 587.801C207.156 587.801 206.922 587.898 206.749 588.071C206.576 588.243 206.479 588.478 206.479 588.722C206.479 588.966 206.576 589.201 206.749 589.373C206.922 589.546 207.156 589.643 207.4 589.643Z" fill="#F7F7F7"/>
<path d="M210.435 589.164C210.68 589.164 210.914 589.067 211.087 588.894C211.26 588.722 211.357 588.487 211.357 588.243C211.357 587.999 211.26 587.764 211.087 587.592C210.914 587.419 210.68 587.322 210.435 587.322C210.191 587.322 209.957 587.419 209.784 587.592C209.611 587.764 209.514 587.999 209.514 588.243C209.514 588.487 209.611 588.722 209.784 588.894C209.957 589.067 210.191 589.164 210.435 589.164Z" fill="#F7F7F7"/>
<path d="M199.513 591.793C199.757 591.793 199.992 591.695 200.165 591.523C200.337 591.35 200.435 591.116 200.435 590.871C200.435 590.627 200.337 590.393 200.165 590.22C199.992 590.047 199.757 589.95 199.513 589.95C199.269 589.95 199.034 590.047 198.861 590.22C198.689 590.393 198.592 590.627 198.592 590.871C198.592 591.116 198.689 591.35 198.861 591.523C199.034 591.695 199.269 591.793 199.513 591.793Z" fill="#F7F7F7"/>
<path d="M192.006 594.286C192.25 594.286 192.485 594.189 192.658 594.016C192.83 593.843 192.928 593.609 192.928 593.365C192.928 593.12 192.83 592.886 192.658 592.713C192.485 592.541 192.25 592.444 192.006 592.444C191.762 592.444 191.527 592.541 191.355 592.713C191.182 592.886 191.085 593.12 191.085 593.365C191.085 593.609 191.182 593.843 191.355 594.016C191.527 594.189 191.762 594.286 192.006 594.286Z" fill="#F7F7F7"/>
<path d="M186.932 585.713C187.176 585.713 187.411 585.616 187.584 585.443C187.756 585.27 187.854 585.036 187.854 584.791C187.854 584.547 187.756 584.313 187.584 584.14C187.411 583.967 187.176 583.87 186.932 583.87C186.688 583.87 186.453 583.967 186.28 584.14C186.108 584.313 186.01 584.547 186.01 584.791C186.01 585.036 186.108 585.27 186.28 585.443C186.453 585.616 186.688 585.713 186.932 585.713V585.713Z" fill="#F7F7F7"/>
<path d="M181.674 588.206C181.918 588.206 182.152 588.109 182.325 587.936C182.498 587.764 182.595 587.529 182.595 587.285C182.595 587.041 182.498 586.806 182.325 586.634C182.152 586.461 181.918 586.364 181.674 586.364C181.429 586.364 181.195 586.461 181.022 586.634C180.849 586.806 180.752 587.041 180.752 587.285C180.752 587.529 180.849 587.764 181.022 587.936C181.195 588.109 181.429 588.206 181.674 588.206V588.206Z" fill="#F7F7F7"/>
<path d="M177.263 594.556C177.508 594.556 177.742 594.459 177.915 594.286C178.088 594.113 178.185 593.879 178.185 593.635C178.185 593.391 178.088 593.156 177.915 592.983C177.742 592.811 177.508 592.714 177.263 592.714C177.019 592.714 176.784 592.811 176.612 592.983C176.439 593.156 176.342 593.391 176.342 593.635C176.342 593.879 176.439 594.113 176.612 594.286C176.784 594.459 177.019 594.556 177.263 594.556Z" fill="#F7F7F7"/>
<path d="M168.257 598.02C168.502 598.02 168.736 597.923 168.909 597.75C169.082 597.577 169.179 597.343 169.179 597.099C169.179 596.854 169.082 596.62 168.909 596.447C168.736 596.275 168.502 596.178 168.257 596.178C168.013 596.178 167.779 596.275 167.606 596.447C167.433 596.62 167.336 596.854 167.336 597.099C167.336 597.343 167.433 597.577 167.606 597.75C167.779 597.923 168.013 598.02 168.257 598.02Z" fill="#F7F7F7"/>
<path d="M164.252 597.013C164.496 597.013 164.731 596.916 164.904 596.743C165.076 596.57 165.173 596.336 165.173 596.091C165.173 595.847 165.076 595.613 164.904 595.44C164.731 595.267 164.496 595.17 164.252 595.17C164.008 595.17 163.773 595.267 163.6 595.44C163.428 595.613 163.331 595.847 163.331 596.091C163.331 596.336 163.428 596.57 163.6 596.743C163.773 596.916 164.008 597.013 164.252 597.013V597.013Z" fill="#F7F7F7"/>
<path d="M160.063 598.843C160.307 598.843 160.541 598.746 160.714 598.573C160.887 598.4 160.984 598.166 160.984 597.922C160.984 597.677 160.887 597.443 160.714 597.27C160.541 597.097 160.307 597 160.063 597C159.818 597 159.584 597.097 159.411 597.27C159.238 597.443 159.141 597.677 159.141 597.922C159.141 598.166 159.238 598.4 159.411 598.573C159.584 598.746 159.818 598.843 160.063 598.843V598.843Z" fill="#F7F7F7"/>
<path d="M157.2 601.336C157.444 601.336 157.679 601.239 157.852 601.066C158.024 600.894 158.121 600.659 158.121 600.415C158.121 600.171 158.024 599.936 157.852 599.764C157.679 599.591 157.444 599.494 157.2 599.494C156.956 599.494 156.721 599.591 156.548 599.764C156.376 599.936 156.279 600.171 156.279 600.415C156.279 600.659 156.376 600.894 156.548 601.066C156.721 601.239 156.956 601.336 157.2 601.336V601.336Z" fill="#F7F7F7"/>
<path d="M152.495 603.965C152.739 603.965 152.973 603.868 153.146 603.695C153.319 603.522 153.416 603.288 153.416 603.043C153.416 602.799 153.319 602.565 153.146 602.392C152.973 602.219 152.739 602.122 152.495 602.122C152.25 602.122 152.016 602.219 151.843 602.392C151.67 602.565 151.573 602.799 151.573 603.043C151.573 603.288 151.67 603.522 151.843 603.695C152.016 603.868 152.25 603.965 152.495 603.965V603.965Z" fill="#F7F7F7"/>
<path d="M164.117 601.754C164.361 601.754 164.596 601.657 164.769 601.484C164.941 601.311 165.039 601.077 165.039 600.833C165.039 600.588 164.941 600.354 164.769 600.181C164.596 600.008 164.361 599.911 164.117 599.911C163.873 599.911 163.638 600.008 163.465 600.181C163.293 600.354 163.196 600.588 163.196 600.833C163.196 601.077 163.293 601.311 163.465 601.484C163.638 601.657 163.873 601.754 164.117 601.754V601.754Z" fill="#F7F7F7"/>
<path d="M168.405 601.201C168.649 601.201 168.883 601.104 169.056 600.931C169.229 600.758 169.326 600.524 169.326 600.28C169.326 600.036 169.229 599.801 169.056 599.628C168.883 599.456 168.649 599.359 168.405 599.359C168.16 599.359 167.926 599.456 167.753 599.628C167.58 599.801 167.483 600.036 167.483 600.28C167.483 600.524 167.58 600.758 167.753 600.931C167.926 601.104 168.16 601.201 168.405 601.201V601.201Z" fill="#F7F7F7"/>
<path d="M164.977 598.99C165.222 598.99 165.456 598.893 165.629 598.72C165.802 598.548 165.899 598.313 165.899 598.069C165.899 597.825 165.802 597.59 165.629 597.418C165.456 597.245 165.222 597.148 164.977 597.148C164.733 597.148 164.498 597.245 164.326 597.418C164.153 597.59 164.056 597.825 164.056 598.069C164.056 598.313 164.153 598.548 164.326 598.72C164.498 598.893 164.733 598.99 164.977 598.99V598.99Z" fill="#F7F7F7"/>
<path d="M166.329 598.708C166.573 598.708 166.807 598.611 166.98 598.438C167.153 598.265 167.25 598.031 167.25 597.786C167.25 597.542 167.153 597.308 166.98 597.135C166.807 596.962 166.573 596.865 166.329 596.865C166.084 596.865 165.85 596.962 165.677 597.135C165.504 597.308 165.407 597.542 165.407 597.786C165.407 598.031 165.504 598.265 165.677 598.438C165.85 598.611 166.084 598.708 166.329 598.708Z" fill="#F7F7F7"/>
<path d="M168.122 597.32C168.367 597.32 168.601 597.223 168.774 597.05C168.947 596.877 169.044 596.643 169.044 596.399C169.044 596.154 168.947 595.92 168.774 595.747C168.601 595.574 168.367 595.477 168.122 595.477C167.878 595.477 167.643 595.574 167.471 595.747C167.298 595.92 167.201 596.154 167.201 596.399C167.201 596.643 167.298 596.877 167.471 597.05C167.643 597.223 167.878 597.32 168.122 597.32V597.32Z" fill="#F7F7F7"/>
<path d="M165.542 595.293V595.441C165.54 595.565 165.569 595.687 165.628 595.797C165.666 595.908 165.729 596.008 165.812 596.091C165.895 596.174 165.996 596.237 166.107 596.276C166.217 596.334 166.339 596.364 166.464 596.362H166.709C166.862 596.319 167.001 596.238 167.115 596.128L167.262 595.944C167.344 595.802 167.386 595.641 167.385 595.477V595.33C167.387 595.211 167.362 595.094 167.311 594.986C167.273 594.869 167.205 594.763 167.115 594.679C167.032 594.595 166.931 594.532 166.82 594.495C166.71 594.436 166.588 594.406 166.464 594.409H166.218C166.066 594.452 165.926 594.532 165.812 594.642L165.665 594.839C165.587 594.978 165.545 595.134 165.542 595.293V595.293Z" fill="#F7F7F7"/>
<path d="M165.087 597.185C165.332 597.185 165.566 597.088 165.739 596.915C165.912 596.742 166.009 596.508 166.009 596.263C166.009 596.019 165.912 595.785 165.739 595.612C165.566 595.439 165.332 595.342 165.087 595.342C164.843 595.342 164.609 595.439 164.436 595.612C164.263 595.785 164.166 596.019 164.166 596.263C164.166 596.508 164.263 596.742 164.436 596.915C164.609 597.088 164.843 597.185 165.087 597.185V597.185Z" fill="#F7F7F7"/>
<path d="M163.282 598.843C163.526 598.843 163.76 598.746 163.933 598.573C164.106 598.4 164.203 598.166 164.203 597.922C164.203 597.677 164.106 597.443 163.933 597.27C163.76 597.097 163.526 597 163.282 597C163.037 597 162.803 597.097 162.63 597.27C162.457 597.443 162.36 597.677 162.36 597.922C162.36 598.166 162.457 598.4 162.63 598.573C162.803 598.746 163.037 598.843 163.282 598.843V598.843Z" fill="#F7F7F7"/>
<path d="M161.623 598.708C161.867 598.708 162.102 598.611 162.274 598.438C162.447 598.265 162.544 598.031 162.544 597.786C162.544 597.542 162.447 597.308 162.274 597.135C162.102 596.962 161.867 596.865 161.623 596.865C161.378 596.865 161.144 596.962 160.971 597.135C160.799 597.308 160.701 597.542 160.701 597.786C160.701 598.031 160.799 598.265 160.971 598.438C161.144 598.611 161.378 598.708 161.623 598.708Z" fill="#F7F7F7"/>
<path d="M162.729 595.477H162.593C162.469 595.475 162.347 595.505 162.237 595.563C162.126 595.601 162.025 595.664 161.942 595.748C161.852 595.832 161.784 595.937 161.746 596.055C161.697 596.163 161.671 596.28 161.672 596.399V596.644C161.713 596.801 161.793 596.945 161.905 597.062L162.09 597.197C162.231 597.28 162.393 597.323 162.557 597.32H162.692C162.815 597.332 162.94 597.307 163.048 597.246C163.159 597.209 163.26 597.145 163.343 597.062C163.438 596.981 163.506 596.874 163.54 596.755C163.596 596.645 163.621 596.522 163.613 596.399V596.165C163.568 596.007 163.483 595.864 163.368 595.748L163.183 595.613C163.041 595.531 162.881 595.485 162.716 595.477H162.729Z" fill="#F7F7F7"/>
<path d="M160.652 597.737C160.897 597.737 161.131 597.64 161.304 597.468C161.477 597.295 161.574 597.06 161.574 596.816C161.574 596.572 161.477 596.338 161.304 596.165C161.131 595.992 160.897 595.895 160.652 595.895C160.408 595.895 160.174 595.992 160.001 596.165C159.828 596.338 159.731 596.572 159.731 596.816C159.731 597.06 159.828 597.295 160.001 597.468C160.174 597.64 160.408 597.737 160.652 597.737V597.737Z" fill="#F7F7F7"/>
<path d="M158.023 600.231C158.267 600.231 158.502 600.134 158.675 599.961C158.847 599.788 158.945 599.554 158.945 599.31C158.945 599.065 158.847 598.831 158.675 598.658C158.502 598.485 158.267 598.388 158.023 598.388C157.779 598.388 157.544 598.485 157.371 598.658C157.199 598.831 157.102 599.065 157.102 599.31C157.102 599.554 157.199 599.788 157.371 599.961C157.544 600.134 157.779 600.231 158.023 600.231V600.231Z" fill="#F7F7F7"/>
<path d="M156.917 599.396H157.47C157.594 599.409 157.718 599.383 157.826 599.322C158.049 599.23 158.226 599.053 158.318 598.831C158.379 598.723 158.405 598.598 158.392 598.474V598.229C158.343 598.076 158.259 597.937 158.146 597.823L157.962 597.688C157.822 597.599 157.66 597.552 157.495 597.553H156.942C156.822 597.549 156.702 597.579 156.598 597.639C156.482 597.673 156.376 597.737 156.291 597.823C156.207 597.906 156.144 598.007 156.107 598.118C156.048 598.228 156.018 598.35 156.021 598.474V598.72C156.064 598.872 156.144 599.012 156.254 599.125L156.451 599.273C156.587 599.356 156.745 599.398 156.905 599.396H156.917Z" fill="#F7F7F7"/>
<path d="M162.176 601.471C162.42 601.471 162.655 601.374 162.827 601.201C163 601.029 163.097 600.794 163.097 600.55C163.097 600.306 163 600.071 162.827 599.899C162.655 599.726 162.42 599.629 162.176 599.629C161.931 599.629 161.697 599.726 161.524 599.899C161.351 600.071 161.254 600.306 161.254 600.55C161.254 600.794 161.351 601.029 161.524 601.201C161.697 601.374 161.931 601.471 162.176 601.471Z" fill="#F7F7F7"/>
<path d="M186.097 586.265C186.341 586.265 186.575 586.168 186.748 585.995C186.921 585.823 187.018 585.588 187.018 585.344C187.018 585.1 186.921 584.865 186.748 584.693C186.575 584.52 186.341 584.423 186.097 584.423C185.852 584.423 185.618 584.52 185.445 584.693C185.272 584.865 185.175 585.1 185.175 585.344C185.175 585.588 185.272 585.823 185.445 585.995C185.618 586.168 185.852 586.265 186.097 586.265V586.265Z" fill="#F7F7F7"/>
<path d="M186.711 583.379L186.981 583.232C187.089 583.181 187.179 583.1 187.239 582.998C187.32 582.911 187.379 582.805 187.411 582.691C187.442 582.57 187.442 582.444 187.411 582.323C187.401 582.201 187.363 582.084 187.301 581.979L187.153 581.794C187.044 581.676 186.903 581.591 186.748 581.549H186.502C186.338 581.548 186.177 581.59 186.035 581.672L185.765 581.807C185.66 581.861 185.571 581.941 185.507 582.04C185.426 582.132 185.367 582.241 185.335 582.36C185.304 582.48 185.304 582.607 185.335 582.728C185.342 582.85 185.38 582.969 185.446 583.072L185.593 583.256C185.704 583.37 185.844 583.451 185.998 583.489H186.244C186.407 583.485 186.567 583.443 186.711 583.367V583.379Z" fill="#F7F7F7"/>
<path d="M189.279 584.19C189.523 584.19 189.757 584.092 189.93 583.92C190.103 583.747 190.2 583.513 190.2 583.268C190.2 583.024 190.103 582.79 189.93 582.617C189.757 582.444 189.523 582.347 189.279 582.347C189.034 582.347 188.8 582.444 188.627 582.617C188.454 582.79 188.357 583.024 188.357 583.268C188.357 583.513 188.454 583.747 188.627 583.92C188.8 584.092 189.034 584.19 189.279 584.19Z" fill="#F7F7F7"/>
<path d="M188.456 581.979C188.7 581.979 188.934 581.882 189.107 581.709C189.28 581.536 189.377 581.302 189.377 581.058C189.377 580.813 189.28 580.579 189.107 580.406C188.934 580.233 188.7 580.136 188.456 580.136C188.211 580.136 187.977 580.233 187.804 580.406C187.631 580.579 187.534 580.813 187.534 581.058C187.534 581.302 187.631 581.536 187.804 581.709C187.977 581.882 188.211 581.979 188.456 581.979V581.979Z" fill="#F7F7F7"/>
<path d="M192.878 581.979C193.123 581.979 193.357 581.882 193.53 581.709C193.703 581.536 193.8 581.302 193.8 581.058C193.8 580.813 193.703 580.579 193.53 580.406C193.357 580.233 193.123 580.136 192.878 580.136C192.634 580.136 192.4 580.233 192.227 580.406C192.054 580.579 191.957 580.813 191.957 581.058C191.957 581.302 192.054 581.536 192.227 581.709C192.4 581.882 192.634 581.979 192.878 581.979V581.979Z" fill="#F7F7F7"/>
<path d="M192.878 581.979C193.123 581.979 193.357 581.882 193.53 581.709C193.703 581.536 193.8 581.302 193.8 581.058C193.8 580.813 193.703 580.579 193.53 580.406C193.357 580.233 193.123 580.136 192.878 580.136C192.634 580.136 192.4 580.233 192.227 580.406C192.054 580.579 191.957 580.813 191.957 581.058C191.957 581.302 192.054 581.536 192.227 581.709C192.4 581.882 192.634 581.979 192.878 581.979V581.979Z" fill="#F7F7F7"/>
<path d="M195.508 580.321C195.752 580.321 195.986 580.224 196.159 580.051C196.332 579.878 196.429 579.644 196.429 579.399C196.429 579.155 196.332 578.921 196.159 578.748C195.986 578.575 195.752 578.478 195.508 578.478C195.263 578.478 195.029 578.575 194.856 578.748C194.683 578.921 194.586 579.155 194.586 579.399C194.586 579.644 194.683 579.878 194.856 580.051C195.029 580.224 195.263 580.321 195.508 580.321V580.321Z" fill="#F7F7F7"/>
<path d="M198.272 582.274C198.516 582.274 198.751 582.176 198.924 582.004C199.096 581.831 199.194 581.597 199.194 581.352C199.194 581.108 199.096 580.874 198.924 580.701C198.751 580.528 198.516 580.431 198.272 580.431C198.028 580.431 197.793 580.528 197.62 580.701C197.448 580.874 197.351 581.108 197.351 581.352C197.351 581.597 197.448 581.831 197.62 582.004C197.793 582.176 198.028 582.274 198.272 582.274V582.274Z" fill="#F7F7F7"/>
<path d="M199.931 584.325C200.175 584.325 200.409 584.228 200.582 584.055C200.755 583.882 200.852 583.648 200.852 583.404C200.852 583.159 200.755 582.925 200.582 582.752C200.409 582.579 200.175 582.482 199.931 582.482C199.686 582.482 199.452 582.579 199.279 582.752C199.106 582.925 199.009 583.159 199.009 583.404C199.009 583.648 199.106 583.882 199.279 584.055C199.452 584.228 199.686 584.325 199.931 584.325V584.325Z" fill="#F7F7F7"/>
<path d="M198.149 580.456C198.394 580.456 198.628 580.359 198.801 580.186C198.974 580.013 199.071 579.779 199.071 579.534C199.071 579.29 198.974 579.056 198.801 578.883C198.628 578.71 198.394 578.613 198.149 578.613C197.905 578.613 197.67 578.71 197.498 578.883C197.325 579.056 197.228 579.29 197.228 579.534C197.228 579.779 197.325 580.013 197.498 580.186C197.67 580.359 197.905 580.456 198.149 580.456Z" fill="#F7F7F7"/>
<path d="M201.172 581.426C201.416 581.426 201.65 581.329 201.823 581.156C201.996 580.984 202.093 580.749 202.093 580.505C202.093 580.261 201.996 580.026 201.823 579.854C201.65 579.681 201.416 579.584 201.172 579.584C200.927 579.584 200.693 579.681 200.52 579.854C200.347 580.026 200.25 580.261 200.25 580.505C200.25 580.749 200.347 580.984 200.52 581.156C200.693 581.329 200.927 581.426 201.172 581.426V581.426Z" fill="#F7F7F7"/>
<path d="M204.084 582.667C204.328 582.667 204.562 582.569 204.735 582.397C204.908 582.224 205.005 581.99 205.005 581.745C205.005 581.501 204.908 581.267 204.735 581.094C204.562 580.921 204.328 580.824 204.084 580.824C203.839 580.824 203.605 580.921 203.432 581.094C203.259 581.267 203.162 581.501 203.162 581.745C203.162 581.99 203.259 582.224 203.432 582.397C203.605 582.569 203.839 582.667 204.084 582.667V582.667Z" fill="#F7F7F7"/>
<path d="M203.149 581.647C202.924 581.936 202.669 582.199 202.388 582.433L202.584 582.286H202.511C202.406 582.34 202.317 582.42 202.253 582.519C202.172 582.611 202.113 582.721 202.081 582.839C202.05 582.96 202.05 583.086 202.081 583.207C202.081 583.33 202.12 583.45 202.191 583.551L202.339 583.735C202.449 583.85 202.59 583.93 202.744 583.969H202.99C203.153 583.964 203.313 583.922 203.457 583.846C203.678 583.69 203.884 583.513 204.071 583.318C204.206 583.17 204.341 583.023 204.464 582.863C204.56 582.789 204.629 582.686 204.661 582.568C204.717 582.458 204.742 582.335 204.734 582.212C204.741 582.089 204.716 581.966 204.661 581.856C204.623 581.742 204.555 581.64 204.464 581.561L204.28 581.426C204.14 581.339 203.978 581.292 203.813 581.291H203.567C203.417 581.34 203.279 581.419 203.162 581.524L203.149 581.647Z" fill="#F7F7F7"/>
<path d="M204.907 583.367C205.151 583.367 205.385 583.27 205.558 583.097C205.731 582.924 205.828 582.69 205.828 582.445C205.828 582.201 205.731 581.967 205.558 581.794C205.385 581.621 205.151 581.524 204.907 581.524C204.662 581.524 204.428 581.621 204.255 581.794C204.082 581.967 203.985 582.201 203.985 582.445C203.985 582.69 204.082 582.924 204.255 583.097C204.428 583.27 204.662 583.367 204.907 583.367V583.367Z" fill="#F7F7F7"/>
<path d="M197.301 582.63H197.031C196.908 582.616 196.783 582.642 196.675 582.703C196.452 582.796 196.276 582.972 196.183 583.195C196.122 583.303 196.096 583.427 196.11 583.551V583.797C196.158 583.949 196.242 584.088 196.355 584.202L196.54 584.337C196.68 584.424 196.842 584.471 197.007 584.472H197.277C197.401 584.476 197.524 584.446 197.633 584.386C197.745 584.349 197.846 584.286 197.928 584.202C198.019 584.123 198.087 584.021 198.125 583.907C198.18 583.797 198.205 583.674 198.198 583.551V583.305C198.156 583.15 198.071 583.009 197.953 582.9L197.768 582.753C197.627 582.669 197.465 582.627 197.301 582.63Z" fill="#F7F7F7"/>
<path d="M194.304 583.232L194.439 583.367C194.521 583.454 194.622 583.521 194.734 583.563C194.846 583.612 194.967 583.637 195.09 583.637C195.213 583.637 195.334 583.612 195.446 583.563C195.558 583.521 195.659 583.454 195.741 583.367L195.889 583.183C195.972 583.041 196.015 582.88 196.011 582.716V582.47C195.973 582.316 195.892 582.175 195.778 582.065L195.643 581.93C195.561 581.842 195.46 581.775 195.348 581.733C195.235 581.685 195.114 581.659 194.992 581.659C194.869 581.659 194.748 581.685 194.635 581.733C194.523 581.775 194.422 581.842 194.341 581.93L194.193 582.114C194.11 582.255 194.067 582.417 194.07 582.581V582.826C194.108 582.981 194.189 583.121 194.304 583.232V583.232Z" fill="#F7F7F7"/>
<path d="M170.751 597.185C170.996 597.185 171.23 597.088 171.403 596.915C171.576 596.742 171.673 596.508 171.673 596.263C171.673 596.019 171.576 595.785 171.403 595.612C171.23 595.439 170.996 595.342 170.751 595.342C170.507 595.342 170.273 595.439 170.1 595.612C169.927 595.785 169.83 596.019 169.83 596.263C169.83 596.508 169.927 596.742 170.1 596.915C170.273 597.088 170.507 597.185 170.751 597.185V597.185Z" fill="#F7F7F7"/>
<path d="M170.395 595.784V595.674C170.352 595.522 170.272 595.382 170.162 595.269C170.048 595.156 169.909 595.071 169.756 595.023H169.633C169.517 594.992 169.394 594.992 169.277 595.023C169.153 595.022 169.033 595.061 168.933 595.133C168.825 595.184 168.736 595.265 168.675 595.367C168.587 595.454 168.528 595.565 168.503 595.686V595.92C168.508 596.084 168.555 596.244 168.638 596.386L168.773 596.571C168.889 596.686 169.033 596.771 169.191 596.816H169.302L168.65 596.178V596.288C168.683 596.402 168.742 596.508 168.822 596.595C168.883 596.697 168.973 596.778 169.08 596.828C169.18 596.901 169.301 596.94 169.424 596.939C169.545 596.976 169.673 596.976 169.793 596.939L170.014 596.841C170.149 596.767 170.26 596.656 170.334 596.521L170.432 596.3C170.481 596.14 170.481 595.969 170.432 595.809L170.395 595.784Z" fill="#F7F7F7"/>
<path d="M169.511 596.767C169.755 596.767 169.989 596.67 170.162 596.497C170.335 596.324 170.432 596.09 170.432 595.846C170.432 595.601 170.335 595.367 170.162 595.194C169.989 595.022 169.755 594.925 169.511 594.925C169.266 594.925 169.032 595.022 168.859 595.194C168.686 595.367 168.589 595.601 168.589 595.846C168.589 596.09 168.686 596.324 168.859 596.497C169.032 596.67 169.266 596.767 169.511 596.767V596.767Z" fill="#F7F7F7"/>
<path d="M167.434 596.497C167.679 596.497 167.913 596.4 168.086 596.227C168.259 596.054 168.356 595.82 168.356 595.576C168.356 595.331 168.259 595.097 168.086 594.924C167.913 594.752 167.679 594.654 167.434 594.654C167.19 594.654 166.956 594.752 166.783 594.924C166.61 595.097 166.513 595.331 166.513 595.576C166.513 595.82 166.61 596.054 166.783 596.227C166.956 596.4 167.19 596.497 167.434 596.497V596.497Z" fill="#F7F7F7"/>
<path d="M165.223 593.684H165.088C164.963 593.681 164.84 593.71 164.731 593.77C164.617 593.801 164.515 593.865 164.437 593.954C164.346 594.033 164.278 594.135 164.24 594.249C164.179 594.357 164.154 594.482 164.166 594.605V594.851C164.209 595.006 164.294 595.147 164.412 595.256L164.596 595.404C164.737 595.488 164.899 595.531 165.063 595.527H165.198C165.321 595.533 165.444 595.508 165.555 595.453C165.669 595.415 165.771 595.347 165.849 595.256C165.933 595.174 165.996 595.073 166.034 594.962C166.132 594.847 166.192 594.706 166.206 594.556V594.311C166.165 594.157 166.085 594.017 165.972 593.905L165.788 593.758C165.644 593.681 165.484 593.639 165.321 593.635L165.223 593.684Z" fill="#F7F7F7"/>
<path d="M163.933 594.642L163.748 594.556C163.666 594.473 163.565 594.409 163.454 594.372C163.343 594.316 163.221 594.287 163.097 594.287C162.973 594.287 162.851 594.316 162.741 594.372C162.63 594.409 162.529 594.473 162.446 594.556L162.299 594.74C162.217 594.882 162.175 595.043 162.176 595.207V595.453C162.214 595.607 162.295 595.748 162.409 595.858L162.544 595.993C162.623 596.084 162.725 596.152 162.839 596.19C162.948 596.25 163.072 596.276 163.196 596.264C163.319 596.277 163.444 596.251 163.552 596.19C163.666 596.152 163.768 596.084 163.847 595.993L163.994 595.809C164.079 595.668 164.121 595.506 164.117 595.342V595.109C164.072 594.951 163.987 594.807 163.871 594.691L163.933 594.642Z" fill="#F7F7F7"/>
<path d="M162.815 597.75C163.058 597.872 163.292 598.012 163.515 598.167L163.331 598.02C163.422 598.092 163.504 598.175 163.576 598.265L163.429 598.081C163.491 598.184 163.575 598.272 163.675 598.339C163.762 598.418 163.867 598.473 163.982 598.499C164.102 598.536 164.23 598.536 164.35 598.499C164.472 598.496 164.59 598.463 164.694 598.401C164.899 598.277 165.049 598.079 165.112 597.848V597.602C165.115 597.438 165.073 597.277 164.989 597.135C164.888 596.989 164.773 596.854 164.645 596.73C164.509 596.614 164.366 596.507 164.215 596.411C164.043 596.3 163.871 596.214 163.687 596.116C163.586 596.045 163.466 596.006 163.343 596.005C163.222 595.975 163.095 595.975 162.974 596.005C162.86 596.038 162.755 596.097 162.667 596.177C162.565 596.241 162.48 596.33 162.422 596.435C162.362 596.541 162.324 596.657 162.309 596.777C162.294 596.897 162.303 597.019 162.336 597.135C162.396 597.368 162.547 597.566 162.753 597.688L162.815 597.75Z" fill="#F7F7F7"/>
<path d="M168.958 600.231C169.202 600.231 169.437 600.134 169.609 599.961C169.782 599.788 169.879 599.554 169.879 599.31C169.879 599.065 169.782 598.831 169.609 598.658C169.437 598.485 169.202 598.388 168.958 598.388C168.713 598.388 168.479 598.485 168.306 598.658C168.133 598.831 168.036 599.065 168.036 599.31C168.036 599.554 168.133 599.788 168.306 599.961C168.479 600.134 168.713 600.231 168.958 600.231Z" fill="#F7F7F7"/>
<path d="M166.746 601.926C166.991 601.926 167.225 601.829 167.398 601.656C167.571 601.483 167.668 601.249 167.668 601.004C167.668 600.76 167.571 600.526 167.398 600.353C167.225 600.18 166.991 600.083 166.746 600.083C166.502 600.083 166.267 600.18 166.095 600.353C165.922 600.526 165.825 600.76 165.825 601.004C165.825 601.249 165.922 601.483 166.095 601.656C166.267 601.829 166.502 601.926 166.746 601.926V601.926Z" fill="#F7F7F7"/>
<path d="M171.857 602.577C172.102 602.577 172.336 602.48 172.509 602.307C172.682 602.134 172.779 601.9 172.779 601.655C172.779 601.411 172.682 601.177 172.509 601.004C172.336 600.831 172.102 600.734 171.857 600.734C171.613 600.734 171.378 600.831 171.206 601.004C171.033 601.177 170.936 601.411 170.936 601.655C170.936 601.9 171.033 602.134 171.206 602.307C171.378 602.48 171.613 602.577 171.857 602.577Z" fill="#F7F7F7"/>
<path d="M172.545 598.241C172.789 598.241 173.024 598.144 173.197 597.971C173.369 597.798 173.466 597.564 173.466 597.32C173.466 597.075 173.369 596.841 173.197 596.668C173.024 596.495 172.789 596.398 172.545 596.398C172.301 596.398 172.066 596.495 171.893 596.668C171.721 596.841 171.624 597.075 171.624 597.32C171.624 597.564 171.721 597.798 171.893 597.971C172.066 598.144 172.301 598.241 172.545 598.241V598.241Z" fill="#F7F7F7"/>
<path d="M175.457 600.918C175.701 600.918 175.936 600.821 176.108 600.649C176.281 600.476 176.378 600.242 176.378 599.997C176.378 599.753 176.281 599.519 176.108 599.346C175.936 599.173 175.701 599.076 175.457 599.076C175.212 599.076 174.978 599.173 174.805 599.346C174.632 599.519 174.535 599.753 174.535 599.997C174.535 600.242 174.632 600.476 174.805 600.649C174.978 600.821 175.212 600.918 175.457 600.918V600.918Z" fill="#F7F7F7"/>
<path d="M174.941 602.171L175.359 602.589C175.441 602.673 175.542 602.736 175.653 602.773C175.762 602.833 175.885 602.863 176.01 602.859C176.134 602.862 176.257 602.832 176.366 602.773C176.477 602.736 176.578 602.673 176.661 602.589L176.808 602.405C176.885 602.261 176.927 602.101 176.931 601.938V601.692C176.893 601.538 176.812 601.398 176.698 601.287L176.28 600.869C176.198 600.782 176.097 600.715 175.985 600.673C175.873 600.624 175.751 600.599 175.629 600.599C175.506 600.599 175.385 600.624 175.273 600.673C175.16 600.715 175.059 600.782 174.978 600.869L174.83 601.054C174.747 601.195 174.704 601.356 174.707 601.52V601.766C174.746 601.92 174.827 602.061 174.941 602.171V602.171Z" fill="#F7F7F7"/>
<path d="M177.804 604.1C178.048 604.1 178.282 604.003 178.455 603.83C178.628 603.657 178.725 603.423 178.725 603.179C178.725 602.934 178.628 602.7 178.455 602.527C178.282 602.354 178.048 602.257 177.804 602.257C177.559 602.257 177.325 602.354 177.152 602.527C176.979 602.7 176.882 602.934 176.882 603.179C176.882 603.423 176.979 603.657 177.152 603.83C177.325 604.003 177.559 604.1 177.804 604.1V604.1Z" fill="#F7F7F7"/>
<path d="M195.778 589.447C196.022 589.447 196.257 589.349 196.429 589.177C196.602 589.004 196.699 588.77 196.699 588.525C196.699 588.281 196.602 588.047 196.429 587.874C196.257 587.701 196.022 587.604 195.778 587.604C195.534 587.604 195.299 587.701 195.126 587.874C194.954 588.047 194.856 588.281 194.856 588.525C194.856 588.77 194.954 589.004 195.126 589.177C195.299 589.349 195.534 589.447 195.778 589.447V589.447Z" fill="#F7F7F7"/>
<path d="M187.903 592.345C188.147 592.345 188.381 592.248 188.554 592.075C188.727 591.903 188.824 591.668 188.824 591.424C188.824 591.18 188.727 590.945 188.554 590.773C188.381 590.6 188.147 590.503 187.903 590.503C187.658 590.503 187.424 590.6 187.251 590.773C187.078 590.945 186.981 591.18 186.981 591.424C186.981 591.668 187.078 591.903 187.251 592.075C187.424 592.248 187.658 592.345 187.903 592.345V592.345Z" fill="#F7F7F7"/>
<path d="M384.749 231.347C380.306 238.538 375.086 245.218 369.183 251.269C357.266 263.552 342.645 275.159 325.985 279.925C308.785 284.838 313.699 258.983 315.825 250.201C321.403 227.306 333.529 203.625 347.523 184.771C354.673 175.117 365.116 162.208 378.84 164.91C397.588 168.595 400.954 187.4 396.765 203.466C394.162 213.303 390.113 222.699 384.749 231.347V231.347Z" fill="#C5A38B"/>
<path d="M324.265 268.944C331.145 259.622 337.558 249.955 343.628 240.08C349.697 230.205 355.373 220.109 360.89 209.914C366.406 199.719 371.701 189.39 376.984 179.035C382.267 168.681 387.931 158.523 391.199 147.752C391.431 147.128 391.892 146.615 392.489 146.319C393.085 146.023 393.772 145.965 394.409 146.158C395.047 146.351 395.587 146.779 395.92 147.356C396.252 147.933 396.352 148.614 396.2 149.262V149.262C394.261 154.882 391.891 160.344 389.111 165.598C386.408 170.818 383.606 175.879 380.842 181.001C375.301 191.22 369.785 201.427 363.937 211.523C358.088 221.619 352.154 231.617 345.827 241.394C339.5 251.171 332.779 260.703 325.629 269.902C325.484 270.051 325.291 270.141 325.084 270.157C324.877 270.172 324.672 270.111 324.507 269.986C324.342 269.86 324.229 269.679 324.189 269.476C324.149 269.272 324.185 269.061 324.29 268.883L324.265 268.944Z" fill="#9B7857"/>
<path d="M32.288 168.866C27.9996 164.318 24.2293 159.309 21.0463 153.93C14.5839 143.06 9.07977 130.372 8.8832 117.561C8.67434 104.37 26.2065 112.808 32.0669 116.026C47.3507 124.402 61.9465 137.619 72.7213 151.24C78.2377 158.217 85.4496 168.153 80.8915 177.426C74.6748 190.127 60.5704 188.886 49.8939 182.819C43.3647 179.067 37.4309 174.365 32.288 168.866V168.866Z" fill="#C5A38B"/>
<path d="M17.078 118.445C27.8907 131.762 39.6327 144.297 52.216 155.956C58.445 161.852 64.7969 167.625 71.1733 173.386C77.5497 179.146 83.7542 185.152 90.8309 189.562C91.0542 189.691 91.2493 189.864 91.4047 190.07C91.56 190.275 91.6725 190.51 91.7354 190.761C91.7983 191.011 91.8103 191.271 91.7709 191.526C91.7314 191.781 91.6411 192.025 91.5055 192.244C91.3699 192.464 91.1916 192.654 90.9813 192.803C90.7709 192.952 90.5327 193.058 90.2808 193.114C90.0289 193.169 89.7684 193.174 89.5147 193.127C89.261 193.08 89.0192 192.983 88.8037 192.841V192.841C85.1563 190.383 81.7095 187.639 78.4958 184.636C75.2891 181.713 72.2054 178.728 69.0847 175.781C62.8434 169.86 56.6267 163.903 50.5205 157.836C38.1443 145.796 26.6402 132.891 16.0951 119.219C16.0173 119.088 15.9901 118.933 16.0186 118.783C16.0472 118.633 16.1296 118.498 16.2503 118.405C16.371 118.311 16.5218 118.265 16.6742 118.275C16.8266 118.284 16.9702 118.35 17.078 118.458V118.445Z" fill="#9B7857"/>
<path d="M307.642 399.729C313.09 397.925 318.322 395.528 323.246 392.581C333.197 386.624 343.186 378.787 348.948 368.532C354.87 357.968 337.03 357.121 330.9 357.158C314.928 357.256 297.347 361.555 282.689 367.844C275.195 371.062 265.034 375.95 264.654 385.432C264.138 398.391 276.055 403.549 287.334 403.304C294.243 403.124 301.087 401.919 307.642 399.729V399.729Z" fill="#A7A8AB"/>
<path d="M342.424 366.714C327.967 373.149 313.072 378.55 297.85 382.878C290.258 385.125 282.64 387.201 275.023 389.265C267.406 391.328 259.825 393.699 251.679 394.436C251.212 394.478 250.747 394.333 250.386 394.032C250.025 393.732 249.799 393.3 249.757 392.833C249.714 392.365 249.859 391.9 250.16 391.54C250.461 391.179 250.892 390.953 251.36 390.911H251.421C259.039 390.444 266.644 388.221 274.323 386.427C282.001 384.634 289.643 382.669 297.248 380.63C312.498 376.711 327.451 371.716 341.994 365.682C342.063 365.652 342.138 365.636 342.213 365.635C342.289 365.634 342.364 365.649 342.433 365.677C342.503 365.706 342.567 365.748 342.62 365.802C342.673 365.855 342.715 365.919 342.743 365.989C342.771 366.058 342.785 366.131 342.783 366.205C342.782 366.278 342.766 366.351 342.737 366.419C342.707 366.486 342.664 366.547 342.61 366.598C342.556 366.649 342.493 366.688 342.424 366.714V366.714Z" fill="#8A8B8F"/>
<path d="M21.8942 636.563C23.9349 635.895 25.8928 634.996 27.73 633.885C31.4158 631.662 35.2122 628.726 37.3623 624.882C39.5123 621.037 32.9024 620.607 30.6049 620.62C24.3842 620.789 18.2535 622.148 12.5445 624.624C9.74328 625.852 5.93463 627.658 5.79948 631.207C5.60291 636.12 10.0627 638 14.2891 637.901C16.8774 637.843 19.4418 637.392 21.8942 636.563V636.563Z" fill="#E7E7E8"/>
<path d="M21.8942 635.089C23.9334 634.412 25.8908 633.51 27.73 632.399C31.4158 630.176 35.2122 627.24 37.3623 623.396C39.5123 619.551 32.9024 619.121 30.6049 619.146C24.3842 619.304 18.2523 620.66 12.5445 623.138C9.74328 624.366 5.93463 626.172 5.79948 629.721C5.60291 634.634 10.0627 636.514 14.2891 636.415C16.8762 636.355 19.4397 635.908 21.8942 635.089V635.089Z" fill="#A7A8AB"/>
<path d="M34.9174 622.708C29.5012 625.117 23.9217 627.14 18.2206 628.763C15.3826 629.599 12.5322 630.385 9.68188 631.146C6.82277 632.042 3.89205 632.691 0.921946 633.087C0.83098 633.105 0.737311 633.103 0.646965 633.082C0.556619 633.062 0.471607 633.022 0.397406 632.967C0.323205 632.911 0.261465 632.841 0.21616 632.76C0.170855 632.679 0.142973 632.59 0.134348 632.497C0.125724 632.405 0.136529 632.312 0.166068 632.224C0.195607 632.137 0.24322 632.056 0.305846 631.988C0.368472 631.919 0.444733 631.865 0.529684 631.828C0.614636 631.791 0.7064 631.772 0.799078 631.773V631.773C3.708 631.454 6.58492 630.891 9.39929 630.09C12.2742 629.402 15.1369 628.69 17.9995 627.928C23.7065 626.453 29.3024 624.577 34.7453 622.315C34.7711 622.304 34.7989 622.297 34.8271 622.297C34.8553 622.296 34.8833 622.301 34.9095 622.312C34.9358 622.322 34.9597 622.337 34.98 622.357C35.0004 622.376 35.0166 622.4 35.0279 622.425C35.0392 622.451 35.0453 622.479 35.0458 622.507C35.0464 622.535 35.0414 622.563 35.0311 622.59C35.0209 622.616 35.0055 622.64 34.986 622.66C34.9665 622.68 34.9432 622.697 34.9174 622.708V622.708Z" fill="#8A8B8F"/>
</g>
</svg>
