<svg width="1511" height="969" viewBox="0 0 1511 969" fill="none" xmlns="http://www.w3.org/2000/svg">
<path d="M1229.56 680.403C1248.79 679.669 1263.21 691.638 1284.81 692.372C1311.03 692.372 1320.87 679.669 1340.07 680.403C1324.59 670.839 1311.04 658.477 1300.09 643.951C1309.37 647.86 1318.92 651.101 1328.67 653.649C1318.13 641.356 1308.91 627.998 1301.14 613.791L1323.11 623.332C1314.64 614.179 1306.75 604.502 1299.5 594.359C1304.26 596.441 1309.25 597.943 1314.37 598.833C1306.59 591.785 1300.16 583.376 1295.41 574.019C1297.82 575.458 1300.47 576.441 1303.24 576.92C1296.96 571.853 1284.81 555.951 1284.81 555.951C1284.81 555.951 1272.67 571.818 1266.41 576.92C1269.17 576.441 1271.82 575.457 1274.22 574.019C1269.46 583.376 1263.04 591.785 1255.26 598.833C1260.38 597.943 1265.38 596.441 1270.15 594.359C1262.89 604.498 1255 614.174 1246.54 623.332L1268.44 613.878C1260.7 628.09 1251.49 641.45 1240.96 653.737C1250.71 651.191 1260.26 647.95 1269.54 644.039C1258.58 658.533 1245.03 670.864 1229.56 680.403Z" fill="#F7F7F7"/>
<path d="M1180.99 672.137C1197.37 671.508 1209.69 681.73 1228.18 682.36C1250.59 682.36 1258.95 671.508 1275.38 672.137C1262.17 663.979 1250.61 653.431 1241.27 641.033C1249.19 644.376 1257.34 647.145 1265.66 649.316C1256.67 638.833 1248.82 627.436 1242.22 615.311L1260.8 623.332C1253.57 615.518 1246.84 607.259 1240.64 598.606C1244.71 600.377 1248.98 601.656 1253.35 602.415C1246.72 596.449 1241.24 589.326 1237.17 581.394C1239.22 582.618 1241.49 583.453 1243.84 583.858C1238.49 579.541 1228.11 565.999 1228.11 565.999C1228.11 565.999 1217.75 579.541 1212.38 583.858C1214.74 583.456 1217 582.62 1219.06 581.394C1215 589.375 1209.51 596.547 1202.87 602.555C1207.25 601.798 1211.51 600.519 1215.58 598.746C1209.39 607.35 1202.67 615.562 1195.46 623.332L1214.15 615.259C1207.55 627.383 1199.69 638.781 1190.71 649.263C1199.02 647.095 1207.17 644.327 1215.09 640.981C1205.77 653.401 1194.2 663.969 1180.99 672.137Z" fill="#F7F7F7"/>
<path d="M1313.95 692.565C1328.98 691.988 1340.31 701.302 1357.25 701.948C1377.84 701.948 1385.51 691.988 1400.56 692.565C1388.46 685.062 1377.86 675.374 1369.31 663.994C1376.58 667.066 1384.07 669.607 1391.72 671.595C1383.46 661.972 1376.24 651.505 1370.18 640.369L1387.35 647.778C1380.71 640.602 1374.52 633.015 1368.84 625.062C1372.57 626.688 1376.49 627.861 1380.51 628.556C1374.41 623.038 1369.36 616.445 1365.64 609.108C1367.53 610.227 1369.61 610.996 1371.77 611.379C1366.86 607.395 1357.33 594.953 1357.33 594.953C1357.33 594.953 1347.81 607.395 1342.9 611.379C1345.06 610.996 1347.14 610.227 1349.03 609.108C1345.31 616.441 1340.27 623.032 1334.18 628.556C1338.19 627.859 1342.1 626.685 1345.83 625.062C1340.15 633.015 1333.96 640.602 1327.32 647.778L1344.49 640.369C1338.43 651.501 1331.22 661.967 1322.97 671.595C1330.61 669.604 1338.09 667.064 1345.36 663.994C1336.76 675.389 1326.11 685.079 1313.95 692.565Z" fill="#F7F7F7"/>
<path d="M756.247 653.492C771.279 652.916 782.606 662.229 799.543 662.876C820.133 662.876 827.806 652.916 842.856 653.492C830.728 645.993 820.101 636.305 811.516 624.922C818.795 627.981 826.283 630.515 833.924 632.506C825.67 622.881 818.452 612.415 812.39 601.279L829.554 608.688C822.913 601.512 816.731 593.925 811.044 585.972C814.783 587.598 818.703 588.771 822.72 589.467C816.615 583.947 811.573 577.355 807.845 570.018C809.737 571.137 811.816 571.907 813.98 572.29C809.069 568.323 799.543 555.881 799.543 555.881C799.543 555.881 790.017 568.323 785.105 572.29C787.271 571.91 789.349 571.14 791.24 570.018C787.518 577.354 782.483 583.946 776.383 589.467C780.394 588.769 784.308 587.596 788.042 585.972C782.355 593.925 776.172 601.512 769.531 608.688L786.713 601.279C780.644 612.411 773.427 622.876 765.179 632.506C772.813 630.512 780.295 627.978 787.57 624.922C778.991 636.305 768.37 645.993 756.247 653.492Z" fill="#F7F7F7"/>
<path d="M832.578 641.173C847.61 640.596 858.937 649.91 875.874 650.556C896.464 650.556 904.137 640.596 919.187 641.173C907.059 633.674 896.432 623.986 887.847 612.602C895.126 615.667 902.614 618.207 910.255 620.204C902.005 610.57 894.787 600.098 888.721 588.96L905.885 596.369C899.24 589.197 893.057 581.609 887.375 573.652C891.111 575.287 895.032 576.46 899.051 577.147C892.946 571.627 887.904 565.036 884.176 557.699C886.065 558.825 888.144 559.595 890.311 559.97C885.4 556.004 875.874 543.562 875.874 543.562C875.874 543.562 866.348 556.004 861.436 559.97C863.604 559.598 865.684 558.828 867.571 557.699C863.85 565.035 858.814 571.627 852.714 577.147C856.727 576.458 860.642 575.284 864.373 573.652C858.69 581.609 852.508 589.197 845.862 596.369L863.044 588.96C856.949 600.097 849.709 610.569 841.44 620.204C849.075 618.207 856.558 615.667 863.831 612.602C855.273 623.979 844.676 633.666 832.578 641.173Z" fill="#F7F7F7"/>
<path d="M1022.44 614.752C1037.49 614.175 1048.81 623.489 1065.75 624.135C1086.32 624.135 1094.01 614.175 1109.04 614.752C1096.92 607.252 1086.3 597.564 1077.72 586.181C1085 589.246 1092.49 591.787 1100.13 593.783C1091.89 584.144 1084.67 573.673 1078.6 562.539L1095.78 569.948C1089.13 562.776 1082.95 555.188 1077.27 547.231C1081 548.863 1084.91 550.036 1088.93 550.726C1082.83 545.206 1077.79 538.614 1074.07 531.277C1075.96 532.407 1078.04 533.177 1080.2 533.549C1075.29 529.582 1065.77 517.141 1065.77 517.141C1065.77 517.141 1056.24 529.582 1051.33 533.549C1053.5 533.174 1055.58 532.404 1057.46 531.277C1053.74 538.614 1048.69 545.206 1042.59 550.726C1046.61 550.039 1050.53 548.865 1054.27 547.231C1048.58 555.188 1042.4 562.776 1035.75 569.948L1052.92 562.539C1046.85 573.677 1039.64 584.149 1031.39 593.783C1039.03 591.786 1046.51 589.246 1053.79 586.181C1045.2 597.566 1034.57 607.254 1022.44 614.752Z" fill="#F7F7F7"/>
<path d="M712.934 663.522C727.984 662.946 739.31 672.26 756.247 672.906C776.82 672.906 784.511 662.946 799.543 663.522C787.42 656.023 776.799 646.335 768.22 634.952C775.496 638.009 782.978 640.549 790.611 642.553C782.367 632.915 775.15 622.444 769.077 611.309L786.241 618.719C779.607 611.542 773.43 603.954 767.749 596.002C771.479 597.634 775.394 598.807 779.407 599.497C773.307 593.972 768.266 587.381 764.532 580.048C766.422 581.172 768.501 581.942 770.668 582.32C765.756 578.353 756.247 565.911 756.247 565.911C756.247 565.911 746.721 578.353 741.81 582.32C743.976 581.942 746.055 581.172 747.945 580.048C744.211 587.381 739.17 593.972 733.07 599.497C737.089 598.807 741.009 597.634 744.746 596.002C739.053 603.95 732.871 611.537 726.236 618.719L743.4 611.309C737.334 622.448 730.116 632.92 721.866 642.553C729.505 640.549 736.992 638.009 744.274 634.952C735.683 646.33 725.057 656.017 712.934 663.522Z" fill="#F7F7F7"/>
<path d="M669.621 682.989C684.671 682.412 695.997 691.726 712.934 692.372C733.525 692.372 741.198 682.412 756.247 682.989C744.116 675.495 733.487 665.806 724.907 654.418C732.186 657.483 739.674 660.023 747.315 662.02C739.06 652.39 731.842 641.918 725.781 630.776L742.946 638.202C736.305 631.026 730.123 623.439 724.435 615.486C728.171 617.12 732.092 618.294 736.111 618.981C730.001 613.466 724.959 606.873 721.237 599.532C723.122 600.666 725.203 601.437 727.372 601.804C722.46 597.837 712.934 585.395 712.934 585.395C712.934 585.395 703.408 597.837 698.496 601.804C700.666 601.437 702.747 600.666 704.632 599.532C700.91 606.868 695.874 613.46 689.774 618.981C693.788 618.291 697.702 617.117 701.433 615.486C695.746 623.439 689.563 631.026 682.923 638.202L700.087 630.776C694.027 641.914 686.815 652.385 678.57 662.02C686.205 660.02 693.687 657.48 700.961 654.418C692.385 665.81 681.756 675.5 669.621 682.989Z" fill="#F7F7F7"/>
<path d="M626.325 692.565C641.375 691.988 652.684 701.302 669.621 701.948C690.211 701.948 697.885 691.988 712.934 692.565C700.808 685.07 690.185 675.381 681.612 663.994C688.881 667.066 696.365 669.607 704.002 671.595C695.752 661.968 688.535 651.502 682.468 640.369L699.633 647.778C693.002 640.593 686.82 633.007 681.122 625.062C684.862 626.685 688.781 627.859 692.798 628.556C686.702 623.028 681.662 616.438 677.924 609.108C679.817 610.224 681.895 610.993 684.059 611.379C679.147 607.395 669.621 594.953 669.621 594.953C669.621 594.953 660.112 607.395 655.201 611.379C657.365 610.993 659.443 610.224 661.336 609.108C657.599 616.444 652.559 623.04 646.461 628.574C650.478 627.876 654.398 626.703 658.137 625.079C652.44 633.024 646.258 640.611 639.627 647.796L656.791 640.386C650.696 651.512 643.455 661.972 635.187 671.595C642.825 669.607 650.308 667.066 657.578 663.994C649.025 675.375 638.427 685.063 626.325 692.565Z" fill="#F7F7F7"/>
<path d="M577.908 692.565C592.958 691.988 604.284 701.302 621.222 701.948C641.794 701.948 649.485 691.988 664.517 692.565C652.391 685.07 641.768 675.381 633.195 663.994C640.464 667.066 647.948 669.607 655.585 671.595C647.341 661.963 640.124 651.498 634.051 640.369L651.233 647.778C644.592 640.602 638.41 633.015 632.723 625.062C636.456 626.685 640.37 627.859 644.381 628.556C638.285 623.032 633.25 616.441 629.524 609.108C631.415 610.229 633.494 610.999 635.659 611.379C630.748 607.395 621.222 594.953 621.222 594.953C621.222 594.953 611.695 607.395 606.784 611.379C608.949 610.996 611.027 610.227 612.919 609.108C609.188 616.448 604.147 623.045 598.044 628.574C602.062 627.879 605.982 626.705 609.72 625.079C604.034 633.032 597.851 640.62 591.21 647.796L608.374 640.386C602.308 651.519 595.09 661.985 586.84 671.613C594.484 669.624 601.973 667.084 609.248 664.012C600.667 675.393 590.039 685.076 577.908 692.565Z" fill="#F7F7F7"/>
<path d="M534.613 692.565C549.645 691.988 560.971 701.302 577.908 701.948C598.499 701.948 606.172 691.988 621.222 692.565C609.09 685.071 598.462 675.382 589.882 663.994C597.157 667.066 604.646 669.607 612.29 671.596C604.04 661.968 596.822 651.502 590.756 640.369L607.92 647.796C601.279 640.62 595.096 633.032 589.41 625.079C593.148 626.705 597.068 627.879 601.086 628.574C594.997 623.048 589.968 616.457 586.246 609.125C588.138 610.244 590.216 611.014 592.381 611.397C587.47 607.413 577.943 594.971 577.943 594.971C577.943 594.971 568.417 607.413 563.506 611.397C565.671 611.017 567.75 610.247 569.641 609.125C565.915 616.459 560.88 623.05 554.784 628.574C558.795 627.876 562.709 626.703 566.442 625.079C560.755 633.032 554.573 640.62 547.932 647.796L565.114 640.387C559.041 651.515 551.824 661.981 543.58 671.613C551.217 669.624 558.7 667.084 565.97 664.012C557.385 675.396 546.75 685.079 534.613 692.565Z" fill="#F7F7F7"/>
<path d="M503.815 668.241C518.847 667.664 530.173 676.978 547.11 677.624C567.701 677.624 575.374 667.664 590.423 668.241C578.3 660.735 567.674 651.048 559.084 639.67C566.362 642.734 573.851 645.275 581.492 647.271C573.266 637.634 566.072 627.163 560.027 616.028L577.192 623.437C570.557 616.255 564.375 608.668 558.681 600.72C562.418 602.352 566.339 603.525 570.358 604.215C564.258 598.69 559.217 592.099 555.483 584.766C557.373 585.89 559.452 586.66 561.618 587.038C556.706 583.071 547.18 570.629 547.18 570.629C547.18 570.629 537.672 583.071 532.76 587.038C534.926 586.66 537.005 585.89 538.895 584.766C535.161 592.099 530.12 598.69 524.02 604.215C528.039 603.523 531.959 602.349 535.697 600.72C530.003 608.668 523.821 616.255 517.186 623.437L534.351 616.028C528.284 627.161 521.072 637.632 512.834 647.271C520.469 645.275 527.952 642.734 535.225 639.67C526.62 651.061 515.969 660.75 503.815 668.241Z" fill="#F7F7F7"/>
<path d="M258.164 610.016C273.196 609.44 284.522 618.753 301.46 619.4C322.05 619.4 329.723 609.44 344.773 610.016C332.64 602.502 322.013 592.796 313.433 581.394C320.714 584.45 328.202 586.99 335.841 588.995C327.594 579.378 320.376 568.923 314.307 557.803L331.471 565.212C324.826 558.04 318.643 550.453 312.961 542.496C316.697 544.13 320.617 545.304 324.637 545.991C318.532 540.471 313.49 533.879 309.762 526.542C311.651 527.669 313.73 528.439 315.897 528.814C310.986 524.847 301.46 512.405 301.46 512.405C301.46 512.405 291.934 524.847 287.022 528.814C289.19 528.442 291.27 527.671 293.157 526.542C289.435 533.878 284.4 540.47 278.3 545.991C282.313 545.301 286.228 544.128 289.958 542.496C284.276 550.453 278.094 558.04 271.448 565.212L288.63 557.803C282.557 568.938 275.34 579.409 267.096 589.047C274.73 587.026 282.212 584.468 289.486 581.394C280.913 592.795 270.291 602.501 258.164 610.016Z" fill="#F7F7F7"/>
<path d="M301.46 620.117C316.509 619.54 327.836 628.854 344.773 629.5C365.346 629.5 373.036 619.54 388.068 620.117C375.942 612.622 365.32 602.933 356.746 591.546C364.016 594.618 371.499 597.159 379.137 599.147C370.896 589.512 363.679 579.047 357.602 567.921L374.784 575.33C368.143 568.154 361.961 560.567 356.274 552.614C360.007 554.237 363.921 555.411 367.933 556.108C361.836 550.584 356.801 543.993 353.075 536.66C354.966 537.781 357.045 538.551 359.21 538.931C354.299 534.947 344.773 522.505 344.773 522.505C344.773 522.505 335.247 534.947 330.335 538.931C332.5 538.548 334.578 537.779 336.47 536.66C332.738 543.994 327.697 550.585 321.596 556.108C325.613 555.413 329.533 554.24 333.272 552.614C327.585 560.567 321.402 568.154 314.761 575.33L331.926 567.921C325.855 579.051 318.638 589.517 310.391 599.147C318.035 597.159 325.524 594.618 332.8 591.546C324.22 602.934 313.591 612.623 301.46 620.117Z" fill="#F7F7F7"/>
<path d="M651.74 138.981V261.563" stroke="#F7F7F7" stroke-width="2" stroke-miterlimit="10" stroke-linecap="round"/>
<path d="M662.699 140.519L651.74 152.471L640.763 140.519" stroke="#F7F7F7" stroke-width="2" stroke-miterlimit="10" stroke-linecap="round"/>
<path d="M640.763 260.008L651.74 248.073L662.699 260.008" stroke="#F7F7F7" stroke-width="2" stroke-miterlimit="10" stroke-linecap="round"/>
<path d="M590.423 200.263H713.039" stroke="#F7F7F7" stroke-width="2" stroke-miterlimit="10" stroke-linecap="round"/>
<path d="M591.979 189.289L603.917 200.263L591.979 211.237" stroke="#F7F7F7" stroke-width="2" stroke-miterlimit="10" stroke-linecap="round"/>
<path d="M711.501 211.237L699.545 200.263L711.501 189.289" stroke="#F7F7F7" stroke-width="2" stroke-miterlimit="10" stroke-linecap="round"/>
<path d="M608.392 156.927L695.088 243.599" stroke="#F7F7F7" stroke-width="2" stroke-miterlimit="10" stroke-linecap="round"/>
<path d="M617.236 150.269L617.918 166.468L601.715 165.787" stroke="#F7F7F7" stroke-width="2" stroke-miterlimit="10" stroke-linecap="round"/>
<path d="M686.226 250.274L685.544 234.058L701.747 234.757" stroke="#F7F7F7" stroke-width="2" stroke-miterlimit="10" stroke-linecap="round"/>
<path d="M695.088 156.927L608.392 243.599" stroke="#F7F7F7" stroke-width="2" stroke-miterlimit="10" stroke-linecap="round"/>
<path d="M701.747 165.787L685.544 166.468L686.226 150.269" stroke="#F7F7F7" stroke-width="2" stroke-miterlimit="10" stroke-linecap="round"/>
<path d="M601.715 234.757L617.918 234.058L617.236 250.274" stroke="#F7F7F7" stroke-width="2" stroke-miterlimit="10" stroke-linecap="round"/>
<path d="M943.903 381.89V454.146" stroke="#F7F7F7" stroke-width="1.18" stroke-miterlimit="10" stroke-linecap="round"/>
<path d="M950.37 382.799L943.902 389.841L937.418 382.799" stroke="#F7F7F7" stroke-width="1.18" stroke-miterlimit="10" stroke-linecap="round"/>
<path d="M937.418 453.238L943.902 446.195L950.37 453.238" stroke="#F7F7F7" stroke-width="1.18" stroke-miterlimit="10" stroke-linecap="round"/>
<path d="M907.756 418.01H980.032" stroke="#F7F7F7" stroke-width="1.18" stroke-miterlimit="10" stroke-linecap="round"/>
<path d="M908.665 411.544L915.709 418.01L908.665 424.475" stroke="#F7F7F7" stroke-width="1.18" stroke-miterlimit="10" stroke-linecap="round"/>
<path d="M979.123 424.475L972.079 418.01L979.123 411.544" stroke="#F7F7F7" stroke-width="1.18" stroke-miterlimit="10" stroke-linecap="round"/>
<path d="M918.348 392.462L969.457 443.557" stroke="#F7F7F7" stroke-width="1.18" stroke-miterlimit="10" stroke-linecap="round"/>
<path d="M923.557 388.53L923.976 398.089L914.415 397.687" stroke="#F7F7F7" stroke-width="1.18" stroke-miterlimit="10" stroke-linecap="round"/>
<path d="M964.23 447.489L963.828 437.93L973.39 438.35" stroke="#F7F7F7" stroke-width="1.18" stroke-miterlimit="10" stroke-linecap="round"/>
<path d="M969.457 392.462L918.348 443.557" stroke="#F7F7F7" stroke-width="1.18" stroke-miterlimit="10" stroke-linecap="round"/>
<path d="M973.39 397.687L963.828 398.089L964.23 388.53" stroke="#F7F7F7" stroke-width="1.18" stroke-miterlimit="10" stroke-linecap="round"/>
<path d="M914.415 438.35L923.976 437.93L923.557 447.489" stroke="#F7F7F7" stroke-width="1.18" stroke-miterlimit="10" stroke-linecap="round"/>
<path d="M785.42 371.493V401.164" stroke="#F7F7F7" stroke-width="2.46" stroke-miterlimit="10" stroke-linecap="round"/>
<path d="M788.077 371.878L785.42 374.761L782.763 371.878" stroke="#F7F7F7" stroke-width="2.46" stroke-miterlimit="10" stroke-linecap="round"/>
<path d="M782.763 400.78L785.42 397.897L788.077 400.78" stroke="#F7F7F7" stroke-width="2.46" stroke-miterlimit="10" stroke-linecap="round"/>
<path d="M770.58 386.329H800.242" stroke="#F7F7F7" stroke-width="2.46" stroke-miterlimit="10" stroke-linecap="round"/>
<path d="M770.947 383.673L773.849 386.329L770.947 388.985" stroke="#F7F7F7" stroke-width="2.46" stroke-miterlimit="10" stroke-linecap="round"/>
<path d="M799.875 388.985L796.973 386.329L799.875 383.673" stroke="#F7F7F7" stroke-width="2.46" stroke-miterlimit="10" stroke-linecap="round"/>
<path d="M774.915 375.844L795.907 396.813" stroke="#F7F7F7" stroke-width="2.46" stroke-miterlimit="10" stroke-linecap="round"/>
<path d="M777.065 374.219L777.239 378.151L773.307 377.976" stroke="#F7F7F7" stroke-width="2.46" stroke-miterlimit="10" stroke-linecap="round"/>
<path d="M793.757 398.421L793.6 394.507L797.515 394.664" stroke="#F7F7F7" stroke-width="2.46" stroke-miterlimit="10" stroke-linecap="round"/>
<path d="M795.907 375.844L774.915 396.813" stroke="#F7F7F7" stroke-width="2.46" stroke-miterlimit="10" stroke-linecap="round"/>
<path d="M797.515 377.976L793.6 378.151L793.757 374.219" stroke="#F7F7F7" stroke-width="2.46" stroke-miterlimit="10" stroke-linecap="round"/>
<path d="M773.307 394.664L777.239 394.507L777.065 398.421" stroke="#F7F7F7" stroke-width="2.46" stroke-miterlimit="10" stroke-linecap="round"/>
<path d="M590.423 504.874V534.545" stroke="#F7F7F7" stroke-width="2.46" stroke-miterlimit="10" stroke-linecap="round"/>
<path d="M593.08 505.258L590.423 508.142L587.767 505.258" stroke="#F7F7F7" stroke-width="2.46" stroke-miterlimit="10" stroke-linecap="round"/>
<path d="M587.767 534.161L590.423 531.278L593.08 534.161" stroke="#F7F7F7" stroke-width="2.46" stroke-miterlimit="10" stroke-linecap="round"/>
<path d="M575.601 519.709H605.263" stroke="#F7F7F7" stroke-width="2.46" stroke-miterlimit="10" stroke-linecap="round"/>
<path d="M575.968 517.053L578.852 519.71L575.968 522.366" stroke="#F7F7F7" stroke-width="2.46" stroke-miterlimit="10" stroke-linecap="round"/>
<path d="M604.896 522.366L601.995 519.71L604.896 517.053" stroke="#F7F7F7" stroke-width="2.46" stroke-miterlimit="10" stroke-linecap="round"/>
<path d="M579.936 509.225L600.911 530.194" stroke="#F7F7F7" stroke-width="2.46" stroke-miterlimit="10" stroke-linecap="round"/>
<path d="M582.086 507.617L582.243 511.532L578.328 511.357" stroke="#F7F7F7" stroke-width="2.46" stroke-miterlimit="10" stroke-linecap="round"/>
<path d="M598.778 531.802L598.604 527.887L602.536 528.062" stroke="#F7F7F7" stroke-width="2.46" stroke-miterlimit="10" stroke-linecap="round"/>
<path d="M600.911 509.225L579.936 530.194" stroke="#F7F7F7" stroke-width="2.46" stroke-miterlimit="10" stroke-linecap="round"/>
<path d="M602.536 511.357L598.604 511.532L598.778 507.617" stroke="#F7F7F7" stroke-width="2.46" stroke-miterlimit="10" stroke-linecap="round"/>
<path d="M578.328 528.062L582.243 527.887L582.086 531.802" stroke="#F7F7F7" stroke-width="2.46" stroke-miterlimit="10" stroke-linecap="round"/>
<path d="M1415.4 158.989V188.66" stroke="#F7F7F7" stroke-width="2.46" stroke-miterlimit="10" stroke-linecap="round"/>
<path d="M1418.06 159.374L1415.4 162.257L1412.74 159.374" stroke="#F7F7F7" stroke-width="2.46" stroke-miterlimit="10" stroke-linecap="round"/>
<path d="M1412.74 188.276L1415.4 185.393L1418.06 188.276" stroke="#F7F7F7" stroke-width="2.46" stroke-miterlimit="10" stroke-linecap="round"/>
<path d="M1400.56 173.825H1430.22" stroke="#F7F7F7" stroke-width="2.46" stroke-miterlimit="10" stroke-linecap="round"/>
<path d="M1400.93 171.169L1403.83 173.825L1400.93 176.481" stroke="#F7F7F7" stroke-width="2.46" stroke-miterlimit="10" stroke-linecap="round"/>
<path d="M1429.86 176.481L1426.97 173.825L1429.86 171.169" stroke="#F7F7F7" stroke-width="2.46" stroke-miterlimit="10" stroke-linecap="round"/>
<path d="M1404.91 163.34L1425.89 184.309" stroke="#F7F7F7" stroke-width="2.46" stroke-miterlimit="10" stroke-linecap="round"/>
<path d="M1407.05 161.733L1407.22 165.647L1403.29 165.472" stroke="#F7F7F7" stroke-width="2.46" stroke-miterlimit="10" stroke-linecap="round"/>
<path d="M1423.74 185.934L1423.58 182.003L1427.5 182.177" stroke="#F7F7F7" stroke-width="2.46" stroke-miterlimit="10" stroke-linecap="round"/>
<path d="M1425.89 163.34L1404.91 184.309" stroke="#F7F7F7" stroke-width="2.46" stroke-miterlimit="10" stroke-linecap="round"/>
<path d="M1427.5 165.472L1423.58 165.647L1423.74 161.733" stroke="#F7F7F7" stroke-width="2.46" stroke-miterlimit="10" stroke-linecap="round"/>
<path d="M1403.29 182.177L1407.22 182.003L1407.05 185.934" stroke="#F7F7F7" stroke-width="2.46" stroke-miterlimit="10" stroke-linecap="round"/>
<path d="M290.046 99.8039V129.458" stroke="#F7F7F7" stroke-width="2.46" stroke-miterlimit="10" stroke-linecap="round"/>
<path d="M292.703 100.171L290.046 103.054L287.389 100.171" stroke="#F7F7F7" stroke-width="2.46" stroke-miterlimit="10" stroke-linecap="round"/>
<path d="M287.389 129.091L290.046 126.19L292.703 129.091" stroke="#F7F7F7" stroke-width="2.46" stroke-miterlimit="10" stroke-linecap="round"/>
<path d="M275.206 114.622H304.868" stroke="#F7F7F7" stroke-width="2.46" stroke-miterlimit="10" stroke-linecap="round"/>
<path d="M275.573 111.966L278.475 114.622L275.573 117.278" stroke="#F7F7F7" stroke-width="2.46" stroke-miterlimit="10" stroke-linecap="round"/>
<path d="M304.501 117.278L301.617 114.622L304.501 111.966" stroke="#F7F7F7" stroke-width="2.46" stroke-miterlimit="10" stroke-linecap="round"/>
<path d="M279.541 104.137L300.533 125.124" stroke="#F7F7F7" stroke-width="2.46" stroke-miterlimit="10" stroke-linecap="round"/>
<path d="M281.691 102.53L281.848 106.444L277.933 106.287" stroke="#F7F7F7" stroke-width="2.46" stroke-miterlimit="10" stroke-linecap="round"/>
<path d="M298.383 126.732L298.226 122.8L302.141 122.975" stroke="#F7F7F7" stroke-width="2.46" stroke-miterlimit="10" stroke-linecap="round"/>
<path d="M300.533 104.137L279.541 125.124" stroke="#F7F7F7" stroke-width="2.46" stroke-miterlimit="10" stroke-linecap="round"/>
<path d="M302.141 106.287L298.226 106.444L298.383 102.53" stroke="#F7F7F7" stroke-width="2.46" stroke-miterlimit="10" stroke-linecap="round"/>
<path d="M277.933 122.975L281.848 122.8L281.691 126.732" stroke="#F7F7F7" stroke-width="2.46" stroke-miterlimit="10" stroke-linecap="round"/>
<path d="M265.33 375.407V447.681" stroke="#F7F7F7" stroke-width="1.18" stroke-miterlimit="10" stroke-linecap="round"/>
<path d="M271.798 376.316L265.33 383.358L258.863 376.316" stroke="#F7F7F7" stroke-width="1.18" stroke-miterlimit="10" stroke-linecap="round"/>
<path d="M258.863 446.772L265.33 439.713L271.798 446.772" stroke="#F7F7F7" stroke-width="1.18" stroke-miterlimit="10" stroke-linecap="round"/>
<path d="M229.184 411.544H301.477" stroke="#F7F7F7" stroke-width="1.18" stroke-miterlimit="10" stroke-linecap="round"/>
<path d="M230.093 405.079L237.137 411.544L230.093 418.01" stroke="#F7F7F7" stroke-width="1.18" stroke-miterlimit="10" stroke-linecap="round"/>
<path d="M300.568 418.01L293.524 411.544L300.568 405.079" stroke="#F7F7F7" stroke-width="1.18" stroke-miterlimit="10" stroke-linecap="round"/>
<path d="M239.776 385.997L290.885 437.091" stroke="#F7F7F7" stroke-width="1.18" stroke-miterlimit="10" stroke-linecap="round"/>
<path d="M245.002 382.065L245.404 391.623L235.843 391.222" stroke="#F7F7F7" stroke-width="1.18" stroke-miterlimit="10" stroke-linecap="round"/>
<path d="M285.659 441.023L285.257 431.465L294.818 431.867" stroke="#F7F7F7" stroke-width="1.18" stroke-miterlimit="10" stroke-linecap="round"/>
<path d="M290.885 385.997L239.776 437.091" stroke="#F7F7F7" stroke-width="1.18" stroke-miterlimit="10" stroke-linecap="round"/>
<path d="M294.818 391.222L285.257 391.623L285.659 382.065" stroke="#F7F7F7" stroke-width="1.18" stroke-miterlimit="10" stroke-linecap="round"/>
<path d="M235.843 431.867L245.404 431.465L245.002 441.023" stroke="#F7F7F7" stroke-width="1.18" stroke-miterlimit="10" stroke-linecap="round"/>
<path d="M1400.56 463.652V535.908" stroke="#F7F7F7" stroke-width="1.18" stroke-miterlimit="10" stroke-linecap="round"/>
<path d="M1407.03 464.561L1400.56 471.603L1394.09 464.561" stroke="#F7F7F7" stroke-width="1.18" stroke-miterlimit="10" stroke-linecap="round"/>
<path d="M1394.09 534.999L1400.56 527.957L1407.03 534.999" stroke="#F7F7F7" stroke-width="1.18" stroke-miterlimit="10" stroke-linecap="round"/>
<path d="M1364.41 499.789H1436.71" stroke="#F7F7F7" stroke-width="1.18" stroke-miterlimit="10" stroke-linecap="round"/>
<path d="M1365.32 493.323L1372.38 499.789L1365.32 506.254" stroke="#F7F7F7" stroke-width="1.18" stroke-miterlimit="10" stroke-linecap="round"/>
<path d="M1435.8 506.254L1428.75 499.789L1435.8 493.323" stroke="#F7F7F7" stroke-width="1.18" stroke-miterlimit="10" stroke-linecap="round"/>
<path d="M1375.01 474.242L1426.12 525.336" stroke="#F7F7F7" stroke-width="1.18" stroke-miterlimit="10" stroke-linecap="round"/>
<path d="M1380.23 470.31L1380.63 479.869L1371.07 479.449" stroke="#F7F7F7" stroke-width="1.18" stroke-miterlimit="10" stroke-linecap="round"/>
<path d="M1420.89 529.268L1420.49 519.709L1430.05 520.111" stroke="#F7F7F7" stroke-width="1.18" stroke-miterlimit="10" stroke-linecap="round"/>
<path d="M1426.12 474.242L1375.01 525.336" stroke="#F7F7F7" stroke-width="1.18" stroke-miterlimit="10" stroke-linecap="round"/>
<path d="M1430.05 479.449L1420.49 479.869L1420.89 470.31" stroke="#F7F7F7" stroke-width="1.18" stroke-miterlimit="10" stroke-linecap="round"/>
<path d="M1371.07 520.111L1380.63 519.709L1380.23 529.268" stroke="#F7F7F7" stroke-width="1.18" stroke-miterlimit="10" stroke-linecap="round"/>
<path d="M1055.24 152.314V248.23" stroke="#F7F7F7" stroke-width="1.56" stroke-miterlimit="10" stroke-linecap="round"/>
<path d="M1063.83 153.52L1055.24 162.868L1046.66 153.52" stroke="#F7F7F7" stroke-width="1.56" stroke-miterlimit="10" stroke-linecap="round"/>
<path d="M1046.66 247.024L1055.24 237.676L1063.83 247.024" stroke="#F7F7F7" stroke-width="1.56" stroke-miterlimit="10" stroke-linecap="round"/>
<path d="M1007.28 200.263H1103.21" stroke="#F7F7F7" stroke-width="1.56" stroke-miterlimit="10" stroke-linecap="round"/>
<path d="M1008.49 191.683L1017.84 200.263L1008.49 208.86" stroke="#F7F7F7" stroke-width="1.56" stroke-miterlimit="10" stroke-linecap="round"/>
<path d="M1102 208.86L1092.65 200.263L1102 191.683" stroke="#F7F7F7" stroke-width="1.56" stroke-miterlimit="10" stroke-linecap="round"/>
<path d="M1021.32 166.363L1089.15 234.181" stroke="#F7F7F7" stroke-width="1.56" stroke-miterlimit="10" stroke-linecap="round"/>
<path d="M1028.26 161.138L1028.78 173.825L1016.11 173.283" stroke="#F7F7F7" stroke-width="1.56" stroke-miterlimit="10" stroke-linecap="round"/>
<path d="M1082.23 239.405L1081.69 226.719L1094.38 227.261" stroke="#F7F7F7" stroke-width="1.56" stroke-miterlimit="10" stroke-linecap="round"/>
<path d="M1089.15 166.363L1021.32 234.181" stroke="#F7F7F7" stroke-width="1.56" stroke-miterlimit="10" stroke-linecap="round"/>
<path d="M1094.38 173.283L1081.69 173.825L1082.23 161.138" stroke="#F7F7F7" stroke-width="1.56" stroke-miterlimit="10" stroke-linecap="round"/>
<path d="M1016.11 227.261L1028.78 226.719L1028.26 239.405" stroke="#F7F7F7" stroke-width="1.56" stroke-miterlimit="10" stroke-linecap="round"/>
<path d="M476.25 153.362C476.946 153.362 477.612 153.086 478.104 152.595C478.596 152.103 478.872 151.436 478.872 150.741C478.872 150.046 478.596 149.379 478.104 148.888C477.612 148.396 476.946 148.12 476.25 148.12C475.555 148.12 474.888 148.396 474.396 148.888C473.905 149.379 473.628 150.046 473.628 150.741C473.628 151.436 473.905 152.103 474.396 152.595C474.888 153.086 475.555 153.362 476.25 153.362Z" fill="#F7F7F7"/>
<path d="M249.215 281.379C249.91 281.379 250.577 281.102 251.069 280.611C251.56 280.119 251.837 279.453 251.837 278.757C251.837 278.062 251.56 277.396 251.069 276.904C250.577 276.412 249.91 276.136 249.215 276.136C248.519 276.136 247.853 276.412 247.361 276.904C246.869 277.396 246.593 278.062 246.593 278.757C246.593 279.453 246.869 280.119 247.361 280.611C247.853 281.102 248.519 281.379 249.215 281.379Z" fill="#F7F7F7"/>
<path d="M329.548 332.596C330.244 332.596 330.911 332.319 331.402 331.828C331.894 331.336 332.17 330.67 332.17 329.974C332.17 329.279 331.894 328.613 331.402 328.121C330.911 327.629 330.244 327.353 329.548 327.353C328.853 327.353 328.186 327.629 327.694 328.121C327.203 328.613 326.927 329.279 326.927 329.974C326.927 330.67 327.203 331.336 327.694 331.828C328.186 332.319 328.853 332.596 329.548 332.596Z" fill="#F7F7F7"/>
<path d="M423.848 549.084C424.543 549.084 425.21 548.808 425.702 548.316C426.194 547.825 426.47 547.158 426.47 546.463C426.47 545.768 426.194 545.101 425.702 544.609C425.21 544.118 424.543 543.842 423.848 543.842C423.153 543.842 422.486 544.118 421.994 544.609C421.502 545.101 421.226 545.768 421.226 546.463C421.226 547.158 421.502 547.825 421.994 548.316C422.486 548.808 423.153 549.084 423.848 549.084Z" fill="#F7F7F7"/>
<path d="M669.499 415.231C670.194 415.231 670.861 414.955 671.353 414.463C671.844 413.972 672.121 413.305 672.121 412.61C672.121 411.915 671.844 411.248 671.353 410.757C670.861 410.265 670.194 409.989 669.499 409.989C668.803 409.989 668.136 410.265 667.645 410.757C667.153 411.248 666.877 411.915 666.877 412.61C666.877 413.305 667.153 413.972 667.645 414.463C668.136 414.955 668.803 415.231 669.499 415.231Z" fill="#F7F7F7"/>
<path d="M740.516 504.857C741.211 504.857 741.878 504.58 742.37 504.089C742.862 503.597 743.138 502.931 743.138 502.235C743.138 501.54 742.862 500.873 742.37 500.382C741.878 499.89 741.211 499.614 740.516 499.614C739.821 499.614 739.154 499.89 738.662 500.382C738.17 500.873 737.894 501.54 737.894 502.235C737.894 502.931 738.17 503.597 738.662 504.089C739.154 504.58 739.821 504.857 740.516 504.857Z" fill="#F7F7F7"/>
<path d="M888.249 281.379C888.944 281.379 889.611 281.102 890.103 280.611C890.595 280.119 890.871 279.453 890.871 278.757C890.871 278.062 890.595 277.396 890.103 276.904C889.611 276.412 888.944 276.136 888.249 276.136C887.554 276.136 886.887 276.412 886.395 276.904C885.903 277.396 885.627 278.062 885.627 278.757C885.627 279.453 885.903 280.119 886.395 280.611C886.887 281.102 887.554 281.379 888.249 281.379Z" fill="#F7F7F7"/>
<path d="M1175.94 104.47C1176.63 104.47 1177.3 104.193 1177.79 103.702C1178.28 103.21 1178.56 102.544 1178.56 101.848C1178.56 101.153 1178.28 100.487 1177.79 99.9949C1177.3 99.5034 1176.63 99.2272 1175.94 99.2272C1175.24 99.2272 1174.58 99.5034 1174.08 99.9949C1173.59 100.487 1173.32 101.153 1173.32 101.848C1173.32 102.544 1173.59 103.21 1174.08 103.702C1174.58 104.193 1175.24 104.47 1175.94 104.47Z" fill="#F7F7F7"/>
<path d="M1154.98 300.059C1155.68 300.059 1156.34 299.782 1156.83 299.291C1157.33 298.799 1157.6 298.133 1157.6 297.437C1157.6 296.742 1157.33 296.075 1156.83 295.584C1156.34 295.092 1155.68 294.816 1154.98 294.816C1154.28 294.816 1153.62 295.092 1153.13 295.584C1152.63 296.075 1152.36 296.742 1152.36 297.437C1152.36 298.133 1152.63 298.799 1153.13 299.291C1153.62 299.782 1154.28 300.059 1154.98 300.059Z" fill="#F7F7F7"/>
<path d="M1065.35 352.376C1066.04 352.376 1066.71 352.1 1067.2 351.609C1067.69 351.117 1067.97 350.45 1067.97 349.755C1067.97 349.06 1067.69 348.393 1067.2 347.902C1066.71 347.41 1066.04 347.134 1065.35 347.134C1064.65 347.134 1063.98 347.41 1063.49 347.902C1063 348.393 1062.73 349.06 1062.73 349.755C1062.73 350.45 1063 351.117 1063.49 351.609C1063.98 352.1 1064.65 352.376 1065.35 352.376Z" fill="#F7F7F7"/>
<path d="M1161.97 552.579C1162.67 552.579 1163.33 552.302 1163.83 551.811C1164.32 551.319 1164.59 550.653 1164.59 549.957C1164.59 549.262 1164.32 548.596 1163.83 548.104C1163.33 547.612 1162.67 547.336 1161.97 547.336C1161.28 547.336 1160.61 547.612 1160.12 548.104C1159.63 548.596 1159.35 549.262 1159.35 549.957C1159.35 550.653 1159.63 551.319 1160.12 551.811C1160.61 552.302 1161.28 552.579 1161.97 552.579Z" fill="#F7F7F7"/>
<path d="M1341.34 502.532C1342.04 502.532 1342.7 502.256 1343.2 501.765C1343.69 501.273 1343.96 500.606 1343.96 499.911C1343.96 499.216 1343.69 498.549 1343.2 498.058C1342.7 497.566 1342.04 497.29 1341.34 497.29C1340.65 497.29 1339.98 497.566 1339.49 498.058C1339 498.549 1338.72 499.216 1338.72 499.911C1338.72 500.606 1339 501.273 1339.49 501.765C1339.98 502.256 1340.65 502.532 1341.34 502.532Z" fill="#F7F7F7"/>
<path d="M1358.72 364.032C1359.41 364.032 1360.08 363.756 1360.57 363.264C1361.06 362.772 1361.34 362.106 1361.34 361.411C1361.34 360.715 1361.06 360.049 1360.57 359.557C1360.08 359.066 1359.41 358.789 1358.72 358.789C1358.02 358.789 1357.35 359.066 1356.86 359.557C1356.37 360.049 1356.09 360.715 1356.09 361.411C1356.09 362.106 1356.37 362.772 1356.86 363.264C1357.35 363.756 1358.02 364.032 1358.72 364.032Z" fill="#F7F7F7"/>
<path d="M1430.9 377.994C1431.6 377.994 1432.27 377.717 1432.76 377.226C1433.25 376.734 1433.53 376.068 1433.53 375.372C1433.53 374.677 1433.25 374.011 1432.76 373.519C1432.27 373.027 1431.6 372.751 1430.9 372.751C1430.21 372.751 1429.54 373.027 1429.05 373.519C1428.56 374.011 1428.28 374.677 1428.28 375.372C1428.28 376.068 1428.56 376.734 1429.05 377.226C1429.54 377.717 1430.21 377.994 1430.9 377.994Z" fill="#F7F7F7"/>
<path d="M1420.43 110.288C1421.13 110.288 1421.8 110.012 1422.29 109.521C1422.78 109.029 1423.06 108.362 1423.06 107.667C1423.06 106.972 1422.78 106.305 1422.29 105.814C1421.8 105.322 1421.13 105.046 1420.43 105.046C1419.74 105.046 1419.07 105.322 1418.58 105.814C1418.09 106.305 1417.81 106.972 1417.81 107.667C1417.81 108.362 1418.09 109.029 1418.58 109.521C1419.07 110.012 1419.74 110.288 1420.43 110.288Z" fill="#F7F7F7"/>
<path d="M1440.22 582.844C1440.92 582.844 1441.58 582.568 1442.07 582.076C1442.57 581.585 1442.84 580.918 1442.84 580.223C1442.84 579.528 1442.57 578.861 1442.07 578.369C1441.58 577.878 1440.92 577.602 1440.22 577.602C1439.53 577.602 1438.86 577.878 1438.37 578.369C1437.88 578.861 1437.6 579.528 1437.6 580.223C1437.6 580.918 1437.88 581.585 1438.37 582.076C1438.86 582.568 1439.53 582.844 1440.22 582.844Z" fill="#F7F7F7"/>
<path d="M582.191 339.882C588.938 339.882 588.955 329.398 582.191 329.398C575.426 329.398 575.426 339.882 582.191 339.882Z" fill="#F7F7F7"/>
<path d="M238.745 207.183C245.492 207.183 245.509 196.698 238.745 196.698C231.98 196.698 231.98 207.183 238.745 207.183Z" fill="#F7F7F7"/>
<path d="M236.42 514.467C243.167 514.467 243.167 503.983 236.42 503.983C229.673 503.983 229.656 514.467 236.42 514.467Z" fill="#F7F7F7"/>
<path d="M751.004 288.665C757.75 288.665 757.75 278.181 751.004 278.181C744.257 278.181 744.239 288.665 751.004 288.665Z" fill="#F7F7F7"/>
<path d="M568.225 104.767C574.972 104.767 574.972 94.282 568.225 94.282C561.478 94.282 561.461 104.767 568.225 104.767Z" fill="#F7F7F7"/>
<path d="M904.679 84.9857C911.426 84.9857 911.444 74.5012 904.679 74.5012C897.915 74.5012 897.915 84.9857 904.679 84.9857Z" fill="#F7F7F7"/>
<path d="M988.509 287.495C995.256 287.495 995.256 277.01 988.509 277.01C981.762 277.01 981.745 287.495 988.509 287.495Z" fill="#F7F7F7"/>
<path d="M866.26 495.77C873.007 495.77 873.025 485.285 866.26 485.285C859.496 485.285 859.496 495.77 866.26 495.77Z" fill="#F7F7F7"/>
<path d="M1193.4 178.088C1200.15 178.088 1200.16 167.604 1193.4 167.604C1186.63 167.604 1186.65 178.088 1193.4 178.088Z" fill="#F7F7F7"/>
<path d="M1081.64 82.6616C1088.38 82.6616 1088.4 72.1771 1081.64 72.1771C1074.87 72.1771 1074.87 82.6616 1081.64 82.6616Z" fill="#F7F7F7"/>
<path d="M1322.64 83.8149C1329.39 83.8149 1329.39 73.3304 1322.64 73.3304C1315.89 73.3304 1315.87 83.8149 1322.64 83.8149Z" fill="#F7F7F7"/>
<path d="M1232.97 388.758C1239.72 388.758 1239.74 378.273 1232.97 378.273C1226.21 378.273 1226.21 388.758 1232.97 388.758Z" fill="#F7F7F7"/>
<path d="M1273.73 520.234C1280.48 520.234 1280.5 509.749 1273.73 509.749C1266.97 509.749 1266.97 520.234 1273.73 520.234Z" fill="#F7F7F7"/>
<path d="M1448.37 660.028C1455.11 660.028 1455.13 649.543 1448.37 649.543C1441.6 649.543 1441.6 660.028 1448.37 660.028Z" fill="#F7F7F7"/>
<path d="M689.372 563.343C696.119 563.343 696.119 552.858 689.372 552.858C682.625 552.858 682.608 563.343 689.372 563.343Z" fill="#F7F7F7"/>
<path d="M451.797 601.751C458.544 601.751 458.561 591.267 451.797 591.267C445.033 591.267 445.033 601.751 451.797 601.751Z" fill="#F7F7F7"/>
<path d="M392.421 439.975C399.167 439.975 399.185 429.49 392.421 429.49C385.656 429.49 385.656 439.975 392.421 439.975Z" fill="#F7F7F7"/>
<path d="M478.575 251.41C485.322 251.41 485.339 240.926 478.575 240.926C471.81 240.926 471.81 251.41 478.575 251.41Z" fill="#F7F7F7"/>
<path d="M728.875 128.042C735.622 128.042 735.639 117.558 728.875 117.558C722.111 117.558 722.128 128.042 728.875 128.042Z" fill="#F7F7F7"/>
<path d="M1011.79 517.665C1012.49 517.665 1013.15 517.389 1013.65 516.897C1014.14 516.406 1014.41 515.739 1014.41 515.044C1014.41 514.349 1014.14 513.682 1013.65 513.191C1013.15 512.699 1012.49 512.423 1011.79 512.423C1011.1 512.423 1010.43 512.699 1009.94 513.191C1009.45 513.682 1009.17 514.349 1009.17 515.044C1009.17 515.739 1009.45 516.406 1009.94 516.897C1010.43 517.389 1011.1 517.665 1011.79 517.665Z" fill="#F7F7F7"/>
<path opacity="0.3" d="M1348.11 301.725C1417.3 232.556 1417.3 120.41 1348.11 51.2411C1278.93 -17.928 1166.75 -17.9281 1097.56 51.2411C1028.37 120.41 1028.37 232.556 1097.56 301.725C1166.75 370.894 1278.93 370.894 1348.11 301.725Z" fill="#F7F7F7"/>
<path d="M681.402 683.373C800.889 652.234 909.731 569.004 1032.99 576.483C1079.98 579.349 1125.37 595.705 1166.85 617.88C1198.15 634.655 1227.75 655.187 1261.08 667.943C1325.14 692.407 1396.3 671.805 1461.16 696.689C1485.79 706.125 1519.63 724.647 1524.24 753.218C1527.3 772.055 1513.53 790.385 1496.42 798.86C1479.3 807.335 1459.59 808.226 1440.48 808.925L1250.73 815.915C1173.19 818.816 1095.59 821.699 1018.03 819.532C906.113 816.492 794.649 802.879 683.43 789.337C639.487 783.955 595.492 778.573 552.057 769.958C524.842 764.558 492.855 757.062 474.625 734.136C459.173 714.687 463.56 691.202 490.67 689.122C520.857 686.816 554.591 697.859 585.774 696.933C618.062 696.063 650.145 691.513 681.402 683.373Z" fill="#EAE7E2"/>
<path d="M103.402 550.237C373.886 569.84 626.981 686.638 892.032 744.024C1168.19 803.528 1481.31 812.818 1755 742.866C1755 780.271 1755 933.42 1755 972.237C1703.48 972.237 113.781 979.043 6.02397 980C-46.9111 980 -126.962 975.059 -172.915 975.06C-179.787 975.06 -175.702 932.006 -174.661 921.422C-174.661 912.245 -176.073 903.073 -174.661 892.486C-177.484 828.968 -177.484 794.386 -176.073 743.572C-176.779 717.459 -176.073 696.286 -176.073 670.878C-176.073 653.235 -176.073 604.537 -176.073 604.537C-138.336 541.521 42.7329 545.831 103.402 550.237Z" fill="#F7F7F7"/>
<path d="M218.644 653.51C221.248 658.752 228.397 662.247 233.344 659.014C238.762 655.519 241.751 640.456 242.555 634.463C243.412 628.102 242.258 624.31 235.424 623.14C219.43 620.379 212.981 641.889 218.644 653.51Z" fill="#A7A8AB"/>
<path d="M291.934 639.985C289.329 645.314 282.18 648.722 277.234 645.506C271.815 642.012 268.826 626.931 268.022 620.955C267.166 614.595 268.319 610.803 275.154 609.614C291.147 606.871 297.597 628.364 291.934 639.985Z" fill="#A7A8AB"/>
<path d="M240.458 705.793C243.062 711.035 250.211 714.53 255.158 711.297C260.576 707.802 263.565 692.739 264.369 686.833C265.226 680.472 264.072 676.68 257.238 675.51C241.244 672.661 234.794 694.155 240.458 705.793Z" fill="#B7B8BA"/>
<path d="M313.747 692.267C311.16 697.597 303.994 701.005 299.048 697.789C293.629 694.294 290.64 679.214 289.836 673.238C288.997 666.877 290.133 663.086 296.985 661.897C312.961 659.154 319.411 680.647 313.747 692.267Z" fill="#B7B8BA"/>
<path d="M219.867 755.542C221.493 761.238 227.943 765.869 233.379 763.527C239.339 760.959 244.88 746.7 246.715 740.951C248.655 734.817 248.183 730.903 241.664 728.544C226.405 723.057 216.302 743.1 219.867 755.542Z" fill="#C7C8C9"/>
<path d="M294.346 754.965C290.85 759.77 283.229 761.955 278.912 757.848C274.192 753.392 273.86 738.103 274.122 732.074C274.385 725.643 276.185 722.114 283.124 722.149C299.38 722.218 301.984 744.516 294.346 754.965Z" fill="#C7C8C9"/>
<path d="M272.462 813.644C278.719 818.239 288.682 820.913 291.916 817.715C295.412 814.22 288.962 800.678 285.956 795.313C282.757 789.582 278.964 786.279 270.906 785.615C251.854 784.095 258.828 803.613 272.462 813.644Z" fill="#D7D7D9"/>
<path d="M342.868 797.393C343.514 802.303 338.026 805.78 330.632 803.159C322.469 800.293 309.535 787.083 304.781 781.806C299.747 776.179 298.523 772.736 305.148 771.321C320.564 767.913 341.539 786.716 342.868 797.393Z" fill="#D7D7D9"/>
<path d="M365.73 845.936C373.281 847.683 383.489 846.251 385.219 842.057C387.107 837.461 375.815 827.536 370.921 823.779C365.678 819.76 361.028 818.169 353.285 820.756C335.159 826.819 349.23 842.057 365.73 845.936Z" fill="#E7E7E8"/>
<path d="M424.093 803.316C426.627 807.562 422.939 812.927 415.038 813.451C406.404 814.01 389.327 806.951 382.877 803.945C376.025 800.748 373.561 798.056 379.102 794.125C392.019 785.003 418.604 794.09 424.093 803.316Z" fill="#E7E7E8"/>
<path d="M450.766 852.069C458.492 852.891 468.437 850.165 469.626 845.779C470.937 840.973 458.474 832.568 453.16 829.44C447.515 826.103 442.673 825.107 435.279 828.654C418.045 836.937 433.933 850.287 450.766 852.069Z" fill="#F2F2F2"/>
<path d="M503.36 802.547C506.402 806.444 503.36 812.211 495.652 813.713C487.157 815.356 469.311 810.481 462.547 808.314C455.345 806.007 452.566 803.631 457.565 799.052C469.224 788.341 496.753 794.02 503.36 802.547Z" fill="#F2F2F2"/>
<path d="M1009.13 766.393C1016.42 757.656 1026.61 750.666 1038.1 749.81C1049.09 749.041 1059.98 754.196 1067.65 762.042C1075.33 769.888 1080.06 780.32 1082.74 790.997C1083.16 792.159 1083.2 793.426 1082.86 794.614C1082.18 796.361 1080.19 797.06 1078.39 797.55C1056.68 803.676 1033.93 805.14 1011.62 801.848C987.111 798.074 996.689 781.438 1009.13 766.393Z" fill="#A7A8AB"/>
<path d="M974.683 783.483C979.927 777.227 987.128 772.282 995.221 771.723C999.14 771.588 1003.04 772.299 1006.66 773.806C1010.28 775.314 1013.53 777.583 1016.2 780.46C1021.5 786.242 1025.19 793.317 1026.89 800.975C1027.18 801.802 1027.21 802.698 1026.98 803.544C1026.64 804.108 1026.19 804.59 1025.64 804.953C1025.09 805.316 1024.47 805.551 1023.82 805.64C1008.42 809.971 992.288 811.007 976.466 808.681C959.074 805.903 965.874 794.142 974.683 783.483Z" fill="#8A8B8F"/>
<path d="M1044.55 762.811C1045.24 762.811 1045.91 762.535 1046.4 762.043C1046.89 761.552 1047.17 760.885 1047.17 760.19C1047.17 759.495 1046.89 758.828 1046.4 758.336C1045.91 757.845 1045.24 757.569 1044.55 757.569C1043.85 757.569 1043.18 757.845 1042.69 758.336C1042.2 758.828 1041.93 759.495 1041.93 760.19C1041.93 760.885 1042.2 761.552 1042.69 762.043C1043.18 762.535 1043.85 762.811 1044.55 762.811Z" fill="#F7F7F7"/>
<path d="M985.066 787.677C985.761 787.677 986.428 787.401 986.919 786.909C987.411 786.418 987.687 785.751 987.687 785.056C987.687 784.361 987.411 783.694 986.919 783.202C986.428 782.711 985.761 782.435 985.066 782.435C984.37 782.435 983.703 782.711 983.212 783.202C982.72 783.694 982.444 784.361 982.444 785.056C982.444 785.751 982.72 786.418 983.212 786.909C983.703 787.401 984.37 787.677 985.066 787.677Z" fill="#F7F7F7"/>
<path d="M1008.28 794.003C1008.97 794.003 1009.64 793.726 1010.13 793.235C1010.62 792.743 1010.9 792.077 1010.9 791.382C1010.9 790.686 1010.62 790.02 1010.13 789.528C1009.64 789.037 1008.97 788.76 1008.28 788.76C1007.58 788.76 1006.92 789.037 1006.42 789.528C1005.93 790.02 1005.66 790.686 1005.66 791.382C1005.66 792.077 1005.93 792.743 1006.42 793.235C1006.92 793.726 1007.58 794.003 1008.28 794.003Z" fill="#F7F7F7"/>
<path d="M1037.36 784.304C1038.06 784.304 1038.73 784.028 1039.22 783.537C1039.71 783.045 1039.98 782.378 1039.98 781.683C1039.98 780.988 1039.71 780.321 1039.22 779.83C1038.73 779.338 1038.06 779.062 1037.36 779.062C1036.67 779.062 1036 779.338 1035.51 779.83C1035.02 780.321 1034.74 780.988 1034.74 781.683C1034.74 782.378 1035.02 783.045 1035.51 783.537C1036 784.028 1036.67 784.304 1037.36 784.304Z" fill="#F7F7F7"/>
<path d="M1069.42 788.533C1070.11 788.533 1070.78 788.257 1071.27 787.765C1071.77 787.274 1072.04 786.607 1072.04 785.912C1072.04 785.217 1071.77 784.55 1071.27 784.058C1070.78 783.567 1070.11 783.291 1069.42 783.291C1068.72 783.291 1068.06 783.567 1067.57 784.058C1067.07 784.55 1066.8 785.217 1066.8 785.912C1066.8 786.607 1067.07 787.274 1067.57 787.765C1068.06 788.257 1068.72 788.533 1069.42 788.533Z" fill="#F7F7F7"/>
<path d="M1061.41 773.296C1061.76 773.296 1062.1 773.157 1062.34 772.912C1062.59 772.666 1062.73 772.333 1062.73 771.985C1062.73 771.637 1062.59 771.304 1062.34 771.058C1062.1 770.813 1061.76 770.674 1061.41 770.674C1061.07 770.674 1060.73 770.813 1060.49 771.058C1060.24 771.304 1060.1 771.637 1060.1 771.985C1060.1 772.333 1060.24 772.666 1060.49 772.912C1060.73 773.157 1061.07 773.296 1061.41 773.296Z" fill="#F7F7F7"/>
<path d="M1034.85 761.92C1035.19 761.92 1035.53 761.782 1035.77 761.536C1036.02 761.29 1036.16 760.957 1036.16 760.609C1036.16 760.262 1036.02 759.928 1035.77 759.683C1035.53 759.437 1035.19 759.299 1034.85 759.299C1034.5 759.299 1034.16 759.437 1033.92 759.683C1033.67 759.928 1033.54 760.262 1033.54 760.609C1033.54 760.957 1033.67 761.29 1033.92 761.536C1034.16 761.782 1034.5 761.92 1034.85 761.92Z" fill="#F7F7F7"/>
<path d="M1022.61 764.873C1022.96 764.873 1023.29 764.735 1023.54 764.489C1023.78 764.243 1023.92 763.91 1023.92 763.562C1023.92 763.215 1023.78 762.881 1023.54 762.636C1023.29 762.39 1022.96 762.252 1022.61 762.252C1022.26 762.252 1021.93 762.39 1021.68 762.636C1021.44 762.881 1021.3 763.215 1021.3 763.562C1021.3 763.91 1021.44 764.243 1021.68 764.489C1021.93 764.735 1022.26 764.873 1022.61 764.873Z" fill="#F7F7F7"/>
<path d="M1004 780.46C1004.34 780.46 1004.68 780.322 1004.92 780.076C1005.17 779.83 1005.31 779.497 1005.31 779.149C1005.31 778.802 1005.17 778.469 1004.92 778.223C1004.68 777.977 1004.34 777.839 1004 777.839C1003.65 777.839 1003.31 777.977 1003.07 778.223C1002.82 778.469 1002.68 778.802 1002.68 779.149C1002.68 779.497 1002.82 779.83 1003.07 780.076C1003.31 780.322 1003.65 780.46 1004 780.46Z" fill="#F7F7F7"/>
<path d="M993.089 779.202C993.436 779.202 993.77 779.064 994.015 778.818C994.261 778.572 994.399 778.239 994.399 777.891C994.399 777.544 994.261 777.21 994.015 776.964C993.77 776.719 993.436 776.581 993.089 776.581C992.741 776.581 992.407 776.719 992.162 776.964C991.916 777.21 991.778 777.544 991.778 777.891C991.778 778.239 991.916 778.572 992.162 778.818C992.407 779.064 992.741 779.202 993.089 779.202Z" fill="#F7F7F7"/>
<path d="M995.623 785.947C995.971 785.947 996.304 785.809 996.55 785.563C996.796 785.317 996.934 784.984 996.934 784.636C996.934 784.289 996.796 783.955 996.55 783.71C996.304 783.464 995.971 783.326 995.623 783.326C995.275 783.326 994.942 783.464 994.696 783.71C994.45 783.955 994.312 784.289 994.312 784.636C994.312 784.984 994.45 785.317 994.696 785.563C994.942 785.809 995.275 785.947 995.623 785.947Z" fill="#F7F7F7"/>
<path d="M985.503 802.81C985.85 802.81 986.184 802.671 986.43 802.426C986.675 802.18 986.814 801.846 986.814 801.499C986.814 801.151 986.675 800.818 986.43 800.572C986.184 800.326 985.85 800.188 985.503 800.188C985.155 800.188 984.821 800.326 984.576 800.572C984.33 800.818 984.192 801.151 984.192 801.499C984.192 801.846 984.33 802.18 984.576 802.426C984.821 802.671 985.155 802.81 985.503 802.81Z" fill="#F7F7F7"/>
<path d="M1023.87 781.316C1024.22 781.316 1024.55 781.178 1024.8 780.932C1025.04 780.687 1025.18 780.353 1025.18 780.006C1025.18 779.658 1025.04 779.325 1024.8 779.079C1024.55 778.833 1024.22 778.695 1023.87 778.695C1023.52 778.695 1023.19 778.833 1022.94 779.079C1022.7 779.325 1022.56 779.658 1022.56 780.006C1022.56 780.353 1022.7 780.687 1022.94 780.932C1023.19 781.178 1023.52 781.316 1023.87 781.316Z" fill="#F7F7F7"/>
<path d="M1039.67 753.183C1040.02 753.183 1040.35 753.045 1040.6 752.799C1040.84 752.553 1040.98 752.22 1040.98 751.872C1040.98 751.525 1040.84 751.191 1040.6 750.945C1040.35 750.7 1040.02 750.562 1039.67 750.562C1039.32 750.562 1038.99 750.7 1038.74 750.945C1038.5 751.191 1038.36 751.525 1038.36 751.872C1038.36 752.22 1038.5 752.553 1038.74 752.799C1038.99 753.045 1039.32 753.183 1039.67 753.183Z" fill="#F7F7F7"/>
<path d="M1032.4 755.157C1032.75 755.157 1033.08 755.019 1033.33 754.773C1033.57 754.528 1033.71 754.194 1033.71 753.847C1033.71 753.499 1033.57 753.166 1033.33 752.92C1033.08 752.674 1032.75 752.536 1032.4 752.536C1032.05 752.536 1031.72 752.674 1031.47 752.92C1031.23 753.166 1031.09 753.499 1031.09 753.847C1031.09 754.194 1031.23 754.528 1031.47 754.773C1031.72 755.019 1032.05 755.157 1032.4 755.157Z" fill="#F7F7F7"/>
<path d="M1032.98 758.879C1033.32 758.879 1033.66 758.741 1033.9 758.495C1034.15 758.25 1034.29 757.916 1034.29 757.569C1034.29 757.221 1034.15 756.888 1033.9 756.642C1033.66 756.396 1033.32 756.258 1032.98 756.258C1032.63 756.258 1032.29 756.396 1032.05 756.642C1031.8 756.888 1031.67 757.221 1031.67 757.569C1031.67 757.916 1031.8 758.25 1032.05 758.495C1032.29 758.741 1032.63 758.879 1032.98 758.879Z" fill="#F7F7F7"/>
<path d="M1030.21 760.068C1030.56 760.068 1030.9 759.929 1031.14 759.684C1031.39 759.438 1031.53 759.105 1031.53 758.757C1031.53 758.409 1031.39 758.076 1031.14 757.83C1030.9 757.584 1030.56 757.446 1030.21 757.446C1029.87 757.446 1029.53 757.584 1029.29 757.83C1029.04 758.076 1028.9 758.409 1028.9 758.757C1028.9 759.105 1029.04 759.438 1029.29 759.684C1029.53 759.929 1029.87 760.068 1030.21 760.068Z" fill="#F7F7F7"/>
<path d="M1030.83 764.191C1031.17 764.191 1031.51 764.053 1031.75 763.808C1032 763.562 1032.14 763.228 1032.14 762.881C1032.14 762.533 1032 762.2 1031.75 761.954C1031.51 761.708 1031.17 761.57 1030.83 761.57C1030.48 761.57 1030.14 761.708 1029.9 761.954C1029.65 762.2 1029.51 762.533 1029.51 762.881C1029.51 763.228 1029.65 763.562 1029.9 763.808C1030.14 764.053 1030.48 764.191 1030.83 764.191Z" fill="#F7F7F7"/>
<path d="M1037.71 757.708C1038.06 757.708 1038.39 757.57 1038.64 757.325C1038.89 757.079 1039.02 756.745 1039.02 756.398C1039.02 756.05 1038.89 755.717 1038.64 755.471C1038.39 755.225 1038.06 755.087 1037.71 755.087C1037.36 755.087 1037.03 755.225 1036.79 755.471C1036.54 755.717 1036.4 756.05 1036.4 756.398C1036.4 756.745 1036.54 757.079 1036.79 757.325C1037.03 757.57 1037.36 757.708 1037.71 757.708Z" fill="#F7F7F7"/>
<path d="M1041.24 759.281C1041.59 759.281 1041.92 759.143 1042.17 758.897C1042.42 758.652 1042.55 758.318 1042.55 757.971C1042.55 757.623 1042.42 757.29 1042.17 757.044C1041.92 756.798 1041.59 756.66 1041.24 756.66C1040.9 756.66 1040.56 756.798 1040.32 757.044C1040.07 757.29 1039.93 757.623 1039.93 757.971C1039.93 758.318 1040.07 758.652 1040.32 758.897C1040.56 759.143 1040.9 759.281 1041.24 759.281Z" fill="#F7F7F7"/>
<path d="M1043.81 753.969C1044.16 753.969 1044.49 753.831 1044.74 753.585C1044.99 753.339 1045.12 753.006 1045.12 752.659C1045.12 752.311 1044.99 751.978 1044.74 751.732C1044.49 751.486 1044.16 751.348 1043.81 751.348C1043.47 751.348 1043.13 751.486 1042.89 751.732C1042.64 751.978 1042.5 752.311 1042.5 752.659C1042.5 753.006 1042.64 753.339 1042.89 753.585C1043.13 753.831 1043.47 753.969 1043.81 753.969Z" fill="#F7F7F7"/>
<path d="M1050.11 756.52C1050.45 756.52 1050.79 756.382 1051.03 756.136C1051.28 755.891 1051.42 755.557 1051.42 755.21C1051.42 754.862 1051.28 754.529 1051.03 754.283C1050.79 754.037 1050.45 753.899 1050.11 753.899C1049.76 753.899 1049.42 754.037 1049.18 754.283C1048.93 754.529 1048.79 754.862 1048.79 755.21C1048.79 755.557 1048.93 755.891 1049.18 756.136C1049.42 756.382 1049.76 756.52 1050.11 756.52Z" fill="#F7F7F7"/>
<path d="M1052.46 760.469C1052.81 760.469 1053.15 760.331 1053.39 760.086C1053.64 759.84 1053.78 759.506 1053.78 759.159C1053.78 758.811 1053.64 758.478 1053.39 758.232C1053.15 757.986 1052.81 757.848 1052.46 757.848C1052.12 757.848 1051.78 757.986 1051.54 758.232C1051.29 758.478 1051.15 758.811 1051.15 759.159C1051.15 759.506 1051.29 759.84 1051.54 760.086C1051.78 760.331 1052.12 760.469 1052.46 760.469Z" fill="#F7F7F7"/>
<path d="M1051.68 763.999C1052.03 763.999 1052.36 763.861 1052.61 763.615C1052.85 763.37 1052.99 763.036 1052.99 762.689C1052.99 762.341 1052.85 762.008 1052.61 761.762C1052.36 761.516 1052.03 761.378 1051.68 761.378C1051.33 761.378 1051 761.516 1050.75 761.762C1050.51 762.008 1050.37 762.341 1050.37 762.689C1050.37 763.036 1050.51 763.37 1050.75 763.615C1051 763.861 1051.33 763.999 1051.68 763.999Z" fill="#F7F7F7"/>
<path d="M1055.61 764.873C1055.96 764.873 1056.29 764.735 1056.54 764.489C1056.78 764.243 1056.92 763.91 1056.92 763.562C1056.92 763.215 1056.78 762.881 1056.54 762.636C1056.29 762.39 1055.96 762.252 1055.61 762.252C1055.26 762.252 1054.93 762.39 1054.68 762.636C1054.44 762.881 1054.3 763.215 1054.3 763.562C1054.3 763.91 1054.44 764.243 1054.68 764.489C1054.93 764.735 1055.26 764.873 1055.61 764.873Z" fill="#F7F7F7"/>
<path d="M1059.93 764.191C1060.28 764.191 1060.61 764.053 1060.86 763.808C1061.1 763.562 1061.24 763.228 1061.24 762.881C1061.24 762.533 1061.1 762.2 1060.86 761.954C1060.61 761.708 1060.28 761.57 1059.93 761.57C1059.58 761.57 1059.25 761.708 1059 761.954C1058.76 762.2 1058.62 762.533 1058.62 762.881C1058.62 763.228 1058.76 763.562 1059 763.808C1059.25 764.053 1059.58 764.191 1059.93 764.191Z" fill="#F7F7F7"/>
<path d="M1044.39 767.931C1044.74 767.931 1045.07 767.793 1045.32 767.547C1045.56 767.301 1045.7 766.968 1045.7 766.62C1045.7 766.273 1045.56 765.94 1045.32 765.694C1045.07 765.448 1044.74 765.31 1044.39 765.31C1044.04 765.31 1043.71 765.448 1043.46 765.694C1043.22 765.94 1043.08 766.273 1043.08 766.62C1043.08 766.968 1043.22 767.301 1043.46 767.547C1043.71 767.793 1044.04 767.931 1044.39 767.931Z" fill="#F7F7F7"/>
<path d="M1033.71 771.478C1034.06 771.478 1034.39 771.34 1034.64 771.094C1034.88 770.848 1035.02 770.515 1035.02 770.168C1035.02 769.82 1034.88 769.487 1034.64 769.241C1034.39 768.995 1034.06 768.857 1033.71 768.857C1033.36 768.857 1033.03 768.995 1032.78 769.241C1032.54 769.487 1032.4 769.82 1032.4 770.168C1032.4 770.515 1032.54 770.848 1032.78 771.094C1033.03 771.34 1033.36 771.478 1033.71 771.478Z" fill="#F7F7F7"/>
<path d="M1026.49 759.281C1026.84 759.281 1027.17 759.143 1027.42 758.897C1027.66 758.652 1027.8 758.318 1027.8 757.971C1027.8 757.623 1027.66 757.29 1027.42 757.044C1027.17 756.798 1026.84 756.66 1026.49 756.66C1026.14 756.66 1025.81 756.798 1025.56 757.044C1025.32 757.29 1025.18 757.623 1025.18 757.971C1025.18 758.318 1025.32 758.652 1025.56 758.897C1025.81 759.143 1026.14 759.281 1026.49 759.281Z" fill="#F7F7F7"/>
<path d="M1019.01 762.828C1019.36 762.828 1019.69 762.69 1019.94 762.445C1020.18 762.199 1020.32 761.865 1020.32 761.518C1020.32 761.17 1020.18 760.837 1019.94 760.591C1019.69 760.346 1019.36 760.207 1019.01 760.207C1018.66 760.207 1018.33 760.346 1018.08 760.591C1017.84 760.837 1017.7 761.17 1017.7 761.518C1017.7 761.865 1017.84 762.199 1018.08 762.445C1018.33 762.69 1018.66 762.828 1019.01 762.828Z" fill="#F7F7F7"/>
<path d="M1012.74 771.863C1013.08 771.863 1013.42 771.725 1013.66 771.479C1013.91 771.233 1014.05 770.9 1014.05 770.552C1014.05 770.204 1013.91 769.871 1013.66 769.625C1013.42 769.38 1013.08 769.241 1012.74 769.241C1012.39 769.241 1012.05 769.38 1011.81 769.625C1011.56 769.871 1011.42 770.204 1011.42 770.552C1011.42 770.9 1011.56 771.233 1011.81 771.479C1012.05 771.725 1012.39 771.863 1012.74 771.863Z" fill="#F7F7F7"/>
<path d="M999.923 776.79C1000.27 776.79 1000.6 776.652 1000.85 776.407C1001.1 776.161 1001.23 775.828 1001.23 775.48C1001.23 775.132 1001.1 774.799 1000.85 774.553C1000.6 774.307 1000.27 774.169 999.923 774.169C999.575 774.169 999.242 774.307 998.996 774.553C998.75 774.799 998.612 775.132 998.612 775.48C998.612 775.828 998.75 776.161 998.996 776.407C999.242 776.652 999.575 776.79 999.923 776.79Z" fill="#F7F7F7"/>
<path d="M994.225 775.358C994.572 775.358 994.906 775.219 995.152 774.974C995.397 774.728 995.535 774.395 995.535 774.047C995.535 773.699 995.397 773.366 995.152 773.12C994.906 772.874 994.572 772.736 994.225 772.736C993.877 772.736 993.543 772.874 993.298 773.12C993.052 773.366 992.914 773.699 992.914 774.047C992.914 774.395 993.052 774.728 993.298 774.974C993.543 775.219 993.877 775.358 994.225 775.358Z" fill="#F7F7F7"/>
<path d="M988.264 777.961C988.612 777.961 988.946 777.823 989.191 777.577C989.437 777.332 989.575 776.998 989.575 776.651C989.575 776.303 989.437 775.97 989.191 775.724C988.946 775.478 988.612 775.34 988.264 775.34C987.917 775.34 987.583 775.478 987.337 775.724C987.091 775.97 986.953 776.303 986.953 776.651C986.953 776.998 987.091 777.332 987.337 777.577C987.583 777.823 987.917 777.961 988.264 777.961Z" fill="#F7F7F7"/>
<path d="M984.192 781.508C984.539 781.508 984.873 781.37 985.119 781.125C985.364 780.879 985.503 780.545 985.503 780.198C985.503 779.85 985.364 779.517 985.119 779.271C984.873 779.025 984.539 778.887 984.192 778.887C983.844 778.887 983.511 779.025 983.265 779.271C983.019 779.517 982.881 779.85 982.881 780.198C982.881 780.545 983.019 780.879 983.265 781.125C983.511 781.37 983.844 781.508 984.192 781.508Z" fill="#F7F7F7"/>
<path d="M977.497 785.248C977.845 785.248 978.178 785.11 978.424 784.864C978.67 784.618 978.808 784.285 978.808 783.937C978.808 783.59 978.67 783.256 978.424 783.011C978.178 782.765 977.845 782.627 977.497 782.627C977.15 782.627 976.816 782.765 976.57 783.011C976.324 783.256 976.186 783.59 976.186 783.937C976.186 784.285 976.324 784.618 976.57 784.864C976.816 785.11 977.15 785.248 977.497 785.248Z" fill="#F7F7F7"/>
<path d="M994.032 782.102C994.38 782.102 994.714 781.964 994.959 781.719C995.205 781.473 995.343 781.14 995.343 780.792C995.343 780.444 995.205 780.111 994.959 779.865C994.714 779.62 994.38 779.481 994.032 779.481C993.685 779.481 993.351 779.62 993.105 779.865C992.86 780.111 992.721 780.444 992.721 780.792C992.721 781.14 992.86 781.473 993.105 781.719C993.351 781.964 993.685 782.102 994.032 782.102Z" fill="#F7F7F7"/>
<path d="M1000.13 781.316C1000.48 781.316 1000.81 781.178 1001.06 780.932C1001.31 780.687 1001.44 780.353 1001.44 780.006C1001.44 779.658 1001.31 779.325 1001.06 779.079C1000.81 778.833 1000.48 778.695 1000.13 778.695C999.785 778.695 999.451 778.833 999.205 779.079C998.96 779.325 998.822 779.658 998.822 780.006C998.822 780.353 998.96 780.687 999.205 780.932C999.451 781.178 999.785 781.316 1000.13 781.316Z" fill="#F7F7F7"/>
<path d="M995.256 778.171C995.604 778.171 995.937 778.033 996.183 777.787C996.429 777.541 996.567 777.208 996.567 776.86C996.567 776.513 996.429 776.179 996.183 775.933C995.937 775.688 995.604 775.55 995.256 775.55C994.908 775.55 994.575 775.688 994.329 775.933C994.083 776.179 993.945 776.513 993.945 776.86C993.945 777.208 994.083 777.541 994.329 777.787C994.575 778.033 994.908 778.171 995.256 778.171Z" fill="#F7F7F7"/>
<path d="M997.179 777.769C997.526 777.769 997.86 777.631 998.106 777.385C998.352 777.139 998.49 776.806 998.49 776.458C998.49 776.111 998.352 775.777 998.106 775.532C997.86 775.286 997.526 775.148 997.179 775.148C996.831 775.148 996.498 775.286 996.252 775.532C996.006 775.777 995.868 776.111 995.868 776.458C995.868 776.806 996.006 777.139 996.252 777.385C996.498 777.631 996.831 777.769 997.179 777.769Z" fill="#F7F7F7"/>
<path d="M999.731 775.794C1000.08 775.794 1000.41 775.656 1000.66 775.411C1000.9 775.165 1001.04 774.831 1001.04 774.484C1001.04 774.136 1000.9 773.803 1000.66 773.557C1000.41 773.311 1000.08 773.173 999.731 773.173C999.383 773.173 999.049 773.311 998.804 773.557C998.558 773.803 998.42 774.136 998.42 774.484C998.42 774.831 998.558 775.165 998.804 775.411C999.049 775.656 999.383 775.794 999.731 775.794Z" fill="#F7F7F7"/>
<path d="M996.06 772.911V773.121C996.057 773.298 996.099 773.472 996.182 773.628C996.237 773.786 996.327 773.929 996.445 774.047C996.563 774.165 996.706 774.255 996.864 774.309C997.02 774.393 997.194 774.435 997.371 774.431H997.721C997.937 774.37 998.135 774.256 998.297 774.099L998.507 773.837C998.623 773.635 998.684 773.406 998.682 773.173V772.964C998.684 772.795 998.648 772.627 998.577 772.474C998.522 772.308 998.426 772.157 998.297 772.038C998.18 771.919 998.036 771.829 997.878 771.775C997.722 771.692 997.548 771.65 997.371 771.653H997.021C996.805 771.714 996.606 771.829 996.445 771.985L996.235 772.265C996.124 772.463 996.064 772.685 996.06 772.911Z" fill="#F7F7F7"/>
<path d="M995.413 775.602C995.761 775.602 996.094 775.464 996.34 775.218C996.586 774.972 996.724 774.639 996.724 774.292C996.724 773.944 996.586 773.611 996.34 773.365C996.094 773.119 995.761 772.981 995.413 772.981C995.066 772.981 994.732 773.119 994.486 773.365C994.24 773.611 994.102 773.944 994.102 774.292C994.102 774.639 994.24 774.972 994.486 775.218C994.732 775.464 995.066 775.602 995.413 775.602Z" fill="#F7F7F7"/>
<path d="M992.844 777.961C993.192 777.961 993.525 777.823 993.771 777.577C994.017 777.332 994.155 776.998 994.155 776.651C994.155 776.303 994.017 775.97 993.771 775.724C993.525 775.478 993.192 775.34 992.844 775.34C992.496 775.34 992.163 775.478 991.917 775.724C991.671 775.97 991.533 776.303 991.533 776.651C991.533 776.998 991.671 777.332 991.917 777.577C992.163 777.823 992.496 777.961 992.844 777.961Z" fill="#F7F7F7"/>
<path d="M990.484 777.769C990.832 777.769 991.165 777.631 991.411 777.385C991.657 777.139 991.795 776.806 991.795 776.458C991.795 776.111 991.657 775.777 991.411 775.532C991.165 775.286 990.832 775.148 990.484 775.148C990.136 775.148 989.803 775.286 989.557 775.532C989.311 775.777 989.173 776.111 989.173 776.458C989.173 776.806 989.311 777.139 989.557 777.385C989.803 777.631 990.136 777.769 990.484 777.769Z" fill="#F7F7F7"/>
<path d="M992.057 773.173H991.865C991.688 773.17 991.514 773.212 991.358 773.296C991.2 773.349 991.056 773.439 990.939 773.558C990.81 773.678 990.714 773.828 990.659 773.995C990.589 774.148 990.553 774.315 990.554 774.484V774.833C990.612 775.056 990.726 775.261 990.886 775.427L991.148 775.62C991.349 775.738 991.579 775.799 991.812 775.794H992.005C992.181 775.812 992.358 775.776 992.512 775.689C992.67 775.636 992.814 775.546 992.931 775.427C993.066 775.313 993.163 775.161 993.211 774.991C993.291 774.834 993.327 774.659 993.316 774.484V774.152C993.251 773.927 993.131 773.723 992.966 773.558L992.704 773.365C992.501 773.249 992.273 773.184 992.04 773.173H992.057Z" fill="#F7F7F7"/>
<path d="M989.103 776.388C989.451 776.388 989.785 776.25 990.03 776.005C990.276 775.759 990.414 775.425 990.414 775.078C990.414 774.73 990.276 774.397 990.03 774.151C989.785 773.905 989.451 773.767 989.103 773.767C988.756 773.767 988.422 773.905 988.176 774.151C987.931 774.397 987.792 774.73 987.792 775.078C987.792 775.425 987.931 775.759 988.176 776.005C988.422 776.25 988.756 776.388 989.103 776.388Z" fill="#F7F7F7"/>
<path d="M985.363 779.936C985.71 779.936 986.044 779.798 986.29 779.552C986.536 779.306 986.674 778.973 986.674 778.625C986.674 778.278 986.536 777.944 986.29 777.699C986.044 777.453 985.71 777.315 985.363 777.315C985.015 777.315 984.682 777.453 984.436 777.699C984.19 777.944 984.052 778.278 984.052 778.625C984.052 778.973 984.19 779.306 984.436 779.552C984.682 779.798 985.015 779.936 985.363 779.936Z" fill="#F7F7F7"/>
<path d="M983.79 778.748H984.576C984.752 778.767 984.929 778.73 985.083 778.643C985.4 778.512 985.651 778.26 985.782 777.944C985.87 777.79 985.906 777.613 985.887 777.437V777.088C985.818 776.87 985.698 776.673 985.538 776.511L985.275 776.319C985.077 776.192 984.846 776.125 984.611 776.126H983.825C983.653 776.121 983.484 776.163 983.335 776.249C983.17 776.298 983.019 776.388 982.898 776.511C982.779 776.628 982.689 776.772 982.636 776.93C982.553 777.086 982.51 777.26 982.514 777.437V777.787C982.575 778.003 982.689 778.201 982.846 778.363L983.125 778.573C983.32 778.691 983.544 778.752 983.772 778.748H983.79Z" fill="#F7F7F7"/>
<path d="M991.271 781.701C991.618 781.701 991.952 781.563 992.198 781.317C992.444 781.071 992.582 780.738 992.582 780.39C992.582 780.043 992.444 779.709 992.198 779.463C991.952 779.218 991.618 779.08 991.271 779.08C990.923 779.08 990.59 779.218 990.344 779.463C990.098 779.709 989.96 780.043 989.96 780.39C989.96 780.738 990.098 781.071 990.344 781.317C990.59 781.563 990.923 781.701 991.271 781.701Z" fill="#F7F7F7"/>
<path d="M1025.3 760.068C1025.65 760.068 1025.98 759.929 1026.23 759.684C1026.48 759.438 1026.61 759.105 1026.61 758.757C1026.61 758.409 1026.48 758.076 1026.23 757.83C1025.98 757.584 1025.65 757.446 1025.3 757.446C1024.95 757.446 1024.62 757.584 1024.38 757.83C1024.13 758.076 1023.99 758.409 1023.99 758.757C1023.99 759.105 1024.13 759.438 1024.38 759.684C1024.62 759.929 1024.95 760.068 1025.3 760.068Z" fill="#F7F7F7"/>
<path d="M1026.18 755.961L1026.56 755.751C1026.71 755.68 1026.84 755.564 1026.93 755.419C1027.04 755.295 1027.13 755.145 1027.17 754.983C1027.22 754.811 1027.22 754.63 1027.17 754.458C1027.16 754.285 1027.1 754.118 1027.02 753.969L1026.81 753.707C1026.65 753.539 1026.45 753.418 1026.23 753.357H1025.88C1025.65 753.356 1025.42 753.416 1025.22 753.532L1024.83 753.724C1024.68 753.801 1024.55 753.916 1024.46 754.056C1024.35 754.187 1024.26 754.343 1024.22 754.511C1024.18 754.683 1024.18 754.863 1024.22 755.035C1024.23 755.209 1024.28 755.377 1024.38 755.524L1024.59 755.786C1024.74 755.949 1024.94 756.064 1025.16 756.118H1025.51C1025.74 756.112 1025.97 756.052 1026.18 755.944V755.961Z" fill="#F7F7F7"/>
<path d="M1029.83 757.114C1030.18 757.114 1030.51 756.976 1030.76 756.73C1031 756.485 1031.14 756.151 1031.14 755.804C1031.14 755.456 1031 755.123 1030.76 754.877C1030.51 754.631 1030.18 754.493 1029.83 754.493C1029.48 754.493 1029.15 754.631 1028.9 754.877C1028.66 755.123 1028.52 755.456 1028.52 755.804C1028.52 756.151 1028.66 756.485 1028.9 756.73C1029.15 756.976 1029.48 757.114 1029.83 757.114Z" fill="#F7F7F7"/>
<path d="M1028.66 753.969C1029.01 753.969 1029.34 753.831 1029.59 753.585C1029.83 753.339 1029.97 753.006 1029.97 752.659C1029.97 752.311 1029.83 751.978 1029.59 751.732C1029.34 751.486 1029.01 751.348 1028.66 751.348C1028.31 751.348 1027.98 751.486 1027.73 751.732C1027.49 751.978 1027.35 752.311 1027.35 752.659C1027.35 753.006 1027.49 753.339 1027.73 753.585C1027.98 753.831 1028.31 753.969 1028.66 753.969Z" fill="#F7F7F7"/>
<path d="M1034.95 753.969C1035.3 753.969 1035.63 753.831 1035.88 753.585C1036.12 753.339 1036.26 753.006 1036.26 752.659C1036.26 752.311 1036.12 751.978 1035.88 751.732C1035.63 751.486 1035.3 751.348 1034.95 751.348C1034.6 751.348 1034.27 751.486 1034.02 751.732C1033.78 751.978 1033.64 752.311 1033.64 752.659C1033.64 753.006 1033.78 753.339 1034.02 753.585C1034.27 753.831 1034.6 753.969 1034.95 753.969Z" fill="#F7F7F7"/>
<path d="M1034.95 753.969C1035.3 753.969 1035.63 753.831 1035.88 753.585C1036.12 753.339 1036.26 753.006 1036.26 752.659C1036.26 752.311 1036.12 751.978 1035.88 751.732C1035.63 751.486 1035.3 751.348 1034.95 751.348C1034.6 751.348 1034.27 751.486 1034.02 751.732C1033.78 751.978 1033.64 752.311 1033.64 752.659C1033.64 753.006 1033.78 753.339 1034.02 753.585C1034.27 753.831 1034.6 753.969 1034.95 753.969Z" fill="#F7F7F7"/>
<path d="M1038.69 751.61C1039.04 751.61 1039.37 751.472 1039.62 751.226C1039.86 750.98 1040 750.647 1040 750.299C1040 749.952 1039.86 749.619 1039.62 749.373C1039.37 749.127 1039.04 748.989 1038.69 748.989C1038.34 748.989 1038.01 749.127 1037.76 749.373C1037.52 749.619 1037.38 749.952 1037.38 750.299C1037.38 750.647 1037.52 750.98 1037.76 751.226C1038.01 751.472 1038.34 751.61 1038.69 751.61Z" fill="#F7F7F7"/>
<path d="M1042.62 754.388C1042.97 754.388 1043.31 754.25 1043.55 754.005C1043.8 753.759 1043.94 753.425 1043.94 753.078C1043.94 752.73 1043.8 752.397 1043.55 752.151C1043.31 751.905 1042.97 751.767 1042.62 751.767C1042.28 751.767 1041.94 751.905 1041.7 752.151C1041.45 752.397 1041.31 752.73 1041.31 753.078C1041.31 753.425 1041.45 753.759 1041.7 754.005C1041.94 754.25 1042.28 754.388 1042.62 754.388Z" fill="#F7F7F7"/>
<path d="M1044.98 757.307C1045.33 757.307 1045.66 757.168 1045.91 756.923C1046.16 756.677 1046.29 756.344 1046.29 755.996C1046.29 755.648 1046.16 755.315 1045.91 755.069C1045.66 754.824 1045.33 754.686 1044.98 754.686C1044.64 754.686 1044.3 754.824 1044.06 755.069C1043.81 755.315 1043.67 755.648 1043.67 755.996C1043.67 756.344 1043.81 756.677 1044.06 756.923C1044.3 757.168 1044.64 757.307 1044.98 757.307Z" fill="#F7F7F7"/>
<path d="M1042.45 751.802C1042.8 751.802 1043.13 751.664 1043.38 751.418C1043.62 751.173 1043.76 750.839 1043.76 750.492C1043.76 750.144 1043.62 749.811 1043.38 749.565C1043.13 749.319 1042.8 749.181 1042.45 749.181C1042.1 749.181 1041.77 749.319 1041.52 749.565C1041.28 749.811 1041.14 750.144 1041.14 750.492C1041.14 750.839 1041.28 751.173 1041.52 751.418C1041.77 751.664 1042.1 751.802 1042.45 751.802Z" fill="#F7F7F7"/>
<path d="M1046.75 753.183C1047.1 753.183 1047.43 753.045 1047.68 752.799C1047.92 752.553 1048.06 752.22 1048.06 751.872C1048.06 751.525 1047.92 751.191 1047.68 750.945C1047.43 750.7 1047.1 750.562 1046.75 750.562C1046.4 750.562 1046.07 750.7 1045.82 750.945C1045.58 751.191 1045.44 751.525 1045.44 751.872C1045.44 752.22 1045.58 752.553 1045.82 752.799C1046.07 753.045 1046.4 753.183 1046.75 753.183Z" fill="#F7F7F7"/>
<path d="M1050.89 754.948C1051.24 754.948 1051.57 754.81 1051.82 754.564C1052.06 754.318 1052.2 753.985 1052.2 753.637C1052.2 753.289 1052.06 752.956 1051.82 752.71C1051.57 752.465 1051.24 752.327 1050.89 752.327C1050.54 752.327 1050.21 752.465 1049.96 752.71C1049.72 752.956 1049.58 753.289 1049.58 753.637C1049.58 753.985 1049.72 754.318 1049.96 754.564C1050.21 754.81 1050.54 754.948 1050.89 754.948Z" fill="#F7F7F7"/>
<path d="M1049.56 753.497C1049.24 753.908 1048.88 754.283 1048.48 754.616L1048.76 754.406H1048.65C1048.51 754.483 1048.38 754.597 1048.29 754.738C1048.17 754.869 1048.09 755.024 1048.04 755.192C1048 755.364 1048 755.544 1048.04 755.717C1048.04 755.892 1048.1 756.063 1048.2 756.206L1048.41 756.468C1048.57 756.63 1048.77 756.746 1048.99 756.8H1049.34C1049.57 756.794 1049.8 756.734 1050 756.625C1050.32 756.403 1050.61 756.152 1050.87 755.874C1051.07 755.664 1051.26 755.454 1051.43 755.227C1051.57 755.122 1051.67 754.974 1051.71 754.808C1051.79 754.651 1051.83 754.476 1051.82 754.301C1051.83 754.126 1051.79 753.951 1051.71 753.794C1051.66 753.632 1051.56 753.487 1051.43 753.375L1051.17 753.183C1050.97 753.059 1050.74 752.992 1050.51 752.99H1050.16C1049.94 753.06 1049.75 753.173 1049.58 753.323L1049.56 753.497Z" fill="#F7F7F7"/>
<path d="M1052.06 755.944C1052.41 755.944 1052.74 755.805 1052.99 755.56C1053.24 755.314 1053.37 754.981 1053.37 754.633C1053.37 754.285 1053.24 753.952 1052.99 753.706C1052.74 753.46 1052.41 753.322 1052.06 753.322C1051.72 753.322 1051.38 753.46 1051.14 753.706C1050.89 753.952 1050.75 754.285 1050.75 754.633C1050.75 754.981 1050.89 755.314 1051.14 755.56C1051.38 755.805 1051.72 755.944 1052.06 755.944Z" fill="#F7F7F7"/>
<path d="M1041.24 754.895H1040.86C1040.68 754.876 1040.51 754.913 1040.35 755C1040.04 755.131 1039.78 755.383 1039.65 755.699C1039.57 755.853 1039.53 756.03 1039.55 756.206V756.555C1039.62 756.773 1039.74 756.97 1039.9 757.132L1040.16 757.324C1040.36 757.448 1040.59 757.515 1040.82 757.516H1041.21C1041.39 757.521 1041.56 757.479 1041.72 757.394C1041.87 757.341 1042.02 757.251 1042.13 757.132C1042.26 757.02 1042.36 756.875 1042.41 756.713C1042.49 756.556 1042.53 756.381 1042.52 756.206V755.856C1042.46 755.635 1042.34 755.435 1042.17 755.28L1041.91 755.07C1041.71 754.951 1041.48 754.891 1041.24 754.895Z" fill="#F7F7F7"/>
<path d="M1036.98 755.751L1037.17 755.944C1037.29 756.068 1037.43 756.164 1037.59 756.223C1037.75 756.292 1037.92 756.328 1038.1 756.328C1038.27 756.328 1038.44 756.292 1038.6 756.223C1038.76 756.164 1038.91 756.068 1039.02 755.944L1039.23 755.682C1039.35 755.481 1039.41 755.251 1039.41 755.018V754.668C1039.35 754.449 1039.24 754.249 1039.08 754.091L1038.88 753.899C1038.77 753.775 1038.62 753.679 1038.46 753.62C1038.3 753.55 1038.13 753.515 1037.96 753.515C1037.78 753.515 1037.61 753.55 1037.45 753.62C1037.29 753.679 1037.15 753.775 1037.03 753.899L1036.82 754.161C1036.7 754.362 1036.64 754.592 1036.65 754.825V755.175C1036.7 755.394 1036.82 755.594 1036.98 755.751Z" fill="#F7F7F7"/>
<path d="M1003.47 775.602C1003.82 775.602 1004.15 775.464 1004.4 775.218C1004.64 774.972 1004.78 774.639 1004.78 774.292C1004.78 773.944 1004.64 773.611 1004.4 773.365C1004.15 773.119 1003.82 772.981 1003.47 772.981C1003.12 772.981 1002.79 773.119 1002.54 773.365C1002.3 773.611 1002.16 773.944 1002.16 774.292C1002.16 774.639 1002.3 774.972 1002.54 775.218C1002.79 775.464 1003.12 775.602 1003.47 775.602Z" fill="#F7F7F7"/>
<path d="M1002.96 773.61V773.453C1002.9 773.236 1002.79 773.038 1002.63 772.876C1002.47 772.715 1002.27 772.596 1002.06 772.527H1001.88C1001.71 772.483 1001.54 772.483 1001.37 772.527C1001.2 772.525 1001.03 772.581 1000.88 772.684C1000.73 772.755 1000.6 772.871 1000.52 773.016C1000.39 773.14 1000.31 773.298 1000.27 773.47V773.802C1000.28 774.036 1000.35 774.265 1000.46 774.466L1000.66 774.728C1000.82 774.893 1001.03 775.014 1001.25 775.078H1001.41L1000.48 774.169V774.327C1000.53 774.489 1000.61 774.639 1000.73 774.763C1000.81 774.908 1000.94 775.024 1001.09 775.095C1001.24 775.199 1001.41 775.254 1001.58 775.253C1001.75 775.305 1001.94 775.305 1002.11 775.253L1002.42 775.113C1002.61 775.008 1002.77 774.851 1002.88 774.659L1003.02 774.344C1003.09 774.116 1003.09 773.873 1003.02 773.645L1002.96 773.61Z" fill="#F7F7F7"/>
<path d="M1001.71 775.008C1002.05 775.008 1002.39 774.87 1002.63 774.624C1002.88 774.378 1003.02 774.045 1003.02 773.697C1003.02 773.35 1002.88 773.017 1002.63 772.771C1002.39 772.525 1002.05 772.387 1001.71 772.387C1001.36 772.387 1001.02 772.525 1000.78 772.771C1000.53 773.017 1000.39 773.35 1000.39 773.697C1000.39 774.045 1000.53 774.378 1000.78 774.624C1001.02 774.87 1001.36 775.008 1001.71 775.008Z" fill="#F7F7F7"/>
<path d="M998.752 774.623C999.1 774.623 999.433 774.485 999.679 774.24C999.925 773.994 1000.06 773.661 1000.06 773.313C1000.06 772.965 999.925 772.632 999.679 772.386C999.433 772.141 999.1 772.002 998.752 772.002C998.404 772.002 998.071 772.141 997.825 772.386C997.579 772.632 997.441 772.965 997.441 773.313C997.441 773.661 997.579 773.994 997.825 774.24C998.071 774.485 998.404 774.623 998.752 774.623Z" fill="#F7F7F7"/>
<path d="M995.606 770.622H995.413C995.237 770.617 995.062 770.659 994.906 770.744C994.744 770.789 994.598 770.88 994.487 771.006C994.357 771.118 994.261 771.263 994.207 771.426C994.121 771.58 994.084 771.757 994.102 771.933V772.282C994.163 772.503 994.284 772.703 994.452 772.859L994.714 773.068C994.914 773.189 995.145 773.249 995.378 773.243H995.571C995.746 773.253 995.921 773.217 996.078 773.138C996.24 773.085 996.385 772.988 996.497 772.859C996.616 772.741 996.706 772.598 996.759 772.439C996.899 772.277 996.984 772.076 997.004 771.863V771.513C996.946 771.295 996.832 771.096 996.672 770.937L996.41 770.727C996.205 770.618 995.977 770.558 995.745 770.552L995.606 770.622Z" fill="#F7F7F7"/>
<path d="M993.77 771.985L993.508 771.863C993.391 771.744 993.247 771.654 993.089 771.601C992.932 771.521 992.758 771.479 992.582 771.479C992.406 771.479 992.232 771.521 992.075 771.601C991.916 771.654 991.773 771.744 991.655 771.863L991.446 772.125C991.329 772.327 991.269 772.556 991.271 772.789V773.138C991.325 773.358 991.44 773.558 991.603 773.715L991.795 773.907C991.907 774.037 992.052 774.133 992.215 774.187C992.369 774.273 992.546 774.31 992.721 774.292C992.897 774.311 993.075 774.274 993.228 774.187C993.391 774.133 993.536 774.037 993.648 773.907L993.858 773.645C993.978 773.445 994.039 773.215 994.032 772.981V772.649C993.968 772.425 993.848 772.22 993.683 772.055L993.77 771.985Z" fill="#F7F7F7"/>
<path d="M992.18 776.406C992.525 776.581 992.858 776.779 993.176 777L992.914 776.79C993.043 776.893 993.16 777.011 993.263 777.14L993.054 776.878C993.141 777.024 993.261 777.15 993.403 777.245C993.527 777.357 993.677 777.435 993.84 777.472C994.011 777.524 994.194 777.524 994.364 777.472C994.537 777.468 994.706 777.42 994.854 777.332C995.146 777.156 995.358 776.874 995.448 776.546V776.196C995.453 775.963 995.392 775.733 995.273 775.532C995.129 775.325 994.966 775.131 994.784 774.956C994.591 774.79 994.386 774.639 994.172 774.501C993.928 774.344 993.683 774.222 993.421 774.082C993.277 773.981 993.107 773.926 992.931 773.925C992.759 773.881 992.579 773.881 992.407 773.925C992.244 773.971 992.094 774.055 991.97 774.169C991.824 774.26 991.704 774.386 991.62 774.536C991.535 774.686 991.481 774.851 991.46 775.022C991.439 775.193 991.452 775.366 991.498 775.532C991.584 775.863 991.798 776.145 992.092 776.319L992.18 776.406Z" fill="#F7F7F7"/>
<path d="M1000.92 779.936C1001.27 779.936 1001.6 779.798 1001.85 779.552C1002.09 779.306 1002.23 778.973 1002.23 778.625C1002.23 778.278 1002.09 777.944 1001.85 777.699C1001.6 777.453 1001.27 777.315 1000.92 777.315C1000.57 777.315 1000.24 777.453 999.992 777.699C999.746 777.944 999.608 778.278 999.608 778.625C999.608 778.973 999.746 779.306 999.992 779.552C1000.24 779.798 1000.57 779.936 1000.92 779.936Z" fill="#F7F7F7"/>
<path d="M997.773 782.347C998.121 782.347 998.454 782.209 998.7 781.963C998.946 781.718 999.084 781.384 999.084 781.037C999.084 780.689 998.946 780.356 998.7 780.11C998.454 779.864 998.121 779.726 997.773 779.726C997.425 779.726 997.092 779.864 996.846 780.11C996.6 780.356 996.462 780.689 996.462 781.037C996.462 781.384 996.6 781.718 996.846 781.963C997.092 782.209 997.425 782.347 997.773 782.347Z" fill="#F7F7F7"/>
<path d="M1005.04 783.273C1005.39 783.273 1005.73 783.135 1005.97 782.889C1006.22 782.644 1006.36 782.31 1006.36 781.963C1006.36 781.615 1006.22 781.282 1005.97 781.036C1005.73 780.79 1005.39 780.652 1005.04 780.652C1004.7 780.652 1004.36 780.79 1004.12 781.036C1003.87 781.282 1003.73 781.615 1003.73 781.963C1003.73 782.31 1003.87 782.644 1004.12 782.889C1004.36 783.135 1004.7 783.273 1005.04 783.273Z" fill="#F7F7F7"/>
<path d="M1006.02 777.105C1006.37 777.105 1006.7 776.967 1006.95 776.721C1007.2 776.475 1007.33 776.142 1007.33 775.794C1007.33 775.447 1007.2 775.113 1006.95 774.868C1006.7 774.622 1006.37 774.484 1006.02 774.484C1005.68 774.484 1005.34 774.622 1005.1 774.868C1004.85 775.113 1004.71 775.447 1004.71 775.794C1004.71 776.142 1004.85 776.475 1005.1 776.721C1005.34 776.967 1005.68 777.105 1006.02 777.105Z" fill="#F7F7F7"/>
<path d="M1010.17 780.914C1010.51 780.914 1010.85 780.776 1011.09 780.53C1011.34 780.285 1011.48 779.951 1011.48 779.604C1011.48 779.256 1011.34 778.923 1011.09 778.677C1010.85 778.431 1010.51 778.293 1010.17 778.293C1009.82 778.293 1009.48 778.431 1009.24 778.677C1008.99 778.923 1008.85 779.256 1008.85 779.604C1008.85 779.951 1008.99 780.285 1009.24 780.53C1009.48 780.776 1009.82 780.914 1010.17 780.914Z" fill="#F7F7F7"/>
<path d="M1009.43 782.697L1010.03 783.291C1010.14 783.41 1010.29 783.5 1010.45 783.553C1010.6 783.638 1010.78 783.68 1010.95 783.675C1011.13 783.679 1011.3 783.636 1011.46 783.553C1011.62 783.5 1011.76 783.41 1011.88 783.291L1012.09 783.029C1012.2 782.824 1012.26 782.597 1012.26 782.365V782.015C1012.21 781.796 1012.09 781.596 1011.93 781.439L1011.34 780.844C1011.22 780.72 1011.08 780.624 1010.92 780.565C1010.76 780.496 1010.58 780.46 1010.41 780.46C1010.24 780.46 1010.06 780.496 1009.9 780.565C1009.74 780.624 1009.6 780.72 1009.48 780.844L1009.27 781.107C1009.16 781.307 1009.09 781.537 1009.1 781.771V782.12C1009.15 782.34 1009.27 782.539 1009.43 782.697Z" fill="#F7F7F7"/>
<path d="M1013.5 785.44C1013.85 785.44 1014.19 785.302 1014.43 785.056C1014.68 784.81 1014.82 784.477 1014.82 784.13C1014.82 783.782 1014.68 783.449 1014.43 783.203C1014.19 782.957 1013.85 782.819 1013.5 782.819C1013.16 782.819 1012.82 782.957 1012.58 783.203C1012.33 783.449 1012.19 783.782 1012.19 784.13C1012.19 784.477 1012.33 784.81 1012.58 785.056C1012.82 785.302 1013.16 785.44 1013.5 785.44Z" fill="#F7F7F7"/>
<path d="M1039.08 764.593C1039.42 764.593 1039.76 764.455 1040 764.209C1040.25 763.964 1040.39 763.63 1040.39 763.283C1040.39 762.935 1040.25 762.602 1040 762.356C1039.76 762.11 1039.42 761.972 1039.08 761.972C1038.73 761.972 1038.39 762.11 1038.15 762.356C1037.9 762.602 1037.76 762.935 1037.76 763.283C1037.76 763.63 1037.9 763.964 1038.15 764.209C1038.39 764.455 1038.73 764.593 1039.08 764.593Z" fill="#F7F7F7"/>
<path d="M1027.87 768.717C1028.22 768.717 1028.55 768.579 1028.8 768.333C1029.04 768.088 1029.18 767.754 1029.18 767.407C1029.18 767.059 1029.04 766.726 1028.8 766.48C1028.55 766.234 1028.22 766.096 1027.87 766.096C1027.52 766.096 1027.19 766.234 1026.94 766.48C1026.7 766.726 1026.56 767.059 1026.56 767.407C1026.56 767.754 1026.7 768.088 1026.94 768.333C1027.19 768.579 1027.52 768.717 1027.87 768.717Z" fill="#F7F7F7"/>
<path d="M1307.92 255.132C1301.6 265.362 1294.17 274.867 1285.78 283.475C1268.82 300.95 1248.02 317.463 1224.32 324.243C1199.85 331.233 1206.84 294.449 1209.86 281.955C1217.8 249.383 1235.05 215.693 1254.96 188.87C1265.13 175.135 1279.99 156.77 1299.51 160.614C1326.19 165.856 1330.98 192.61 1325.02 215.466C1321.31 229.461 1315.55 242.829 1307.92 255.132Z" fill="#C5A38B"/>
<path d="M1221.87 308.621C1231.66 295.358 1240.78 281.606 1249.42 267.556C1258.05 253.507 1266.13 239.143 1273.98 224.64C1281.83 210.136 1289.36 195.44 1296.87 180.71C1304.39 165.979 1312.45 151.528 1317.1 136.203C1317.43 135.315 1318.08 134.586 1318.93 134.165C1319.78 133.743 1320.76 133.661 1321.67 133.935C1322.57 134.209 1323.34 134.819 1323.81 135.639C1324.29 136.46 1324.43 137.43 1324.21 138.352C1321.45 146.347 1318.08 154.117 1314.13 161.593C1310.28 169.019 1306.3 176.219 1302.36 183.505C1294.48 198.044 1286.63 212.565 1278.31 226.929C1269.99 241.293 1261.55 255.517 1252.55 269.426C1243.55 283.336 1233.99 296.896 1223.81 309.984C1223.61 310.195 1223.33 310.324 1223.04 310.346C1222.74 310.368 1222.45 310.281 1222.22 310.103C1221.98 309.924 1221.82 309.666 1221.76 309.377C1221.71 309.088 1221.76 308.788 1221.91 308.534L1221.87 308.621Z" fill="#9B7857"/>
<path d="M806.482 166.241C800.381 159.771 795.017 152.645 790.489 144.992C781.295 129.528 773.464 111.477 773.184 93.251C772.887 74.4837 797.83 86.4885 806.167 91.0668C827.911 102.984 848.676 121.786 864.006 141.165C871.854 151.091 882.114 165.227 875.629 178.42C866.785 196.489 846.719 194.724 831.529 186.092C822.241 180.755 813.799 174.065 806.482 166.241Z" fill="#C5A38B"/>
<path d="M784.843 94.5092C800.226 113.455 816.931 131.288 834.833 147.875C843.695 156.263 852.732 164.476 861.803 172.671C870.875 180.867 879.702 189.412 889.77 195.685C890.087 195.869 890.365 196.114 890.586 196.407C890.807 196.7 890.967 197.035 891.057 197.39C891.146 197.746 891.163 198.117 891.107 198.479C891.051 198.842 890.922 199.189 890.73 199.502C890.537 199.814 890.283 200.084 889.984 200.296C889.684 200.509 889.346 200.659 888.987 200.738C888.629 200.817 888.258 200.824 887.897 200.757C887.536 200.691 887.192 200.552 886.886 200.351C881.697 196.853 876.793 192.95 872.221 188.678C867.659 184.519 863.272 180.273 858.832 176.079C849.953 167.656 841.108 159.181 832.421 150.549C814.814 133.42 798.447 115.06 783.445 95.61C783.334 95.4232 783.295 95.2023 783.336 94.9889C783.376 94.7755 783.494 94.5844 783.665 94.4513C783.837 94.3182 784.052 94.2525 784.268 94.2663C784.485 94.2802 784.69 94.3728 784.843 94.5266V94.5092Z" fill="#9B7857"/>
<path d="M710.033 808.821C706.171 809.098 702.29 808.946 698.461 808.366C690.718 807.231 682.486 804.872 676.246 799.996C670.006 795.121 680.738 789.826 684.566 788.271C695.022 784.277 706.147 782.326 717.339 782.522C722.827 782.522 730.413 783.029 733.07 788.83C736.723 796.781 730.623 803.054 723.526 805.815C719.199 807.469 714.653 808.482 710.033 808.821Z" fill="#E7E7E8"/>
<path d="M710.033 804.871C706.171 805.155 702.29 805.008 698.461 804.435C690.718 803.281 682.486 800.94 676.246 796.064C670.006 791.189 680.738 785.894 684.566 784.339C695.017 780.328 706.146 778.376 717.339 778.59C722.827 778.59 730.413 779.079 733.07 784.898C736.723 792.849 730.623 799.122 723.526 801.883C719.201 803.54 714.653 804.547 710.033 804.871Z" fill="#C5A38B"/>
<path d="M679.864 792.482C690.483 792.501 701.091 791.765 711.606 790.28C716.849 789.599 722.093 788.795 727.337 787.991C732.552 787.386 737.708 786.351 742.753 784.898C742.901 784.847 743.058 784.825 743.215 784.834C743.371 784.843 743.525 784.882 743.666 784.95C743.807 785.019 743.933 785.114 744.038 785.231C744.142 785.348 744.222 785.484 744.274 785.632C744.326 785.78 744.348 785.937 744.339 786.094C744.33 786.25 744.29 786.403 744.222 786.544C744.154 786.686 744.058 786.812 743.941 786.916C743.824 787.021 743.688 787.101 743.54 787.153C738.33 788.521 733.016 789.456 727.652 789.948C722.408 790.612 717.077 791.276 711.781 791.836C701.177 793.061 690.499 793.528 679.829 793.234C679.777 793.234 679.727 793.223 679.68 793.203C679.633 793.182 679.591 793.152 679.556 793.114C679.521 793.076 679.495 793.032 679.479 792.983C679.463 792.934 679.457 792.883 679.462 792.832C679.464 792.782 679.476 792.733 679.498 792.688C679.519 792.643 679.55 792.603 679.588 792.571C679.625 792.538 679.669 792.513 679.717 792.498C679.764 792.483 679.814 792.477 679.864 792.482Z" fill="#9B7857"/>
<path d="M1318.23 815.828C1322.06 815.229 1325.94 815.047 1329.81 815.286C1337.6 815.775 1346.03 817.383 1352.65 821.752C1359.28 826.12 1349.03 832.236 1345.34 834.141C1335.26 839.014 1324.33 841.903 1313.15 842.651C1307.66 843.035 1300.07 843.245 1296.91 837.688C1292.59 830.087 1298.13 823.307 1304.97 819.969C1309.16 817.94 1313.63 816.544 1318.23 815.828Z" fill="#E7E7E8"/>
<path d="M1318.23 813.504C1322.06 812.905 1325.94 812.723 1329.81 812.962C1337.6 813.451 1346.03 815.059 1352.65 819.427C1359.28 823.796 1349.03 829.912 1345.34 831.817C1335.26 836.69 1324.33 839.579 1313.15 840.327C1307.66 840.711 1300.07 840.921 1296.91 835.364C1292.59 827.763 1298.13 820.983 1304.97 817.645C1309.16 815.615 1313.63 814.22 1318.23 813.504Z" fill="#C5A38B"/>
<path d="M1349.35 823.307C1338.76 824.187 1328.24 825.816 1317.88 828.182C1312.64 829.318 1307.52 830.541 1302.36 831.799C1297.21 832.841 1292.15 834.308 1287.24 836.185C1287.1 836.251 1286.95 836.288 1286.79 836.293C1286.63 836.298 1286.47 836.271 1286.33 836.214C1286.18 836.157 1286.05 836.071 1285.93 835.961C1285.82 835.851 1285.73 835.719 1285.67 835.574C1285.61 835.431 1285.57 835.278 1285.57 835.122C1285.56 834.966 1285.59 834.81 1285.64 834.664C1285.7 834.518 1285.78 834.384 1285.89 834.271C1285.99 834.157 1286.12 834.065 1286.27 834.001C1291.35 832.197 1296.57 830.818 1301.87 829.877C1307.12 828.759 1312.36 827.658 1317.61 826.644C1328.06 824.535 1338.65 823.163 1349.29 822.538C1349.35 822.536 1349.4 822.543 1349.44 822.56C1349.49 822.578 1349.53 822.604 1349.57 822.638C1349.61 822.672 1349.64 822.713 1349.66 822.759C1349.68 822.805 1349.69 822.854 1349.7 822.905C1349.7 822.954 1349.7 823.004 1349.68 823.052C1349.67 823.099 1349.64 823.143 1349.61 823.181C1349.58 823.219 1349.54 823.249 1349.49 823.271C1349.45 823.292 1349.4 823.305 1349.35 823.307Z" fill="#9B7857"/>
<path d="M368.125 232.835C364.524 238.669 360.292 244.09 355.505 248.999C345.839 258.924 333.988 268.36 320.547 272.24C306.564 276.206 310.566 255.255 312.297 248.125C316.824 229.567 326.664 210.363 338.008 195.056C343.811 187.245 352.289 176.778 363.405 178.962C378.612 181.933 381.321 197.188 377.948 210.224C375.808 218.204 372.497 225.824 368.125 232.835Z" fill="#C5A38B"/>
<path d="M319.079 263.363C330.102 248.125 340.032 232.125 348.793 215.483C353.268 207.218 357.532 198.848 361.85 190.46C366.167 182.073 370.729 173.79 373.368 165.07C373.433 164.787 373.554 164.52 373.726 164.286C373.898 164.051 374.116 163.855 374.367 163.709C374.619 163.563 374.897 163.47 375.186 163.436C375.474 163.402 375.767 163.428 376.045 163.513C376.323 163.597 376.581 163.738 376.802 163.926C377.023 164.114 377.203 164.346 377.331 164.607C377.459 164.868 377.531 165.152 377.544 165.442C377.557 165.732 377.51 166.022 377.406 166.293C374.312 175.572 369.348 183.768 364.961 192.015C360.574 200.263 355.942 208.581 351.257 216.776C342.03 233.27 331.645 249.089 320.18 264.114C320.125 264.186 320.056 264.246 319.978 264.29C319.9 264.335 319.814 264.364 319.725 264.376C319.635 264.387 319.544 264.381 319.457 264.357C319.371 264.333 319.289 264.292 319.218 264.236C319.095 264.131 319.013 263.985 318.987 263.825C318.962 263.665 318.994 263.501 319.079 263.363Z" fill="#9B7857"/>
<path d="M424.792 420.141C431.113 430.367 438.534 439.871 446.92 448.485C463.875 465.959 484.675 482.472 508.394 489.252C532.778 496.242 525.873 459.458 522.849 446.964C514.914 414.41 497.662 380.72 477.753 353.879C467.563 340.162 452.706 321.814 433.199 325.623C406.509 330.866 401.737 357.619 407.697 380.492C411.397 394.483 417.158 407.846 424.792 420.141Z" fill="#A7A8AB"/>
<path d="M508.919 475.08C498.746 462.01 489.237 448.415 480.2 434.523C471.164 420.631 462.721 406.389 454.419 392.025C446.116 377.662 438.251 363.141 430.368 348.602C426.452 341.315 422.467 334.116 418.622 326.689C414.667 319.25 411.295 311.514 408.536 303.553C408.323 303.081 408.211 302.57 408.208 302.052C408.205 301.534 408.31 301.021 408.518 300.547C408.725 300.072 409.03 299.646 409.412 299.296C409.794 298.947 410.245 298.681 410.737 298.517C411.228 298.352 411.748 298.292 412.264 298.341C412.78 298.39 413.279 298.547 413.731 298.801C414.182 299.055 414.576 299.401 414.885 299.816C415.195 300.231 415.414 300.707 415.528 301.212C420.177 316.502 428.375 330.918 435.751 345.736C443.127 360.554 450.888 375.198 458.649 389.649C466.409 404.1 474.607 418.516 483.224 432.583C491.841 446.65 500.983 460.367 510.771 473.63C510.872 473.761 510.946 473.91 510.987 474.07C511.029 474.23 511.038 474.396 511.013 474.56C510.989 474.723 510.932 474.88 510.845 475.02C510.758 475.161 510.644 475.282 510.509 475.377C510.255 475.538 509.95 475.596 509.655 475.541C509.36 475.486 509.097 475.322 508.919 475.08Z" fill="#8A8B8F"/>
<path d="M1198.22 494.686C1205.97 492.12 1213.42 488.709 1220.42 484.516C1234.58 476.041 1248.79 464.893 1256.99 450.302C1265.41 435.274 1240.03 434.068 1231.31 434.121C1208.59 434.261 1183.58 440.377 1162.72 449.323C1152.06 453.902 1137.61 460.856 1137.06 474.346C1136.33 492.782 1153.28 500.121 1169.33 499.771C1179.16 499.516 1188.9 497.802 1198.22 494.686Z" fill="#A7A8AB"/>
<path d="M1247.71 447.716C1227.14 456.87 1205.95 464.555 1184.29 470.712C1173.49 473.91 1162.65 476.863 1151.82 479.798C1140.98 482.734 1130.19 486.107 1118.61 487.155C1117.94 487.215 1117.28 487.009 1116.77 486.581C1116.25 486.154 1115.93 485.54 1115.87 484.875C1115.81 484.21 1116.02 483.548 1116.44 483.035C1116.87 482.522 1117.49 482.2 1118.15 482.14H1118.24C1129.08 481.476 1139.9 478.313 1150.82 475.762C1161.74 473.211 1172.62 470.415 1183.44 467.514C1205.13 461.938 1226.4 454.832 1247.09 446.248C1247.19 446.205 1247.3 446.183 1247.41 446.181C1247.51 446.18 1247.62 446.201 1247.72 446.241C1247.82 446.282 1247.91 446.342 1247.99 446.418C1248.06 446.495 1248.12 446.585 1248.16 446.685C1248.2 446.782 1248.22 446.886 1248.22 446.991C1248.22 447.096 1248.19 447.2 1248.15 447.296C1248.11 447.392 1248.05 447.479 1247.97 447.551C1247.89 447.623 1247.8 447.679 1247.71 447.716Z" fill="#8A8B8F"/>
<path d="M791.695 831.624C794.598 830.674 797.384 829.396 799.997 827.815C805.241 824.652 810.642 820.476 813.701 815.006C816.76 809.537 807.356 808.925 804.087 808.943C795.237 809.183 786.515 811.117 778.393 814.639C774.408 816.387 768.989 818.956 768.797 824.006C768.517 830.995 774.862 833.669 780.875 833.529C784.557 833.447 788.206 832.804 791.695 831.624Z" fill="#E7E7E8"/>
<path d="M791.695 829.528C794.596 828.565 797.381 827.281 799.997 825.701C805.241 822.538 810.642 818.362 813.701 812.892C816.76 807.423 807.356 806.811 804.087 806.846C795.237 807.072 786.514 809 778.393 812.525C774.408 814.273 768.989 816.841 768.797 821.891C768.517 828.881 774.862 831.555 780.875 831.415C784.556 831.33 788.203 830.694 791.695 829.528Z" fill="#A7A8AB"/>
<path d="M810.223 811.914C802.517 815.34 794.579 818.219 786.468 820.528C782.431 821.717 778.376 822.835 774.321 823.918C770.253 825.193 766.084 826.117 761.858 826.679C761.729 826.705 761.595 826.702 761.467 826.673C761.338 826.644 761.217 826.588 761.112 826.509C761.006 826.43 760.918 826.329 760.854 826.214C760.789 826.099 760.75 825.972 760.737 825.841C760.725 825.71 760.741 825.577 760.783 825.452C760.825 825.327 760.892 825.213 760.981 825.116C761.071 825.018 761.179 824.941 761.3 824.888C761.421 824.836 761.551 824.809 761.683 824.81C765.822 824.357 769.915 823.556 773.919 822.416C778.009 821.437 782.081 820.424 786.154 819.34C794.273 817.242 802.234 814.573 809.978 811.354C810.015 811.338 810.054 811.33 810.094 811.329C810.134 811.328 810.174 811.335 810.211 811.35C810.249 811.364 810.283 811.386 810.312 811.414C810.341 811.442 810.364 811.475 810.38 811.512C810.396 811.548 810.405 811.588 810.405 811.628C810.406 811.668 810.399 811.708 810.384 811.745C810.37 811.782 810.348 811.817 810.32 811.845C810.292 811.874 810.259 811.897 810.223 811.914Z" fill="#8A8B8F"/>
</svg>
