<svg width="380" height="435" viewBox="0 0 380 435" fill="none" xmlns="http://www.w3.org/2000/svg">
<g clip-path="url(#clip0)">
<g style="mix-blend-mode:multiply">
<g style="mix-blend-mode:multiply">
<path d="M206.721 218.331L247.893 242.111L305.621 216.654L251.201 192.654L206.721 218.331ZM199.603 149.828V203.125L234.864 182.277L236.275 180.944L239.411 179.157L247.391 114.197L199.603 149.828ZM191.764 433.088C187.06 433.088 183.925 429.31 183.925 424.294V369.93L142.769 398.821C141.081 399.949 139.091 400.539 137.062 400.514C135.564 400.547 134.078 400.236 132.719 399.606C131.36 398.975 130.164 398.042 129.222 396.877C126.479 393.13 127.952 387.612 132.091 384.603L183.925 348.141V302.76L124.346 344.99C122.476 346.18 120.29 346.776 118.075 346.699C116.304 346.745 114.551 346.34 112.979 345.523C111.499 344.673 110.297 343.412 109.518 341.893C108.739 340.374 108.417 338.662 108.589 336.964L115.754 270.797L80.9952 290.862L74.5043 352.577C74.2722 354.731 73.252 356.722 71.6399 358.169C70.0278 359.616 67.9377 360.416 65.7714 360.415H64.8307C63.6803 360.296 62.5648 359.951 61.5479 359.4C60.5311 358.849 59.6329 358.103 58.9047 357.205C58.1766 356.306 57.6328 355.273 57.3045 354.165C56.9762 353.056 56.8698 351.893 56.9914 350.743L62.1339 301.741L14.9416 328.985C12.9207 330.152 10.5193 330.467 8.26556 329.863C6.01183 329.259 4.09043 327.785 2.92405 325.764C1.75768 323.744 1.44187 321.343 2.0461 319.089C2.65033 316.836 4.1251 314.915 6.14599 313.749L53.354 286.504L8.56048 266.706C7.5109 266.248 6.56326 265.585 5.77308 264.757C4.9829 263.928 4.36606 262.95 3.95868 261.88C3.55131 260.81 3.36161 259.669 3.40067 258.525C3.43973 257.381 3.70678 256.256 4.18617 255.216C4.87246 253.635 6.00132 252.286 7.43672 251.332C8.87212 250.378 10.5528 249.86 12.2763 249.839C13.4549 249.84 14.6199 250.091 15.6942 250.576L72.2936 275.657L109.922 253.899L43.7744 224.742C42.2119 224.055 40.8832 222.928 39.9504 221.499C39.0175 220.069 38.5208 218.399 38.5208 216.693C38.5208 214.986 39.0175 213.316 39.9504 211.887C40.8832 210.458 42.2119 209.331 43.7744 208.643L106.63 180.929L72.3877 161.115L15.6942 186.352C13.5602 187.293 11.1405 187.352 8.96363 186.515C6.78678 185.678 5.02976 184.013 4.07642 181.885C3.60356 180.83 3.34364 179.693 3.31161 178.537C3.27958 177.382 3.47605 176.232 3.88976 175.152C4.30347 174.073 4.92627 173.086 5.72241 172.248C6.51855 171.41 7.47236 170.738 8.52911 170.269L53.5578 150.236L6.3498 122.991C5.34916 122.413 4.47228 121.643 3.76921 120.726C3.06614 119.808 2.55067 118.762 2.25221 117.645C1.95375 116.529 1.87817 115.365 2.02976 114.219C2.18135 113.073 2.55716 111.969 3.13572 110.968C4.30417 108.948 6.22756 107.474 8.48276 106.871C9.59943 106.573 10.7639 106.497 11.9098 106.649C13.0557 106.8 14.1605 107.176 15.1611 107.755L62.3691 135.015L57.0698 86.2476C56.9427 85.1111 57.0421 83.9608 57.3623 82.863C57.6826 81.7652 58.2173 80.7418 58.9355 79.8519C60.4087 78.0687 62.5283 76.9415 64.8307 76.7168C65.1547 76.7168 65.4839 76.7168 65.8184 76.7168C67.9803 76.6787 70.0792 77.4452 71.7075 78.8675C73.3358 80.2899 74.3773 82.2665 74.6297 84.4135L81.2774 145.941L116.382 166.147L108.997 96.4211C108.88 94.692 109.261 92.9657 110.095 91.4462C110.928 89.9268 112.18 88.6776 113.701 87.8465C115.14 87.0538 116.761 86.6487 118.404 86.6708C120.518 86.6532 122.593 87.2465 124.378 88.3795L183.925 130.547V88.7243L132.28 52.247C130.24 50.8164 128.743 48.7397 128.031 46.353C127.707 45.2835 127.628 44.1549 127.799 43.0506C127.97 41.9464 128.387 40.8946 129.018 39.973C129.9 38.8166 131.043 37.8856 132.354 37.2562C133.665 36.6268 135.106 36.3169 136.56 36.3519C138.599 36.3418 140.596 36.9363 142.298 38.0605L183.925 66.9195V12.5092C183.925 7.49297 187.06 3.71513 191.764 3.71513C196.467 3.71513 199.603 7.49297 199.603 12.5092V67.0605L238.627 38.0605C240.037 37.0025 241.74 36.4057 243.503 36.3519C244.813 36.3832 246.096 36.7284 247.244 37.3585C248.393 37.9886 249.374 38.8852 250.104 39.973C251.521 41.8926 252.205 44.2555 252.032 46.6351C251.917 47.7557 251.563 48.8385 250.992 49.8096C250.421 50.7808 249.647 51.6175 248.724 52.2627L199.603 88.7557V128.055L253.051 88.3011C254.265 87.3025 255.764 86.7145 257.333 86.6216C258.903 86.5286 260.461 86.9355 261.784 87.7838C263.262 88.6384 264.461 89.9033 265.234 91.4252C266.008 92.9472 266.324 94.6608 266.143 96.3584L258.303 168.216L296.92 145.925L303.473 84.3351C303.699 82.1708 304.724 80.1685 306.348 78.7192C307.971 77.2699 310.077 76.4777 312.253 76.4973C312.582 76.4973 312.896 76.4973 313.225 76.4973C314.373 76.6009 315.489 76.9323 316.507 77.472C317.525 78.0118 318.426 78.7491 319.156 79.6409C319.886 80.5327 320.43 81.5611 320.758 82.6659C321.086 83.7706 321.19 84.9297 321.065 86.0751L315.812 134.936L363.02 107.692C365.041 106.526 367.443 106.21 369.696 106.814C371.95 107.418 373.871 108.893 375.038 110.913C376.204 112.934 376.52 115.335 375.916 117.588C375.312 119.841 373.837 121.762 371.816 122.929L324.624 150.173L369.59 170.112C370.643 170.578 371.594 171.247 372.388 172.081C373.182 172.915 373.804 173.898 374.216 174.974C374.628 176.049 374.824 177.195 374.791 178.346C374.759 179.497 374.499 180.631 374.027 181.681C373.335 183.244 372.206 184.574 370.777 185.511C369.347 186.449 367.677 186.953 365.968 186.964C364.757 186.967 363.559 186.71 362.456 186.211L305.794 161.036L270.156 181.759L330.989 208.612C332.546 209.304 333.869 210.433 334.797 211.862C335.725 213.291 336.22 214.958 336.22 216.661C336.22 218.365 335.725 220.032 334.797 221.461C333.869 222.89 332.546 224.018 330.989 224.711L266.707 253.005L305.778 275.563L362.409 250.482C363.502 249.986 364.689 249.73 365.889 249.729C367.605 249.742 369.279 250.25 370.712 251.193C372.145 252.136 373.274 253.473 373.964 255.043C374.443 256.089 374.708 257.22 374.744 258.37C374.781 259.52 374.588 260.666 374.176 261.74C373.764 262.814 373.142 263.796 372.347 264.627C371.551 265.458 370.598 266.122 369.542 266.581L324.608 286.457L371.816 313.717C373.496 314.686 374.808 316.182 375.55 317.973C376.291 319.765 376.42 321.751 375.915 323.623C375.411 325.495 374.302 327.148 372.761 328.324C371.22 329.501 369.334 330.136 367.395 330.13V330.13C365.859 330.126 364.351 329.721 363.02 328.954L315.812 301.694L321.033 350.618C321.157 351.765 321.051 352.925 320.723 354.03C320.395 355.136 319.85 356.166 319.121 357.06C318.392 357.953 317.493 358.694 316.475 359.237C315.458 359.781 314.342 360.117 313.194 360.227H312.238C310.067 360.239 307.969 359.443 306.352 357.995C304.735 356.546 303.715 354.548 303.489 352.389L296.998 290.752L258.727 268.618L266.284 336.917C266.514 338.59 266.247 340.292 265.517 341.814C264.787 343.336 263.625 344.61 262.176 345.476C260.904 346.233 259.454 346.639 257.974 346.652C256.151 346.628 254.381 346.036 252.91 344.959L199.603 305.252V348.11L249.1 384.587C250.003 385.235 250.751 386.074 251.293 387.044C251.835 388.014 252.157 389.091 252.236 390.199C252.401 392.585 251.712 394.952 250.292 396.877C249.545 397.978 248.544 398.883 247.373 399.516C246.202 400.149 244.896 400.491 243.566 400.514C241.73 400.496 239.944 399.91 238.454 398.836L199.603 369.805V424.356C199.603 429.372 196.467 433.088 191.764 433.088ZM199.603 283.432L247.626 319.047L240.257 257.755L234.77 254.338L199.603 233.552V283.432ZM146.014 254.385L134.882 259.824L130.273 318.843L183.925 280.908V233.599L146.014 254.385ZM69.1893 216.638L128.877 242.957L171.523 218.331L125.554 191.792L69.1893 216.638ZM136.184 176.947L142.8 181.007L146.281 182.387L183.909 203.047V152.399L130.085 114.385L136.184 176.947Z" fill="#B3B3B3"/>
</g>
</g>
<path d="M374.669 310.222L330.628 284.796L372.239 266.392C374.716 265.176 376.626 263.048 377.568 260.454C378.51 257.861 378.411 255.003 377.292 252.481C376.173 249.959 374.12 247.968 371.564 246.926C369.009 245.884 366.149 245.872 363.585 246.892L307.785 271.628L272.696 251.375L333.592 224.601C335.482 223.766 337.088 222.4 338.216 220.669C339.344 218.938 339.945 216.917 339.945 214.851C339.945 212.785 339.344 210.763 338.216 209.032C337.088 207.301 335.482 205.935 333.592 205.101L276.036 179.737L293.58 169.611L307.691 161.444L363.491 186.227C366.075 187.374 369.009 187.448 371.648 186.433C374.287 185.417 376.414 183.395 377.562 180.811C378.71 178.227 378.784 175.293 377.768 172.655C376.752 170.016 374.729 167.89 372.145 166.742L330.503 148.276L374.544 122.85C376.896 121.39 378.588 119.072 379.261 116.386C379.934 113.701 379.536 110.859 378.151 108.462C376.766 106.065 374.502 104.301 371.839 103.543C369.176 102.785 366.323 103.092 363.883 104.4L319.842 129.826L324.702 84.6016C325.003 81.7891 324.175 78.972 322.399 76.7702C320.623 74.5683 318.045 73.1619 315.232 72.8605C312.419 72.5591 309.602 73.3873 307.399 75.1629C305.197 76.9385 303.79 79.5161 303.489 82.3286L297.045 142.994L282.934 151.161L262.458 162.98L269.874 94.7438C270.098 92.6913 269.721 90.618 268.788 88.7758C267.856 86.9336 266.408 85.4018 264.622 84.3665C263.065 83.3423 261.217 82.8513 259.356 82.9672C257.496 83.0831 255.724 83.7997 254.305 85.0092L204.322 122.631V87.8308L252.236 51.9178C256.939 48.4535 257.19 41.7913 253.725 37.0259C253.02 35.9169 252.091 34.9679 250.996 34.2401C249.902 33.5123 248.668 33.0218 247.372 32.8003C246.077 32.5788 244.749 32.6311 243.475 32.9539C242.201 33.2767 241.009 33.8629 239.975 34.6746L204.307 61.574V10.6595C204.384 9.27385 204.177 7.88712 203.7 6.58405C203.222 5.28099 202.484 4.08897 201.53 3.08087C200.576 2.07277 199.427 1.26978 198.152 0.721002C196.877 0.172222 195.504 -0.110817 194.116 -0.110817C192.728 -0.110817 191.354 0.172222 190.079 0.721002C188.805 1.26978 187.655 2.07277 186.701 3.08087C185.747 4.08897 185.009 5.28099 184.532 6.58405C184.054 7.88712 183.848 9.27385 183.925 10.6595V61.574L145.23 34.6746C142.785 33.017 139.807 32.3387 136.885 32.7742C133.963 33.2098 131.312 34.7274 129.457 37.0259C126.008 41.7286 128.391 48.4535 133.142 51.9178L183.925 87.8308V125.108L127.31 84.9622C125.47 83.7359 123.334 83.0288 121.127 82.9157C118.919 82.8026 116.722 83.2876 114.767 84.3195C112.922 85.3223 111.404 86.8329 110.393 88.6723C109.381 90.5116 108.919 92.6024 109.06 94.6967L116.021 160.817L84.8678 142.884L78.3142 82.2973C78.1472 80.9085 77.708 79.5662 77.0218 78.3471C76.3356 77.1281 75.4157 76.0563 74.3149 75.193C73.2141 74.3297 71.9538 73.6917 70.6062 73.3157C69.2586 72.9397 67.8501 72.833 66.4612 73.0016C65.0803 73.1385 63.7402 73.5475 62.5183 74.2052C61.2964 74.8628 60.217 75.756 59.3423 76.8331C58.4676 77.9102 57.8151 79.1499 57.4223 80.4806C57.0296 81.8113 56.9044 83.2066 57.0541 84.5859L61.9615 129.716L17.9362 104.29C15.5012 103.001 12.6609 102.705 10.0125 103.466C7.36412 104.227 5.11398 105.985 3.73526 108.37C2.35653 110.756 1.95665 113.583 2.61969 116.257C3.28273 118.931 4.95703 121.244 7.29053 122.709L51.3315 148.135L9.62664 166.695C7.11695 167.891 5.17361 170.019 4.21089 172.627C3.24818 175.234 3.34223 178.115 4.47301 180.654C5.60379 183.193 7.68185 185.19 10.2642 186.22C12.8465 187.249 15.7289 187.229 18.2968 186.164L74.1751 161.334L104.435 178.828L44.8562 205.053C42.9662 205.888 41.3595 207.254 40.2317 208.985C39.1038 210.716 38.5033 212.738 38.5033 214.804C38.5033 216.87 39.1038 218.891 40.2317 220.622C41.3595 222.353 42.9662 223.719 44.8562 224.554L107.664 252.237L74.034 271.628L18.3125 247.017C15.7196 245.907 12.7922 245.872 10.1731 246.918C7.55391 247.964 5.45708 250.007 4.34297 252.598C3.7689 253.863 3.45146 255.229 3.40904 256.617C3.36661 258.005 3.60005 259.388 4.09582 260.686C4.59159 261.983 5.33985 263.17 6.2973 264.176C7.25474 265.183 8.40235 265.989 9.67367 266.549L51.2217 284.858L7.18078 310.269C4.82855 311.729 3.13686 314.047 2.46364 316.732C1.79042 319.418 2.18849 322.26 3.57362 324.657C4.95875 327.054 7.22227 328.818 9.88527 329.576C12.5483 330.334 15.4018 330.027 17.8422 328.719L61.8831 303.309L57.1796 348.768C56.9693 351.534 57.8457 354.273 59.6227 356.403C61.3998 358.534 63.9374 359.887 66.6966 360.177C69.4559 360.467 72.2195 359.67 74.4004 357.955C76.5813 356.24 78.0078 353.743 78.3769 350.994L84.758 290.219L115.519 272.459L108.668 334.895C108.441 336.95 108.819 339.026 109.755 340.869C110.691 342.712 112.144 344.242 113.936 345.272C116.038 346.31 118.37 346.797 120.711 346.687C123.053 346.577 125.329 345.875 127.325 344.645L183.925 304.547V345.304L132.781 381.232C128.078 384.681 126.165 391.343 129.646 396.109C133.126 400.874 141.044 401.924 145.794 398.46L183.925 371.655V422.506C183.848 423.892 184.054 425.279 184.532 426.582C185.009 427.885 185.747 429.077 186.701 430.085C187.655 431.093 188.805 431.896 190.079 432.445C191.354 432.994 192.728 433.277 194.116 433.277C195.504 433.277 196.877 432.994 198.152 432.445C199.427 431.896 200.576 431.093 201.53 430.085C202.484 429.077 203.222 427.885 203.7 426.582C204.177 425.279 204.384 423.892 204.307 422.506V371.655L239.74 398.476C240.805 399.29 242.026 399.878 243.327 400.202C244.629 400.525 245.983 400.579 247.305 400.358C248.628 400.138 249.891 399.648 251.017 398.92C252.143 398.192 253.108 397.24 253.851 396.124C257.3 391.422 257.363 384.697 252.612 381.248L204.307 345.304V307.102L254.29 344.645C255.833 345.866 257.714 346.581 259.678 346.693C261.642 346.805 263.593 346.309 265.265 345.272C267.016 344.218 268.418 342.672 269.296 340.827C270.175 338.982 270.49 336.919 270.203 334.895L263.007 270.264L297.265 290.078L303.661 350.775C304.025 353.526 305.448 356.027 307.63 357.745C309.811 359.462 312.576 360.259 315.337 359.967C318.098 359.674 320.635 358.315 322.408 356.179C324.181 354.043 325.049 351.3 324.827 348.533L319.998 303.246L364.039 328.672C365.251 329.371 366.589 329.824 367.975 330.006C369.362 330.188 370.772 330.095 372.123 329.733C373.474 329.371 374.74 328.746 375.85 327.894C376.959 327.042 377.89 325.98 378.589 324.769C379.288 323.557 379.741 322.22 379.924 320.833C380.106 319.447 380.013 318.038 379.65 316.687C379.288 315.336 378.663 314.07 377.811 312.96C376.959 311.851 375.897 310.92 374.685 310.222H374.669ZM249.868 238.113L212.24 216.418L247.673 196.04L253.114 192.905L302.83 214.851L249.868 238.113ZM239.568 176.069L237.059 177.511L236.071 178.844L204.307 197.952V148.903L247.376 116.439L239.568 176.069ZM134.224 116.439L183.925 151.505V198.062L148.867 178.859L145.732 177.527L140.087 174.016L134.224 116.439ZM75.6331 214.835L127.294 192.058L134.145 196.009L169.673 216.512L130.618 239.038L75.6331 214.835ZM138.347 259.213L148.805 254.197L183.925 234.9V278.102L134.208 313.184L138.347 259.213ZM204.307 280.704V234.963L236.165 254.103L240.618 257.065L247.705 313.184L204.307 280.704Z" fill="white"/>
<path d="M372.819 312.071L328.778 286.645L370.373 268.242C372.96 267.097 374.985 264.971 376.004 262.333C377.023 259.694 376.952 256.759 375.806 254.173C374.66 251.587 372.534 249.562 369.895 248.544C367.256 247.525 364.321 247.596 361.735 248.742L305.966 273.493L270.878 253.225L331.726 226.404C333.621 225.574 335.234 224.21 336.367 222.478C337.499 220.747 338.102 218.722 338.102 216.653C338.102 214.585 337.499 212.56 336.367 210.829C335.234 209.097 333.621 207.733 331.726 206.903L274.17 181.54L291.714 171.414L305.825 163.246L361.609 188.03C364.193 189.177 367.128 189.251 369.767 188.236C372.406 187.22 374.533 185.198 375.681 182.614C376.828 180.03 376.902 177.096 375.886 174.458C374.871 171.819 372.848 169.692 370.264 168.545L328.622 150.079L372.662 124.653C375.11 123.242 376.896 120.916 377.628 118.188C378.36 115.46 377.978 112.553 376.566 110.106C375.155 107.659 372.829 105.874 370.1 105.142C367.372 104.41 364.464 104.791 362.017 106.203L317.976 131.629L322.836 86.4043C323.138 83.5918 322.309 80.7748 320.533 78.5729C318.757 76.371 316.179 74.9647 313.366 74.6632C310.553 74.3618 307.736 75.19 305.534 76.9656C303.331 78.7413 301.925 81.3188 301.623 84.1313L295.242 144.796L281.131 152.963L260.655 164.783L268.071 96.5622C268.295 94.5078 267.917 92.4327 266.981 90.5899C266.046 88.7472 264.594 87.2166 262.803 86.1849C261.132 85.146 259.181 84.6486 257.216 84.7609C255.252 84.8731 253.37 85.5894 251.828 86.8119L201.202 124.434V89.6805L249.774 53.7362C250.875 52.8816 251.795 51.8174 252.482 50.6053C253.169 49.3931 253.609 48.0569 253.777 46.6738C253.944 45.2907 253.836 43.8881 253.459 42.547C253.081 41.2058 252.442 39.9527 251.577 38.86C250.827 37.7307 249.851 36.7678 248.713 36.0311C247.574 35.2945 246.296 34.7998 244.958 34.5778C243.62 34.3558 242.251 34.4113 240.935 34.7407C239.619 35.0702 238.385 35.6666 237.31 36.493L201.171 63.3611V12.5092C201.248 11.1236 201.041 9.73685 200.564 8.43379C200.086 7.13072 199.348 5.9387 198.394 4.9306C197.441 3.9225 196.291 3.11951 195.016 2.57073C193.741 2.02195 192.368 1.73891 190.98 1.73891C189.592 1.73891 188.219 2.02195 186.944 2.57073C185.669 3.11951 184.519 3.9225 183.565 4.9306C182.612 5.9387 181.873 7.13072 181.396 8.43379C180.919 9.73685 180.712 11.1236 180.789 12.5092V63.3611L142.737 36.493C140.351 34.8317 137.417 34.151 134.542 34.5915C131.668 35.0321 129.073 36.5602 127.294 38.86C123.829 43.5627 125.726 50.2719 130.43 53.7362L180.789 89.6805V126.957L124.817 86.8119C123.04 85.5905 120.96 84.8853 118.806 84.7746C116.653 84.6639 114.511 85.1521 112.619 86.1849C110.795 87.198 109.302 88.7162 108.32 90.5571C107.338 92.398 106.909 94.4832 107.084 96.5622L114.124 162.666L83.0021 144.734L76.4641 84.147C76.299 82.7603 75.8621 81.4198 75.1785 80.202C74.4949 78.9842 73.5779 77.9131 72.48 77.0498C71.3822 76.1865 70.1249 75.548 68.7801 75.1708C67.4353 74.7936 66.0293 74.685 64.6425 74.8513C63.2616 74.9882 61.9215 75.3973 60.6996 76.0549C59.4777 76.7125 58.3983 77.6057 57.5236 78.6828C56.6489 79.7599 55.9964 80.9996 55.6036 82.3303C55.2109 83.661 55.0857 85.0563 55.2354 86.4357L60.1428 131.582L16.1646 106.156C13.7242 104.848 10.8707 104.54 8.20766 105.298C5.54466 106.057 3.28114 107.821 1.89601 110.218C0.510876 112.615 0.112807 115.457 0.786028 118.142C1.45925 120.827 3.15094 123.146 5.50317 124.606L49.5441 150.016L7.77656 168.576C5.26687 169.772 3.32353 171.9 2.36082 174.508C1.3981 177.115 1.49215 179.996 2.62293 182.535C3.75372 185.074 5.83177 187.071 8.41412 188.101C10.9965 189.13 13.8788 189.11 16.4468 188.045L72.2779 163.184L102.569 180.709L42.9905 206.95C41.0994 207.782 39.4914 209.146 38.3624 210.876C37.2333 212.606 36.6322 214.627 36.6322 216.693C36.6322 218.758 37.2333 220.779 38.3624 222.509C39.4914 224.239 41.0994 225.603 42.9905 226.435L105.799 254.118L72.1055 273.572L16.4468 248.867C15.163 248.318 13.7838 248.028 12.3877 248.012C10.9917 247.996 9.60622 248.256 8.31045 248.775C7.01468 249.295 5.83398 250.065 4.8358 251.041C3.83761 252.017 3.04149 253.18 2.4929 254.463C1.91696 255.727 1.59806 257.092 1.55476 258.48C1.51146 259.867 1.74463 261.25 2.24068 262.547C2.73674 263.843 3.4858 265.029 4.44425 266.033C5.40271 267.038 6.55144 267.842 7.82359 268.399L49.3716 286.708L5.3307 312.134C2.8836 313.545 1.09754 315.871 0.365405 318.599C-0.366727 321.327 0.0150508 324.234 1.42676 326.681C2.83847 329.128 5.16447 330.913 7.89306 331.645C10.6216 332.377 13.5293 331.996 15.9764 330.584L60.0644 305.158L55.3608 350.539C55.1506 353.305 56.027 356.044 57.804 358.175C59.581 360.305 62.1186 361.659 64.8779 361.948C67.6372 362.238 70.4007 361.441 72.5817 359.726C74.7626 358.012 76.1891 355.515 76.5582 352.765L82.8296 292.006L113.591 274.246L106.786 336.776C106.566 338.83 106.947 340.904 107.882 342.746C108.817 344.588 110.266 346.119 112.054 347.153C114.049 348.184 116.28 348.667 118.522 348.554C120.764 348.441 122.936 347.736 124.817 346.511L180.789 306.35V347.106L130.288 383.019C129.121 383.817 128.123 384.836 127.35 386.019C126.578 387.202 126.046 388.526 125.785 389.915C125.525 391.304 125.54 392.731 125.831 394.113C126.123 395.496 126.683 396.808 127.482 397.974C129.312 400.278 131.948 401.803 134.858 402.239C137.768 402.675 140.735 401.992 143.16 400.325L180.789 373.52V424.372C180.712 425.757 180.919 427.144 181.396 428.447C181.873 429.75 182.612 430.942 183.565 431.95C184.519 432.959 185.669 433.762 186.944 434.31C188.219 434.859 189.592 435.142 190.98 435.142C192.368 435.142 193.741 434.859 195.016 434.31C196.291 433.762 197.441 432.959 198.394 431.95C199.348 430.942 200.086 429.75 200.564 428.447C201.041 427.144 201.248 425.757 201.171 424.372V373.52L237.232 400.341C238.325 401.164 239.573 401.757 240.901 402.085C242.23 402.412 243.611 402.468 244.961 402.249C246.311 402.029 247.604 401.538 248.759 400.806C249.915 400.074 250.911 399.116 251.687 397.99C255.152 393.287 254.729 386.578 249.962 383.113L201.171 347.185V308.952L251.797 346.495C253.4 347.716 255.331 348.43 257.343 348.544C259.354 348.659 261.354 348.169 263.085 347.138C264.853 346.092 266.276 344.552 267.181 342.709C268.086 340.866 268.434 338.798 268.181 336.76L261.063 272.114L295.352 292.006L301.764 352.718C302.064 355.527 303.467 358.101 305.664 359.875C307.862 361.649 310.675 362.478 313.484 362.179C316.293 361.879 318.868 360.477 320.642 358.279C322.417 356.082 323.245 353.269 322.946 350.461L318.117 305.174L362.158 330.6C364.598 331.908 367.452 332.215 370.115 331.457C372.778 330.699 375.041 328.935 376.426 326.538C377.812 324.141 378.21 321.299 377.536 318.613C376.863 315.928 375.172 313.61 372.819 312.15V312.071ZM248.003 239.963L210.421 218.331L245.855 197.952L251.311 194.817L301.027 216.763L248.003 239.963ZM237.718 177.919L235.209 179.377L233.641 180.709L201.171 199.865V150.753L244.883 118.273L237.718 177.919ZM131.715 118.273L180.789 153.355V199.928L146.375 180.709L143.505 179.377L137.704 175.865L131.715 118.273ZM73.7047 216.653L125.444 193.877L132.28 197.827L167.823 218.331L128.752 240.888L73.7047 216.653ZM136.419 261.031L146.296 255.952L180.789 236.687V279.889L131.715 315.05L136.419 261.031ZM201.171 282.601V236.812L233.673 255.952L238.376 258.899L245.071 315.05L201.171 282.601Z" fill="url(#paint0_linear)"/>
</g>
<defs>
<linearGradient id="paint0_linear" x1="-21.605" y1="366.717" x2="389.107" y2="77.4307" gradientUnits="userSpaceOnUse">
<stop stop-color="#C1CDD7"/>
<stop offset="0.64" stop-color="#E9F0F3"/>
<stop offset="1" stop-color="#FAFFFF"/>
</linearGradient>
<clipPath id="clip0">
<rect width="380" height="435" fill="white"/>
</clipPath>
</defs>
</svg>
