<svg width="300" height="245" viewBox="0 0 300 245" fill="none" xmlns="http://www.w3.org/2000/svg">
<g clip-path="url(#clip0)">
<path d="M298.55 140.785C298.55 120.915 280.55 104.605 258.04 103.505C252.553 97.314 245.211 93.0627 237.11 91.3853C234.494 86.3881 230.75 82.0692 226.175 78.7711C221.599 75.4731 216.318 73.2866 210.75 72.3853L208.09 70.2553L211 43.0853C211.245 40.8306 210.981 38.5498 210.228 36.4105C209.475 34.2713 208.252 32.3281 206.649 30.724C205.046 29.1199 203.103 27.8956 200.964 27.1413C198.825 26.387 196.545 26.1218 194.29 26.3653L167.14 29.3653L150.07 8.03528C148.648 6.26805 146.848 4.84209 144.803 3.86236C142.757 2.88262 140.518 2.37404 138.25 2.37404C135.982 2.37404 133.743 2.88262 131.697 3.86236C129.652 4.84209 127.852 6.26805 126.43 8.03528L109.32 29.3253L82.18 26.3253C79.9211 26.081 77.6362 26.347 75.4937 27.1035C73.3513 27.86 71.406 29.0877 69.8014 30.6963C68.1967 32.3048 66.9736 34.253 66.2222 36.3972C65.4708 38.5414 65.2103 40.827 65.46 43.0853L68.46 70.2253L48.11 86.5853L47.19 87.2953L46.46 87.8953C44.6965 89.3161 43.2738 91.114 42.2963 93.1569C41.3188 95.1997 40.8114 97.4356 40.8114 99.7003C40.8114 101.965 41.3188 104.201 42.2963 106.244C43.2738 108.287 44.6965 110.084 46.46 111.505L68.3 129.145L65.46 155.225C65.46 155.425 65.46 155.625 65.46 155.825L65.39 156.385C65.1419 158.64 65.403 160.922 66.1541 163.063C66.9052 165.203 68.1271 167.148 69.7297 168.753C71.3323 170.359 73.2749 171.584 75.4141 172.339C77.5533 173.094 79.8346 173.359 82.09 173.115L108.85 170.225L126.51 191.915C127.932 193.662 129.725 195.07 131.759 196.037C133.793 197.004 136.018 197.506 138.27 197.505C140.52 197.497 142.739 196.988 144.768 196.016C146.797 195.044 148.584 193.633 150 191.885L151.89 189.545C157.725 193.627 164.669 195.826 171.79 195.845C173.385 195.849 174.979 195.742 176.56 195.525C184.981 200.814 194.746 203.567 204.69 203.455C217.84 203.455 229.97 198.855 238.36 191.235C245.542 192.833 253.044 192.141 259.813 189.257C266.582 186.373 272.277 181.442 276.1 175.155C289.74 168.725 298.51 156.155 298.51 142.315C298.51 142.105 298.51 141.905 298.51 141.695C298.51 141.485 298.55 141.095 298.55 140.785Z" fill="white"/>
<path d="M300 139.335C300 119.455 282 103.155 259.49 102.045C254.008 95.8525 246.669 91.6006 238.57 89.9253C235.95 84.9276 232.202 80.6087 227.623 77.3108C223.044 74.013 217.76 71.8267 212.19 70.9253L209.54 68.7953L212.54 41.6553C212.787 39.4002 212.524 37.1186 211.772 34.9784C211.02 32.8383 209.796 30.8943 208.193 29.2898C206.589 27.6852 204.646 26.461 202.506 25.7074C200.367 24.9537 198.085 24.6899 195.83 24.9353L168.68 27.9353L151.53 6.58528C150.109 4.81641 148.31 3.38894 146.264 2.4081C144.218 1.42726 141.979 0.918076 139.71 0.918076C137.441 0.918076 135.201 1.42726 133.156 2.4081C131.11 3.38894 129.311 4.81641 127.89 6.58528L110.77 27.8653L83.64 24.8653C81.3789 24.615 79.0906 24.877 76.9447 25.6321C74.7988 26.3871 72.8504 27.6157 71.2443 29.2266C69.6381 30.8376 68.4154 32.7896 67.6668 34.9377C66.9182 37.0858 66.6629 39.375 66.92 41.6353L69.92 68.7753L49.56 85.0953L48.65 85.8153L47.92 86.4053C46.1565 87.8261 44.7338 89.624 43.7563 91.6669C42.7788 93.7097 42.2714 95.9456 42.2714 98.2103C42.2714 100.475 42.7788 102.711 43.7563 104.754C44.7338 106.797 46.1565 108.594 47.92 110.015L69.8 127.695L66.96 153.765C66.96 153.975 66.96 154.165 66.96 154.365L66.89 154.935C66.6454 157.189 66.9091 159.469 67.6615 161.607C68.414 163.746 69.6362 165.688 71.2382 167.292C72.8402 168.896 74.7814 170.121 76.9189 170.876C79.0564 171.631 81.336 171.897 83.59 171.655L110.36 168.775L128 190.455C129.419 192.203 131.21 193.612 133.243 194.579C135.276 195.546 137.499 196.047 139.75 196.045C142.004 196.044 144.229 195.54 146.264 194.569C148.298 193.599 150.091 192.186 151.51 190.435L153.41 188.085C159.248 192.17 166.195 194.372 173.32 194.395C174.916 194.396 176.509 194.285 178.09 194.065C186.507 199.356 196.269 202.112 206.21 202.005C219.37 202.005 231.49 197.395 239.88 189.775C242.388 190.338 244.95 190.619 247.52 190.615C253.565 190.6 259.504 189.037 264.774 186.075C270.043 183.113 274.465 178.851 277.62 173.695C291.27 167.265 300.03 154.695 300.03 140.855C300.03 140.645 300.03 140.445 300.03 140.245C300.03 140.045 300 139.635 300 139.335Z" fill="url(#paint0_linear)"/>
<path d="M139.7 49.6853C129.969 49.6853 120.457 52.5708 112.366 57.977C104.275 63.3831 97.9689 71.0671 94.2451 80.0573C90.5213 89.0474 89.547 98.9398 91.4454 108.484C93.3437 118.028 98.0296 126.794 104.91 133.675C111.791 140.556 120.558 145.242 130.102 147.14C139.645 149.038 149.538 148.064 158.528 144.34C167.518 140.616 175.202 134.31 180.608 126.219C186.014 118.128 188.9 108.616 188.9 98.8853C188.901 92.4239 187.63 86.0255 185.158 80.0557C182.685 74.0859 179.061 68.6616 174.493 64.0927C169.924 59.5238 164.499 55.8998 158.53 53.4277C152.56 50.9557 146.161 49.684 139.7 49.6853Z" fill="#E69100"/>
<path d="M193.57 121.205L222.07 98.2953L221.32 97.7053L193.32 75.6453L196.78 40.6453L161.93 44.2853L139.75 17.2853L117.75 44.2853L82.55 40.4453L86.21 75.6553L58.26 97.6553L57.52 98.2453L85.95 121.245L82 155.375L81.9 156.585L116.84 152.815L139.7 180.885L162.5 152.745L197.42 156.585L193.57 121.205ZM162 151.455C155 153.695 147.39 155.715 139.68 155.715C131.97 155.715 124.53 153.525 117.55 151.295C111.04 147.945 104.97 144.525 99.55 139.065C94.2508 133.751 89.811 127.645 86.39 120.965C81.7502 106.611 81.7502 91.1597 86.39 76.8053C93.2684 63.3776 104.198 52.4551 117.63 45.5853C131.987 40.9597 147.433 40.9597 161.79 45.5853C175.226 52.4749 186.16 63.409 193.05 76.8453C197.69 91.2065 197.69 106.664 193.05 121.025C189.629 127.704 185.185 133.808 179.88 139.115C174.43 144.525 168.55 148.105 162 151.455Z" fill="#E69100"/>
<path d="M188.9 97.7053C188.9 107.436 186.014 116.948 180.608 125.039C175.202 133.13 167.518 139.436 158.528 143.16C149.538 146.884 139.645 147.858 130.102 145.96C120.558 144.062 111.791 139.376 104.91 132.495C98.0296 125.614 93.3437 116.848 91.4454 107.304C89.547 97.7599 90.5213 87.8674 94.2451 78.8773C97.9689 69.8871 104.275 62.2031 112.366 56.797C120.457 51.3908 129.969 48.5053 139.7 48.5053C146.161 48.504 152.56 49.7757 158.53 52.2477C164.499 54.7198 169.924 58.3438 174.493 62.9127C179.061 67.4816 182.685 72.9059 185.158 78.8757C187.63 84.8455 188.901 91.2439 188.9 97.7053Z" fill="#FFBB00"/>
<path d="M193.57 120.015L221.32 97.7053L193.57 75.3853L197.42 39.9953L162 43.8453L139.7 16.0853L117.39 43.8453L82 39.9953L85.86 75.3853L58.09 97.7053L85.85 120.015L82 155.405L117.4 151.555L139.71 179.315L162 151.585L197.4 155.445L193.57 120.015ZM161.79 151.015C147.433 155.641 131.987 155.641 117.63 151.015C104.177 144.146 93.2339 133.206 86.36 119.755C81.72 105.394 81.72 89.9365 86.36 75.5753C93.2339 62.1242 104.177 51.1849 117.63 44.3153C131.981 39.6756 147.429 39.6756 161.78 44.3153C175.226 51.2003 186.165 62.1398 193.05 75.5853C197.69 89.9499 197.69 105.411 193.05 119.775C186.166 133.216 175.23 144.151 161.79 151.035V151.015Z" fill="#FFBB00"/>
<g style="mix-blend-mode:screen" opacity="0.2">
<path d="M139.7 97.6753C156.114 97.6567 172.517 98.5581 188.83 100.375C188.83 99.4853 188.9 98.5953 188.9 97.7053C188.993 91.1859 187.789 84.713 185.359 78.6629C182.928 72.6128 179.319 67.1062 174.742 62.4631C170.164 57.82 164.71 54.133 158.695 51.6164C152.68 49.0998 146.225 47.8039 139.705 47.8039C133.185 47.8039 126.73 49.0998 120.715 51.6164C114.7 54.133 109.246 57.82 104.668 62.4631C100.091 67.1062 96.482 72.6128 94.0514 78.6629C91.6208 84.713 90.4171 91.1859 90.51 97.7053C90.51 98.5953 90.51 99.4853 90.58 100.375C106.89 98.5592 123.289 97.6578 139.7 97.6753Z" fill="#FFBB00"/>
</g>
<g style="mix-blend-mode:screen" opacity="0.2">
<path d="M65.9 103.985C71.4067 102.972 77.1167 102.075 83.03 101.295C82.97 100.095 82.88 98.9153 82.88 97.7053C82.8849 90.196 84.0589 82.7333 86.36 75.5853C93.2339 62.1342 104.177 51.1949 117.63 44.3253C131.981 39.6856 147.429 39.6856 161.78 44.3253C175.224 51.2077 186.163 62.1435 193.05 75.5853C195.348 82.7271 196.522 90.1828 196.53 97.6853C196.53 98.8953 196.45 100.075 196.39 101.275C202.29 102.055 207.993 102.952 213.5 103.965L221.32 97.6853L193.57 75.3853L197.42 39.9953L162 43.8453L139.7 16.0853L117.39 43.8453L82 39.9953L85.86 75.3853L58.09 97.7053L65.9 103.985Z" fill="#FFBB00"/>
</g>
<path d="M257.06 118.685C255.259 118.684 253.46 118.821 251.68 119.095C249.82 115.101 246.852 111.726 243.13 109.37C239.407 107.014 235.086 105.777 230.68 105.805C229.656 105.813 228.634 105.886 227.62 106.025C226.1 95.3753 217.5 87.2053 207.1 87.2053C197.23 87.2053 188.99 94.5553 186.87 104.395C185.169 103.91 183.409 103.661 181.64 103.655C170.85 103.655 161.98 112.435 160.96 123.655C157.898 121.803 154.389 120.821 150.81 120.815C139.33 120.815 130.03 130.745 130.03 142.995C130.03 155.245 139.33 165.165 150.81 165.165C151.839 165.156 152.865 165.066 153.88 164.895C156.88 173.265 164.4 179.215 173.29 179.215C176.133 179.215 178.942 178.594 181.52 177.395C186.97 183.095 195.98 186.825 206.18 186.825C219.83 186.825 231.35 180.165 235.07 171.015C238.585 173.862 242.967 175.425 247.49 175.445C256.19 175.445 263.62 169.735 266.72 161.645C277.29 158.505 284.84 150.375 284.84 140.845C284.84 128.585 272.39 118.685 257.06 118.685Z" fill="#A3BAD4"/>
<path d="M257.06 117.155C255.258 117.155 253.459 117.299 251.68 117.585C249.822 113.59 246.854 110.212 243.131 107.854C239.409 105.496 235.087 104.257 230.68 104.285C229.656 104.293 228.634 104.366 227.62 104.505C226.1 93.8553 217.5 85.6853 207.1 85.6853C197.23 85.6853 188.99 93.0353 186.87 102.875C185.168 102.395 183.409 102.146 181.64 102.135C170.85 102.135 161.98 110.915 160.96 122.135C157.898 120.283 154.389 119.302 150.81 119.295C139.33 119.295 130.03 129.225 130.03 141.475C130.03 153.725 139.33 163.645 150.81 163.645C151.839 163.636 152.865 163.546 153.88 163.375C156.88 171.745 164.4 177.695 173.29 177.695C176.133 177.695 178.942 177.074 181.52 175.875C186.97 181.575 195.98 185.305 206.18 185.305C219.83 185.305 231.35 178.635 235.07 169.495C238.587 172.338 242.968 173.897 247.49 173.915C256.19 173.915 263.62 168.215 266.72 160.125C277.29 156.985 284.84 148.865 284.84 139.325C284.84 127.085 272.39 117.155 257.06 117.155Z" fill="#B8D9FF"/>
<g style="mix-blend-mode:screen" opacity="0.2">
<path d="M207.44 135.345C236.21 135.345 262.74 138.835 284.01 144.715C284.555 142.974 284.834 141.16 284.84 139.335C284.84 127.085 272.39 117.155 257.06 117.155C255.258 117.155 253.459 117.299 251.68 117.585C249.822 113.59 246.854 110.212 243.131 107.854C239.409 105.496 235.087 104.257 230.68 104.285C229.656 104.293 228.634 104.366 227.62 104.505C226.1 93.8553 217.5 85.6853 207.1 85.6853C197.23 85.6853 188.99 93.0353 186.87 102.875C185.168 102.395 183.409 102.146 181.64 102.135C170.85 102.135 161.98 110.915 160.96 122.135C157.898 120.283 154.389 119.302 150.81 119.295C139.33 119.295 130.03 129.225 130.03 141.475C130.037 142.611 130.131 143.744 130.31 144.865C151.66 138.895 178.4 135.345 207.44 135.345Z" fill="#B8D9FF"/>
</g>
<path style="mix-blend-mode:multiply" d="M300 139.335C300 119.455 282 103.155 259.49 102.045C254.008 95.8525 246.669 91.6006 238.57 89.9253C235.95 84.9276 232.202 80.6087 227.623 77.3108C223.044 74.013 217.76 71.8267 212.19 70.9253L209.54 68.7953L212.54 41.6553C212.787 39.4002 212.524 37.1186 211.772 34.9784C211.02 32.8383 209.796 30.8943 208.193 29.2898C206.589 27.6852 204.646 26.461 202.506 25.7074C200.367 24.9537 198.085 24.6899 195.83 24.9353L168.68 27.9353L151.53 6.58528C150.109 4.81641 148.31 3.38894 146.264 2.4081C144.218 1.42726 141.979 0.918076 139.71 0.918076C137.441 0.918076 135.201 1.42726 133.156 2.4081C131.11 3.38894 129.311 4.81641 127.89 6.58528L110.77 27.8653L83.64 24.8653C81.3789 24.615 79.0906 24.877 76.9447 25.6321C74.7988 26.3871 72.8504 27.6157 71.2443 29.2266C69.6381 30.8376 68.4154 32.7896 67.6668 34.9377C66.9182 37.0858 66.6629 39.375 66.92 41.6353L69.92 68.7753L49.56 85.0953L48.65 85.8153L47.92 86.4053C46.1565 87.8261 44.7338 89.624 43.7563 91.6669C42.7788 93.7097 42.2714 95.9456 42.2714 98.2103C42.2714 100.475 42.7788 102.711 43.7563 104.754C44.7338 106.797 46.1565 108.594 47.92 110.015L69.8 127.695L66.96 153.765C66.96 153.975 66.96 154.165 66.96 154.365L66.89 154.935C66.6454 157.189 66.9091 159.469 67.6615 161.607C68.414 163.746 69.6362 165.688 71.2382 167.292C72.8402 168.896 74.7814 170.121 76.9189 170.876C79.0564 171.631 81.336 171.897 83.59 171.655L110.36 168.775L128 190.455C129.419 192.203 131.21 193.612 133.243 194.579C135.276 195.546 137.499 196.047 139.75 196.045C142.004 196.044 144.229 195.54 146.264 194.569C148.298 193.599 150.091 192.186 151.51 190.435L153.41 188.085C159.248 192.17 166.195 194.372 173.32 194.395C174.916 194.396 176.509 194.285 178.09 194.065C186.507 199.356 196.269 202.112 206.21 202.005C219.37 202.005 231.49 197.395 239.88 189.775C242.388 190.338 244.95 190.619 247.52 190.615C253.565 190.6 259.504 189.037 264.774 186.075C270.043 183.113 274.465 178.851 277.62 173.695C291.27 167.265 300.03 154.695 300.03 140.855C300.03 140.645 300.03 140.445 300.03 140.245C300.03 140.045 300 139.635 300 139.335Z" fill="url(#paint1_linear)"/>
</g>
<defs>
<linearGradient id="paint0_linear" x1="87.31" y1="190.395" x2="262.27" y2="15.4353" gradientUnits="userSpaceOnUse">
<stop stop-color="#E6E6E6"/>
<stop offset="1" stop-color="#FAFAFA"/>
</linearGradient>
<linearGradient id="paint1_linear" x1="86.82" y1="190.885" x2="228.45" y2="49.2553" gradientUnits="userSpaceOnUse">
<stop offset="0.39" stop-color="white"/>
<stop offset="0.5" stop-color="#FCFCFC"/>
<stop offset="0.58" stop-color="#F3F3F3"/>
<stop offset="0.65" stop-color="#E3E3E3"/>
<stop offset="0.71" stop-color="#CECECE"/>
<stop offset="0.72" stop-color="#C9C9C9"/>
<stop offset="0.76" stop-color="#C9C9C9"/>
<stop offset="0.99" stop-color="#C9C9C9"/>
</linearGradient>
<clipPath id="clip0">
<rect width="300" height="243.34" fill="white" transform="translate(0 0.915283)"/>
</clipPath>
</defs>
</svg>
