<svg width="300" height="245" viewBox="0 0 300 245" fill="none" xmlns="http://www.w3.org/2000/svg">
<g clip-path="url(#clip0)">
<g style="mix-blend-mode:multiply">
<g style="mix-blend-mode:multiply" opacity="0.05">
<path d="M260 179.365C260 159.485 242 143.185 219.49 142.075C214.005 135.886 206.667 131.635 198.57 129.955C195.949 124.959 192.2 120.64 187.622 117.343C183.043 114.045 177.76 111.858 172.19 110.955L169.54 108.815L172.49 81.6753C172.733 79.4201 172.468 77.1391 171.714 74.9999C170.959 72.8607 169.735 70.9178 168.131 69.3139C166.527 67.71 164.585 66.4859 162.445 65.7317C160.306 64.9774 158.025 64.7121 155.77 64.9553L128.63 67.9553L111.5 46.5853C110.079 44.8164 108.28 43.3889 106.234 42.4081C104.188 41.4273 101.949 40.9181 99.68 40.9181C97.4113 40.9181 95.1715 41.4273 93.1258 42.4081C91.0801 43.3889 89.2806 44.8164 87.86 46.5853L70.74 67.8953L43.61 64.8953C41.3544 64.6502 39.0726 64.9142 36.9325 65.6677C34.7925 66.4213 32.8487 67.6454 31.2444 69.2497C29.6401 70.854 28.416 72.7978 27.6624 74.9378C26.9088 77.0779 26.6449 79.3597 26.89 81.6153L29.84 108.755L9.53998 125.125L8.62998 125.845L7.88998 126.435C6.12487 127.855 4.70061 129.653 3.72203 131.696C2.74346 133.739 2.23547 135.975 2.23547 138.24C2.23547 140.506 2.74346 142.742 3.72203 144.785C4.70061 146.828 6.12487 148.626 7.88998 150.045L29.76 167.725L26.92 193.795C26.92 193.995 26.92 194.195 26.92 194.395L26.86 194.955C26.6154 197.204 26.8768 199.479 27.6252 201.614C28.3736 203.749 29.59 205.69 31.1853 207.293C32.7806 208.897 34.7145 210.124 36.8452 210.884C38.976 211.644 41.2497 211.918 43.5 211.685L70.26 208.795L87.92 230.485C89.3418 232.232 91.135 233.64 93.1693 234.607C95.2035 235.574 97.4276 236.076 99.68 236.075C101.938 236.074 104.167 235.568 106.205 234.596C108.243 233.624 110.038 232.209 111.46 230.455L113.35 228.115C119.185 232.199 126.128 234.4 133.25 234.425C134.846 234.426 136.44 234.316 138.02 234.095C146.441 239.384 156.206 242.137 166.15 242.025C179.31 242.025 191.43 237.425 199.82 229.805C202.324 230.367 204.883 230.649 207.45 230.645C213.496 230.629 219.437 229.066 224.707 226.104C229.978 223.142 234.402 218.881 237.56 213.725C251.19 207.295 259.97 194.725 259.97 180.885C259.97 180.675 259.97 180.475 259.97 180.265C259.97 180.055 260 179.665 260 179.365Z" fill="#FBFCFC"/>
</g>
<g style="mix-blend-mode:multiply" opacity="0.11">
<path d="M262.2 177.135C262.2 157.255 244.2 140.955 221.69 139.855C216.208 133.663 208.869 129.411 200.77 127.735C198.152 122.736 194.404 118.416 189.825 115.118C185.246 111.82 179.961 109.634 174.39 108.735L171.74 106.585L174.69 79.4453C174.936 77.1917 174.674 74.9117 173.922 72.7728C173.171 70.6339 171.95 68.6906 170.349 67.0857C168.748 65.4808 166.808 64.2551 164.671 63.4988C162.534 62.7425 160.254 62.4748 158 62.7153L130.86 65.7153L113.72 44.3853C112.299 42.6164 110.5 41.1889 108.454 40.2081C106.408 39.2273 104.169 38.7181 101.9 38.7181C99.6313 38.7181 97.3915 39.2273 95.3458 40.2081C93.3001 41.1889 91.5006 42.6164 90.08 44.3853L73 65.6753L45.86 62.6753C43.6048 62.4299 41.3233 62.6937 39.1836 63.4474C37.044 64.201 35.1007 65.4252 33.4971 67.0298C31.8935 68.6343 30.6705 70.5783 29.9181 72.7184C29.1657 74.8586 28.9033 77.1402 29.15 79.3953L32.07 106.585L11.76 122.895L10.85 123.615L10.11 124.205C8.34799 125.628 6.92669 127.427 5.95028 129.471C4.97388 131.514 4.4671 133.75 4.4671 136.015C4.4671 138.28 4.97388 140.516 5.95028 142.56C6.92669 144.603 8.34799 146.402 10.11 147.825L32 165.495L29.12 191.585C29.12 191.785 29.12 191.985 29.12 192.175L29.06 192.745C28.8138 195 29.0763 197.281 29.828 199.42C30.5798 201.56 31.8017 203.504 33.4039 205.109C35.0061 206.714 36.9478 207.94 39.0862 208.695C41.2245 209.451 43.5051 209.717 45.76 209.475L72.48 206.585L90.14 228.285C91.5618 230.032 93.355 231.44 95.3893 232.407C97.4235 233.374 99.6476 233.876 101.9 233.875C104.156 233.871 106.383 233.365 108.419 232.393C110.455 231.421 112.249 230.007 113.67 228.255L115.56 225.915C121.396 229.994 128.34 232.193 135.46 232.215C137.055 232.215 138.649 232.108 140.23 231.895C148.651 237.184 158.416 239.937 168.36 239.825C181.52 239.825 193.64 235.215 202.03 227.595C204.534 228.16 207.093 228.445 209.66 228.445C215.707 228.429 221.649 226.865 226.919 223.901C232.19 220.937 236.614 216.673 239.77 211.515C253.41 205.095 262.18 192.565 262.18 178.675C262.18 178.475 262.18 178.265 262.18 178.065C262.18 177.865 262.2 177.445 262.2 177.135Z" fill="#F8F8F8"/>
</g>
<g style="mix-blend-mode:multiply" opacity="0.16">
<path d="M264.42 174.915C264.42 155.035 246.42 138.735 223.92 137.635C218.438 131.441 211.1 127.185 203 125.505C200.379 120.509 196.63 116.19 192.052 112.893C187.473 109.595 182.19 107.408 176.62 106.505L174 104.355L176.95 77.2053C177.194 74.9477 176.929 72.6641 176.173 70.5228C175.417 68.3816 174.19 66.4374 172.582 64.8337C170.974 63.2299 169.027 62.0075 166.884 61.2566C164.741 60.5058 162.457 60.2456 160.2 60.4953L133.06 63.4953L116 42.1653C114.578 40.3963 112.778 38.9687 110.731 37.9879C108.685 37.007 106.444 36.4978 104.175 36.4978C101.906 36.4978 99.665 37.007 97.6185 37.9879C95.572 38.9687 93.7716 40.3963 92.35 42.1653L75.19 63.4453L48.06 60.4453C45.8049 60.1985 43.5233 60.461 41.3832 61.2134C39.243 61.9657 37.2991 63.1888 35.6945 64.7924C34.0899 66.396 32.8657 68.3392 32.1121 70.4789C31.3584 72.6186 31.0946 74.9001 31.34 77.1553L34.29 104.305L14 120.675L13.09 121.395L12.34 121.985C10.5765 123.406 9.15377 125.204 8.17629 127.247C7.19881 129.29 6.69144 131.526 6.69144 133.79C6.69144 136.055 7.19881 138.291 8.17629 140.334C9.15377 142.377 10.5765 144.174 12.34 145.595L34.21 163.275L31.37 189.345C31.37 189.545 31.37 189.745 31.37 189.945L31.3 190.505C31.0538 192.76 31.3163 195.041 32.068 197.18C32.8198 199.32 34.0417 201.264 35.6439 202.869C37.2461 204.474 39.1878 205.7 41.3262 206.455C43.4645 207.211 45.745 207.477 48 207.235L74.75 204.345L92.41 226.035C93.8324 227.769 95.6211 229.165 97.6475 230.125C99.674 231.084 101.888 231.583 104.13 231.585C106.386 231.584 108.614 231.078 110.65 230.106C112.687 229.133 114.48 227.719 115.9 225.965L117.8 223.625C123.631 227.708 130.572 229.91 137.69 229.935C139.286 229.936 140.88 229.826 142.46 229.605C150.883 234.912 160.655 237.682 170.61 237.585C183.76 237.585 195.88 232.975 204.27 225.355C206.774 225.917 209.333 226.198 211.9 226.195C217.944 226.176 223.882 224.612 229.151 221.65C234.419 218.689 238.843 214.429 242 209.275C255.63 202.855 264.4 190.275 264.4 176.435C264.4 176.225 264.4 176.025 264.4 175.815C264.4 175.605 264.42 175.215 264.42 174.915Z" fill="#F4F5F5"/>
</g>
<g style="mix-blend-mode:multiply" opacity="0.21">
<path d="M266.65 172.695C266.65 152.815 248.65 136.505 226.14 135.405C220.655 129.216 213.317 124.965 205.22 123.285C202.601 118.287 198.853 113.968 194.274 110.67C189.695 107.372 184.411 105.186 178.84 104.285L176.19 102.145L179.14 75.0053C179.383 72.7501 179.118 70.4691 178.364 68.3299C177.609 66.1907 176.385 64.2478 174.781 62.6439C173.177 61.04 171.235 59.8159 169.095 59.0617C166.956 58.3074 164.675 58.0421 162.42 58.2853L135.28 61.2853L118.17 39.9353C116.748 38.168 114.948 36.7421 112.903 35.7624C110.857 34.7826 108.618 34.274 106.35 34.274C104.082 34.274 101.843 34.7826 99.7971 35.7624C97.7515 36.7421 95.9517 38.168 94.53 39.9353L77.42 61.2253L50.28 58.2253C48.0207 57.9791 45.7349 58.2437 43.5916 58.9995C41.4483 59.7553 39.5022 60.9831 37.8971 62.592C36.292 64.201 35.069 66.15 34.3182 68.2951C33.5675 70.4402 33.3084 72.7266 33.56 74.9853L36.51 102.125L16.21 118.445L15.3 119.175L14.56 119.765C12.7981 121.187 11.3769 122.985 10.4005 125.028C9.42413 127.071 8.91736 129.306 8.91736 131.57C8.91736 133.834 9.42413 136.07 10.4005 138.112C11.3769 140.155 12.7981 141.953 14.56 143.375L36.4 161.055L33.56 187.125C33.56 187.325 33.56 187.525 33.56 187.725L33.5 188.285C33.2538 190.54 33.5162 192.821 34.268 194.96C35.0198 197.1 36.2417 199.044 37.8439 200.649C39.4461 202.254 41.3878 203.48 43.5262 204.235C45.6645 204.991 47.945 205.257 50.2 205.015L76.96 202.125L94.62 223.815C96.0418 225.562 97.835 226.97 99.8693 227.937C101.903 228.904 104.128 229.406 106.38 229.405C108.635 229.402 110.86 228.896 112.895 227.924C114.929 226.951 116.721 225.538 118.14 223.785L120.04 221.445C125.875 225.529 132.818 227.73 139.94 227.755C141.536 227.751 143.129 227.641 144.71 227.425C153.131 232.714 162.896 235.467 172.84 235.355C186 235.355 198.12 230.755 206.51 223.135C209.014 223.697 211.573 223.979 214.14 223.975C220.186 223.959 226.127 222.396 231.397 219.434C236.668 216.472 241.092 212.211 244.25 207.055C257.89 200.625 266.66 188.055 266.66 174.215C266.66 174.005 266.66 173.805 266.66 173.595C266.66 173.385 266.65 172.995 266.65 172.695Z" fill="#F1F1F2"/>
</g>
<g style="mix-blend-mode:multiply" opacity="0.26">
<path d="M268.87 170.465C268.87 150.585 250.87 134.285 228.36 133.185C222.879 126.991 215.54 122.739 207.44 121.065C204.821 116.067 201.073 111.748 196.494 108.45C191.915 105.152 186.631 102.966 181.06 102.065L178.41 99.9353L181.41 72.7953C181.657 70.5393 181.394 68.2566 180.641 66.1157C179.889 63.9748 178.665 62.0302 177.06 60.4255C175.455 58.8207 173.51 57.5967 171.37 56.8438C169.229 56.0909 166.946 55.8283 164.69 56.0753L137.55 59.0753L120.39 37.7153C118.969 35.9464 117.17 34.5189 115.124 33.5381C113.078 32.5573 110.839 32.0481 108.57 32.0481C106.301 32.0481 104.062 32.5573 102.016 33.5381C99.9701 34.5189 98.1706 35.9464 96.75 37.7153L79.64 58.9953L52.5 55.9953C50.2444 55.748 47.962 56.0105 45.8215 56.7634C43.681 57.5164 41.7369 58.7406 40.1329 60.3456C38.5288 61.9506 37.3058 63.8953 36.5541 66.0363C35.8025 68.1773 35.5413 70.4598 35.79 72.7153L38.79 99.8553L18.43 116.225L17.52 116.945L16.78 117.535C15.018 118.958 13.5967 120.757 12.6203 122.801C11.6439 124.844 11.1371 127.08 11.1371 129.345C11.1371 131.61 11.6439 133.846 12.6203 135.89C13.5967 137.933 15.018 139.732 16.78 141.155L38.65 158.825L35.82 184.905C35.82 185.105 35.82 185.305 35.82 185.495L35.76 186.065C35.5154 188.319 35.7791 190.599 36.5315 192.737C37.284 194.876 38.5062 196.818 40.1082 198.422C41.7102 200.026 43.6514 201.251 45.7889 202.006C47.9264 202.761 50.206 203.027 52.46 202.785L79.22 199.895L96.81 221.585C98.2332 223.331 100.027 224.737 102.061 225.704C104.095 226.671 106.318 227.174 108.57 227.175C110.827 227.178 113.056 226.678 115.096 225.711C117.135 224.744 118.934 223.334 120.36 221.585L122.25 219.245C128.086 223.324 135.03 225.523 142.15 225.545C143.746 225.546 145.34 225.436 146.92 225.215C155.341 230.505 165.106 233.261 175.05 233.155C188.21 233.155 200.33 228.545 208.72 220.925C211.224 221.49 213.783 221.775 216.35 221.775C222.398 221.758 228.341 220.193 233.613 217.23C238.885 214.266 243.311 210.003 246.47 204.845C260.1 198.425 268.87 185.845 268.87 172.005C268.87 171.805 268.87 171.595 268.87 171.395C268.87 171.195 268.87 170.765 268.87 170.465Z" fill="#EDEEEE"/>
</g>
<g style="mix-blend-mode:multiply" opacity="0.32">
<path d="M271.09 168.245C271.09 148.365 253.09 132.065 230.59 130.955C225.105 124.766 217.767 120.515 209.67 118.835C207.049 113.839 203.3 109.52 198.722 106.223C194.143 102.925 188.86 100.738 183.29 99.8353L180.64 97.7053L183.64 70.5553C183.883 68.3005 183.618 66.0198 182.864 63.881C182.11 61.7422 180.885 59.7998 179.281 58.1966C177.677 56.5934 175.734 55.3703 173.595 54.6173C171.455 53.8643 169.175 53.6004 166.92 53.8453L139.78 56.8453L122.62 35.4953C121.2 33.7294 119.402 32.3043 117.359 31.3249C115.315 30.3454 113.078 29.8365 110.812 29.8355C108.546 29.8346 106.309 30.3416 104.265 31.3193C102.221 32.297 100.422 33.7206 99 35.4853L81.86 56.7753L54.73 53.7753C52.4648 53.5242 50.1722 53.787 48.0227 54.5442C45.8731 55.3014 43.9219 56.5335 42.3143 58.1488C40.7066 59.7642 39.4838 61.7212 38.7369 63.8744C37.9899 66.0275 37.7381 68.3214 38 70.5853L41 97.7253L20.7 114.055L19.79 114.775L19.05 115.365C17.2849 116.785 15.8606 118.583 14.882 120.626C13.9035 122.669 13.3955 124.905 13.3955 127.17C13.3955 129.436 13.9035 131.672 14.882 133.715C15.8606 135.758 17.2849 137.555 19.05 138.975L40.85 156.585L38 182.675C38 182.875 38 183.075 38 183.275L37.93 183.835C37.6808 186.09 37.9407 188.373 38.6905 190.514C39.4402 192.656 40.6608 194.601 42.2622 196.209C43.8636 197.816 45.8052 199.043 47.9439 199.801C50.0826 200.558 52.364 200.826 54.62 200.585L81.38 197.695L99 219.365C100.421 221.113 102.214 222.522 104.248 223.489C106.283 224.456 108.507 224.957 110.76 224.955C113.017 224.955 115.245 224.45 117.281 223.478C119.318 222.505 121.111 221.09 122.53 219.335L124.43 216.995C130.261 221.078 137.202 223.28 144.32 223.305C145.919 223.306 147.516 223.196 149.1 222.975C157.52 228.267 167.286 231.024 177.23 230.915C190.38 230.915 202.5 226.305 210.9 218.685C213.404 219.248 215.963 219.529 218.53 219.525C224.586 219.516 230.538 217.953 235.819 214.987C241.099 212.022 245.53 207.752 248.69 202.585C262.32 196.155 271.09 183.585 271.09 169.745C271.09 169.535 271.09 169.335 271.09 169.125C271.09 168.915 271.09 168.585 271.09 168.245Z" fill="#EAEAEB"/>
</g>
<g style="mix-blend-mode:multiply" opacity="0.37">
<path d="M273.32 166.015C273.32 146.145 255.32 129.835 232.81 128.735C227.332 122.532 219.993 118.269 211.89 116.585C209.271 111.587 205.523 107.268 200.944 103.97C196.365 100.672 191.081 98.486 185.51 97.5853L182.86 95.4453L185.81 68.3053C186.055 66.0497 185.791 63.7679 185.038 61.6278C184.284 59.4878 183.06 57.544 181.456 55.9397C179.851 54.3354 177.907 53.1113 175.767 52.3577C173.627 51.6041 171.346 51.3402 169.09 51.5853L142 54.5853L124.84 33.2653C123.418 31.498 121.618 30.0721 119.573 29.0924C117.527 28.1126 115.288 27.604 113.02 27.604C110.752 27.604 108.513 28.1126 106.467 29.0924C104.422 30.0721 102.622 31.498 101.2 33.2653L84.09 54.5853L57 51.5853C54.7396 51.3318 52.4511 51.5899 50.3039 52.3404C48.1567 53.091 46.2058 54.3147 44.5955 55.9212C42.9852 57.5276 41.7568 59.4756 41.0011 61.621C40.2455 63.7664 39.9819 66.0543 40.23 68.3153L43.23 95.4553L22.93 111.775L22.02 112.505L21.28 113.095C19.5181 114.517 18.0969 116.315 17.1205 118.358C16.1441 120.401 15.6374 122.636 15.6374 124.9C15.6374 127.164 16.1441 129.4 17.1205 131.442C18.0969 133.485 19.5181 135.283 21.28 136.705L43.15 154.375L40.31 180.455C40.31 180.655 40.31 180.855 40.31 181.055L40.25 181.615C40.0038 183.87 40.2662 186.151 41.018 188.29C41.7698 190.43 42.9917 192.374 44.5939 193.979C46.1961 195.584 48.1378 196.81 50.2762 197.565C52.4145 198.321 54.695 198.587 56.95 198.345L83.71 195.455L101.37 217.145C102.778 218.875 104.55 220.273 106.561 221.239C108.571 222.206 110.77 222.716 113 222.735C115.255 222.732 117.48 222.226 119.515 221.254C121.549 220.281 123.341 218.868 124.76 217.115L126.66 214.775C132.496 218.854 139.44 221.053 146.56 221.075C148.155 221.074 149.749 220.967 151.33 220.755C159.751 226.044 169.516 228.797 179.46 228.685C192.62 228.685 204.74 224.085 213.13 216.455C215.634 217.02 218.193 217.305 220.76 217.305C226.806 217.291 232.748 215.728 238.018 212.767C243.289 209.805 247.714 205.542 250.87 200.385C264.51 193.955 273.28 181.385 273.28 167.535C273.28 167.335 273.28 167.135 273.28 166.925C273.28 166.715 273.32 166.325 273.32 166.015Z" fill="#E6E7E8"/>
</g>
<g style="mix-blend-mode:multiply" opacity="0.42">
<path d="M275.54 163.795C275.54 143.915 257.54 127.615 235.03 126.515C229.551 120.317 222.211 116.061 214.11 114.385C211.49 109.388 207.742 105.069 203.163 101.771C198.584 98.473 193.3 96.2867 187.73 95.3853L185.08 93.2553L188.08 66.1153C188.325 63.8588 188.061 61.576 187.307 59.4351C186.553 57.2942 185.328 55.3499 183.723 53.7454C182.117 52.1409 180.172 50.9171 178.031 50.1642C175.889 49.4113 173.606 49.1486 171.35 49.3953L144.22 52.3453L127.07 31.0453C125.648 29.2763 123.848 27.8487 121.801 26.8679C119.755 25.887 117.514 25.3778 115.245 25.3778C112.976 25.3778 110.735 25.887 108.688 26.8679C106.642 27.8487 104.842 29.2763 103.42 31.0453L86.31 52.3253L59.18 49.3753C56.924 49.1283 54.6414 49.3909 52.5004 50.1438C50.3595 50.8967 48.4149 52.1207 46.8102 53.7255C45.2054 55.3302 43.9815 57.2748 43.2285 59.4157C42.4756 61.5567 42.213 63.8393 42.46 66.0953L45.41 93.2353L25.1 109.585L24.19 110.305L23.45 110.895C21.688 112.318 20.2667 114.117 19.2903 116.161C18.3139 118.204 17.8071 120.44 17.8071 122.705C17.8071 124.97 18.3139 127.206 19.2903 129.25C20.2667 131.293 21.688 133.092 23.45 134.515L45.3 152.155L42.46 178.235C42.46 178.435 42.46 178.635 42.46 178.825L42.4 179.395C42.1552 181.65 42.419 183.931 43.172 186.07C43.925 188.209 45.1482 190.152 46.7513 191.757C48.3545 193.361 50.2969 194.585 52.4357 195.339C54.5745 196.094 56.8552 196.359 59.11 196.115L85.86 193.225L103.52 214.915C104.943 216.663 106.738 218.072 108.774 219.039C110.81 220.006 113.036 220.507 115.29 220.505C117.535 220.494 119.75 219.986 121.775 219.016C123.8 218.045 125.585 216.638 127 214.895L128.89 212.545C134.725 216.627 141.669 218.829 148.79 218.855C150.386 218.856 151.98 218.746 153.56 218.525C161.981 223.815 171.746 226.571 181.69 226.465C194.85 226.465 206.97 221.855 215.36 214.235C217.864 214.797 220.423 215.078 222.99 215.075C229.037 215.06 234.98 213.497 240.252 210.535C245.524 207.573 249.951 203.312 253.11 198.155C266.74 191.735 275.51 179.205 275.51 165.315C275.51 165.105 275.51 164.905 275.51 164.705C275.51 164.505 275.54 164.095 275.54 163.795Z" fill="#E3E4E4"/>
</g>
<g style="mix-blend-mode:multiply" opacity="0.47">
<path d="M277.76 161.585C277.76 141.705 259.81 125.405 237.26 124.295C231.775 118.106 224.437 113.855 216.34 112.175C213.719 107.179 209.97 102.86 205.392 99.5628C200.813 96.265 195.53 94.0782 189.96 93.1753L187.31 91.0453L190.26 63.8953C190.503 61.6405 190.238 59.3598 189.484 57.221C188.73 55.0822 187.505 53.1398 185.901 51.5366C184.297 49.9334 182.354 48.7103 180.215 47.9573C178.076 47.2043 175.795 46.9405 173.54 47.1853L146.4 50.1853L129.29 28.8253C127.869 27.0564 126.07 25.6289 124.024 24.6481C121.978 23.6673 119.739 23.1581 117.47 23.1581C115.201 23.1581 112.962 23.6673 110.916 24.6481C108.87 25.6289 107.071 27.0564 105.65 28.8253L88.54 50.1053L61.4 47.1053C59.1403 46.8572 56.8537 47.1204 54.7095 47.8756C52.5653 48.6307 50.6184 49.8584 49.0129 51.4678C47.4074 53.0772 46.1843 55.027 45.4343 57.173C44.6843 59.319 44.4265 61.6062 44.68 63.8653L47.68 91.0053L27.38 107.335L26.47 108.055L25.73 108.645C23.9681 110.067 22.5469 111.865 21.5705 113.908C20.5941 115.951 20.0874 118.186 20.0874 120.45C20.0874 122.714 20.5941 124.95 21.5705 126.992C22.5469 129.035 23.9681 130.833 25.73 132.255L47.6 149.935L44.76 176.005C44.76 176.205 44.76 176.405 44.76 176.605L44.7 177.165C44.4538 179.42 44.7163 181.701 45.468 183.84C46.2198 185.98 47.4417 187.924 49.0439 189.529C50.6461 191.134 52.5878 192.36 54.7262 193.115C56.8645 193.871 59.1451 194.137 61.4 193.895L88.16 191.005L105.82 212.695C107.241 214.443 109.034 215.852 111.068 216.819C113.103 217.786 115.327 218.287 117.58 218.285C119.835 218.283 122.061 217.778 124.096 216.806C126.13 215.833 127.922 214.419 129.34 212.665L131.24 210.325C137.074 214.41 144.018 216.612 151.14 216.635C152.736 216.636 154.33 216.526 155.91 216.305C164.319 221.587 174.07 224.34 184 224.235C197.15 224.235 209.27 219.635 217.67 212.015C220.174 212.577 222.733 212.859 225.3 212.855C231.346 212.839 237.287 211.276 242.557 208.314C247.828 205.352 252.252 201.091 255.41 195.935C269.05 189.505 277.81 176.935 277.81 163.095C277.81 162.885 277.81 162.685 277.81 162.475C277.81 162.265 277.76 161.875 277.76 161.585Z" fill="#DFE0E1"/>
</g>
<g style="mix-blend-mode:multiply" opacity="0.53">
<path d="M280 159.345C280 139.465 262 123.165 239.49 122.065C234.009 115.871 226.67 111.619 218.57 109.945C215.951 104.947 212.203 100.628 207.624 97.3299C203.045 94.0319 197.761 91.846 192.19 90.9453L189.54 88.8053L192.49 61.6653C192.735 59.4097 192.471 57.1279 191.718 54.9878C190.964 52.8478 189.74 50.904 188.136 49.2997C186.531 47.6954 184.587 46.4713 182.447 45.7177C180.307 44.9641 178.026 44.7002 175.77 44.9453L148.63 47.9453L131.51 26.5853C130.088 24.8181 128.288 23.3921 126.243 22.4124C124.197 21.4326 121.958 20.924 119.69 20.924C117.422 20.924 115.183 21.4326 113.137 22.4124C111.092 23.3921 109.292 24.8181 107.87 26.5853L90.76 47.8853L63.62 44.8853C61.3611 44.6388 59.0756 44.9033 56.9327 45.6591C54.7898 46.415 52.8442 47.6429 51.2398 49.2521C49.6354 50.8613 48.4133 52.8105 47.6639 54.9557C46.9144 57.1009 46.6567 59.3871 46.91 61.6453L49.85 88.7853L29.55 105.105L28.64 105.825L27.9 106.425C26.1381 107.847 24.7169 109.645 23.7405 111.688C22.7641 113.731 22.2574 115.966 22.2574 118.23C22.2574 120.494 22.7641 122.73 23.7405 124.772C24.7169 126.815 26.1381 128.613 27.9 130.035L49.77 147.705L46.91 173.785C46.91 173.985 46.91 174.185 46.91 174.375L46.85 174.945C46.6054 177.199 46.8691 179.479 47.6215 181.617C48.374 183.756 49.5962 185.698 51.1982 187.302C52.8002 188.906 54.7414 190.131 56.8789 190.886C59.0164 191.641 61.296 191.907 63.55 191.665L90.31 188.785L107.97 210.475C109.392 212.222 111.185 213.63 113.219 214.597C115.253 215.564 117.478 216.066 119.73 216.065C121.985 216.062 124.21 215.556 126.245 214.584C128.279 213.611 130.071 212.198 131.49 210.445L133.39 208.105C139.226 212.184 146.17 214.383 153.29 214.405C154.885 214.405 156.479 214.298 158.06 214.085C166.482 219.373 176.247 222.126 186.19 222.015C199.35 222.015 211.47 217.415 219.86 209.785C222.364 210.35 224.923 210.635 227.49 210.635C233.535 210.618 239.476 209.054 244.746 206.093C250.017 203.131 254.442 198.87 257.6 193.715C271.24 187.285 280.01 174.715 280.01 160.865C280.01 160.665 280.01 160.455 280.01 160.255C280.01 160.055 280 159.655 280 159.345Z" fill="#DCDDDE"/>
</g>
<g style="mix-blend-mode:multiply" opacity="0.58">
<path d="M282.21 157.125C282.21 137.245 264.21 120.945 241.7 119.845C236.221 113.647 228.881 109.391 220.78 107.715C218.16 102.718 214.412 98.3987 209.833 95.1008C205.254 91.803 199.97 89.6167 194.4 88.7153L191.75 86.5853L194.75 59.4453C194.999 57.1854 194.737 54.8983 193.983 52.7533C193.229 50.6083 192.003 48.6601 190.395 47.0529C188.787 45.4457 186.838 44.2205 184.692 43.468C182.547 42.7154 180.26 42.4548 178 42.7053L150.86 45.6553L133.74 24.3753C132.318 22.6063 130.518 21.1787 128.471 20.1979C126.425 19.217 124.184 18.7078 121.915 18.7078C119.646 18.7078 117.405 19.217 115.358 20.1979C113.312 21.1787 111.512 22.6063 110.09 24.3753L93 45.6553L65.85 42.7053C63.594 42.4583 61.3113 42.7209 59.1704 43.4738C57.0295 44.2267 55.0849 45.4507 53.4802 47.0555C51.8754 48.6602 50.6514 50.6048 49.8985 52.7457C49.1456 54.8867 48.883 57.1693 49.13 59.4253L52.08 86.5853L31.77 102.885L30.86 103.605L30.12 104.195C28.3581 105.617 26.9369 107.415 25.9605 109.458C24.9841 111.501 24.4774 113.736 24.4774 116C24.4774 118.264 24.9841 120.5 25.9605 122.542C26.9369 124.585 28.3581 126.383 30.12 127.805L52 145.485L49.13 171.585C49.13 171.785 49.13 171.985 49.13 172.185L49.06 172.755C48.8152 175.01 49.079 177.291 49.832 179.43C50.585 181.569 51.8081 183.512 53.4113 185.117C55.0145 186.721 56.9569 187.945 59.0957 188.699C61.2345 189.454 63.5152 189.719 65.77 189.475L92.49 186.585L110.16 208.275C111.581 210.023 113.374 211.432 115.408 212.399C117.443 213.366 119.667 213.867 121.92 213.865C124.176 213.864 126.404 213.358 128.44 212.386C130.477 211.413 132.27 209.999 133.69 208.245L135.58 205.905C141.415 209.987 148.359 212.189 155.48 212.215C157.079 212.216 158.676 212.106 160.26 211.885C168.68 217.177 178.446 219.934 188.39 219.825C201.54 219.825 213.66 215.215 222.05 207.595C224.558 208.157 227.12 208.439 229.69 208.435C235.736 208.419 241.677 206.856 246.947 203.894C252.218 200.932 256.642 196.671 259.8 191.515C273.44 185.095 282.2 172.515 282.2 158.675C282.2 158.465 282.2 158.265 282.2 158.065C282.2 157.865 282.21 157.425 282.21 157.125Z" fill="#D8D9DB"/>
</g>
<g style="mix-blend-mode:multiply" opacity="0.63">
<path d="M284.44 154.905C284.44 135.025 266.44 118.715 243.93 117.615C238.442 111.425 231.101 107.173 223 105.495C220.379 100.499 216.63 96.1805 212.052 92.8828C207.473 89.585 202.19 87.3982 196.62 86.4953L194 84.3353L197 57.1953C197.243 54.9401 196.978 52.6591 196.224 50.5199C195.469 48.3807 194.245 46.4378 192.641 44.8339C191.037 43.23 189.095 42.0059 186.955 41.2517C184.816 40.4974 182.535 40.2321 180.28 40.4753L153.14 43.4753L136 22.1453C134.578 20.3781 132.778 18.9521 130.733 17.9724C128.687 16.9926 126.448 16.484 124.18 16.484C121.912 16.484 119.673 16.9926 117.627 17.9724C115.582 18.9521 113.782 20.3781 112.36 22.1453L95.21 43.4353L68.07 40.4353C65.8107 40.1891 63.525 40.4537 61.3816 41.2095C59.2383 41.9654 57.2922 43.1931 55.6871 44.802C54.082 46.411 52.859 48.36 52.1083 50.5051C51.3576 52.6502 51.0984 54.9366 51.35 57.1953L54.3 84.3353L34 100.655L33.09 101.385L32.35 101.975C30.5881 103.397 29.1669 105.195 28.1905 107.238C27.2141 109.281 26.7074 111.516 26.7074 113.78C26.7074 116.044 27.2141 118.28 28.1905 120.322C29.1669 122.365 30.5881 124.163 32.35 125.585L54.22 143.265L51.38 169.335C51.38 169.535 51.38 169.735 51.38 169.935L51.32 170.495C51.0743 172.748 51.3365 175.027 52.0871 177.165C52.8377 179.303 54.0578 181.246 55.6577 182.851C57.2576 184.455 59.1967 185.681 61.3325 186.438C63.4683 187.195 65.7466 187.464 68 187.225L94.76 184.335L112.42 206.025C113.84 207.761 115.629 209.161 117.655 210.122C119.682 211.084 121.897 211.583 124.14 211.585C126.395 211.581 128.62 211.075 130.654 210.103C132.689 209.13 134.481 207.717 135.9 205.965L137.8 203.625C143.635 207.707 150.579 209.906 157.7 209.925C159.295 209.924 160.889 209.817 162.47 209.605C170.891 214.916 180.665 217.686 190.62 217.585C203.78 217.585 215.89 212.985 224.29 205.365C226.794 205.927 229.353 206.209 231.92 206.205C237.962 206.182 243.898 204.613 249.163 201.648C254.428 198.683 258.847 194.42 262 189.265C275.64 182.835 284.41 170.265 284.41 156.425C284.41 156.215 284.41 156.015 284.41 155.805C284.41 155.595 284.44 155.205 284.44 154.905Z" fill="#D5D6D7"/>
</g>
<g style="mix-blend-mode:multiply" opacity="0.68">
<path d="M286.66 152.675C286.66 132.795 268.66 116.495 246.15 115.395C240.671 109.199 233.331 104.946 225.23 103.275C222.61 98.2776 218.862 93.9587 214.283 90.6608C209.704 87.363 204.42 85.1767 198.85 84.2753L196.2 82.1453L199.2 55.0053C199.445 52.7497 199.181 50.4679 198.428 48.3278C197.674 46.1878 196.45 44.244 194.846 42.6397C193.241 41.0354 191.297 39.8113 189.157 39.0577C187.017 38.3041 184.736 38.0402 182.48 38.2853L155.34 41.2853L138.24 20.0053C136.818 18.2362 135.018 16.8087 132.971 15.8279C130.925 14.847 128.684 14.3378 126.415 14.3378C124.146 14.3378 121.905 14.847 119.858 15.8279C117.812 16.8087 116.012 18.2362 114.59 20.0053L97.43 41.2053L70.29 38.2053C68.0301 37.9585 65.7437 38.2231 63.6 38.9796C61.4562 39.736 59.5101 40.9649 57.9055 42.5752C56.3009 44.1855 55.079 46.1361 54.3303 48.2825C53.5816 50.429 53.3251 52.7163 53.58 54.9753L56.52 82.1153L36.22 98.4353L35.31 99.1553L34.57 99.7453C32.808 101.168 31.3867 102.967 30.4103 105.011C29.4339 107.054 28.9271 109.29 28.9271 111.555C28.9271 113.82 29.4339 116.056 30.4103 118.1C31.3867 120.143 32.808 121.942 34.57 123.365L56.45 141.035L53.61 167.115C53.61 167.315 53.61 167.515 53.61 167.705L53.55 168.275C53.3054 170.529 53.5691 172.809 54.3216 174.947C55.074 177.086 56.2962 179.028 57.8982 180.632C59.5002 182.236 61.4414 183.461 63.5789 184.216C65.7164 184.971 67.996 185.237 70.25 184.995L97.01 182.115L114.67 203.805C116.093 205.551 117.887 206.957 119.921 207.924C121.955 208.891 124.178 209.394 126.43 209.395C128.685 209.392 130.91 208.886 132.945 207.914C134.979 206.941 136.771 205.528 138.19 203.775L140.09 201.435C145.928 205.51 152.87 207.708 159.99 207.735C161.586 207.736 163.18 207.626 164.76 207.405C173.179 212.699 182.945 215.456 192.89 215.345C206.05 215.345 218.17 210.735 226.56 203.115C229.064 203.68 231.623 203.965 234.19 203.965C240.237 203.949 246.179 202.385 251.449 199.421C256.72 196.457 261.144 192.193 264.3 187.035C277.94 180.615 286.71 168.085 286.71 154.195C286.71 153.995 286.71 153.785 286.71 153.585C286.71 153.385 286.66 152.975 286.66 152.675Z" fill="#D1D3D4"/>
</g>
<g style="mix-blend-mode:multiply" opacity="0.74">
<path d="M288.88 150.455C288.88 130.575 270.93 114.275 248.37 113.165C242.89 106.975 235.555 102.723 227.46 101.045C224.837 96.0495 221.089 91.7322 216.51 88.4347C211.932 85.1371 206.649 82.9497 201.08 82.0453L198.43 79.9153L201.38 52.7653C201.623 50.5105 201.358 48.2298 200.604 46.091C199.85 43.9522 198.625 42.0098 197.021 40.4066C195.417 38.8034 193.474 37.5803 191.335 36.8273C189.195 36.0742 186.915 35.8104 184.66 36.0553L157.52 39.0553L140.41 17.7053C138.989 15.9364 137.19 14.5089 135.144 13.5281C133.098 12.5473 130.859 12.0381 128.59 12.0381C126.321 12.0381 124.082 12.5473 122.036 13.5281C119.99 14.5089 118.191 15.9364 116.77 17.7053L99.65 38.9853L72.52 35.9853C70.2603 35.7372 67.9737 36.0004 65.8295 36.7556C63.6853 37.5107 61.7384 38.7384 60.1329 40.3478C58.5274 41.9572 57.3043 43.907 56.5543 46.053C55.8043 48.199 55.5465 50.4862 55.8 52.7453L58.8 79.8853L38.44 96.2153L37.53 96.9353L36.8 97.5253C35.0365 98.9461 33.6138 100.744 32.6363 102.787C31.6588 104.83 31.1514 107.066 31.1514 109.33C31.1514 111.595 31.6588 113.831 32.6363 115.874C33.6138 117.917 35.0365 119.714 36.8 121.135L58.68 138.815L55.8 164.885C55.8 165.085 55.8 165.285 55.8 165.485L55.73 166.055C55.4852 168.31 55.749 170.591 56.502 172.73C57.255 174.869 58.4781 176.812 60.0813 178.417C61.6845 180.021 63.6269 181.245 65.7657 181.999C67.9045 182.754 70.1852 183.019 72.44 182.775L99.2 179.885L116.83 201.585C118.251 203.333 120.044 204.742 122.078 205.709C124.113 206.676 126.337 207.177 128.59 207.175C130.846 207.179 133.074 206.678 135.112 205.711C137.15 204.744 138.946 203.335 140.37 201.585L142.27 199.245C148.104 203.33 155.048 205.532 162.17 205.555C163.766 205.556 165.36 205.445 166.94 205.225C175.36 210.517 185.126 213.274 195.07 213.165C208.22 213.165 220.34 208.555 228.73 200.935C231.238 201.497 233.8 201.779 236.37 201.775C242.416 201.759 248.357 200.196 253.627 197.234C258.898 194.272 263.322 190.011 266.48 184.855C280.12 178.425 288.88 165.855 288.88 152.015C288.88 151.805 288.88 151.605 288.88 151.395C288.88 151.185 288.88 150.755 288.88 150.455Z" fill="#CECFD1"/>
</g>
<g style="mix-blend-mode:multiply" opacity="0.79">
<path d="M291.11 148.235C291.11 128.355 273.11 112.045 250.6 110.945C245.119 104.751 237.78 100.499 229.68 98.8253C227.061 93.8271 223.313 89.5078 218.734 86.2099C214.155 82.9119 208.871 80.726 203.3 79.8253L200.65 77.6853L203.6 50.5453C203.843 48.2901 203.578 46.0091 202.824 43.8699C202.069 41.7307 200.845 39.7878 199.241 38.1839C197.637 36.58 195.695 35.3559 193.555 34.6017C191.416 33.8474 189.135 33.5821 186.88 33.8253L159.74 36.8253L142.63 15.4753C141.208 13.7081 139.408 12.2821 137.363 11.3024C135.317 10.3226 133.078 9.81404 130.81 9.81404C128.542 9.81404 126.303 10.3226 124.257 11.3024C122.212 12.2821 120.412 13.7081 118.99 15.4753L101.88 36.7653L74.74 33.7653C72.4787 33.5139 70.1899 33.7748 68.0432 34.5285C65.8965 35.2822 63.9469 36.5094 62.3391 38.1191C60.7312 39.7289 59.5063 41.6799 58.7552 43.8275C58.0041 45.9752 57.746 48.2643 58 50.5253L61 77.6653L40.67 93.9853L39.76 94.7153L39.02 95.3053C37.2582 96.7272 35.8369 98.5255 34.8605 100.568C33.8842 102.611 33.3774 104.846 33.3774 107.11C33.3774 109.374 33.8842 111.61 34.8605 113.652C35.8369 115.695 37.2582 117.493 39.02 118.915L60.86 136.585L58 162.665C58 162.865 58 163.065 58 163.265L57.94 163.825C57.6892 166.081 57.9479 168.365 58.6969 170.507C59.446 172.65 60.6663 174.597 62.2679 176.206C63.8695 177.814 65.8117 179.042 67.9512 179.8C70.0907 180.558 72.3731 180.827 74.63 180.585L101.39 177.695L119.05 199.385C120.472 201.132 122.265 202.54 124.299 203.507C126.334 204.474 128.558 204.976 130.81 204.975C133.065 204.971 135.29 204.465 137.324 203.493C139.359 202.52 141.151 201.107 142.57 199.355L144.47 197.015C150.305 201.097 157.249 203.296 164.37 203.315C165.965 203.314 167.559 203.207 169.14 202.995C177.562 208.283 187.327 211.036 197.27 210.925C210.43 210.925 222.55 206.325 230.94 198.695C233.444 199.26 236.003 199.545 238.57 199.545C244.623 199.528 250.57 197.96 255.845 194.991C261.12 192.022 265.545 187.751 268.7 182.585C282.34 176.155 291.11 163.585 291.11 149.745C291.11 149.535 291.11 149.335 291.11 149.125C291.11 148.915 291.11 148.585 291.11 148.235Z" fill="#CACCCD"/>
</g>
<g style="mix-blend-mode:multiply" opacity="0.84">
<path d="M293.33 146.005C293.33 126.125 275.33 109.825 252.82 108.725C247.343 102.523 240.003 98.2633 231.9 96.5853C229.28 91.5876 225.532 87.2687 220.953 83.9708C216.374 80.673 211.09 78.4867 205.52 77.5853L202.87 75.4553L205.82 48.3153C206.068 46.0595 205.807 43.7766 205.055 41.6353C204.304 39.4939 203.081 37.5486 201.477 35.9429C199.873 34.3372 197.93 33.112 195.789 32.3578C193.649 31.6036 191.366 31.3396 189.11 31.5853L162 34.5853L144.9 13.3053C143.478 11.5363 141.678 10.1087 139.632 9.12786C137.585 8.147 135.344 7.63782 133.075 7.63782C130.806 7.63782 128.565 8.147 126.519 9.12786C124.472 10.1087 122.672 11.5363 121.25 13.3053L104.1 34.5853L77 31.5853C74.7413 31.3315 72.4544 31.5891 70.3088 32.3392C68.1632 33.0893 66.2138 34.3125 64.6052 35.9183C62.9966 37.524 61.7698 39.4712 61.0159 41.6154C60.262 43.7597 60.0002 46.0461 60.25 48.3053L63.25 75.4453L42.89 91.7653L41.98 92.4853L41.24 93.0753C39.478 94.4982 38.0567 96.2973 37.0803 98.3409C36.1039 100.384 35.5971 102.62 35.5971 104.885C35.5971 107.15 36.1039 109.386 37.0803 111.43C38.0567 113.473 39.478 115.272 41.24 116.695L63.12 134.365L60.28 160.445C60.28 160.645 60.28 160.845 60.28 161.035L60.21 161.605C59.9654 163.859 60.2291 166.139 60.9816 168.277C61.734 170.416 62.9562 172.358 64.5582 173.962C66.1603 175.566 68.1014 176.791 70.2389 177.546C72.3764 178.301 74.656 178.567 76.91 178.325L103.67 175.445L121.33 197.125C122.742 198.86 124.521 200.261 126.539 201.228C128.556 202.194 130.763 202.702 133 202.715C135.254 202.714 137.479 202.21 139.514 201.239C141.548 200.269 143.341 198.856 144.76 197.105L146.66 194.755C152.495 198.837 159.439 201.039 166.56 201.065C168.156 201.066 169.75 200.956 171.33 200.735C179.751 206.025 189.516 208.781 199.46 208.675C212.62 208.675 224.74 204.065 233.13 196.445C235.637 197.011 238.2 197.296 240.77 197.295C246.815 197.277 252.755 195.712 258.024 192.748C263.293 189.785 267.715 185.522 270.87 180.365C284.52 173.945 293.28 161.415 293.28 147.525C293.28 147.315 293.28 147.115 293.28 146.915C293.28 146.715 293.33 146.305 293.33 146.005Z" fill="#C7C8CA"/>
</g>
<g style="mix-blend-mode:multiply" opacity="0.89">
<path d="M295.55 143.785C295.55 123.905 277.6 107.605 255.05 106.495C249.565 100.306 242.227 96.0553 234.13 94.3753C231.509 89.3785 227.76 85.0605 223.182 81.7627C218.603 78.465 213.32 76.2782 207.75 75.3753L205.1 73.2453L208.1 46.0953C208.343 43.8405 208.078 41.5598 207.324 39.421C206.57 37.2822 205.345 35.3398 203.741 33.7366C202.137 32.1334 200.194 30.9103 198.055 30.1573C195.915 29.4043 193.635 29.1404 191.38 29.3853L164.24 32.3353L147.08 11.0353C145.659 9.26641 143.86 7.83893 141.814 6.8581C139.768 5.87726 137.529 5.36807 135.26 5.36807C132.991 5.36807 130.752 5.87726 128.706 6.8581C126.66 7.83893 124.861 9.26641 123.44 11.0353L106.33 32.3153L79.19 29.3653C76.9349 29.1185 74.6533 29.381 72.5131 30.1334C70.373 30.8857 68.4291 32.1088 66.8245 33.7124C65.2199 35.316 63.9957 37.2592 63.2421 39.3989C62.4884 41.5386 62.2246 43.8201 62.47 46.0753L65.47 73.2153L45.11 89.5853L44.2 90.3053L43.47 90.8953C41.7081 92.3172 40.2869 94.1154 39.3105 96.1582C38.3341 98.2009 37.8274 100.436 37.8274 102.7C37.8274 104.964 38.3341 107.2 39.3105 109.242C40.2869 111.285 41.7081 113.083 43.47 114.505L65.35 132.185L62.51 158.255C62.51 158.455 62.51 158.655 62.51 158.855L62.44 159.415C62.1935 161.671 62.4561 163.953 63.2085 166.093C63.9608 168.234 65.1836 170.178 66.787 171.783C68.3904 173.389 70.3334 174.614 72.473 175.369C74.6126 176.124 76.8943 176.389 79.15 176.145L105.91 173.255L123.57 194.945C124.991 196.693 126.784 198.102 128.818 199.069C130.853 200.036 133.077 200.537 135.33 200.535C137.573 200.515 139.783 199.996 141.801 199.017C143.819 198.038 145.595 196.624 147 194.875L148.9 192.535C156.073 197.573 164.884 199.715 173.57 198.535C181.99 203.827 191.756 206.584 201.7 206.475C214.85 206.475 226.97 201.865 235.36 194.245C237.868 194.807 240.43 195.089 243 195.085C249.046 195.069 254.987 193.506 260.257 190.544C265.528 187.582 269.952 183.321 273.11 178.165C286.75 171.735 295.51 159.165 295.51 145.325C295.51 145.115 295.51 144.915 295.51 144.705C295.51 144.495 295.55 144.085 295.55 143.785Z" fill="#C3C5C7"/>
</g>
<g style="mix-blend-mode:multiply" opacity="0.95">
<path d="M297.78 141.585C297.78 121.705 279.78 105.405 257.27 104.305C251.789 98.1114 244.45 93.8592 236.35 92.1853C233.73 87.1876 229.982 82.8687 225.403 79.5708C220.824 76.273 215.54 74.0867 209.97 73.1853L207.32 71.0553L210.32 43.9153C210.563 41.6601 210.298 39.3791 209.544 37.2399C208.789 35.1007 207.565 33.1578 205.961 31.5539C204.357 29.95 202.415 28.7259 200.275 27.9717C198.136 27.2174 195.855 26.9521 193.6 27.1953L166.46 30.1953L149.36 8.91527C147.937 7.14788 146.137 5.72186 144.09 4.74211C142.044 3.76235 139.804 3.25377 137.535 3.25377C135.266 3.25377 133.026 3.76235 130.98 4.74211C128.933 5.72186 127.133 7.14788 125.71 8.91527L108.55 30.0853L81.41 27.0853C79.1501 26.8385 76.8637 27.1031 74.72 27.8596C72.5762 28.616 70.6301 29.8449 69.0255 31.4552C67.4209 33.0655 66.199 35.0161 65.4503 37.1625C64.7016 39.309 64.4451 41.5963 64.7 43.8553L67.64 70.9953L47.34 87.3153L46.43 88.0353L45.69 88.6353C43.9281 90.0572 42.5069 91.8555 41.5305 93.8982C40.5541 95.9409 40.0474 98.1762 40.0474 100.44C40.0474 102.704 40.5541 104.94 41.5305 106.982C42.5069 109.025 43.9281 110.823 45.69 112.245L67.56 129.915L64.7 155.995C64.7 156.195 64.7 156.395 64.7 156.595L64.64 157.155C64.3954 159.409 64.6591 161.689 65.4115 163.827C66.164 165.966 67.3862 167.908 68.9882 169.512C70.5902 171.116 72.5314 172.341 74.6689 173.096C76.8064 173.851 79.086 174.117 81.34 173.875L108.1 170.995L125.76 192.685C127.182 194.432 128.975 195.84 131.009 196.807C133.043 197.774 135.268 198.276 137.52 198.275C139.775 198.271 142 197.765 144.034 196.793C146.069 195.82 147.861 194.407 149.28 192.655L151.18 190.315C157.015 194.397 163.959 196.596 171.08 196.615C172.675 196.614 174.269 196.507 175.85 196.295C184.278 201.585 194.05 204.338 204 204.225C217.16 204.225 229.28 199.625 237.67 191.995C240.174 192.56 242.733 192.845 245.3 192.845C251.346 192.829 257.287 191.266 262.557 188.304C267.828 185.342 272.252 181.081 275.41 175.925C289.06 169.495 297.82 156.925 297.82 143.075C297.82 142.875 297.82 142.665 297.82 142.465C297.82 142.265 297.78 141.865 297.78 141.585Z" fill="#C0C1C3"/>
</g>
<g style="mix-blend-mode:multiply">
<path d="M300 139.335C300 119.455 282 103.155 259.49 102.045C254.008 95.8525 246.669 91.6006 238.57 89.9253C235.95 84.9276 232.202 80.6087 227.623 77.3108C223.044 74.013 217.76 71.8267 212.19 70.9253L209.54 68.7953L212.54 41.6553C212.787 39.4002 212.524 37.1186 211.772 34.9784C211.02 32.8383 209.796 30.8943 208.193 29.2898C206.589 27.6852 204.646 26.461 202.506 25.7074C200.367 24.9537 198.085 24.6899 195.83 24.9353L168.68 27.9353L151.53 6.58528C150.109 4.81641 148.31 3.38894 146.264 2.4081C144.218 1.42726 141.979 0.918076 139.71 0.918076C137.441 0.918076 135.201 1.42726 133.156 2.4081C131.11 3.38894 129.311 4.81641 127.89 6.58528L110.77 27.8653L83.64 24.8653C81.3789 24.615 79.0906 24.877 76.9447 25.6321C74.7988 26.3871 72.8504 27.6157 71.2443 29.2266C69.6381 30.8376 68.4154 32.7896 67.6668 34.9377C66.9182 37.0858 66.6629 39.375 66.92 41.6353L69.92 68.7753L49.56 85.0953L48.65 85.8153L47.92 86.4053C46.1565 87.8261 44.7338 89.624 43.7563 91.6669C42.7788 93.7097 42.2714 95.9456 42.2714 98.2103C42.2714 100.475 42.7788 102.711 43.7563 104.754C44.7338 106.797 46.1565 108.594 47.92 110.015L69.8 127.695L66.96 153.765C66.96 153.975 66.96 154.165 66.96 154.365L66.89 154.935C66.6454 157.189 66.9091 159.469 67.6615 161.607C68.414 163.746 69.6362 165.688 71.2382 167.292C72.8402 168.896 74.7814 170.121 76.9189 170.876C79.0564 171.631 81.336 171.897 83.59 171.655L110.36 168.775L128 190.455C129.419 192.203 131.21 193.612 133.243 194.579C135.276 195.546 137.499 196.047 139.75 196.045C142.004 196.044 144.229 195.54 146.264 194.569C148.298 193.599 150.091 192.186 151.51 190.435L153.41 188.085C159.248 192.17 166.195 194.372 173.32 194.395C174.916 194.396 176.509 194.285 178.09 194.065C186.507 199.356 196.269 202.112 206.21 202.005C219.37 202.005 231.49 197.395 239.88 189.775C242.388 190.338 244.95 190.619 247.52 190.615C253.565 190.6 259.504 189.037 264.774 186.075C270.043 183.113 274.465 178.851 277.62 173.695C291.27 167.265 300.03 154.695 300.03 140.855C300.03 140.645 300.03 140.445 300.03 140.245C300.03 140.045 300 139.635 300 139.335Z" fill="#BCBEC0"/>
</g>
</g>
<path d="M298.55 140.785C298.55 120.915 280.55 104.605 258.04 103.505C252.553 97.314 245.211 93.0627 237.11 91.3853C234.494 86.3881 230.75 82.0692 226.175 78.7711C221.599 75.4731 216.318 73.2866 210.75 72.3853L208.09 70.2553L211 43.0853C211.245 40.8306 210.981 38.5498 210.228 36.4105C209.475 34.2713 208.252 32.3281 206.649 30.724C205.046 29.1199 203.103 27.8956 200.964 27.1413C198.825 26.387 196.545 26.1218 194.29 26.3653L167.14 29.3653L150.07 8.03528C148.648 6.26805 146.848 4.84209 144.803 3.86236C142.757 2.88262 140.518 2.37404 138.25 2.37404C135.982 2.37404 133.743 2.88262 131.697 3.86236C129.652 4.84209 127.852 6.26805 126.43 8.03528L109.32 29.3253L82.18 26.3253C79.9211 26.081 77.6362 26.347 75.4937 27.1035C73.3513 27.86 71.406 29.0877 69.8014 30.6963C68.1967 32.3048 66.9736 34.253 66.2222 36.3972C65.4708 38.5414 65.2103 40.827 65.46 43.0853L68.46 70.2253L48.11 86.5853L47.19 87.2953L46.46 87.8953C44.6965 89.3161 43.2738 91.114 42.2963 93.1569C41.3188 95.1997 40.8114 97.4356 40.8114 99.7003C40.8114 101.965 41.3188 104.201 42.2963 106.244C43.2738 108.287 44.6965 110.084 46.46 111.505L68.3 129.145L65.46 155.225C65.46 155.425 65.46 155.625 65.46 155.825L65.39 156.385C65.1419 158.64 65.403 160.922 66.1541 163.063C66.9052 165.203 68.1271 167.148 69.7297 168.753C71.3323 170.359 73.2749 171.584 75.4141 172.339C77.5533 173.094 79.8346 173.359 82.09 173.115L108.85 170.225L126.51 191.915C127.932 193.662 129.725 195.07 131.759 196.037C133.793 197.004 136.018 197.506 138.27 197.505C140.52 197.497 142.739 196.988 144.768 196.016C146.797 195.044 148.584 193.633 150 191.885L151.89 189.545C157.725 193.627 164.669 195.826 171.79 195.845C173.385 195.849 174.979 195.742 176.56 195.525C184.981 200.814 194.746 203.567 204.69 203.455C217.84 203.455 229.97 198.855 238.36 191.235C245.542 192.833 253.044 192.141 259.813 189.257C266.582 186.373 272.277 181.442 276.1 175.155C289.74 168.725 298.51 156.155 298.51 142.315C298.51 142.105 298.51 141.905 298.51 141.695C298.51 141.485 298.55 141.095 298.55 140.785Z" fill="white"/>
<path d="M300 139.335C300 119.455 282 103.155 259.49 102.045C254.008 95.8525 246.669 91.6006 238.57 89.9253C235.95 84.9276 232.202 80.6087 227.623 77.3108C223.044 74.013 217.76 71.8267 212.19 70.9253L209.54 68.7953L212.54 41.6553C212.787 39.4002 212.524 37.1186 211.772 34.9784C211.02 32.8383 209.796 30.8943 208.193 29.2898C206.589 27.6852 204.646 26.461 202.506 25.7074C200.367 24.9537 198.085 24.6899 195.83 24.9353L168.68 27.9353L151.53 6.58528C150.109 4.81641 148.31 3.38894 146.264 2.4081C144.218 1.42726 141.979 0.918076 139.71 0.918076C137.441 0.918076 135.201 1.42726 133.156 2.4081C131.11 3.38894 129.311 4.81641 127.89 6.58528L110.77 27.8653L83.64 24.8653C81.3789 24.615 79.0906 24.877 76.9447 25.6321C74.7988 26.3871 72.8504 27.6157 71.2443 29.2266C69.6381 30.8376 68.4154 32.7896 67.6668 34.9377C66.9182 37.0858 66.6629 39.375 66.92 41.6353L69.92 68.7753L49.56 85.0953L48.65 85.8153L47.92 86.4053C46.1565 87.8261 44.7338 89.624 43.7563 91.6669C42.7788 93.7097 42.2714 95.9456 42.2714 98.2103C42.2714 100.475 42.7788 102.711 43.7563 104.754C44.7338 106.797 46.1565 108.594 47.92 110.015L69.8 127.695L66.96 153.765C66.96 153.975 66.96 154.165 66.96 154.365L66.89 154.935C66.6454 157.189 66.9091 159.469 67.6615 161.607C68.414 163.746 69.6362 165.688 71.2382 167.292C72.8402 168.896 74.7814 170.121 76.9189 170.876C79.0564 171.631 81.336 171.897 83.59 171.655L110.36 168.775L128 190.455C129.419 192.203 131.21 193.612 133.243 194.579C135.276 195.546 137.499 196.047 139.75 196.045C142.004 196.044 144.229 195.54 146.264 194.569C148.298 193.599 150.091 192.186 151.51 190.435L153.41 188.085C159.248 192.17 166.195 194.372 173.32 194.395C174.916 194.396 176.509 194.285 178.09 194.065C186.507 199.356 196.269 202.112 206.21 202.005C219.37 202.005 231.49 197.395 239.88 189.775C242.388 190.338 244.95 190.619 247.52 190.615C253.565 190.6 259.504 189.037 264.774 186.075C270.043 183.113 274.465 178.851 277.62 173.695C291.27 167.265 300.03 154.695 300.03 140.855C300.03 140.645 300.03 140.445 300.03 140.245C300.03 140.045 300 139.635 300 139.335Z" fill="url(#paint0_linear)"/>
<path d="M139.7 49.6853C129.969 49.6853 120.457 52.5708 112.366 57.977C104.275 63.3831 97.9689 71.0671 94.2451 80.0573C90.5213 89.0474 89.547 98.9398 91.4454 108.484C93.3437 118.028 98.0296 126.794 104.91 133.675C111.791 140.556 120.558 145.242 130.102 147.14C139.645 149.038 149.538 148.064 158.528 144.34C167.518 140.616 175.202 134.31 180.608 126.219C186.014 118.128 188.9 108.616 188.9 98.8853C188.901 92.4239 187.63 86.0255 185.158 80.0557C182.685 74.0859 179.061 68.6616 174.493 64.0927C169.924 59.5238 164.499 55.8998 158.53 53.4277C152.56 50.9557 146.161 49.684 139.7 49.6853Z" fill="#E69100"/>
<path d="M193.57 121.205L222.07 98.2953L221.32 97.7053L193.32 75.6453L196.78 40.6453L161.93 44.2853L139.75 17.2853L117.75 44.2853L82.55 40.4453L86.21 75.6553L58.26 97.6553L57.52 98.2453L85.95 121.245L82 155.375L81.9 156.585L116.84 152.815L139.7 180.885L162.5 152.745L197.42 156.585L193.57 121.205ZM162 151.455C155 153.695 147.39 155.715 139.68 155.715C131.97 155.715 124.53 153.525 117.55 151.295C111.04 147.945 104.97 144.525 99.55 139.065C94.2508 133.751 89.811 127.645 86.39 120.965C81.7502 106.611 81.7502 91.1597 86.39 76.8053C93.2684 63.3776 104.198 52.4551 117.63 45.5853C131.987 40.9597 147.433 40.9597 161.79 45.5853C175.226 52.4749 186.16 63.409 193.05 76.8453C197.69 91.2065 197.69 106.664 193.05 121.025C189.629 127.704 185.185 133.808 179.88 139.115C174.43 144.525 168.55 148.105 162 151.455Z" fill="#E69100"/>
<path d="M188.9 97.7053C188.9 107.436 186.014 116.948 180.608 125.039C175.202 133.13 167.518 139.436 158.528 143.16C149.538 146.884 139.645 147.858 130.102 145.96C120.558 144.062 111.791 139.376 104.91 132.495C98.0296 125.614 93.3437 116.848 91.4454 107.304C89.547 97.7599 90.5213 87.8674 94.2451 78.8773C97.9689 69.8871 104.275 62.2031 112.366 56.797C120.457 51.3908 129.969 48.5053 139.7 48.5053C146.161 48.504 152.56 49.7757 158.53 52.2477C164.499 54.7198 169.924 58.3438 174.493 62.9127C179.061 67.4816 182.685 72.9059 185.158 78.8757C187.63 84.8455 188.901 91.2439 188.9 97.7053Z" fill="#FFBB00"/>
<path d="M193.57 120.015L221.32 97.7053L193.57 75.3853L197.42 39.9953L162 43.8453L139.7 16.0853L117.39 43.8453L82 39.9953L85.86 75.3853L58.09 97.7053L85.85 120.015L82 155.405L117.4 151.555L139.71 179.315L162 151.585L197.4 155.445L193.57 120.015ZM161.79 151.015C147.433 155.641 131.987 155.641 117.63 151.015C104.177 144.146 93.2339 133.206 86.36 119.755C81.72 105.394 81.72 89.9365 86.36 75.5753C93.2339 62.1242 104.177 51.1849 117.63 44.3153C131.981 39.6756 147.429 39.6756 161.78 44.3153C175.226 51.2003 186.165 62.1398 193.05 75.5853C197.69 89.9499 197.69 105.411 193.05 119.775C186.166 133.216 175.23 144.151 161.79 151.035V151.015Z" fill="#FFBB00"/>
<g style="mix-blend-mode:screen" opacity="0.2">
<path d="M139.7 97.6753C156.114 97.6567 172.517 98.5581 188.83 100.375C188.83 99.4853 188.9 98.5953 188.9 97.7053C188.993 91.1859 187.789 84.713 185.359 78.6629C182.928 72.6128 179.319 67.1062 174.742 62.4631C170.164 57.82 164.71 54.133 158.695 51.6164C152.68 49.0998 146.225 47.8039 139.705 47.8039C133.185 47.8039 126.73 49.0998 120.715 51.6164C114.7 54.133 109.246 57.82 104.668 62.4631C100.091 67.1062 96.482 72.6128 94.0514 78.6629C91.6208 84.713 90.4171 91.1859 90.51 97.7053C90.51 98.5953 90.51 99.4853 90.58 100.375C106.89 98.5592 123.289 97.6578 139.7 97.6753Z" fill="#FFBB00"/>
</g>
<g style="mix-blend-mode:screen" opacity="0.2">
<path d="M65.9 103.985C71.4067 102.972 77.1167 102.075 83.03 101.295C82.97 100.095 82.88 98.9153 82.88 97.7053C82.8849 90.196 84.0589 82.7333 86.36 75.5853C93.2339 62.1342 104.177 51.1949 117.63 44.3253C131.981 39.6856 147.429 39.6856 161.78 44.3253C175.224 51.2077 186.163 62.1435 193.05 75.5853C195.348 82.7271 196.522 90.1828 196.53 97.6853C196.53 98.8953 196.45 100.075 196.39 101.275C202.29 102.055 207.993 102.952 213.5 103.965L221.32 97.6853L193.57 75.3853L197.42 39.9953L162 43.8453L139.7 16.0853L117.39 43.8453L82 39.9953L85.86 75.3853L58.09 97.7053L65.9 103.985Z" fill="#FFBB00"/>
</g>
<path d="M257.06 118.685C255.259 118.684 253.46 118.821 251.68 119.095C249.82 115.101 246.852 111.726 243.13 109.37C239.407 107.014 235.086 105.777 230.68 105.805C229.656 105.813 228.634 105.886 227.62 106.025C226.1 95.3753 217.5 87.2053 207.1 87.2053C197.23 87.2053 188.99 94.5553 186.87 104.395C185.169 103.91 183.409 103.661 181.64 103.655C170.85 103.655 161.98 112.435 160.96 123.655C157.898 121.803 154.389 120.821 150.81 120.815C139.33 120.815 130.03 130.745 130.03 142.995C130.03 155.245 139.33 165.165 150.81 165.165C151.839 165.156 152.865 165.066 153.88 164.895C156.88 173.265 164.4 179.215 173.29 179.215C176.133 179.215 178.942 178.594 181.52 177.395C186.97 183.095 195.98 186.825 206.18 186.825C219.83 186.825 231.35 180.165 235.07 171.015C238.585 173.862 242.967 175.425 247.49 175.445C256.19 175.445 263.62 169.735 266.72 161.645C277.29 158.505 284.84 150.375 284.84 140.845C284.84 128.585 272.39 118.685 257.06 118.685Z" fill="#A3BAD4"/>
<path d="M257.06 117.155C255.258 117.155 253.459 117.299 251.68 117.585C249.822 113.59 246.854 110.212 243.131 107.854C239.409 105.496 235.087 104.257 230.68 104.285C229.656 104.293 228.634 104.366 227.62 104.505C226.1 93.8553 217.5 85.6853 207.1 85.6853C197.23 85.6853 188.99 93.0353 186.87 102.875C185.168 102.395 183.409 102.146 181.64 102.135C170.85 102.135 161.98 110.915 160.96 122.135C157.898 120.283 154.389 119.302 150.81 119.295C139.33 119.295 130.03 129.225 130.03 141.475C130.03 153.725 139.33 163.645 150.81 163.645C151.839 163.636 152.865 163.546 153.88 163.375C156.88 171.745 164.4 177.695 173.29 177.695C176.133 177.695 178.942 177.074 181.52 175.875C186.97 181.575 195.98 185.305 206.18 185.305C219.83 185.305 231.35 178.635 235.07 169.495C238.587 172.338 242.968 173.897 247.49 173.915C256.19 173.915 263.62 168.215 266.72 160.125C277.29 156.985 284.84 148.865 284.84 139.325C284.84 127.085 272.39 117.155 257.06 117.155Z" fill="#B8D9FF"/>
<g style="mix-blend-mode:screen" opacity="0.2">
<path d="M207.44 135.345C236.21 135.345 262.74 138.835 284.01 144.715C284.555 142.974 284.834 141.16 284.84 139.335C284.84 127.085 272.39 117.155 257.06 117.155C255.258 117.155 253.459 117.299 251.68 117.585C249.822 113.59 246.854 110.212 243.131 107.854C239.409 105.496 235.087 104.257 230.68 104.285C229.656 104.293 228.634 104.366 227.62 104.505C226.1 93.8553 217.5 85.6853 207.1 85.6853C197.23 85.6853 188.99 93.0353 186.87 102.875C185.168 102.395 183.409 102.146 181.64 102.135C170.85 102.135 161.98 110.915 160.96 122.135C157.898 120.283 154.389 119.302 150.81 119.295C139.33 119.295 130.03 129.225 130.03 141.475C130.037 142.611 130.131 143.744 130.31 144.865C151.66 138.895 178.4 135.345 207.44 135.345Z" fill="#B8D9FF"/>
</g>
<path style="mix-blend-mode:multiply" d="M300 139.335C300 119.455 282 103.155 259.49 102.045C254.008 95.8525 246.669 91.6006 238.57 89.9253C235.95 84.9276 232.202 80.6087 227.623 77.3108C223.044 74.013 217.76 71.8267 212.19 70.9253L209.54 68.7953L212.54 41.6553C212.787 39.4002 212.524 37.1186 211.772 34.9784C211.02 32.8383 209.796 30.8943 208.193 29.2898C206.589 27.6852 204.646 26.461 202.506 25.7074C200.367 24.9537 198.085 24.6899 195.83 24.9353L168.68 27.9353L151.53 6.58528C150.109 4.81641 148.31 3.38894 146.264 2.4081C144.218 1.42726 141.979 0.918076 139.71 0.918076C137.441 0.918076 135.201 1.42726 133.156 2.4081C131.11 3.38894 129.311 4.81641 127.89 6.58528L110.77 27.8653L83.64 24.8653C81.3789 24.615 79.0906 24.877 76.9447 25.6321C74.7988 26.3871 72.8504 27.6157 71.2443 29.2266C69.6381 30.8376 68.4154 32.7896 67.6668 34.9377C66.9182 37.0858 66.6629 39.375 66.92 41.6353L69.92 68.7753L49.56 85.0953L48.65 85.8153L47.92 86.4053C46.1565 87.8261 44.7338 89.624 43.7563 91.6669C42.7788 93.7097 42.2714 95.9456 42.2714 98.2103C42.2714 100.475 42.7788 102.711 43.7563 104.754C44.7338 106.797 46.1565 108.594 47.92 110.015L69.8 127.695L66.96 153.765C66.96 153.975 66.96 154.165 66.96 154.365L66.89 154.935C66.6454 157.189 66.9091 159.469 67.6615 161.607C68.414 163.746 69.6362 165.688 71.2382 167.292C72.8402 168.896 74.7814 170.121 76.9189 170.876C79.0564 171.631 81.336 171.897 83.59 171.655L110.36 168.775L128 190.455C129.419 192.203 131.21 193.612 133.243 194.579C135.276 195.546 137.499 196.047 139.75 196.045C142.004 196.044 144.229 195.54 146.264 194.569C148.298 193.599 150.091 192.186 151.51 190.435L153.41 188.085C159.248 192.17 166.195 194.372 173.32 194.395C174.916 194.396 176.509 194.285 178.09 194.065C186.507 199.356 196.269 202.112 206.21 202.005C219.37 202.005 231.49 197.395 239.88 189.775C242.388 190.338 244.95 190.619 247.52 190.615C253.565 190.6 259.504 189.037 264.774 186.075C270.043 183.113 274.465 178.851 277.62 173.695C291.27 167.265 300.03 154.695 300.03 140.855C300.03 140.645 300.03 140.445 300.03 140.245C300.03 140.045 300 139.635 300 139.335Z" fill="url(#paint1_linear)"/>
</g>
<defs>
<linearGradient id="paint0_linear" x1="87.31" y1="190.395" x2="262.27" y2="15.4353" gradientUnits="userSpaceOnUse">
<stop stop-color="#E6E6E6"/>
<stop offset="1" stop-color="#FAFAFA"/>
</linearGradient>
<linearGradient id="paint1_linear" x1="86.82" y1="190.885" x2="228.45" y2="49.2553" gradientUnits="userSpaceOnUse">
<stop offset="0.39" stop-color="white"/>
<stop offset="0.5" stop-color="#FCFCFC"/>
<stop offset="0.58" stop-color="#F3F3F3"/>
<stop offset="0.65" stop-color="#E3E3E3"/>
<stop offset="0.71" stop-color="#CECECE"/>
<stop offset="0.72" stop-color="#C9C9C9"/>
<stop offset="0.76" stop-color="#C9C9C9"/>
<stop offset="0.99" stop-color="#C9C9C9"/>
</linearGradient>
<clipPath id="clip0">
<rect width="300" height="243.34" fill="white" transform="translate(0 0.915283)"/>
</clipPath>
</defs>
</svg>
