<svg width="300" height="241" viewBox="0 0 300 241" fill="none" xmlns="http://www.w3.org/2000/svg">
<g clip-path="url(#clip0)">
<g style="mix-blend-mode:multiply">
<g style="mix-blend-mode:multiply" opacity="0.05">
<path d="M258.54 173.825C258.54 154.635 242.31 138.685 221.17 135.825C219.75 135.635 218.32 135.505 216.87 135.425C211.24 129.092 203.724 124.735 195.43 122.995C191.707 116.009 185.907 110.352 178.83 106.805C173.806 90.0416 164.13 75.0469 150.925 63.5626C137.72 52.0782 121.528 44.5754 104.23 41.9254C101.422 41.4838 98.5462 41.8126 95.9101 42.8765C93.2739 43.9405 90.9758 45.6999 89.2608 47.9671C87.5458 50.2343 86.4781 52.9243 86.1715 55.7505C85.865 58.5767 86.331 61.4332 87.52 64.0154C91.2781 72.121 93.2168 80.9509 93.2 89.8854C93.2 90.9454 93.2 91.9954 93.12 93.0454C93.1253 93.132 93.1253 93.2188 93.12 93.3054C91 125.715 64.39 151.565 31.53 151.565C28.2988 151.565 25.0724 151.314 21.88 150.815C21.63 150.815 21.4 150.815 21.16 150.745L20.44 150.635C17.6544 150.199 14.8027 150.52 12.184 151.566C9.56541 152.611 7.27638 154.342 5.5571 156.577C3.83783 158.811 2.75168 161.468 2.4126 164.267C2.07353 167.066 2.49403 169.905 3.62999 172.485C18.42 206.185 53.21 228.825 90.18 228.825C97.3552 228.815 104.503 227.943 111.47 226.225C118.107 229.804 125.71 231.18 133.18 230.155C141.836 235.579 151.866 238.404 162.08 238.295C175.59 238.295 188.08 233.575 196.68 225.755C204.066 227.394 211.779 226.68 218.738 223.711C225.697 220.743 231.551 215.671 235.48 209.205C249.53 202.585 258.54 189.685 258.54 175.385C258.54 175.165 258.54 174.965 258.54 174.755C258.54 174.545 258.54 174.135 258.54 173.825Z" fill="#FBFCFC"/>
</g>
<g style="mix-blend-mode:multiply" opacity="0.11">
<path d="M260.84 171.515C260.84 152.335 244.61 136.375 223.47 133.515C222.05 133.325 220.63 133.185 219.18 133.115C213.55 126.776 206.029 122.418 197.73 120.685C194.01 113.697 188.209 108.039 181.13 104.495C176.107 87.7311 166.432 72.7357 153.226 61.2512C140.021 49.7666 123.829 42.2642 106.53 39.6154C103.72 39.1737 100.843 39.5033 98.2052 40.569C95.5678 41.6346 93.2692 43.3964 91.5548 45.6663C89.8403 47.9361 88.7743 50.6289 88.4706 53.4572C88.1668 56.2855 88.6367 59.1432 89.83 61.7254C93.5859 69.8314 95.5212 78.6615 95.5 87.5954C95.5 88.6554 95.5 89.7054 95.43 90.7554C95.43 90.8354 95.43 90.9254 95.43 91.0154C93.35 123.425 66.69 149.265 33.83 149.265C30.6019 149.261 27.3789 149.007 24.19 148.505C23.94 148.505 23.7 148.505 23.47 148.445L22.74 148.335C19.9556 147.9 17.1054 148.222 14.4882 149.267C11.8709 150.312 9.58286 152.041 7.86394 154.275C6.14502 156.508 5.0585 159.162 4.71824 161.96C4.37798 164.758 4.79651 167.595 5.92998 170.175C20.73 203.875 55.51 226.525 92.48 226.525C99.6585 226.515 106.81 225.642 113.78 223.925C120.413 227.504 128.013 228.88 135.48 227.855C144.139 233.28 154.173 236.105 164.39 235.995C177.89 235.995 190.39 231.275 198.99 223.455C206.374 225.083 214.082 224.363 221.037 221.396C227.991 218.428 233.845 213.362 237.78 206.905C251.83 200.275 260.84 187.375 260.84 173.075C260.84 172.865 260.84 172.665 260.84 172.445C260.84 172.225 260.84 171.825 260.84 171.515Z" fill="#F8F8F8"/>
</g>
<g style="mix-blend-mode:multiply" opacity="0.16">
<path d="M263.14 169.215C263.14 150.025 246.92 134.075 225.78 131.215C224.36 131.025 222.93 130.895 221.48 130.825C215.84 124.489 208.307 120.141 200 118.425C196.277 111.436 190.472 105.778 183.39 102.235C178.37 85.4706 168.696 70.474 155.493 58.9878C142.29 47.5015 126.098 39.9968 108.8 37.3454C105.997 36.9169 103.13 37.2547 100.503 38.3228C97.8764 39.391 95.5874 41.1498 93.8788 43.4129C92.1702 45.6761 91.1056 48.3592 90.7977 51.1781C90.4898 53.9971 90.9502 56.8468 92.13 59.4254C95.8899 67.5304 97.8287 76.3607 97.81 85.2954C97.81 86.2954 97.81 87.3954 97.73 88.4454C97.735 88.5353 97.735 88.6254 97.73 88.7154C95.73 121.125 69.02 146.965 36.16 146.965C32.9288 146.965 29.7025 146.714 26.51 146.215C26.26 146.215 26.03 146.215 25.79 146.155L25 146.025C22.2159 145.595 19.3673 145.92 16.752 146.967C14.1367 148.014 11.8508 149.745 10.1337 151.979C8.41648 154.212 7.33102 156.866 6.99085 159.662C6.65068 162.459 7.06829 165.295 8.2 167.875C22.99 201.575 57.77 224.215 94.75 224.215C101.926 224.21 109.074 223.337 116.04 221.615C122.677 225.194 130.28 226.57 137.75 225.545C146.403 230.976 156.435 233.801 166.65 233.685C180.16 233.685 192.65 228.965 201.25 221.145C203.81 221.719 206.426 222.007 209.05 222.005C215.273 221.988 221.388 220.379 226.814 217.331C232.24 214.284 236.796 209.9 240.05 204.595C254.05 197.975 263.05 185.075 263.05 170.775C263.05 170.555 263.05 170.355 263.05 170.145C263.05 169.935 263.14 169.525 263.14 169.215Z" fill="#F4F5F5"/>
</g>
<g style="mix-blend-mode:multiply" opacity="0.21">
<path d="M265.45 166.915C265.45 147.725 249.22 131.775 228.08 128.915C226.66 128.725 225.23 128.585 223.78 128.515C218.151 122.18 210.635 117.823 202.34 116.085C198.617 109.099 192.817 103.442 185.74 99.8954C180.716 83.1316 171.04 68.1369 157.835 56.6525C144.63 45.1682 128.438 37.6654 111.14 35.0154C108.332 34.5738 105.456 34.9026 102.82 35.9665C100.184 37.0305 97.8858 38.7899 96.1708 41.0571C94.4558 43.3243 93.3881 46.0143 93.0815 48.8405C92.775 51.6667 93.241 54.5232 94.43 57.1054C98.1881 65.211 100.127 74.0409 100.11 82.9754C100.11 84.0354 100.11 85.0854 100.04 86.1354V86.3954C99.1281 102.122 92.2492 116.907 80.8071 127.734C69.3651 138.561 54.2225 144.613 38.47 144.655C35.2388 144.655 32.0125 144.404 28.82 143.905C28.58 143.905 28.34 143.905 28.1 143.835L27.38 143.725C24.5956 143.29 21.7455 143.612 19.1282 144.657C16.5109 145.702 14.2229 147.431 12.504 149.665C10.785 151.898 9.69851 154.552 9.35825 157.35C9.01799 160.148 9.43653 162.985 10.57 165.565C25.37 199.275 60.15 221.915 97.12 221.915C104.299 221.905 111.45 221.032 118.42 219.315C125.053 222.894 132.653 224.27 140.12 223.245C148.766 228.679 158.789 231.518 169 231.425C182.5 231.425 195 226.705 203.6 218.885C206.161 219.452 208.777 219.737 211.4 219.735C217.623 219.721 223.738 218.115 229.164 215.07C234.591 212.024 239.147 207.64 242.4 202.335C256.45 195.715 265.46 182.805 265.46 168.515C265.46 168.295 265.46 168.095 265.46 167.875C265.46 167.655 265.45 167.225 265.45 166.915Z" fill="#F1F1F2"/>
</g>
<g style="mix-blend-mode:multiply" opacity="0.26">
<path d="M267.75 164.605C267.75 145.425 251.52 129.465 230.38 126.605C228.96 126.415 227.54 126.275 226.09 126.205C220.462 119.869 212.945 115.511 204.65 113.775C200.915 106.779 195.096 101.118 188 97.5754C182.977 80.811 173.302 65.8157 160.096 54.3312C146.891 42.8466 130.699 35.3442 113.4 32.6954C110.59 32.2537 107.713 32.5833 105.075 33.649C102.438 34.7146 100.139 36.4764 98.4248 38.7463C96.7104 41.0161 95.6444 43.7089 95.3406 46.5372C95.0368 49.3655 95.5067 52.2232 96.7 54.8054C100.459 62.9107 102.398 71.7408 102.38 80.6754C102.38 81.7354 102.38 82.7854 102.3 83.8254C102.3 83.9154 102.3 84.0054 102.3 84.0954C101.395 99.8258 94.5169 114.617 83.0712 125.445C71.6255 136.274 56.4764 142.323 40.72 142.355C37.4919 142.351 34.2689 142.097 31.08 141.595C30.83 141.595 30.59 141.595 30.36 141.535L29.63 141.425C26.8464 140.992 23.9975 141.315 21.3818 142.361C18.766 143.407 16.4796 145.137 14.7619 147.37C13.0443 149.603 11.9587 152.257 11.6188 155.053C11.2789 157.85 11.6973 160.686 12.83 163.265C27.62 196.965 62.4 219.605 99.37 219.605C106.548 219.599 113.699 218.729 120.67 217.015C125.848 219.797 131.632 221.257 137.51 221.265C139.136 221.271 140.76 221.161 142.37 220.935C151.027 226.364 161.062 229.19 171.28 229.075C184.78 229.075 197.28 224.365 205.88 216.535C208.44 217.109 211.056 217.398 213.68 217.395C219.902 217.378 226.016 215.77 231.441 212.724C236.867 209.679 241.424 205.297 244.68 199.995C258.68 193.365 267.73 180.465 267.73 166.165C267.73 165.955 267.73 165.745 267.73 165.535C267.73 165.325 267.75 164.915 267.75 164.605Z" fill="#EDEEEE"/>
</g>
<g style="mix-blend-mode:multiply" opacity="0.32">
<path d="M270.06 162.305C270.06 143.115 253.83 127.165 232.69 124.305C231.27 124.115 229.84 123.985 228.39 123.915C222.787 117.562 215.287 113.183 207 111.425C203.282 104.432 197.476 98.7729 190.39 95.2354C185.353 78.4786 175.666 63.4943 162.455 52.0224C149.243 40.5505 133.048 33.0616 115.75 30.4254C112.941 29.98 110.063 30.3052 107.424 31.3663C104.785 32.4274 102.484 34.1846 100.765 36.4506C99.0455 38.7167 97.9735 41.4068 97.6627 44.2341C97.352 47.0614 97.8141 49.92 99 52.5054C102.759 60.6072 104.698 69.434 104.68 78.3654C104.68 79.4254 104.68 80.4754 104.6 81.5254C104.605 81.6153 104.605 81.7054 104.6 81.7954C103.709 97.5282 96.8365 112.325 85.3895 123.155C73.9426 133.984 58.788 140.027 43.03 140.045C39.7988 140.045 36.5725 139.794 33.38 139.295C33.13 139.295 32.9 139.295 32.66 139.225L31.93 139.115C29.1459 138.685 26.2972 139.01 23.6819 140.057C21.0666 141.104 18.7808 142.835 17.0637 145.069C15.3465 147.302 14.261 149.956 13.9208 152.752C13.5807 155.549 13.9983 158.385 15.13 160.965C29.92 194.665 64.7 217.305 101.68 217.305C108.855 217.295 116.003 216.423 122.97 214.705C129.607 218.284 137.21 219.66 144.68 218.635C153.336 224.059 163.366 226.884 173.58 226.775C187.09 226.775 199.58 222.055 208.18 214.235C210.74 214.809 213.356 215.097 215.98 215.095C222.203 215.078 228.318 213.469 233.744 210.421C239.17 207.374 243.726 202.99 246.98 197.685C260.98 191.065 270.04 178.165 270.04 163.865C270.04 163.645 270.04 163.445 270.04 163.235C270.04 163.025 270.06 162.615 270.06 162.305Z" fill="#EAEAEB"/>
</g>
<g style="mix-blend-mode:multiply" opacity="0.37">
<path d="M272.36 160.005C272.36 140.815 256.13 124.865 234.99 122.005C233.57 121.815 232.14 121.675 230.69 121.605C225.064 115.267 217.546 110.909 209.25 109.175C205.527 102.189 199.727 96.5323 192.65 92.9854C187.626 76.2216 177.95 61.2269 164.745 49.7426C151.54 38.2582 135.349 30.7554 118.05 28.1054C115.239 27.6616 112.361 27.9896 109.722 29.0544C107.083 30.1192 104.783 31.8807 103.067 34.151C101.351 36.4212 100.284 39.1148 99.9799 41.9442C99.6758 44.7735 100.146 47.6324 101.34 50.2154C105.088 58.3165 107.02 67.1391 107 76.0654C107 77.1254 107 78.1754 106.93 79.2254C106.925 79.312 106.925 79.3988 106.93 79.4854C106.049 95.2242 99.1778 110.029 87.7269 120.863C76.2761 131.696 61.1135 137.737 45.35 137.745C42.1186 137.741 38.8923 137.487 35.7 136.985C35.46 136.985 35.22 136.985 34.99 136.925L34.26 136.815C31.4756 136.38 28.6255 136.702 26.0082 137.747C23.3909 138.792 21.1029 140.521 19.384 142.755C17.665 144.988 16.5785 147.642 16.2383 150.44C15.898 153.238 16.3165 156.075 17.45 158.655C32.25 192.355 67 215.005 104 215.005C111.179 214.995 118.33 214.122 125.3 212.405C131.933 215.984 139.533 217.36 147 216.335C155.659 221.76 165.693 224.585 175.91 224.475C189.41 224.475 201.91 219.755 210.51 211.935C213.071 212.502 215.687 212.787 218.31 212.785C224.533 212.771 230.648 211.165 236.074 208.12C241.501 205.074 246.057 200.69 249.31 195.385C263.36 188.765 272.37 175.855 272.37 161.565C272.37 161.345 272.37 161.145 272.37 160.925C272.37 160.705 272.36 160.315 272.36 160.005Z" fill="#E6E7E8"/>
</g>
<g style="mix-blend-mode:multiply" opacity="0.42">
<path d="M274.66 157.695C274.66 138.515 258.44 122.555 237.29 119.695C235.88 119.505 234.45 119.365 233 119.295C227.375 112.955 219.857 108.597 211.56 106.865C207.852 99.8802 202.065 94.2194 195 90.6654C189.977 73.901 180.302 58.9057 167.096 47.4212C153.891 35.9366 137.699 28.4342 120.4 25.7854C117.59 25.3437 114.713 25.6733 112.075 26.739C109.438 27.8046 107.139 29.5664 105.425 31.8363C103.71 34.1061 102.644 36.7989 102.341 39.6272C102.037 42.4555 102.507 45.3132 103.7 47.8954C107.46 56.0004 109.399 64.8307 109.38 73.7654C109.38 74.7654 109.38 75.8654 109.3 76.9154C109.3 77.0054 109.3 77.0954 109.3 77.1854C108.43 92.9387 101.552 107.759 90.0831 118.593C78.6142 129.428 63.4273 135.452 47.65 135.425C44.4221 135.425 41.1991 135.174 38.01 134.675C37.76 134.675 37.53 134.675 37.29 134.615L36.56 134.505C33.7764 134.072 30.9275 134.395 28.3118 135.441C25.696 136.487 23.4096 138.217 21.6919 140.45C19.9743 142.683 18.8887 145.337 18.5488 148.133C18.2089 150.93 18.6273 153.766 19.76 156.345C34.55 190.045 69.33 212.685 106.3 212.685C113.478 212.679 120.629 211.809 127.6 210.095C134.239 213.667 141.841 215.039 149.31 214.015C157.963 219.445 167.995 222.27 178.21 222.155C191.72 222.155 204.21 217.435 212.81 209.615C215.37 210.189 217.986 210.477 220.61 210.475C226.832 210.458 232.946 208.85 238.371 205.804C243.797 202.759 248.354 198.377 251.61 193.075C265.61 186.445 274.66 173.545 274.66 159.245C274.66 159.035 274.66 158.825 274.66 158.615C274.66 158.405 274.66 158.005 274.66 157.695Z" fill="#E3E4E4"/>
</g>
<g style="mix-blend-mode:multiply" opacity="0.47">
<path d="M277 155.425C277 136.235 260.77 120.285 239.63 117.425C238.21 117.235 236.78 117.105 235.33 117.025C229.701 110.692 222.184 106.337 213.89 104.605C210.172 97.6124 204.366 91.9529 197.28 88.4154C192.262 71.6494 182.589 56.6516 169.385 45.165C156.181 33.6784 139.989 26.1745 122.69 23.5254C119.887 23.0914 117.019 23.4244 114.39 24.4889C111.761 25.5534 109.469 27.3099 107.758 29.5718C106.047 31.8337 104.98 34.5167 104.67 37.3361C104.361 40.1555 104.82 43.0061 106 45.5854C109.737 53.6858 111.658 62.5048 111.63 71.4254C111.63 72.4854 111.63 73.5354 111.56 74.5854V74.8454C110 107.315 82.82 133.135 50 133.135C46.7688 133.135 43.5425 132.884 40.35 132.385C40.11 132.385 39.87 132.385 39.63 132.315L38.91 132.205C36.1244 131.769 33.2727 132.09 30.654 133.136C28.0354 134.181 25.7464 135.912 24.0271 138.147C22.3078 140.381 21.2217 143.038 20.8826 145.837C20.5435 148.636 20.964 151.475 22.1 154.055C36.86 187.755 71.63 210.425 108.61 210.425C115.785 210.416 122.933 209.543 129.9 207.825C136.537 211.404 144.14 212.78 151.61 211.755C160.266 217.179 170.296 220.004 180.51 219.895C194.02 219.895 206.51 215.175 215.12 207.355C217.677 207.926 220.29 208.211 222.91 208.205C229.132 208.19 235.247 206.583 240.673 203.537C246.099 200.491 250.656 196.109 253.91 190.805C267.91 184.185 276.97 171.285 276.97 156.985C276.97 156.765 276.97 156.565 276.97 156.355C276.97 156.145 277 155.705 277 155.425Z" fill="#DFE0E1"/>
</g>
<g style="mix-blend-mode:multiply" opacity="0.53">
<path d="M279.27 153.095C279.27 133.905 263.04 117.955 241.9 115.095C240.48 114.905 239.06 114.765 237.6 114.695C231.974 108.357 224.456 103.999 216.16 102.265C212.44 95.2771 206.639 89.619 199.56 86.0754C194.542 69.3134 184.874 54.3182 171.676 42.8305C158.479 31.3429 142.294 23.834 125 21.1754C122.189 20.7316 119.311 21.0596 116.672 22.1244C114.033 23.1892 111.733 24.9507 110.017 27.221C108.301 29.4912 107.234 32.1848 106.93 35.0142C106.626 37.8435 107.096 40.7024 108.29 43.2854C112.056 51.3888 113.998 60.2197 113.98 69.1554C113.98 70.2154 113.98 71.2654 113.9 72.3154C113.895 72.402 113.895 72.4888 113.9 72.5754C112.39 105.015 85.18 130.835 52.32 130.835C49.0919 130.831 45.8689 130.577 42.68 130.075C42.43 130.075 42.19 130.075 41.96 130.015L41.23 129.905C38.4457 129.47 35.5955 129.792 32.9782 130.837C30.3609 131.882 28.0729 133.611 26.354 135.845C24.635 138.078 23.5485 140.732 23.2083 143.53C22.868 146.328 23.2865 149.165 24.42 151.745C39.22 185.445 74 208.095 110.97 208.095C118.149 208.085 125.3 207.212 132.27 205.495C138.903 209.074 146.503 210.45 153.97 209.425C162.629 214.85 172.663 217.675 182.88 217.565C196.38 217.565 208.88 212.845 217.48 205.025C220.041 205.592 222.657 205.877 225.28 205.875C231.503 205.862 237.619 204.257 243.045 201.211C248.471 198.165 253.028 193.781 256.28 188.475C270.33 181.845 279.34 168.945 279.34 154.645C279.34 154.435 279.34 154.235 279.34 154.015C279.34 153.795 279.27 153.425 279.27 153.095Z" fill="#DCDDDE"/>
</g>
<g style="mix-blend-mode:multiply" opacity="0.58">
<path d="M281.57 150.785C281.57 131.595 265.35 115.645 244.21 112.785C242.79 112.595 241.36 112.465 239.91 112.395C234.285 106.055 226.767 101.697 218.47 99.9654C214.749 92.9744 208.944 87.3157 201.86 83.7754C196.84 67.0099 187.164 52.0133 173.959 40.5284C160.753 29.0435 144.56 21.5419 127.26 18.8954C124.45 18.4537 121.573 18.7833 118.935 19.849C116.298 20.9146 113.999 22.6764 112.285 24.9463C110.57 27.2161 109.504 29.9089 109.201 32.7372C108.897 35.5655 109.367 38.4232 110.56 41.0054C114.32 49.1104 116.259 57.9407 116.24 66.8754C116.24 67.8754 116.24 68.9754 116.16 70.0254C116.165 70.1153 116.165 70.2054 116.16 70.2954C114.72 102.735 87.45 128.545 54.59 128.545C51.3588 128.545 48.1324 128.294 44.94 127.795C44.69 127.795 44.46 127.795 44.22 127.735L43.49 127.625C40.7099 127.192 37.8644 127.514 35.251 128.556C32.6375 129.598 30.352 131.324 28.6333 133.551C26.9145 135.779 25.8255 138.427 25.4802 141.22C25.1348 144.012 25.5457 146.846 26.67 149.425C41.46 183.125 76.24 205.765 113.22 205.765C120.396 205.76 127.544 204.887 134.51 203.165C141.147 206.744 148.75 208.12 156.22 207.095C164.874 212.523 174.906 215.349 185.12 215.235C198.63 215.235 211.12 210.515 219.72 202.695C222.28 203.269 224.896 203.557 227.52 203.555C233.742 203.538 239.856 201.93 245.281 198.884C250.707 195.839 255.264 191.457 258.52 186.155C272.52 179.525 281.57 166.625 281.57 152.325C281.57 152.115 281.57 151.905 281.57 151.695C281.57 151.485 281.57 151.095 281.57 150.785Z" fill="#D8D9DB"/>
</g>
<g style="mix-blend-mode:multiply" opacity="0.63">
<path d="M283.88 148.485C283.88 129.295 267.65 113.345 246.51 110.485C245.09 110.295 243.66 110.165 242.21 110.085C236.581 103.75 229.065 99.3928 220.77 97.6554C217.053 90.6519 211.248 84.9795 204.16 81.4254C199.139 64.6618 189.465 49.6668 176.262 38.1822C163.058 26.6976 146.868 19.1948 129.57 16.5454C126.759 16.1016 123.881 16.4296 121.242 17.4944C118.603 18.5592 116.302 20.3207 114.587 22.591C112.871 24.8612 111.804 27.5548 111.5 30.3842C111.196 33.2135 111.666 36.0724 112.86 38.6554C116.618 46.761 118.557 55.5909 118.54 64.5254C118.54 65.5854 118.54 66.6354 118.47 67.6854C118.465 67.772 118.465 67.8588 118.47 67.9454C117.07 100.425 89.73 126.225 56.87 126.225C53.6384 126.226 50.4117 125.972 47.22 125.465C46.98 125.465 46.74 125.465 46.51 125.405L45.78 125.295C42.9979 124.866 40.1517 125.193 37.5389 126.24C34.9262 127.288 32.6429 129.018 30.9279 131.25C29.2129 133.483 28.1291 136.135 27.79 138.929C27.4508 141.724 27.8687 144.558 29 147.135C43.8 180.845 78.57 203.485 115.55 203.485C122.725 203.476 129.873 202.603 136.84 200.885C143.477 204.464 151.08 205.84 158.55 204.815C167.209 210.24 177.243 213.065 187.46 212.955C200.96 212.955 213.41 208.235 222.06 200.415C224.621 200.982 227.237 201.267 229.86 201.265C236.082 201.25 242.197 199.643 247.623 196.597C253.049 193.551 257.606 189.169 260.86 183.865C274.86 177.245 283.92 164.345 283.92 150.045C283.92 149.825 283.92 149.625 283.92 149.415C283.92 149.205 283.88 148.795 283.88 148.485Z" fill="#D5D6D7"/>
</g>
<g style="mix-blend-mode:multiply" opacity="0.68">
<path d="M286.18 146.175C286.18 126.995 269.95 111.045 248.81 108.175C247.4 107.985 245.97 107.845 244.51 107.775C238.886 101.439 231.372 97.0807 223.08 95.3454C219.354 88.3588 213.55 82.7017 206.47 79.1554C201.447 62.3911 191.772 47.3957 178.566 35.9112C165.361 24.4266 149.169 16.9242 131.87 14.2754C129.054 13.827 126.169 14.1536 123.525 15.22C120.88 16.2863 118.576 18.0524 116.858 20.3287C115.141 22.605 114.076 25.3058 113.777 28.1415C113.477 30.9771 113.956 33.8408 115.16 36.4254C118.926 44.5288 120.868 53.3597 120.85 62.2954C120.85 63.3554 120.85 64.4054 120.77 65.4554C120.77 65.5354 120.77 65.6254 120.77 65.7154C119.45 98.1154 92 123.925 59.17 123.925C55.9419 123.921 52.7189 123.667 49.53 123.165C49.28 123.165 49.05 123.165 48.81 123.105L48.08 122.995C45.2964 122.562 42.4475 122.885 39.8317 123.931C37.216 124.977 34.9295 126.707 33.2119 128.94C31.4943 131.173 30.4087 133.827 30.0688 136.623C29.7289 139.42 30.1473 142.256 31.28 144.835C46.07 178.535 80.85 201.185 117.82 201.185C124.999 201.175 132.15 200.302 139.12 198.585C145.753 202.164 153.353 203.54 160.82 202.515C169.479 207.939 179.513 210.764 189.73 210.655C203.23 210.655 215.73 205.925 224.33 198.115C226.891 198.682 229.507 198.967 232.13 198.965C238.352 198.95 244.467 197.343 249.893 194.297C255.319 191.251 259.876 186.869 263.13 181.565C277.13 174.935 286.18 162.035 286.18 147.735C286.18 147.525 286.18 147.325 286.18 147.105C286.18 146.885 286.18 146.485 286.18 146.175Z" fill="#D1D3D4"/>
</g>
<g style="mix-blend-mode:multiply" opacity="0.74">
<path d="M288.48 143.875C288.48 124.685 272.26 108.735 251.12 105.875C249.7 105.685 248.27 105.555 246.82 105.485C241.195 99.1454 233.677 94.7867 225.38 93.0554C221.659 86.0644 215.854 80.4057 208.77 76.8654C203.75 60.1005 194.076 45.104 180.873 33.6177C167.669 22.1314 151.478 14.6268 134.18 11.9754C131.369 11.534 128.49 11.8641 125.852 12.9303C123.213 13.9966 120.914 15.759 119.199 18.0297C117.483 20.3003 116.417 22.994 116.112 25.8234C115.808 28.6528 116.277 31.5118 117.47 34.0954C121.229 42.1972 123.168 51.024 123.15 59.9554C123.15 61.0154 123.15 62.0654 123.07 63.1154C123.075 63.2053 123.075 63.2954 123.07 63.3854C121.84 95.8354 94.36 121.635 61.5 121.635C58.2688 121.635 55.0424 121.384 51.85 120.885C51.6 120.885 51.37 120.885 51.13 120.825L50.41 120.705C47.6252 120.272 44.7752 120.596 42.1584 121.643C39.5415 122.689 37.2542 124.42 35.5357 126.653C33.8172 128.887 32.7308 131.542 32.3903 134.339C32.0497 137.137 32.4675 139.975 33.6 142.555C48.39 176.255 83.17 198.895 120.15 198.895C127.325 198.885 134.473 198.012 141.44 196.295C148.077 199.874 155.68 201.25 163.15 200.225C171.804 205.653 181.836 208.479 192.05 208.365C205.56 208.365 218.05 203.645 226.65 195.825C229.21 196.399 231.826 196.687 234.45 196.685C240.673 196.668 246.788 195.059 252.214 192.011C257.64 188.964 262.196 184.58 265.45 179.275C279.45 172.655 288.5 159.755 288.5 145.455C288.5 145.245 288.5 145.035 288.5 144.825C288.5 144.615 288.48 144.185 288.48 143.875Z" fill="#CECFD1"/>
</g>
<g style="mix-blend-mode:multiply" opacity="0.79">
<path d="M290.79 141.575C290.79 122.385 274.56 106.435 253.42 103.575C252 103.385 250.58 103.245 249.12 103.175C243.491 96.8404 235.975 92.4828 227.68 90.7454C223.959 83.7544 218.154 78.0957 211.07 74.5554C206.049 57.7918 196.375 42.7968 183.172 31.3122C169.968 19.8276 153.778 12.3248 136.48 9.67537C133.669 9.23158 130.791 9.55959 128.152 10.6244C125.513 11.6892 123.212 13.4507 121.497 15.721C119.781 17.9912 118.714 20.6848 118.41 23.5142C118.106 26.3435 118.576 29.2024 119.77 31.7854C123.528 39.891 125.467 48.7209 125.45 57.6554C125.45 58.7154 125.45 59.7654 125.38 60.8154C125.375 60.902 125.375 60.9888 125.38 61.0754C124.21 93.5354 96.66 119.335 63.8 119.335C60.5686 119.331 57.3423 119.077 54.15 118.575C53.91 118.575 53.67 118.575 53.44 118.515L52.71 118.405C49.9266 117.968 47.0768 118.287 44.4592 119.33C41.8416 120.372 39.5524 122.099 37.8316 124.33C36.1109 126.561 35.0217 129.214 34.6784 132.01C34.335 134.807 34.75 137.644 35.88 140.225C50.68 173.925 85.45 196.575 122.43 196.575C129.605 196.566 136.753 195.693 143.72 193.975C150.357 197.554 157.96 198.93 165.43 197.905C174.089 203.329 184.123 206.154 194.34 206.045C207.84 206.045 220.29 201.325 228.94 193.505C231.501 194.072 234.117 194.357 236.74 194.355C242.963 194.341 249.078 192.735 254.504 189.69C259.931 186.644 264.487 182.26 267.74 176.955C281.74 170.335 290.8 157.425 290.8 143.135C290.8 142.915 290.8 142.715 290.8 142.495C290.8 142.275 290.79 141.885 290.79 141.575Z" fill="#CACCCD"/>
</g>
<g style="mix-blend-mode:multiply" opacity="0.84">
<path d="M293.09 139.265C293.09 120.085 276.87 104.135 255.72 101.265C254.31 101.075 252.88 100.935 251.42 100.865C245.8 94.5271 238.29 90.1655 230 88.4254C226.277 81.4364 220.472 75.7784 213.39 72.2354C208.367 55.471 198.692 40.4757 185.486 28.9912C172.281 17.5066 156.089 10.0042 138.79 7.35538C135.984 6.91749 133.112 7.24776 130.479 8.3111C127.846 9.37444 125.55 11.1311 123.836 13.3946C122.121 15.658 121.051 18.3437 120.74 21.1663C120.429 23.9889 120.889 26.843 122.07 29.4254C125.837 37.5285 127.779 46.3596 127.76 55.2954C127.76 56.3554 127.76 57.4054 127.68 58.4454C127.68 58.5354 127.68 58.6254 127.68 58.7154C126.58 91.1754 98.97 116.965 66.11 116.965C62.879 116.96 59.653 116.709 56.46 116.215C56.21 116.215 55.98 116.215 55.74 116.155L55.01 116.045C52.2264 115.612 49.3775 115.935 46.7617 116.981C44.146 118.027 41.8595 119.757 40.1419 121.99C38.4243 124.223 37.3387 126.877 36.9988 129.673C36.6589 132.47 37.0772 135.306 38.21 137.885C53 171.585 87.78 194.225 124.76 194.225C131.916 194.227 139.047 193.371 146 191.675C152.64 195.235 160.233 196.611 167.7 195.605C176.36 201.026 186.394 203.847 196.61 203.735C210.12 203.735 222.61 199.015 231.21 191.195C233.77 191.769 236.386 192.058 239.01 192.055C245.232 192.038 251.346 190.43 256.771 187.384C262.197 184.339 266.754 179.957 270.01 174.655C284.01 168.025 293.01 155.125 293.01 140.825C293.01 140.615 293.01 140.405 293.01 140.195C293.01 139.985 293.09 139.575 293.09 139.265Z" fill="#C7C8CA"/>
</g>
<g style="mix-blend-mode:multiply" opacity="0.89">
<path d="M295.39 136.965C295.39 117.775 279.17 101.825 258.03 98.9654C256.61 98.7754 255.18 98.6454 253.73 98.5754C248.107 92.2332 240.588 87.874 232.29 86.1454C228.572 79.1524 222.766 73.4929 215.68 69.9554C210.66 53.1906 200.986 38.194 187.783 26.7078C174.579 15.2215 158.388 7.71676 141.09 5.06538C138.279 4.62402 135.4 4.95407 132.762 6.02031C130.123 7.08656 127.824 8.84901 126.109 11.1197C124.393 13.3903 123.327 16.084 123.022 18.9134C122.718 21.7428 123.187 24.6018 124.38 27.1854C128.139 35.2872 130.078 44.114 130.06 53.0454C130.06 54.1054 130.06 55.1554 129.99 56.2054C129.985 56.2953 129.985 56.3854 129.99 56.4754C128.99 88.9254 101.27 114.725 68.41 114.725C65.179 114.719 61.9531 114.469 58.76 113.975C58.52 113.975 58.28 113.975 58.04 113.905L57.32 113.795C54.5361 113.36 51.6865 113.682 49.0694 114.725C46.4522 115.769 44.1637 117.497 42.4434 119.729C40.723 121.96 39.634 124.613 39.2904 127.41C38.9467 130.206 39.3611 133.044 40.49 135.625C55.29 169.325 90.06 191.965 127.04 191.965C134.215 191.955 141.363 191.083 148.33 189.365C154.955 192.936 162.543 194.312 170 193.295C178.686 198.733 188.753 201.556 199 201.425C212.5 201.425 225 196.705 233.6 188.885C236.161 189.457 238.777 189.742 241.4 189.735C247.622 189.72 253.737 188.113 259.163 185.067C264.589 182.021 269.146 177.639 272.4 172.335C286.4 165.715 295.45 152.815 295.45 138.515C295.45 138.295 295.45 138.095 295.45 137.885C295.45 137.675 295.39 137.275 295.39 136.965Z" fill="#C3C5C7"/>
</g>
<g style="mix-blend-mode:multiply" opacity="0.95">
<path d="M297.7 134.665C297.7 115.475 281.47 99.5254 260.33 96.6654C258.92 96.4754 257.49 96.3354 256.03 96.2654C250.406 89.9289 242.892 85.5708 234.6 83.8354C230.881 76.8417 225.08 71.177 218 67.6254C212.979 50.8618 203.305 35.8668 190.102 24.3822C176.898 12.8976 160.708 5.39482 143.41 2.74537C140.599 2.30158 137.721 2.62959 135.082 3.69438C132.443 4.75916 130.143 6.52073 128.427 8.79096C126.711 11.0612 125.644 13.7548 125.34 16.5842C125.036 19.4135 125.506 22.2724 126.7 24.8554C130.461 32.9604 132.403 41.7902 132.39 50.7254C132.39 51.7854 132.39 52.8354 132.31 53.8854C132.305 53.972 132.305 54.0588 132.31 54.1454C131.31 86.6054 103.59 112.405 70.73 112.405C67.4988 112.396 64.2729 112.142 61.08 111.645C60.84 111.645 60.6 111.645 60.37 111.585L59.64 111.475C56.8556 111.039 54.005 111.36 51.3874 112.404C48.7698 113.449 46.4818 115.179 44.7633 117.413C43.0449 119.647 41.9596 122.303 41.6211 125.101C41.2827 127.899 41.7037 130.736 42.84 133.315C57.63 167.015 92.4 189.665 129.38 189.665C136.555 189.656 143.703 188.783 150.67 187.065C157.307 190.644 164.91 192.02 172.38 190.995C181.039 196.419 191.073 199.244 201.29 199.135C214.79 199.135 227.29 194.405 235.89 186.595C238.451 187.162 241.067 187.447 243.69 187.445C249.912 187.429 256.026 185.821 261.452 182.776C266.878 179.73 271.435 175.348 274.69 170.045C288.69 163.415 297.74 150.515 297.74 136.215C297.74 136.005 297.74 135.805 297.74 135.585C297.74 135.365 297.7 134.965 297.7 134.665Z" fill="#C0C1C3"/>
</g>
<g style="mix-blend-mode:multiply">
<path d="M300 132.355C300 113.165 283.78 97.2154 262.63 94.3554C261.22 94.1554 259.79 94.0254 258.33 93.9554C252.709 87.6156 245.194 83.2567 236.9 81.5254C233.181 74.5307 227.375 68.8683 220.29 65.3254C215.271 48.5573 205.596 33.5578 192.391 22.0695C179.186 10.5812 162.991 3.0758 145.69 0.425373C142.878 -0.016429 139.999 0.314007 137.36 1.38137C134.722 2.44874 132.423 4.21293 130.709 6.48545C128.995 8.75798 127.931 11.4534 127.63 14.2838C127.329 17.1143 127.802 19.9733 129 22.5554C132.756 30.6612 134.692 39.4915 134.67 48.4254C134.67 49.4254 134.67 50.5354 134.59 51.5754C134.59 51.6654 134.59 51.7554 134.59 51.8454C133.699 67.5816 126.823 82.3813 115.372 93.2115C103.921 104.042 88.7614 110.082 73 110.095C69.7688 110.095 66.5425 109.844 63.35 109.345C63.1 109.345 62.87 109.345 62.63 109.285L61.9 109.175C59.1164 108.742 56.2675 109.065 53.6518 110.111C51.036 111.157 48.7495 112.887 47.0319 115.12C45.3143 117.353 44.2287 120.007 43.8888 122.803C43.5489 125.6 43.9673 128.436 45.1 131.015C59.89 164.715 94.67 187.355 131.65 187.355C138.824 187.343 145.972 186.474 152.94 184.765C158.118 187.546 163.902 189.006 169.78 189.015C171.405 189.015 173.029 188.908 174.64 188.695C183.301 194.115 193.334 196.936 203.55 196.825C217.06 196.825 229.55 192.105 238.15 184.285C240.71 184.859 243.326 185.148 245.95 185.145C252.172 185.128 258.286 183.52 263.711 180.474C269.137 177.429 273.694 173.047 276.95 167.745C290.95 161.115 300 148.215 300 133.915C300 133.705 300 133.495 300 133.285C300 133.075 300 132.665 300 132.355Z" fill="#BCBEC0"/>
</g>
</g>
<path d="M298.5 133.865C298.5 114.675 282.26 98.7254 261.12 95.8654C259.71 95.6654 258.28 95.5354 256.83 95.4654C251.205 89.1254 243.687 84.7667 235.39 83.0354C231.672 76.0424 225.866 70.3829 218.78 66.8454C213.762 50.0774 204.088 35.0781 190.882 23.5912C177.676 12.1042 161.481 4.60157 144.18 1.95537C141.369 1.5147 138.492 1.8455 135.855 2.91247C133.217 3.97943 130.919 5.74251 129.206 8.01351C127.492 10.2845 126.428 12.9782 126.125 15.807C125.823 18.6359 126.295 21.4937 127.49 24.0754C131.244 32.1788 133.183 41.0046 133.17 49.9354C133.17 50.9954 133.17 52.0454 133.08 53.0954C133.085 53.1853 133.085 53.2754 133.08 53.3654C132.189 69.0982 125.316 83.8949 113.87 94.7246C102.423 105.554 87.268 111.597 71.51 111.615C68.2788 111.615 65.0525 111.364 61.86 110.865C61.62 110.865 61.38 110.865 61.14 110.805L60.42 110.685C57.6349 110.251 54.7842 110.572 52.166 111.617C49.5478 112.661 47.2584 114.39 45.5371 116.622C43.8159 118.854 42.7262 121.508 42.3819 124.306C42.0376 127.104 42.4514 129.942 43.58 132.525C58.38 166.225 93.17 188.865 130.14 188.865C137.316 188.86 144.464 187.987 151.43 186.265C158.063 189.844 165.663 191.22 173.13 190.195C181.778 195.611 191.797 198.436 202 198.335C215.51 198.335 228 193.615 236.6 185.795C239.16 186.369 241.776 186.657 244.4 186.655C250.623 186.639 256.739 185.031 262.165 181.984C267.591 178.936 272.148 174.551 275.4 169.245C289.48 162.625 298.5 149.725 298.5 135.425C298.5 135.215 298.5 135.005 298.5 134.785C298.5 134.565 298.5 134.175 298.5 133.865Z" fill="white"/>
<path d="M300 132.355C300 113.165 283.78 97.2154 262.63 94.3554C261.22 94.1554 259.79 94.0254 258.33 93.9554C252.709 87.6156 245.194 83.2567 236.9 81.5254C233.181 74.5307 227.375 68.8683 220.29 65.3254C215.271 48.5573 205.596 33.5578 192.391 22.0695C179.186 10.5812 162.991 3.0758 145.69 0.425373C142.878 -0.016429 139.999 0.314007 137.36 1.38137C134.722 2.44874 132.423 4.21293 130.709 6.48545C128.995 8.75798 127.931 11.4534 127.63 14.2838C127.329 17.1143 127.802 19.9733 129 22.5554C132.756 30.6612 134.692 39.4915 134.67 48.4254C134.67 49.4254 134.67 50.5354 134.59 51.5754C134.59 51.6654 134.59 51.7554 134.59 51.8454C133.699 67.5816 126.823 82.3813 115.372 93.2115C103.921 104.042 88.7614 110.082 73 110.095C69.7688 110.095 66.5425 109.844 63.35 109.345C63.1 109.345 62.87 109.345 62.63 109.285L61.9 109.175C59.1164 108.742 56.2675 109.065 53.6518 110.111C51.036 111.157 48.7495 112.887 47.0319 115.12C45.3143 117.353 44.2287 120.007 43.8888 122.803C43.5489 125.6 43.9673 128.436 45.1 131.015C59.89 164.715 94.67 187.355 131.65 187.355C138.824 187.343 145.972 186.474 152.94 184.765C158.118 187.546 163.902 189.006 169.78 189.015C171.405 189.015 173.029 188.908 174.64 188.695C183.301 194.115 193.334 196.936 203.55 196.825C217.06 196.825 229.55 192.105 238.15 184.285C240.71 184.859 243.326 185.148 245.95 185.145C252.172 185.128 258.286 183.52 263.711 180.474C269.137 177.429 273.694 173.047 276.95 167.745C290.95 161.115 300 148.215 300 133.915C300 133.705 300 133.495 300 133.285C300 133.075 300 132.665 300 132.355Z" fill="url(#paint0_linear)"/>
<path d="M145.21 17.4254C149.79 27.2954 151.94 39.0554 151.94 50.6554C151.94 93.3954 115.74 128.515 73 128.515C69.38 128.515 64.39 125.385 60.91 124.905C60.42 124.845 59.96 124.775 59.48 124.695C71.78 152.695 100.48 171.645 131.65 171.645C174.39 171.645 208.55 135.965 208.55 95.1154C208.55 56.4854 182.22 23.2254 145.21 17.4254Z" fill="#D89F00"/>
<path d="M143.25 15.9654C149.13 28.691 151.442 42.7746 149.941 56.7123C148.44 70.6499 143.181 83.9181 134.727 95.0999C126.272 106.282 114.939 114.957 101.938 120.199C88.9371 125.442 74.7562 127.055 60.91 124.865C66.517 137.001 75.1719 147.477 86.0315 155.273C96.8911 163.069 109.585 167.919 122.876 169.351C136.168 170.782 149.603 168.746 161.874 163.442C174.145 158.137 184.832 149.744 192.894 139.081C200.957 128.417 206.12 115.848 207.88 102.596C209.64 89.3439 207.938 75.862 202.938 63.4638C197.939 51.0656 189.813 40.1739 179.353 31.8498C168.892 23.5257 156.454 18.0531 143.25 15.9654Z" fill="#FFBB00"/>
<g style="mix-blend-mode:screen" opacity="0.2">
<path d="M127.4 103.425C133.253 102.666 139.148 102.285 145.05 102.285C168.25 102.285 189.25 107.975 204.47 117.175C208.075 106.504 209.308 95.1749 208.082 83.9781C206.855 72.7814 203.2 61.9873 197.37 52.3496C191.54 42.7119 183.677 34.4629 174.33 28.1786C164.982 21.8943 154.375 17.7262 143.25 15.9654C149.919 30.4047 151.976 46.5487 149.14 62.199C146.304 77.8492 138.712 92.2448 127.4 103.425Z" fill="#FFBB00"/>
</g>
<path d="M255.77 111.155C253.918 111.155 252.069 111.299 250.24 111.585C248.339 107.482 245.297 104.013 241.477 101.593C237.658 99.172 233.222 97.9024 228.7 97.9354C227.643 97.9459 226.587 98.0227 225.54 98.1654C223.99 87.2354 215.17 78.8454 204.54 78.8454C194.41 78.8454 185.94 86.3854 183.77 96.4954C182.02 95.9985 180.21 95.7428 178.39 95.7354C167.32 95.7354 158.21 104.735 157.16 116.275C154.021 114.363 150.416 113.353 146.74 113.355C134.97 113.355 125.41 123.545 125.41 136.125C125.41 148.705 134.97 158.885 146.74 158.885C147.799 158.878 148.856 158.785 149.9 158.605C152.9 167.195 160.7 173.305 169.82 173.305C172.736 173.305 175.617 172.667 178.26 171.435C183.88 177.285 193.12 181.115 203.59 181.115C217.59 181.115 229.42 174.275 233.24 164.885C236.851 167.81 241.353 169.412 246 169.425C254.93 169.425 262.56 163.555 265.74 155.255C276.6 152.035 284.34 143.695 284.34 133.905C284.29 121.345 271.52 111.155 255.77 111.155Z" fill="#A3BAD4"/>
<path d="M255.77 109.595C253.918 109.595 252.069 109.739 250.24 110.025C248.333 105.931 245.288 102.471 241.469 100.06C237.649 97.6485 233.217 96.3868 228.7 96.4254C227.643 96.4359 226.587 96.5127 225.54 96.6554C223.99 85.7154 215.17 77.3354 204.54 77.3354C194.41 77.3354 185.94 84.8754 183.77 94.9754C182.018 94.4864 180.209 94.2342 178.39 94.2254C167.32 94.2254 158.21 103.225 157.16 114.755C154.018 112.851 150.414 111.844 146.74 111.845C134.97 111.845 125.41 122.035 125.41 134.605C125.41 147.175 134.97 157.375 146.74 157.375C147.799 157.368 148.856 157.275 149.9 157.095C152.9 165.675 160.7 171.795 169.82 171.795C172.736 171.795 175.617 171.157 178.26 169.925C183.88 175.775 193.12 179.605 203.59 179.605C217.59 179.605 229.42 172.765 233.24 163.375C236.856 166.286 241.358 167.874 246 167.875C254.93 167.875 262.56 162.015 265.74 153.705C276.6 150.485 284.34 142.145 284.34 132.355C284.29 119.785 271.52 109.595 255.77 109.595Z" fill="#B8D9FF"/>
<g style="mix-blend-mode:screen" opacity="0.2">
<path d="M204.84 128.255C234.38 128.255 261.61 131.845 283.43 137.885C283.999 136.097 284.289 134.232 284.29 132.355C284.29 119.785 271.52 109.595 255.77 109.595C253.918 109.595 252.069 109.739 250.24 110.025C248.333 105.931 245.288 102.471 241.469 100.06C237.649 97.6485 233.217 96.3868 228.7 96.4254C227.643 96.4359 226.587 96.5127 225.54 96.6554C223.99 85.7154 215.17 77.3354 204.54 77.3354C194.41 77.3354 185.94 84.8754 183.77 94.9754C182.018 94.4864 180.209 94.2342 178.39 94.2254C167.32 94.2254 158.21 103.225 157.16 114.755C154.018 112.851 150.414 111.844 146.74 111.845C134.97 111.845 125.41 122.035 125.41 134.605C125.42 135.774 125.517 136.941 125.7 138.095C147.58 131.905 175 128.255 204.84 128.255Z" fill="#B8D9FF"/>
</g>
<path style="mix-blend-mode:multiply" d="M300 132.355C300 113.165 283.78 97.2154 262.63 94.3554C261.22 94.1554 259.79 94.0254 258.33 93.9554C252.709 87.6156 245.194 83.2567 236.9 81.5254C233.181 74.5307 227.375 68.8683 220.29 65.3254C215.271 48.5573 205.596 33.5578 192.391 22.0695C179.186 10.5812 162.991 3.0758 145.69 0.425373C142.878 -0.016429 139.999 0.314007 137.36 1.38137C134.722 2.44874 132.423 4.21293 130.709 6.48545C128.995 8.75798 127.931 11.4534 127.63 14.2838C127.329 17.1143 127.802 19.9733 129 22.5554C132.756 30.6612 134.692 39.4915 134.67 48.4254C134.67 49.4254 134.67 50.5354 134.59 51.5754C134.59 51.6654 134.59 51.7554 134.59 51.8454C133.699 67.5816 126.823 82.3813 115.372 93.2115C103.921 104.042 88.7614 110.082 73 110.095C69.7688 110.095 66.5425 109.844 63.35 109.345C63.1 109.345 62.87 109.345 62.63 109.285L61.9 109.175C59.1164 108.742 56.2675 109.065 53.6518 110.111C51.036 111.157 48.7495 112.887 47.0319 115.12C45.3143 117.353 44.2287 120.007 43.8888 122.803C43.5489 125.6 43.9673 128.436 45.1 131.015C59.89 164.715 94.67 187.355 131.65 187.355C138.824 187.343 145.972 186.474 152.94 184.765C158.118 187.546 163.902 189.006 169.78 189.015C171.405 189.015 173.029 188.908 174.64 188.695C183.301 194.115 193.334 196.936 203.55 196.825C217.06 196.825 229.55 192.105 238.15 184.285C240.71 184.859 243.326 185.148 245.95 185.145C252.172 185.128 258.286 183.52 263.711 180.474C269.137 177.429 273.694 173.047 276.95 167.745C290.95 161.115 300 148.215 300 133.915C300 133.705 300 133.495 300 133.285C300 133.075 300 132.665 300 132.355Z" fill="url(#paint1_linear)"/>
</g>
<defs>
<linearGradient id="paint0_linear" x1="97.22" y1="195.465" x2="229.23" y2="63.4554" gradientUnits="userSpaceOnUse">
<stop stop-color="#E6E6E6"/>
<stop offset="1" stop-color="#FAFAFA"/>
</linearGradient>
<linearGradient id="paint1_linear" x1="81.76" y1="210.925" x2="255.39" y2="37.2953" gradientUnits="userSpaceOnUse">
<stop offset="0.39" stop-color="white"/>
<stop offset="0.5" stop-color="#FCFCFC"/>
<stop offset="0.58" stop-color="#F3F3F3"/>
<stop offset="0.65" stop-color="#E3E3E3"/>
<stop offset="0.71" stop-color="#CECECE"/>
<stop offset="0.72" stop-color="#C9C9C9"/>
<stop offset="0.76" stop-color="#C9C9C9"/>
<stop offset="0.99" stop-color="#C9C9C9"/>
</linearGradient>
<clipPath id="clip0">
<rect width="300" height="240.34" fill="white" transform="translate(0 0.255371)"/>
</clipPath>
</defs>
</svg>
