<svg width="190" height="300" viewBox="0 0 190 300" fill="none" xmlns="http://www.w3.org/2000/svg">
<g clip-path="url(#clip0)">
<g style="mix-blend-mode:multiply">
<g style="mix-blend-mode:multiply" opacity="0.05">
<path d="M138 226.94C137.992 214.944 134.77 203.169 128.67 192.84C131.109 190.813 133.07 188.272 134.413 185.399C135.756 182.526 136.448 179.391 136.44 176.22C136.44 176.07 136.44 175.94 136.44 175.79C136.44 175.64 136.44 175.52 136.44 175.38C136.447 172.181 135.742 169.021 134.376 166.129C133.009 163.237 131.016 160.686 128.54 158.66C131.016 156.633 133.01 154.08 134.377 151.186C135.743 148.292 136.448 145.13 136.44 141.93C136.44 141.8 136.44 141.66 136.44 141.52C136.44 141.38 136.44 141.24 136.44 141.1C136.447 137.9 135.741 134.739 134.375 131.845C133.008 128.951 131.015 126.398 128.54 124.37C131.016 122.347 133.01 119.797 134.376 116.907C135.743 114.016 136.448 110.857 136.44 107.66C136.44 107.52 136.44 107.38 136.44 107.23C136.44 107.08 136.44 106.96 136.44 106.82C136.485 101.62 134.619 96.5849 131.195 92.6709C127.772 88.757 123.03 86.237 117.87 85.59C114.111 74.3585 106.478 64.8309 96.3374 58.7113C86.1969 52.5917 74.21 50.2793 62.5208 52.1878C50.8316 54.0964 40.2027 60.1012 32.5352 69.1284C24.8677 78.1555 20.6619 89.616 20.67 101.46V181.7C9.40132 194.071 3.16318 210.206 3.18 226.94C3.18 227.55 3.18 228.15 3.18 228.74C3.18 229.07 3.18 229.39 3.18 229.74C3.18 247.618 10.2821 264.764 22.9239 277.406C35.5658 290.048 52.7118 297.15 70.59 297.15C88.4682 297.15 105.614 290.048 118.256 277.406C130.898 264.764 138 247.618 138 229.74C138 229.42 138 229.1 138 228.74C137.93 228.15 138 227.55 138 226.94Z" fill="#FBFCFC"/>
</g>
<g style="mix-blend-mode:multiply" opacity="0.11">
<path d="M140.86 224.08C140.851 212.09 137.629 200.322 131.53 190C133.969 187.972 135.93 185.432 137.273 182.559C138.616 179.686 139.308 176.551 139.3 173.38C139.3 173.23 139.3 173.1 139.3 172.95C139.3 172.8 139.3 172.67 139.3 172.54C139.309 169.341 138.605 166.18 137.238 163.288C135.872 160.395 133.877 157.844 131.4 155.82C133.878 153.794 135.873 151.241 137.24 148.347C138.606 145.453 139.31 142.29 139.3 139.09C139.3 138.95 139.3 138.82 139.3 138.67C139.3 138.52 139.3 138.39 139.3 138.26C139.309 135.059 138.605 131.897 137.239 129.003C135.872 126.109 133.877 123.556 131.4 121.53C133.878 119.506 135.873 116.955 137.239 114.063C138.606 111.17 139.31 108.009 139.3 104.81C139.3 104.67 139.3 104.54 139.3 104.39C139.3 104.24 139.3 104.12 139.3 103.97C139.35 98.7667 137.486 93.7265 134.062 89.8083C130.638 85.8901 125.893 83.3673 120.73 82.7199C116.97 71.4876 109.337 61.9594 99.1953 55.8399C89.0537 49.7203 77.0657 47.4087 65.3759 49.3185C53.686 51.2284 43.057 57.235 35.3903 66.264C27.7237 75.2929 23.5195 86.7551 23.53 98.5999V178.83C12.264 191.206 6.02649 207.344 6.04 224.08C6.04 224.69 6.04 225.28 6.04 225.88C6.04 226.21 6.04 226.53 6.04 226.88C6.04 244.758 13.1421 261.904 25.7839 274.546C38.4258 287.188 55.5718 294.29 73.45 294.29C91.3282 294.29 108.474 287.188 121.116 274.546C133.758 261.904 140.86 244.758 140.86 226.88C140.86 226.56 140.86 226.24 140.86 225.88C140.84 225.28 140.86 224.69 140.86 224.08Z" fill="#F8F8F8"/>
</g>
<g style="mix-blend-mode:multiply" opacity="0.16">
<path d="M143.73 221.22C143.725 209.219 140.499 197.439 134.39 187.11C136.829 185.083 138.79 182.542 140.133 179.669C141.476 176.796 142.168 173.661 142.16 170.49C142.16 170.35 142.16 170.21 142.16 170.07C142.16 169.93 142.16 169.79 142.16 169.65C142.169 166.452 141.465 163.293 140.098 160.402C138.732 157.511 136.737 154.962 134.26 152.94C136.738 150.912 138.733 148.358 140.1 145.462C141.466 142.566 142.17 139.402 142.16 136.2C142.16 136.07 142.16 135.94 142.16 135.79C142.16 135.64 142.16 135.51 142.16 135.37C142.168 132.171 141.463 129.011 140.097 126.119C138.73 123.226 136.736 120.675 134.26 118.65C136.738 116.626 138.733 114.075 140.099 111.183C141.466 108.29 142.17 105.129 142.16 101.93C142.16 101.79 142.16 101.66 142.16 101.51C142.16 101.36 142.16 101.24 142.16 101.09C142.205 95.8902 140.339 90.8549 136.915 86.9409C133.492 83.0269 128.75 80.507 123.59 79.86C119.836 68.6226 112.205 59.0884 102.063 52.9644C91.9203 46.8404 79.9293 44.5265 68.2366 46.4369C56.5439 48.3474 45.913 54.3576 38.2474 63.3912C30.5818 72.4249 26.382 83.8922 26.4 95.74V176C15.1449 188.37 8.91462 204.496 8.92999 221.22C8.92999 221.82 8.92999 222.42 8.92999 223.01C8.92999 223.34 8.92999 223.66 8.92999 224.01C8.82132 232.932 10.4848 241.787 13.824 250.062C17.1631 258.336 22.1116 265.865 28.3824 272.213C34.6533 278.561 42.1218 283.6 50.3549 287.04C58.5881 290.48 67.4222 292.251 76.345 292.251C85.2678 292.251 94.1019 290.48 102.335 287.04C110.568 283.6 118.037 278.561 124.308 272.213C130.578 265.865 135.527 258.336 138.866 250.062C142.205 241.787 143.869 232.932 143.76 224.01C143.76 223.68 143.76 223.36 143.76 223.01C143.7 222.42 143.73 221.82 143.73 221.22Z" fill="#F4F5F5"/>
</g>
<g style="mix-blend-mode:multiply" opacity="0.21">
<path d="M146.59 218.35C146.583 206.354 143.361 194.579 137.26 184.25C139.699 182.223 141.66 179.682 143.003 176.809C144.346 173.936 145.038 170.801 145.03 167.63C145.03 167.48 145.03 167.35 145.03 167.2C145.03 167.05 145.03 166.93 145.03 166.79C145.037 163.591 144.332 160.431 142.966 157.539C141.599 154.647 139.606 152.095 137.13 150.07C139.606 148.043 141.6 145.49 142.967 142.596C144.333 139.702 145.038 136.54 145.03 133.34C145.03 133.21 145.03 133.07 145.03 132.93C145.03 132.79 145.03 132.65 145.03 132.51C145.037 129.31 144.331 126.149 142.965 123.255C141.598 120.361 139.605 117.808 137.13 115.78C139.605 113.756 141.599 111.207 142.965 108.316C144.332 105.426 145.037 102.267 145.03 99.0699C145.03 98.9299 145.03 98.7899 145.03 98.6399C145.03 98.4899 145.03 98.3699 145.03 98.2199C145.071 93.0224 143.202 87.9908 139.779 84.0794C136.356 80.168 131.617 77.6489 126.46 76.9999C122.7 65.7676 115.067 56.2395 104.925 50.1199C94.7837 44.0004 82.7957 41.6887 71.1059 43.5986C59.416 45.5084 48.787 51.5151 41.1203 60.544C33.4537 69.573 29.2495 81.0351 29.26 92.8799V173.12C17.9846 185.486 11.7454 201.625 11.77 218.36C11.77 218.97 11.77 219.56 11.77 220.16C11.77 220.49 11.77 220.81 11.77 221.16C11.77 239.038 18.8721 256.184 31.5139 268.826C44.1558 281.468 61.3018 288.57 79.18 288.57C97.0582 288.57 114.204 281.468 126.846 268.826C139.488 256.184 146.59 239.038 146.59 221.16C146.59 220.84 146.59 220.52 146.59 220.16C146.56 219.55 146.59 219 146.59 218.35Z" fill="#F1F1F2"/>
</g>
<g style="mix-blend-mode:multiply" opacity="0.26">
<path d="M149.45 215.49C149.445 203.494 146.223 191.718 140.12 181.39C142.566 179.364 144.535 176.823 145.885 173.949C147.235 171.074 147.933 167.936 147.93 164.76C147.93 164.62 147.93 164.49 147.93 164.34C147.93 164.19 147.93 164.07 147.93 163.93C147.939 160.731 147.235 157.57 145.868 154.678C144.502 151.785 142.507 149.234 140.03 147.21C142.508 145.184 144.503 142.631 145.87 139.737C147.236 136.843 147.94 133.681 147.93 130.48C147.93 130.35 147.93 130.21 147.93 130.06C147.93 129.91 147.93 129.78 147.93 129.65C147.939 126.45 147.235 123.287 145.869 120.393C144.502 117.499 142.507 114.946 140.03 112.92C142.508 110.896 144.503 108.345 145.869 105.453C147.236 102.56 147.94 99.3991 147.93 96.2C147.93 96.06 147.93 95.93 147.93 95.78C147.93 95.63 147.93 95.51 147.93 95.36C147.975 90.1602 146.109 85.1249 142.685 81.2109C139.262 77.297 134.52 74.7771 129.36 74.13C125.622 62.8688 117.994 53.3082 107.843 47.1643C97.6923 41.0204 85.6841 38.6955 73.9738 40.6066C62.2634 42.5178 51.6176 48.54 43.947 57.5925C36.2764 66.6449 32.0832 78.1348 32.12 90V170.23C20.8517 182.609 14.614 198.751 14.63 215.49C14.63 216.1 14.63 216.69 14.63 217.29C14.63 217.62 14.63 217.94 14.63 218.29C14.63 236.168 21.7321 253.314 34.3739 265.956C47.0157 278.598 64.1617 285.7 82.04 285.7C99.9182 285.7 117.064 278.598 129.706 265.956C142.348 253.314 149.45 236.168 149.45 218.29C149.45 217.97 149.45 217.65 149.45 217.29C149.43 216.69 149.45 216.1 149.45 215.49Z" fill="#EDEEEE"/>
</g>
<g style="mix-blend-mode:multiply" opacity="0.32">
<path d="M152.32 212.63C152.315 200.629 149.089 188.849 142.98 178.52C145.419 176.493 147.38 173.952 148.723 171.079C150.066 168.206 150.758 165.071 150.75 161.9C150.75 161.76 150.75 161.62 150.75 161.48C150.75 161.34 150.75 161.2 150.75 161.06C150.758 157.861 150.053 154.701 148.687 151.809C147.32 148.916 145.326 146.365 142.85 144.34C145.328 142.314 147.323 139.761 148.69 136.867C150.056 133.973 150.76 130.811 150.75 127.61C150.75 127.48 150.75 127.34 150.75 127.2C150.75 127.06 150.75 126.92 150.75 126.78C150.759 123.581 150.055 120.42 148.688 117.528C147.322 114.635 145.327 112.084 142.85 110.06C145.328 108.036 147.323 105.485 148.689 102.593C150.056 99.7002 150.76 96.5391 150.75 93.34C150.75 93.2 150.75 93.07 150.75 92.92C150.75 92.77 150.75 92.65 150.75 92.5C150.798 87.2996 148.932 82.2631 145.508 78.3487C142.084 74.4343 137.34 71.915 132.18 71.27C128.426 60.0327 120.795 50.4985 110.653 44.3744C100.51 38.2504 88.5193 35.9365 76.8266 37.847C65.1339 39.7575 54.503 45.7676 46.8374 54.8013C39.1718 63.835 34.972 75.3023 34.99 87.15V167.38C23.717 179.753 17.4753 195.892 17.49 212.63C17.49 213.23 17.49 213.83 17.49 214.42C17.49 214.75 17.49 215.07 17.49 215.42C17.3813 224.342 19.0448 233.197 22.384 241.472C25.7231 249.746 30.6716 257.275 36.9424 263.623C43.2133 269.971 50.6818 275.01 58.9149 278.45C67.1481 281.89 75.9822 283.661 84.905 283.661C93.8278 283.661 102.662 281.89 110.895 278.45C119.128 275.01 126.597 269.971 132.868 263.623C139.138 257.275 144.087 249.746 147.426 241.472C150.765 233.197 152.429 224.342 152.32 215.42C152.32 215.09 152.32 214.77 152.32 214.42C152.29 213.83 152.32 213.23 152.32 212.63Z" fill="#EAEAEB"/>
</g>
<g style="mix-blend-mode:multiply" opacity="0.37">
<path d="M155.18 209.76C155.176 197.762 151.95 185.985 145.84 175.66C148.287 173.63 150.254 171.083 151.599 168.203C152.944 165.322 153.634 162.179 153.62 159C153.62 158.85 153.62 158.72 153.62 158.57C153.62 158.42 153.62 158.3 153.62 158.16C153.627 154.961 152.922 151.801 151.556 148.909C150.189 146.017 148.196 143.465 145.72 141.44C148.196 139.413 150.19 136.86 151.557 133.966C152.923 131.072 153.628 127.91 153.62 124.71C153.62 124.58 153.62 124.44 153.62 124.3C153.62 124.16 153.62 124.02 153.62 123.88C153.626 120.68 152.92 117.519 151.554 114.625C150.188 111.732 148.195 109.178 145.72 107.15C148.196 105.127 150.19 102.577 151.556 99.6868C152.923 96.7962 153.628 93.6373 153.62 90.44C153.62 90.29 153.62 90.16 153.62 90.02C153.62 89.88 153.62 89.74 153.62 89.59C153.653 84.3976 151.782 79.3733 148.359 75.4682C144.937 71.5631 140.202 69.0483 135.05 68.4C131.29 57.1677 123.657 47.6395 113.515 41.5199C103.374 35.4004 91.3857 33.0888 79.6959 34.9986C68.006 36.9084 57.377 42.9151 49.7103 51.944C42.0437 60.973 37.8395 72.4351 37.85 84.28V164.52C26.5746 176.886 20.3354 193.025 20.36 209.76C20.36 210.37 20.36 210.96 20.36 211.56C20.36 211.89 20.36 212.21 20.36 212.56C20.36 230.438 27.4621 247.584 40.1039 260.226C52.7458 272.868 69.8917 279.97 87.77 279.97C105.648 279.97 122.794 272.868 135.436 260.226C148.078 247.584 155.18 230.438 155.18 212.56C155.18 212.24 155.18 211.92 155.18 211.56C155.15 211 155.18 210.37 155.18 209.76Z" fill="#E6E7E8"/>
</g>
<g style="mix-blend-mode:multiply" opacity="0.42">
<path d="M158.04 206.9C158.039 194.903 154.817 183.126 148.71 172.8C151.149 170.771 153.11 168.228 154.453 165.353C155.796 162.479 156.488 159.343 156.48 156.17C156.48 156.03 156.48 155.9 156.48 155.75C156.48 155.6 156.48 155.48 156.48 155.34C156.489 152.141 155.785 148.98 154.418 146.088C153.052 143.195 151.057 140.644 148.58 138.62C151.058 136.594 153.053 134.041 154.42 131.147C155.786 128.253 156.49 125.091 156.48 121.89C156.48 121.76 156.48 121.62 156.48 121.47C156.48 121.32 156.48 121.19 156.48 121.06C156.489 117.86 155.785 114.697 154.419 111.803C153.052 108.909 151.057 106.356 148.58 104.33C151.058 102.306 153.053 99.7553 154.419 96.8627C155.786 93.9702 156.49 90.8091 156.48 87.61C156.48 87.47 156.48 87.34 156.48 87.19C156.48 87.04 156.48 86.92 156.48 86.77C156.526 81.5732 154.662 76.5404 151.243 72.6269C147.823 68.7134 143.086 66.1915 137.93 65.54C134.17 54.3077 126.537 44.7795 116.395 38.66C106.254 32.5404 94.2657 30.2288 82.5759 32.1386C70.886 34.0484 60.257 40.0551 52.5903 49.0841C44.9236 58.113 40.7195 69.5752 40.73 81.42V161.65C29.4567 174.023 23.2119 190.161 23.22 206.9C23.22 207.51 23.22 208.1 23.22 208.7C23.22 209.03 23.22 209.35 23.22 209.7C23.22 227.578 30.3221 244.724 42.9639 257.366C55.6057 270.008 72.7517 277.11 90.63 277.11C108.508 277.11 125.654 270.008 138.296 257.366C150.938 244.724 158.04 227.578 158.04 209.7C158.04 209.38 158.04 209.06 158.04 208.7C158.02 208.1 158.04 207.51 158.04 206.9Z" fill="#E3E4E4"/>
</g>
<g style="mix-blend-mode:multiply" opacity="0.47">
<path d="M160.93 204C160.925 191.999 157.699 180.219 151.59 169.89C154.029 167.863 155.99 165.322 157.333 162.449C158.676 159.576 159.368 156.441 159.36 153.27C159.36 153.13 159.36 152.99 159.36 152.85C159.36 152.71 159.36 152.57 159.36 152.43C159.368 149.232 158.664 146.073 157.299 143.181C155.934 140.289 153.943 137.737 151.47 135.71C153.939 133.683 155.926 131.131 157.287 128.241C158.648 125.351 159.349 122.195 159.34 119C159.34 118.87 159.34 118.73 159.34 118.59C159.34 118.45 159.34 118.31 159.34 118.17C159.348 114.972 158.645 111.812 157.28 108.92C155.915 106.028 153.924 103.476 151.45 101.45C153.924 99.4235 155.915 96.8716 157.28 93.9795C158.645 91.0875 159.348 87.9279 159.34 84.73C159.34 84.59 159.34 84.45 159.34 84.31C159.34 84.17 159.34 84.04 159.34 83.89C159.388 78.6896 157.522 73.6531 154.098 69.7387C150.674 65.8243 145.93 63.305 140.77 62.66C137.016 51.421 129.383 41.8857 119.238 35.7618C109.094 29.6379 97.1008 27.3254 85.4068 29.2385C73.7127 31.1516 63.0817 37.1653 55.4177 46.2026C47.7536 55.24 43.5572 66.7105 43.58 78.56V158.79C32.3147 171.151 26.0734 187.275 26.08 204C26.08 204.6 26.08 205.2 26.08 205.79C26.08 206.12 26.08 206.44 26.08 206.79C25.9713 215.712 27.6348 224.567 30.974 232.842C34.3132 241.116 39.2616 248.645 45.5325 254.993C51.8033 261.341 59.2718 266.38 67.505 269.82C75.7381 273.26 84.5722 275.031 93.495 275.031C102.418 275.031 111.252 273.26 119.485 269.82C127.718 266.38 135.187 261.341 141.458 254.993C147.728 248.645 152.677 241.116 156.016 232.842C159.355 224.567 161.019 215.712 160.91 206.79C160.91 206.46 160.91 206.14 160.91 205.79C160.93 205.24 160.93 204.64 160.93 204Z" fill="#DFE0E1"/>
</g>
<g style="mix-blend-mode:multiply" opacity="0.53">
<path d="M163.77 201.17C163.766 189.172 160.54 177.395 154.43 167.07C156.873 165.043 158.837 162.501 160.182 159.626C161.528 156.751 162.22 153.614 162.21 150.44C162.21 150.3 162.21 150.17 162.21 150.02C162.21 149.87 162.21 149.75 162.21 149.61C162.217 146.411 161.512 143.251 160.146 140.359C158.779 137.467 156.786 134.916 154.31 132.89C156.786 130.863 158.78 128.31 160.147 125.416C161.513 122.522 162.218 119.36 162.21 116.16C162.21 116.03 162.21 115.89 162.21 115.75C162.21 115.61 162.21 115.47 162.21 115.33C162.216 112.13 161.51 108.969 160.144 106.075C158.778 103.182 156.785 100.628 154.31 98.6C156.786 96.577 158.78 94.0274 160.146 91.1368C161.513 88.2462 162.218 85.0873 162.21 81.89C162.21 81.74 162.21 81.61 162.21 81.47C162.21 81.33 162.21 81.19 162.21 81.04C162.255 75.8402 160.389 70.8049 156.965 66.8909C153.542 62.977 148.8 60.457 143.64 59.81C139.88 48.5777 132.247 39.0495 122.105 32.93C111.964 26.8104 99.9757 24.4988 88.2859 26.4086C76.596 28.3184 65.967 34.3251 58.3004 43.3541C50.6337 52.383 46.4295 63.8452 46.44 75.69V155.93C35.1649 168.298 28.9196 184.434 28.93 201.17C28.93 201.78 28.93 202.37 28.93 202.97C28.93 203.3 28.93 203.62 28.93 203.97C28.93 221.848 36.0321 238.994 48.6739 251.636C61.3158 264.278 78.4618 271.38 96.34 271.38C114.218 271.38 131.364 264.278 144.006 251.636C156.648 238.994 163.75 221.848 163.75 203.97C163.75 203.65 163.75 203.33 163.75 202.97C163.75 202.37 163.77 201.78 163.77 201.17Z" fill="#DCDDDE"/>
</g>
<g style="mix-blend-mode:multiply" opacity="0.58">
<path d="M166.64 198.31C166.636 186.312 163.41 174.535 157.3 164.21C159.739 162.181 161.7 159.638 163.043 156.763C164.386 153.889 165.078 150.753 165.07 147.58C165.07 147.44 165.07 147.31 165.07 147.16C165.07 147.01 165.07 146.89 165.07 146.75C165.08 143.551 164.376 140.39 163.009 137.497C161.643 134.605 159.648 132.054 157.17 130.03C159.646 128.003 161.64 125.45 163.007 122.556C164.373 119.662 165.078 116.5 165.07 113.3C165.07 113.17 165.07 113.02 165.07 112.88C165.07 112.74 165.07 112.6 165.07 112.47C165.079 109.269 164.375 106.107 163.009 103.213C161.642 100.319 159.647 97.7661 157.17 95.7399C159.65 93.7142 161.647 91.1599 163.014 88.2636C164.381 85.3674 165.083 82.2024 165.07 78.9999C165.07 78.8599 165.07 78.7299 165.07 78.5799C165.07 78.4299 165.07 78.3099 165.07 78.1599C165.098 72.9721 163.224 67.9539 159.802 64.0547C156.38 60.1555 151.648 57.6456 146.5 56.9999C142.74 45.7677 135.107 36.2395 124.965 30.1199C114.824 24.0004 102.836 21.6887 91.1459 23.5986C79.456 25.5084 68.827 31.5151 61.1603 40.544C53.4937 49.573 49.2895 61.0351 49.3 72.8799V153.11C38.0323 165.485 31.7945 181.624 31.81 198.36C31.81 198.97 31.81 199.56 31.81 200.16C31.81 200.49 31.81 200.81 31.81 201.16C31.7013 210.082 33.3648 218.937 36.704 227.212C40.0431 235.486 44.9916 243.015 51.2624 249.363C57.5333 255.711 65.0018 260.75 73.2349 264.19C81.4681 267.63 90.3022 269.401 99.225 269.401C108.148 269.401 116.982 267.63 125.215 264.19C133.448 260.75 140.917 255.711 147.188 249.363C153.458 243.015 158.407 235.486 161.746 227.212C165.085 218.937 166.749 210.082 166.64 201.16C166.64 200.84 166.64 200.52 166.64 200.16C166.61 199.51 166.64 198.92 166.64 198.31Z" fill="#D8D9DB"/>
</g>
<g style="mix-blend-mode:multiply" opacity="0.63">
<path d="M169.5 195.45C169.498 183.449 166.272 171.668 160.16 161.34C162.599 159.313 164.56 156.772 165.903 153.899C167.246 151.026 167.938 147.891 167.93 144.72C167.93 144.58 167.93 144.44 167.93 144.3C167.93 144.16 167.93 144.02 167.93 143.88C167.938 140.682 167.234 137.523 165.869 134.631C164.504 131.739 162.513 129.187 160.04 127.16C162.515 125.132 164.507 122.579 165.872 119.685C167.237 116.791 167.94 113.63 167.93 110.43C167.93 110.3 167.93 110.16 167.93 110.02C167.93 109.88 167.93 109.74 167.93 109.6C167.938 106.402 167.235 103.242 165.87 100.35C164.505 97.4584 162.514 94.9065 160.04 92.88C162.514 90.8535 164.505 88.3016 165.87 85.4095C167.235 82.5175 167.938 79.3579 167.93 76.16C167.93 76.01 167.93 75.88 167.93 75.74C167.93 75.6 167.93 75.47 167.93 75.32C167.977 70.1196 166.112 65.0831 162.688 61.1687C159.264 57.2543 154.52 54.7349 149.36 54.09C145.605 42.8502 137.972 33.3143 127.826 27.1904C117.681 21.0666 105.686 18.7548 93.9918 20.6692C82.2971 22.5836 71.666 28.5992 64.0027 37.6383C56.3395 46.6775 52.1448 58.1497 52.17 70V150.2C40.8937 162.571 34.6515 178.711 34.67 195.45C34.67 196.05 34.67 196.65 34.67 197.24C34.67 197.57 34.67 197.89 34.67 198.24C34.5613 207.162 36.2248 216.017 39.564 224.292C42.9031 232.566 47.8516 240.095 54.1224 246.443C60.3933 252.791 67.8618 257.83 76.0949 261.27C84.3281 264.71 93.1622 266.481 102.085 266.481C111.008 266.481 119.842 264.71 128.075 261.27C136.308 257.83 143.777 252.791 150.048 246.443C156.318 240.095 161.267 232.566 164.606 224.292C167.945 216.017 169.609 207.162 169.5 198.24C169.5 197.91 169.5 197.59 169.5 197.24C169.47 196.65 169.5 196.05 169.5 195.45Z" fill="#D5D6D7"/>
</g>
<g style="mix-blend-mode:multiply" opacity="0.68">
<path d="M172.36 192.58C172.356 180.582 169.13 168.805 163.02 158.48C165.462 156.452 167.426 153.91 168.771 151.035C170.116 148.16 170.809 145.024 170.8 141.85C170.8 141.71 170.8 141.58 170.8 141.43C170.8 141.28 170.8 141.16 170.8 141.02C170.811 137.824 170.11 134.665 168.749 131.773C167.388 128.881 165.4 126.328 162.93 124.3C165.406 122.273 167.4 119.72 168.767 116.826C170.133 113.932 170.838 110.77 170.83 107.57C170.83 107.44 170.83 107.3 170.83 107.16C170.83 107.02 170.83 106.88 170.83 106.74C170.837 103.538 170.132 100.375 168.766 97.4799C167.4 94.5845 165.406 92.0295 162.93 89.9999C165.406 87.9769 167.4 85.4273 168.766 82.5367C170.133 79.6462 170.838 76.4873 170.83 73.2899C170.83 73.1399 170.83 73.0099 170.83 72.8699C170.83 72.7299 170.83 72.5899 170.83 72.4399C170.872 67.2373 169 62.2007 165.571 58.2881C162.141 54.3756 157.393 51.86 152.23 51.2199C148.47 39.9868 140.836 30.4581 130.693 24.3386C120.551 18.2191 108.561 15.9082 96.8709 17.8193C85.1804 19.7305 74.5514 25.7389 66.8855 34.7697C59.2196 43.8005 55.0171 55.2643 55.03 67.1099V147.34C43.7622 159.711 37.5242 175.846 37.54 192.58C37.54 193.19 37.54 193.78 37.54 194.38C37.54 194.71 37.54 195.03 37.54 195.38C37.54 213.258 44.6421 230.404 57.2839 243.046C69.9258 255.688 87.0718 262.79 104.95 262.79C122.828 262.79 139.974 255.688 152.616 243.046C165.258 230.404 172.36 213.258 172.36 195.38C172.36 195.06 172.36 194.74 172.36 194.38C172.34 193.78 172.36 193.19 172.36 192.58Z" fill="#D1D3D4"/>
</g>
<g style="mix-blend-mode:multiply" opacity="0.74">
<path d="M175.23 189.72C175.226 177.722 172 165.945 165.89 155.62C168.328 153.592 170.288 151.05 171.631 148.178C172.974 145.305 173.667 142.171 173.66 139C173.66 138.86 173.66 138.73 173.66 138.58C173.66 138.43 173.66 138.31 173.66 138.17C173.67 134.971 172.966 131.81 171.599 128.917C170.233 126.025 168.238 123.474 165.76 121.45C168.236 119.423 170.23 116.87 171.597 113.976C172.963 111.082 173.668 107.92 173.66 104.72C173.66 104.59 173.66 104.44 173.66 104.3C173.66 104.16 173.66 104.02 173.66 103.89C173.67 100.689 172.966 97.5268 171.6 94.6327C170.233 91.7385 168.238 89.1856 165.76 87.16C168.237 85.1359 170.232 82.5847 171.598 79.6923C172.965 76.7998 173.669 73.639 173.66 70.44C173.66 70.3 173.66 70.17 173.66 70.02C173.66 69.87 173.66 69.75 173.66 69.6C173.705 64.4002 171.839 59.3649 168.415 55.4509C164.992 51.5369 160.25 49.017 155.09 48.37C151.309 37.1679 143.673 27.6726 133.542 21.5769C123.412 15.4812 111.446 13.1813 99.7775 15.0872C88.1092 16.9931 77.4969 22.9809 69.8326 31.9832C62.1683 40.9854 57.9501 52.417 57.93 64.24V144.47C46.6623 156.845 40.4246 172.984 40.44 189.72C40.44 190.32 40.44 190.92 40.44 191.52C40.44 191.85 40.44 192.17 40.44 192.52C40.3313 201.442 41.9948 210.297 45.334 218.572C48.6731 226.846 53.6216 234.375 59.8924 240.723C66.1633 247.071 73.6318 252.11 81.8649 255.55C90.0981 258.99 98.9322 260.761 107.855 260.761C116.778 260.761 125.612 258.99 133.845 255.55C142.078 252.11 149.547 247.071 155.818 240.723C162.088 234.375 167.037 226.846 170.376 218.572C173.715 210.297 175.379 201.442 175.27 192.52C175.27 192.2 175.27 191.88 175.27 191.52C175.2 190.92 175.23 190.32 175.23 189.72Z" fill="#CECFD1"/>
</g>
<g style="mix-blend-mode:multiply" opacity="0.79">
<path d="M178.09 186.86C178.088 174.859 174.862 163.078 168.75 152.75C171.19 150.721 173.151 148.178 174.494 145.304C175.837 142.429 176.529 139.293 176.52 136.12C176.52 135.98 176.52 135.85 176.52 135.71C176.52 135.57 176.52 135.43 176.52 135.29C176.528 132.092 175.824 128.933 174.459 126.041C173.094 123.149 171.103 120.597 168.63 118.57C171.105 116.542 173.097 113.989 174.462 111.095C175.827 108.201 176.53 105.04 176.52 101.84C176.52 101.71 176.52 101.57 176.52 101.43C176.52 101.29 176.52 101.15 176.52 101.01C176.528 97.8121 175.825 94.6525 174.46 91.7604C173.095 88.8683 171.104 86.3165 168.63 84.29C171.104 82.2635 173.095 79.7116 174.46 76.8195C175.825 73.9275 176.528 70.7678 176.52 67.57C176.52 67.4199 176.52 67.29 176.52 67.15C176.52 67.01 176.52 66.88 176.52 66.73C176.565 61.526 174.696 56.4869 171.269 52.5708C167.841 48.6548 163.094 46.1348 157.93 45.49C154.165 34.2642 146.529 24.7436 136.389 18.6302C126.249 12.5167 114.265 10.2089 102.58 12.1194C90.8949 14.0299 80.27 20.034 72.6049 29.0585C64.9398 38.083 60.7342 49.5395 60.74 61.38V141.61C49.4637 153.981 43.2215 170.121 43.24 186.86C43.24 187.46 43.24 188.06 43.24 188.65C43.24 188.98 43.24 189.3 43.24 189.65C43.1313 198.572 44.7948 207.427 48.134 215.702C51.4731 223.976 56.4216 231.505 62.6924 237.853C68.9633 244.201 76.4318 249.24 84.6649 252.68C92.8981 256.12 101.732 257.891 110.655 257.891C119.578 257.891 128.412 256.12 136.645 252.68C144.878 249.24 152.347 244.201 158.618 237.853C164.888 231.505 169.837 223.976 173.176 215.702C176.515 207.427 178.179 198.572 178.07 189.65C178.07 189.32 178.07 189 178.07 188.65C178.06 188.06 178.09 187.46 178.09 186.86Z" fill="#CACCCD"/>
</g>
<g style="mix-blend-mode:multiply" opacity="0.84">
<path d="M180.93 184C180.931 172.001 177.705 160.223 171.59 149.9C174.032 147.872 175.996 145.33 177.341 142.455C178.686 139.581 179.379 136.444 179.37 133.27C179.37 133.13 179.37 133 179.37 132.85C179.37 132.7 179.37 132.58 179.37 132.44C179.378 129.241 178.673 126.081 177.307 123.189C175.94 120.296 173.946 117.745 171.47 115.72C173.948 113.695 175.944 111.144 177.314 108.252C178.683 105.36 179.393 102.2 179.39 99C179.39 98.87 179.39 98.72 179.39 98.59C179.39 98.46 179.39 98.31 179.39 98.17C179.396 94.9701 178.69 91.8089 177.324 88.9154C175.958 86.0219 173.965 83.4685 171.49 81.44C173.966 79.417 175.96 76.8674 177.326 73.9768C178.693 71.0862 179.398 67.9273 179.39 64.73C179.39 64.58 179.39 64.45 179.39 64.31C179.39 64.17 179.39 64.03 179.39 63.88C179.435 58.6802 177.569 53.6449 174.145 49.7309C170.722 45.817 165.98 43.297 160.82 42.65C157.06 31.4169 149.426 21.8881 139.283 15.7687C129.141 9.64917 117.151 7.33826 105.461 9.24939C93.7704 11.1605 83.1413 17.169 75.4755 26.1998C67.8096 35.2305 63.6071 46.6943 63.62 58.54V138.76C52.3547 151.133 46.117 167.267 46.13 184C46.13 184.61 46.13 185.2 46.13 185.8C46.13 186.13 46.13 186.45 46.13 186.8C46.13 195.652 47.8736 204.418 51.2613 212.597C54.649 220.775 59.6143 228.206 65.8739 234.466C72.1335 240.726 79.5647 245.691 87.7433 249.079C95.9219 252.466 104.688 254.21 113.54 254.21C122.392 254.21 131.158 252.466 139.337 249.079C147.515 245.691 154.946 240.726 161.206 234.466C167.466 228.206 172.431 220.775 175.819 212.597C179.206 204.418 180.95 195.652 180.95 186.8C180.95 186.48 180.95 186.16 180.95 185.8C180.93 185.19 180.93 184.6 180.93 184Z" fill="#C7C8CA"/>
</g>
<g style="mix-blend-mode:multiply" opacity="0.89">
<path d="M183.82 181.13C183.816 169.132 180.59 157.355 174.48 147.03C176.919 145.001 178.88 142.458 180.223 139.583C181.566 136.709 182.258 133.573 182.25 130.4C182.25 130.26 182.25 130.12 182.25 129.98C182.25 129.84 182.25 129.71 182.25 129.57C182.26 126.372 181.557 123.212 180.192 120.319C178.827 117.427 176.835 114.876 174.36 112.85C176.833 110.821 178.825 108.267 180.189 105.374C181.554 102.48 182.258 99.3192 182.25 96.12C182.25 95.99 182.25 95.84 182.25 95.7C182.25 95.56 182.25 95.42 182.25 95.29C182.26 92.0904 181.557 88.9288 180.192 86.0349C178.827 83.141 176.835 80.5875 174.36 78.56C176.834 76.5335 178.825 73.9816 180.19 71.0895C181.555 68.1975 182.258 65.0378 182.25 61.84C182.25 61.69 182.25 61.56 182.25 61.43C182.25 61.3 182.25 61.15 182.25 61C182.298 55.7996 180.432 50.7631 177.008 46.8487C173.584 42.9342 168.84 40.4149 163.68 39.77C159.92 28.5377 152.287 19.0095 142.145 12.8899C132.004 6.77039 120.016 4.45876 108.326 6.36858C96.636 8.2784 86.007 14.2851 78.3403 23.314C70.6737 32.343 66.4695 43.8051 66.48 55.65V135.88C55.2123 148.255 48.9745 164.394 48.99 181.13C48.99 181.73 48.99 182.33 48.99 182.93C48.99 183.26 48.99 183.58 48.99 183.93C48.8813 192.852 50.5448 201.707 53.884 209.982C57.2231 218.256 62.1716 225.785 68.4424 232.133C74.7133 238.481 82.1818 243.52 90.4149 246.96C98.6481 250.4 107.482 252.171 116.405 252.171C125.328 252.171 134.162 250.4 142.395 246.96C150.628 243.52 158.097 238.481 164.368 232.133C170.638 225.785 175.587 218.256 178.926 209.982C182.265 201.707 183.929 192.852 183.82 183.93C183.82 183.61 183.82 183.29 183.82 182.93C183.79 182.33 183.82 181.73 183.82 181.13Z" fill="#C3C5C7"/>
</g>
<g style="mix-blend-mode:multiply" opacity="0.95">
<path d="M186.68 178.27C186.678 166.269 183.452 154.488 177.34 144.16C179.78 142.131 181.741 139.588 183.084 136.714C184.427 133.839 185.119 130.703 185.11 127.53C185.11 127.39 185.11 127.26 185.11 127.12C185.11 126.98 185.11 126.84 185.11 126.71C185.116 123.514 184.411 120.357 183.046 117.467C181.681 114.577 179.691 112.026 177.22 110C179.695 107.972 181.687 105.419 183.052 102.525C184.417 99.6311 185.12 96.4695 185.11 93.27C185.11 93.14 185.11 93 185.11 92.86C185.11 92.72 185.11 92.58 185.11 92.44C185.118 89.2421 184.415 86.0825 183.05 83.1904C181.685 80.2984 179.694 77.7465 177.22 75.72C179.694 73.6935 181.685 71.1416 183.05 68.2495C184.415 65.3575 185.118 62.1979 185.11 59C185.11 58.85 185.11 58.72 185.11 58.58C185.11 58.44 185.11 58.31 185.11 58.16C185.163 52.955 183.3 47.9124 179.875 43.9921C176.451 40.0718 171.705 37.5476 166.54 36.9C162.775 25.6743 155.139 16.1537 144.999 10.0402C134.859 3.92674 122.875 1.61896 111.19 3.52943C99.5049 5.4399 88.88 11.4441 81.2149 20.4686C73.5498 29.4931 69.3442 40.9496 69.35 52.79V133C58.0737 145.371 51.8315 161.511 51.85 178.25C51.85 178.85 51.85 179.45 51.85 180.04C51.85 180.37 51.85 180.69 51.85 181.04C51.7413 189.962 53.4048 198.817 56.744 207.092C60.0832 215.366 65.0316 222.895 71.3024 229.243C77.5733 235.591 85.0418 240.63 93.275 244.07C101.508 247.51 110.342 249.281 119.265 249.281C128.188 249.281 137.022 247.51 145.255 244.07C153.488 240.63 160.957 235.591 167.228 229.243C173.498 222.895 178.447 215.366 181.786 207.092C185.125 198.817 186.789 189.962 186.68 181.04C186.68 180.71 186.68 180.39 186.68 180.04C186.66 179.47 186.68 178.87 186.68 178.27Z" fill="#C0C1C3"/>
</g>
<g style="mix-blend-mode:multiply">
<path d="M189.55 175.4C189.547 163.401 186.318 151.623 180.2 141.3C182.642 139.272 184.606 136.73 185.951 133.855C187.296 130.98 187.989 127.844 187.98 124.67C187.98 124.53 187.98 124.4 187.98 124.26C187.98 124.12 187.98 123.98 187.98 123.84C187.988 120.641 187.283 117.481 185.917 114.589C184.55 111.696 182.556 109.145 180.08 107.12C182.555 105.091 184.548 102.538 185.914 99.6445C187.28 96.751 187.986 93.5899 187.98 90.39C187.98 90.26 187.98 90.11 187.98 89.98C187.98 89.85 187.98 89.69 187.98 89.56C187.987 86.36 187.281 83.1986 185.915 80.3049C184.548 77.4113 182.555 74.858 180.08 72.83C182.555 70.8065 184.549 68.2568 185.915 65.3663C187.282 62.4758 187.987 59.3172 187.98 56.12C187.98 55.97 187.98 55.84 187.98 55.7C187.98 55.56 187.98 55.42 187.98 55.27C188.035 50.0633 186.173 45.0182 182.749 41.0958C179.324 37.1734 174.576 34.6478 169.41 34C165.65 22.7669 158.016 13.2381 147.873 7.11863C137.731 0.999145 125.741 -1.31176 114.051 0.599368C102.36 2.5105 91.7313 8.51897 84.0655 17.5497C76.3996 26.5805 72.1971 38.0443 72.21 49.89V130.11C60.9423 142.485 54.7046 158.624 54.72 175.36C54.72 175.97 54.72 176.56 54.72 177.16C54.72 177.49 54.72 177.81 54.72 178.16C54.6113 187.082 56.2748 195.937 59.614 204.212C62.9531 212.486 67.9016 220.015 74.1724 226.363C80.4433 232.711 87.9118 237.75 96.1449 241.19C104.378 244.63 113.212 246.401 122.135 246.401C131.058 246.401 139.892 244.63 148.125 241.19C156.358 237.75 163.827 232.711 170.098 226.363C176.368 220.015 181.317 212.486 184.656 204.212C187.995 195.937 189.659 187.082 189.55 178.16C189.55 177.84 189.5 177.52 189.5 177.16C189.52 176.6 189.55 176 189.55 175.4Z" fill="#BCBEC0"/>
</g>
</g>
<path d="M187.67 177.28C187.665 165.279 184.439 153.499 178.33 143.17C180.77 141.143 182.733 138.602 184.077 135.729C185.422 132.857 186.116 129.722 186.11 126.55C186.11 126.41 186.11 126.27 186.11 126.13C186.11 125.99 186.11 125.85 186.11 125.72C186.12 122.52 185.414 119.358 184.046 116.465C182.677 113.573 180.68 111.022 178.2 109C180.679 106.975 182.676 104.422 184.044 101.528C185.413 98.6341 186.118 95.4712 186.11 92.27C186.11 92.13 186.11 91.99 186.11 91.85C186.11 91.71 186.11 91.57 186.11 91.43C186.116 88.2305 185.409 85.0699 184.041 82.1777C182.673 79.2856 180.677 76.7345 178.2 74.71C180.676 72.686 182.67 70.1365 184.038 67.2463C185.406 64.3561 186.114 61.1976 186.11 58C186.11 57.85 186.11 57.72 186.11 57.57C186.11 57.42 186.11 57.3 186.11 57.16C186.157 51.9569 184.291 46.918 180.865 43.0016C177.439 39.0853 172.693 36.565 167.53 35.92C163.776 24.6835 156.146 15.1498 146.005 9.02574C135.863 2.90166 123.874 0.58702 112.182 2.49619C100.49 4.40537 89.8587 10.4137 82.1923 19.4456C74.5259 28.4774 70.3244 39.9431 70.34 51.79V132C59.074 144.376 52.8365 160.514 52.85 177.25C52.85 177.86 52.85 178.45 52.85 179.04C52.85 179.37 52.85 179.7 52.85 180.04C52.85 197.918 59.9521 215.064 72.5939 227.706C85.2358 240.348 102.382 247.45 120.26 247.45C138.138 247.45 155.284 240.348 167.926 227.706C180.568 215.064 187.67 197.918 187.67 180.04C187.67 179.73 187.67 179.4 187.67 179.04C187.64 178.48 187.67 177.89 187.67 177.28Z" fill="white"/>
<path d="M189.55 175.4C189.547 163.401 186.318 151.623 180.2 141.3C182.642 139.272 184.606 136.73 185.951 133.855C187.296 130.98 187.989 127.844 187.98 124.67C187.98 124.53 187.98 124.4 187.98 124.26C187.98 124.12 187.98 123.98 187.98 123.84C187.988 120.641 187.283 117.481 185.917 114.589C184.55 111.696 182.556 109.145 180.08 107.12C182.555 105.091 184.548 102.538 185.914 99.6445C187.28 96.751 187.986 93.5899 187.98 90.39C187.98 90.26 187.98 90.11 187.98 89.98C187.98 89.85 187.98 89.69 187.98 89.56C187.987 86.36 187.281 83.1986 185.915 80.3049C184.548 77.4113 182.555 74.858 180.08 72.83C182.555 70.8065 184.549 68.2568 185.915 65.3663C187.282 62.4758 187.987 59.3172 187.98 56.12C187.98 55.97 187.98 55.84 187.98 55.7C187.98 55.56 187.98 55.42 187.98 55.27C188.035 50.0633 186.173 45.0182 182.749 41.0958C179.324 37.1734 174.576 34.6478 169.41 34C165.65 22.7669 158.016 13.2381 147.873 7.11863C137.731 0.999145 125.741 -1.31176 114.051 0.599368C102.36 2.5105 91.7313 8.51897 84.0655 17.5497C76.3996 26.5805 72.1971 38.0443 72.21 49.89V130.11C60.9423 142.485 54.7046 158.624 54.72 175.36C54.72 175.97 54.72 176.56 54.72 177.16C54.72 177.49 54.72 177.81 54.72 178.16C54.6113 187.082 56.2748 195.937 59.614 204.212C62.9531 212.486 67.9016 220.015 74.1724 226.363C80.4433 232.711 87.9118 237.75 96.1449 241.19C104.378 244.63 113.212 246.401 122.135 246.401C131.058 246.401 139.892 244.63 148.125 241.19C156.358 237.75 163.827 232.711 170.098 226.363C176.368 220.015 181.317 212.486 184.656 204.212C187.995 195.937 189.659 187.082 189.55 178.16C189.55 177.84 189.5 177.52 189.5 177.16C189.52 176.6 189.55 176 189.55 175.4Z" fill="url(#paint0_linear)"/>
<path d="M168.45 124.67C168.45 125.67 167.86 126.52 167.13 126.52H160.69C159.97 126.52 159.38 125.69 159.38 124.67C159.38 123.67 159.97 122.83 160.69 122.83H167.13C167.86 122.83 168.45 123.66 168.45 124.67Z" fill="#A3BAD4"/>
<path d="M168.45 90.3899C168.45 91.3899 167.86 92.2399 167.13 92.2399H160.69C159.97 92.2399 159.38 91.3999 159.38 90.3899C159.38 89.3899 159.97 88.5499 160.69 88.5499H167.13C167.86 88.5499 168.45 89.3699 168.45 90.3899Z" fill="#A3BAD4"/>
<path d="M168.45 56.1199C168.45 57.1199 167.86 57.9599 167.13 57.9599H160.69C159.97 57.9599 159.38 57.1299 159.38 56.1199C159.38 55.1199 159.97 54.2699 160.69 54.2699H167.13C167.86 54.2699 168.45 55.0999 168.45 56.1199Z" fill="#A3BAD4"/>
<path d="M152.52 141.23V52.6999C152.52 44.64 149.318 36.9102 143.619 31.211C137.92 25.5117 130.19 22.3099 122.13 22.3099C114.07 22.3099 106.34 25.5117 100.641 31.211C94.9418 36.9102 91.74 44.64 91.74 52.6999V141.23C84.1107 147.494 78.6036 155.963 75.9725 165.478C73.3413 174.992 73.7146 185.087 77.0414 194.381C80.3681 203.675 86.4857 211.714 94.5569 217.398C102.628 223.082 112.258 226.132 122.13 226.132C132.002 226.132 141.632 223.082 149.703 217.398C157.774 211.714 163.892 203.675 167.219 194.381C170.545 185.087 170.919 174.992 168.288 165.478C165.656 155.963 160.149 147.494 152.52 141.23Z" fill="#A3BAD4"/>
<path d="M152.52 138.46V49.9299C152.52 41.87 149.318 34.1402 143.619 28.4409C137.92 22.7417 130.19 19.5399 122.13 19.5399C114.07 19.5399 106.34 22.7417 100.641 28.4409C94.9418 34.1402 91.74 41.87 91.74 49.9299V138.46C84.1107 144.724 78.6036 153.193 75.9725 162.708C73.3413 172.222 73.7146 182.317 77.0414 191.611C80.3681 200.905 86.4857 208.944 94.5569 214.628C102.628 220.312 112.258 223.362 122.13 223.362C132.002 223.362 141.632 220.312 149.703 214.628C157.774 208.944 163.892 200.905 167.219 191.611C170.545 182.317 170.919 172.222 168.288 162.708C165.656 153.193 160.149 144.724 152.52 138.46Z" fill="#C9E2FF"/>
<path d="M148.11 144.76L146.11 143.17V127.35C146.107 126.64 145.824 125.96 145.322 125.458C144.82 124.956 144.14 124.673 143.43 124.67H100.77C100.06 124.673 99.3799 124.956 98.8778 125.458C98.3758 125.96 98.0926 126.64 98.09 127.35V143.17L96.14 144.76C91.4858 148.616 87.7315 153.444 85.1403 158.904C82.5491 164.365 81.1838 170.326 81.14 176.37C81.1245 183.287 82.8594 190.096 86.1832 196.162C89.507 202.229 94.3115 207.355 100.15 211.065C105.988 214.776 112.67 216.948 119.573 217.381C126.477 217.814 133.378 216.493 139.634 213.542C145.89 210.59 151.298 206.104 155.353 200.501C159.409 194.897 161.981 188.358 162.83 181.493C163.679 174.629 162.777 167.66 160.209 161.238C157.64 154.815 153.488 149.146 148.14 144.76H148.11Z" fill="#007DC4"/>
<path d="M168.45 123.84C168.45 124.84 167.86 125.68 167.13 125.68H160.69C159.97 125.68 159.38 124.85 159.38 123.84C159.38 122.84 159.97 122 160.69 122H167.13C167.86 122 168.45 122.82 168.45 123.84Z" fill="#C9E2FF"/>
<path d="M168.45 89.56C168.45 90.56 167.86 91.4 167.13 91.4H160.69C159.97 91.4 159.38 90.57 159.38 89.56C159.38 88.56 159.97 87.71 160.69 87.71H167.13C167.86 87.71 168.45 88.54 168.45 89.56Z" fill="#C9E2FF"/>
<path d="M168.45 55.2699C168.45 56.2699 167.86 57.1099 167.13 57.1099H160.69C159.97 57.1099 159.38 56.2999 159.38 55.2699C159.38 54.2699 159.97 53.4399 160.69 53.4399H167.13C167.86 53.4399 168.45 54.2599 168.45 55.2699Z" fill="#C9E2FF"/>
<path d="M148.11 142.09L146.11 140.48V124.67C146.107 123.961 145.824 123.282 145.322 122.781C144.819 122.281 144.139 122 143.43 122H100.77C100.062 122.002 99.3831 122.284 98.8814 122.784C98.3796 123.284 98.0953 123.962 98.09 124.67V140.48L96.14 142.09C89.6038 147.45 84.8843 154.7 82.6278 162.847C80.3712 170.993 80.6879 179.638 83.5345 187.598C86.381 195.558 91.6183 202.443 98.5292 207.311C105.44 212.179 113.687 214.792 122.14 214.792C130.593 214.792 138.84 212.179 145.751 207.311C152.662 202.443 157.899 195.558 160.745 187.598C163.592 179.638 163.909 170.993 161.652 162.847C159.396 154.7 154.676 147.45 148.14 142.09H148.11Z" fill="#00A2FF"/>
<g style="mix-blend-mode:screen" opacity="0.2">
<path d="M122.12 105C132.12 105 141.94 105.45 151.52 106.35V52.35C151.52 44.5552 148.424 37.0798 142.912 31.5681C137.4 26.0564 129.925 22.96 122.13 22.96C114.335 22.96 106.86 26.0564 101.348 31.5681C95.8364 37.0798 92.74 44.5552 92.74 52.35V106.35C102.32 105.45 112.113 105 122.12 105Z" fill="#B8D9FF"/>
</g>
<path style="mix-blend-mode:multiply" d="M189.55 175.4C189.547 163.401 186.318 151.623 180.2 141.3C182.642 139.272 184.606 136.73 185.951 133.855C187.296 130.98 187.989 127.844 187.98 124.67C187.98 124.53 187.98 124.4 187.98 124.26C187.98 124.12 187.98 123.98 187.98 123.84C187.988 120.641 187.283 117.481 185.917 114.589C184.55 111.696 182.556 109.145 180.08 107.12C182.555 105.091 184.548 102.538 185.914 99.6445C187.28 96.751 187.986 93.5899 187.98 90.39C187.98 90.26 187.98 90.11 187.98 89.98C187.98 89.85 187.98 89.69 187.98 89.56C187.987 86.36 187.281 83.1986 185.915 80.3049C184.548 77.4113 182.555 74.858 180.08 72.83C182.555 70.8065 184.549 68.2568 185.915 65.3663C187.282 62.4758 187.987 59.3172 187.98 56.12C187.98 55.97 187.98 55.84 187.98 55.7C187.98 55.56 187.98 55.42 187.98 55.27C188.035 50.0633 186.173 45.0182 182.749 41.0958C179.324 37.1734 174.576 34.6478 169.41 34C165.65 22.7669 158.016 13.2381 147.873 7.11863C137.731 0.999145 125.741 -1.31176 114.051 0.599368C102.36 2.5105 91.7313 8.51897 84.0655 17.5497C76.3996 26.5805 72.1971 38.0443 72.21 49.89V130.11C60.9423 142.485 54.7046 158.624 54.72 175.36C54.72 175.97 54.72 176.56 54.72 177.16C54.72 177.49 54.72 177.81 54.72 178.16C54.6113 187.082 56.2748 195.937 59.614 204.212C62.9531 212.486 67.9016 220.015 74.1724 226.363C80.4433 232.711 87.9118 237.75 96.1449 241.19C104.378 244.63 113.212 246.401 122.135 246.401C131.058 246.401 139.892 244.63 148.125 241.19C156.358 237.75 163.827 232.711 170.098 226.363C176.368 220.015 181.317 212.486 184.656 204.212C187.995 195.937 189.659 187.082 189.55 178.16C189.55 177.84 189.5 177.52 189.5 177.16C189.52 176.6 189.55 176 189.55 175.4Z" fill="url(#paint1_linear)"/>
</g>
<defs>
<linearGradient id="paint0_linear" x1="55.61" y1="192.93" x2="161.49" y2="87.05" gradientUnits="userSpaceOnUse">
<stop stop-color="#E6E6E6"/>
<stop offset="1" stop-color="#FAFAFA"/>
</linearGradient>
<linearGradient id="paint1_linear" x1="33.41" y1="215.13" x2="210.41" y2="38.13" gradientUnits="userSpaceOnUse">
<stop offset="0.39" stop-color="white"/>
<stop offset="0.5" stop-color="#FCFCFC"/>
<stop offset="0.58" stop-color="#F3F3F3"/>
<stop offset="0.65" stop-color="#E3E3E3"/>
<stop offset="0.71" stop-color="#CECECE"/>
<stop offset="0.72" stop-color="#C9C9C9"/>
<stop offset="0.76" stop-color="#C9C9C9"/>
<stop offset="0.99" stop-color="#C9C9C9"/>
</linearGradient>
<clipPath id="clip0">
<rect width="189.23" height="300" fill="white" transform="translate(0.309998)"/>
</clipPath>
</defs>
</svg>
