<svg width="190" height="300" viewBox="0 0 190 300" fill="none" xmlns="http://www.w3.org/2000/svg">
<g clip-path="url(#clip0)">
<g style="mix-blend-mode:multiply">
<g style="mix-blend-mode:multiply" opacity="0.05">
<path d="M138.24 227C138.231 215.003 135.006 203.227 128.9 192.9C131.338 190.87 133.298 188.327 134.641 185.452C135.984 182.578 136.677 179.443 136.67 176.27C136.67 176.12 136.67 175.99 136.67 175.85C136.67 175.71 136.67 175.57 136.67 175.43C136.678 172.19 135.955 168.991 134.554 166.07C133.153 163.149 131.111 160.582 128.58 158.56C131.111 156.538 133.153 153.971 134.554 151.05C135.955 148.129 136.678 144.93 136.67 141.69C136.67 141.6 136.67 141.51 136.67 141.42C136.67 141.33 136.67 141.24 136.67 141.15C136.678 137.91 135.955 134.711 134.554 131.79C133.153 128.869 131.111 126.302 128.58 124.28C131.112 122.257 133.155 119.688 134.555 116.765C135.956 113.842 136.679 110.641 136.67 107.4C136.67 107.32 136.67 107.24 136.67 107.14C136.67 107.04 136.67 106.96 136.67 106.87C136.715 101.668 134.848 96.6297 131.422 92.7139C127.997 88.798 123.252 86.277 118.09 85.63C114.33 74.3969 106.696 64.8681 96.5531 58.7486C86.4105 52.6292 74.4214 50.3182 62.7309 52.2294C51.0404 54.1405 40.4113 60.149 32.7454 69.1797C25.0796 78.2105 20.8771 89.6743 20.89 101.52V181.7C9.61516 194.09 3.38028 210.248 3.40997 227C3.40997 227.6 3.40997 228.19 3.40997 228.79C3.40997 229.13 3.40997 229.44 3.40997 229.79C3.3013 238.712 4.96477 247.567 8.30395 255.842C11.6431 264.116 16.5916 271.645 22.8624 277.993C29.1333 284.341 36.6017 289.38 44.8349 292.82C53.0681 296.26 61.9022 298.031 70.825 298.031C79.7478 298.031 88.5818 296.26 96.815 292.82C105.048 289.38 112.517 284.341 118.788 277.993C125.058 271.645 130.007 264.116 133.346 255.842C136.685 247.567 138.349 238.712 138.24 229.79C138.24 229.46 138.19 229.15 138.19 228.79C138.16 228.14 138.24 227.55 138.24 227Z" fill="#FBFCFC"/>
</g>
<g style="mix-blend-mode:multiply" opacity="0.11">
<path d="M141.1 224.08C141.088 212.089 137.862 200.321 131.76 190C134.199 187.973 136.16 185.432 137.503 182.559C138.846 179.686 139.538 176.551 139.53 173.38C139.53 173.23 139.53 173.1 139.53 172.95C139.53 172.8 139.53 172.68 139.53 172.54C139.537 169.299 138.813 166.099 137.412 163.176C136.012 160.254 133.97 157.685 131.44 155.66C133.97 153.639 136.011 151.074 137.412 148.155C138.813 145.235 139.537 142.038 139.53 138.8C139.53 138.71 139.53 138.61 139.53 138.53C139.53 138.45 139.53 138.35 139.53 138.26C139.538 135.019 138.815 131.818 137.414 128.895C136.014 125.973 133.971 123.404 131.44 121.38C133.972 119.359 136.014 116.792 137.415 113.871C138.816 110.949 139.539 107.75 139.53 104.51C139.53 104.42 139.53 104.34 139.53 104.24C139.53 104.14 139.53 104.07 139.53 103.97C139.577 98.768 137.71 93.7303 134.284 89.8156C130.858 85.901 126.112 83.3826 120.95 82.7399C117.185 71.5167 109.553 61.9977 99.4157 55.884C89.2787 49.7704 77.2982 47.4604 65.6149 49.367C53.9316 51.2735 43.3069 57.2723 35.6394 66.2914C27.972 75.3105 23.7613 86.7621 23.76 98.5999V178.84C12.4904 191.21 6.25217 207.346 6.26995 224.08C6.26995 224.69 6.26995 225.28 6.26995 225.88C6.26995 226.21 6.26995 226.53 6.26995 226.88C6.16129 235.802 7.82476 244.657 11.1639 252.932C14.5031 261.206 19.4516 268.735 25.7224 275.083C31.9932 281.431 39.4617 286.47 47.6949 289.91C55.9281 293.35 64.7621 295.121 73.6849 295.121C82.6078 295.121 91.4418 293.35 99.675 289.91C107.908 286.47 115.377 281.431 121.648 275.083C127.918 268.735 132.867 261.206 136.206 252.932C139.545 244.657 141.209 235.802 141.1 226.88C141.1 226.56 141.1 226.24 141.1 225.88C141.07 225.28 141.1 224.69 141.1 224.08Z" fill="#F8F8F8"/>
</g>
<g style="mix-blend-mode:multiply" opacity="0.16">
<path d="M143.96 221.22C143.956 209.222 140.73 197.445 134.62 187.12C137.06 185.091 139.023 182.549 140.368 179.674C141.712 176.799 142.406 173.664 142.4 170.49C142.4 170.35 142.4 170.21 142.4 170.07C142.4 169.93 142.4 169.8 142.4 169.65C142.404 166.41 141.678 163.211 140.276 160.29C138.873 157.37 136.831 154.803 134.3 152.78C136.832 150.76 138.875 148.195 140.278 145.276C141.68 142.357 142.406 139.159 142.4 135.92C142.4 135.82 142.4 135.73 142.4 135.65C142.4 135.57 142.4 135.46 142.4 135.38C142.408 132.138 141.683 128.936 140.281 126.013C138.878 123.091 136.834 120.522 134.3 118.5C136.834 116.478 138.879 113.91 140.282 110.987C141.685 108.064 142.409 104.862 142.4 101.62C142.4 101.54 142.4 101.46 142.4 101.36C142.4 101.26 142.4 101.18 142.4 101.09C142.445 95.8886 140.577 90.8521 137.152 86.9378C133.726 83.0236 128.981 80.5047 123.82 79.8599C120.06 68.6276 112.427 59.0994 102.285 52.9799C92.1437 46.8604 80.1557 44.5487 68.4658 46.4585C56.776 48.3684 46.147 54.375 38.4803 63.404C30.8136 72.4329 26.6095 83.8951 26.62 95.7399V176C15.3719 188.373 9.14573 204.498 9.15997 221.22C9.15997 221.82 9.15997 222.42 9.15997 223.02C9.15997 223.35 9.15997 223.66 9.15997 224.02C9.0513 232.942 10.7148 241.797 14.0539 250.072C17.3931 258.346 22.3416 265.875 28.6124 272.223C34.8833 278.571 42.3517 283.61 50.5849 287.05C58.8181 290.49 67.6521 292.261 76.575 292.261C85.4978 292.261 94.3318 290.49 102.565 287.05C110.798 283.61 118.267 278.571 124.538 272.223C130.808 265.875 135.757 258.346 139.096 250.072C142.435 241.797 144.099 232.942 143.99 224.02C143.99 223.69 143.99 223.38 143.99 223.02C143.93 222.42 143.96 221.82 143.96 221.22Z" fill="#F4F5F5"/>
</g>
<g style="mix-blend-mode:multiply" opacity="0.21">
<path d="M146.83 218.36C146.821 206.363 143.596 194.587 137.49 184.26C139.928 182.23 141.888 179.687 143.231 176.812C144.574 173.938 145.267 170.803 145.26 167.63C145.26 167.48 145.26 167.35 145.26 167.21C145.26 167.07 145.26 166.93 145.26 166.79C145.267 163.55 144.542 160.35 143.14 157.428C141.737 154.507 139.693 151.941 137.16 149.92C139.691 147.898 141.733 145.331 143.134 142.41C144.535 139.489 145.258 136.29 145.25 133.05C145.25 132.96 145.25 132.87 145.25 132.78C145.25 132.69 145.25 132.6 145.25 132.51C145.258 129.27 144.535 126.071 143.134 123.15C141.733 120.229 139.691 117.662 137.16 115.64C139.692 113.617 141.735 111.048 143.135 108.125C144.536 105.202 145.259 102.001 145.25 98.76C145.25 98.68 145.25 98.59 145.25 98.5C145.25 98.41 145.25 98.32 145.25 98.23C145.293 93.0308 143.426 87.9967 140.003 84.0831C136.58 80.1696 131.839 77.6491 126.68 77C122.92 65.7669 115.286 56.2381 105.143 50.1186C95.0005 43.9991 83.0114 41.6882 71.3209 43.5994C59.6304 45.5105 49.0014 51.519 41.3355 60.5497C33.6696 69.5805 29.4671 81.0443 29.48 92.89V173.12C18.2151 185.496 11.9808 201.635 12 218.37C12 218.97 12 219.56 12 220.16C12 220.49 12 220.81 12 221.16C11.8913 230.082 13.5548 238.937 16.894 247.212C20.2332 255.486 25.1816 263.015 31.4524 269.363C37.7233 275.711 45.1918 280.75 53.425 284.19C61.6581 287.63 70.4922 289.401 79.415 289.401C88.3378 289.401 97.1719 287.63 105.405 284.19C113.638 280.75 121.107 275.711 127.378 269.363C133.648 263.015 138.597 255.486 141.936 247.212C145.275 238.937 146.939 230.082 146.83 221.16C146.83 220.83 146.83 220.51 146.83 220.16C146.79 219.55 146.83 219 146.83 218.36Z" fill="#F1F1F2"/>
</g>
<g style="mix-blend-mode:multiply" opacity="0.26">
<path d="M149.69 215.49C149.681 203.493 146.456 191.717 140.35 181.39C142.797 179.365 144.766 176.824 146.116 173.949C147.466 171.074 148.164 167.936 148.16 164.76C148.16 164.62 148.16 164.49 148.16 164.34C148.16 164.19 148.16 164.07 148.16 163.93C148.167 160.689 147.443 157.489 146.042 154.566C144.642 151.644 142.6 149.075 140.07 147.05C142.6 145.029 144.641 142.464 146.042 139.545C147.443 136.625 148.167 133.428 148.16 130.19C148.165 130.1 148.165 130.01 148.16 129.92C148.165 129.83 148.165 129.74 148.16 129.65C148.169 126.41 147.446 123.21 146.045 120.289C144.644 117.368 142.602 114.801 140.07 112.78C142.601 110.756 144.644 108.187 146.044 105.265C147.445 102.342 148.168 99.1409 148.16 95.8999C148.165 95.81 148.165 95.7199 148.16 95.6299C148.165 95.54 148.165 95.4499 148.16 95.3599C148.207 90.158 146.34 85.1203 142.914 81.2056C139.488 77.291 134.742 74.7726 129.58 74.1299C125.837 62.8762 118.207 53.3239 108.059 47.1861C97.9109 41.0483 85.9081 38.7265 74.2031 40.637C62.4981 42.5475 51.8565 48.5654 44.1866 57.6115C36.5168 66.6575 32.3204 78.14 32.35 89.9999V170.24C21.0723 182.609 14.8329 198.751 14.86 215.49C14.86 216.1 14.86 216.69 14.86 217.29C14.86 217.62 14.86 217.94 14.86 218.29C14.7513 227.212 16.4148 236.067 19.754 244.342C23.0931 252.616 28.0416 260.145 34.3124 266.493C40.5833 272.841 48.0518 277.88 56.2849 281.32C64.5181 284.76 73.3522 286.531 82.275 286.531C91.1978 286.531 100.032 284.76 108.265 281.32C116.498 277.88 123.967 272.841 130.238 266.493C136.508 260.145 141.457 252.616 144.796 244.342C148.135 236.067 149.799 227.212 149.69 218.29C149.69 217.97 149.69 217.65 149.69 217.29C149.66 216.69 149.69 216.1 149.69 215.49Z" fill="#EDEEEE"/>
</g>
<g style="mix-blend-mode:multiply" opacity="0.32">
<path d="M152.55 212.63C152.546 200.632 149.32 188.855 143.21 178.53C145.649 176.5 147.611 173.957 148.956 171.083C150.3 168.209 150.995 165.073 150.99 161.9C150.99 161.76 150.99 161.62 150.99 161.48C150.99 161.34 150.99 161.2 150.99 161.06C150.994 157.821 150.269 154.623 148.868 151.703C147.468 148.782 145.428 146.215 142.9 144.19C145.428 142.168 147.469 139.602 148.869 136.683C150.27 133.764 150.995 130.567 150.99 127.33C150.99 127.23 150.99 127.14 150.99 127.05C150.99 126.96 150.99 126.87 150.99 126.78C150.996 123.541 150.272 120.342 148.871 117.421C147.471 114.5 145.43 111.933 142.9 109.91C145.435 107.883 147.48 105.309 148.881 102.381C150.282 99.4529 151.003 96.246 150.99 92.9999C150.99 92.9199 150.99 92.8399 150.99 92.7399C150.99 92.6399 150.99 92.5599 150.99 92.4699C151.035 87.2686 149.167 82.2321 145.742 78.3179C142.316 74.4037 137.571 71.8847 132.41 71.2399C128.65 60.0076 121.017 50.4794 110.875 44.3599C100.734 38.2404 88.7457 35.9287 77.0558 37.8386C65.366 39.7484 54.737 45.7551 47.0703 54.784C39.4036 63.813 35.1995 75.2751 35.21 87.1199V167.35C23.944 179.726 17.7065 195.864 17.72 212.6C17.72 213.2 17.72 213.8 17.72 214.4C17.72 214.73 17.72 215.05 17.72 215.4C17.6113 224.322 19.2748 233.177 22.6139 241.452C25.9531 249.726 30.9016 257.255 37.1724 263.603C43.4433 269.951 50.9118 274.99 59.1449 278.43C67.3781 281.87 76.2122 283.641 85.135 283.641C94.0578 283.641 102.892 281.87 111.125 278.43C119.358 274.99 126.827 269.951 133.098 263.603C139.368 257.255 144.317 249.726 147.656 241.452C150.995 233.177 152.659 224.322 152.55 215.4C152.55 215.08 152.55 214.76 152.55 214.4C152.52 213.83 152.55 213.23 152.55 212.63Z" fill="#EAEAEB"/>
</g>
<g style="mix-blend-mode:multiply" opacity="0.37">
<path d="M155.42 209.77C155.413 197.771 152.184 185.994 146.07 175.67C148.517 173.638 150.483 171.089 151.828 168.207C153.173 165.325 153.864 162.181 153.85 159C153.85 158.85 153.85 158.72 153.85 158.58C153.85 158.44 153.85 158.3 153.85 158.16C153.858 154.92 153.135 151.721 151.734 148.8C150.333 145.879 148.291 143.312 145.76 141.29C148.291 139.268 150.333 136.701 151.734 133.78C153.135 130.859 153.858 127.66 153.85 124.42C153.85 124.33 153.85 124.24 153.85 124.15C153.85 124.06 153.85 123.97 153.85 123.88C153.858 120.64 153.135 117.441 151.734 114.52C150.333 111.599 148.291 109.032 145.76 107.01C148.292 104.987 150.335 102.418 151.735 99.4952C153.136 96.5724 153.859 93.3711 153.85 90.13C153.85 90.05 153.85 89.96 153.85 89.87C153.85 89.78 153.85 89.69 153.85 89.6C153.885 84.4044 152.013 79.3764 148.589 75.4689C145.164 71.5615 140.425 69.0463 135.27 68.4C131.505 57.1743 123.869 47.6537 113.729 41.5402C103.589 35.4267 91.6054 33.119 79.9201 35.0294C68.2348 36.9399 57.61 42.9441 49.9449 51.9686C42.2798 60.9931 38.0742 72.4496 38.08 84.29V164.52C26.8081 176.893 20.5697 193.033 20.59 209.77C20.59 210.37 20.59 210.96 20.59 211.56C20.59 211.89 20.59 212.21 20.59 212.56C20.4813 221.482 22.1448 230.337 25.4839 238.612C28.8231 246.886 33.7716 254.415 40.0424 260.763C46.3133 267.111 53.7817 272.15 62.0149 275.59C70.2481 279.03 79.0821 280.801 88.005 280.801C96.9278 280.801 105.762 279.03 113.995 275.59C122.228 272.15 129.697 267.111 135.968 260.763C142.238 254.415 147.187 246.886 150.526 238.612C153.865 230.337 155.529 221.482 155.42 212.56C155.42 212.23 155.42 211.91 155.42 211.56C155.38 211 155.42 210.37 155.42 209.77Z" fill="#E6E7E8"/>
</g>
<g style="mix-blend-mode:multiply" opacity="0.42">
<path d="M158.28 206.9C158.276 194.902 155.05 183.125 148.94 172.8C151.38 170.771 153.341 168.228 154.684 165.354C156.027 162.479 156.719 159.343 156.71 156.17C156.71 156.03 156.71 155.9 156.71 155.75C156.71 155.6 156.71 155.48 156.71 155.34C156.717 152.099 155.993 148.899 154.592 145.976C153.192 143.054 151.15 140.485 148.62 138.46C151.15 136.439 153.191 133.874 154.592 130.955C155.993 128.035 156.717 124.838 156.71 121.6C156.715 121.51 156.715 121.42 156.71 121.33C156.715 121.24 156.715 121.15 156.71 121.06C156.72 117.82 155.998 114.62 154.597 111.698C153.196 108.777 151.153 106.21 148.62 104.19C151.151 102.166 153.194 99.5974 154.594 96.6747C155.995 93.752 156.718 90.551 156.71 87.31C156.715 87.22 156.715 87.1299 156.71 87.04C156.715 86.9501 156.715 86.8599 156.71 86.77C156.758 81.5726 154.895 76.5387 151.475 72.6247C148.055 68.7107 143.317 66.1895 138.16 65.54C134.4 54.3077 126.767 44.7795 116.625 38.66C106.484 32.5404 94.4957 30.2288 82.8058 32.1386C71.116 34.0484 60.487 40.0551 52.8203 49.0841C45.1536 58.113 40.9495 69.5752 40.9599 81.42V161.65C29.6825 174.021 23.4371 190.16 23.4499 206.9C23.4499 207.51 23.4499 208.1 23.4499 208.7C23.4499 209.03 23.4499 209.35 23.4499 209.7C23.3413 218.622 25.0047 227.477 28.3439 235.752C31.6831 244.026 36.6315 251.555 42.9024 257.903C49.1732 264.251 56.6417 269.29 64.8749 272.73C73.1081 276.17 81.9421 277.941 90.8649 277.941C99.7878 277.941 108.622 276.17 116.855 272.73C125.088 269.29 132.557 264.251 138.827 257.903C145.098 251.555 150.047 244.026 153.386 235.752C156.725 227.477 158.389 218.622 158.28 209.7C158.28 209.38 158.28 209.06 158.28 208.7C158.25 208.1 158.28 207.51 158.28 206.9Z" fill="#E3E4E4"/>
</g>
<g style="mix-blend-mode:multiply" opacity="0.47">
<path d="M161.16 204C161.156 192.002 157.93 180.225 151.82 169.9C154.259 167.87 156.221 165.328 157.566 162.453C158.911 159.579 159.605 156.443 159.6 153.27C159.6 153.13 159.6 152.99 159.6 152.85C159.6 152.71 159.6 152.57 159.6 152.43C159.605 149.191 158.88 145.993 157.479 143.072C156.079 140.152 154.039 137.584 151.51 135.56C154.038 133.538 156.079 130.972 157.479 128.053C158.88 125.134 159.605 121.937 159.6 118.7C159.6 118.6 159.6 118.51 159.6 118.42C159.6 118.33 159.6 118.24 159.6 118.15C159.606 114.911 158.882 111.712 157.481 108.791C156.081 105.871 154.04 103.303 151.51 101.28C154.042 99.2562 156.084 96.6873 157.484 93.7647C158.885 90.842 159.608 87.6409 159.6 84.4C159.6 84.32 159.6 84.2399 159.6 84.1399C159.6 84.04 159.6 83.96 159.6 83.87C159.645 78.6686 157.777 73.6321 154.352 69.7179C150.926 65.8037 146.181 63.2847 141.02 62.6399C137.26 51.4077 129.627 41.8795 119.485 35.7599C109.344 29.6404 97.3557 27.3288 85.6659 29.2386C73.976 31.1484 63.347 37.1551 55.6803 46.184C48.0137 55.213 43.8095 66.6751 43.82 78.5199V158.75C32.5451 171.122 26.3 187.261 26.31 204C26.31 204.6 26.31 205.2 26.31 205.8C26.31 206.13 26.31 206.45 26.31 206.8C26.2013 215.722 27.8648 224.577 31.204 232.852C34.5431 241.126 39.4916 248.655 45.7624 255.003C52.0333 261.351 59.5018 266.39 67.7349 269.83C75.9681 273.27 84.8022 275.041 93.725 275.041C102.648 275.041 111.482 273.27 119.715 269.83C127.948 266.39 135.417 261.351 141.688 255.003C147.958 248.655 152.907 241.126 156.246 232.852C159.585 224.577 161.249 215.722 161.14 206.8C161.14 206.48 161.14 206.16 161.14 205.8C161.16 205.24 161.16 204.64 161.16 204Z" fill="#DFE0E1"/>
</g>
<g style="mix-blend-mode:multiply" opacity="0.53">
<path d="M164.01 201.18C164.003 189.181 160.774 177.404 154.66 167.08C157.102 165.05 159.066 162.507 160.411 159.63C161.756 156.753 162.449 153.615 162.44 150.44C162.44 150.3 162.44 150.17 162.44 150.03C162.44 149.89 162.44 149.75 162.44 149.61C162.448 146.37 161.725 143.171 160.324 140.25C158.923 137.329 156.881 134.762 154.35 132.74C156.881 130.718 158.923 128.151 160.324 125.23C161.725 122.309 162.448 119.11 162.44 115.87C162.44 115.78 162.44 115.69 162.44 115.6C162.44 115.51 162.44 115.42 162.44 115.33C162.448 112.09 161.725 108.891 160.324 105.97C158.923 103.049 156.881 100.482 154.35 98.46C156.881 96.4363 158.924 93.8674 160.324 90.9447C161.725 88.0221 162.448 84.821 162.44 81.58C162.44 81.49 162.44 81.41 162.44 81.32C162.44 81.23 162.44 81.14 162.44 81.05C162.485 75.8476 160.618 70.8098 157.192 66.8939C153.767 62.9781 149.022 60.4571 143.86 59.81C140.095 48.5843 132.459 39.0637 122.319 32.9502C112.179 26.8368 100.195 24.529 88.5101 26.4395C76.8249 28.3499 66.2 34.3541 58.5349 43.3786C50.8698 52.4031 46.6642 63.8596 46.67 75.7V155.93C35.3892 168.299 29.1432 184.44 29.16 201.18C29.16 201.78 29.16 202.37 29.16 202.97C29.16 203.3 29.16 203.62 29.16 203.97C29.0513 212.892 30.7148 221.747 34.0539 230.022C37.3931 238.296 42.3416 245.825 48.6124 252.173C54.8833 258.521 62.3517 263.561 70.5849 267C78.8181 270.44 87.6521 272.211 96.575 272.211C105.498 272.211 114.332 270.44 122.565 267C130.798 263.561 138.267 258.521 144.538 252.173C150.808 245.825 155.757 238.296 159.096 230.022C162.435 221.747 164.099 212.892 163.99 203.97C163.99 203.64 163.99 203.32 163.99 202.97C163.98 202.37 164.01 201.78 164.01 201.18Z" fill="#DCDDDE"/>
</g>
<g style="mix-blend-mode:multiply" opacity="0.58">
<path d="M166.87 198.31C166.866 186.312 163.64 174.535 157.53 164.21C159.97 162.181 161.933 159.639 163.278 156.764C164.622 153.889 165.316 150.754 165.31 147.58C165.31 147.44 165.31 147.31 165.31 147.16C165.31 147.01 165.31 146.89 165.31 146.75C165.316 143.508 164.59 140.307 163.188 137.385C161.786 134.462 159.742 131.894 157.21 129.87C159.742 127.85 161.785 125.285 163.188 122.366C164.59 119.447 165.316 116.249 165.31 113.01C165.315 112.917 165.315 112.823 165.31 112.73C165.315 112.64 165.315 112.55 165.31 112.46C165.318 109.221 164.593 106.022 163.191 103.102C161.788 100.183 159.743 97.6181 157.21 95.5999C159.743 93.5767 161.786 91.0082 163.189 88.0856C164.591 85.1629 165.316 81.9616 165.31 78.7199C165.315 78.63 165.315 78.5399 165.31 78.4499C165.315 78.36 165.315 78.2699 165.31 78.1799C165.343 72.9872 163.469 67.9629 160.045 64.0592C156.62 60.1555 151.883 57.6437 146.73 56.9999C142.97 45.7677 135.337 36.2395 125.195 30.1199C115.054 24.0004 103.066 21.6887 91.3759 23.5986C79.686 25.5084 69.057 31.5151 61.3903 40.544C53.7236 49.573 49.5195 61.0351 49.53 72.8799V153.11C38.2581 165.483 32.0197 181.623 32.04 198.36C32.04 198.97 32.04 199.56 32.04 200.16C32.04 200.49 32.04 200.81 32.04 201.16C32.256 218.897 39.4537 235.835 52.073 248.301C64.6923 260.768 81.7163 267.759 99.455 267.759C117.194 267.759 134.218 260.768 146.837 248.301C159.456 235.835 166.654 218.897 166.87 201.16C166.87 200.83 166.87 200.51 166.87 200.16C166.84 199.51 166.87 198.92 166.87 198.31Z" fill="#D8D9DB"/>
</g>
<g style="mix-blend-mode:multiply" opacity="0.63">
<path d="M169.73 195.45C169.726 183.452 166.5 171.675 160.39 161.35C162.827 159.319 164.787 156.776 166.13 153.902C167.473 151.028 168.166 147.893 168.16 144.72C168.16 144.58 168.16 144.44 168.16 144.3C168.16 144.16 168.16 144.02 168.16 143.88C168.167 140.64 167.445 137.44 166.046 134.518C164.647 131.596 162.608 129.026 160.08 127C162.605 124.978 164.643 122.413 166.041 119.496C167.44 116.579 168.164 113.385 168.16 110.15C168.16 110.05 168.16 109.96 168.16 109.87C168.16 109.78 168.16 109.69 168.16 109.6C168.166 106.361 167.442 103.162 166.041 100.241C164.641 97.3205 162.6 94.7531 160.07 92.73C162.6 90.7053 164.642 88.1362 166.042 85.2137C167.443 82.2913 168.167 79.0907 168.16 75.85C168.16 75.77 168.16 75.68 168.16 75.59C168.16 75.5 168.16 75.41 168.16 75.32C168.207 70.118 166.34 65.0803 162.914 61.1657C159.488 57.251 154.742 54.7327 149.58 54.09C145.814 42.8626 138.177 33.3409 128.035 27.2276C117.893 21.1142 105.907 18.8079 94.2202 20.721C82.5337 22.6341 71.9086 28.6418 64.2451 37.67C56.5816 46.6981 52.3794 58.1578 52.39 70V150.2C41.1223 162.575 34.8845 178.714 34.9 195.45C34.9 196.05 34.9 196.65 34.9 197.25C34.9 197.57 34.9 197.9 34.9 198.25C34.7913 207.172 36.4548 216.027 39.7939 224.302C43.1331 232.576 48.0816 240.105 54.3524 246.453C60.6233 252.801 68.0917 257.84 76.3249 261.28C84.5581 264.72 93.3921 266.491 102.315 266.491C111.238 266.491 120.072 264.72 128.305 261.28C136.538 257.84 144.007 252.801 150.278 246.453C156.548 240.105 161.497 232.576 164.836 224.302C168.175 216.027 169.839 207.172 169.73 198.25C169.73 197.93 169.73 197.6 169.73 197.25C169.7 196.65 169.73 196.05 169.73 195.45Z" fill="#D5D6D7"/>
</g>
<g style="mix-blend-mode:multiply" opacity="0.68">
<path d="M172.6 192.59C172.593 180.591 169.364 168.814 163.25 158.49C165.692 156.46 167.656 153.916 169.001 151.04C170.346 148.163 171.039 145.025 171.03 141.85C171.03 141.71 171.03 141.58 171.03 141.44C171.03 141.3 171.03 141.16 171.03 141.02C171.038 137.78 170.315 134.581 168.914 131.66C167.513 128.739 165.471 126.172 162.94 124.15C165.471 122.128 167.513 119.561 168.914 116.64C170.315 113.719 171.038 110.519 171.03 107.28C171.03 107.19 171.03 107.1 171.03 107C171.03 106.9 171.03 106.83 171.03 106.74C171.038 103.5 170.315 100.301 168.914 97.3798C167.513 94.4587 165.471 91.8916 162.94 89.8699C165.47 87.8473 167.512 85.28 168.912 82.3592C170.313 79.4383 171.037 76.2392 171.03 72.9999C171.03 72.9099 171.03 72.8299 171.03 72.7299C171.03 72.6299 171.03 72.5599 171.03 72.4699C171.075 67.2675 169.208 62.2297 165.782 58.3138C162.357 54.398 157.612 51.877 152.45 51.2299C148.685 40.005 141.05 30.485 130.911 24.3714C120.772 18.2579 108.79 15.9494 97.105 17.8586C85.4204 19.7677 74.7956 25.7701 67.1297 34.7928C59.4638 43.8155 55.2566 55.2704 55.26 67.1099V147.34C43.9864 159.712 37.7477 175.852 37.77 192.59C37.77 193.19 37.77 193.78 37.77 194.38C37.77 194.71 37.77 195.03 37.77 195.38C37.6613 204.302 39.3248 213.157 42.6639 221.432C46.0031 229.706 50.9516 237.235 57.2224 243.583C63.4932 249.931 70.9617 254.97 79.1949 258.41C87.4281 261.85 96.2621 263.621 105.185 263.621C114.108 263.621 122.942 261.85 131.175 258.41C139.408 254.97 146.877 249.931 153.148 243.583C159.418 237.235 164.367 229.706 167.706 221.432C171.045 213.157 172.709 204.302 172.6 195.38C172.6 195.05 172.55 194.73 172.55 194.38C172.57 193.78 172.6 193.19 172.6 192.59Z" fill="#D1D3D4"/>
</g>
<g style="mix-blend-mode:multiply" opacity="0.74">
<path d="M175.46 189.72C175.456 177.722 172.23 165.945 166.12 155.62C168.559 153.592 170.521 151.051 171.866 148.179C173.21 145.306 173.905 142.172 173.9 139C173.9 138.86 173.9 138.73 173.9 138.58C173.9 138.43 173.9 138.31 173.9 138.17C173.905 134.93 173.18 131.73 171.779 128.808C170.379 125.886 168.339 123.316 165.81 121.29C168.338 119.268 170.378 116.702 171.779 113.783C173.18 110.864 173.905 107.667 173.9 104.43C173.905 104.337 173.905 104.243 173.9 104.15C173.905 104.06 173.905 103.97 173.9 103.88C173.91 100.639 173.187 97.4372 171.786 94.5143C170.386 91.5914 168.343 89.0227 165.81 87C168.34 84.9748 170.381 82.4056 171.781 79.4833C173.182 76.5609 173.906 73.3606 173.9 70.12C173.905 70.0301 173.905 69.9399 173.9 69.85C173.905 69.7601 173.905 69.6699 173.9 69.58C173.945 64.3787 172.077 59.3421 168.652 55.4279C165.226 51.5137 160.481 48.9948 155.32 48.35C151.538 37.1463 143.9 27.6499 133.768 21.5544C123.635 15.4588 111.667 13.1604 99.9977 15.0689C88.328 16.9774 77.7156 22.9688 70.0529 31.9747C62.3902 40.9805 58.1753 52.4153 58.16 64.24V144.47C46.8881 156.843 40.6497 172.983 40.67 189.72C40.67 190.33 40.67 190.92 40.67 191.52C40.67 191.85 40.67 192.17 40.67 192.52C40.886 210.257 48.0837 227.195 60.703 239.661C73.3223 252.128 90.3463 259.119 108.085 259.119C125.824 259.119 142.848 252.128 155.467 239.661C168.086 227.195 175.284 210.257 175.5 192.52C175.5 192.19 175.5 191.87 175.5 191.52C175.43 190.92 175.46 190.33 175.46 189.72Z" fill="#CECFD1"/>
</g>
<g style="mix-blend-mode:multiply" opacity="0.79">
<path d="M178.32 186.86C178.316 174.862 175.09 163.085 168.98 152.76C171.421 150.729 173.383 148.185 174.728 145.309C176.073 142.432 176.767 139.295 176.76 136.12C176.76 135.98 176.76 135.85 176.76 135.71C176.76 135.57 176.76 135.43 176.76 135.29C176.765 132.051 176.04 128.853 174.639 125.932C173.239 123.012 171.199 120.444 168.67 118.42C171.198 116.398 173.238 113.832 174.639 110.913C176.04 107.994 176.765 104.797 176.76 101.56C176.76 101.46 176.76 101.37 176.76 101.28C176.76 101.19 176.76 101.11 176.76 101.01C176.766 97.7708 176.042 94.5719 174.641 91.6512C173.241 88.7305 171.2 86.1631 168.67 84.14C171.2 82.1153 173.242 79.5462 174.642 76.6237C176.043 73.7013 176.767 70.5007 176.76 67.26C176.76 67.18 176.76 67.09 176.76 67C176.76 66.91 176.76 66.82 176.76 66.73C176.807 61.525 174.937 56.4848 171.507 52.5696C168.076 48.6545 163.326 46.1381 158.16 45.5C154.406 34.2626 146.775 24.7284 136.633 18.6044C126.49 12.4804 114.499 10.1665 102.807 12.077C91.1139 13.9874 80.483 19.9976 72.8174 29.0313C65.1518 38.0649 60.952 49.5322 60.97 61.38V141.61C49.6937 153.981 43.4514 170.121 43.47 186.86C43.47 187.46 43.47 188.06 43.47 188.65C43.47 188.98 43.47 189.31 43.47 189.65C43.3613 198.572 45.0248 207.427 48.3639 215.702C51.7031 223.976 56.6516 231.505 62.9224 237.853C69.1933 244.201 76.6618 249.24 84.8949 252.68C93.1281 256.12 101.962 257.891 110.885 257.891C119.808 257.891 128.642 256.12 136.875 252.68C145.108 249.24 152.577 244.201 158.848 237.853C165.118 231.505 170.067 223.976 173.406 215.702C176.745 207.427 178.409 198.572 178.3 189.65C178.3 189.33 178.3 189 178.3 188.65C178.29 188.06 178.32 187.46 178.32 186.86Z" fill="#CACCCD"/>
</g>
<g style="mix-blend-mode:multiply" opacity="0.84">
<path d="M181.16 184C181.158 172 177.929 160.222 171.81 149.9C174.252 147.87 176.215 145.326 177.56 142.45C178.905 139.573 179.598 136.435 179.59 133.26C179.59 133.12 179.59 132.99 179.59 132.85C179.59 132.71 179.59 132.57 179.59 132.43C179.596 129.189 178.872 125.989 177.471 123.067C176.071 120.144 174.03 117.575 171.5 115.55C174.032 113.531 176.074 110.966 177.475 108.046C178.876 105.127 179.599 101.928 179.59 98.69C179.595 98.5967 179.595 98.5032 179.59 98.41C179.595 98.32 179.595 98.2299 179.59 98.14C179.597 94.9021 178.873 91.7045 177.472 88.7853C176.071 85.8661 174.03 83.3006 171.5 81.28C174.031 79.2562 176.074 76.6873 177.474 73.7647C178.875 70.842 179.598 67.641 179.59 64.4C179.595 64.31 179.595 64.2199 179.59 64.13C179.595 64.0434 179.595 63.9566 179.59 63.87C179.636 58.669 177.769 53.6325 174.346 49.7169C170.923 45.8013 166.18 43.2793 161.02 42.63C157.26 31.3969 149.626 21.8681 139.483 15.7486C129.341 9.62915 117.351 7.31824 105.661 9.22937C93.9704 11.1405 83.3413 17.149 75.6755 26.1797C68.0096 35.2105 63.8071 46.6743 63.82 58.52V138.74C52.5576 151.12 46.33 167.263 46.36 184C46.36 184.6 46.36 185.19 46.36 185.79C46.36 186.12 46.36 186.45 46.36 186.79C46.2513 195.712 47.9148 204.567 51.254 212.842C54.5931 221.116 59.5416 228.645 65.8124 234.993C72.0833 241.341 79.5518 246.38 87.7849 249.82C96.0181 253.26 104.852 255.031 113.775 255.031C122.698 255.031 131.532 253.26 139.765 249.82C147.998 246.38 155.467 241.341 161.738 234.993C168.008 228.645 172.957 221.116 176.296 212.842C179.635 204.567 181.299 195.712 181.19 186.79C181.19 186.47 181.14 186.14 181.14 185.79C181.16 185.19 181.16 184.6 181.16 184Z" fill="#C7C8CA"/>
</g>
<g style="mix-blend-mode:multiply" opacity="0.89">
<path d="M184.05 181.14C184.053 169.128 180.827 157.337 174.71 147C177.15 144.971 179.113 142.429 180.458 139.554C181.802 136.679 182.496 133.544 182.49 130.37C182.49 130.23 182.49 130.1 182.49 129.95C182.49 129.8 182.49 129.68 182.49 129.54C182.495 126.3 181.77 123.1 180.369 120.178C178.969 117.255 176.929 114.686 174.4 112.66C176.928 110.638 178.969 108.072 180.369 105.153C181.77 102.234 182.495 99.0374 182.49 95.7999C182.495 95.7067 182.495 95.6132 182.49 95.5199C182.495 95.43 182.495 95.3399 182.49 95.2499C182.497 92.0121 181.773 88.8144 180.372 85.8953C178.971 82.9761 176.93 80.4106 174.4 78.3899C176.93 76.3647 178.971 73.7955 180.371 70.8732C181.772 67.9509 182.496 64.7505 182.49 61.5099C182.495 61.42 182.495 61.3299 182.49 61.2399C182.495 61.15 182.495 61.0599 182.49 60.9699C182.535 55.7686 180.667 50.7321 177.242 46.8179C173.816 42.9037 169.071 40.3847 163.91 39.7399C160.15 28.5076 152.517 18.9794 142.375 12.8599C132.234 6.74036 120.246 4.42873 108.556 6.33855C96.866 8.24837 86.237 14.255 78.5703 23.284C70.9036 32.313 66.6995 43.7751 66.71 55.6199V135.85C55.4366 148.226 49.1982 164.369 49.22 181.11C49.22 181.71 49.22 182.3 49.22 182.9C49.22 183.23 49.22 183.55 49.22 183.9C49.436 201.637 56.6337 218.575 69.253 231.041C81.8723 243.508 98.8963 250.499 116.635 250.499C134.374 250.499 151.398 243.508 164.017 231.041C176.636 218.575 183.834 201.637 184.05 183.9C184.05 183.57 184.05 183.25 184.05 182.9C184.02 182.33 184.05 181.74 184.05 181.14Z" fill="#C3C5C7"/>
</g>
<g style="mix-blend-mode:multiply" opacity="0.95">
<path d="M186.91 178.27C186.906 166.272 183.68 154.495 177.57 144.17C180.011 142.139 181.973 139.595 183.318 136.719C184.663 133.842 185.356 130.705 185.35 127.53C185.35 127.39 185.35 127.26 185.35 127.12C185.35 126.98 185.35 126.84 185.35 126.71C185.356 123.469 184.632 120.269 183.231 117.347C181.831 114.424 179.79 111.855 177.26 109.83C179.784 107.811 181.822 105.25 183.223 102.337C184.623 99.4234 185.35 96.2323 185.35 92.9999C185.35 92.8999 185.35 92.8099 185.35 92.7099C185.35 92.6099 185.35 92.5499 185.35 92.4499C185.357 89.2121 184.633 86.0144 183.232 83.0952C181.831 80.176 179.79 77.6106 177.26 75.5899C179.789 73.5617 181.829 70.9905 183.23 68.0668C184.63 65.1431 185.355 61.9417 185.35 58.6999C185.35 58.6099 185.35 58.5299 185.35 58.4399C185.35 58.3499 185.35 58.2599 185.35 58.1699C185.397 52.968 183.53 47.9303 180.104 44.0156C176.678 40.1009 171.932 37.5826 166.77 36.9399C163.016 25.7026 155.385 16.1684 145.243 10.0444C135.1 3.92033 123.109 1.60641 111.417 3.5169C99.7239 5.42738 89.093 11.4375 81.4274 20.4712C73.7617 29.5049 69.5619 40.9722 69.58 52.8199V133C58.3036 145.371 52.0614 161.511 52.08 178.25C52.08 178.86 52.08 179.45 52.08 180.04C52.08 180.37 52.08 180.7 52.08 181.04C51.9713 189.962 53.6348 198.817 56.9739 207.092C60.3131 215.366 65.2616 222.895 71.5324 229.243C77.8032 235.591 85.2717 240.63 93.5049 244.07C101.738 247.51 110.572 249.281 119.495 249.281C128.418 249.281 137.252 247.51 145.485 244.07C153.718 240.63 161.187 235.591 167.458 229.243C173.728 222.895 178.677 215.366 182.016 207.092C185.355 198.817 187.019 189.962 186.91 181.04C186.91 180.72 186.91 180.39 186.91 180.04C186.89 179.47 186.91 178.88 186.91 178.27Z" fill="#C0C1C3"/>
</g>
<g style="mix-blend-mode:multiply">
<path d="M189.78 175.41C189.775 163.408 186.546 151.627 180.43 141.3C182.873 139.273 184.838 136.731 186.185 133.856C187.532 130.981 188.227 127.845 188.22 124.67C188.22 124.53 188.22 124.4 188.22 124.26C188.22 124.12 188.22 123.98 188.22 123.84C188.223 120.609 187.5 117.418 186.105 114.503C184.71 111.589 182.678 109.024 180.16 107C182.693 104.982 184.738 102.417 186.141 99.4975C187.543 96.5779 188.268 93.379 188.26 90.14C188.26 90.05 188.26 89.96 188.26 89.86C188.265 89.7701 188.265 89.6799 188.26 89.59C188.272 86.3446 187.549 83.1386 186.146 80.2119C184.744 77.2853 182.697 74.7138 180.16 72.69C182.693 70.6668 184.736 68.0982 186.139 65.1756C187.541 62.253 188.266 59.0516 188.26 55.81C188.265 55.72 188.265 55.6299 188.26 55.54C188.265 55.4534 188.265 55.3666 188.26 55.28C188.314 50.0646 186.445 45.012 183.011 41.0868C179.576 37.1616 174.816 34.6387 169.64 34C165.88 22.7669 158.246 13.2381 148.103 7.11863C137.96 0.999145 125.971 -1.31176 114.281 0.599368C102.59 2.5105 91.9613 8.51897 84.2954 17.5497C76.6295 26.5805 72.4271 38.0443 72.4399 49.89V130.11C61.1666 142.486 54.9281 158.629 54.9499 175.37C54.9499 175.97 54.9499 176.56 54.9499 177.16C54.9499 177.49 54.9499 177.82 54.9499 178.16C54.8413 187.082 56.5047 195.937 59.8439 204.212C63.1831 212.486 68.1315 220.015 74.4024 226.363C80.6732 232.711 88.1417 237.75 96.3749 241.19C104.608 244.63 113.442 246.401 122.365 246.401C131.288 246.401 140.122 244.63 148.355 241.19C156.588 237.75 164.057 232.711 170.327 226.363C176.598 220.015 181.547 212.486 184.886 204.212C188.225 195.937 189.889 187.082 189.78 178.16C189.78 177.84 189.73 177.51 189.73 177.16C189.75 176.6 189.78 176 189.78 175.41Z" fill="#BCBEC0"/>
</g>
</g>
<path d="M187.9 177.28C187.895 165.279 184.669 153.499 178.56 143.17C181 141.143 182.963 138.602 184.307 135.729C185.652 132.857 186.346 129.722 186.34 126.55C186.34 126.41 186.34 126.27 186.34 126.13C186.34 125.99 186.34 125.86 186.34 125.72C186.346 122.478 185.621 119.277 184.219 116.354C182.817 113.432 180.773 110.863 178.24 108.84C180.769 106.822 182.81 104.26 184.212 101.345C185.615 98.4291 186.342 95.2352 186.34 92C186.34 91.91 186.34 91.82 186.34 91.73C186.34 91.64 186.34 91.55 186.34 91.47C186.346 88.2283 185.621 85.027 184.219 82.1044C182.817 79.1818 180.773 76.6132 178.24 74.59C180.773 72.5688 182.816 70.002 184.219 67.0811C185.621 64.1601 186.346 60.9602 186.34 57.72C186.34 57.63 186.34 57.55 186.34 57.45C186.34 57.35 186.34 57.27 186.34 57.18C186.392 51.9735 184.528 46.9296 181.102 43.0091C177.675 39.0886 172.927 36.5653 167.76 35.92C164 24.6877 156.367 15.1595 146.225 9.03996C136.084 2.92041 124.096 0.608783 112.406 2.51861C100.716 4.42843 90.087 10.4351 82.4203 19.4641C74.7537 28.493 70.5495 39.9552 70.56 51.8V132C59.2846 144.366 53.0454 160.505 53.07 177.24C53.07 177.85 53.07 178.44 53.07 179.04C53.07 179.36 53.07 179.69 53.07 180.04C52.9613 188.962 54.6248 197.817 57.964 206.092C61.3032 214.366 66.2516 221.895 72.5224 228.243C78.7933 234.591 86.2618 239.63 94.4949 243.07C102.728 246.51 111.562 248.281 120.485 248.281C129.408 248.281 138.242 246.51 146.475 243.07C154.708 239.63 162.177 234.591 168.448 228.243C174.718 221.895 179.667 214.366 183.006 206.092C186.345 197.817 188.009 188.962 187.9 180.04C187.9 179.72 187.9 179.39 187.9 179.04C187.87 178.48 187.9 177.89 187.9 177.28Z" fill="white"/>
<path d="M189.78 175.41C189.775 163.408 186.546 151.627 180.43 141.3C182.873 139.273 184.838 136.731 186.185 133.856C187.532 130.981 188.227 127.845 188.22 124.67C188.22 124.53 188.22 124.4 188.22 124.26C188.22 124.12 188.22 123.98 188.22 123.84C188.223 120.609 187.5 117.418 186.105 114.503C184.71 111.589 182.678 109.024 180.16 107C182.693 104.982 184.738 102.417 186.141 99.4975C187.543 96.5779 188.268 93.379 188.26 90.14C188.26 90.05 188.26 89.96 188.26 89.86C188.265 89.7701 188.265 89.6799 188.26 89.59C188.272 86.3446 187.549 83.1386 186.146 80.2119C184.744 77.2853 182.697 74.7138 180.16 72.69C182.693 70.6668 184.736 68.0982 186.139 65.1756C187.541 62.253 188.266 59.0516 188.26 55.81C188.265 55.72 188.265 55.6299 188.26 55.54C188.265 55.4534 188.265 55.3666 188.26 55.28C188.314 50.0646 186.445 45.012 183.011 41.0868C179.576 37.1616 174.816 34.6387 169.64 34C165.88 22.7669 158.246 13.2381 148.103 7.11863C137.96 0.999145 125.971 -1.31176 114.281 0.599368C102.59 2.5105 91.9613 8.51897 84.2954 17.5497C76.6295 26.5805 72.4271 38.0443 72.4399 49.89V130.11C61.1666 142.486 54.9281 158.629 54.9499 175.37C54.9499 175.97 54.9499 176.56 54.9499 177.16C54.9499 177.49 54.9499 177.82 54.9499 178.16C54.8413 187.082 56.5047 195.937 59.8439 204.212C63.1831 212.486 68.1315 220.015 74.4024 226.363C80.6732 232.711 88.1417 237.75 96.3749 241.19C104.608 244.63 113.442 246.401 122.365 246.401C131.288 246.401 140.122 244.63 148.355 241.19C156.588 237.75 164.057 232.711 170.327 226.363C176.598 220.015 181.547 212.486 184.886 204.212C188.225 195.937 189.889 187.082 189.78 178.16C189.78 177.84 189.73 177.51 189.73 177.16C189.75 176.6 189.78 176 189.78 175.41Z" fill="url(#paint0_linear)"/>
<path d="M168.68 124.67C168.68 125.67 168.09 126.52 167.36 126.52H160.92C160.2 126.52 159.61 125.69 159.61 124.67C159.61 123.67 160.2 122.83 160.92 122.83H167.36C168.09 122.83 168.68 123.66 168.68 124.67Z" fill="#A3BAD4"/>
<path d="M168.68 90.0999C168.68 91.0999 168.09 91.9399 167.36 91.9399H160.92C160.2 91.9399 159.61 91.1099 159.61 90.0999C159.61 89.0999 160.2 88.2499 160.92 88.2499H167.36C168.09 88.2499 168.68 89.0699 168.68 90.0999Z" fill="#A3BAD4"/>
<path d="M168.68 55.8099C168.68 56.8099 168.09 57.6499 167.36 57.6499H160.92C160.2 57.6499 159.61 56.8399 159.61 55.8099C159.61 54.8099 160.2 53.9799 160.92 53.9799H167.36C168.09 53.9799 168.68 54.7999 168.68 55.8099Z" fill="#A3BAD4"/>
<path d="M152.75 141.23V52.6999C152.75 44.64 149.548 36.9102 143.849 31.211C138.15 25.5117 130.42 22.3099 122.36 22.3099C114.3 22.3099 106.57 25.5117 100.871 31.211C95.1718 36.9102 91.97 44.64 91.97 52.6999V141.23C84.3407 147.494 78.8336 155.963 76.2024 165.478C73.5713 174.992 73.9446 185.087 77.2714 194.381C80.5981 203.675 86.7157 211.714 94.7869 217.398C102.858 223.082 112.488 226.132 122.36 226.132C132.232 226.132 141.862 223.082 149.933 217.398C158.004 211.714 164.122 203.675 167.449 194.381C170.775 185.087 171.149 174.992 168.518 165.478C165.886 155.963 160.379 147.494 152.75 141.23Z" fill="#A3BAD4"/>
<path d="M152.75 138.47V49.9299C152.75 41.87 149.548 34.1402 143.849 28.4409C138.15 22.7417 130.42 19.5399 122.36 19.5399C114.3 19.5399 106.57 22.7417 100.871 28.4409C95.1718 34.1402 91.97 41.87 91.97 49.9299V138.47C84.3407 144.734 78.8336 153.203 76.2024 162.718C73.5713 172.232 73.9446 182.327 77.2714 191.621C80.5981 200.915 86.7157 208.954 94.7869 214.638C102.858 220.322 112.488 223.372 122.36 223.372C132.232 223.372 141.862 220.322 149.933 214.638C158.004 208.954 164.122 200.915 167.449 191.621C170.775 182.327 171.149 172.232 168.518 162.718C165.886 153.203 160.379 144.734 152.75 138.47Z" fill="#C9E2FF"/>
<path d="M168.68 123.84C168.68 124.84 168.09 125.68 167.36 125.68H160.92C160.2 125.68 159.61 124.86 159.61 123.84C159.61 122.84 160.2 122 160.92 122H167.36C168.09 122 168.68 122.82 168.68 123.84Z" fill="#C9E2FF"/>
<path d="M148.35 144.77L146.35 143.17V61C146.347 60.2926 146.065 59.615 145.565 59.1149C145.065 58.6147 144.387 58.3326 143.68 58.33H101C100.291 58.33 99.6108 58.6109 99.1085 59.1114C98.6062 59.6118 98.3226 60.2909 98.32 61V143.14L96.37 144.74C89.8338 150.101 85.1143 157.35 82.8578 165.497C80.6012 173.644 80.9179 182.288 83.7645 190.248C86.611 198.208 91.8483 205.093 98.7592 209.961C105.67 214.829 113.917 217.442 122.37 217.442C130.823 217.442 139.07 214.829 145.981 209.961C152.892 205.093 158.129 198.208 160.976 190.248C163.822 182.288 164.139 173.644 161.882 165.497C159.626 157.35 154.906 150.101 148.37 144.74L148.35 144.77Z" fill="#B32C19"/>
<path d="M168.68 89.55C168.68 90.55 168.09 91.4 167.36 91.4H160.92C160.2 91.4 159.61 90.57 159.61 89.55C159.61 88.55 160.2 87.72 160.92 87.72H167.36C168.09 87.72 168.68 88.54 168.68 89.55Z" fill="#C9E2FF"/>
<path d="M168.68 55.2799C168.68 56.2799 168.09 57.1199 167.36 57.1199H160.92C160.2 57.1199 159.61 56.2999 159.61 55.2799C159.61 54.2799 160.2 53.4399 160.92 53.4399H167.36C168.09 53.4399 168.68 54.2599 168.68 55.2799Z" fill="#C9E2FF"/>
<path d="M148.35 142.09L146.35 140.48V58.3599C146.347 57.6517 146.066 56.973 145.566 56.4713C145.066 55.9696 144.388 55.6852 143.68 55.6799H101C100.29 55.6826 99.6099 55.9658 99.1079 56.4678C98.6058 56.9698 98.3226 57.65 98.32 58.3599V140.48L96.37 142.09C89.8338 147.451 85.1143 154.7 82.8578 162.847C80.6012 170.994 80.9179 179.638 83.7645 187.598C86.611 195.558 91.8483 202.443 98.7592 207.311C105.67 212.179 113.917 214.792 122.37 214.792C130.823 214.792 139.07 212.179 145.981 207.311C152.892 202.443 158.129 195.558 160.976 187.598C163.822 179.638 164.139 170.994 161.882 162.847C159.626 154.7 154.906 147.451 148.37 142.09H148.35Z" fill="#E53820"/>
<g style="mix-blend-mode:screen" opacity="0.2">
<path d="M122.35 105C132.35 105 142.15 105.45 151.75 106.35V52.3499C151.608 44.6477 148.448 37.309 142.951 31.9123C137.454 26.5156 130.058 23.4921 122.355 23.4921C114.652 23.4921 107.256 26.5156 101.759 31.9123C96.2614 37.309 93.102 44.6477 92.96 52.3499V106.35C102.54 105.44 112.36 105 122.35 105Z" fill="#B8D9FF"/>
</g>
<path style="mix-blend-mode:multiply" d="M189.78 175.41C189.775 163.408 186.546 151.627 180.43 141.3C182.872 139.272 184.836 136.73 186.181 133.855C187.525 130.981 188.218 127.844 188.21 124.67C188.21 124.53 188.21 124.4 188.21 124.26C188.21 124.12 188.21 123.98 188.21 123.84C188.215 120.641 187.508 117.48 186.14 114.588C184.772 111.696 182.777 109.145 180.3 107.12C182.778 105.093 184.773 102.541 186.141 99.6469C187.509 96.7531 188.216 93.5909 188.21 90.39C188.21 90.26 188.21 90.11 188.21 89.98C188.21 89.85 188.21 89.7 188.21 89.57C188.216 86.3677 187.51 83.204 186.141 80.3086C184.773 77.4132 182.778 74.8586 180.3 72.83C182.777 70.8075 184.773 68.2582 186.141 65.3677C187.509 62.4772 188.216 59.318 188.21 56.12C188.21 55.97 188.21 55.84 188.21 55.7C188.21 55.56 188.21 55.42 188.21 55.28C188.265 50.0722 186.404 45.0259 182.979 41.1019C179.555 37.1778 174.807 34.6501 169.64 34C165.874 22.7719 158.238 13.2492 148.096 7.13416C137.954 1.01913 125.968 -1.2895 114.28 0.620974C102.592 2.53145 91.9652 8.53647 84.2983 17.5625C76.6314 26.5886 72.4246 38.0472 72.4299 49.89V130.11C61.1636 142.489 54.9293 158.632 54.9499 175.37C54.9499 175.97 54.9499 176.56 54.9499 177.16C54.9499 177.49 54.9499 177.82 54.9499 178.16C54.8413 187.082 56.5047 195.937 59.8439 204.212C63.1831 212.486 68.1315 220.015 74.4024 226.363C80.6732 232.711 88.1417 237.751 96.3749 241.19C104.608 244.63 113.442 246.401 122.365 246.401C131.288 246.401 140.122 244.63 148.355 241.19C156.588 237.751 164.057 232.711 170.327 226.363C176.598 220.015 181.547 212.486 184.886 204.212C188.225 195.937 189.889 187.082 189.78 178.16C189.78 177.84 189.73 177.51 189.72 177.16C189.73 176.6 189.78 176 189.78 175.41Z" fill="url(#paint1_linear)"/>
</g>
<defs>
<linearGradient id="paint0_linear" x1="43.68" y1="205.1" x2="151.59" y2="97.18" gradientUnits="userSpaceOnUse">
<stop stop-color="#E6E6E6"/>
<stop offset="1" stop-color="#FAFAFA"/>
</linearGradient>
<linearGradient id="paint1_linear" x1="33.64" y1="215.13" x2="210.64" y2="38.13" gradientUnits="userSpaceOnUse">
<stop offset="0.39" stop-color="white"/>
<stop offset="0.5" stop-color="#FCFCFC"/>
<stop offset="0.58" stop-color="#F3F3F3"/>
<stop offset="0.65" stop-color="#E3E3E3"/>
<stop offset="0.71" stop-color="#CECECE"/>
<stop offset="0.72" stop-color="#C9C9C9"/>
<stop offset="0.76" stop-color="#C9C9C9"/>
<stop offset="0.99" stop-color="#C9C9C9"/>
</linearGradient>
<clipPath id="clip0">
<rect width="189.23" height="300" fill="white" transform="translate(0.539978)"/>
</clipPath>
</defs>
</svg>
