<svg width="292" height="300" viewBox="0 0 292 300" fill="none" xmlns="http://www.w3.org/2000/svg">
<g clip-path="url(#clip0)">
<g style="mix-blend-mode:multiply">
<g style="mix-blend-mode:multiply" opacity="0.05">
<path d="M237.84 173.64C237.975 144.787 227.739 116.846 208.998 94.9084C190.258 72.9702 164.259 58.495 135.74 54.12C132.085 53.5408 128.342 53.9655 124.91 55.3487C121.479 56.7318 118.487 59.0215 116.256 61.9729C114.024 64.9243 112.636 68.4266 112.241 72.1055C111.845 75.7844 112.457 79.5017 114.01 82.86C118.889 93.3918 121.408 104.863 121.39 116.47C121.39 117.85 121.39 119.21 121.29 120.57C121.29 120.71 121.29 120.85 121.29 120.99C118.8 163.08 83.96 196.62 41.29 196.62C37.0871 196.611 32.8913 196.276 28.74 195.62C28.44 195.62 28.13 195.62 27.83 195.54L26.83 195.39C23.21 194.822 19.504 195.24 16.1012 196.599C12.6985 197.959 9.72466 200.209 7.49224 203.115C5.25981 206.02 3.8512 209.474 3.41442 213.112C2.97763 216.75 3.5288 220.438 5.01 223.79C24.24 267.58 69.44 297 117.49 297C182.72 297 237.84 242.11 237.84 177.14C237.84 176.57 237.84 176 237.84 175.43C237.84 174.86 237.84 174.24 237.84 173.64Z" fill="#FBFCFC"/>
</g>
<g style="mix-blend-mode:multiply" opacity="0.11">
<path d="M240.83 170.64C240.964 141.788 230.728 113.849 211.988 91.9125C193.247 69.976 167.249 55.5028 138.73 51.13C135.076 50.553 131.334 50.9792 127.904 52.3633C124.474 53.7473 121.484 56.0372 119.254 58.9882C117.023 61.9393 115.637 65.4407 115.241 69.1186C114.846 72.7964 115.458 76.5125 117.01 79.87C121.894 90.4008 124.416 101.872 124.4 113.48C124.4 114.86 124.4 116.22 124.3 117.58C124.3 117.71 124.3 117.86 124.25 117.99C123.623 129.178 120.657 140.11 115.542 150.08C110.427 160.051 103.278 168.837 94.5561 175.872C85.8342 182.907 75.7335 188.034 64.9065 190.923C54.0796 193.811 42.7671 194.396 31.7 192.64C31.4 192.64 31.09 192.64 30.79 192.57L29.79 192.42C26.1764 191.866 22.4804 192.293 19.0882 193.656C15.696 195.019 12.7321 197.268 10.5064 200.168C8.2807 203.069 6.8748 206.513 6.43566 210.143C5.99651 213.772 6.54023 217.453 8.01 220.8C27.23 264.59 72.43 294 120.48 294C185.72 294 240.83 239.12 240.83 174.15C240.83 173.58 240.83 173.01 240.83 172.43C240.83 171.85 240.83 171.25 240.83 170.64Z" fill="#F8F8F8"/>
</g>
<g style="mix-blend-mode:multiply" opacity="0.16">
<path d="M243.82 167.65C243.954 138.798 233.718 110.859 214.978 88.9225C196.237 66.986 170.239 52.5127 141.72 48.14C138.068 47.5662 134.329 47.9944 130.902 49.3789C127.475 50.7635 124.487 53.0524 122.259 56.0016C120.03 58.9507 118.644 62.4495 118.248 66.1247C117.852 69.7999 118.461 73.5137 120.01 76.87C124.893 87.4046 127.415 98.8788 127.4 110.49C127.4 111.86 127.4 113.23 127.3 114.58C127.3 114.72 127.3 114.86 127.3 115C126.124 135.431 117.187 154.64 102.316 168.698C87.4449 182.757 67.7644 190.603 47.3 190.63C43.0971 190.621 38.9013 190.287 34.75 189.63C34.44 189.58 34.14 189.63 33.84 189.55L32.84 189.41C29.2213 188.845 25.5172 189.263 22.1161 190.622C18.715 191.981 15.7423 194.231 13.5097 197.134C11.2771 200.038 9.867 203.488 9.42719 207.124C8.98737 210.76 9.53409 214.448 11.01 217.8C30.23 261.6 75.43 291 123.47 291C188.71 291 243.82 236.12 243.82 171.15C243.82 170.57 243.82 170 243.82 169.43C243.82 168.86 243.82 168.25 243.82 167.65Z" fill="#F4F5F5"/>
</g>
<g style="mix-blend-mode:multiply" opacity="0.21">
<path d="M246.82 164.66C246.955 135.807 236.719 107.867 217.978 85.9284C199.238 63.9903 173.239 49.515 144.72 45.14C141.067 44.5651 137.327 44.993 133.898 46.3779C130.469 47.7628 127.481 50.0529 125.252 53.0036C123.023 55.9542 121.637 59.4548 121.242 63.1316C120.847 66.8084 121.458 70.5234 123.01 73.88C127.889 84.4119 130.408 95.8828 130.39 107.49C130.39 108.87 130.39 110.23 130.29 111.59C130.29 111.73 130.29 111.87 130.29 112.01C129.117 132.441 120.18 151.652 105.308 165.711C90.437 179.77 70.7551 187.615 50.29 187.64C46.0871 187.631 41.8913 187.296 37.74 186.64C37.44 186.64 37.13 186.64 36.83 186.56L35.83 186.41C32.2108 185.846 28.5065 186.266 25.1056 187.626C21.7046 188.986 18.7325 191.237 16.5008 194.141C14.2692 197.046 12.8604 200.498 12.4221 204.134C11.9839 207.771 12.5323 211.458 14.01 214.81C33.22 258.6 78.42 288 126.47 288C191.7 288 246.82 233.11 246.82 168.14C246.82 167.57 246.82 167 246.82 166.43C246.82 165.86 246.82 165.26 246.82 164.66Z" fill="#F1F1F2"/>
</g>
<g style="mix-blend-mode:multiply" opacity="0.26">
<path d="M249.81 161.66C249.944 132.809 239.708 104.869 220.968 82.9325C202.227 60.9961 176.229 46.5228 147.71 42.15C144.058 41.5773 140.319 42.0067 136.891 43.3925C133.464 44.7783 130.477 47.0686 128.25 50.0189C126.022 52.9692 124.637 56.4689 124.243 60.1446C123.848 63.8204 124.459 67.5342 126.01 70.89C130.894 81.4208 133.416 92.892 133.4 104.5C133.4 105.88 133.4 107.24 133.29 108.6C133.29 108.73 133.29 108.88 133.29 109.01C131.08 151.12 95.96 184.65 53.29 184.65C49.087 184.645 44.8908 184.311 40.74 183.65C40.44 183.65 40.13 183.65 39.83 183.58L38.83 183.43C35.2121 182.867 31.5093 183.287 28.1097 184.647C24.7101 186.007 21.739 188.256 19.5077 191.16C17.2764 194.063 15.8672 197.512 15.4278 201.148C14.9883 204.783 15.5348 208.469 17.01 211.82C36.21 255.61 81.41 285 129.46 285C194.7 285 249.81 230.12 249.81 165.15C249.81 164.58 249.81 164.01 249.81 163.43C249.81 162.85 249.81 162.27 249.81 161.66Z" fill="#EDEEEE"/>
</g>
<g style="mix-blend-mode:multiply" opacity="0.32">
<path d="M252.8 158.67C252.935 129.82 242.7 101.882 223.961 79.9454C205.223 58.0091 179.227 43.5349 150.71 39.16C147.059 38.5883 143.321 39.0181 139.896 40.4036C136.47 41.789 133.484 44.0781 131.257 47.0269C129.03 49.9757 127.644 53.4736 127.249 57.1478C126.853 60.8219 127.462 64.5346 129.01 67.89C133.897 78.4231 136.42 89.8983 136.4 101.51C136.4 102.88 136.4 104.25 136.3 105.6C136.3 105.74 136.3 105.88 136.3 106.02C134.16 148.13 98.97 181.65 56.3 181.65C52.0971 181.641 47.9013 181.307 43.75 180.65C43.44 180.65 43.14 180.65 42.84 180.57L41.84 180.43C38.2213 179.865 34.5172 180.283 31.1161 181.643C27.715 183.002 24.7423 185.251 22.5097 188.154C20.2771 191.058 18.867 194.508 18.4272 198.144C17.9874 201.781 18.5341 205.468 20.01 208.82C39.21 252.62 84.41 282 132.45 282C197.69 282 252.8 227.12 252.8 162.15C252.8 161.57 252.8 161 252.8 160.43C252.8 159.86 252.8 159.27 252.8 158.67Z" fill="#EAEAEB"/>
</g>
<g style="mix-blend-mode:multiply" opacity="0.37">
<path d="M255.79 155.68C255.925 126.829 245.691 98.8892 226.952 76.9513C208.214 55.0134 182.218 40.5372 153.7 36.16C150.049 35.5929 146.313 36.0263 142.889 37.4141C139.466 38.8018 136.482 41.092 134.257 44.0409C132.031 46.9897 130.647 50.4869 130.251 54.16C129.856 57.8332 130.464 61.5449 132.01 64.9C136.897 75.4295 139.42 86.9015 139.4 98.51C139.4 99.89 139.4 101.25 139.3 102.61C139.3 102.75 139.3 102.89 139.3 103.03C137.24 145.14 101.97 178.66 59.3 178.66C55.0971 178.651 50.9013 178.316 46.75 177.66C46.45 177.61 46.14 177.61 45.84 177.58L44.84 177.43C41.2201 176.864 37.5144 177.282 34.112 178.642C30.7095 180.001 27.7358 182.251 25.5029 185.156C23.2699 188.061 21.8602 191.514 21.4215 195.151C20.9829 198.789 21.5316 202.478 23.01 205.83C42.23 249.62 87.43 279.05 135.47 279.05C200.71 279.05 255.82 224.16 255.82 159.19C255.82 158.62 255.82 158.05 255.82 157.48C255.82 156.91 255.79 156.28 255.79 155.68Z" fill="#E6E7E8"/>
</g>
<g style="mix-blend-mode:multiply" opacity="0.42">
<path d="M258.79 152.68C258.924 123.828 248.688 95.889 229.948 73.9525C211.207 52.016 185.209 37.5428 156.69 33.17C153.039 32.6014 149.303 33.034 145.879 34.4216C142.454 35.8092 139.471 38.0999 137.246 41.0494C135.021 43.999 133.638 47.497 133.244 51.1706C132.85 54.8442 133.461 58.5559 135.01 61.91C139.891 72.4414 142.409 83.9126 142.39 95.52C142.39 96.9 142.39 98.26 142.29 99.62C142.29 99.76 142.29 99.9 142.29 100.03C140.29 142.15 104.96 175.67 62.29 175.67C58.0836 175.666 53.8841 175.331 49.73 174.67C49.43 174.67 49.12 174.67 48.83 174.6L47.83 174.45C44.2121 173.887 40.5093 174.307 37.1097 175.667C33.7101 177.027 30.739 179.276 28.5077 182.179C26.2764 185.083 24.8672 188.532 24.4278 192.167C23.9883 195.802 24.5348 199.489 26.01 202.84C45.23 246.63 90.42 276.05 138.47 276.05C203.71 276.05 258.82 221.17 258.82 156.2C258.82 155.63 258.82 155.06 258.82 154.48C258.82 153.9 258.79 153.29 258.79 152.68Z" fill="#E3E4E4"/>
</g>
<g style="mix-blend-mode:multiply" opacity="0.47">
<path d="M261.78 149.69C261.915 120.84 251.68 92.9016 232.941 70.9654C214.203 49.0291 188.207 34.5549 159.69 30.18C156.041 29.6125 152.306 30.0455 148.883 31.4327C145.46 32.8199 142.477 35.1094 140.253 38.0574C138.028 41.0055 136.645 44.5017 136.25 48.1738C135.855 51.8458 136.463 55.5562 138.01 58.91C142.897 69.4431 145.42 80.9183 145.4 92.5299C145.4 93.8999 145.35 95.27 145.29 96.6199C145.29 96.7599 145.29 96.8999 145.29 97.0399C143.37 139.16 107.96 172.67 65.29 172.67C61.0871 172.661 56.8913 172.327 52.74 171.67C52.43 171.62 52.13 171.67 51.83 171.59L50.83 171.45C47.2121 170.887 43.5093 171.307 40.1097 172.667C36.7101 174.027 33.739 176.276 31.5077 179.179C29.2764 182.083 27.8672 185.532 27.4278 189.167C26.9883 192.802 27.5348 196.489 29.01 199.84C48.23 243.64 93.43 273.06 141.47 273.06C206.71 273.06 261.82 218.18 261.82 153.21C261.82 152.63 261.82 152.06 261.82 151.49C261.82 150.92 261.78 150.29 261.78 149.69Z" fill="#DFE0E1"/>
</g>
<g style="mix-blend-mode:multiply" opacity="0.53">
<path d="M264.77 146.7C264.905 117.849 254.671 89.9092 235.932 67.9713C217.194 46.0333 191.198 31.5571 162.68 27.18C159.031 26.6171 155.298 27.0536 151.877 28.4432C148.456 29.8327 145.476 32.1233 143.253 35.0714C141.03 38.0196 139.648 41.515 139.253 45.186C138.858 48.8571 139.465 52.5665 141.01 55.92C145.897 66.4495 148.42 77.9215 148.4 89.53C148.4 90.91 148.4 92.27 148.3 93.63C148.3 93.77 148.3 93.91 148.3 94.05C146.45 136.17 110.97 169.68 68.3 169.68C64.0971 169.671 59.9013 169.336 55.75 168.68C55.45 168.68 55.14 168.68 54.84 168.6L53.84 168.45C50.2201 167.884 46.5144 168.302 43.112 169.661C39.7095 171.021 36.7358 173.271 34.5029 176.176C32.2699 179.081 30.8602 182.534 30.4215 186.171C29.9829 189.809 30.5316 193.498 32.01 196.85C51.23 240.64 96.43 270.07 144.47 270.07C209.71 270.07 264.82 215.18 264.82 150.21C264.82 149.64 264.82 149.07 264.82 148.5C264.82 147.93 264.77 147.3 264.77 146.7Z" fill="#DCDDDE"/>
</g>
<g style="mix-blend-mode:multiply" opacity="0.58">
<path d="M267.77 143.7C267.904 114.849 257.668 86.909 238.928 64.9726C220.187 43.0361 194.189 28.5628 165.67 24.19C162.022 23.6293 158.29 24.0674 154.87 25.4578C151.451 26.8482 148.472 29.139 146.251 32.0868C144.029 35.0345 142.648 38.5291 142.253 42.1991C141.859 45.8691 142.466 49.5774 144.01 52.93C148.891 63.4615 151.409 74.9327 151.39 86.54C151.39 87.92 151.34 89.28 151.29 90.64C151.29 90.78 151.29 90.92 151.29 91.05C149.52 133.18 113.96 166.69 71.29 166.69C67.0869 166.686 62.8906 166.352 58.74 165.69C58.43 165.69 58.12 165.69 57.83 165.62L56.83 165.47C53.2121 164.907 49.5093 165.327 46.1097 166.687C42.7101 168.047 39.739 170.296 37.5077 173.2C35.2764 176.103 33.8672 179.553 33.4278 183.188C32.9883 186.823 33.5348 190.509 35.01 193.86C54.23 237.65 99.42 267.07 147.47 267.07C212.7 267.07 267.82 212.19 267.82 147.22C267.82 146.64 267.82 146.08 267.82 145.5C267.82 144.92 267.77 144.31 267.77 143.7Z" fill="#D8D9DB"/>
</g>
<g style="mix-blend-mode:multiply" opacity="0.63">
<path d="M270.76 140.71C270.895 111.86 260.66 83.9217 241.921 61.9855C223.183 40.0492 197.187 25.575 168.67 21.2001C165.022 20.6369 161.29 21.0729 157.87 22.4619C154.45 23.8509 151.471 26.1408 149.249 29.0881C147.027 32.0354 145.645 35.5299 145.251 39.1999C144.857 42.8698 145.465 46.578 147.01 49.93C151.897 60.4632 154.42 71.9384 154.4 83.5501C154.4 84.9201 154.34 86.2901 154.29 87.6401C154.29 87.7801 154.29 87.9201 154.29 88.0601C152.59 130.19 116.96 163.69 74.29 163.69C70.0871 163.681 65.8913 163.347 61.74 162.69C61.43 162.64 61.13 162.69 60.83 162.61L59.83 162.47C56.2123 161.901 52.5082 162.317 49.1064 163.673C45.7047 165.029 42.7308 167.276 40.4968 170.178C38.2629 173.08 36.8513 176.53 36.4102 180.165C35.9691 183.801 36.5148 187.488 37.99 190.84C57.21 234.64 102.41 264.06 150.45 264.06C215.69 264.06 270.8 209.18 270.8 144.21C270.8 143.63 270.8 143.06 270.8 142.49C270.8 141.92 270.76 141.31 270.76 140.71Z" fill="#D5D6D7"/>
</g>
<g style="mix-blend-mode:multiply" opacity="0.68">
<path d="M273.75 137.72C273.885 108.869 263.651 80.9292 244.912 58.9912C226.174 37.0533 200.178 22.5771 171.66 18.2C168.008 17.6286 164.269 18.0589 160.842 19.4449C157.415 20.8309 154.429 23.1207 152.201 26.0703C149.973 29.0199 148.586 32.5187 148.19 36.194C147.794 39.8692 148.402 43.5832 149.95 46.94C154.837 57.4695 157.36 68.9415 157.34 80.55C157.34 81.93 157.28 83.29 157.23 84.65C157.23 84.79 157.23 84.93 157.23 85.07C155.61 127.2 119.9 160.7 77.23 160.7C73.0238 160.691 68.8246 160.357 64.67 159.7C64.37 159.65 64.06 159.65 63.76 159.62L62.76 159.47C59.1426 158.907 55.4404 159.327 52.0409 160.686C48.6415 162.045 45.6699 164.292 43.4371 167.194C41.2044 170.095 39.7928 173.543 39.3499 177.177C38.9071 180.811 39.4494 184.497 40.92 187.85C60.14 231.64 105.34 261.07 153.38 261.07C218.62 261.07 273.73 206.18 273.73 141.21C273.73 140.64 273.73 140.07 273.73 139.5C273.73 138.93 273.75 138.32 273.75 137.72Z" fill="#D1D3D4"/>
</g>
<g style="mix-blend-mode:multiply" opacity="0.74">
<path d="M276.75 134.72C276.884 105.869 266.648 77.929 247.908 55.9925C229.167 34.056 203.169 19.5828 174.65 15.21C170.992 14.6352 167.247 15.0652 163.815 16.4541C160.382 17.8429 157.392 20.1385 155.163 23.0953C152.935 26.0522 151.552 29.5591 151.162 33.2411C150.772 36.9232 151.39 40.642 152.95 44C157.831 54.5315 160.349 66.0027 160.33 77.61C160.33 78.99 160.27 80.35 160.23 81.71C160.23 81.85 160.23 81.99 160.23 82.12C158.67 124.26 122.9 157.75 80.23 157.75C76.0269 157.746 71.8306 157.412 67.68 156.75C67.37 156.7 67.06 156.75 66.77 156.68L65.77 156.53C62.1526 155.966 58.45 156.385 55.0502 157.743C51.6505 159.102 48.6788 161.35 46.4466 164.252C44.2143 167.154 42.8038 170.603 42.3628 174.238C41.9218 177.872 42.4666 181.558 43.94 184.91C63.16 228.7 108.35 258.13 156.4 258.13C221.63 258.13 276.75 203.24 276.75 138.27C276.75 137.69 276.75 137.13 276.75 136.55C276.75 135.97 276.75 135.33 276.75 134.72Z" fill="#CECFD1"/>
</g>
<g style="mix-blend-mode:multiply" opacity="0.79">
<path d="M279.74 131.73C279.875 102.88 269.64 74.9416 250.901 53.0054C232.163 31.0691 206.167 16.5949 177.65 12.22C173.992 11.6405 170.245 12.0669 166.811 13.4535C163.376 14.84 160.384 17.1345 158.153 20.0912C155.923 23.048 154.539 26.5557 154.149 30.2388C153.759 33.9219 154.378 37.6417 155.94 41C160.827 51.5331 163.35 63.0083 163.33 74.62C163.33 75.99 163.26 77.36 163.22 78.71C163.22 78.85 163.22 78.99 163.22 79.13C161.74 121.27 125.89 154.76 83.22 154.76C79.0171 154.751 74.8213 154.417 70.67 153.76C70.36 153.76 70.06 153.76 69.76 153.68L68.76 153.54C65.1423 152.971 61.4382 153.387 58.0364 154.743C54.6347 156.099 51.6608 158.346 49.4268 161.248C47.1929 164.15 45.7813 167.6 45.3402 171.235C44.8991 174.871 45.4448 178.558 46.92 181.91C66.14 225.71 111.34 255.13 159.38 255.13C224.62 255.13 279.73 200.25 279.73 135.28C279.73 134.7 279.73 134.13 279.73 133.56C279.73 132.99 279.74 132.33 279.74 131.73Z" fill="#CACCCD"/>
</g>
<g style="mix-blend-mode:multiply" opacity="0.84">
<path d="M282.73 128.74C282.865 99.8888 272.631 71.9491 253.892 50.0112C235.154 28.0733 209.158 13.5971 180.64 9.21996C176.983 8.64411 173.238 9.0729 169.805 10.4605C166.373 11.8481 163.382 14.1424 161.152 17.098C158.923 20.0537 157.538 23.5597 157.147 27.2412C156.755 30.9228 157.372 34.6415 158.93 38C163.817 48.5295 166.34 60.0015 166.32 71.61C166.32 72.99 166.25 74.35 166.21 75.71C166.21 75.85 166.21 75.99 166.21 76.12C164.81 118.27 128.88 151.76 86.21 151.76C82.0036 151.756 77.804 151.422 73.65 150.76C73.35 150.71 73.04 150.71 72.74 150.68L71.74 150.53C68.1226 149.967 64.4204 150.387 61.0209 151.746C57.6215 153.104 54.6499 155.352 52.4171 158.253C50.1844 161.155 48.7728 164.603 48.3299 168.237C47.8871 171.871 48.4294 175.557 49.9 178.91C69.13 222.7 114.32 252.13 162.36 252.13C227.6 252.13 282.71 197.24 282.71 132.27C282.71 131.7 282.71 131.13 282.71 130.56C282.71 129.99 282.73 129.34 282.73 128.74Z" fill="#C7C8CA"/>
</g>
<g style="mix-blend-mode:multiply" opacity="0.89">
<path d="M285.73 125.74C285.864 96.8885 275.628 68.949 256.888 47.0126C238.147 25.0761 212.149 10.6028 183.63 6.23005C179.975 5.65745 176.233 6.08819 172.803 7.47628C169.374 8.86437 166.385 11.1577 164.158 14.1115C161.93 17.0653 160.546 20.5686 160.153 24.2475C159.761 27.9265 160.375 31.6429 161.93 35C166.815 45.5299 169.334 57.0022 169.31 68.6101C169.31 69.9901 169.25 71.3501 169.21 72.7101C169.21 72.8501 169.21 72.9901 169.21 73.1201C167.88 115.27 131.88 148.75 89.21 148.75C85.0067 148.751 80.81 148.417 76.66 147.75C76.35 147.75 76.04 147.75 75.75 147.68L74.75 147.53C71.1338 146.967 67.4327 147.386 64.0343 148.744C60.6359 150.103 57.6652 152.35 55.4334 155.25C53.2015 158.151 51.7906 161.598 51.3485 165.231C50.9063 168.864 51.4491 172.549 52.92 175.9C72.14 219.69 117.33 249.12 165.38 249.12C230.61 249.12 285.73 194.23 285.73 129.26C285.73 128.68 285.73 128.11 285.73 127.54C285.73 126.97 285.73 126.35 285.73 125.74Z" fill="#C3C5C7"/>
</g>
<g style="mix-blend-mode:multiply" opacity="0.95">
<path d="M288.72 122.75C288.855 93.8999 278.62 65.9616 259.881 44.0254C241.143 22.0891 215.147 7.61492 186.63 3.23997C182.974 2.66282 179.231 3.08994 175.799 4.47568C172.368 5.86142 169.377 8.15368 167.148 11.1074C164.918 14.0611 163.533 17.5653 163.14 21.2452C162.748 24.9251 163.363 28.6425 164.92 32C169.807 42.5331 172.33 54.0083 172.31 65.62C172.31 66.99 172.24 68.36 172.2 69.72C172.2 69.85 172.2 69.99 172.2 70.13C170.95 112.28 134.87 145.76 92.2 145.76C87.9936 145.756 83.794 145.422 79.64 144.76C79.33 144.71 79.03 144.76 78.73 144.68L77.73 144.54C74.1151 143.976 70.4151 144.395 67.0177 145.753C63.6203 147.111 60.6506 149.357 58.4196 152.257C56.1886 155.156 54.7785 158.603 54.337 162.235C53.8955 165.866 54.4388 169.55 55.91 172.9C75.13 216.7 120.33 246.12 168.37 246.12C233.61 246.12 288.72 191.24 288.72 126.27C288.72 125.69 288.72 125.12 288.72 124.55C288.72 123.98 288.72 123.35 288.72 122.75Z" fill="#C0C1C3"/>
</g>
<g style="mix-blend-mode:multiply">
<path d="M291.71 119.76C291.845 90.9088 281.611 62.9692 262.872 41.0313C244.134 19.0933 218.138 4.61714 189.62 0.239991C185.965 -0.333601 182.223 0.0959243 178.794 1.48273C175.364 2.86953 172.375 5.16155 170.147 8.11419C167.918 11.0668 166.532 14.5692 166.138 18.2476C165.745 21.926 166.357 25.6424 167.91 29C172.797 39.5295 175.32 51.0015 175.3 62.61C175.3 63.99 175.3 65.35 175.19 66.71C175.19 66.85 175.19 66.99 175.19 67.12C174.019 87.5532 165.083 106.766 150.212 120.828C135.34 134.889 115.657 142.735 95.19 142.76C90.9838 142.751 86.7846 142.417 82.63 141.76C82.33 141.76 82.02 141.76 81.72 141.68L80.72 141.53C77.1026 140.967 73.4004 141.387 70.0009 142.746C66.6015 144.105 63.6299 146.352 61.3971 149.254C59.1644 152.155 57.7528 155.603 57.3099 159.237C56.8671 162.871 57.4094 166.557 58.88 169.91C78.11 213.7 123.3 243.13 171.34 243.13C236.58 243.13 291.69 188.24 291.69 123.27C291.69 122.7 291.69 122.13 291.69 121.56C291.69 120.99 291.71 120.36 291.71 119.76Z" fill="#BCBEC0"/>
</g>
</g>
<path d="M289.75 121.71C289.884 92.8612 279.65 64.9242 260.911 42.9896C242.172 21.0549 216.176 6.58276 187.66 2.21003C184.012 1.64541 180.279 2.08067 176.859 3.46948C173.439 4.85829 170.46 7.14865 168.238 10.0967C166.017 13.0447 164.636 16.54 164.244 20.2105C163.851 23.8809 164.462 27.589 166.01 30.94C170.894 41.4702 173.413 52.9423 173.39 64.55C173.39 65.93 173.39 67.29 173.29 68.65C173.29 68.79 173.29 68.93 173.29 69.07C172.662 80.2572 169.695 91.1883 164.579 101.157C159.464 111.126 152.314 119.911 143.593 126.945C134.871 133.979 124.771 139.106 113.944 141.994C103.118 144.881 91.8064 145.466 80.74 143.71C80.43 143.71 80.13 143.71 79.82 143.64L78.82 143.49C75.2026 142.927 71.5004 143.347 68.1009 144.706C64.7015 146.065 61.7299 148.312 59.4971 151.214C57.2644 154.115 55.8528 157.563 55.4099 161.197C54.9671 164.831 55.5094 168.517 56.98 171.87C76.21 215.67 121.41 245.09 169.44 245.09C234.68 245.09 289.79 190.2 289.79 125.23C289.79 124.66 289.79 124.09 289.79 123.52C289.79 122.95 289.75 122.32 289.75 121.71Z" fill="white"/>
<path d="M291.71 119.76C291.845 90.9088 281.611 62.9692 262.872 41.0313C244.134 19.0933 218.138 4.61714 189.62 0.239991C185.965 -0.333601 182.223 0.0959243 178.794 1.48273C175.364 2.86953 172.375 5.16155 170.147 8.11419C167.918 11.0668 166.532 14.5692 166.138 18.2476C165.745 21.926 166.357 25.6424 167.91 29C172.797 39.5295 175.32 51.0015 175.3 62.61C175.3 63.99 175.3 65.35 175.19 66.71C175.19 66.85 175.19 66.99 175.19 67.12C174.019 87.5532 165.083 106.766 150.212 120.828C135.34 134.889 115.657 142.735 95.19 142.76C90.9838 142.751 86.7846 142.417 82.63 141.76C82.33 141.76 82.02 141.76 81.72 141.68L80.72 141.53C77.1026 140.967 73.4004 141.387 70.0009 142.746C66.6015 144.105 63.6299 146.352 61.3971 149.254C59.1644 152.155 57.7528 155.603 57.3099 159.237C56.8671 162.871 57.4094 166.557 58.88 169.91C78.11 213.7 123.3 243.13 171.34 243.13C236.58 243.13 291.69 188.24 291.69 123.27C291.69 122.7 291.69 122.13 291.69 121.56C291.69 120.99 291.71 120.36 291.71 119.76Z" fill="url(#paint0_linear)"/>
<path d="M189.01 22.3201C194.95 35.1501 197.74 50.4301 197.74 65.4901C197.74 121.04 150.74 166.67 95.18 166.67C90.46 166.67 83.98 162.61 79.46 161.98L77.61 161.71C93.61 198.11 130.91 222.71 171.37 222.71C226.92 222.71 271.3 176.35 271.3 123.27C271.29 73.0701 237.08 29.8601 189.01 22.3201Z" fill="#D89F00"/>
<path d="M186.45 20.42C194.097 36.9558 197.107 55.2585 195.159 73.3723C193.211 91.4861 186.377 108.73 175.389 123.262C164.4 137.793 149.67 149.065 132.772 155.875C115.874 162.684 97.4435 164.773 79.45 161.92C86.7352 177.689 97.9808 191.302 112.091 201.432C126.202 211.563 142.696 217.866 159.966 219.726C177.236 221.587 194.694 218.943 210.639 212.05C226.583 205.158 240.471 194.253 250.948 180.398C261.425 166.543 268.134 150.21 270.422 132.991C272.71 115.772 270.499 98.254 264.004 82.1436C257.509 66.0332 246.951 51.88 233.36 41.063C219.769 30.246 203.607 23.134 186.45 20.42Z" fill="#FFBB00"/>
<g style="mix-blend-mode:screen" opacity="0.2">
<path d="M165.84 134.1C173.45 133.114 181.116 132.619 188.79 132.62C218.93 132.62 246.21 140.02 265.99 151.97C270.68 138.102 272.285 123.378 270.695 108.826C269.104 94.2733 264.356 80.2436 256.782 67.7163C249.207 55.1891 238.989 44.4665 226.841 36.2974C214.694 28.1283 200.909 22.7097 186.45 20.42C195.115 39.1895 197.786 60.1733 194.098 80.5148C190.41 100.856 180.543 119.567 165.84 134.1Z" fill="#FFBB00"/>
</g>
<path style="mix-blend-mode:multiply" d="M291.71 119.76C291.845 90.9088 281.611 62.9692 262.872 41.0313C244.134 19.0933 218.138 4.61714 189.62 0.239991C185.965 -0.333601 182.223 0.0959243 178.794 1.48273C175.364 2.86953 172.375 5.16155 170.147 8.11419C167.918 11.0668 166.532 14.5692 166.138 18.2476C165.745 21.926 166.357 25.6424 167.91 29C172.797 39.5295 175.32 51.0015 175.3 62.61C175.3 63.99 175.3 65.35 175.19 66.71C175.19 66.85 175.19 66.99 175.19 67.12C174.019 87.5532 165.083 106.766 150.212 120.828C135.34 134.889 115.657 142.735 95.19 142.76C90.9838 142.751 86.7846 142.417 82.63 141.76C82.33 141.76 82.02 141.76 81.72 141.68L80.72 141.53C77.1026 140.967 73.4004 141.387 70.0009 142.746C66.6015 144.105 63.6299 146.352 61.3971 149.254C59.1644 152.155 57.7528 155.603 57.3099 159.237C56.8671 162.871 57.4094 166.557 58.88 169.91C78.11 213.7 123.3 243.13 171.34 243.13C236.58 243.13 291.69 188.24 291.69 123.27C291.69 122.7 291.69 122.13 291.69 121.56C291.69 120.99 291.71 120.36 291.71 119.76Z" fill="url(#paint1_linear)"/>
</g>
<defs>
<linearGradient id="paint0_linear" x1="89.57" y1="231.21" x2="273.37" y2="47.41" gradientUnits="userSpaceOnUse">
<stop stop-color="#E6E6E6"/>
<stop offset="1" stop-color="#FAFAFA"/>
</linearGradient>
<linearGradient id="paint1_linear" x1="110.84" y1="209.94" x2="282.14" y2="38.64" gradientUnits="userSpaceOnUse">
<stop offset="0.39" stop-color="white"/>
<stop offset="0.5" stop-color="#FCFCFC"/>
<stop offset="0.58" stop-color="#F3F3F3"/>
<stop offset="0.65" stop-color="#E3E3E3"/>
<stop offset="0.71" stop-color="#CECECE"/>
<stop offset="0.72" stop-color="#C9C9C9"/>
<stop offset="0.76" stop-color="#C9C9C9"/>
<stop offset="0.99" stop-color="#C9C9C9"/>
</linearGradient>
<clipPath id="clip0">
<rect width="291.4" height="300" fill="white" transform="translate(0.309998)"/>
</clipPath>
</defs>
</svg>
