<svg width="254" height="205" viewBox="0 0 254 205" fill="none" xmlns="http://www.w3.org/2000/svg">
<path d="M251.591 71.9453C251.741 65.3162 249.799 58.8083 246.041 53.3453C246.542 50.7972 246.757 48.2011 246.681 45.6053C246.845 39.0318 245.111 32.5503 241.689 26.9358C238.266 21.3212 233.299 16.8113 227.381 13.9453C222.761 11.7076 217.694 10.5484 212.561 10.5553C209.727 10.5398 206.902 10.8757 204.151 11.5553C200.465 10.1077 196.54 9.36814 192.581 9.37532C187.963 9.39358 183.403 10.4081 179.213 12.3496C175.022 14.2911 171.3 17.1139 168.301 20.6253C166.073 20.1331 163.809 19.8221 161.531 19.6953C157.202 13.6919 151.392 8.91274 144.666 5.82419C137.94 2.73563 130.529 1.44308 123.155 2.07262C115.78 2.70217 108.695 5.23232 102.59 9.41625C96.4851 13.6002 91.5688 19.295 88.3208 25.9453C78.3514 28.1309 69.3813 33.5439 62.8008 41.3453C41.8008 42.8853 24.6008 54.8453 18.0008 70.9653C14.6594 73.0319 11.6658 75.6137 9.13079 78.6153C3.66692 85.1481 0.738263 93.43 0.880786 101.945C0.745361 104.602 0.909733 107.265 1.37079 109.885C4.86079 129.655 25.3708 143.345 54.9308 146.605C54.6608 147.015 54.4108 147.425 54.1708 147.835C54.0608 147.995 53.9608 148.165 53.8608 148.345C53.7608 148.525 53.6008 148.745 53.5008 148.945C53.4008 149.145 53.3808 149.195 53.3208 149.315C52.5024 150.816 51.8325 152.394 51.3208 154.025C51.3208 154.175 51.2508 154.325 51.2008 154.475C51.1508 154.625 51.0908 154.755 51.0508 154.895C48.732 162.222 49.1152 170.137 52.1308 177.205C53.7274 180.968 56.1189 184.34 59.1412 187.092C62.1636 189.843 65.7454 191.908 69.6408 193.145C72.2867 193.964 75.0411 194.379 77.8108 194.375C81.7238 194.325 85.5879 193.498 89.179 191.942C92.7701 190.387 96.0168 188.135 98.7308 185.315C98.8508 185.635 98.9508 185.965 99.1008 186.315C100.819 190.373 103.394 194.012 106.649 196.982C109.905 199.952 113.763 202.184 117.961 203.525C120.811 204.406 123.777 204.854 126.761 204.855C139.001 204.855 150.401 197.195 156.021 185.685C158.592 188.442 161.707 190.637 165.167 192.133C168.628 193.628 172.361 194.392 176.131 194.375C189.041 194.375 200.901 185.225 204.971 172.105C204.971 171.975 205.031 171.835 205.071 171.705C205.111 171.575 205.181 171.395 205.241 171.235C205.737 169.605 206.072 167.931 206.241 166.235C206.241 166.095 206.301 165.965 206.311 165.845C206.321 165.725 206.311 165.375 206.311 165.145C206.311 164.915 206.311 164.725 206.311 164.505C206.311 164.015 206.361 163.505 206.361 163.005C206.361 162.505 206.361 162.235 206.361 161.845C206.361 161.625 206.361 161.385 206.361 161.155C206.151 152.595 203.601 142.995 200.951 135.255C200.851 134.985 200.771 134.745 200.691 134.515C200.611 134.285 200.601 134.235 200.561 134.115C200.312 133.431 200.021 132.764 199.691 132.115C202.127 129.94 204.308 127.494 206.191 124.825C213.065 123.549 219.519 120.601 224.985 116.241C230.45 111.881 234.759 106.244 237.531 99.8253C242.064 96.7855 245.735 92.626 248.188 87.7501C250.641 82.8741 251.792 77.4472 251.531 71.9953L251.591 71.9453Z" fill="white"/>
<path d="M253.221 70.3154C253.309 66.5403 252.716 62.7801 251.471 59.2153C250.542 56.5618 249.271 54.0406 247.691 51.7153C248.189 49.1671 248.397 46.5705 248.311 43.9753C248.45 38.7021 247.366 33.4682 245.144 28.6839C242.922 23.8995 239.622 19.6946 235.504 16.3984C231.385 13.1023 226.56 10.8044 221.405 9.68485C216.25 8.5653 210.906 8.65446 205.791 9.94535C202.102 8.4986 198.173 7.75906 194.211 7.76535C189.601 7.7765 185.048 8.78092 180.862 10.7102C176.675 12.6395 172.954 15.4483 169.951 18.9453C167.716 18.4525 165.446 18.1414 163.161 18.0153C158.833 12.012 153.023 7.23323 146.297 4.14521C139.571 1.0572 132.16 -0.234536 124.786 0.396062C117.413 1.02666 110.328 3.55805 104.225 7.74322C98.1209 11.9284 93.2065 17.6244 89.9608 24.2754C79.9927 26.4583 71.0228 31.8676 64.4408 39.6653C43.4408 41.2053 26.2408 53.1753 19.6308 69.2953C16.2993 71.3635 13.3158 73.9454 10.7908 76.9454C5.32955 83.4653 2.39438 91.7313 2.52077 100.235C2.38162 102.892 2.54264 105.555 3.00077 108.175C6.51077 127.955 27.0008 141.635 56.5708 144.895C56.2908 145.305 56.0508 145.715 55.8008 146.125C55.6908 146.295 55.5908 146.455 55.4908 146.635L55.1308 147.235C55.0708 147.365 55.0208 147.485 54.9608 147.605C54.1382 149.108 53.4682 150.689 52.9608 152.325C52.9103 152.469 52.8702 152.616 52.8408 152.765C52.7908 152.915 52.7308 153.055 52.6808 153.185C50.3608 160.53 50.7475 168.462 53.7708 175.545C55.3674 179.306 57.7578 182.677 60.7782 185.428C63.7986 188.18 67.3778 190.246 71.2708 191.485C73.9203 192.303 76.6778 192.718 79.4508 192.715C83.3623 192.664 87.2248 191.837 90.8143 190.282C94.4037 188.727 97.6486 186.474 100.361 183.655C100.491 183.975 100.591 184.295 100.731 184.605C102.451 188.665 105.027 192.305 108.284 195.277C111.541 198.249 115.401 200.483 119.601 201.825C122.448 202.707 125.411 203.155 128.391 203.155C140.641 203.155 152.041 195.485 157.671 183.975C160.232 186.741 163.339 188.945 166.795 190.45C170.251 191.954 173.981 192.725 177.751 192.715C190.651 192.715 202.521 183.555 206.581 170.445C206.581 170.305 206.641 170.165 206.681 170.045L206.861 169.565C207.348 167.933 207.682 166.259 207.861 164.565C207.861 164.425 207.861 164.305 207.921 164.175C207.981 164.045 207.921 163.715 207.921 163.475C207.921 163.235 207.921 163.065 207.921 162.845C207.921 162.355 207.921 161.845 207.981 161.335C208.041 160.825 207.981 160.565 207.981 160.185C207.981 159.955 207.981 159.715 207.981 159.485C207.781 150.925 205.221 141.325 202.561 133.585C202.471 133.315 202.391 133.075 202.311 132.855C202.231 132.635 202.221 132.575 202.171 132.445C201.93 131.76 201.642 131.092 201.311 130.445C203.744 128.274 205.922 125.831 207.801 123.165C216.948 121.477 225.289 116.833 231.541 109.945C234.719 106.452 237.301 102.458 239.181 98.1254C243.711 95.082 247.379 90.9219 249.831 86.0468C252.284 81.1717 253.437 75.7465 253.181 70.2953L253.221 70.3154Z" fill="url(#paint0_linear)"/>
<path d="M67.0308 58.6254C69.2591 58.5272 71.4916 58.5907 73.7108 58.8154C77.7108 49.5354 87.4208 42.7454 99.0508 42.2354C100.325 42.1866 101.6 42.2133 102.871 42.3154C103.513 36.3609 106.212 30.8169 110.502 26.6381C114.793 22.4593 120.406 19.9074 126.375 19.4218C132.344 18.9362 138.296 20.5473 143.206 23.9777C148.115 27.4081 151.674 32.443 153.271 38.2154C156.828 37.097 160.587 36.7677 164.285 37.2506C167.982 37.7334 171.53 39.0168 174.681 41.0111C177.832 43.0055 180.51 45.6629 182.529 48.7983C184.548 51.9337 185.859 55.4715 186.371 59.1654C189.717 57.0925 193.494 55.8138 197.411 55.4273C201.328 55.0409 205.282 55.5569 208.969 56.9359C212.656 58.3148 215.978 60.52 218.68 63.3823C221.382 66.2445 223.393 69.6878 224.557 73.4478C225.722 77.2078 226.01 81.1847 225.399 85.0732C224.788 88.9618 223.294 92.6587 221.032 95.8803C218.77 99.1019 215.801 101.763 212.351 103.658C208.901 105.554 205.063 106.634 201.131 106.815C199.856 106.851 198.579 106.801 197.311 106.665C196.221 109.97 194.473 113.02 192.171 115.63C189.87 118.241 187.064 120.357 183.921 121.853C180.779 123.348 177.366 124.191 173.889 124.331C170.412 124.471 166.943 123.904 163.691 122.665C157.221 129.575 146.231 134.405 133.591 134.955C116.691 135.705 102.071 128.595 96.9908 118.175C93.9478 120.671 90.373 122.436 86.5413 123.334C82.7096 124.232 78.723 124.24 74.8879 123.356C71.0528 122.472 67.4715 120.721 64.4191 118.237C61.3668 115.752 58.9248 112.601 57.2808 109.025C43.9808 105.945 33.7308 101.365 33.7308 85.8854C33.7308 71.6554 48.0108 59.4654 67.0308 58.6254Z" fill="#DADDDB"/>
<path d="M67.0308 56.6254C69.2591 56.5271 71.4916 56.5907 73.7108 56.8154C77.7108 47.5354 87.4208 40.7454 99.0508 40.2254C100.325 40.1849 101.6 40.2149 102.871 40.3154C103.512 34.3603 106.209 28.8152 110.499 24.6352C114.788 20.4551 120.401 17.9018 126.371 17.415C132.34 16.9282 138.293 18.5384 143.203 21.9682C148.113 25.3981 151.673 30.4329 153.271 36.2054C155.368 35.5553 157.538 35.1723 159.731 35.0654C166.123 34.7828 172.391 36.8891 177.316 40.9743C182.24 45.0595 185.468 50.8311 186.371 57.1654C189.717 55.089 193.494 53.8071 197.413 53.4181C201.331 53.0291 205.287 53.5433 208.976 54.9212C212.665 56.2991 215.989 58.5041 218.693 61.3669C221.397 64.2297 223.409 67.674 224.574 71.4355C225.74 75.197 226.027 79.1755 225.416 83.0656C224.804 86.9557 223.309 90.6538 221.045 93.876C218.781 97.0982 215.809 99.7588 212.357 101.653C208.905 103.548 205.065 104.626 201.131 104.805C199.856 104.85 198.579 104.803 197.311 104.665C196.217 107.968 194.467 111.015 192.165 113.623C189.863 116.231 187.057 118.346 183.916 119.841C180.774 121.336 177.363 122.179 173.888 122.321C170.412 122.463 166.943 121.9 163.691 120.665C157.221 127.575 146.231 132.405 133.591 132.955C116.691 133.705 102.071 126.595 96.9908 116.175C93.9478 118.671 90.373 120.436 86.5413 121.334C82.7096 122.232 78.723 122.24 74.8879 121.356C71.0528 120.472 67.4715 118.721 64.4191 116.237C61.3668 113.752 58.9248 110.601 57.2808 107.025C43.9808 103.945 33.7308 99.3554 33.7308 83.8854C33.7308 69.6554 48.0108 57.4554 67.0308 56.6254Z" fill="#070E17"/>
<g style="mix-blend-mode:screen" opacity="0.15">
<path d="M129.721 77.1754C165.411 77.1754 198.311 80.4554 224.781 85.9754C225.867 82.0515 226.01 77.9262 225.196 73.9367C224.383 69.9473 222.637 66.2069 220.101 63.0215C217.566 59.8361 214.312 57.2961 210.606 55.6091C206.901 53.9222 202.848 53.1362 198.781 53.3154C194.368 53.5028 190.079 54.8291 186.331 57.1654C185.428 50.8311 182.2 45.0595 177.276 40.9743C172.351 36.8891 166.083 34.7828 159.691 35.0654C157.498 35.1723 155.328 35.5553 153.231 36.2054C151.634 30.4329 148.073 25.3981 143.163 21.9682C138.253 18.5384 132.3 16.9282 126.331 17.415C120.361 17.9018 114.748 20.4551 110.459 24.6352C106.169 28.8152 103.472 34.3603 102.831 40.3154C101.56 40.2149 100.285 40.1849 99.0108 40.2254C87.3808 40.7454 77.6608 47.5354 73.6708 56.8154C71.4517 56.5907 69.2191 56.5271 66.9908 56.6254C47.9908 57.4554 33.6908 69.6254 33.6908 83.8854C33.6908 84.6754 33.7408 85.4254 33.7908 86.1554C60.4208 80.5354 93.6508 77.1754 129.721 77.1754Z" fill="#7F8C8D"/>
</g>
<path d="M189.511 91.9454C191.272 92.7889 193.181 93.277 195.131 93.3817C197.08 93.4864 199.031 93.2056 200.872 92.5554C202.713 91.9052 204.408 90.8984 205.859 89.5926C207.311 88.2868 208.49 86.7076 209.331 84.9454C209.825 83.9198 210.194 82.8387 210.431 81.7254C211.701 83.1211 213.229 84.2586 214.931 85.0754C216.692 85.9796 218.616 86.5225 220.59 86.6719C222.564 86.8213 224.548 86.5743 226.425 85.9454C228.302 85.3164 230.034 84.3184 231.519 83.0098C233.005 81.7013 234.213 80.1089 235.074 78.3262C235.935 76.5435 236.43 74.6066 236.531 72.6296C236.631 70.6526 236.336 68.6754 235.661 66.8145C234.986 64.9535 233.945 63.2464 232.601 61.7937C231.256 60.3409 229.634 59.1719 227.831 58.3554C227.182 58.0575 226.514 57.8036 225.831 57.5954C228.927 54.6327 230.801 50.6178 231.083 46.3421C231.366 42.0663 230.036 37.8398 227.357 34.4956C224.678 31.1513 220.843 28.9319 216.609 28.2748C212.374 27.6176 208.048 28.5704 204.481 30.9454C201.718 28.2794 198.03 26.7886 194.19 26.7865C190.351 26.7844 186.661 28.2713 183.896 30.9343C181.13 33.5974 179.505 37.2291 179.363 41.0655C179.22 44.902 180.571 48.6443 183.131 51.5054C180.087 52.1194 177.312 53.6735 175.199 55.9485C173.085 58.2235 171.739 61.1047 171.35 64.1856C170.961 67.2665 171.549 70.3918 173.031 73.1207C174.513 75.8495 176.815 78.0443 179.611 79.3954C180.141 79.6454 180.701 79.8654 181.231 80.0554C181.478 82.5802 182.369 84.9994 183.819 87.0812C185.268 89.1631 187.228 90.8379 189.511 91.9454Z" fill="#DADDDB"/>
<path d="M189.511 88.8754C193.059 90.5811 197.138 90.8094 200.854 89.5101C204.57 88.2108 207.619 85.4902 209.331 81.9454C209.822 80.9186 210.191 79.8379 210.431 78.7254C211.907 80.3334 213.719 81.5958 215.739 82.4225C217.759 83.2492 219.937 83.6199 222.117 83.508C224.297 83.3961 226.425 82.8044 228.349 81.7752C230.274 80.746 231.948 79.3046 233.252 77.5539C234.555 75.8032 235.456 73.7864 235.89 71.6473C236.324 69.5083 236.281 67.2998 235.763 65.1795C235.245 63.0591 234.266 61.0792 232.895 59.381C231.524 57.6828 229.794 56.3083 227.831 55.3554C227.182 55.0543 226.514 54.797 225.831 54.5854C228.913 51.6195 230.775 47.6082 231.051 43.3396C231.327 39.071 229.996 34.8535 227.321 31.5156C224.646 28.1777 220.82 25.9608 216.594 25.3001C212.367 24.6395 208.047 25.5831 204.481 27.9454C203.353 26.8665 202.064 25.9691 200.661 25.2854C197.577 23.8094 194.078 23.4443 190.756 24.2519C187.433 25.0594 184.492 26.99 182.43 29.7169C180.368 32.4438 179.311 35.7995 179.439 39.216C179.567 42.6325 180.871 45.9 183.131 48.4654C180.087 49.0794 177.312 50.6335 175.199 52.9085C173.085 55.1835 171.739 58.0647 171.35 61.1456C170.961 64.2266 171.549 67.3518 173.031 70.0807C174.513 72.8095 176.815 75.0043 179.611 76.3554C180.136 76.6095 180.677 76.8299 181.231 77.0154C181.485 79.5344 182.379 81.9465 183.828 84.0225C185.277 86.0984 187.234 87.769 189.511 88.8754Z" fill="#495355"/>
<g style="mix-blend-mode:screen" opacity="0.1">
<path d="M203.711 58.0654C213.236 58.0453 222.754 58.5628 232.221 59.6154C230.972 58.2683 229.484 57.1661 227.831 56.3654C227.182 56.0643 226.514 55.807 225.831 55.5954C228.927 52.6327 230.801 48.6178 231.083 44.3421C231.366 40.0663 230.036 35.8398 227.357 32.4956C224.678 29.1513 220.843 26.9319 216.609 26.2748C212.374 25.6176 208.048 26.5704 204.481 28.9454C203.353 27.8665 202.064 26.9691 200.661 26.2854C197.577 24.8094 194.078 24.4443 190.756 25.2519C187.434 26.0594 184.492 27.99 182.43 30.7169C180.368 33.4438 179.311 36.7995 179.439 40.216C179.567 43.6325 180.871 46.9 183.131 49.4654C180.887 49.913 178.777 50.8758 176.969 52.2781C175.161 53.6803 173.703 55.4834 172.711 57.5454C172.324 58.3479 172.012 59.1849 171.781 60.0454C182.37 58.6964 193.036 58.035 203.711 58.0654Z" fill="#9AAAAB"/>
</g>
<path d="M121.571 99.5654C120.331 86.5654 104.571 79.1154 93.6408 85.3354C92.7992 79.7902 90.0491 74.7125 85.8648 70.9778C81.6804 67.2431 76.3241 65.0854 70.7193 64.8768C65.1145 64.6683 59.6126 66.4219 55.1623 69.8354C50.712 73.2488 47.5921 78.1081 46.3408 83.5754C44.3526 83.053 42.3064 82.7842 40.2508 82.7754C27.7308 82.7754 17.6508 93.1554 19.7908 105.235C25.5408 137.775 125.131 136.945 121.571 99.5654Z" fill="#DADDDB"/>
<path d="M121.571 97.2654C120.331 84.2654 104.571 76.8154 93.6408 83.0454C92.8006 77.4998 90.0516 72.4213 85.868 68.6855C81.6844 64.9497 76.3284 62.7907 70.7235 62.581C65.1186 62.3713 59.6161 64.1239 55.165 67.5366C50.7139 70.9493 47.5931 75.8081 46.3408 81.2754C44.3531 80.7497 42.3068 80.4775 40.2508 80.4654C27.7308 80.4654 17.6508 90.8554 19.7908 102.935C25.5408 135.475 125.131 134.605 121.571 97.2654Z" fill="#495355"/>
<g style="mix-blend-mode:screen" opacity="0.1">
<path d="M70.3008 96.7654C87.4692 96.6901 104.621 97.8565 121.621 100.255C121.669 99.2553 121.652 98.2532 121.571 97.2554C120.331 84.2554 104.571 76.8054 93.6408 83.0354C92.8006 77.4898 90.0517 72.4113 85.868 68.6755C81.6844 64.9397 76.3284 62.7807 70.7235 62.571C65.1186 62.3613 59.6161 64.1138 55.165 67.5265C50.7139 70.9392 47.5931 75.7981 46.3408 81.2654C44.3531 80.7396 42.3068 80.4675 40.2508 80.4554C28.7008 80.4554 19.2508 89.3054 19.5408 100.165C36.3584 97.826 53.3215 96.6898 70.3008 96.7654Z" fill="#8A9899"/>
</g>
<path d="M91.9708 165.425C89.6708 172.805 82.6608 177.205 76.2908 175.235C69.9208 173.265 66.6308 165.665 68.9308 158.235C71.2308 150.805 87.5408 138.945 87.5408 138.945C87.5408 138.945 94.2608 158.035 91.9708 165.425Z" fill="#070E17"/>
<path d="M92.2408 164.555C89.9508 171.935 82.9308 176.335 76.5708 174.365C70.2108 172.395 66.9108 164.795 69.2008 157.365C71.4908 149.935 87.8208 138.045 87.8208 138.045C87.8208 138.045 94.5308 157.155 92.2408 164.555Z" fill="#283136" fill-opacity="0.4"/>
<g style="mix-blend-mode:screen" opacity="0.2">
<path d="M81.6508 157.945C85.4438 159.116 89.125 160.622 92.6508 162.445C93.4908 154.095 87.8608 138.065 87.8608 138.065C87.8608 138.065 74.1508 148.065 70.1008 155.445C74.0172 155.935 77.8823 156.772 81.6508 157.945Z" fill="#7F8C8D"/>
</g>
<path d="M190.271 165.425C187.981 172.805 180.961 177.205 174.601 175.235C168.241 173.265 164.941 165.665 167.231 158.235C169.521 150.805 185.851 138.945 185.851 138.945C185.851 138.945 192.571 158.035 190.271 165.425Z" fill="#070E17"/>
<path d="M190.551 164.555C188.241 171.935 181.231 176.335 174.871 174.365C168.511 172.395 165.221 164.795 167.501 157.365C169.781 149.935 186.131 138.085 186.131 138.085C186.131 138.085 192.831 157.155 190.551 164.555Z" fill="#283136" fill-opacity="0.4"/>
<g style="mix-blend-mode:screen" opacity="0.2">
<path d="M179.961 157.945C183.737 159.118 187.401 160.624 190.911 162.445C191.761 154.095 186.121 138.065 186.121 138.065C186.121 138.065 172.411 148.065 168.381 155.445C172.307 155.937 176.182 156.774 179.961 157.945Z" fill="#7F8C8D"/>
</g>
<path d="M143.401 173.825C140.641 182.675 132.241 187.935 124.631 185.575C117.021 183.215 113.051 174.105 115.811 165.265C118.571 156.425 138.131 142.135 138.131 142.135C138.131 142.135 146.131 164.945 143.401 173.825Z" fill="#070E17"/>
<path d="M143.721 172.775C140.971 181.625 132.571 186.885 124.951 184.535C117.331 182.185 113.381 173.075 116.141 164.215C118.901 155.355 138.431 141.095 138.431 141.095C138.431 141.095 146.461 163.945 143.721 172.775Z" fill="#283136" fill-opacity="0.4"/>
<g style="mix-blend-mode:screen" opacity="0.2">
<path d="M131.031 164.945C135.548 166.331 139.932 168.118 144.131 170.285C145.131 160.285 138.391 141.095 138.391 141.095C138.391 141.095 122.021 153.095 117.131 161.945C121.846 162.522 126.498 163.526 131.031 164.945Z" fill="#7F8C8D"/>
</g>
<path style="mix-blend-mode:multiply" d="M253.221 70.3154C253.309 66.5403 252.716 62.7801 251.471 59.2153C250.542 56.5618 249.271 54.0406 247.691 51.7153C248.189 49.1671 248.397 46.5705 248.311 43.9753C248.45 38.7021 247.366 33.4682 245.144 28.6839C242.922 23.8995 239.622 19.6946 235.504 16.3984C231.385 13.1023 226.56 10.8044 221.405 9.68485C216.25 8.5653 210.906 8.65446 205.791 9.94535C202.102 8.4986 198.173 7.75906 194.211 7.76535C189.601 7.7765 185.048 8.78092 180.862 10.7102C176.675 12.6395 172.954 15.4483 169.951 18.9453C167.716 18.4525 165.446 18.1414 163.161 18.0153C158.833 12.012 153.023 7.23323 146.297 4.14521C139.571 1.0572 132.16 -0.234536 124.786 0.396062C117.413 1.02666 110.328 3.55805 104.225 7.74322C98.1209 11.9284 93.2065 17.6244 89.9608 24.2754C79.9927 26.4583 71.0228 31.8676 64.4408 39.6653C43.4408 41.2053 26.2408 53.1753 19.6308 69.2953C16.2993 71.3635 13.3158 73.9454 10.7908 76.9454C5.32955 83.4653 2.39438 91.7313 2.52077 100.235C2.38162 102.892 2.54264 105.555 3.00077 108.175C6.51077 127.955 27.0008 141.635 56.5708 144.895C56.2908 145.305 56.0508 145.715 55.8008 146.125C55.6908 146.295 55.5908 146.455 55.4908 146.635L55.1308 147.235C55.0708 147.365 55.0208 147.485 54.9608 147.605C54.1382 149.108 53.4682 150.689 52.9608 152.325C52.9103 152.469 52.8702 152.616 52.8408 152.765C52.7908 152.915 52.7308 153.055 52.6808 153.185C50.3608 160.53 50.7475 168.462 53.7708 175.545C55.3674 179.306 57.7578 182.677 60.7782 185.428C63.7986 188.18 67.3778 190.246 71.2708 191.485C73.9203 192.303 76.6778 192.718 79.4508 192.715C83.3623 192.664 87.2248 191.837 90.8143 190.282C94.4037 188.727 97.6486 186.474 100.361 183.655C100.491 183.975 100.591 184.295 100.731 184.605C102.451 188.665 105.027 192.305 108.284 195.277C111.541 198.249 115.401 200.483 119.601 201.825C122.448 202.707 125.411 203.155 128.391 203.155C140.641 203.155 152.041 195.485 157.671 183.975C160.232 186.741 163.339 188.945 166.795 190.45C170.251 191.954 173.981 192.725 177.751 192.715C190.651 192.715 202.521 183.555 206.581 170.445C206.581 170.305 206.641 170.165 206.681 170.045L206.861 169.565C207.348 167.933 207.682 166.259 207.861 164.565C207.861 164.425 207.861 164.305 207.921 164.175C207.981 164.045 207.921 163.715 207.921 163.475C207.921 163.235 207.921 163.065 207.921 162.845C207.921 162.355 207.921 161.845 207.981 161.335C208.041 160.825 207.981 160.565 207.981 160.185C207.981 159.955 207.981 159.715 207.981 159.485C207.781 150.925 205.221 141.325 202.561 133.585C202.471 133.315 202.391 133.075 202.311 132.855C202.231 132.635 202.221 132.575 202.171 132.445C201.93 131.76 201.642 131.092 201.311 130.445C203.744 128.274 205.922 125.831 207.801 123.165C216.948 121.477 225.289 116.833 231.541 109.945C234.719 106.452 237.301 102.458 239.181 98.1254C243.711 95.082 247.379 90.9219 249.831 86.0468C252.284 81.1717 253.437 75.7465 253.181 70.2953L253.221 70.3154Z" fill="url(#paint1_linear)"/>
<defs>
<linearGradient id="paint0_linear" x1="45.6508" y1="187.695" x2="194.871" y2="38.4753" gradientUnits="userSpaceOnUse">
<stop stop-color="#E6E6E6"/>
<stop offset="1" stop-color="#FAFAFA"/>
</linearGradient>
<linearGradient id="paint1_linear" x1="62.7708" y1="170.575" x2="202.861" y2="30.4854" gradientUnits="userSpaceOnUse">
<stop offset="0.39" stop-color="white"/>
<stop offset="0.51" stop-color="#FCFCFC"/>
<stop offset="0.59" stop-color="#F3F3F3"/>
<stop offset="0.66" stop-color="#E4E4E4"/>
<stop offset="0.72" stop-color="#CFCFCF"/>
<stop offset="0.79" stop-color="#D5D5D5"/>
<stop offset="0.99" stop-color="#D7D7D7"/>
</linearGradient>
</defs>
</svg>
