<svg width="299" height="251" viewBox="0 0 299 251" fill="none" xmlns="http://www.w3.org/2000/svg">
<g style="mix-blend-mode:multiply">
<g style="mix-blend-mode:multiply" opacity="0.05">
<path d="M253.251 115.295C253.403 108.663 251.461 102.151 247.701 96.6854C248.202 94.1406 248.416 91.5478 248.341 88.9554C248.513 82.3724 246.783 75.8794 243.358 70.255C239.933 64.6305 234.959 60.1134 229.031 57.2454C224.412 55.0056 219.344 53.8464 214.211 53.8554C211.38 53.8399 208.559 54.1758 205.811 54.8554C202.122 53.4077 198.193 52.6681 194.231 52.6754C189.613 52.6924 185.054 53.7084 180.867 55.6538C176.679 57.5992 172.962 60.4278 169.971 63.9454C167.737 63.4482 165.466 63.1372 163.181 63.0154C158.854 57.0117 153.044 52.2322 146.319 49.1434C139.594 46.0546 132.183 44.762 124.809 45.3915C117.435 46.0211 110.351 48.5515 104.247 52.7357C98.1426 56.9199 93.2274 62.615 89.9808 69.2654C80.0128 71.4545 71.0438 76.8668 64.4608 84.6654C43.4608 86.2054 26.2608 98.1654 19.6508 114.285C16.3285 116.366 13.3497 118.95 10.8208 121.945C5.35256 128.465 2.4166 136.737 2.55078 145.245C2.40695 147.902 2.568 150.566 3.03078 153.185C6.53078 172.945 27.0008 186.635 56.5908 189.945C56.3208 190.365 56.0608 190.765 55.8208 191.165C55.7208 191.345 55.6108 191.515 55.5208 191.685C55.4308 191.855 55.2508 192.075 55.1508 192.285C55.0508 192.495 55.0408 192.535 54.9808 192.655C54.1608 194.159 53.4909 195.74 52.9808 197.375C52.9808 197.515 52.9208 197.665 52.8708 197.815C52.8208 197.965 52.7608 198.095 52.7208 198.235C50.4618 205.583 50.8439 213.49 53.8008 220.585C55.3962 224.348 57.7873 227.722 60.8099 230.473C63.8324 233.225 67.4147 235.289 71.3108 236.525C73.9562 237.348 76.7106 237.766 79.4808 237.765C83.3945 237.713 87.2588 236.884 90.8498 235.327C94.4409 233.77 97.6872 231.516 100.401 228.695C100.521 229.015 100.621 229.345 100.761 229.695C102.485 233.754 105.066 237.393 108.326 240.364C111.586 243.334 115.449 245.565 119.651 246.905C122.491 247.787 125.447 248.236 128.421 248.235C140.681 248.235 152.071 240.575 157.691 229.065C160.259 231.825 163.368 234.025 166.825 235.529C170.282 237.033 174.011 237.808 177.781 237.805C190.691 237.805 202.781 228.715 206.611 215.525C206.611 215.395 206.681 215.255 206.721 215.125C206.761 214.995 206.831 214.815 206.881 214.655C207.333 213.015 207.668 211.344 207.881 209.655C207.881 209.525 207.931 209.405 207.951 209.265C207.971 209.125 207.951 208.805 207.951 208.585C207.951 208.365 207.951 208.165 207.951 207.955C207.951 207.445 207.951 206.955 207.951 206.445C207.951 205.935 207.951 205.665 207.951 205.285V204.585C207.711 196.015 205.131 186.455 202.541 178.685C202.451 178.415 202.351 178.185 202.281 177.945C202.211 177.705 202.181 177.665 202.141 177.545C201.895 176.862 201.608 176.194 201.281 175.545C203.717 173.373 205.897 170.931 207.781 168.265C214.652 166.978 221.102 164.026 226.568 159.668C232.033 155.309 236.347 149.678 239.131 143.265C243.662 140.226 247.331 136.068 249.784 131.194C252.237 126.32 253.39 120.895 253.131 115.445L253.251 115.295Z" fill="#FBFCFC"/>
</g>
<g style="mix-blend-mode:multiply" opacity="0.11">
<path d="M255.751 112.795C255.89 106.165 253.949 99.6567 250.201 94.1853C250.702 91.6406 250.916 89.0478 250.841 86.4553C251.013 79.8724 249.283 73.3794 245.858 67.7549C242.433 62.1305 237.459 57.6134 231.531 54.7453C226.912 52.5066 221.844 51.3474 216.711 51.3553C213.88 51.3399 211.059 51.6758 208.311 52.3553C204.622 50.9086 200.693 50.1691 196.731 50.1753C192.115 50.1899 187.557 51.2028 183.369 53.1447C179.182 55.0866 175.464 57.9114 172.471 61.4253C170.236 60.9331 167.965 60.6221 165.681 60.4953C161.352 54.4942 155.542 49.7173 148.817 46.6302C142.093 43.5432 134.683 42.2515 127.31 42.881C119.937 43.5104 112.854 46.0397 106.75 50.2221C100.646 54.4045 95.7296 60.0972 92.4808 66.7453C82.5128 68.9345 73.5438 74.3468 66.9608 82.1453C45.9608 83.6853 28.7608 95.6453 22.1508 111.765C18.8293 113.843 15.8505 116.424 13.3208 119.415C7.8418 125.941 4.90486 134.226 5.0508 142.745C4.90671 145.402 5.06776 148.066 5.5308 150.685C9.0308 170.455 29.5308 184.145 59.0908 187.415C58.8208 187.825 58.5608 188.225 58.3208 188.625C58.2208 188.805 58.1108 188.975 58.0108 189.145C57.9108 189.315 57.7508 189.535 57.6508 189.745C57.5508 189.955 57.5408 189.995 57.4808 190.115C56.6609 191.619 55.991 193.2 55.4808 194.835C55.4308 194.975 55.4208 195.135 55.3708 195.285C55.3208 195.435 55.2608 195.555 55.2208 195.695C52.9516 203.042 53.3339 210.952 56.3008 218.045C57.8967 221.797 60.2838 225.16 63.2989 227.904C66.3139 230.648 69.886 232.709 73.7708 233.945C76.4162 234.768 79.1706 235.186 81.9408 235.185C85.8531 235.134 89.7162 234.305 93.3058 232.748C96.8953 231.191 100.14 228.937 102.851 226.115C102.981 226.435 103.081 226.765 103.221 227.115C104.947 231.177 107.53 234.817 110.794 237.788C114.058 240.758 117.925 242.988 122.131 244.325C124.974 245.207 127.934 245.655 130.911 245.655C143.171 245.655 154.561 237.995 160.181 226.485C162.748 229.244 165.856 231.443 169.31 232.947C172.765 234.451 176.493 235.226 180.261 235.225C193.171 235.225 205.261 226.135 209.101 212.945C209.101 212.815 209.171 212.675 209.211 212.545C209.251 212.415 209.321 212.235 209.371 212.075C209.829 210.436 210.163 208.765 210.371 207.075C210.371 206.935 210.421 206.815 210.441 206.675C210.461 206.535 210.441 206.225 210.441 205.995C210.441 205.765 210.441 205.575 210.441 205.365C210.441 204.865 210.441 204.365 210.441 203.855C210.441 203.345 210.441 203.075 210.441 202.695C210.441 202.315 210.441 202.235 210.441 201.995C210.221 193.435 207.631 183.865 205.041 176.105C204.941 175.825 204.851 175.595 204.771 175.355L204.641 174.955C204.395 174.272 204.108 173.604 203.781 172.955C206.217 170.783 208.397 168.341 210.281 165.675C217.152 164.388 223.602 161.436 229.068 157.078C234.533 152.719 238.847 147.088 241.631 140.675C246.157 137.631 249.823 133.472 252.275 128.599C254.727 123.727 255.883 118.304 255.631 112.855L255.751 112.795Z" fill="#F8F8F8"/>
</g>
<g style="mix-blend-mode:multiply" opacity="0.16">
<path d="M258.251 110.295C258.388 103.668 256.447 97.164 252.701 91.6954C253.201 89.1472 253.416 86.5511 253.341 83.9554C253.511 77.3729 251.78 70.8809 248.355 65.2569C244.93 59.633 239.957 55.1154 234.031 52.2454C229.412 50.0066 224.344 48.8474 219.211 48.8554C216.377 48.8399 213.552 49.1758 210.801 49.8554C207.115 48.4078 203.19 47.6682 199.231 47.6754C194.613 47.6924 190.054 48.7084 185.867 50.6538C181.679 52.5992 177.962 55.4278 174.971 58.9454C172.736 58.4531 170.465 58.1421 168.181 58.0154C163.852 52.0143 158.042 47.2373 151.317 44.1503C144.593 41.0632 137.183 39.7715 129.81 40.401C122.437 41.0305 115.354 43.5597 109.25 47.7421C103.146 51.9245 98.2296 57.6173 94.9808 64.2654C85.0145 66.4587 76.0467 71.8703 69.4608 79.6654C48.4608 81.2054 31.2508 93.1754 24.6508 109.285C21.3309 111.369 18.3525 113.953 15.8208 116.945C10.3458 123.462 7.4058 131.735 7.54079 140.245C7.407 142.902 7.56798 145.565 8.02079 148.185C11.5308 167.945 32.0008 181.645 61.5908 184.945C61.3208 185.355 61.0608 185.755 60.8208 186.155C60.7208 186.335 60.6108 186.505 60.5108 186.675C60.4108 186.845 60.2508 187.065 60.1508 187.275C60.0508 187.485 60.0408 187.525 59.9808 187.645C59.1644 189.151 58.4946 190.732 57.9808 192.365C57.9308 192.505 57.9108 192.665 57.8708 192.815C57.8308 192.965 57.7608 193.095 57.7208 193.225C55.4485 200.571 55.8271 208.481 58.7908 215.575C60.3848 219.348 62.7758 222.731 65.7999 225.493C68.8239 228.254 72.4095 230.329 76.3108 231.575C78.9529 232.397 81.7039 232.815 84.4708 232.815C88.3852 232.761 92.2499 231.931 95.841 230.373C99.4321 228.814 102.678 226.558 105.391 223.735C105.511 224.055 105.621 224.385 105.761 224.735C107.485 228.793 110.064 232.431 113.322 235.401C116.581 238.371 120.441 240.603 124.641 241.945C127.479 242.834 130.436 243.286 133.411 243.285C145.681 243.285 157.071 235.615 162.691 224.105C165.256 226.867 168.363 229.069 171.818 230.575C175.273 232.081 179.002 232.857 182.771 232.855C195.681 232.855 207.771 223.755 211.611 210.565C211.611 210.435 211.671 210.295 211.721 210.165C211.771 210.035 211.831 209.855 211.881 209.695C212.339 208.056 212.674 206.385 212.881 204.695C212.881 204.555 212.931 204.435 212.941 204.305C212.951 204.175 212.941 203.845 213.001 203.615V202.985C213.001 202.485 213.001 201.985 213.051 201.475C213.101 200.965 213.051 200.695 213.051 200.315C213.051 199.935 213.051 199.855 213.051 199.615C212.831 191.055 210.241 181.485 207.641 173.725C207.551 173.445 207.461 173.215 207.381 172.975L207.251 172.575C207.005 171.892 206.718 171.224 206.391 170.575C208.827 168.403 211.007 165.961 212.891 163.295C222.027 161.557 230.339 156.867 236.551 149.945C239.732 146.45 242.32 142.457 244.211 138.125C248.736 135.078 252.402 130.917 254.853 126.043C257.305 121.169 258.462 115.746 258.211 110.295H258.251Z" fill="#F4F5F5"/>
</g>
<g style="mix-blend-mode:multiply" opacity="0.21">
<path d="M260.741 107.795C260.887 101.168 258.949 94.6625 255.201 89.1953C255.703 86.6475 255.914 84.0509 255.831 81.4553C256.006 74.8719 254.277 68.3779 250.852 62.753C247.426 57.1281 242.45 52.6114 236.521 49.7453C231.906 47.5054 226.841 46.3461 221.711 46.3553C218.877 46.3399 216.052 46.6758 213.301 47.3553C209.615 45.9078 205.69 45.1682 201.731 45.1753C197.114 45.195 192.556 46.2102 188.368 48.1517C184.18 50.0932 180.459 52.9152 177.461 56.4253C175.23 55.9324 172.962 55.6214 170.681 55.4953C166.351 49.4946 160.541 44.7183 153.815 41.632C147.09 38.5458 139.68 37.255 132.307 37.8855C124.934 38.516 117.851 41.0463 111.747 45.2296C105.644 49.413 100.729 55.1066 97.4808 61.7553C87.5099 63.9383 78.5369 69.3475 71.9508 77.1453C50.9508 78.6853 33.7508 90.6553 27.1508 106.775C23.8285 108.852 20.8467 111.429 18.3108 114.415C12.8449 120.937 9.9093 129.207 10.0408 137.715C9.907 140.368 10.068 143.028 10.5208 145.645C14.0308 165.425 34.5208 179.105 64.0908 182.375C63.8208 182.785 63.5608 183.185 63.3208 183.585L63.0108 184.115C62.9008 184.315 62.7508 184.505 62.6408 184.705C62.5308 184.905 62.5408 184.965 62.4808 185.075C61.6685 186.583 60.9989 188.163 60.4808 189.795C60.4308 189.945 60.4108 190.095 60.3708 190.245C60.3308 190.395 60.2608 190.525 60.2208 190.665C57.9433 198.01 58.3221 205.922 61.2908 213.015C62.8913 216.777 65.2852 220.149 68.309 222.9C71.3328 225.651 74.915 227.716 78.8108 228.955C81.4529 229.777 84.2039 230.195 86.9708 230.195C90.8846 230.143 94.7491 229.315 98.3402 227.758C101.931 226.201 105.178 223.946 107.891 221.125C108.011 221.435 108.121 221.765 108.251 222.075C109.972 226.14 112.55 229.786 115.808 232.765C119.066 235.743 122.928 237.984 127.131 239.335C129.971 240.216 132.927 240.664 135.901 240.665C148.171 240.665 159.561 232.995 165.181 221.495C167.748 224.254 170.856 226.453 174.31 227.957C177.765 229.461 181.493 230.236 185.261 230.235C198.171 230.235 210.261 221.135 214.101 207.955C214.101 207.815 214.161 207.675 214.201 207.545C214.241 207.415 214.321 207.245 214.371 207.075C214.834 205.437 215.169 203.766 215.371 202.075C215.371 201.935 215.421 201.815 215.431 201.685C215.441 201.555 215.431 201.225 215.491 200.995V200.365C215.491 199.865 215.491 199.365 215.541 198.855C215.591 198.345 215.541 198.085 215.541 197.695C215.541 197.465 215.541 197.235 215.541 197.005C215.341 188.435 212.731 178.865 210.131 171.105C210.041 170.825 209.951 170.595 209.871 170.355L209.741 169.955C209.495 169.272 209.208 168.604 208.881 167.955C211.316 165.786 213.494 163.343 215.371 160.675C224.498 158.989 232.822 154.359 239.071 147.495C242.251 143.997 244.835 140.001 246.721 135.665C251.399 132.526 255.16 128.203 257.621 123.135C259.935 118.366 261.009 113.09 260.741 107.795Z" fill="#F1F1F2"/>
</g>
<g style="mix-blend-mode:multiply" opacity="0.26">
<path d="M263.241 105.295C263.324 101.521 262.732 97.7613 261.491 94.1953C260.563 91.5396 259.288 89.0179 257.701 86.6953C258.203 84.1475 258.414 81.5509 258.331 78.9553C258.503 72.3724 256.773 65.8794 253.348 60.2549C249.923 54.6305 244.949 50.1134 239.021 47.2453C234.405 45.0068 229.341 43.8475 224.211 43.8553C221.377 43.8399 218.552 44.1758 215.801 44.8553C212.115 43.4078 208.19 42.6682 204.231 42.6753C199.612 42.6955 195.053 43.713 190.864 45.6581C186.675 47.6032 182.956 50.43 179.961 53.9453C177.731 53.4442 175.463 53.1298 173.181 53.0053C168.853 47.002 163.043 42.2232 156.317 39.1352C149.591 36.0472 142.18 34.7555 134.806 35.3861C127.433 36.0167 120.348 38.548 114.245 42.7332C108.141 46.9184 103.226 52.6144 99.9808 59.2653C90.006 61.4564 81.0324 66.8764 74.4508 74.6853C53.4508 76.2253 36.2508 88.1953 29.6508 104.315C26.3253 106.384 23.3428 108.958 20.8108 111.945C15.3449 118.467 12.4093 126.737 12.5408 135.245C12.407 137.898 12.568 140.558 13.0208 143.175C16.5308 162.945 37.0008 176.645 66.5908 179.945C66.3108 180.355 66.0608 180.755 65.8208 181.165C65.7108 181.335 65.6108 181.505 65.5108 181.685C65.4108 181.865 65.2508 182.075 65.1408 182.285C65.0308 182.495 65.0408 182.535 64.9808 182.645C64.173 184.155 63.5035 185.735 62.9808 187.365C62.9808 187.515 62.9208 187.665 62.8808 187.815C62.8408 187.965 62.7708 188.095 62.7308 188.235C60.449 195.579 60.8279 203.493 63.8008 210.585C65.4008 214.346 67.7934 217.716 70.8153 220.467C73.8372 223.218 77.4172 225.285 81.3108 226.525C83.9565 227.346 86.7107 227.764 89.4808 227.765C93.3945 227.713 97.259 226.885 100.85 225.328C104.441 223.771 107.688 221.516 110.401 218.695C110.521 219.005 110.631 219.335 110.761 219.645C112.488 223.704 115.069 227.343 118.329 230.314C121.589 233.286 125.45 235.52 129.651 236.865C132.491 237.746 135.447 238.194 138.421 238.195C150.681 238.195 162.081 230.525 167.701 219.025C170.266 221.786 173.374 223.986 176.829 225.49C180.284 226.994 184.012 227.769 187.781 227.765C200.691 227.765 212.781 218.665 216.621 205.485C216.621 205.345 216.681 205.205 216.721 205.085C216.761 204.965 216.841 204.775 216.891 204.615C217.353 202.977 217.687 201.305 217.891 199.615C217.891 199.485 217.941 199.355 217.951 199.225C217.961 199.095 217.951 198.765 218.001 198.535C218.051 198.305 218.001 198.115 218.001 197.905C218.001 197.405 218.001 196.905 218.051 196.395C218.101 195.885 218.051 195.625 218.051 195.235C218.051 195.005 218.051 194.775 218.051 194.545C217.851 185.975 215.241 176.405 212.641 168.645C212.551 168.365 212.461 168.135 212.381 167.905C212.301 167.675 212.291 167.625 212.251 167.495C212.005 166.812 211.718 166.144 211.391 165.495C213.824 163.327 216.001 160.888 217.881 158.225C227.006 156.502 235.316 151.838 241.541 144.945C244.727 141.45 247.315 137.453 249.201 133.115C253.886 129.98 257.657 125.661 260.131 120.595C262.435 115.837 263.505 110.576 263.241 105.295Z" fill="#EDEEEE"/>
</g>
<g style="mix-blend-mode:multiply" opacity="0.32">
<path d="M265.741 102.795C265.824 99.0206 265.232 95.2613 263.991 91.6954C263.06 89.0406 261.786 86.5191 260.201 84.1954C260.703 81.6475 260.915 79.0509 260.831 76.4554C261.003 69.8738 259.272 63.3825 255.847 57.7597C252.422 52.137 247.448 47.6217 241.521 44.7554C236.906 42.5137 231.841 41.351 226.711 41.3554C223.877 41.3399 221.052 41.6758 218.301 42.3554C214.614 40.9124 210.69 40.1729 206.731 40.1754C202.113 40.1943 197.554 41.2102 193.365 43.1536C189.177 45.0969 185.457 47.9219 182.461 51.4354C180.231 50.9342 177.963 50.6198 175.681 50.4954C171.352 44.4923 165.541 39.7138 158.814 36.626C152.088 33.5382 144.676 32.2466 137.302 32.8772C129.927 33.5078 122.842 36.0389 116.738 40.2238C110.633 44.4088 105.718 50.1045 102.471 56.7554C92.4985 58.9518 83.5288 64.3751 76.9508 72.1854C55.9508 73.7354 38.7508 85.6954 32.1508 101.815C28.822 103.887 25.8391 106.469 23.3108 109.465C17.8433 115.982 14.9072 124.25 15.0408 132.755C14.8969 135.408 15.058 138.069 15.5208 140.685C19.0208 160.465 39.5208 174.145 69.0908 177.415C68.8108 177.825 68.5608 178.225 68.3208 178.635C68.2108 178.805 68.1108 178.975 68.0108 179.155C67.9108 179.335 67.7508 179.545 67.6408 179.755C67.5308 179.965 67.5408 180.005 67.4808 180.125C66.6713 181.631 66.0018 183.207 65.4808 184.835C65.4808 184.985 65.4208 185.135 65.3708 185.285C65.3208 185.435 65.2708 185.565 65.2208 185.705C62.9422 193.051 63.3246 200.964 66.3008 208.055C67.8974 211.818 70.2889 215.19 73.3112 217.942C76.3336 220.693 79.9154 222.758 83.8108 223.995C86.4562 224.818 89.2106 225.236 91.9808 225.235C95.8945 225.183 99.7588 224.354 103.35 222.797C106.941 221.24 110.187 218.986 112.901 216.165C113.021 216.485 113.131 216.805 113.261 217.165C114.992 221.212 117.573 224.84 120.829 227.802C124.085 230.764 127.939 232.992 132.131 234.335C134.971 235.216 137.927 235.664 140.901 235.665C153.161 235.665 164.561 227.995 170.181 216.495C172.746 219.256 175.854 221.456 179.309 222.96C182.764 224.464 186.493 225.239 190.261 225.235C203.171 225.235 215.261 216.135 219.101 202.955C219.101 202.815 219.161 202.675 219.201 202.555C219.241 202.435 219.321 202.245 219.371 202.085C219.843 200.45 220.178 198.777 220.371 197.085C220.371 196.955 220.431 196.825 220.441 196.695C220.451 196.565 220.441 196.235 220.491 196.015C220.541 195.795 220.491 195.585 220.491 195.375C220.491 194.875 220.491 194.375 220.541 193.865C220.591 193.355 220.541 193.095 220.541 192.705C220.541 192.475 220.541 192.245 220.541 192.015C220.341 183.445 217.731 173.875 215.131 166.115C215.041 165.835 214.951 165.605 214.871 165.375C214.791 165.145 214.781 165.095 214.731 164.965C214.489 164.282 214.205 163.614 213.881 162.965C216.309 160.789 218.486 158.347 220.371 155.685C227.242 154.398 233.692 151.446 239.158 147.088C244.623 142.729 248.937 137.098 251.721 130.685C256.396 127.544 260.157 123.221 262.621 118.155C264.939 113.38 266.012 108.096 265.741 102.795Z" fill="#EAEAEB"/>
</g>
<g style="mix-blend-mode:multiply" opacity="0.37">
<path d="M268.241 100.295C268.319 96.5209 267.726 92.7627 266.491 89.1953C265.558 86.5415 264.284 84.0203 262.701 81.6953C263.2 79.1437 263.411 76.5441 263.331 73.9453C263.503 67.3624 261.773 60.8694 258.348 55.2449C254.923 49.6205 249.949 45.1034 244.021 42.2353C239.405 39.9967 234.341 38.8375 229.211 38.8453C226.377 38.8299 223.552 39.1658 220.801 39.8453C217.115 38.3977 213.19 37.6582 209.231 37.6653C204.611 37.6821 200.049 38.699 195.86 40.6462C191.67 42.5934 187.952 45.4246 184.961 48.9453C182.73 48.4482 180.463 48.1371 178.181 48.0153C173.852 42.0119 168.042 37.2328 161.316 34.1442C154.59 31.0556 147.179 29.7631 139.805 30.3926C132.43 31.0222 125.345 33.5523 119.24 37.7363C113.135 41.9202 108.219 47.6151 104.971 54.2653C94.9999 56.4591 86.0303 61.8788 79.4508 69.6853C58.4508 71.2353 41.2508 83.1953 34.6508 99.3153C31.3235 101.381 28.3406 103.956 25.8108 106.945C20.3432 113.462 17.4072 121.73 17.5408 130.235C17.3967 132.888 17.5577 135.549 18.0208 138.165C21.5208 157.945 42.0208 171.625 71.5908 174.895C71.3108 175.305 71.0608 175.715 70.8208 176.115C70.7108 176.295 70.6108 176.455 70.5108 176.635C70.4108 176.815 70.2508 177.025 70.1408 177.235C70.0308 177.445 70.0408 177.485 69.9808 177.605C69.1771 179.117 68.5078 180.696 67.9808 182.325C67.9808 182.465 67.9208 182.615 67.8708 182.765C67.8208 182.915 67.7608 183.045 67.7208 183.185C65.4274 190.529 65.8101 198.447 68.8008 205.535C70.3973 209.298 72.7888 212.67 75.8112 215.422C78.8336 218.173 82.4154 220.238 86.3108 221.475C88.9562 222.298 91.7106 222.716 94.4808 222.715C98.3945 222.663 102.259 221.834 105.85 220.277C109.441 218.72 112.687 216.466 115.401 213.645C115.521 213.965 115.621 214.295 115.761 214.645C117.49 218.702 120.072 222.338 123.331 225.308C126.591 228.277 130.451 230.51 134.651 231.855C137.491 232.737 140.447 233.185 143.421 233.185C155.681 233.185 167.071 225.525 172.701 214.015C175.266 216.776 178.374 218.976 181.829 220.48C185.284 221.984 189.012 222.759 192.781 222.755C205.691 222.755 217.781 213.655 221.621 200.475C221.621 200.345 221.681 200.205 221.721 200.075C221.761 199.945 221.841 199.765 221.891 199.605C222.363 197.969 222.698 196.297 222.891 194.605C222.891 194.475 222.941 194.345 222.961 194.215C222.981 194.085 222.961 193.755 223.011 193.535C223.061 193.315 223.011 193.105 223.011 192.895C223.011 192.395 223.011 191.895 223.061 191.385C223.111 190.875 223.061 190.615 223.061 190.225C223.061 189.995 223.061 189.765 223.061 189.535C222.861 180.965 220.251 171.395 217.651 163.635C217.561 163.365 217.461 163.125 217.391 162.895C217.321 162.665 217.301 162.615 217.251 162.485C217.003 161.804 216.719 161.137 216.401 160.485C218.829 158.309 221.006 155.867 222.891 153.205C229.762 151.918 236.212 148.966 241.678 144.608C247.143 140.249 251.457 134.618 254.241 128.205C258.923 125.044 262.681 120.696 265.131 115.605C267.435 110.843 268.504 105.579 268.241 100.295Z" fill="#E6E7E8"/>
</g>
<g style="mix-blend-mode:multiply" opacity="0.42">
<path d="M270.741 97.7953C270.819 94.021 270.226 90.2627 268.991 86.6954C268.058 84.0415 266.784 81.5203 265.201 79.1954C265.698 76.6502 265.91 74.0574 265.831 71.4653C266.003 64.8824 264.273 58.3894 260.848 52.7649C257.423 47.1405 252.449 42.6234 246.521 39.7554C241.905 37.5178 236.841 36.3586 231.711 36.3653C228.877 36.3493 226.052 36.6852 223.301 37.3653C219.615 35.9187 215.69 35.1791 211.731 35.1854C207.113 35.1984 202.553 36.2107 198.364 38.1526C194.174 40.0945 190.455 42.9201 187.461 46.4353C185.227 45.9382 182.956 45.6272 180.671 45.5053C176.344 39.5017 170.534 34.7222 163.809 31.6334C157.084 28.5446 149.673 27.2519 142.299 27.8815C134.925 28.5111 127.841 31.0415 121.737 35.2257C115.633 39.4099 110.717 45.105 107.471 51.7553C97.5002 53.956 88.5318 59.3786 81.9508 67.1853C60.9508 68.7353 43.7508 80.6954 37.1408 96.8154C33.8171 98.89 30.8378 101.471 28.3108 104.465C22.8448 110.983 19.909 119.25 20.0408 127.755C19.897 130.412 20.058 133.076 20.5208 135.695C24.0208 155.465 44.5208 169.155 74.0808 172.415C73.8108 172.825 73.5608 173.235 73.3108 173.635C73.2108 173.815 73.1008 173.985 73.0108 174.155C72.9208 174.325 72.7508 174.545 72.6408 174.755C72.5308 174.965 72.5408 175.005 72.4708 175.125C71.6707 176.639 71.0016 178.218 70.4708 179.845C70.4708 179.985 70.4108 180.135 70.3608 180.285C70.3108 180.435 70.2508 180.565 70.2108 180.705C67.9122 188.048 68.2949 195.968 71.2908 203.055C72.8874 206.818 75.2789 210.19 78.3013 212.942C81.3236 215.693 84.9054 217.758 88.8008 218.995C91.4462 219.818 94.2006 220.236 96.9708 220.235C100.884 220.183 104.749 219.354 108.34 217.797C111.931 216.24 115.177 213.986 117.891 211.165C118.011 211.485 118.111 211.815 118.251 212.165C119.986 216.212 122.569 219.839 125.826 222.801C129.083 225.763 132.938 227.991 137.131 229.335C139.974 230.217 142.934 230.665 145.911 230.665C158.171 230.665 169.561 223.005 175.191 211.495C177.756 214.256 180.864 216.456 184.319 217.96C187.774 219.464 191.503 220.239 195.271 220.235C208.181 220.235 220.271 211.135 224.111 197.955C224.111 197.825 224.171 197.685 224.211 197.555C224.251 197.425 224.321 197.245 224.381 197.085C224.854 195.45 225.188 193.777 225.381 192.085C225.381 191.955 225.431 191.835 225.451 191.695C225.471 191.555 225.451 191.235 225.501 191.015C225.551 190.795 225.501 190.595 225.501 190.375C225.501 189.875 225.501 189.375 225.551 188.865C225.601 188.355 225.551 188.095 225.551 187.715C225.551 187.335 225.551 187.245 225.551 187.015C225.371 178.445 222.741 168.875 220.141 161.115C220.051 160.845 219.951 160.605 219.881 160.375C219.811 160.145 219.791 160.095 219.741 159.975C219.495 159.294 219.211 158.626 218.891 157.975C221.322 155.801 223.499 153.359 225.381 150.695C232.252 149.408 238.702 146.456 244.168 142.098C249.633 137.739 253.947 132.108 256.731 125.695C261.263 122.654 264.933 118.494 267.385 113.619C269.838 108.743 270.99 103.317 270.731 97.8653L270.741 97.7953Z" fill="#E3E4E4"/>
</g>
<g style="mix-blend-mode:multiply" opacity="0.47">
<path d="M273.241 95.3053C273.382 88.6773 271.441 82.1719 267.691 76.7053C268.198 74.1513 268.412 71.5479 268.331 68.9453C268.503 62.3624 266.773 55.8694 263.348 50.2449C259.923 44.6205 254.949 40.1034 249.021 37.2353C244.405 34.9977 239.341 33.8385 234.211 33.8453C231.377 33.8292 228.552 34.1651 225.801 34.8453C222.115 33.3996 218.19 32.6601 214.231 32.6653C209.611 32.6821 205.049 33.699 200.86 35.6462C196.67 37.5934 192.952 40.4246 189.961 43.9453C187.712 43.461 185.428 43.1601 183.131 43.0453C178.804 37.0416 172.994 32.2622 166.269 29.1734C159.544 26.0846 152.133 24.7919 144.759 25.4215C137.385 26.0511 130.301 28.5814 124.197 32.7656C118.093 36.9498 113.177 42.645 109.931 49.2953C99.9628 51.4844 90.9938 56.8968 84.4108 64.6953C63.4108 66.2353 46.2108 78.1953 39.6008 94.3153C36.2927 96.3872 33.3272 98.9614 30.8108 101.945C25.342 108.462 22.4027 116.729 22.5308 125.235C22.3954 127.892 22.5597 130.555 23.0208 133.175C26.5208 152.945 47.0208 166.635 76.5808 169.895C76.3108 170.305 76.0608 170.715 75.8108 171.115C75.7108 171.295 75.6008 171.465 75.5008 171.635C75.4008 171.805 75.2508 172.025 75.1408 172.235C75.0308 172.445 75.0408 172.485 74.9708 172.605C74.1707 174.119 73.5016 175.698 72.9708 177.325C72.9708 177.465 72.9108 177.615 72.8608 177.765C72.8108 177.915 72.7508 178.045 72.7108 178.185C70.4069 185.527 70.7897 193.45 73.7908 200.535C75.3862 204.298 77.7773 207.672 80.7999 210.423C83.8224 213.175 87.4047 215.239 91.3008 216.475C93.9462 217.298 96.7006 217.716 99.4708 217.715C103.383 217.664 107.246 216.835 110.836 215.278C114.425 213.721 117.67 211.467 120.381 208.645C120.511 208.965 120.611 209.295 120.751 209.645C122.481 213.699 125.062 217.334 128.32 220.303C131.577 223.272 135.435 225.507 139.631 226.855C142.474 227.737 145.434 228.185 148.411 228.185C160.671 228.185 172.061 220.525 177.681 209.015C180.249 211.775 183.358 213.975 186.815 215.479C190.272 216.983 194.001 217.758 197.771 217.755C210.671 217.755 222.771 208.655 226.611 195.475C226.611 195.345 226.671 195.205 226.711 195.075C226.751 194.945 226.821 194.765 226.881 194.605C227.359 192.971 227.693 191.298 227.881 189.605C227.881 189.475 227.931 189.355 227.951 189.215C227.971 189.075 227.951 188.755 228.001 188.535C228.051 188.315 228.001 188.115 228.001 187.895C228.001 187.405 228.001 186.895 228.051 186.385C228.101 185.875 228.051 185.615 228.051 185.235C228.051 184.855 228.051 184.765 228.051 184.535C227.871 175.965 225.241 166.395 222.641 158.635C222.541 158.365 222.451 158.125 222.381 157.895C222.311 157.665 222.291 157.615 222.241 157.495C221.995 156.812 221.708 156.144 221.381 155.495C223.817 153.324 225.998 150.881 227.881 148.215C234.752 146.928 241.202 143.976 246.668 139.618C252.133 135.259 256.447 129.628 259.231 123.215C263.757 120.171 267.423 116.012 269.875 111.139C272.327 106.266 273.483 100.844 273.231 95.3953L273.241 95.3053Z" fill="#DFE0E1"/>
</g>
<g style="mix-blend-mode:multiply" opacity="0.53">
<path d="M275.741 92.8054C275.882 86.1774 273.941 79.6719 270.191 74.2054C270.696 71.6578 270.911 69.0612 270.831 66.4653C271.001 59.8829 269.27 53.3909 265.845 47.7669C262.42 42.143 257.447 37.6254 251.521 34.7554C246.902 32.5166 241.834 31.3574 236.701 31.3653C233.87 31.3499 231.049 31.6858 228.301 32.3653C224.612 30.9186 220.683 30.1791 216.721 30.1854C212.105 30.1999 207.547 31.2128 203.359 33.1547C199.172 35.0966 195.454 37.9214 192.461 41.4354C190.226 40.9431 187.955 40.6321 185.671 40.5054C181.342 34.5042 175.532 29.7273 168.807 26.6403C162.083 23.5532 154.673 22.2615 147.3 22.891C139.927 23.5205 132.844 26.0497 126.74 30.2321C120.636 34.4145 115.72 40.1073 112.471 46.7554C102.504 48.9487 93.5367 54.3603 86.9508 62.1553C65.9508 63.6954 48.7508 75.6553 42.1408 91.7754C38.817 93.85 35.8378 96.4311 33.3108 99.4254C27.842 105.942 24.9027 114.209 25.0308 122.715C24.897 125.372 25.058 128.035 25.5108 130.655C29.0208 150.435 49.5108 164.115 79.0808 167.375C78.8108 167.785 78.5508 168.195 78.3108 168.595C78.2108 168.775 78.1008 168.945 78.0008 169.115C77.9008 169.285 77.7508 169.505 77.6408 169.715C77.5308 169.925 77.5408 169.965 77.4708 170.085C76.6749 171.601 76.006 173.18 75.4708 174.805C75.4708 174.945 75.4008 175.095 75.3608 175.245C75.3208 175.395 75.2508 175.525 75.2108 175.665C72.9025 183.007 73.2854 190.931 76.2908 198.015C77.8862 201.779 80.2773 205.152 83.2999 207.903C86.3224 210.655 89.9047 212.719 93.8008 213.955C96.4451 214.782 99.2002 215.201 101.971 215.195C105.883 215.143 109.746 214.314 113.335 212.757C116.924 211.2 120.169 208.946 122.881 206.125C123.011 206.445 123.111 206.775 123.251 207.125C124.979 211.18 127.56 214.816 130.818 217.785C134.075 220.755 137.934 222.989 142.131 224.335C144.973 225.221 147.934 225.67 150.911 225.665C163.171 225.665 174.561 218.005 180.181 206.495C183.439 209.984 187.546 212.568 192.101 213.995C194.745 214.822 197.5 215.24 200.271 215.235C213.171 215.235 225.271 206.135 229.101 192.955C229.101 192.825 229.161 192.685 229.211 192.555C229.261 192.425 229.321 192.245 229.371 192.085C229.858 190.453 230.192 188.779 230.371 187.085C230.371 186.945 230.421 186.825 230.431 186.685C230.441 186.545 230.431 186.235 230.491 186.005V185.365C230.491 184.875 230.491 184.365 230.551 183.865C230.611 183.365 230.551 183.085 230.551 182.705C230.551 182.325 230.551 182.235 230.551 182.005C230.381 173.435 227.741 163.865 225.131 156.105C225.041 155.835 224.951 155.595 224.881 155.365C224.811 155.135 224.791 155.095 224.741 154.965C224.495 154.282 224.208 153.614 223.881 152.965C226.315 150.791 228.495 148.349 230.381 145.685C239.506 143.995 247.827 139.362 254.071 132.495C257.258 129.001 259.846 125.004 261.731 120.665C266.257 117.621 269.923 113.462 272.375 108.589C274.827 103.717 275.983 98.2944 275.731 92.8454L275.741 92.8054Z" fill="#DCDDDE"/>
</g>
<g style="mix-blend-mode:multiply" opacity="0.58">
<path d="M278.231 90.3053C278.377 83.6782 276.439 77.1725 272.691 71.7053C273.198 69.1581 273.409 66.561 273.321 63.9653C273.458 58.6929 272.373 53.4602 270.15 48.6771C267.928 43.8941 264.628 39.6904 260.51 36.3954C256.391 33.1004 251.566 30.8034 246.412 29.6844C241.258 28.5654 235.915 28.6547 230.801 29.9453C227.112 28.4986 223.183 27.759 219.221 27.7653C214.611 27.7752 210.058 28.779 205.871 30.7083C201.684 32.6377 197.963 35.4472 194.961 38.9453C192.712 38.461 190.428 38.16 188.131 38.0453C183.801 32.0446 177.991 27.2683 171.265 24.182C164.54 21.0958 157.13 19.805 149.757 20.4355C142.384 21.066 135.301 23.5963 129.197 27.7796C123.094 31.963 118.179 37.6566 114.931 44.3053C104.977 46.4964 96.0224 51.9051 89.4508 59.6953C68.4508 61.2353 51.2508 73.2053 44.6408 89.3153C41.3196 91.3894 38.338 93.963 35.8008 96.9453C30.3396 103.465 27.4044 111.731 27.5308 120.235C27.397 122.892 27.558 125.555 28.0108 128.175C31.5208 147.955 52.0108 161.635 81.5808 164.905C81.3108 165.315 81.0508 165.715 80.8108 166.115L80.5008 166.635C80.3908 166.845 80.2408 167.035 80.1408 167.235C80.0408 167.435 80.0308 167.485 79.9708 167.605C79.1768 169.122 78.5079 170.7 77.9708 172.325C77.9708 172.465 77.9008 172.625 77.8608 172.775C77.8208 172.925 77.7508 173.055 77.7108 173.185C75.3974 180.53 75.7804 188.458 78.7908 195.545C80.3896 199.306 82.7819 202.678 85.8039 205.429C88.826 208.18 92.4066 210.246 96.3008 211.485C98.9467 212.304 101.701 212.719 104.471 212.715C108.382 212.664 112.245 211.837 115.834 210.282C119.424 208.727 122.669 206.474 125.381 203.655C125.511 203.965 125.611 204.295 125.751 204.655C127.479 208.711 130.06 212.348 133.317 215.319C136.575 218.29 140.433 220.526 144.631 221.875C147.474 222.757 150.434 223.205 153.411 223.205C165.671 223.205 177.061 215.535 182.681 204.025C185.245 206.79 188.353 208.994 191.811 210.498C195.269 212.002 199 212.774 202.771 212.765C215.671 212.765 227.771 203.665 231.601 190.485C231.601 190.355 231.661 190.215 231.701 190.085C231.741 189.955 231.821 189.775 231.871 189.615C232.363 187.984 232.698 186.31 232.871 184.615C232.871 184.475 232.921 184.355 232.931 184.225C232.941 184.095 232.931 183.765 232.981 183.535C233.031 183.305 232.981 183.115 232.981 182.905C232.981 182.405 232.981 181.905 233.041 181.395V180.235C233.041 180.005 233.041 179.775 233.041 179.535C232.881 170.975 230.231 161.395 227.621 153.635C227.531 153.365 227.441 153.135 227.361 152.895C227.281 152.655 227.281 152.625 227.231 152.495C226.985 151.812 226.698 151.144 226.371 150.495C228.807 148.326 230.984 145.883 232.861 143.215C239.733 141.932 246.185 138.981 251.651 134.622C257.117 130.263 261.43 124.63 264.211 118.215C268.907 115.057 272.676 110.704 275.131 105.605C277.432 100.846 278.498 95.5847 278.231 90.3053Z" fill="#D8D9DB"/>
</g>
<g style="mix-blend-mode:multiply" opacity="0.63">
<path d="M280.731 87.8054C280.819 84.0303 280.226 80.2702 278.981 76.7054C278.053 74.0497 276.778 71.5279 275.191 69.2054C275.698 66.6582 275.909 64.061 275.821 61.4654C275.964 56.1896 274.884 50.9523 272.664 46.1641C270.444 41.3759 267.145 37.167 263.026 33.8674C258.907 30.5679 254.079 28.2673 248.922 27.1462C243.765 26.025 238.418 26.1137 233.301 27.4054C229.612 25.9586 225.683 25.2191 221.721 25.2254C217.106 25.2439 212.549 26.2586 208.362 28.2002C204.175 30.1418 200.456 32.9645 197.461 36.4754C195.226 35.9831 192.955 35.6721 190.671 35.5454C186.343 29.5421 180.533 24.7633 173.807 21.6752C167.081 18.5872 159.67 17.2955 152.296 17.9261C144.923 18.5567 137.838 21.0881 131.735 25.2732C125.631 29.4584 120.716 35.1544 117.471 41.8054C107.503 43.9883 98.5328 49.3977 91.9508 57.1954C70.9508 58.7354 53.7508 70.7054 47.1408 86.8254C43.8146 88.8967 40.8321 91.4743 38.3008 94.4654C32.8334 100.986 29.8975 109.257 30.0308 117.765C29.8973 120.418 30.0582 123.078 30.5108 125.695C34.0208 145.475 54.5108 159.155 84.0808 162.425C83.8008 162.835 83.5508 163.235 83.3108 163.645C83.2008 163.815 83.1008 163.985 83.0008 164.165C82.9008 164.345 82.7408 164.555 82.6408 164.755C82.5408 164.955 82.5308 165.005 82.4708 165.125C81.6828 166.644 81.0141 168.223 80.4708 169.845C80.4708 169.995 80.4008 170.145 80.3608 170.295L80.2008 170.715C77.886 178.057 78.2726 185.984 81.2908 193.065C82.8886 196.825 85.2793 200.196 88.2996 202.947C91.3198 205.698 94.8984 207.765 98.7908 209.005C101.44 209.824 104.198 210.238 106.971 210.235C110.882 210.184 114.745 209.357 118.334 207.802C121.924 206.247 125.169 203.994 127.881 201.175C128.011 201.495 128.111 201.815 128.251 202.175C129.985 206.222 132.568 209.849 135.826 212.811C139.083 215.774 142.938 218.002 147.131 219.345C149.974 220.227 152.934 220.676 155.911 220.675C168.161 220.675 179.561 213.005 185.181 201.505C187.747 204.267 190.856 206.468 194.313 207.97C197.771 209.473 201.501 210.244 205.271 210.235C218.171 210.235 230.271 201.135 234.101 187.965C234.101 187.825 234.161 187.685 234.201 187.565C234.241 187.445 234.321 187.245 234.371 187.085C234.864 185.455 235.199 183.78 235.371 182.085C235.371 181.945 235.421 181.825 235.431 181.695C235.441 181.565 235.431 181.235 235.481 181.005C235.531 180.775 235.481 180.585 235.481 180.375C235.481 179.875 235.481 179.375 235.541 178.865V177.705C235.541 177.475 235.541 177.245 235.541 177.005C235.381 168.445 232.731 158.865 230.121 151.115C230.031 150.835 229.941 150.605 229.861 150.375C229.781 150.145 229.781 150.095 229.731 149.965C229.481 149.283 229.194 148.616 228.871 147.965C231.307 145.796 233.484 143.353 235.361 140.685C244.489 139.001 252.814 134.371 259.061 127.505C262.244 124.009 264.828 120.012 266.711 115.675C271.389 112.536 275.15 108.213 277.611 103.145C279.925 98.3762 280.999 93.0998 280.731 87.8054Z" fill="#D5D6D7"/>
</g>
<g style="mix-blend-mode:multiply" opacity="0.68">
<path d="M283.231 85.3054C283.314 81.5306 282.722 77.7713 281.481 74.2054C280.553 71.5497 279.278 69.0279 277.691 66.7054C278.198 64.1582 278.41 61.561 278.321 58.9654C278.491 52.3842 276.761 45.8935 273.338 40.2699C269.915 34.6463 264.944 30.1279 259.021 27.2554C254.401 25.0176 249.334 23.8585 244.201 23.8654C241.367 23.8499 238.542 24.1858 235.791 24.8654C232.105 23.4178 228.18 22.6782 224.221 22.6854C219.603 22.7043 215.044 23.7202 210.855 25.6636C206.667 27.6069 202.947 30.4319 199.951 33.9454C197.707 33.4555 195.425 33.1545 193.131 33.0454C188.803 27.0421 182.993 22.2633 176.267 19.1752C169.541 16.0872 162.13 14.7955 154.756 15.4261C147.383 16.0567 140.298 18.5881 134.195 22.7732C128.091 26.9584 123.176 32.6544 119.931 39.3054C109.975 41.4986 101.018 46.9067 94.4408 54.6954C73.4408 56.2354 56.2408 68.2054 49.6408 84.3254C46.3142 86.3881 43.3314 88.9593 40.8008 91.9454C35.3333 98.4617 32.3972 106.73 32.5308 115.235C32.3867 117.888 32.5477 120.549 33.0108 123.165C36.5108 142.945 57.0108 156.625 86.5808 159.895C86.3008 160.305 86.0508 160.705 85.8108 161.115C85.7008 161.285 85.6008 161.455 85.5008 161.635C85.4008 161.815 85.2408 162.025 85.1408 162.235C85.0408 162.445 85.0308 162.475 84.9708 162.605C84.179 164.123 83.5102 165.701 82.9708 167.325C82.9708 167.465 82.9008 167.615 82.8508 167.765C82.8008 167.915 82.7508 168.045 82.7008 168.185C80.3774 175.525 80.7606 183.454 83.7808 190.535C85.3791 194.297 87.7711 197.668 90.7933 200.42C93.8154 203.171 97.3963 205.236 101.291 206.475C103.936 207.297 106.691 207.715 109.461 207.715C113.374 207.663 117.239 206.834 120.83 205.277C124.421 203.72 127.667 201.466 130.381 198.645C130.501 198.965 130.611 199.285 130.751 199.645C132.48 203.699 135.059 207.335 138.315 210.305C141.57 213.276 145.426 215.513 149.621 216.865C152.468 217.747 155.431 218.195 158.411 218.195C170.661 218.195 182.051 210.525 187.681 199.025C190.249 201.785 193.358 203.985 196.815 205.489C200.272 206.993 204.001 207.768 207.771 207.765C220.671 207.765 232.771 198.655 236.601 185.485C236.601 185.345 236.661 185.205 236.701 185.085C236.741 184.965 236.821 184.775 236.871 184.615C237.366 182.968 237.701 181.277 237.871 179.565C237.871 179.425 237.871 179.305 237.931 179.175C237.991 179.045 237.931 178.715 237.981 178.485C238.031 178.255 237.981 178.065 237.981 177.855C237.981 177.355 237.981 176.855 238.041 176.345V175.185C238.041 174.955 238.041 174.725 238.041 174.485C237.891 165.925 235.231 156.345 232.621 148.595C232.531 148.315 232.441 148.085 232.361 147.855C232.281 147.625 232.271 147.575 232.231 147.445C231.971 146.765 231.701 146.105 231.371 145.445C233.804 143.273 235.981 140.831 237.861 138.165C244.735 136.886 251.189 133.937 256.655 129.577C262.122 125.218 266.433 119.582 269.211 113.165C273.9 110.021 277.669 105.686 280.131 100.605C282.432 95.8464 283.498 90.5847 283.231 85.3054Z" fill="#D1D3D4"/>
</g>
<g style="mix-blend-mode:multiply" opacity="0.74">
<path d="M285.731 82.8053C285.814 79.0306 285.222 75.2713 283.981 71.7053C283.053 69.0496 281.778 66.5279 280.191 64.2053C280.698 61.6582 280.91 59.061 280.821 56.4653C280.946 51.9043 280.157 47.3643 278.499 43.1133C276.841 38.8624 274.348 34.9867 271.168 31.7149C267.988 28.4432 264.184 25.8418 259.982 24.0642C255.779 22.2866 251.264 21.369 246.701 21.3653C243.867 21.3548 241.043 21.6907 238.291 22.3653C234.604 20.9223 230.68 20.1829 226.721 20.1853C222.103 20.2043 217.544 21.2202 213.355 23.1635C209.167 25.1069 205.447 27.9319 202.451 31.4453C200.221 30.9449 197.953 30.6305 195.671 30.5053C191.343 24.502 185.533 19.7232 178.807 16.6352C172.081 13.5472 164.67 12.2555 157.296 12.8861C149.923 13.5167 142.838 16.048 136.735 20.2332C130.631 24.4184 125.716 30.1144 122.471 36.7653C112.495 38.9591 103.521 44.3827 96.9408 52.1953C75.9408 53.7453 58.7408 65.7053 52.1408 81.8253C48.812 83.8971 45.8291 86.4785 43.3008 89.4753C37.8333 95.9917 34.8972 104.26 35.0308 112.765C34.8867 115.418 35.0477 118.079 35.5108 120.695C39.0108 140.475 59.5108 154.165 89.0808 157.425C88.8008 157.835 88.5508 158.245 88.3108 158.645C88.2008 158.815 88.1008 158.985 88.0008 159.165C87.9008 159.345 87.7408 159.555 87.6308 159.765C87.5208 159.975 87.5308 160.005 87.4708 160.135C86.679 161.653 86.0102 163.231 85.4708 164.855C85.4708 164.995 85.4008 165.145 85.3508 165.295C85.3008 165.445 85.2508 165.575 85.2008 165.715C82.8774 173.055 83.2606 180.984 86.2808 188.065C87.8774 191.828 90.2689 195.2 93.2912 197.952C96.3136 200.703 99.8954 202.768 103.791 204.005C106.436 204.827 109.191 205.245 111.961 205.245C115.874 205.193 119.739 204.364 123.33 202.807C126.921 201.25 130.167 198.996 132.881 196.175C133.001 196.495 133.101 196.815 133.241 197.175C134.981 201.22 137.568 204.845 140.826 207.807C144.084 210.768 147.939 212.998 152.131 214.345C154.978 215.227 157.941 215.675 160.921 215.675C173.171 215.675 184.561 208.015 190.191 196.505C192.759 199.265 195.868 201.465 199.325 202.969C202.782 204.473 206.511 205.248 210.281 205.245C223.181 205.245 235.281 196.145 239.111 182.965C239.111 182.825 239.171 182.695 239.211 182.565C239.251 182.435 239.331 182.255 239.381 182.095C239.88 180.449 240.215 178.758 240.381 177.045C240.381 176.915 240.381 176.785 240.441 176.655C240.501 176.525 240.441 176.195 240.491 175.965C240.541 175.735 240.491 175.545 240.491 175.335C240.491 174.835 240.491 174.335 240.491 173.825C240.491 173.315 240.491 173.055 240.491 172.665V171.945C240.351 163.375 237.681 153.795 235.071 146.045C234.981 145.775 234.891 145.535 234.811 145.305C234.731 145.075 234.721 145.025 234.681 144.895C234.421 144.215 234.141 143.555 233.821 142.895C236.251 140.724 238.429 138.286 240.311 135.625C247.184 134.343 253.637 131.393 259.103 127.034C264.569 122.675 268.881 117.041 271.661 110.625C276.339 107.486 280.1 103.163 282.561 98.0953C284.884 93.3456 285.975 88.0873 285.731 82.8053Z" fill="#CECFD1"/>
</g>
<g style="mix-blend-mode:multiply" opacity="0.79">
<path d="M288.231 80.3054C288.314 76.5306 287.721 72.7715 286.481 69.2054C285.548 66.5515 284.274 64.0303 282.691 61.7054C283.193 59.1609 283.404 56.5676 283.321 53.9754C283.493 47.3924 281.763 40.8994 278.338 35.275C274.913 29.6505 269.939 25.1334 264.011 22.2654C259.395 20.0278 254.331 18.8686 249.201 18.8754C246.367 18.8599 243.542 19.1958 240.791 19.8754C237.106 18.4255 233.181 17.6826 229.221 17.6854C224.603 17.7043 220.044 18.7202 215.855 20.6636C211.667 22.6069 207.947 25.4319 204.951 28.9454C202.717 28.4476 200.446 28.1365 198.161 28.0154C193.834 22.0117 188.024 17.2322 181.299 14.1434C174.574 11.0546 167.163 9.76195 159.789 10.3915C152.415 11.0211 145.331 13.5515 139.227 17.7357C133.123 21.9199 128.207 27.615 124.961 34.2654C114.994 36.4511 106.025 41.86 99.4408 49.6554C78.4408 51.2054 61.2408 63.1654 54.6308 79.2854C51.3063 81.363 48.327 83.9475 45.8008 86.9454C40.3333 93.4617 37.3972 101.73 37.5308 110.235C37.3867 112.888 37.5477 115.549 38.0108 118.165C41.5108 137.945 62.0108 151.635 91.5808 154.895C91.3008 155.305 91.0508 155.715 90.8008 156.115L90.5008 156.635C90.3808 156.835 90.2408 157.025 90.1308 157.235C90.0208 157.445 90.0308 157.485 89.9708 157.605C89.1851 159.126 88.5165 160.703 87.9708 162.325C87.9708 162.465 87.9008 162.615 87.8508 162.765C87.8008 162.915 87.7408 163.045 87.7008 163.185C85.3774 170.525 85.7606 178.454 88.7808 185.535C90.3774 189.298 92.7689 192.67 95.7912 195.422C98.8136 198.173 102.395 200.238 106.291 201.475C108.936 202.298 111.691 202.716 114.461 202.715C118.374 202.663 122.239 201.834 125.83 200.277C129.421 198.72 132.667 196.466 135.381 193.645C135.501 193.965 135.601 194.285 135.741 194.645C137.475 198.696 140.058 202.329 143.315 205.297C146.572 208.266 150.427 210.502 154.621 211.855C157.468 212.737 160.431 213.185 163.411 213.185C175.661 213.185 187.051 205.525 192.681 194.015C195.247 196.777 198.357 198.978 201.814 200.482C205.271 201.986 209.001 202.76 212.771 202.755C225.671 202.755 237.771 193.655 241.601 180.475C241.601 180.345 241.661 180.205 241.701 180.075C241.741 179.945 241.821 179.765 241.871 179.605C242.376 177.961 242.711 176.269 242.871 174.555C242.871 174.425 242.871 174.305 242.941 174.165C243.011 174.025 242.941 173.705 242.991 173.475C243.041 173.245 242.991 173.055 242.991 172.845C242.991 172.345 242.991 171.845 242.991 171.335C242.991 170.825 242.991 170.565 242.991 170.175V169.485C242.851 160.915 240.181 151.335 237.571 143.585C237.481 143.315 237.391 143.075 237.311 142.845C237.231 142.615 237.221 142.565 237.171 142.445C236.925 141.764 236.641 141.096 236.321 140.445C238.749 138.269 240.926 135.827 242.811 133.165C249.684 131.883 256.137 128.933 261.603 124.574C267.069 120.215 271.381 114.581 274.161 108.165C278.693 105.124 282.363 100.964 284.815 96.0888C287.268 91.2132 288.42 85.7869 288.161 80.3354L288.231 80.3054Z" fill="#CACCCD"/>
</g>
<g style="mix-blend-mode:multiply" opacity="0.84">
<path d="M290.731 77.8054C290.81 74.0301 290.214 70.271 288.971 66.7054C288.044 64.0541 286.773 61.536 285.191 59.2154C285.693 56.6675 285.904 54.0709 285.821 51.4754C285.993 44.8924 284.263 38.3994 280.838 32.775C277.413 27.1505 272.439 22.6334 266.511 19.7654C261.895 17.5278 256.831 16.3686 251.701 16.3754C248.867 16.3599 246.042 16.6958 243.291 17.3754C239.605 15.9296 235.68 15.1901 231.721 15.1954C227.103 15.2084 222.543 16.2207 218.354 18.1626C214.164 20.1045 210.445 22.9301 207.451 26.4454C205.217 25.9476 202.946 25.6365 200.661 25.5154C196.334 19.5117 190.524 14.7322 183.799 11.6434C177.074 8.55463 169.663 7.26195 162.289 7.89154C154.916 8.52113 147.831 11.0515 141.727 15.2357C135.623 19.4199 130.707 25.115 127.461 31.7654C117.493 33.9545 108.524 39.3668 101.941 47.1654C80.9408 48.7054 63.7408 60.6654 57.1308 76.7854C53.8071 78.86 50.8278 81.4411 48.3008 84.4354C42.8305 90.9507 39.8909 99.219 40.0208 107.725C39.885 110.379 40.0494 113.039 40.5108 115.655C44.0108 135.435 64.5108 149.125 94.0808 152.385C93.8008 152.795 93.5508 153.205 93.3008 153.605C93.2008 153.785 93.1008 153.945 92.9908 154.125C92.8808 154.305 92.7408 154.515 92.6308 154.725C92.5208 154.935 92.5308 154.975 92.4708 155.095C91.6869 156.616 91.0183 158.194 90.4708 159.815C90.4708 159.955 90.4008 160.105 90.3508 160.255C90.3008 160.405 90.2408 160.535 90.2008 160.675C87.8676 168.014 88.2509 175.946 91.2808 183.025C92.8774 186.788 95.2689 190.16 98.2913 192.912C101.314 195.663 104.895 197.728 108.791 198.965C111.436 199.788 114.191 200.206 116.961 200.205C120.873 200.154 124.736 199.325 128.326 197.768C131.915 196.211 135.16 193.957 137.871 191.135C138.001 191.455 138.101 191.775 138.241 192.135C139.975 196.188 142.559 199.822 145.817 202.791C149.076 205.76 152.934 207.995 157.131 209.345C159.978 210.227 162.941 210.675 165.921 210.675C178.171 210.675 189.561 203.015 195.191 191.505C197.757 194.267 200.867 196.468 204.324 197.972C207.781 199.476 211.511 200.25 215.281 200.245C228.171 200.245 240.281 191.145 244.111 177.965C244.111 177.835 244.171 177.695 244.211 177.565C244.251 177.435 244.321 177.255 244.381 177.095C244.891 175.452 245.226 173.759 245.381 172.045C245.381 171.915 245.381 171.795 245.441 171.655C245.501 171.515 245.441 171.195 245.501 170.965C245.561 170.735 245.501 170.545 245.501 170.335C245.501 169.845 245.501 169.335 245.501 168.825C245.501 168.315 245.501 168.055 245.501 167.665V166.945C245.371 158.375 242.691 148.795 240.081 141.045C239.981 140.775 239.901 140.535 239.821 140.305C239.741 140.075 239.731 140.025 239.681 139.905C239.435 139.224 239.151 138.556 238.831 137.905C241.259 135.729 243.436 133.287 245.321 130.625C252.194 129.343 258.647 126.393 264.113 122.034C269.579 117.675 273.891 112.041 276.671 105.625C281.199 102.58 284.865 98.4194 287.317 93.5448C289.77 88.6702 290.925 83.2461 290.671 77.7954L290.731 77.8054Z" fill="#C7C8CA"/>
</g>
<g style="mix-blend-mode:multiply" opacity="0.89">
<path d="M293.231 75.3054C293.309 71.5301 292.713 67.7712 291.471 64.2054C290.544 61.5541 289.273 59.036 287.691 56.7154C288.19 54.1671 288.398 51.5705 288.311 48.9754C288.486 42.3932 286.758 35.9005 283.334 30.2759C279.911 24.6514 274.938 20.1339 269.011 17.2654C264.395 15.0278 259.331 13.8686 254.201 13.8754C251.367 13.8599 248.542 14.1958 245.791 14.8754C242.105 13.4296 238.18 12.6901 234.221 12.6954C229.604 12.7137 225.046 13.7284 220.857 15.6699C216.669 17.6115 212.948 20.4342 209.951 23.9454C207.716 23.4525 205.446 23.1415 203.161 23.0154C198.834 17.0117 193.024 12.2322 186.299 9.14344C179.574 6.05463 172.163 4.76195 164.789 5.39154C157.416 6.02113 150.331 8.55147 144.227 12.7357C138.123 16.9199 133.207 22.615 129.961 29.2654C119.993 31.4545 111.024 36.8668 104.441 44.6654C83.4408 46.2054 66.2408 58.1654 59.6308 74.2854C56.3063 76.363 53.327 78.9475 50.8008 81.9454C45.3305 88.4607 42.3909 96.729 42.5208 105.235C42.387 107.892 42.548 110.555 43.0008 113.175C46.5108 132.955 67.0008 146.635 96.5708 149.895C96.3008 150.305 96.0508 150.715 95.8008 151.115C95.6908 151.295 95.5908 151.455 95.4908 151.635C95.3908 151.815 95.2408 152.035 95.1308 152.235C95.0208 152.435 95.0308 152.485 94.9708 152.605C94.1869 154.126 93.5183 155.704 92.9708 157.325C92.9708 157.465 92.8908 157.615 92.8508 157.765C92.8108 157.915 92.7408 158.045 92.7008 158.185C90.3595 165.523 90.7429 173.458 93.7808 180.535C95.3774 184.298 97.7689 187.67 100.791 190.422C103.814 193.173 107.395 195.238 111.291 196.475C113.935 197.302 116.69 197.721 119.461 197.715C123.373 197.663 127.236 196.834 130.825 195.277C134.415 193.72 137.659 191.466 140.371 188.645C140.501 188.965 140.601 189.285 140.741 189.645C142.474 193.697 145.056 197.331 148.313 200.299C151.57 203.268 155.426 205.504 159.621 206.855C162.466 207.742 165.43 208.191 168.411 208.185C180.661 208.185 192.051 200.525 197.681 189.015C200.939 192.499 205.041 195.083 209.591 196.515C212.239 197.342 214.997 197.76 217.771 197.755C230.661 197.755 242.771 188.655 246.601 175.475C246.601 175.345 246.661 175.205 246.701 175.075C246.741 174.945 246.811 174.765 246.871 174.605C247.382 172.962 247.717 171.269 247.871 169.555C247.871 169.425 247.871 169.305 247.931 169.165C247.991 169.025 247.931 168.705 247.991 168.475V167.845C247.991 167.355 247.991 166.845 248.051 166.335C248.111 165.825 248.051 165.565 248.051 165.175C248.051 164.945 248.051 164.715 248.051 164.485C247.941 155.915 245.251 146.335 242.631 138.585L242.381 137.845C242.331 137.715 242.291 137.575 242.241 137.445C241.981 136.755 241.711 136.095 241.391 135.445C243.822 133.271 245.999 130.829 247.881 128.165C254.754 126.883 261.207 123.933 266.673 119.574C272.139 115.215 276.451 109.581 279.231 103.165C283.759 100.12 287.425 95.9594 289.877 91.0848C292.33 86.2102 293.485 80.7861 293.231 75.3354V75.3054Z" fill="#C3C5C7"/>
</g>
<g style="mix-blend-mode:multiply" opacity="0.95">
<path d="M295.721 72.8153C295.809 69.037 295.216 65.2737 293.971 61.7053C293.044 59.0541 291.773 56.5359 290.191 54.2153C290.69 51.6671 290.898 49.0705 290.811 46.4753C290.954 41.1995 289.874 35.9622 287.654 31.174C285.434 26.3859 282.135 22.177 278.016 18.8774C273.897 15.5778 269.069 13.2773 263.912 12.1561C258.755 11.035 253.408 11.1237 248.291 12.4153C244.605 10.9696 240.68 10.2301 236.721 10.2353C232.104 10.2537 227.546 11.2683 223.357 13.2099C219.169 15.1515 215.448 17.9742 212.451 21.4853C210.216 20.9924 207.946 20.6814 205.661 20.5553C201.331 14.5546 195.521 9.77826 188.795 6.69202C182.07 3.60577 174.66 2.31497 167.287 2.94548C159.914 3.57598 152.831 6.10627 146.727 10.2896C140.624 14.473 135.709 20.1666 132.461 26.8153C122.493 28.9983 113.523 34.4076 106.941 42.2053C85.9408 43.7453 68.7408 55.7053 62.1308 71.8253C58.8059 73.9024 55.8237 76.4831 53.2908 79.4753C47.8296 85.9953 44.8944 94.2613 45.0208 102.765C44.887 105.422 45.048 108.085 45.5008 110.705C49.0108 130.485 69.5008 144.165 99.0708 147.425C98.8008 147.835 98.5508 148.245 98.3008 148.645L97.9908 149.165C97.8808 149.375 97.7408 149.565 97.6308 149.765C97.5208 149.965 97.5308 150.015 97.4608 150.135C96.6849 151.66 96.0166 153.237 95.4608 154.855C95.4608 154.995 95.3808 155.145 95.3408 155.295C95.3008 155.445 95.2308 155.575 95.1908 155.715C92.8379 163.054 93.2215 170.997 96.2708 178.075C97.868 181.836 100.26 185.207 103.282 187.957C106.305 190.707 109.886 192.77 113.781 194.005C116.425 194.832 119.18 195.251 121.951 195.245C125.862 195.194 129.725 194.367 133.314 192.812C136.904 191.257 140.149 189.004 142.861 186.185C142.991 186.505 143.091 186.815 143.231 187.135C144.967 191.189 147.553 194.822 150.813 197.791C154.074 200.76 157.933 202.995 162.131 204.345C164.973 205.232 167.934 205.681 170.911 205.675C183.161 205.675 194.561 198.015 200.191 186.505C203.446 189.993 207.549 192.577 212.101 194.005C214.745 194.832 217.5 195.25 220.271 195.245C233.171 195.245 245.271 186.145 249.111 172.965C249.111 172.835 249.111 172.695 249.201 172.575C249.291 172.455 249.321 172.255 249.381 172.095C249.888 170.468 250.224 168.792 250.381 167.095C250.381 166.955 250.381 166.835 250.441 166.695C250.501 166.555 250.441 166.245 250.441 166.005C250.441 165.765 250.441 165.595 250.441 165.375C250.441 164.885 250.441 164.375 250.501 163.865C250.561 163.355 250.501 163.095 250.501 162.715C250.501 162.485 250.501 162.245 250.501 162.015C250.401 153.445 247.701 143.865 245.081 136.115L244.831 135.375C244.781 135.245 244.741 135.105 244.691 134.975C244.441 134.293 244.154 133.626 243.831 132.975C246.267 130.806 248.445 128.363 250.321 125.695C257.196 124.418 263.651 121.47 269.118 117.11C274.585 112.751 278.896 107.113 281.671 100.695C286.202 97.6557 289.871 93.4977 292.324 88.6238C294.777 83.75 295.93 78.3254 295.671 72.8753L295.721 72.8153Z" fill="#C0C1C3"/>
</g>
<g style="mix-blend-mode:multiply">
<path d="M298.221 70.3154C298.309 66.5403 297.716 62.7801 296.471 59.2153C295.542 56.5618 294.271 54.0406 292.691 51.7153C293.19 49.1671 293.398 46.5705 293.311 43.9753C293.45 38.7021 292.366 33.4682 290.144 28.6839C287.922 23.8995 284.622 19.6946 280.504 16.3984C276.385 13.1023 271.56 10.8044 266.405 9.68485C261.25 8.5653 255.906 8.65446 250.791 9.94535C247.102 8.4986 243.173 7.75906 239.211 7.76535C234.601 7.7765 230.048 8.78092 225.862 10.7102C221.675 12.6395 217.954 15.4483 214.951 18.9453C212.716 18.4525 210.446 18.1414 208.161 18.0153C203.833 12.012 198.023 7.23323 191.297 4.14521C184.571 1.0572 177.16 -0.234536 169.786 0.396062C162.413 1.02666 155.328 3.55805 149.225 7.74322C143.121 11.9284 138.206 17.6244 134.961 24.2754C124.993 26.4583 116.023 31.8676 109.441 39.6653C88.4408 41.2053 71.2408 53.1753 64.6308 69.2953C61.2994 71.3635 58.3159 73.9454 55.7908 76.9454C50.3296 83.4653 47.3944 91.7313 47.5208 100.235C47.3816 102.892 47.5427 105.555 48.0008 108.175C51.5108 127.955 72.0008 141.635 101.571 144.895C101.291 145.305 101.051 145.715 100.801 146.125C100.691 146.295 100.591 146.455 100.491 146.635L100.131 147.235C100.071 147.365 100.021 147.485 99.9608 147.605C99.1382 149.108 98.4682 150.689 97.9608 152.325C97.9103 152.469 97.8702 152.616 97.8408 152.765C97.7908 152.915 97.7308 153.055 97.6808 153.185C95.3608 160.53 95.7475 168.462 98.7708 175.545C100.367 179.306 102.758 182.677 105.778 185.428C108.799 188.18 112.378 190.246 116.271 191.485C118.92 192.303 121.678 192.718 124.451 192.715C128.362 192.664 132.225 191.837 135.814 190.282C139.404 188.727 142.649 186.474 145.361 183.655C145.491 183.975 145.591 184.295 145.731 184.605C147.451 188.665 150.027 192.305 153.284 195.277C156.541 198.249 160.401 200.483 164.601 201.825C167.448 202.707 170.411 203.155 173.391 203.155C185.641 203.155 197.041 195.485 202.671 183.975C205.232 186.741 208.339 188.945 211.795 190.45C215.251 191.954 218.981 192.725 222.751 192.715C235.651 192.715 247.521 183.555 251.581 170.445C251.581 170.305 251.641 170.165 251.681 170.045L251.861 169.565C252.348 167.933 252.682 166.259 252.861 164.565C252.861 164.425 252.861 164.305 252.921 164.175C252.981 164.045 252.921 163.715 252.921 163.475C252.921 163.235 252.921 163.065 252.921 162.845C252.921 162.355 252.921 161.845 252.981 161.335C253.041 160.825 252.981 160.565 252.981 160.185C252.981 159.955 252.981 159.715 252.981 159.485C252.781 150.925 250.221 141.325 247.561 133.585C247.471 133.315 247.391 133.075 247.311 132.855C247.231 132.635 247.221 132.575 247.171 132.445C246.93 131.76 246.642 131.092 246.311 130.445C248.744 128.274 250.922 125.831 252.801 123.165C261.948 121.477 270.289 116.833 276.541 109.945C279.719 106.452 282.301 102.458 284.181 98.1254C288.711 95.082 292.379 90.9219 294.831 86.0468C297.284 81.1717 298.437 75.7465 298.181 70.2953L298.221 70.3154Z" fill="#BCBEC0"/>
</g>
</g>
<path d="M296.591 71.9453C296.741 65.3162 294.799 58.8083 291.041 53.3453C291.542 50.7972 291.757 48.2011 291.681 45.6053C291.845 39.0318 290.111 32.5503 286.689 26.9358C283.266 21.3212 278.299 16.8113 272.381 13.9453C267.761 11.7076 262.694 10.5484 257.561 10.5553C254.727 10.5398 251.902 10.8757 249.151 11.5553C245.465 10.1077 241.54 9.36814 237.581 9.37532C232.963 9.39358 228.403 10.4081 224.213 12.3496C220.022 14.2911 216.3 17.1139 213.301 20.6253C211.073 20.1331 208.809 19.8221 206.531 19.6953C202.202 13.6919 196.392 8.91274 189.666 5.82419C182.94 2.73563 175.529 1.44308 168.155 2.07262C160.78 2.70217 153.695 5.23232 147.59 9.41625C141.485 13.6002 136.569 19.295 133.321 25.9453C123.351 28.1309 114.381 33.5439 107.801 41.3453C86.8008 42.8853 69.6008 54.8453 63.0008 70.9653C59.6594 73.0319 56.6658 75.6137 54.1308 78.6153C48.6669 85.1481 45.7383 93.43 45.8808 101.945C45.7454 104.602 45.9097 107.265 46.3708 109.885C49.8608 129.655 70.3708 143.345 99.9308 146.605C99.6608 147.015 99.4108 147.425 99.1708 147.835C99.0608 147.995 98.9608 148.165 98.8608 148.345C98.7608 148.525 98.6008 148.745 98.5008 148.945C98.4008 149.145 98.3808 149.195 98.3208 149.315C97.5024 150.816 96.8325 152.394 96.3208 154.025C96.3208 154.175 96.2508 154.325 96.2008 154.475C96.1508 154.625 96.0908 154.755 96.0508 154.895C93.732 162.222 94.1152 170.137 97.1308 177.205C98.7274 180.968 101.119 184.34 104.141 187.092C107.164 189.843 110.745 191.908 114.641 193.145C117.287 193.964 120.041 194.379 122.811 194.375C126.724 194.325 130.588 193.498 134.179 191.942C137.77 190.387 141.017 188.135 143.731 185.315C143.851 185.635 143.951 185.965 144.101 186.315C145.819 190.373 148.394 194.012 151.649 196.982C154.905 199.952 158.763 202.184 162.961 203.525C165.811 204.406 168.777 204.854 171.761 204.855C184.001 204.855 195.401 197.195 201.021 185.685C203.592 188.442 206.707 190.637 210.167 192.133C213.628 193.628 217.361 194.392 221.131 194.375C234.041 194.375 245.901 185.225 249.971 172.105C249.971 171.975 250.031 171.835 250.071 171.705C250.111 171.575 250.181 171.395 250.241 171.235C250.737 169.605 251.072 167.931 251.241 166.235C251.241 166.095 251.301 165.965 251.311 165.845C251.321 165.725 251.311 165.375 251.311 165.145C251.311 164.915 251.311 164.725 251.311 164.505C251.311 164.015 251.361 163.505 251.361 163.005C251.361 162.505 251.361 162.235 251.361 161.845C251.361 161.625 251.361 161.385 251.361 161.155C251.151 152.595 248.601 142.995 245.951 135.255C245.851 134.985 245.771 134.745 245.691 134.515C245.611 134.285 245.601 134.235 245.561 134.115C245.312 133.431 245.021 132.764 244.691 132.115C247.127 129.94 249.308 127.494 251.191 124.825C258.065 123.549 264.519 120.601 269.985 116.241C275.45 111.881 279.759 106.244 282.531 99.8253C287.064 96.7855 290.735 92.626 293.188 87.7501C295.641 82.8741 296.792 77.4472 296.531 71.9953L296.591 71.9453Z" fill="white"/>
<path d="M298.221 70.3154C298.309 66.5403 297.716 62.7801 296.471 59.2153C295.542 56.5618 294.271 54.0406 292.691 51.7153C293.19 49.1671 293.398 46.5705 293.311 43.9753C293.45 38.7021 292.366 33.4682 290.144 28.6839C287.922 23.8995 284.622 19.6946 280.504 16.3984C276.385 13.1023 271.56 10.8044 266.405 9.68485C261.25 8.5653 255.906 8.65446 250.791 9.94535C247.102 8.4986 243.173 7.75906 239.211 7.76535C234.601 7.7765 230.048 8.78092 225.862 10.7102C221.675 12.6395 217.954 15.4483 214.951 18.9453C212.716 18.4525 210.446 18.1414 208.161 18.0153C203.833 12.012 198.023 7.23323 191.297 4.14521C184.571 1.0572 177.16 -0.234536 169.786 0.396062C162.413 1.02666 155.328 3.55805 149.225 7.74322C143.121 11.9284 138.206 17.6244 134.961 24.2754C124.993 26.4583 116.023 31.8676 109.441 39.6653C88.4408 41.2053 71.2408 53.1753 64.6308 69.2953C61.2994 71.3635 58.3159 73.9454 55.7908 76.9454C50.3296 83.4653 47.3944 91.7313 47.5208 100.235C47.3816 102.892 47.5427 105.555 48.0008 108.175C51.5108 127.955 72.0008 141.635 101.571 144.895C101.291 145.305 101.051 145.715 100.801 146.125C100.691 146.295 100.591 146.455 100.491 146.635L100.131 147.235C100.071 147.365 100.021 147.485 99.9608 147.605C99.1382 149.108 98.4682 150.689 97.9608 152.325C97.9103 152.469 97.8702 152.616 97.8408 152.765C97.7908 152.915 97.7308 153.055 97.6808 153.185C95.3608 160.53 95.7475 168.462 98.7708 175.545C100.367 179.306 102.758 182.677 105.778 185.428C108.799 188.18 112.378 190.246 116.271 191.485C118.92 192.303 121.678 192.718 124.451 192.715C128.362 192.664 132.225 191.837 135.814 190.282C139.404 188.727 142.649 186.474 145.361 183.655C145.491 183.975 145.591 184.295 145.731 184.605C147.451 188.665 150.027 192.305 153.284 195.277C156.541 198.249 160.401 200.483 164.601 201.825C167.448 202.707 170.411 203.155 173.391 203.155C185.641 203.155 197.041 195.485 202.671 183.975C205.232 186.741 208.339 188.945 211.795 190.45C215.251 191.954 218.981 192.725 222.751 192.715C235.651 192.715 247.521 183.555 251.581 170.445C251.581 170.305 251.641 170.165 251.681 170.045L251.861 169.565C252.348 167.933 252.682 166.259 252.861 164.565C252.861 164.425 252.861 164.305 252.921 164.175C252.981 164.045 252.921 163.715 252.921 163.475C252.921 163.235 252.921 163.065 252.921 162.845C252.921 162.355 252.921 161.845 252.981 161.335C253.041 160.825 252.981 160.565 252.981 160.185C252.981 159.955 252.981 159.715 252.981 159.485C252.781 150.925 250.221 141.325 247.561 133.585C247.471 133.315 247.391 133.075 247.311 132.855C247.231 132.635 247.221 132.575 247.171 132.445C246.93 131.76 246.642 131.092 246.311 130.445C248.744 128.274 250.922 125.831 252.801 123.165C261.948 121.477 270.289 116.833 276.541 109.945C279.719 106.452 282.301 102.458 284.181 98.1254C288.711 95.082 292.379 90.9219 294.831 86.0468C297.284 81.1717 298.437 75.7465 298.181 70.2953L298.221 70.3154Z" fill="url(#paint0_linear)"/>
<path d="M112.031 58.6254C114.259 58.5272 116.492 58.5907 118.711 58.8154C122.711 49.5354 132.421 42.7454 144.051 42.2354C145.325 42.1866 146.6 42.2133 147.871 42.3154C148.513 36.3609 151.212 30.8169 155.502 26.6381C159.793 22.4593 165.406 19.9074 171.375 19.4218C177.344 18.9362 183.296 20.5473 188.206 23.9777C193.115 27.4081 196.674 32.443 198.271 38.2154C201.828 37.097 205.587 36.7677 209.285 37.2506C212.982 37.7334 216.53 39.0168 219.681 41.0111C222.832 43.0055 225.51 45.6629 227.529 48.7983C229.548 51.9337 230.859 55.4715 231.371 59.1654C234.717 57.0925 238.494 55.8138 242.411 55.4273C246.328 55.0409 250.282 55.5569 253.969 56.9359C257.656 58.3148 260.978 60.52 263.68 63.3823C266.382 66.2445 268.393 69.6878 269.557 73.4478C270.722 77.2078 271.01 81.1847 270.399 85.0732C269.788 88.9618 268.294 92.6587 266.032 95.8803C263.77 99.1019 260.801 101.763 257.351 103.658C253.901 105.554 250.063 106.634 246.131 106.815C244.856 106.851 243.579 106.801 242.311 106.665C241.221 109.97 239.473 113.02 237.171 115.63C234.87 118.241 232.064 120.357 228.921 121.853C225.779 123.348 222.366 124.191 218.889 124.331C215.412 124.471 211.943 123.904 208.691 122.665C202.221 129.575 191.231 134.405 178.591 134.955C161.691 135.705 147.071 128.595 141.991 118.175C138.948 120.671 135.373 122.436 131.541 123.334C127.71 124.232 123.723 124.24 119.888 123.356C116.053 122.472 112.471 120.721 109.419 118.237C106.367 115.752 103.925 112.601 102.281 109.025C88.9808 105.945 78.7308 101.365 78.7308 85.8854C78.7308 71.6554 93.0108 59.4654 112.031 58.6254Z" fill="#1A485E"/>
<path d="M112.031 56.6254C114.259 56.5271 116.492 56.5907 118.711 56.8154C122.711 47.5354 132.421 40.7454 144.051 40.2254C145.325 40.1849 146.6 40.2149 147.871 40.3154C148.512 34.3603 151.209 28.8152 155.499 24.6352C159.788 20.4551 165.401 17.9018 171.371 17.415C177.34 16.9282 183.293 18.5384 188.203 21.9682C193.113 25.3981 196.673 30.4329 198.271 36.2054C200.368 35.5553 202.538 35.1723 204.731 35.0654C211.123 34.7828 217.391 36.8891 222.316 40.9743C227.24 45.0595 230.468 50.8311 231.371 57.1654C234.717 55.089 238.494 53.8071 242.413 53.4181C246.331 53.0291 250.287 53.5433 253.976 54.9212C257.665 56.2991 260.989 58.5041 263.693 61.3669C266.397 64.2297 268.409 67.674 269.574 71.4355C270.74 75.197 271.027 79.1755 270.416 83.0656C269.804 86.9557 268.309 90.6538 266.045 93.876C263.781 97.0982 260.809 99.7588 257.357 101.653C253.905 103.548 250.065 104.626 246.131 104.805C244.856 104.85 243.579 104.803 242.311 104.665C241.217 107.968 239.467 111.015 237.165 113.623C234.863 116.231 232.057 118.346 228.916 119.841C225.774 121.336 222.363 122.179 218.888 122.321C215.412 122.463 211.943 121.9 208.691 120.665C202.221 127.575 191.231 132.405 178.591 132.955C161.691 133.705 147.071 126.595 141.991 116.175C138.948 118.671 135.373 120.436 131.541 121.334C127.71 122.232 123.723 122.24 119.888 121.356C116.053 120.472 112.471 118.721 109.419 116.237C106.367 113.752 103.925 110.601 102.281 107.025C88.9808 103.945 78.7308 99.3554 78.7308 83.8854C78.7308 69.6554 93.0108 57.4554 112.031 56.6254Z" fill="#276C8D"/>
<g style="mix-blend-mode:screen" opacity="0.15">
<path d="M174.721 77.1754C210.411 77.1754 243.311 80.4554 269.781 85.9754C270.867 82.0515 271.01 77.9262 270.196 73.9367C269.383 69.9473 267.637 66.2069 265.101 63.0215C262.566 59.8361 259.312 57.2961 255.606 55.6091C251.901 53.9222 247.848 53.1362 243.781 53.3154C239.368 53.5028 235.079 54.8291 231.331 57.1654C230.428 50.8311 227.2 45.0595 222.276 40.9743C217.351 36.8891 211.083 34.7828 204.691 35.0654C202.498 35.1723 200.328 35.5553 198.231 36.2054C196.634 30.4329 193.073 25.3981 188.163 21.9682C183.253 18.5384 177.3 16.9282 171.331 17.415C165.361 17.9018 159.748 20.4551 155.459 24.6352C151.169 28.8152 148.472 34.3603 147.831 40.3154C146.56 40.2149 145.285 40.1849 144.011 40.2254C132.381 40.7454 122.661 47.5354 118.671 56.8154C116.452 56.5907 114.219 56.5271 111.991 56.6254C92.9908 57.4554 78.6908 69.6254 78.6908 83.8854C78.6908 84.6754 78.7408 85.4254 78.7908 86.1554C105.421 80.5354 138.651 77.1754 174.721 77.1754Z" fill="#7F8C8D"/>
</g>
<path d="M234.511 91.9454C236.272 92.7889 238.181 93.277 240.131 93.3817C242.08 93.4864 244.031 93.2056 245.872 92.5554C247.713 91.9052 249.408 90.8984 250.859 89.5926C252.311 88.2868 253.49 86.7076 254.331 84.9454C254.825 83.9198 255.194 82.8387 255.431 81.7254C256.701 83.1211 258.229 84.2586 259.931 85.0754C261.692 85.9796 263.616 86.5225 265.59 86.6719C267.564 86.8213 269.548 86.5743 271.425 85.9454C273.302 85.3164 275.034 84.3184 276.519 83.0098C278.005 81.7013 279.213 80.1089 280.074 78.3262C280.935 76.5435 281.43 74.6066 281.531 72.6296C281.631 70.6526 281.336 68.6754 280.661 66.8145C279.986 64.9535 278.945 63.2464 277.601 61.7937C276.256 60.3409 274.634 59.1719 272.831 58.3554C272.182 58.0575 271.514 57.8036 270.831 57.5954C273.927 54.6327 275.801 50.6178 276.083 46.3421C276.366 42.0663 275.036 37.8398 272.357 34.4956C269.678 31.1513 265.843 28.9319 261.609 28.2748C257.374 27.6176 253.048 28.5704 249.481 30.9454C246.718 28.2794 243.03 26.7886 239.19 26.7865C235.351 26.7844 231.661 28.2713 228.896 30.9343C226.13 33.5974 224.505 37.2291 224.363 41.0655C224.22 44.902 225.571 48.6443 228.131 51.5054C225.087 52.1194 222.312 53.6735 220.199 55.9485C218.085 58.2235 216.739 61.1047 216.35 64.1856C215.961 67.2665 216.549 70.3918 218.031 73.1207C219.513 75.8495 221.815 78.0443 224.611 79.3954C225.141 79.6454 225.701 79.8654 226.231 80.0554C226.478 82.5802 227.369 84.9994 228.819 87.0812C230.268 89.1631 232.228 90.8379 234.511 91.9454Z" fill="#1E546E"/>
<path d="M234.511 89.8754C238.059 91.5811 242.138 91.8094 245.854 90.5101C249.57 89.2108 252.619 86.4902 254.331 82.9454C254.822 81.9186 255.191 80.8379 255.431 79.7254C256.907 81.3334 258.719 82.5958 260.739 83.4225C262.759 84.2492 264.937 84.6199 267.117 84.508C269.297 84.3961 271.425 83.8044 273.349 82.7752C275.274 81.746 276.948 80.3046 278.252 78.5539C279.555 76.8032 280.456 74.7864 280.89 72.6473C281.324 70.5083 281.281 68.2998 280.763 66.1795C280.245 64.0591 279.266 62.0792 277.895 60.381C276.524 58.6828 274.794 57.3083 272.831 56.3554C272.182 56.0543 271.514 55.797 270.831 55.5854C273.913 52.6195 275.775 48.6082 276.051 44.3396C276.327 40.071 274.996 35.8535 272.321 32.5156C269.646 29.1777 265.82 26.9608 261.594 26.3001C257.367 25.6395 253.047 26.5831 249.481 28.9454C248.353 27.8665 247.064 26.9691 245.661 26.2854C242.577 24.8094 239.078 24.4443 235.756 25.2519C232.433 26.0594 229.492 27.99 227.43 30.7169C225.368 33.4438 224.311 36.7995 224.439 40.216C224.567 43.6325 225.871 46.9 228.131 49.4654C225.087 50.0794 222.312 51.6335 220.199 53.9085C218.085 56.1835 216.739 59.0647 216.35 62.1456C215.961 65.2266 216.549 68.3518 218.031 71.0807C219.513 73.8095 221.815 76.0043 224.611 77.3554C225.136 77.6095 225.677 77.8299 226.231 78.0154C226.485 80.5344 227.379 82.9465 228.828 85.0225C230.277 87.0984 232.234 88.769 234.511 89.8754Z" fill="#0A8BC9"/>
<g style="mix-blend-mode:screen" opacity="0.1">
<path d="M248.711 58.0654C258.236 58.0453 267.754 58.5628 277.221 59.6154C275.972 58.2683 274.484 57.1661 272.831 56.3654C272.182 56.0643 271.514 55.807 270.831 55.5954C273.927 52.6327 275.801 48.6178 276.083 44.3421C276.366 40.0663 275.036 35.8398 272.357 32.4956C269.678 29.1513 265.843 26.9319 261.609 26.2748C257.374 25.6176 253.048 26.5704 249.481 28.9454C248.353 27.8665 247.064 26.9691 245.661 26.2854C242.577 24.8094 239.078 24.4443 235.756 25.2519C232.434 26.0594 229.492 27.99 227.43 30.7169C225.368 33.4438 224.311 36.7995 224.439 40.216C224.567 43.6325 225.871 46.9 228.131 49.4654C225.887 49.913 223.777 50.8758 221.969 52.2781C220.161 53.6803 218.703 55.4834 217.711 57.5454C217.324 58.3479 217.012 59.1849 216.781 60.0454C227.37 58.6964 238.036 58.035 248.711 58.0654Z" fill="#9AAAAB"/>
</g>
<path d="M166.571 99.5654C165.331 86.5654 149.571 79.1154 138.641 85.3354C137.799 79.7902 135.049 74.7125 130.865 70.9778C126.68 67.2431 121.324 65.0854 115.719 64.8768C110.115 64.6683 104.613 66.4219 100.162 69.8354C95.712 73.2488 92.5921 78.1081 91.3408 83.5754C89.3526 83.053 87.3064 82.7842 85.2508 82.7754C72.7308 82.7754 62.6508 93.1554 64.7908 105.235C70.5408 137.775 170.131 136.945 166.571 99.5654Z" fill="#205A75"/>
<path d="M166.571 97.2654C165.331 84.2654 149.571 76.8154 138.641 83.0454C137.801 77.4998 135.052 72.4213 130.868 68.6855C126.684 64.9497 121.328 62.7907 115.723 62.581C110.119 62.3713 104.616 64.1239 100.165 67.5366C95.7139 70.9493 92.5931 75.8081 91.3408 81.2754C89.3531 80.7497 87.3068 80.4775 85.2508 80.4654C72.7308 80.4654 62.6508 90.8554 64.7908 102.935C70.5408 135.475 170.131 134.605 166.571 97.2654Z" fill="#1981B3"/>
<g style="mix-blend-mode:screen" opacity="0.1">
<path d="M115.301 96.7654C132.469 96.6901 149.621 97.8565 166.621 100.255C166.669 99.2553 166.652 98.2532 166.571 97.2554C165.331 84.2554 149.571 76.8054 138.641 83.0354C137.801 77.4898 135.052 72.4113 130.868 68.6755C126.684 64.9397 121.328 62.7807 115.723 62.571C110.119 62.3613 104.616 64.1138 100.165 67.5265C95.7139 70.9392 92.5931 75.7981 91.3408 81.2654C89.3531 80.7396 87.3068 80.4675 85.2508 80.4554C73.7008 80.4554 64.2508 89.3054 64.5408 100.165C81.3584 97.826 98.3215 96.6898 115.301 96.7654Z" fill="#8A9899"/>
</g>
<path d="M136.971 165.425C134.671 172.805 127.661 177.205 121.291 175.235C114.921 173.265 111.631 165.665 113.931 158.235C116.231 150.805 132.541 138.945 132.541 138.945C132.541 138.945 139.261 158.035 136.971 165.425Z" fill="#007DC4"/>
<path d="M137.241 164.555C134.951 171.935 127.931 176.335 121.571 174.365C115.211 172.395 111.911 164.795 114.201 157.365C116.491 149.935 132.821 138.045 132.821 138.045C132.821 138.045 139.531 157.155 137.241 164.555Z" fill="#00A2FF"/>
<g style="mix-blend-mode:screen" opacity="0.2">
<path d="M126.651 157.945C130.444 159.116 134.125 160.622 137.651 162.445C138.491 154.095 132.861 138.065 132.861 138.065C132.861 138.065 119.151 148.065 115.101 155.445C119.017 155.935 122.882 156.772 126.651 157.945Z" fill="#7F8C8D"/>
</g>
<path d="M235.271 165.425C232.981 172.805 225.961 177.205 219.601 175.235C213.241 173.265 209.941 165.665 212.231 158.235C214.521 150.805 230.851 138.945 230.851 138.945C230.851 138.945 237.571 158.035 235.271 165.425Z" fill="#007DC4"/>
<path d="M235.551 164.555C233.241 171.935 226.231 176.335 219.871 174.365C213.511 172.395 210.221 164.795 212.501 157.365C214.781 149.935 231.131 138.085 231.131 138.085C231.131 138.085 237.831 157.155 235.551 164.555Z" fill="#00A2FF"/>
<g style="mix-blend-mode:screen" opacity="0.2">
<path d="M224.961 157.945C228.737 159.118 232.401 160.624 235.911 162.445C236.761 154.095 231.121 138.065 231.121 138.065C231.121 138.065 217.411 148.065 213.381 155.445C217.307 155.937 221.182 156.774 224.961 157.945Z" fill="#7F8C8D"/>
</g>
<path d="M188.401 173.825C185.641 182.675 177.241 187.935 169.631 185.575C162.021 183.215 158.051 174.105 160.811 165.265C163.571 156.425 183.131 142.135 183.131 142.135C183.131 142.135 191.131 164.945 188.401 173.825Z" fill="#007DC4"/>
<path d="M188.721 172.775C185.971 181.625 177.571 186.885 169.951 184.535C162.331 182.185 158.381 173.075 161.141 164.215C163.901 155.355 183.431 141.095 183.431 141.095C183.431 141.095 191.461 163.945 188.721 172.775Z" fill="#00A2FF"/>
<g style="mix-blend-mode:screen" opacity="0.2">
<path d="M176.031 164.945C180.548 166.331 184.932 168.118 189.131 170.285C190.131 160.285 183.391 141.095 183.391 141.095C183.391 141.095 167.021 153.095 162.131 161.945C166.846 162.522 171.498 163.526 176.031 164.945Z" fill="#7F8C8D"/>
</g>
<path style="mix-blend-mode:multiply" d="M298.221 70.3154C298.309 66.5403 297.716 62.7801 296.471 59.2153C295.542 56.5618 294.271 54.0406 292.691 51.7153C293.19 49.1671 293.398 46.5705 293.311 43.9753C293.45 38.7021 292.366 33.4682 290.144 28.6839C287.922 23.8995 284.622 19.6946 280.504 16.3984C276.385 13.1023 271.56 10.8044 266.405 9.68485C261.25 8.5653 255.906 8.65446 250.791 9.94535C247.102 8.4986 243.173 7.75906 239.211 7.76535C234.601 7.7765 230.048 8.78092 225.862 10.7102C221.675 12.6395 217.954 15.4483 214.951 18.9453C212.716 18.4525 210.446 18.1414 208.161 18.0153C203.833 12.012 198.023 7.23323 191.297 4.14521C184.571 1.0572 177.16 -0.234536 169.786 0.396062C162.413 1.02666 155.328 3.55805 149.225 7.74322C143.121 11.9284 138.206 17.6244 134.961 24.2754C124.993 26.4583 116.023 31.8676 109.441 39.6653C88.4408 41.2053 71.2408 53.1753 64.6308 69.2953C61.2994 71.3635 58.3159 73.9454 55.7908 76.9454C50.3296 83.4653 47.3944 91.7313 47.5208 100.235C47.3816 102.892 47.5427 105.555 48.0008 108.175C51.5108 127.955 72.0008 141.635 101.571 144.895C101.291 145.305 101.051 145.715 100.801 146.125C100.691 146.295 100.591 146.455 100.491 146.635L100.131 147.235C100.071 147.365 100.021 147.485 99.9608 147.605C99.1382 149.108 98.4682 150.689 97.9608 152.325C97.9103 152.469 97.8702 152.616 97.8408 152.765C97.7908 152.915 97.7308 153.055 97.6808 153.185C95.3608 160.53 95.7475 168.462 98.7708 175.545C100.367 179.306 102.758 182.677 105.778 185.428C108.799 188.18 112.378 190.246 116.271 191.485C118.92 192.303 121.678 192.718 124.451 192.715C128.362 192.664 132.225 191.837 135.814 190.282C139.404 188.727 142.649 186.474 145.361 183.655C145.491 183.975 145.591 184.295 145.731 184.605C147.451 188.665 150.027 192.305 153.284 195.277C156.541 198.249 160.401 200.483 164.601 201.825C167.448 202.707 170.411 203.155 173.391 203.155C185.641 203.155 197.041 195.485 202.671 183.975C205.232 186.741 208.339 188.945 211.795 190.45C215.251 191.954 218.981 192.725 222.751 192.715C235.651 192.715 247.521 183.555 251.581 170.445C251.581 170.305 251.641 170.165 251.681 170.045L251.861 169.565C252.348 167.933 252.682 166.259 252.861 164.565C252.861 164.425 252.861 164.305 252.921 164.175C252.981 164.045 252.921 163.715 252.921 163.475C252.921 163.235 252.921 163.065 252.921 162.845C252.921 162.355 252.921 161.845 252.981 161.335C253.041 160.825 252.981 160.565 252.981 160.185C252.981 159.955 252.981 159.715 252.981 159.485C252.781 150.925 250.221 141.325 247.561 133.585C247.471 133.315 247.391 133.075 247.311 132.855C247.231 132.635 247.221 132.575 247.171 132.445C246.93 131.76 246.642 131.092 246.311 130.445C248.744 128.274 250.922 125.831 252.801 123.165C261.948 121.477 270.289 116.833 276.541 109.945C279.719 106.452 282.301 102.458 284.181 98.1254C288.711 95.082 292.379 90.9219 294.831 86.0468C297.284 81.1717 298.437 75.7465 298.181 70.2953L298.221 70.3154Z" fill="url(#paint1_linear)"/>
<defs>
<linearGradient id="paint0_linear" x1="90.6508" y1="187.695" x2="239.871" y2="38.4753" gradientUnits="userSpaceOnUse">
<stop stop-color="#E6E6E6"/>
<stop offset="1" stop-color="#FAFAFA"/>
</linearGradient>
<linearGradient id="paint1_linear" x1="107.771" y1="170.575" x2="247.861" y2="30.4854" gradientUnits="userSpaceOnUse">
<stop offset="0.39" stop-color="white"/>
<stop offset="0.51" stop-color="#FCFCFC"/>
<stop offset="0.59" stop-color="#F3F3F3"/>
<stop offset="0.66" stop-color="#E4E4E4"/>
<stop offset="0.72" stop-color="#CFCFCF"/>
<stop offset="0.79" stop-color="#D5D5D5"/>
<stop offset="0.99" stop-color="#D7D7D7"/>
</linearGradient>
</defs>
</svg>
