<svg width="255" height="222" viewBox="0 0 255 222" fill="none" xmlns="http://www.w3.org/2000/svg">
<path d="M250.552 62.9601C249.551 60.1156 248.161 57.4233 246.422 54.9601C248.302 47.3019 247.5 39.2305 244.147 32.0928C240.795 24.9551 235.096 19.1831 228.002 15.7401C220.733 12.2366 212.464 11.4012 204.642 13.3801C200.934 11.9235 196.985 11.1804 193.002 11.1901C188.742 11.2058 184.527 12.0658 180.602 13.7205C176.676 15.3751 173.118 17.7916 170.132 20.8301C167.397 20.1065 164.596 19.6642 161.772 19.5101C157.428 13.4581 151.587 8.63831 144.82 5.52299C138.054 2.40768 130.594 1.10372 123.171 1.73887C115.749 2.37403 108.619 4.92651 102.48 9.14622C96.3413 13.3659 91.4038 19.1081 88.1517 25.8101C78.1195 27.9986 69.0915 33.4407 62.4717 41.2901C41.3317 42.8401 24.0017 54.8701 17.3517 71.0801C14.0111 73.1718 11.0154 75.7693 8.47174 78.7801C2.9733 85.3328 0.0196325 93.6471 0.151739 102.2C0.0155284 104.877 0.179887 107.56 0.641737 110.2C3.53174 126.54 18.0017 138.73 39.5717 144.38C39.1373 146.149 38.9521 147.97 39.0217 149.79C39.0217 150.31 39.0817 150.79 39.1417 151.33C39.2017 151.87 39.0317 152.17 38.9817 152.59C38.9317 153.01 38.7517 153.25 38.6417 153.59C38.3617 154.04 38.0817 154.51 37.8317 155C35.3335 159.936 34.7562 165.623 36.2117 170.96C37.0441 173.695 38.4657 176.215 40.3765 178.342C42.2873 180.468 44.6409 182.151 47.2717 183.27C47.6917 183.62 48.1217 183.95 48.5717 184.27C48.9517 184.73 49.3517 185.19 49.7717 185.62C51.0867 188.128 52.9299 190.32 55.1742 192.047C57.4186 193.773 60.0107 194.992 62.7717 195.62C64.1994 195.943 65.6582 196.107 67.1217 196.11C71.4193 196.115 75.5999 194.71 79.0217 192.11C79.4917 191.93 79.9617 191.73 80.4017 191.51C80.8417 191.29 81.5217 191.32 82.0517 191.18C82.3417 191.18 82.6217 191.18 82.9117 191.18C84.2286 191.179 85.5419 191.045 86.8317 190.78C86.8658 190.86 86.8894 190.944 86.9017 191.03C87.8239 194.053 89.4317 196.823 91.5999 199.123C93.7681 201.423 96.438 203.191 99.4017 204.29C100.301 205.099 101.272 205.826 102.302 206.46C103.023 207.479 103.844 208.423 104.752 209.28C106.094 212.135 108.071 214.645 110.532 216.619C112.993 218.592 115.873 219.977 118.951 220.667C122.029 221.357 125.224 221.334 128.292 220.599C131.36 219.865 134.219 218.439 136.652 216.43C137.782 216.06 138.877 215.588 139.922 215.02C141.138 214.896 142.34 214.659 143.512 214.31C146.642 214.577 149.792 214.132 152.726 213.008C155.66 211.884 158.301 210.11 160.452 207.82C163.279 204.82 165.13 201.034 165.762 196.96C166.357 194.361 166.446 191.672 166.022 189.04C166.092 188.76 166.122 188.47 166.172 188.19C168.942 191.676 172.825 194.105 177.172 195.07C178.6 195.389 180.059 195.55 181.522 195.55C185.813 195.553 189.986 194.148 193.402 191.55C193.892 191.37 194.402 191.16 194.822 190.94C195.242 190.72 195.922 190.74 196.452 190.61C196.742 190.61 197.032 190.61 197.322 190.61C201.96 190.603 206.447 188.961 209.993 185.972C213.54 182.983 215.919 178.84 216.712 174.27C217.181 172.113 217.292 169.893 217.042 167.7C217.112 167.31 217.142 166.91 217.192 166.52C217.242 166.13 217.462 165.75 217.582 165.36C218.822 163.378 219.708 161.196 220.202 158.91C221.416 154.342 220.946 149.49 218.879 145.24C216.812 140.99 213.285 137.625 208.942 135.76C208.512 135.41 208.072 135.09 207.622 134.76C207.172 134.43 206.882 133.89 206.482 133.47C206.252 133.03 206.012 132.6 205.752 132.19C205.077 131.117 204.3 130.113 203.432 129.19C204.593 127.922 205.678 126.586 206.682 125.19C215.847 123.49 224.207 118.845 230.492 111.96C233.691 108.442 236.289 104.422 238.182 100.06C244.071 96.1282 248.484 90.3474 250.724 83.6297C252.964 76.9119 252.903 69.6396 250.552 62.9601Z" fill="white"/>
<path d="M252.202 61.3001C251.2 58.4542 249.806 55.7617 248.062 53.3001C249.481 47.5356 249.384 41.5019 247.779 35.7862C246.175 30.0704 243.119 24.8673 238.907 20.6831C234.696 16.4989 229.473 13.4761 223.747 11.909C218.021 10.3418 211.987 10.2836 206.232 11.7401C202.525 10.2793 198.576 9.53287 194.592 9.5401C190.333 9.5573 186.119 10.419 182.195 12.0755C178.271 13.7319 174.715 16.1501 171.732 19.1901C168.996 18.4728 166.195 18.0306 163.372 17.8701C159.017 11.8339 153.172 7.02927 146.407 3.92488C139.642 0.820485 132.188 -0.477738 124.772 0.156811C117.355 0.79136 110.23 3.33702 104.091 7.54554C97.9518 11.7541 93.008 17.4818 89.7418 24.1701C79.7176 26.3648 70.6979 31.8061 64.0817 39.6501C43.0017 41.1901 25.6517 53.2301 19.0017 69.4401C15.6583 71.5279 12.6592 74.1221 10.1117 77.1301C4.62243 83.6874 1.67312 91.9994 1.80175 100.55C1.65525 103.227 1.81969 105.911 2.29175 108.55C5.18175 124.9 19.6517 137.08 41.2117 142.74C40.7817 144.51 40.5967 146.33 40.6618 148.15C40.6618 148.657 40.7017 149.167 40.7817 149.68C40.7217 150.1 40.6717 150.52 40.6317 150.94C40.5217 151.28 40.3917 151.61 40.2917 151.94C40.0017 152.39 39.7317 152.87 39.4717 153.35C38.5217 155.124 37.8473 157.033 37.4717 159.01C36.4125 163.513 36.9761 168.246 39.0633 172.375C41.1504 176.503 44.6273 179.763 48.8817 181.58C49.3017 181.94 49.7417 182.26 50.1817 182.58C50.5517 183.05 50.9618 183.5 51.3717 183.94C52.7098 186.457 54.5779 188.655 56.8474 190.38C59.1168 192.105 61.7336 193.318 64.5171 193.934C67.3006 194.55 70.1846 194.555 72.9701 193.948C75.7557 193.341 78.3765 192.138 80.6517 190.42C81.1217 190.24 81.5717 190.04 82.0317 189.82C82.4917 189.6 83.1417 189.63 83.6917 189.5H84.5417C85.8621 189.494 87.1786 189.357 88.4717 189.09C88.4822 189.179 88.5023 189.266 88.5317 189.35C89.4535 192.371 91.0602 195.138 93.2266 197.436C95.393 199.735 98.0606 201.502 101.022 202.6C101.922 203.411 102.893 204.14 103.922 204.78C104.649 205.797 105.473 206.741 106.382 207.6C106.742 208.376 107.153 209.128 107.612 209.85C109.054 212.149 110.939 214.138 113.157 215.702C115.375 217.266 117.882 218.373 120.532 218.96C123.623 219.657 126.832 219.64 129.915 218.909C132.998 218.177 135.873 216.751 138.322 214.74C139.446 214.361 140.536 213.89 141.582 213.33C142.801 213.202 144.005 212.964 145.182 212.62C148.312 212.884 151.461 212.438 154.395 211.314C157.328 210.19 159.969 208.418 162.122 206.13C164.925 203.132 166.767 199.364 167.412 195.31C168.002 192.711 168.09 190.023 167.672 187.39C167.732 187.1 167.772 186.82 167.812 186.53C170.578 190.02 174.463 192.45 178.812 193.41C180.232 193.739 181.684 193.903 183.142 193.9C187.419 193.914 191.583 192.53 195.002 189.96C195.492 189.77 195.952 189.57 196.422 189.35C196.892 189.13 197.512 189.16 198.062 189.03H198.912C203.551 189.029 208.041 187.389 211.589 184.399C215.137 181.409 217.514 177.262 218.302 172.69C218.776 170.534 218.887 168.313 218.632 166.12C218.702 165.73 218.742 165.33 218.782 164.94C218.822 164.55 219.052 164.18 219.172 163.79C220.801 161.345 221.876 158.573 222.321 155.669C222.765 152.765 222.569 149.798 221.746 146.978C220.923 144.157 219.492 141.551 217.555 139.342C215.618 137.133 213.221 135.375 210.532 134.19C210.113 133.834 209.676 133.5 209.222 133.19C208.862 132.73 208.472 132.3 208.082 131.88C207.852 131.45 207.602 131.01 207.342 130.6C206.671 129.527 205.898 128.523 205.032 127.6C206.187 126.329 207.269 124.994 208.272 123.6C215.187 122.313 221.68 119.345 227.178 114.957C232.677 110.57 237.012 104.897 239.802 98.4401C245.696 94.5021 250.113 88.7159 252.358 81.9922C254.603 75.2685 254.548 67.9892 252.202 61.3001Z" fill="url(#paint0_linear)"/>
<path d="M66.6717 58.6801C68.9165 58.5785 71.1656 58.6387 73.4017 58.8601C77.4017 49.5301 87.1917 42.7001 98.8917 42.1901C100.172 42.1364 101.455 42.1631 102.732 42.2701C103.374 36.2773 106.086 30.6962 110.402 26.489C114.717 22.2817 120.365 19.7119 126.373 19.2225C132.38 18.7332 138.369 20.355 143.309 23.8084C148.248 27.2617 151.828 32.3302 153.432 38.1401C155.533 37.4758 157.711 37.0793 159.912 36.9601C166.341 36.677 172.647 38.796 177.6 42.9049C182.554 47.0139 185.802 52.8188 186.712 59.1901C190.079 57.1044 193.88 55.8182 197.822 55.4303C201.764 55.0424 205.742 55.5631 209.452 56.9525C213.161 58.3418 216.503 60.5628 219.22 63.445C221.937 66.3271 223.958 69.7936 225.126 73.5783C226.295 77.363 226.581 81.3653 225.961 85.2776C225.342 89.1899 223.835 92.9083 221.554 96.1472C219.274 99.3861 216.282 102.059 212.807 103.961C209.333 105.864 205.469 106.944 201.512 107.12C200.23 107.161 198.947 107.111 197.672 106.97C196.579 110.296 194.822 113.365 192.509 115.993C190.196 118.621 187.373 120.752 184.213 122.258C181.053 123.764 177.62 124.613 174.122 124.754C170.624 124.896 167.133 124.326 163.862 123.08C157.362 130.08 146.312 134.89 133.592 135.45C116.592 136.2 101.872 129.05 96.7817 118.57C93.7198 121.078 90.1239 122.851 86.2701 123.752C82.4163 124.654 78.4072 124.66 74.5505 123.771C70.6939 122.882 67.0924 121.12 64.0225 118.622C60.9527 116.124 58.4962 112.956 56.8417 109.36C43.4917 106.27 33.1817 101.64 33.1817 86.0701C33.1817 71.7801 47.5517 59.5201 66.6717 58.6801Z" fill="#1A485E"/>
<path d="M66.6717 56.6601C68.9167 56.5618 71.1659 56.6253 73.4017 56.8501C77.4017 47.5201 87.1917 40.6901 98.8917 40.1701C100.172 40.1297 101.454 40.1597 102.732 40.2601C103.374 34.2673 106.086 28.6862 110.402 24.479C114.717 20.2717 120.365 17.7019 126.373 17.2125C132.38 16.7232 138.369 18.345 143.309 21.7983C148.248 25.2517 151.828 30.3202 153.432 36.1301C157.009 35.0039 160.789 34.6718 164.508 35.1569C168.227 35.642 171.795 36.9326 174.963 38.9387C178.132 40.9448 180.825 43.6182 182.854 46.7722C184.883 49.9262 186.2 53.4849 186.712 57.2001C190.222 54.9702 194.217 53.6149 198.36 53.2482C202.502 52.8815 206.673 53.5139 210.521 55.0925C214.368 56.671 217.781 59.1496 220.473 62.3202C223.165 65.4907 225.056 69.2608 225.989 73.3137C226.923 77.3667 226.87 81.5844 225.835 85.6128C224.801 89.6411 222.816 93.3626 220.045 96.4648C217.275 99.5669 213.801 101.959 209.915 103.441C206.029 104.923 201.844 105.45 197.712 104.98C196.615 108.303 194.856 111.37 192.542 113.995C190.228 116.621 187.407 118.75 184.247 120.256C181.088 121.761 177.657 122.611 174.16 122.754C170.663 122.898 167.174 122.332 163.902 121.09C157.402 128.09 146.352 132.89 133.632 133.45C116.632 134.2 101.912 127.05 96.8217 116.57C93.7614 119.082 90.1655 120.858 86.3108 121.762C82.4562 122.666 78.4456 122.673 74.5877 121.783C70.7297 120.894 67.1274 119.131 64.0577 116.63C60.9881 114.13 58.5332 110.958 56.8817 107.36C43.5317 104.29 33.2217 99.6401 33.2217 84.0801C33.1817 69.7701 47.5517 57.5001 66.6717 56.6601Z" fill="#276C8D"/>
<g style="mix-blend-mode:screen" opacity="0.15">
<path d="M129.742 77.3301C165.632 77.3301 198.742 80.6301 225.332 86.1801C226.74 81.153 226.597 75.8176 224.921 70.8732C223.246 65.9288 220.115 61.6059 215.94 58.4711C211.766 55.3363 206.741 53.5357 201.526 53.3053C196.31 53.075 191.147 54.4255 186.712 57.1801C186.2 53.4649 184.883 49.9061 182.854 46.7521C180.825 43.5981 178.132 40.9248 174.963 38.9187C171.795 36.9126 168.227 35.6219 164.508 35.1369C160.789 34.6518 157.009 34.9839 153.432 36.1101C151.828 30.3002 148.248 25.2317 143.309 21.7783C138.369 18.325 132.38 16.7032 126.373 17.1925C120.365 17.6818 114.717 20.2517 110.402 24.4589C106.086 28.6662 103.374 34.2473 102.732 40.2401C101.454 40.1397 100.172 40.1096 98.8917 40.1501C87.1917 40.6701 77.4117 47.5001 73.4017 56.8301C71.1659 56.6053 68.9167 56.5418 66.6717 56.6401C47.5517 57.4801 33.1817 69.7501 33.1817 84.0601C33.1817 84.8601 33.2417 85.6101 33.2817 86.3501C60.0017 80.7001 93.4617 77.3301 129.742 77.3301Z" fill="#7F8C8D"/>
</g>
<path d="M189.872 92.1401C191.893 93.1205 194.111 93.6297 196.358 93.6295C198.604 93.6292 200.822 93.1195 202.843 92.1387C204.865 91.1578 206.637 89.7314 208.028 87.9666C209.419 86.2019 210.391 84.1448 210.872 81.9501C212.356 83.5697 214.18 84.8416 216.213 85.6748C218.246 86.5081 220.437 86.8821 222.631 86.7701C224.826 86.6582 226.968 86.063 228.905 85.0273C230.843 83.9915 232.528 82.5406 233.839 80.7783C235.151 79.0159 236.058 76.9856 236.494 74.8324C236.93 72.6792 236.886 70.4562 236.363 68.3222C235.841 66.1882 234.854 64.1959 233.472 62.4877C232.091 60.7794 230.349 59.3973 228.372 58.4401C227.722 58.1404 227.054 57.8832 226.372 57.6701C227.938 56.2244 229.214 54.4935 230.132 52.5701C231.789 49.1475 232.269 45.273 231.495 41.5497C230.722 37.8264 228.739 34.4632 225.856 31.9838C222.973 29.5044 219.351 28.0479 215.553 27.841C211.756 27.6342 207.997 28.6886 204.862 30.8401C203.729 29.75 202.43 28.8485 201.012 28.1701C197.906 26.6684 194.375 26.2894 191.022 27.0976C187.668 27.9059 184.698 29.8515 182.617 32.6031C180.536 35.3548 179.473 38.7426 179.609 42.1898C179.745 45.637 181.071 48.9306 183.362 51.5101C180.303 52.1361 177.518 53.7064 175.4 55.9997C173.281 58.2929 171.936 61.1933 171.554 64.2919C171.171 67.3905 171.771 70.5308 173.269 73.2702C174.767 76.0095 177.087 78.2095 179.902 79.5601C180.431 79.8134 180.975 80.0338 181.532 80.2201C181.786 82.7544 182.687 85.181 184.147 87.2679C185.607 89.3549 187.578 91.0324 189.872 92.1401Z" fill="#1E546E"/>
<path d="M189.872 90.0901C191.637 90.943 193.552 91.4399 195.509 91.5522C197.466 91.6645 199.426 91.3901 201.277 90.7447C203.128 90.0993 204.833 89.0954 206.296 87.7906C207.759 86.4858 208.95 84.9055 209.802 83.1401C210.297 82.1073 210.67 81.0199 210.912 79.9001C212.395 81.5235 214.218 82.7991 216.252 83.6356C218.285 84.4721 220.478 84.8488 222.674 84.7388C224.87 84.6287 227.015 84.0347 228.954 82.9992C230.894 81.9636 232.581 80.5122 233.894 78.7487C235.207 76.9852 236.115 74.9532 236.551 72.7981C236.987 70.6431 236.942 68.4183 236.418 66.2828C235.894 64.1473 234.905 62.1541 233.521 60.4456C232.137 58.7371 230.392 57.3557 228.412 56.4001C227.766 56.0885 227.098 55.8277 226.412 55.6201C227.978 54.1745 229.254 52.4436 230.172 50.5201C231.825 47.098 232.301 43.2254 231.526 39.5047C230.751 35.7839 228.768 32.4236 225.886 29.9463C223.004 27.4689 219.384 26.0135 215.589 25.8062C211.794 25.5989 208.037 26.6514 204.902 28.8001C203.77 27.7037 202.47 26.7955 201.052 26.1101C197.946 24.6266 194.423 24.2619 191.079 25.0775C187.735 25.8931 184.776 27.839 182.702 30.5859C180.628 33.3328 179.567 36.7119 179.698 40.1513C179.829 43.5907 181.145 46.8792 183.422 49.4601C180.359 50.0777 177.568 51.6416 175.443 53.931C173.317 56.2204 171.964 59.1196 171.575 62.2194C171.186 65.3191 171.781 68.4627 173.275 71.2063C174.769 73.9499 177.087 76.155 179.902 77.5101C180.431 77.7667 180.975 77.9904 181.532 78.1801C181.789 80.7124 182.69 83.1365 184.15 85.2214C185.61 87.3064 187.58 88.9825 189.872 90.0901Z" fill="#0A8BC9"/>
<g style="mix-blend-mode:screen" opacity="0.1">
<path d="M204.152 58.1001C213.734 58.0809 223.309 58.6051 232.832 59.6701C231.578 58.3111 230.078 57.2016 228.412 56.4001C227.766 56.0885 227.098 55.8277 226.412 55.6201C227.978 54.1745 229.254 52.4436 230.172 50.5201C231.825 47.098 232.301 43.2254 231.526 39.5047C230.751 35.7839 228.768 32.4236 225.886 29.9463C223.004 27.4689 219.384 26.0135 215.589 25.8062C211.794 25.5989 208.037 26.6514 204.902 28.8001C203.77 27.7037 202.47 26.7955 201.052 26.1101C197.946 24.6266 194.423 24.2619 191.079 25.0775C187.735 25.8931 184.776 27.839 182.702 30.5859C180.628 33.3328 179.567 36.7119 179.698 40.1513C179.829 43.5907 181.145 46.8792 183.422 49.4601C180.719 50.001 178.22 51.2824 176.203 53.1613C174.187 55.0401 172.732 57.4425 172.002 60.1001C182.664 58.7376 193.403 58.0696 204.152 58.1001Z" fill="#9AAAAB"/>
</g>
<path d="M121.532 99.8501C120.292 86.7501 104.482 79.2701 93.4417 85.5401C92.5939 79.965 89.8281 74.8602 85.6208 71.1053C81.4136 67.3505 76.0284 65.1806 70.3931 64.9698C64.7579 64.7589 59.2256 66.5202 54.7495 69.9502C50.2734 73.3801 47.1338 78.264 45.8717 83.7601C43.8779 83.2308 41.8246 82.9586 39.7617 82.9501C27.1617 82.9501 17.0117 93.4001 19.1717 105.55C25.0017 138.27 125.092 137.4 121.532 99.8501Z" fill="#205A75"/>
<path d="M121.532 97.5401C120.292 84.4401 104.482 76.9601 93.4417 83.2301C92.5939 77.655 89.8281 72.5502 85.6208 68.7953C81.4136 65.0405 76.0284 62.8706 70.3931 62.6598C64.7579 62.4489 59.2256 64.2102 54.7495 67.6402C50.2734 71.0701 47.1338 75.954 45.8717 81.4501C43.877 80.9256 41.8243 80.6535 39.7617 80.6401C27.1617 80.6401 17.0117 91.0901 19.1717 103.24C25.0017 135.96 125.092 135.08 121.532 97.5401Z" fill="#1981B3"/>
<g style="mix-blend-mode:screen" opacity="0.1">
<path d="M70.0017 97.0301C87.2671 96.9555 104.515 98.1286 121.612 100.54C121.675 99.5403 121.658 98.5372 121.562 97.5401C120.322 84.4401 104.512 76.9601 93.4717 83.2301C92.6239 77.655 89.8581 72.5502 85.6508 68.7953C81.4436 65.0405 76.0584 62.8706 70.4231 62.6598C64.7879 62.4489 59.2556 64.2102 54.7795 67.6402C50.3034 71.0701 47.1638 75.954 45.9017 81.4501C43.9069 80.9256 41.8542 80.6535 39.7917 80.6401C28.1617 80.6401 18.6517 89.5401 18.9317 100.45C35.8528 98.1045 52.9189 96.9616 70.0017 97.0301Z" fill="#8A9899"/>
</g>
<path d="M86.2917 167.96L85.1017 166.84L85.4317 166.73C86.0441 166.51 86.5479 166.062 86.8386 165.48C87.1293 164.897 87.1845 164.226 86.9927 163.604C86.8008 162.982 86.3768 162.458 85.8086 162.141C85.2404 161.823 84.5718 161.737 83.9417 161.9L82.1617 162.45L80.8117 162.87L77.3817 159.69L81.8417 158.3L82.8417 159.3L84.4517 160.8C84.9506 161.161 85.5641 161.326 86.1766 161.265C86.7891 161.205 87.3581 160.922 87.7764 160.47C88.1947 160.019 88.4333 159.43 88.4472 158.814C88.461 158.199 88.2493 157.6 87.8517 157.13L87.3417 156.66L88.9117 156.17C89.5241 155.95 90.0279 155.502 90.3186 154.92C90.6093 154.337 90.6645 153.666 90.4727 153.044C90.2808 152.422 89.8568 151.898 89.2886 151.581C88.7204 151.263 88.0518 151.177 87.4217 151.34L85.8517 151.83L85.9317 151.47C86.0053 151.147 86.0145 150.813 85.9588 150.486C85.9031 150.159 85.7836 149.847 85.6072 149.567C85.4308 149.286 85.2008 149.043 84.9305 148.852C84.6602 148.66 84.3548 148.524 84.0317 148.45C83.7087 148.377 83.3743 148.367 83.0477 148.423C82.7211 148.479 82.4087 148.598 82.1282 148.775C81.8478 148.951 81.6049 149.181 81.4133 149.451C81.2217 149.722 81.0853 150.027 81.0117 150.35L80.5917 152.16L80.2817 153.56L75.8017 154.94L76.8017 150.36L78.1517 149.95L80.2617 149.29C80.8192 149.037 81.2657 148.59 81.5177 148.033C81.7698 147.475 81.8101 146.844 81.6313 146.259C81.4525 145.673 81.0667 145.173 80.546 144.851C80.0253 144.529 79.4053 144.408 78.8017 144.51L78.1417 144.71L78.5017 143.11C78.5911 142.781 78.6129 142.437 78.566 142.099C78.519 141.761 78.4042 141.436 78.2285 141.144C78.0528 140.852 77.8197 140.598 77.5434 140.398C77.2671 140.198 76.9532 140.056 76.6205 139.98C76.2879 139.905 75.9434 139.897 75.6078 139.958C75.2722 140.019 74.9524 140.147 74.6676 140.335C74.3828 140.523 74.1389 140.766 73.9506 141.051C73.7623 141.335 73.6334 141.655 73.5717 141.99L73.2017 143.59L72.9417 143.34C72.4478 142.896 71.7989 142.664 71.1352 142.694C70.4716 142.724 69.8464 143.014 69.3947 143.501C68.943 143.988 68.701 144.633 68.721 145.297C68.7411 145.962 69.0215 146.591 69.5017 147.05L70.8717 148.31L71.8717 149.31L70.8717 153.88L67.4517 150.69L67.7617 149.32L68.2417 147.16C68.3065 146.547 68.144 145.931 67.7852 145.429C67.4263 144.928 66.896 144.575 66.2946 144.438C65.6932 144.302 65.0625 144.39 64.522 144.687C63.9815 144.984 63.5687 145.469 63.3617 146.05L63.2017 146.73L62.0117 145.6C61.5123 145.182 60.8713 144.971 60.221 145.012C59.5708 145.053 58.9612 145.342 58.5182 145.82C58.0752 146.298 57.8326 146.927 57.8408 147.579C57.8489 148.23 58.107 148.854 58.5617 149.32L59.7617 150.44L59.4217 150.55C59.0592 150.607 58.7134 150.741 58.4084 150.945C58.1035 151.149 57.8467 151.417 57.6561 151.731C57.4655 152.044 57.3456 152.395 57.3048 152.76C57.264 153.125 57.3034 153.494 57.42 153.842C57.5367 154.189 57.7279 154.508 57.9803 154.774C58.2327 155.04 58.5402 155.248 58.8813 155.383C59.2224 155.518 59.5888 155.577 59.9551 155.556C60.3213 155.535 60.6785 155.434 61.0017 155.26L62.7817 154.72L64.1417 154.3L67.5817 157.48L63.0017 158.87L62.0017 157.87L60.3917 156.37C59.8929 156.01 59.2793 155.844 58.6669 155.905C58.0544 155.966 57.4853 156.248 57.067 156.7C56.6488 157.151 56.4102 157.74 56.3963 158.356C56.3824 158.971 56.5942 159.57 56.9917 160.04L57.5017 160.52L55.9317 161.02C55.6152 161.118 55.3211 161.277 55.0662 161.489C54.8112 161.7 54.6004 161.96 54.4458 162.253C54.1336 162.844 54.0691 163.536 54.2667 164.175C54.4643 164.814 54.9077 165.349 55.4994 165.661C56.0911 165.973 56.7826 166.038 57.4217 165.84L58.9917 165.36L58.9017 165.71C58.7837 166.352 58.9184 167.015 59.2777 167.56C59.637 168.105 60.193 168.49 60.8296 168.635C61.4661 168.779 62.1339 168.672 62.6934 168.336C63.2529 168 63.6608 167.46 63.8317 166.83L64.2417 165.01L64.5617 163.64L69.0417 162.24L68.0417 166.82L66.6917 167.23L64.5917 167.88C64.0317 168.132 63.5831 168.58 63.33 169.14C63.0769 169.699 63.0369 170.332 63.2174 170.919C63.3979 171.506 63.7866 172.007 64.3103 172.327C64.8341 172.648 65.4569 172.766 66.0617 172.66L66.7317 172.45L66.3717 174.05C66.2975 174.373 66.2877 174.708 66.3428 175.035C66.3979 175.361 66.5168 175.674 66.6927 175.955C66.8687 176.236 67.0983 176.479 67.3683 176.672C67.6384 176.864 67.9437 177.001 68.2667 177.075C68.5898 177.149 68.9243 177.159 69.2511 177.104C69.578 177.049 69.8908 176.93 70.1717 176.754C70.4526 176.578 70.6961 176.349 70.8883 176.078C71.0804 175.808 71.2175 175.503 71.2917 175.18L71.6617 173.57L71.9317 173.82C72.4301 174.233 73.0679 174.44 73.7138 174.397C74.3598 174.354 74.9647 174.065 75.4042 173.59C75.8436 173.115 76.0842 172.489 76.0763 171.842C76.0684 171.194 75.8127 170.575 75.3617 170.11L74.0017 168.96L73.0017 167.96L74.0017 163.39L77.4517 166.57L77.1317 167.95L76.6417 170.1C76.577 170.713 76.7395 171.329 77.0983 171.831C77.4572 172.332 77.9875 172.685 78.5889 172.822C79.1903 172.959 79.821 172.87 80.3615 172.573C80.902 172.276 81.3148 171.791 81.5217 171.21L81.6717 170.53L82.8817 171.65C83.1212 171.897 83.4084 172.092 83.7258 172.224C84.0432 172.356 84.3841 172.422 84.7279 172.418C85.0716 172.413 85.4108 172.339 85.7249 172.2C86.039 172.06 86.3214 171.858 86.5547 171.605C86.7881 171.353 86.9675 171.056 87.0822 170.732C87.1968 170.407 87.2442 170.063 87.2215 169.72C87.1987 169.377 87.1063 169.043 86.9499 168.737C86.7935 168.431 86.5764 168.159 86.3117 167.94L86.2917 167.96Z" fill="#007DC4"/>
<path d="M86.5017 167.03L85.3117 165.96L85.6517 165.85C85.9829 165.764 86.2933 165.613 86.5641 165.404C86.8349 165.195 87.0605 164.933 87.2273 164.634C87.3941 164.335 87.4986 164.006 87.5344 163.666C87.5703 163.326 87.5368 162.982 87.4359 162.655C87.3351 162.328 87.169 162.025 86.9477 161.764C86.7265 161.503 86.4546 161.29 86.1485 161.137C85.8425 160.984 85.5086 160.895 85.1671 160.875C84.8256 160.855 84.4836 160.904 84.1617 161.02L82.3917 161.58L81.0017 161.96L77.5817 158.78L82.0517 157.4L83.0517 158.4L84.6617 159.9C85.1606 160.261 85.7741 160.426 86.3866 160.365C86.9991 160.305 87.5681 160.022 87.9864 159.57C88.4047 159.119 88.6433 158.53 88.6572 157.914C88.671 157.299 88.4592 156.7 88.0617 156.23L87.5517 155.76L89.1217 155.27C89.7341 155.05 90.2379 154.602 90.5286 154.02C90.8193 153.437 90.8745 152.766 90.6827 152.144C90.4908 151.522 90.0668 150.998 89.4986 150.681C88.9304 150.363 88.2618 150.277 87.6317 150.44L86.0517 150.93L86.1317 150.58C86.2816 149.928 86.1661 149.242 85.8107 148.675C85.4553 148.108 84.8892 147.705 84.2367 147.555C83.5843 147.405 82.8991 147.521 82.3318 147.876C81.7645 148.231 81.3616 148.798 81.2117 149.45L80.8017 151.26L80.4817 152.65L76.1017 153.96L77.1017 149.39L78.4617 148.97L80.5617 148.32C81.1145 148.063 81.5553 147.614 81.8023 147.056C82.0494 146.499 82.0859 145.871 81.9053 145.289C81.7246 144.706 81.3389 144.209 80.8197 143.89C80.3005 143.57 79.683 143.449 79.0817 143.55L78.4217 143.76L78.7917 142.14C78.9017 141.501 78.762 140.844 78.4014 140.305C78.0408 139.765 77.4869 139.385 76.8541 139.243C76.2213 139.1 75.5579 139.206 75.001 139.539C74.4441 139.872 74.0363 140.405 73.8617 141.03L73.4917 142.63L73.2317 142.38C72.7378 141.936 72.0889 141.704 71.4252 141.734C70.7616 141.764 70.1364 142.054 69.6847 142.541C69.233 143.028 68.991 143.673 69.011 144.337C69.0311 145.002 69.3115 145.631 69.7917 146.09L71.1617 147.35L72.1617 148.35L71.1617 152.92L67.7217 149.73L68.0417 148.35L68.5217 146.2C68.5801 145.591 68.415 144.982 68.0574 144.486C67.6998 143.99 67.174 143.641 66.578 143.504C65.982 143.367 65.3566 143.451 64.8182 143.741C64.2798 144.031 63.8652 144.507 63.6517 145.08L63.5217 145.77L62.3017 144.65C61.8111 144.195 61.1598 143.954 60.4913 143.979C59.8227 144.005 59.1916 144.294 58.7367 144.785C58.2819 145.276 58.0406 145.927 58.0659 146.596C58.0912 147.264 58.3811 147.895 58.8717 148.35L60.0817 149.48L59.7317 149.58C59.4152 149.678 59.1211 149.837 58.8662 150.049C58.6112 150.26 58.4004 150.52 58.2458 150.813C57.9336 151.404 57.8691 152.096 58.0667 152.735C58.2643 153.374 58.7077 153.909 59.2994 154.221C59.8911 154.533 60.5826 154.598 61.2217 154.4L63.0017 153.86L64.3517 153.44L67.7817 156.61L63.2617 157.96L62.2617 156.96L60.6517 155.46C60.1539 155.099 59.5411 154.932 58.9289 154.991C58.3166 155.051 57.7472 155.332 57.3278 155.782C56.9085 156.232 56.6683 156.82 56.6525 157.435C56.6366 158.05 56.8462 158.649 57.2417 159.12L57.7617 159.6L56.1817 160.08C55.8652 160.178 55.5711 160.337 55.3162 160.549C55.0612 160.76 54.8504 161.02 54.6958 161.313C54.5412 161.606 54.4458 161.926 54.4151 162.256C54.3844 162.586 54.4189 162.919 54.5167 163.235C54.6146 163.552 54.7738 163.846 54.9853 164.101C55.1968 164.356 55.4564 164.566 55.7494 164.721C56.0424 164.876 56.3629 164.971 56.6928 165.002C57.0226 165.032 57.3552 164.998 57.6717 164.9L59.2417 164.42L59.1617 164.78C59.1243 165.373 59.2967 165.96 59.6488 166.439C60.0009 166.917 60.5102 167.257 61.0874 167.398C61.6647 167.538 62.273 167.471 62.8059 167.209C63.3387 166.946 63.7621 166.504 64.0017 165.96L64.4117 164.14L64.7217 162.76L69.2017 161.38L68.2017 165.95L66.8417 166.37L64.7517 167.02C64.1989 167.277 63.7582 167.726 63.5111 168.284C63.2641 168.841 63.2275 169.469 63.4082 170.052C63.5889 170.634 63.9746 171.131 64.4937 171.451C65.0129 171.77 65.6304 171.891 66.2317 171.79L66.8917 171.58L66.5317 173.18C66.4424 173.509 66.4205 173.853 66.4675 174.191C66.5145 174.529 66.6293 174.854 66.805 175.146C66.9807 175.438 67.2137 175.692 67.4901 175.892C67.7664 176.092 68.0803 176.234 68.4129 176.31C68.7456 176.385 69.09 176.393 69.4256 176.332C69.7612 176.271 70.0811 176.143 70.3659 175.955C70.6507 175.767 70.8946 175.524 71.0829 175.24C71.2712 174.955 71.4001 174.636 71.4617 174.3L71.8217 172.7L72.1017 172.95C72.3453 173.175 72.6308 173.349 72.9418 173.463C73.2528 173.578 73.5832 173.629 73.9143 173.616C74.2453 173.602 74.5704 173.524 74.8711 173.385C75.1718 173.246 75.4422 173.049 75.6667 172.805C75.8913 172.561 76.0657 172.276 76.1799 171.965C76.2942 171.654 76.346 171.324 76.3326 170.993C76.3191 170.662 76.2406 170.336 76.1014 170.036C75.9623 169.735 75.7653 169.465 75.5217 169.24L74.1617 167.99L73.1617 166.99L74.1617 162.42L77.6117 165.6L77.2917 166.98L76.8017 169.13C76.75 169.737 76.9196 170.341 77.2791 170.832C77.6386 171.324 78.1637 171.668 78.7574 171.802C79.3511 171.936 79.9733 171.851 80.509 171.562C81.0447 171.273 81.4577 170.8 81.6717 170.23L81.8217 169.54L83.0317 170.67C83.2721 170.915 83.5598 171.109 83.8773 171.239C84.1949 171.37 84.5357 171.434 84.8789 171.429C85.2222 171.423 85.5607 171.348 85.8739 171.207C86.1871 171.067 86.4684 170.864 86.7008 170.611C86.9331 170.358 87.1116 170.061 87.2253 169.737C87.3391 169.413 87.3857 169.07 87.3624 168.727C87.3391 168.385 87.2464 168.05 87.0898 167.745C86.9333 167.439 86.7161 167.169 86.4517 166.95L86.5017 167.03Z" fill="#00A2FF"/>
<g style="mix-blend-mode:screen" opacity="0.2">
<path d="M58.8217 148.26L60.0317 149.39L59.6817 149.49C59.3652 149.588 59.0711 149.747 58.8162 149.959C58.5612 150.17 58.3504 150.43 58.1958 150.723C57.8836 151.314 57.8191 152.006 58.0167 152.645C58.2143 153.284 58.6577 153.819 59.2494 154.131C59.8411 154.443 60.5326 154.508 61.1717 154.31L62.9517 153.77L64.3017 153.35L66.6417 155.51C68.6417 155.8 70.7817 156.19 72.8917 156.67C75.0017 157.15 77.0417 157.67 79.0217 158.33L82.0217 157.39L83.0217 158.39L84.6317 159.89C85.1306 160.251 85.7441 160.416 86.3566 160.355C86.9691 160.295 87.5381 160.012 87.9564 159.56C88.3747 159.109 88.6133 158.52 88.6272 157.904C88.6411 157.289 88.4292 156.69 88.0317 156.22L87.5217 155.75L89.0917 155.26C89.7041 155.04 90.2079 154.592 90.4986 154.01C90.7893 153.427 90.8445 152.756 90.6527 152.134C90.4608 151.512 90.0368 150.988 89.4686 150.671C88.9004 150.353 88.2318 150.267 87.6017 150.43L86.0217 150.92L86.1017 150.57C86.2516 149.918 86.1361 149.232 85.7807 148.665C85.4253 148.098 84.8592 147.695 84.2067 147.545C83.5543 147.395 82.8691 147.511 82.3018 147.866C81.7345 148.221 81.3316 148.788 81.1817 149.44L80.7717 151.25L80.4517 152.64L76.1017 153.96L77.1017 149.39L78.4617 148.97L80.5617 148.32C81.1145 148.063 81.5553 147.614 81.8023 147.056C82.0494 146.499 82.0859 145.871 81.9053 145.289C81.7246 144.706 81.3389 144.209 80.8197 143.89C80.3005 143.57 79.6831 143.449 79.0817 143.55L78.4217 143.76L78.7917 142.14C78.9018 141.501 78.762 140.844 78.4014 140.305C78.0409 139.765 77.4869 139.385 76.8541 139.243C76.2213 139.1 75.5579 139.206 75.001 139.539C74.4442 139.872 74.0363 140.405 73.8617 141.03L73.4917 142.63L73.2317 142.38C72.7378 141.936 72.0889 141.704 71.4252 141.734C70.7616 141.764 70.1364 142.054 69.6847 142.541C69.233 143.028 68.991 143.673 69.011 144.337C69.0311 145.002 69.3115 145.631 69.7917 146.09L71.1617 147.35L72.1617 148.35L71.1617 152.92L67.7217 149.73L68.0417 148.35L68.5217 146.2C68.5801 145.591 68.415 144.982 68.0574 144.486C67.6998 143.99 67.174 143.641 66.578 143.504C65.982 143.367 65.3566 143.451 64.8182 143.741C64.2798 144.031 63.8652 144.507 63.6517 145.08L63.5217 145.77L62.3017 144.65C61.8111 144.195 61.1598 143.954 60.4913 143.979C59.8227 144.005 59.1916 144.294 58.7367 144.785C58.2819 145.276 58.0406 145.927 58.0659 146.596C58.0912 147.264 58.3811 147.895 58.8717 148.35L58.8217 148.26Z" fill="#B8D9FF"/>
</g>
<path d="M200.662 167.51L199.462 166.4L199.802 166.29C200.133 166.204 200.443 166.053 200.714 165.844C200.985 165.635 201.211 165.373 201.377 165.074C201.544 164.775 201.649 164.446 201.684 164.106C201.72 163.766 201.687 163.422 201.586 163.095C201.485 162.768 201.319 162.465 201.098 162.204C200.876 161.943 200.605 161.73 200.299 161.577C199.992 161.424 199.659 161.335 199.317 161.315C198.976 161.295 198.634 161.344 198.312 161.46L196.542 162.01L195.182 162.43L191.752 159.25L196.212 157.86L197.212 158.86L198.822 160.36C199.323 160.707 199.933 160.861 200.539 160.795C201.145 160.728 201.706 160.445 202.12 159.997C202.534 159.549 202.772 158.967 202.791 158.357C202.809 157.748 202.607 157.152 202.222 156.68L201.712 156.2L203.292 155.72C203.904 155.5 204.408 155.052 204.699 154.47C204.989 153.887 205.044 153.216 204.853 152.594C204.661 151.972 204.237 151.448 203.669 151.131C203.1 150.813 202.432 150.727 201.802 150.89L200.222 151.38L200.302 151.02C200.45 150.368 200.334 149.683 199.977 149.117C199.621 148.55 199.054 148.149 198.402 148C197.749 147.852 197.065 147.968 196.498 148.325C195.932 148.681 195.53 149.248 195.382 149.9L194.962 151.71L194.642 153.1L190.172 154.48L191.172 149.92L192.522 149.5L194.622 148.85C195.183 148.6 195.632 148.152 195.885 147.592C196.138 147.033 196.177 146.4 195.995 145.813C195.813 145.226 195.422 144.727 194.896 144.41C194.37 144.092 193.746 143.978 193.142 144.09L192.482 144.3L192.842 142.7C192.931 142.371 192.953 142.027 192.906 141.689C192.859 141.351 192.744 141.026 192.568 140.734C192.393 140.442 192.16 140.188 191.883 139.988C191.607 139.788 191.293 139.646 190.961 139.57C190.628 139.495 190.283 139.487 189.948 139.548C189.612 139.609 189.292 139.737 189.008 139.925C188.723 140.113 188.479 140.356 188.291 140.641C188.102 140.925 187.973 141.245 187.912 141.58L187.542 143.18L187.282 142.93C186.788 142.486 186.139 142.254 185.475 142.284C184.812 142.314 184.186 142.604 183.735 143.091C183.283 143.578 183.041 144.223 183.061 144.887C183.081 145.551 183.361 146.181 183.842 146.64L185.212 147.9L186.212 148.9L185.212 153.47L181.772 150.29L182.082 148.91L182.582 146.77C182.646 146.157 182.484 145.541 182.125 145.039C181.766 144.538 181.236 144.185 180.635 144.048C180.033 143.912 179.402 144 178.862 144.297C178.321 144.594 177.909 145.079 177.702 145.66L177.552 146.33L176.342 145.21C175.843 144.797 175.206 144.59 174.56 144.633C173.914 144.676 173.309 144.965 172.869 145.44C172.43 145.916 172.189 146.541 172.197 147.189C172.205 147.836 172.461 148.456 172.912 148.92L174.112 150.04L173.762 150.15C173.445 150.249 173.151 150.408 172.897 150.621C172.642 150.833 172.431 151.093 172.277 151.386C172.123 151.68 172.028 152.001 171.998 152.331C171.968 152.661 172.003 152.994 172.102 153.31C172.2 153.627 172.36 153.921 172.572 154.175C172.784 154.43 173.044 154.64 173.338 154.795C173.631 154.949 173.952 155.044 174.282 155.074C174.612 155.104 174.945 155.069 175.262 154.97L177.042 154.42L178.392 154.01L181.832 157.19L177.352 158.56L176.352 157.56L174.762 155.96C174.263 155.6 173.649 155.434 173.037 155.495C172.424 155.556 171.855 155.838 171.437 156.29C171.019 156.741 170.78 157.33 170.766 157.946C170.752 158.561 170.964 159.16 171.362 159.63L171.872 160.11L170.312 160.59C169.981 160.676 169.67 160.828 169.399 161.037C169.129 161.246 168.903 161.507 168.736 161.806C168.569 162.105 168.465 162.434 168.429 162.774C168.393 163.114 168.427 163.458 168.527 163.785C168.628 164.112 168.794 164.415 169.016 164.676C169.237 164.937 169.509 165.15 169.815 165.303C170.121 165.456 170.455 165.545 170.796 165.565C171.138 165.585 171.48 165.536 171.802 165.42L173.362 164.92L173.282 165.29C173.164 165.932 173.298 166.595 173.658 167.14C174.017 167.685 174.573 168.07 175.21 168.215C175.846 168.359 176.514 168.252 177.073 167.916C177.633 167.58 178.041 167.04 178.212 166.41L178.622 164.59L178.942 163.21L183.412 161.83L182.412 166.39L181.062 166.81L178.952 167.46C178.399 167.719 177.959 168.168 177.712 168.725C177.464 169.283 177.427 169.911 177.606 170.494C177.784 171.077 178.168 171.575 178.685 171.898C179.203 172.221 179.819 172.346 180.422 172.25L181.102 172.03L180.732 173.63C180.582 174.285 180.698 174.973 181.056 175.542C181.413 176.111 181.982 176.515 182.637 176.665C183.292 176.815 183.98 176.698 184.549 176.341C185.118 175.984 185.522 175.415 185.672 174.76L186.032 173.16L186.292 173.41C186.789 173.823 187.426 174.03 188.071 173.989C188.716 173.947 189.321 173.66 189.761 173.186C190.201 172.713 190.444 172.089 190.438 171.442C190.433 170.796 190.18 170.176 189.732 169.71L188.362 168.44L187.362 167.44L188.362 162.87L191.802 166.05L191.472 167.43L190.982 169.57C190.927 170.178 191.094 170.785 191.453 171.278C191.811 171.772 192.337 172.119 192.931 172.254C193.526 172.39 194.15 172.305 194.687 172.015C195.224 171.726 195.638 171.251 195.852 170.68L196.002 170.01L197.222 171.12C197.72 171.533 198.358 171.74 199.004 171.697C199.65 171.654 200.255 171.365 200.694 170.89C201.134 170.415 201.374 169.789 201.366 169.142C201.358 168.494 201.103 167.875 200.652 167.41L200.662 167.51Z" fill="#007DC4"/>
<path d="M200.882 166.56L199.682 165.45L200.022 165.33C200.661 165.133 201.195 164.689 201.508 164.097C201.82 163.506 201.884 162.814 201.687 162.175C201.489 161.536 201.046 161.001 200.454 160.689C199.862 160.377 199.171 160.313 198.532 160.51L196.762 161.06L195.392 161.48L192.002 158.3L196.472 156.92L197.472 157.92L199.092 159.42C199.591 159.781 200.204 159.946 200.817 159.885C201.429 159.825 201.998 159.542 202.416 159.09C202.835 158.639 203.073 158.05 203.087 157.434C203.101 156.819 202.889 156.22 202.492 155.75L201.992 155.27L203.562 154.79C204.183 154.576 204.697 154.128 204.994 153.541C205.291 152.955 205.348 152.276 205.153 151.648C204.958 151.02 204.526 150.493 203.949 150.178C203.372 149.863 202.695 149.785 202.062 149.96L200.492 150.44L200.572 150.09C200.661 149.761 200.683 149.417 200.636 149.079C200.589 148.741 200.474 148.416 200.298 148.124C200.123 147.832 199.89 147.578 199.613 147.378C199.337 147.178 199.023 147.036 198.691 146.96C198.358 146.885 198.013 146.877 197.678 146.938C197.342 146.999 197.022 147.127 196.738 147.315C196.453 147.503 196.209 147.746 196.021 148.031C195.832 148.315 195.703 148.635 195.642 148.97L195.242 150.78L194.922 152.17L190.442 153.55L191.442 148.98L192.782 148.57L194.892 147.92C195.437 147.657 195.871 147.207 196.112 146.651C196.354 146.096 196.389 145.472 196.21 144.893C196.03 144.314 195.649 143.819 195.136 143.497C194.623 143.176 194.011 143.049 193.412 143.14L192.732 143.35L193.102 141.74C193.175 141.417 193.183 141.083 193.127 140.756C193.071 140.43 192.951 140.118 192.774 139.838C192.597 139.558 192.366 139.316 192.096 139.125C191.825 138.934 191.52 138.798 191.197 138.725C190.874 138.652 190.539 138.644 190.213 138.7C189.887 138.756 189.575 138.876 189.295 139.053C189.015 139.23 188.772 139.46 188.581 139.731C188.39 140.002 188.255 140.307 188.182 140.63L187.822 142.23L187.542 141.98C187.302 141.733 187.015 141.538 186.698 141.406C186.38 141.274 186.039 141.208 185.696 141.213C185.352 141.217 185.013 141.291 184.699 141.431C184.384 141.57 184.102 141.772 183.869 142.025C183.635 142.277 183.456 142.575 183.341 142.899C183.227 143.223 183.179 143.567 183.202 143.91C183.225 144.253 183.317 144.588 183.474 144.894C183.63 145.2 183.847 145.471 184.112 145.69L185.482 146.95L186.482 147.95L185.482 152.53L182.042 149.34L182.342 147.96L182.842 145.81C182.891 145.204 182.72 144.601 182.361 144.111C182.002 143.621 181.478 143.277 180.886 143.141C180.294 143.005 179.672 143.086 179.135 143.371C178.598 143.655 178.182 144.124 177.962 144.69L177.802 145.37L176.602 144.26C176.359 144.035 176.074 143.86 175.763 143.745C175.453 143.63 175.122 143.577 174.791 143.589C174.46 143.602 174.135 143.679 173.834 143.818C173.533 143.956 173.262 144.152 173.037 144.395C172.812 144.638 172.636 144.923 172.521 145.234C172.406 145.544 172.353 145.875 172.366 146.206C172.378 146.537 172.456 146.862 172.594 147.163C172.733 147.464 172.929 147.735 173.172 147.96L174.372 149.08L174.022 149.19C173.383 149.388 172.848 149.831 172.536 150.423C172.224 151.014 172.159 151.706 172.357 152.345C172.554 152.984 172.998 153.519 173.589 153.831C174.181 154.143 174.873 154.208 175.512 154.01L177.282 153.47L178.652 153.05L182.092 156.22L177.612 157.62L176.612 156.62L175.002 154.96C174.501 154.612 173.892 154.457 173.287 154.522C172.681 154.587 172.119 154.869 171.704 155.315C171.289 155.762 171.05 156.343 171.029 156.952C171.008 157.561 171.208 158.157 171.592 158.63L172.102 159.1L170.532 159.59C169.91 159.804 169.397 160.252 169.1 160.839C168.803 161.425 168.746 162.104 168.941 162.732C169.136 163.36 169.567 163.887 170.144 164.202C170.721 164.517 171.398 164.595 172.032 164.42L173.602 163.94L173.522 164.28C173.448 164.603 173.438 164.938 173.493 165.265C173.548 165.591 173.667 165.904 173.843 166.185C174.019 166.466 174.248 166.709 174.518 166.902C174.788 167.094 175.094 167.231 175.417 167.305C175.74 167.379 176.074 167.389 176.401 167.334C176.728 167.279 177.041 167.16 177.322 166.984C177.603 166.808 177.846 166.579 178.038 166.308C178.23 166.038 178.368 165.733 178.442 165.41L178.862 163.59L179.172 162.2L183.652 160.82L182.652 165.39L181.302 165.8L179.192 166.45C178.629 166.701 178.178 167.15 177.924 167.711C177.67 168.273 177.63 168.908 177.812 169.496C177.994 170.085 178.386 170.586 178.913 170.906C179.44 171.225 180.066 171.341 180.672 171.23L181.352 171.02L180.982 172.63C180.892 172.959 180.871 173.303 180.918 173.641C180.964 173.979 181.079 174.304 181.255 174.596C181.431 174.888 181.664 175.142 181.94 175.342C182.216 175.542 182.53 175.684 182.863 175.76C183.196 175.835 183.54 175.843 183.876 175.782C184.211 175.721 184.531 175.593 184.816 175.405C185.101 175.217 185.345 174.974 185.533 174.69C185.721 174.405 185.85 174.086 185.912 173.75L186.282 172.14L186.532 172.39C186.773 172.625 187.059 172.809 187.372 172.932C187.686 173.055 188.021 173.114 188.357 173.105C188.694 173.097 189.025 173.022 189.333 172.884C189.64 172.746 189.916 172.548 190.146 172.301C190.375 172.055 190.553 171.766 190.67 171.45C190.786 171.134 190.838 170.798 190.823 170.461C190.807 170.125 190.725 169.795 190.581 169.491C190.436 169.187 190.233 168.915 189.982 168.69L188.612 167.43L187.562 166.43L188.612 161.87L192.032 165.05L191.722 166.43L191.242 168.57C191.177 169.183 191.339 169.799 191.698 170.301C192.057 170.802 192.588 171.155 193.189 171.292C193.79 171.429 194.421 171.34 194.961 171.043C195.502 170.746 195.915 170.261 196.122 169.68L196.272 168.99L197.482 170.11C197.976 170.554 198.625 170.787 199.288 170.756C199.952 170.726 200.577 170.436 201.029 169.949C201.48 169.462 201.722 168.817 201.702 168.153C201.682 167.489 201.402 166.859 200.922 166.4L200.882 166.56Z" fill="#00A2FF"/>
<g style="mix-blend-mode:screen" opacity="0.2">
<path d="M173.192 147.79L174.392 148.91L174.042 149.02C173.725 149.118 173.431 149.277 173.176 149.489C172.921 149.7 172.71 149.96 172.556 150.253C172.401 150.546 172.306 150.866 172.275 151.196C172.244 151.526 172.279 151.859 172.377 152.175C172.475 152.492 172.634 152.786 172.845 153.041C173.057 153.296 173.316 153.506 173.609 153.661C173.902 153.816 174.223 153.911 174.553 153.942C174.883 153.972 175.215 153.938 175.532 153.84L177.302 153.3L178.672 152.88L181.012 155.04C183.012 155.33 185.152 155.72 187.262 156.2C189.372 156.68 191.422 157.2 193.382 157.86L196.432 156.92L197.432 157.92L199.052 159.42C199.551 159.781 200.164 159.946 200.777 159.885C201.389 159.825 201.958 159.542 202.376 159.09C202.795 158.639 203.033 158.05 203.047 157.434C203.061 156.819 202.849 156.22 202.452 155.75L201.952 155.27L203.522 154.79C204.143 154.576 204.657 154.128 204.954 153.541C205.251 152.955 205.308 152.276 205.113 151.648C204.918 151.02 204.486 150.493 203.909 150.178C203.332 149.863 202.655 149.785 202.022 149.96L200.452 150.44L200.532 150.09C200.621 149.761 200.643 149.417 200.596 149.079C200.549 148.741 200.434 148.416 200.258 148.124C200.083 147.832 199.85 147.578 199.573 147.378C199.297 147.178 198.983 147.036 198.651 146.96C198.318 146.885 197.973 146.877 197.638 146.938C197.302 146.999 196.982 147.127 196.698 147.315C196.413 147.503 196.169 147.746 195.981 148.031C195.792 148.315 195.663 148.635 195.602 148.97L195.202 150.78L194.882 152.17L190.402 153.55L191.402 148.98L192.742 148.57L194.852 147.92C195.397 147.657 195.831 147.207 196.072 146.651C196.314 146.096 196.349 145.472 196.17 144.893C195.99 144.314 195.609 143.819 195.096 143.497C194.583 143.176 193.971 143.049 193.372 143.14L192.692 143.35L193.062 141.74C193.135 141.417 193.143 141.083 193.087 140.756C193.031 140.43 192.911 140.118 192.734 139.838C192.557 139.558 192.326 139.316 192.056 139.125C191.785 138.934 191.48 138.798 191.157 138.725C190.834 138.652 190.499 138.644 190.173 138.7C189.847 138.756 189.535 138.876 189.255 139.053C188.975 139.23 188.732 139.46 188.541 139.731C188.35 140.002 188.215 140.307 188.142 140.63L187.782 142.23L187.502 141.98C187.262 141.733 186.975 141.538 186.658 141.406C186.34 141.274 185.999 141.208 185.656 141.213C185.312 141.217 184.973 141.291 184.659 141.431C184.344 141.57 184.062 141.772 183.829 142.025C183.595 142.277 183.416 142.575 183.301 142.899C183.187 143.223 183.139 143.567 183.162 143.91C183.185 144.253 183.277 144.588 183.434 144.894C183.59 145.2 183.807 145.471 184.072 145.69L185.442 146.95L186.442 147.95L185.442 152.53L182.002 149.34L182.302 147.96L182.802 145.81C182.851 145.204 182.68 144.601 182.321 144.111C181.962 143.621 181.438 143.277 180.846 143.141C180.254 143.005 179.632 143.086 179.095 143.371C178.558 143.655 178.142 144.124 177.922 144.69L177.762 145.37L176.562 144.26C176.071 143.805 175.42 143.564 174.751 143.589C174.083 143.615 173.452 143.904 172.997 144.395C172.542 144.886 172.301 145.537 172.326 146.206C172.351 146.874 172.641 147.505 173.132 147.96L173.192 147.79Z" fill="#B8D9FF"/>
</g>
<path d="M149.392 189.5L147.732 187.96L148.212 187.82C149.099 187.546 149.841 186.93 150.274 186.108C150.707 185.287 150.796 184.327 150.522 183.44C150.247 182.553 149.632 181.811 148.81 181.378C147.989 180.945 147.029 180.856 146.142 181.13L143.682 181.89L141.792 182.47L137.002 178.04L143.212 176.13L144.642 177.46L146.882 179.55C147.572 180.046 148.42 180.272 149.266 180.185C150.111 180.099 150.896 179.705 151.472 179.08C152.043 178.455 152.37 177.645 152.394 176.799C152.417 175.953 152.136 175.126 151.602 174.47L150.892 173.8L153.082 173.13C153.94 172.829 154.647 172.208 155.056 171.396C155.465 170.584 155.543 169.645 155.273 168.777C155.004 167.909 154.408 167.179 153.611 166.741C152.814 166.304 151.879 166.192 151.002 166.43L148.822 167.11L148.932 166.61C149.139 165.704 148.977 164.754 148.483 163.967C147.989 163.18 147.202 162.622 146.297 162.415C145.391 162.208 144.44 162.37 143.653 162.864C142.867 163.358 142.309 164.144 142.102 165.05L141.532 167.57L141.102 169.49L135.002 171.36L136.442 165.02L138.322 164.44L141.232 163.54C142.004 163.187 142.62 162.564 142.966 161.789C143.312 161.014 143.363 160.139 143.111 159.328C142.858 158.518 142.319 157.827 141.594 157.386C140.869 156.944 140.008 156.782 139.172 156.93V156.88L138.242 157.18L138.752 154.95C138.854 154.502 138.867 154.037 138.79 153.584C138.713 153.13 138.548 152.696 138.303 152.307C138.058 151.917 137.739 151.58 137.364 151.314C136.989 151.047 136.565 150.857 136.117 150.755C135.668 150.653 135.204 150.64 134.75 150.717C134.297 150.794 133.863 150.959 133.473 151.204C133.084 151.448 132.746 151.767 132.48 152.143C132.214 152.518 132.024 152.942 131.922 153.39L131.422 155.63L131.042 155.28C130.357 154.671 129.46 154.355 128.545 154.4C127.629 154.445 126.768 154.847 126.145 155.52C125.523 156.193 125.19 157.084 125.217 158C125.245 158.916 125.631 159.785 126.292 160.42L128.182 162.16L129.622 163.51L128.182 169.84L123.422 165.42L123.862 163.51L124.532 160.51C124.613 159.663 124.383 158.815 123.885 158.125C123.387 157.435 122.654 156.951 121.824 156.762C120.994 156.573 120.124 156.693 119.376 157.1C118.629 157.506 118.055 158.171 117.762 158.97L117.542 159.97L115.882 158.42C115.545 158.107 115.15 157.863 114.719 157.703C114.288 157.542 113.829 157.468 113.369 157.485C112.91 157.502 112.458 157.609 112.04 157.8C111.621 157.991 111.245 158.263 110.932 158.6C110.619 158.937 110.375 159.332 110.214 159.763C110.054 160.194 109.98 160.653 109.997 161.112C110.013 161.572 110.12 162.024 110.312 162.442C110.503 162.86 110.775 163.237 111.112 163.55L112.782 165.11L112.292 165.26C111.405 165.535 110.663 166.15 110.23 166.972C109.796 167.793 109.707 168.753 109.982 169.64C110.256 170.527 110.872 171.269 111.693 171.702C112.515 172.135 113.475 172.225 114.362 171.95L116.832 171.18L118.722 170.6L123.482 175.01L117.282 176.93L115.832 175.59L113.602 173.52C112.909 173.035 112.063 172.818 111.223 172.909C110.382 172.999 109.602 173.391 109.027 174.011C108.453 174.632 108.123 175.44 108.098 176.285C108.073 177.131 108.355 177.957 108.892 178.61L109.602 179.27L107.432 179.95C106.963 180.055 106.521 180.255 106.132 180.538C105.744 180.821 105.419 181.181 105.176 181.596C104.933 182.01 104.778 182.47 104.72 182.947C104.663 183.424 104.704 183.908 104.842 184.368C104.979 184.829 105.21 185.256 105.52 185.623C105.83 185.99 106.212 186.289 106.643 186.503C107.073 186.716 107.543 186.838 108.023 186.862C108.503 186.885 108.982 186.81 109.432 186.64L111.622 185.97L111.512 186.45C111.397 186.902 111.375 187.372 111.444 187.833C111.514 188.293 111.675 188.735 111.918 189.133C112.161 189.531 112.481 189.876 112.859 190.148C113.237 190.421 113.666 190.615 114.12 190.719C114.574 190.824 115.044 190.837 115.503 190.757C115.962 190.677 116.401 190.507 116.793 190.255C117.186 190.004 117.524 189.677 117.788 189.293C118.052 188.909 118.237 188.476 118.332 188.02L118.912 185.51L119.342 183.58L125.542 181.66L124.002 187.96L122.122 188.53L119.202 189.44C118.431 189.795 117.815 190.418 117.469 191.193C117.123 191.968 117.07 192.843 117.321 193.654C117.572 194.465 118.109 195.157 118.832 195.601C119.555 196.046 120.415 196.212 121.252 196.07L122.182 195.78L121.682 198C121.476 198.906 121.639 199.856 122.134 200.642C122.629 201.428 123.416 201.985 124.322 202.19C125.227 202.396 126.178 202.233 126.963 201.738C127.749 201.243 128.306 200.456 128.512 199.55L129.012 197.33L129.382 197.68C129.714 198.019 130.112 198.287 130.551 198.468C130.99 198.648 131.461 198.738 131.936 198.731C132.411 198.725 132.879 198.622 133.313 198.429C133.747 198.236 134.137 197.957 134.46 197.609C134.783 197.261 135.032 196.851 135.192 196.404C135.352 195.957 135.419 195.483 135.391 195.009C135.362 194.535 135.237 194.072 135.024 193.647C134.811 193.223 134.514 192.846 134.152 192.54L132.262 190.79L130.812 189.45L132.252 183.12L137.012 187.53L136.582 189.44L135.892 192.44C135.814 193.286 136.046 194.131 136.545 194.819C137.044 195.506 137.777 195.988 138.605 196.176C139.434 196.363 140.302 196.242 141.049 195.837C141.795 195.431 142.368 194.767 142.662 193.97L142.872 193.03L144.552 194.57C144.887 194.892 145.284 195.144 145.718 195.312C146.152 195.479 146.615 195.558 147.08 195.544C147.545 195.53 148.003 195.424 148.426 195.231C148.85 195.038 149.231 194.763 149.546 194.421C149.862 194.079 150.107 193.678 150.265 193.241C150.424 192.803 150.494 192.339 150.472 191.874C150.449 191.409 150.334 190.954 150.133 190.534C149.932 190.115 149.649 189.739 149.302 189.43L149.392 189.5Z" fill="#007DC4"/>
<path d="M149.702 188.19L148.002 186.64L148.482 186.49C149.331 186.184 150.03 185.562 150.433 184.754C150.836 183.947 150.912 183.015 150.645 182.152C150.379 181.289 149.79 180.563 149.002 180.123C148.213 179.683 147.286 179.564 146.412 179.79L143.952 180.56L142.072 181.13L137.302 176.72L143.502 174.81L144.952 176.15L147.192 178.22C147.884 178.713 148.733 178.937 149.578 178.85C150.424 178.763 151.209 178.372 151.787 177.748C152.366 177.125 152.697 176.312 152.72 175.463C152.743 174.613 152.455 173.784 151.912 173.13L151.212 172.46L153.382 171.79C154.231 171.484 154.93 170.862 155.333 170.054C155.736 169.247 155.812 168.315 155.545 167.452C155.279 166.589 154.69 165.863 153.902 165.423C153.113 164.983 152.186 164.864 151.312 165.09L149.132 165.77L149.252 165.28C149.373 164.825 149.401 164.349 149.334 163.883C149.267 163.416 149.107 162.968 148.863 162.564C148.62 162.161 148.297 161.811 147.915 161.535C147.533 161.258 147.099 161.062 146.64 160.957C146.18 160.853 145.704 160.841 145.24 160.925C144.776 161.008 144.334 161.183 143.939 161.441C143.545 161.699 143.206 162.034 142.944 162.425C142.681 162.817 142.5 163.257 142.412 163.72L141.842 166.23L141.412 168.15L135.202 170.08L136.642 163.74L138.522 163.17L141.432 162.26C142.196 161.9 142.804 161.276 143.144 160.503C143.485 159.73 143.534 158.86 143.283 158.054C143.032 157.247 142.498 156.559 141.779 156.115C141.06 155.671 140.205 155.503 139.372 155.64L138.452 155.93L138.952 153.7C139.156 152.794 138.992 151.845 138.496 151.06C138 150.275 137.212 149.719 136.307 149.515C135.858 149.414 135.394 149.402 134.941 149.48C134.488 149.559 134.055 149.725 133.666 149.971C132.882 150.467 132.326 151.254 132.122 152.16L131.622 154.38L131.252 154.03C130.919 153.691 130.521 153.423 130.082 153.243C129.643 153.062 129.172 152.972 128.698 152.979C128.223 152.985 127.754 153.088 127.321 153.281C126.887 153.474 126.496 153.753 126.174 154.101C125.851 154.449 125.602 154.859 125.442 155.306C125.282 155.753 125.214 156.228 125.243 156.701C125.272 157.175 125.396 157.638 125.609 158.063C125.822 158.487 126.119 158.864 126.482 159.17L128.372 160.92L129.832 162.26L128.392 168.6L123.622 164.18L124.052 162.26L124.732 159.26C124.82 158.411 124.595 157.558 124.099 156.863C123.602 156.168 122.869 155.679 122.036 155.487C121.204 155.295 120.331 155.414 119.58 155.822C118.829 156.23 118.254 156.898 117.962 157.7L117.742 158.64L116.072 157.1C115.74 156.761 115.343 156.493 114.905 156.312C114.466 156.131 113.996 156.041 113.522 156.047C113.047 156.054 112.579 156.157 112.146 156.35C111.713 156.542 111.323 156.821 111.001 157.169C110.679 157.517 110.431 157.927 110.272 158.374C110.113 158.821 110.046 159.295 110.076 159.768C110.106 160.242 110.232 160.704 110.446 161.127C110.66 161.55 110.958 161.926 111.322 162.23L112.982 163.79L112.502 163.94C111.615 164.215 110.873 164.83 110.44 165.652C110.006 166.473 109.917 167.433 110.192 168.32C110.466 169.207 111.082 169.949 111.903 170.382C112.725 170.815 113.685 170.905 114.572 170.63L117.032 169.87L118.922 169.29L123.682 173.69L117.482 175.62L116.002 174.2L113.772 172.13C113.079 171.64 112.231 171.418 111.386 171.506C110.542 171.595 109.758 171.987 109.182 172.61C108.61 173.237 108.283 174.048 108.259 174.896C108.235 175.744 108.516 176.572 109.052 177.23L109.762 177.89L107.572 178.56C106.685 178.836 105.943 179.453 105.511 180.275C105.079 181.098 104.991 182.058 105.267 182.945C105.543 183.832 106.16 184.574 106.982 185.006C107.804 185.438 108.765 185.526 109.652 185.25L111.832 184.58L111.712 185.07C111.505 185.976 111.666 186.927 112.16 187.713C112.655 188.5 113.441 189.058 114.347 189.265C115.252 189.472 116.203 189.311 116.99 188.816C117.777 188.322 118.335 187.536 118.542 186.63L119.122 184.11L119.552 182.19L125.762 180.27L124.322 186.61L122.442 187.19L119.532 188.09C118.77 188.45 118.163 189.074 117.824 189.845C117.485 190.616 117.435 191.484 117.685 192.29C117.934 193.095 118.465 193.783 119.181 194.227C119.897 194.672 120.75 194.843 121.582 194.71L122.502 194.42L122.002 196.64C121.9 197.089 121.888 197.553 121.965 198.006C122.043 198.459 122.209 198.893 122.454 199.282C122.699 199.671 123.018 200.008 123.394 200.274C123.769 200.539 124.193 200.728 124.642 200.83C125.09 200.932 125.554 200.944 126.008 200.867C126.461 200.789 126.894 200.623 127.283 200.378C127.673 200.133 128.01 199.813 128.275 199.438C128.541 199.063 128.73 198.639 128.832 198.19L129.332 195.97L129.712 196.32C130.047 196.642 130.444 196.894 130.878 197.062C131.312 197.229 131.775 197.308 132.24 197.294C132.705 197.28 133.163 197.174 133.586 196.981C134.01 196.788 134.391 196.513 134.706 196.171C135.022 195.829 135.267 195.428 135.425 194.991C135.584 194.553 135.654 194.089 135.632 193.624C135.609 193.16 135.494 192.704 135.293 192.284C135.092 191.865 134.809 191.489 134.462 191.18L132.572 189.43L131.132 188.09L132.572 181.76L137.332 186.18L136.902 188.09L136.222 191.09C136.14 191.935 136.368 192.781 136.865 193.469C137.361 194.158 138.092 194.642 138.919 194.83C139.747 195.019 140.615 194.9 141.361 194.495C142.107 194.09 142.679 193.427 142.972 192.63L143.182 191.69L144.852 193.24C145.184 193.579 145.582 193.847 146.021 194.028C146.46 194.208 146.931 194.298 147.406 194.291C147.881 194.285 148.349 194.182 148.783 193.989C149.217 193.796 149.607 193.517 149.93 193.169C150.253 192.821 150.502 192.412 150.662 191.965C150.822 191.518 150.889 191.043 150.861 190.569C150.832 190.095 150.707 189.632 150.494 189.207C150.281 188.783 149.984 188.406 149.622 188.1L149.702 188.19Z" fill="#00A2FF"/>
<g style="mix-blend-mode:screen" opacity="0.2">
<path d="M111.312 162.15L112.972 163.71L112.492 163.86C112.052 163.996 111.644 164.217 111.29 164.511C110.937 164.804 110.644 165.165 110.43 165.572C110.215 165.978 110.083 166.423 110.04 166.881C109.998 167.339 110.046 167.801 110.182 168.24C110.318 168.679 110.539 169.088 110.832 169.441C111.126 169.795 111.487 170.088 111.893 170.302C112.3 170.517 112.745 170.649 113.203 170.692C113.661 170.734 114.122 170.686 114.562 170.55L117.022 169.79L118.912 169.21L122.142 172.21C124.995 172.61 127.888 173.147 130.822 173.82C133.742 174.48 136.572 175.25 139.312 176.11L143.532 174.81L144.982 176.15L147.222 178.22C147.914 178.713 148.763 178.937 149.608 178.85C150.454 178.763 151.239 178.372 151.817 177.748C152.396 177.125 152.727 176.312 152.75 175.463C152.773 174.613 152.485 173.784 151.942 173.13L151.242 172.46L153.412 171.79C154.261 171.484 154.96 170.862 155.363 170.054C155.766 169.247 155.842 168.315 155.575 167.452C155.309 166.589 154.72 165.863 153.932 165.423C153.143 164.983 152.216 164.864 151.342 165.09L149.162 165.77L149.282 165.28C149.403 164.825 149.431 164.349 149.364 163.883C149.297 163.416 149.137 162.968 148.893 162.564C148.65 162.161 148.327 161.811 147.945 161.535C147.563 161.258 147.129 161.062 146.67 160.957C146.21 160.853 145.734 160.841 145.27 160.925C144.806 161.008 144.364 161.183 143.969 161.441C143.575 161.699 143.236 162.034 142.974 162.425C142.711 162.817 142.53 163.257 142.442 163.72L141.872 166.23L141.442 168.15L135.232 170.08L136.672 163.74L138.552 163.17L141.462 162.26C142.226 161.9 142.834 161.276 143.174 160.503C143.515 159.73 143.564 158.86 143.313 158.054C143.062 157.247 142.528 156.559 141.809 156.115C141.09 155.671 140.235 155.503 139.402 155.64L138.482 155.93L138.982 153.7C139.186 152.794 139.022 151.845 138.526 151.06C138.03 150.275 137.242 149.719 136.337 149.515C135.888 149.414 135.424 149.402 134.971 149.48C134.518 149.559 134.085 149.725 133.696 149.971C132.912 150.467 132.356 151.254 132.152 152.16L131.652 154.38L131.282 154.03C130.949 153.691 130.551 153.423 130.112 153.243C129.673 153.062 129.202 152.972 128.727 152.979C128.253 152.985 127.784 153.088 127.35 153.281C126.917 153.474 126.526 153.753 126.204 154.101C125.881 154.449 125.632 154.859 125.472 155.306C125.312 155.753 125.244 156.228 125.273 156.701C125.302 157.175 125.426 157.638 125.639 158.063C125.852 158.487 126.149 158.864 126.512 159.17L128.402 160.92L129.862 162.26L128.422 168.6L123.652 164.18L124.082 162.26L124.762 159.26C124.85 158.411 124.625 157.558 124.129 156.863C123.632 156.168 122.899 155.679 122.066 155.487C121.234 155.295 120.36 155.414 119.61 155.822C118.859 156.23 118.284 156.898 117.992 157.7L117.772 158.64L116.102 157.1C115.77 156.761 115.373 156.493 114.935 156.312C114.496 156.131 114.026 156.041 113.552 156.047C113.077 156.054 112.609 156.157 112.176 156.35C111.743 156.542 111.353 156.821 111.031 157.169C110.709 157.517 110.461 157.927 110.302 158.374C110.143 158.821 110.076 159.295 110.106 159.768C110.136 160.242 110.262 160.704 110.476 161.127C110.69 161.55 110.988 161.926 111.352 162.23L111.312 162.15Z" fill="#B8D9FF"/>
</g>
<path style="mix-blend-mode:multiply" d="M252.202 61.3001C251.2 58.4542 249.806 55.7617 248.062 53.3001C249.481 47.5356 249.384 41.5019 247.779 35.7862C246.175 30.0704 243.119 24.8673 238.907 20.6831C234.696 16.4989 229.473 13.4761 223.747 11.909C218.021 10.3418 211.987 10.2836 206.232 11.7401C202.525 10.2793 198.576 9.53287 194.592 9.5401C190.333 9.5573 186.119 10.419 182.195 12.0755C178.271 13.7319 174.715 16.1501 171.732 19.1901C168.996 18.4728 166.195 18.0306 163.372 17.8701C159.017 11.8339 153.172 7.02927 146.407 3.92488C139.642 0.820485 132.188 -0.477738 124.772 0.156811C117.355 0.79136 110.23 3.33702 104.091 7.54554C97.9518 11.7541 93.008 17.4818 89.7418 24.1701C79.7176 26.3648 70.6979 31.8061 64.0817 39.6501C43.0017 41.1901 25.6517 53.2301 19.0017 69.4401C15.6583 71.5279 12.6592 74.1221 10.1117 77.1301C4.62243 83.6874 1.67312 91.9994 1.80175 100.55C1.65525 103.227 1.81969 105.911 2.29175 108.55C5.18175 124.9 19.6517 137.08 41.2117 142.74C40.7817 144.51 40.5967 146.33 40.6618 148.15C40.6618 148.657 40.7017 149.167 40.7817 149.68C40.7217 150.1 40.6717 150.52 40.6317 150.94C40.5217 151.28 40.3917 151.61 40.2917 151.94C40.0017 152.39 39.7317 152.87 39.4717 153.35C38.5217 155.124 37.8473 157.033 37.4717 159.01C36.4125 163.513 36.9761 168.246 39.0633 172.375C41.1504 176.503 44.6273 179.763 48.8817 181.58C49.3017 181.94 49.7417 182.26 50.1817 182.58C50.5517 183.05 50.9618 183.5 51.3717 183.94C52.7098 186.457 54.5779 188.655 56.8474 190.38C59.1168 192.105 61.7336 193.318 64.5171 193.934C67.3006 194.55 70.1846 194.555 72.9701 193.948C75.7557 193.341 78.3765 192.138 80.6517 190.42C81.1217 190.24 81.5717 190.04 82.0317 189.82C82.4917 189.6 83.1417 189.63 83.6917 189.5H84.5417C85.8621 189.494 87.1786 189.357 88.4717 189.09C88.4822 189.179 88.5023 189.266 88.5317 189.35C89.4535 192.371 91.0602 195.138 93.2266 197.436C95.393 199.735 98.0606 201.502 101.022 202.6C101.922 203.411 102.893 204.14 103.922 204.78C104.649 205.797 105.473 206.741 106.382 207.6C106.742 208.376 107.153 209.128 107.612 209.85C109.054 212.149 110.939 214.138 113.157 215.702C115.375 217.266 117.882 218.373 120.532 218.96C123.623 219.657 126.832 219.64 129.915 218.909C132.998 218.177 135.873 216.751 138.322 214.74C139.446 214.361 140.536 213.89 141.582 213.33C142.801 213.202 144.005 212.964 145.182 212.62C148.312 212.884 151.461 212.438 154.395 211.314C157.328 210.19 159.969 208.418 162.122 206.13C164.925 203.132 166.767 199.364 167.412 195.31C168.002 192.711 168.09 190.023 167.672 187.39C167.732 187.1 167.772 186.82 167.812 186.53C170.578 190.02 174.463 192.45 178.812 193.41C180.232 193.739 181.684 193.903 183.142 193.9C187.419 193.914 191.583 192.53 195.002 189.96C195.492 189.77 195.952 189.57 196.422 189.35C196.892 189.13 197.512 189.16 198.062 189.03H198.912C203.551 189.029 208.041 187.389 211.589 184.399C215.137 181.409 217.514 177.262 218.302 172.69C218.776 170.534 218.887 168.313 218.632 166.12C218.702 165.73 218.742 165.33 218.782 164.94C218.822 164.55 219.052 164.18 219.172 163.79C220.801 161.345 221.876 158.573 222.321 155.669C222.765 152.765 222.569 149.798 221.746 146.978C220.923 144.157 219.492 141.551 217.555 139.342C215.618 137.133 213.221 135.375 210.532 134.19C210.113 133.834 209.676 133.5 209.222 133.19C208.862 132.73 208.472 132.3 208.082 131.88C207.852 131.45 207.602 131.01 207.342 130.6C206.671 129.527 205.898 128.523 205.032 127.6C206.187 126.329 207.269 124.994 208.272 123.6C215.187 122.313 221.68 119.345 227.178 114.957C232.677 110.57 237.012 104.897 239.802 98.4401C245.696 94.5021 250.113 88.7159 252.358 81.9922C254.603 75.2685 254.548 67.9892 252.202 61.3001Z" fill="url(#paint1_linear)"/>
<defs>
<linearGradient id="paint0_linear" x1="14.8117" y1="225.15" x2="202.802" y2="37.1601" gradientUnits="userSpaceOnUse">
<stop stop-color="#E6E6E6"/>
<stop offset="1" stop-color="#FAFAFA"/>
</linearGradient>
<linearGradient id="paint1_linear" x1="63.2017" y1="176.76" x2="214.212" y2="25.7501" gradientUnits="userSpaceOnUse">
<stop offset="0.39" stop-color="white"/>
<stop offset="0.51" stop-color="#FCFCFC"/>
<stop offset="0.59" stop-color="#F3F3F3"/>
<stop offset="0.66" stop-color="#E4E4E4"/>
<stop offset="0.72" stop-color="#CFCFCF"/>
<stop offset="0.79" stop-color="#D5D5D5"/>
<stop offset="0.99" stop-color="#D7D7D7"/>
</linearGradient>
</defs>
</svg>
