<svg width="241" height="204" viewBox="0 0 241 204" fill="none" xmlns="http://www.w3.org/2000/svg">
<path d="M236.907 60.1C235.967 57.3994 234.658 54.8418 233.017 52.5C234.196 47.7216 234.272 42.7376 233.24 37.9254C232.208 33.1132 230.094 28.599 227.059 24.7246C224.023 20.8503 220.147 17.7173 215.721 15.5629C211.296 13.4086 206.439 12.2894 201.517 12.29C198.82 12.2923 196.133 12.6282 193.517 13.29C190.014 11.9103 186.282 11.2046 182.517 11.21C178.497 11.2287 174.52 12.0433 170.816 13.6069C167.112 15.1705 163.755 17.4521 160.937 20.32C158.355 19.6466 155.712 19.2312 153.047 19.08C149.284 13.8722 144.34 9.6295 138.622 6.69907C132.904 3.76864 126.573 2.23375 120.147 2.22C119.547 2.22 118.947 2.22 118.337 2.22C111.022 2.50752 103.923 4.77929 97.7999 8.79206C91.6768 12.8048 86.7604 18.4074 83.5773 25C74.1034 27.071 65.5827 32.2228 59.3473 39.65C39.4273 41.11 23.0773 52.5 16.8473 67.78C13.6969 69.7462 10.8729 72.1924 8.4773 75.03C3.28143 81.2176 0.490782 89.0712 0.617295 97.15C0.482279 99.6693 0.63662 102.196 1.07729 104.68C3.64729 119.21 15.8873 130.26 34.2873 135.96C32.1228 139.289 31.2569 143.297 31.8543 147.222C32.4516 151.147 34.4706 154.716 37.5273 157.25L39.1373 158.58L33.4073 168.94L32.6173 170.3C30.7517 173.543 30.0679 177.333 30.6823 181.024C31.2966 184.715 33.1711 188.079 35.9866 190.543C38.8022 193.007 42.3848 194.419 46.1244 194.539C49.8641 194.659 53.5297 193.479 56.4973 191.2L85.8473 168.61C85.9973 168.5 86.1273 168.36 86.2673 168.24L81.0973 177.57L80.1873 179.15C78.3218 182.393 77.6379 186.183 78.2523 189.874C78.8666 193.565 80.7411 196.928 83.5566 199.393C86.3722 201.857 89.9548 203.269 93.6944 203.389C97.4341 203.509 101.1 202.329 104.067 200.05L131.067 179.31C131.226 182.25 132.186 185.092 133.844 187.525C135.501 189.959 137.793 191.893 140.471 193.118C143.149 194.343 146.112 194.811 149.037 194.473C151.962 194.135 154.739 193.003 157.067 191.2L186.437 168.61C188.256 167.213 189.756 165.445 190.839 163.424C191.922 161.403 192.563 159.175 192.719 156.887C192.875 154.6 192.543 152.305 191.744 150.155C190.946 148.006 189.699 146.051 188.087 144.42L187.577 143.9L187.487 143.81L183.837 140.16L190.687 124.5C192.45 122.775 194.054 120.894 195.477 118.88C202.004 117.66 208.132 114.856 213.322 110.715C218.513 106.574 222.608 101.223 225.247 95.13C230.792 91.4105 234.945 85.9558 237.055 79.6215C239.165 73.2872 239.113 66.4316 236.907 60.13V60.1Z" fill="white"/>
<path d="M238.457 58.55C237.526 55.8552 236.216 53.3064 234.567 50.98C235.907 45.5391 235.816 39.8441 234.302 34.449C232.788 29.0539 229.903 24.1426 225.929 20.193C221.954 16.2434 217.024 13.39 211.62 11.9104C206.215 10.4309 200.52 10.3756 195.087 11.75C191.584 10.3721 187.852 9.66974 184.087 9.68001C180.068 9.69442 176.092 10.5052 172.388 12.0654C168.684 13.6256 165.325 15.9044 162.507 18.77C159.928 18.0926 157.289 17.6673 154.627 17.5C150.859 12.2886 145.911 8.04321 140.188 5.11108C134.464 2.17895 128.128 0.643386 121.697 0.630005H119.887C112.564 0.932413 105.461 3.22026 99.3385 7.24873C93.2156 11.2772 88.3033 16.8947 85.1273 23.5C75.6651 25.5704 67.1491 30.7018 60.8973 38.1C40.9773 39.56 24.6273 50.92 18.3573 66.22C15.1993 68.1959 12.3686 70.6521 9.96728 73.5C4.78473 79.6861 2.0018 87.5309 2.12728 95.6C1.98307 98.1223 2.13409 100.653 2.57728 103.14C5.13728 117.66 17.3973 128.7 35.8473 134.4C33.6773 137.726 32.8072 141.734 33.4029 145.661C33.9986 149.587 36.0184 153.157 39.0773 155.69L40.6873 157.02L34.9573 167.38L34.1773 168.74C32.3061 171.983 31.6179 175.776 32.2299 179.47C32.8419 183.164 34.7163 186.531 37.5334 188.998C40.3505 191.465 43.9361 192.878 47.6787 192.997C51.4213 193.116 55.0893 191.933 58.0573 189.65L87.4373 167.05C87.5873 166.94 87.7173 166.81 87.8573 166.69L82.6973 176.03L81.7873 177.59C79.94 180.828 79.2676 184.605 79.8839 188.282C80.5003 191.959 82.3674 195.31 85.1697 197.769C87.972 200.228 91.5375 201.644 95.2633 201.777C98.9891 201.91 102.647 200.753 105.617 198.5L132.617 177.75C132.776 180.69 133.736 183.532 135.394 185.965C137.051 188.399 139.343 190.333 142.021 191.558C144.699 192.783 147.662 193.251 150.587 192.913C153.512 192.575 156.289 191.443 158.617 189.64L187.997 167.04C189.815 165.643 191.315 163.875 192.398 161.855C193.481 159.834 194.122 157.606 194.279 155.319C194.436 153.032 194.105 150.737 193.309 148.588C192.512 146.438 191.267 144.482 189.657 142.85L189.137 142.34L189.047 142.25L185.397 138.6L192.307 122.92C194.075 121.2 195.679 119.318 197.097 117.3C205.766 115.702 213.673 111.308 219.607 104.79C222.615 101.469 225.061 97.6792 226.847 93.57C232.397 89.8552 236.554 84.4008 238.665 78.0648C240.776 71.7289 240.72 64.871 238.507 58.57L238.457 58.55Z" fill="url(#paint0_linear)"/>
<path d="M130.347 112.87L97.1773 146.01L111.697 158.02L95.7473 185.68L130.447 158.99L129.847 158.38L115.937 145.55L130.347 112.87Z" fill="#E69100"/>
<path d="M130.347 112.87L97.7773 145.43L97.7673 145.42L111.697 156.95L96.6773 184.06L129.867 158.39L115.937 144.47L130.347 112.87Z" fill="#FFBB00"/>
<g style="mix-blend-mode:screen" opacity="0.2">
<g style="mix-blend-mode:screen" opacity="0.2">
<path d="M113.517 149.97C116.313 149.968 119.107 150.115 121.887 150.41L115.947 144.5L130.357 112.9L97.7873 145.46L103.957 150.56C107.13 150.178 110.322 149.981 113.517 149.97Z" fill="#FFBB00"/>
</g>
<g style="mix-blend-mode:screen" opacity="0.2">
<path d="M97.7773 145.43L97.7673 145.42L97.7773 145.43Z" fill="#FFBB00"/>
</g>
</g>
<path d="M77.4273 115.19L49.3473 143.24L61.6373 153.42L48.1373 176.82L77.5173 154.24L77.0173 153.72L65.2273 142.86L77.4273 115.19Z" fill="#E69100"/>
<path d="M77.4273 115.19L49.8573 142.77L49.8473 142.75L61.6373 152.51L48.9273 175.46L77.0173 153.73L65.2273 141.94L77.4273 115.19Z" fill="#FFBB00"/>
<g style="mix-blend-mode:screen" opacity="0.2">
<g style="mix-blend-mode:screen" opacity="0.2">
<path d="M63.1773 146.6C65.6073 146.6 67.9673 146.74 70.2673 146.97L65.2673 141.97L77.4673 115.21L49.8473 142.75L55.0773 147.07C57.7661 146.759 60.4705 146.602 63.1773 146.6Z" fill="#FFBB00"/>
</g>
<g style="mix-blend-mode:screen" opacity="0.2">
<path d="M49.8573 142.77V142.75H49.8473L49.8573 142.77Z" fill="#FFBB00"/>
</g>
</g>
<path d="M177.967 115.19L149.897 143.24L162.187 153.42L148.677 176.82L178.057 154.24L177.557 153.72L165.767 142.86L177.967 115.19Z" fill="#E69100"/>
<path d="M177.967 115.19L150.397 142.77V142.75L162.187 152.51L149.477 175.46L177.557 153.73L165.767 141.94L177.967 115.19Z" fill="#FFBB00"/>
<g style="mix-blend-mode:screen" opacity="0.2">
<g style="mix-blend-mode:screen" opacity="0.2">
<path d="M163.727 146.6C166.147 146.6 168.507 146.74 170.807 146.97L165.807 141.97L178.007 115.21L150.437 142.78L155.657 147.1C158.336 146.78 161.03 146.613 163.727 146.6Z" fill="#FFBB00"/>
</g>
</g>
<path d="M63.3573 56.06C65.4755 55.9634 67.598 56.0235 69.7073 56.24C73.4873 47.43 82.7073 40.98 93.7673 40.5C94.9744 40.4464 96.1837 40.4731 97.3873 40.58C97.9929 34.9255 100.552 29.6594 104.624 25.6895C108.696 21.7196 114.025 19.2946 119.693 18.8325C125.361 18.3704 131.013 19.9003 135.674 23.1582C140.335 26.4162 143.714 31.1982 145.227 36.68C147.218 36.0512 149.282 35.6848 151.367 35.59C157.439 35.3213 163.393 37.3232 168.068 41.2057C172.744 45.0881 175.806 50.5726 176.657 56.59C179.97 54.4956 183.737 53.226 187.642 52.8876C191.547 52.5492 195.476 53.1518 199.1 54.645C202.724 56.1381 205.937 58.4783 208.471 61.4693C211.004 64.4603 212.783 68.015 213.659 71.8354C214.535 75.6558 214.482 79.6305 213.506 83.4264C212.529 87.2223 210.656 90.7287 208.045 93.6518C205.434 96.5748 202.16 98.8292 198.498 100.226C194.836 101.623 190.892 102.122 186.997 101.68C185.963 104.818 184.304 107.715 182.119 110.194C179.935 112.674 177.271 114.685 174.288 116.106C171.305 117.528 168.064 118.33 164.763 118.465C161.461 118.6 158.166 118.064 155.077 116.89C148.947 123.46 138.517 128.04 126.517 128.56C110.517 129.28 96.5873 122.56 91.7673 112.63C88.8796 115.001 85.4863 116.677 81.8488 117.53C78.2113 118.384 74.4265 118.391 70.7858 117.551C67.1451 116.712 63.7455 115.048 60.8488 112.689C57.9521 110.329 55.6355 107.336 54.0773 103.94C41.4773 101.03 31.7473 96.66 31.7473 81.94C31.7473 68.42 45.2973 56.85 63.3573 56.06Z" fill="#1A485E"/>
<path d="M63.3573 54.16C65.4753 54.0652 67.5974 54.122 69.7073 54.33C73.4873 45.54 82.7073 39.08 93.7673 38.59C94.9747 38.5496 96.1834 38.5797 97.3873 38.68C97.9929 33.0255 100.552 27.7594 104.624 23.7895C108.696 19.8196 114.025 17.3946 119.693 16.9325C125.361 16.4705 131.013 18.0003 135.674 21.2582C140.335 24.5162 143.714 29.2982 145.227 34.78C147.218 34.1512 149.282 33.7848 151.367 33.69C157.439 33.4213 163.393 35.4233 168.068 39.3057C172.744 43.1881 175.806 48.6726 176.657 54.69C179.835 52.7155 183.423 51.4958 187.145 51.1247C190.868 50.7537 194.626 51.2411 198.131 52.5495C201.636 53.858 204.794 55.9526 207.363 58.6724C209.931 61.3922 211.842 64.6648 212.948 68.2386C214.055 71.8124 214.327 75.5922 213.744 79.2875C213.161 82.9829 211.738 86.4954 209.585 89.555C207.433 92.6146 204.607 95.1399 201.326 96.9368C198.044 98.7336 194.395 99.7542 190.657 99.92C189.446 99.9691 188.232 99.9223 187.027 99.78C185.997 102.921 184.34 105.82 182.156 108.302C179.972 110.784 177.308 112.797 174.324 114.219C171.339 115.641 168.098 116.442 164.795 116.575C161.491 116.707 158.196 116.168 155.107 114.99C148.977 121.55 138.547 126.13 126.547 126.66C110.547 127.37 96.6173 120.66 91.7973 110.73C88.9095 113.101 85.5163 114.777 81.8788 115.63C78.2413 116.484 74.4565 116.491 70.8158 115.651C67.1751 114.812 63.7755 113.148 60.8788 110.789C57.9821 108.429 55.6655 105.436 54.1073 102.04C41.5073 99.13 31.7773 94.75 31.7773 80.04C31.7473 66.5 45.2973 54.95 63.3573 54.16Z" fill="#276C8D"/>
<g style="mix-blend-mode:screen" opacity="0.15">
<path d="M122.847 73.67C156.727 73.67 187.967 76.78 213.077 82.02C214.403 77.2764 214.265 72.2429 212.682 67.5789C211.099 62.9149 208.144 58.8378 204.204 55.8817C200.264 52.9256 195.524 51.2282 190.603 51.012C185.682 50.7958 180.811 52.0708 176.627 54.67C175.776 48.6526 172.714 43.1681 168.038 39.2857C163.363 35.4033 157.409 33.4013 151.337 33.67C149.252 33.7648 147.188 34.1312 145.197 34.76C143.684 29.2783 140.305 24.4962 135.644 21.2383C130.983 17.9803 125.331 16.4505 119.663 16.9125C113.995 17.3746 108.666 19.7996 104.594 23.7695C100.522 27.7394 97.9629 33.0055 97.3573 38.66C96.1534 38.5597 94.9447 38.5297 93.7373 38.57C82.7373 39.06 73.4573 45.57 69.6773 54.31C67.5674 54.1021 65.4453 54.0452 63.3273 54.14C45.2973 54.95 31.7473 66.5 31.7473 80.04C31.7473 80.79 31.7473 81.5 31.8373 82.2C57.0973 76.85 88.6373 73.67 122.847 73.67Z" fill="#7F8C8D"/>
</g>
<path d="M179.637 87.66C181.304 88.4632 183.113 88.9301 184.961 89.0341C186.809 89.1381 188.658 88.8771 190.405 88.2661C192.152 87.6551 193.761 86.706 195.141 85.473C196.521 84.24 197.644 82.7472 198.447 81.08C198.914 80.1247 199.266 79.1178 199.497 78.08C200.713 79.3956 202.165 80.4709 203.777 81.25C205.443 82.053 207.251 82.5201 209.097 82.6245C210.943 82.729 212.792 82.4687 214.538 81.8586C216.284 81.2485 217.892 80.3006 219.272 79.0689C220.651 77.8372 221.774 76.3458 222.577 74.68C223.38 73.0142 223.847 71.2065 223.952 69.3602C224.056 67.5139 223.796 65.6651 223.186 63.9193C222.576 62.1736 221.628 60.5651 220.396 59.1857C219.164 57.8063 217.673 56.683 216.007 55.88C215.404 55.5962 214.783 55.3524 214.147 55.15C217.23 52.3712 219.134 48.5195 219.47 44.383C219.806 40.2465 218.549 36.138 215.955 32.898C213.362 29.6581 209.628 27.5317 205.518 26.9539C201.409 26.3762 197.234 27.3907 193.847 29.79C192.783 28.7547 191.557 27.9002 190.217 27.26C187.29 25.8541 183.966 25.5034 180.81 26.2674C177.653 27.0314 174.858 28.8631 172.897 31.4521C170.937 34.0412 169.931 37.2284 170.052 40.4738C170.172 43.7192 171.41 46.8232 173.557 49.26C170.665 49.842 168.028 51.3181 166.019 53.4798C164.011 55.6415 162.732 58.3796 162.364 61.3073C161.996 64.235 162.557 67.2043 163.968 69.7958C165.379 72.3874 167.569 74.4702 170.227 75.75C170.728 75.9858 171.243 76.1928 171.767 76.37C172.003 78.768 172.851 81.0653 174.229 83.0421C175.607 85.0188 177.469 86.6088 179.637 87.66Z" fill="#1E546E"/>
<path d="M179.637 85.72C181.304 86.5249 183.112 86.9934 184.96 87.0988C186.807 87.2041 188.657 86.9443 190.404 86.3341C192.151 85.7239 193.761 84.7753 195.141 83.5426C196.521 82.3099 197.645 80.8173 198.447 79.15C198.92 78.1763 199.273 77.1488 199.497 76.09C200.704 77.4176 202.158 78.4977 203.777 79.27C205.443 80.0731 207.251 80.5401 209.097 80.6445C210.943 80.749 212.792 80.4887 214.538 79.8786C216.284 79.2686 217.892 78.3206 219.272 77.0889C220.651 75.8572 221.774 74.3658 222.577 72.7C223.38 71.0342 223.847 69.2265 223.952 67.3802C224.056 65.5339 223.796 63.6851 223.186 61.9393C222.576 60.1936 221.628 58.5851 220.396 57.2057C219.164 55.8263 217.673 54.7031 216.007 53.9C215.404 53.6195 214.782 53.3789 214.147 53.18C217.135 50.3757 218.956 46.5477 219.245 42.4601C219.535 38.3725 218.272 34.326 215.71 31.1284C213.147 27.9307 209.473 25.8171 205.42 25.2094C201.368 24.6018 197.235 25.5447 193.847 27.85C191.22 25.3388 187.724 23.9401 184.089 23.9461C180.454 23.952 176.963 25.3623 174.344 27.8821C171.724 30.4019 170.18 33.8364 170.034 37.468C169.887 41.0996 171.15 44.6474 173.557 47.37C170.667 47.9516 168.032 49.4264 166.025 51.5864C164.018 53.7463 162.741 56.4821 162.373 59.4074C162.005 62.3327 162.565 65.2998 163.974 67.8895C165.384 70.4792 167.571 72.5607 170.227 73.84C170.728 74.079 171.242 74.2894 171.767 74.47C172.008 76.8615 172.858 79.1514 174.236 81.1209C175.614 83.0905 177.473 84.6739 179.637 85.72Z" fill="#0A8BC9"/>
<g style="mix-blend-mode:screen" opacity="0.1">
<path d="M193.117 55.5C202.161 55.4833 211.199 55.9775 220.187 56.98C218.999 55.6956 217.581 54.6442 216.007 53.88C215.404 53.5995 214.782 53.3589 214.147 53.16C217.105 50.3483 218.9 46.5282 219.174 42.4562C219.449 38.3843 218.185 34.3577 215.631 31.174C213.078 27.9903 209.422 25.8818 205.387 25.2662C201.353 24.6506 197.234 25.5727 193.847 27.85C191.22 25.3388 187.724 23.9401 184.089 23.9461C180.454 23.952 176.963 25.3623 174.344 27.8821C171.724 30.4019 170.18 33.8364 170.034 37.468C169.887 41.0996 171.15 44.6474 173.557 47.37C171.428 47.7925 169.426 48.7045 167.709 50.034C165.993 51.3634 164.609 53.0738 163.667 55.03C163.296 55.7935 162.998 56.5904 162.777 57.41C172.839 56.1164 182.973 55.4784 193.117 55.5Z" fill="#9AAAAB"/>
</g>
<path d="M115.137 94.92C113.957 82.56 99.0273 75.5 88.6073 81.42C87.8128 76.1548 85.2052 71.3322 81.2345 67.7844C77.2638 64.2365 72.1792 62.1861 66.8581 61.987C61.5371 61.7878 56.3134 63.4525 52.0887 66.6936C47.8639 69.9347 44.9031 74.549 43.7173 79.74C41.8331 79.2476 39.8948 78.9923 37.9473 78.98C26.0573 78.98 16.4773 88.84 18.5073 100.31C23.9673 131.19 118.487 130.37 115.137 94.92Z" fill="#205A75"/>
<path d="M115.137 92.74C113.957 80.38 99.0273 73.32 88.6073 79.24C87.8128 73.9749 85.2052 69.1522 81.2345 65.6044C77.2638 62.0565 72.1792 60.0061 66.8581 59.807C61.5371 59.6078 56.3134 61.2725 52.0887 64.5136C47.8639 67.7547 44.9031 72.369 43.7173 77.56C41.8335 77.0643 39.8952 76.8056 37.9473 76.79C26.0573 76.79 16.4773 86.65 18.5073 98.13C23.9673 129.01 118.487 128.19 115.137 92.74Z" fill="#1981B3"/>
<g style="mix-blend-mode:screen" opacity="0.1">
<path d="M66.4673 92.26C82.7628 92.1897 99.042 93.2992 115.177 95.58C115.247 94.6347 115.247 93.6854 115.177 92.74C113.997 80.38 99.0673 73.32 88.6473 79.24C87.8528 73.9749 85.2452 69.1522 81.2745 65.6044C77.3038 62.0565 72.2192 60.0061 66.8981 59.807C61.5771 59.6078 56.3534 61.2725 52.1287 64.5136C47.9039 67.7547 44.9431 72.369 43.7573 77.56C41.8735 77.0643 39.9352 76.8056 37.9873 76.79C26.9873 76.79 18.0373 85.18 18.3073 95.5C34.2633 93.2774 50.3574 92.1947 66.4673 92.26Z" fill="#8A9899"/>
</g>
<path style="mix-blend-mode:multiply" d="M238.457 58.55C237.526 55.8552 236.216 53.3064 234.567 50.98C235.907 45.5391 235.816 39.8441 234.302 34.449C232.788 29.0539 229.903 24.1426 225.929 20.193C221.954 16.2434 217.024 13.39 211.62 11.9104C206.215 10.4309 200.52 10.3756 195.087 11.75C191.584 10.3721 187.852 9.66974 184.087 9.68001C180.068 9.69442 176.092 10.5052 172.388 12.0654C168.684 13.6256 165.325 15.9044 162.507 18.77C159.928 18.0926 157.289 17.6673 154.627 17.5C150.859 12.2886 145.911 8.04321 140.188 5.11108C134.464 2.17895 128.128 0.643386 121.697 0.630005H119.887C112.564 0.932413 105.461 3.22026 99.3385 7.24873C93.2156 11.2772 88.3033 16.8947 85.1273 23.5C75.6651 25.5704 67.1491 30.7018 60.8973 38.1C40.9773 39.56 24.6273 50.92 18.3573 66.22C15.1993 68.1959 12.3686 70.6521 9.96728 73.5C4.78473 79.6861 2.0018 87.5309 2.12728 95.6C1.98307 98.1223 2.13409 100.653 2.57728 103.14C5.13728 117.66 17.3973 128.7 35.8473 134.4C33.6773 137.726 32.8072 141.734 33.4029 145.661C33.9986 149.587 36.0184 153.157 39.0773 155.69L40.6873 157.02L34.9573 167.38L34.1773 168.74C32.3061 171.983 31.6179 175.776 32.2299 179.47C32.8419 183.164 34.7163 186.531 37.5334 188.998C40.3505 191.465 43.9361 192.878 47.6787 192.997C51.4213 193.116 55.0893 191.933 58.0573 189.65L87.4373 167.05C87.5873 166.94 87.7173 166.81 87.8573 166.69L82.6973 176.03L81.7873 177.59C79.94 180.828 79.2676 184.605 79.8839 188.282C80.5003 191.959 82.3674 195.31 85.1697 197.769C87.972 200.228 91.5375 201.644 95.2633 201.777C98.9891 201.91 102.647 200.753 105.617 198.5L132.617 177.75C132.776 180.69 133.736 183.532 135.394 185.965C137.051 188.399 139.343 190.333 142.021 191.558C144.699 192.783 147.662 193.251 150.587 192.913C153.512 192.575 156.289 191.443 158.617 189.64L187.997 167.04C189.815 165.643 191.315 163.875 192.398 161.855C193.481 159.834 194.122 157.606 194.279 155.319C194.436 153.032 194.105 150.737 193.309 148.588C192.512 146.438 191.267 144.482 189.657 142.85L189.137 142.34L189.047 142.25L185.397 138.6L192.307 122.92C194.075 121.2 195.679 119.318 197.097 117.3C205.766 115.702 213.673 111.308 219.607 104.79C222.615 101.469 225.061 97.6792 226.847 93.57C232.397 89.8552 236.554 84.4008 238.665 78.0648C240.776 71.7289 240.72 64.871 238.507 58.57L238.457 58.55Z" fill="url(#paint1_linear)"/>
<defs>
<linearGradient id="paint0_linear" x1="14.8473" y1="202.84" x2="165.687" y2="51.99" gradientUnits="userSpaceOnUse">
<stop stop-color="#E6E6E6"/>
<stop offset="1" stop-color="#FAFAFA"/>
</linearGradient>
<linearGradient id="paint1_linear" x1="33.9273" y1="183.76" x2="206.057" y2="11.63" gradientUnits="userSpaceOnUse">
<stop offset="0.39" stop-color="white"/>
<stop offset="0.55" stop-color="#FDFDFD"/>
<stop offset="0.61" stop-color="#F6F6F6"/>
<stop offset="0.65" stop-color="#EBEBEB"/>
<stop offset="0.68" stop-color="#DADADA"/>
<stop offset="0.71" stop-color="#C4C4C4"/>
<stop offset="0.72" stop-color="#BABABA"/>
<stop offset="0.77" stop-color="#BDBDBD"/>
<stop offset="0.99" stop-color="#BFBFBF"/>
</linearGradient>
</defs>
</svg>
