<svg width="284" height="247" viewBox="0 0 284 247" fill="none" xmlns="http://www.w3.org/2000/svg">
<g style="mix-blend-mode:multiply">
<g style="mix-blend-mode:multiply" opacity="0.05">
<path d="M238.757 101.25C237.819 98.5579 236.51 96.01 234.867 93.68C236.197 88.2425 236.097 82.5536 234.579 77.1659C233.06 71.7782 230.174 66.8747 226.201 62.9317C222.228 58.9887 217.302 56.1402 211.903 54.6628C206.504 53.1854 200.815 53.1293 195.387 54.5C191.885 53.1189 188.152 52.4132 184.387 52.42C180.376 52.4406 176.408 53.2533 172.712 54.8115C169.015 56.3697 165.663 58.6427 162.847 61.5C160.266 60.825 157.622 60.4129 154.957 60.27C151.194 55.0558 146.248 50.8075 140.526 47.8734C134.804 44.9393 128.468 43.4029 122.037 43.39C121.437 43.39 120.837 43.39 120.227 43.39C112.904 43.6713 105.796 45.9413 99.665 49.9563C93.5342 53.9712 88.6122 59.5798 85.4273 66.18C75.9611 68.2522 67.4437 73.3915 61.1973 80.8C41.2873 82.26 24.9273 93.62 18.6573 108.92C15.5023 110.892 12.672 113.341 10.2673 116.18C5.08283 122.37 2.29669 130.217 2.4173 138.29C2.28706 140.813 2.44137 143.342 2.8773 145.83C5.4473 160.35 17.6873 171.4 36.0973 177.11C33.9328 180.439 33.0669 184.447 33.6643 188.372C34.2616 192.297 36.2806 195.866 39.3373 198.4L40.9373 199.73L35.2073 210.09L34.4273 211.5C32.5618 214.743 31.8779 218.533 32.4923 222.224C33.1066 225.915 34.9811 229.279 37.7966 231.743C40.6122 234.207 44.1948 235.619 47.9344 235.739C51.6741 235.859 55.3397 234.679 58.3073 232.4L87.6873 209.8L88.1073 209.44L82.9373 218.77L82.0373 220.34C80.1662 223.583 79.4779 227.376 80.0899 231.07C80.7019 234.764 82.5763 238.131 85.3934 240.598C88.2106 243.065 91.7961 244.478 95.5387 244.597C99.2813 244.716 102.949 243.533 105.917 241.25L132.847 220.5C133.009 223.439 133.972 226.278 135.63 228.709C137.288 231.141 139.58 233.074 142.256 234.298C144.933 235.522 147.893 235.991 150.817 235.655C153.742 235.319 156.518 234.19 158.847 232.39L188.227 209.79C190.049 208.39 191.551 206.618 192.635 204.592C193.718 202.567 194.358 200.333 194.511 198.041C194.664 195.749 194.328 193.45 193.523 191.298C192.719 189.146 191.466 187.19 189.847 185.56L189.347 185.05L189.247 184.96L185.607 181.31L192.517 165.64C194.275 163.91 195.878 162.03 197.307 160.02C205.988 158.424 213.905 154.026 219.847 147.5C222.872 144.178 225.328 140.381 227.117 136.26C232.67 132.548 236.829 127.093 238.94 120.757C241.051 114.42 240.994 107.561 238.777 101.26L238.757 101.25Z" fill="#FBFCFC"/>
</g>
<g style="mix-blend-mode:multiply" opacity="0.11">
<path d="M241.137 98.88C240.197 96.1887 238.888 93.641 237.247 91.31C238.424 86.5304 238.498 81.5458 237.465 76.7332C236.431 71.9207 234.316 67.4062 231.281 63.5315C228.245 59.6567 224.368 56.523 219.942 54.3676C215.517 52.2121 210.66 51.0913 205.737 51.09C203.04 51.0929 200.353 51.4288 197.737 52.09C194.233 50.716 190.501 50.0138 186.737 50.02C182.717 50.0357 178.74 50.848 175.036 52.41C171.332 53.9719 167.975 56.2526 165.157 59.12C162.575 58.4465 159.932 58.0345 157.267 57.89C153.501 52.6762 148.554 48.4284 142.83 45.4944C137.106 42.5605 130.769 41.0237 124.337 41.01C123.737 41.01 123.137 41.01 122.537 41.01C115.232 41.3108 108.145 43.5909 102.035 47.6068C95.9253 51.6226 91.0212 57.2232 87.8473 63.81C78.3788 65.8775 69.8577 71.0133 63.6073 78.42C43.6973 79.89 27.3373 91.25 21.0673 106.55C17.9132 108.519 15.0858 110.969 12.6873 113.81C7.49526 119.996 4.70498 127.845 4.82728 135.92C4.68587 138.454 4.82674 140.997 5.24728 143.5C7.81728 158.02 20.0673 169.07 38.4773 174.77C36.3066 178.098 35.4362 182.108 36.0319 186.036C36.6276 189.964 38.6477 193.535 41.7073 196.07L43.3173 197.4L37.5773 207.75L36.8473 209.07C34.9817 212.313 34.2979 216.103 34.9122 219.794C35.5266 223.485 37.4011 226.849 40.2166 229.313C43.0322 231.777 46.6147 233.189 50.3544 233.309C54.0941 233.429 57.7597 232.249 60.7273 229.97L90.1073 207.38C90.2573 207.27 90.3773 207.14 90.5273 207.01L85.3673 216.35L84.4573 217.92C82.5861 221.163 81.8979 224.956 82.5099 228.65C83.1219 232.344 84.9963 235.711 87.8134 238.178C90.6305 240.645 94.2161 242.058 97.9587 242.177C101.701 242.296 105.369 241.113 108.337 238.83L135.337 218.08C135.496 221.021 136.456 223.862 138.114 226.295C139.771 228.729 142.063 230.663 144.741 231.888C147.419 233.113 150.382 233.581 153.307 233.243C156.232 232.905 159.009 231.773 161.337 229.97L190.717 207.38C192.533 205.981 194.031 204.213 195.112 202.192C196.193 200.171 196.833 197.943 196.989 195.657C197.145 193.37 196.814 191.076 196.017 188.927C195.22 186.778 193.976 184.822 192.367 183.19L191.857 182.67L191.767 182.59L188.117 178.94L195.027 163.27C196.785 161.54 198.388 159.66 199.817 157.65C208.48 156.044 216.378 151.647 222.307 145.13C225.332 141.808 227.788 138.011 229.577 133.89C235.126 130.174 239.283 124.72 241.396 118.385C243.508 112.05 243.456 105.192 241.247 98.89L241.137 98.88Z" fill="#F8F8F8"/>
</g>
<g style="mix-blend-mode:multiply" opacity="0.16">
<path d="M243.507 96.5C242.565 93.8098 241.256 91.2625 239.617 88.93C240.796 84.1508 240.872 79.1659 239.839 74.3529C238.806 69.54 236.692 65.0253 233.655 61.1507C230.619 57.2761 226.741 54.1433 222.315 51.9896C217.888 49.8359 213.03 48.7178 208.107 48.72C205.41 48.7229 202.723 49.0587 200.107 49.72C196.603 48.346 192.871 47.6438 189.107 47.65C185.086 47.6649 181.107 48.4769 177.401 50.0388C173.696 51.6008 170.336 53.8818 167.517 56.75C164.949 56.0724 162.319 55.6537 159.667 55.5C155.902 50.285 150.955 46.0363 145.231 43.1022C139.507 40.1681 133.169 38.6321 126.737 38.62C126.147 38.62 125.537 38.62 124.937 38.62C117.619 38.9114 110.518 41.1881 104.395 45.2062C98.272 49.2243 93.3572 54.8325 90.1773 61.43C80.71 63.5065 72.1907 68.6448 65.9373 76.05C46.0273 77.5 29.6773 88.87 23.3973 104.18C20.2432 106.149 17.4158 108.599 15.0173 111.44C9.82255 117.624 7.035 125.475 7.16729 133.55C7.03374 136.069 7.1847 138.595 7.61729 141.08C10.1873 155.61 22.4373 166.66 40.8473 172.36C38.6766 175.688 37.8062 179.698 38.4019 183.626C38.9976 187.554 41.0177 191.125 44.0773 193.66L45.6873 194.99L39.9573 205.34L39.1773 206.7C37.3118 209.943 36.6279 213.733 37.2423 217.424C37.8566 221.115 39.7311 224.479 42.5466 226.943C45.3622 229.407 48.9447 230.819 52.6844 230.939C56.4241 231.059 60.0897 229.879 63.0573 227.6L92.4273 205.01C92.5773 204.9 92.7073 204.77 92.8573 204.64L87.6873 213.98L86.7873 215.55C84.8935 218.794 84.1873 222.596 84.7898 226.303C85.3924 230.011 87.2662 233.393 90.0898 235.87C92.9135 238.348 96.511 239.765 100.266 239.88C104.02 239.995 107.698 238.8 110.667 236.5L137.667 215.75C137.826 218.69 138.786 221.532 140.444 223.965C142.102 226.399 144.393 228.333 147.071 229.558C149.749 230.783 152.712 231.251 155.637 230.913C158.562 230.575 161.339 229.443 163.667 227.64L193.047 205.05C194.863 203.651 196.361 201.883 197.442 199.862C198.523 197.841 199.163 195.613 199.319 193.327C199.475 191.04 199.144 188.746 198.347 186.597C197.55 184.448 196.306 182.492 194.697 180.86L194.187 180.34L194.097 180.26L190.447 176.61L197.357 160.93C199.115 159.204 200.718 157.327 202.147 155.32C208.671 154.089 214.792 151.272 219.972 147.119C225.151 142.965 229.229 137.601 231.847 131.5C237.396 127.784 241.553 122.33 243.666 115.995C245.778 109.66 245.726 102.802 243.517 96.5H243.507Z" fill="#F4F5F5"/>
</g>
<g style="mix-blend-mode:multiply" opacity="0.21">
<path d="M245.847 94.13C244.909 91.4379 243.6 88.89 241.957 86.56C243.132 81.7806 243.205 76.7966 242.17 71.9849C241.136 67.1732 239.021 62.6596 235.986 58.7853C232.95 54.911 229.074 51.7774 224.65 49.6214C220.226 47.4653 215.369 46.3433 210.447 46.34C207.75 46.3422 205.063 46.6781 202.447 47.34C198.943 45.966 195.211 45.2638 191.447 45.27C187.426 45.285 183.447 46.0969 179.741 47.6588C176.036 49.2208 172.676 51.5018 169.857 54.37C167.275 53.6966 164.632 53.2812 161.967 53.13C158.202 47.9188 153.255 43.6734 147.533 40.7412C141.812 37.809 135.477 36.2734 129.047 36.26C128.447 36.26 127.847 36.26 127.237 36.26C119.932 36.5608 112.845 38.841 106.735 42.8568C100.625 46.8726 95.7212 52.4732 92.5473 59.06C83.0802 61.1372 74.5612 66.2754 68.3073 73.68C48.3973 75.14 32.0473 86.5 25.7673 101.8C22.6177 103.775 19.7913 106.224 17.3873 109.06C12.2028 115.25 9.41668 123.097 9.53729 131.17C9.40151 133.693 9.55585 136.223 9.99729 138.71C12.5573 153.24 24.8073 164.28 43.2173 169.99C41.0473 173.316 40.1772 177.324 40.7729 181.251C41.3686 185.177 43.3884 188.747 46.4473 191.28L48.0573 192.62L42.3273 202.97L41.5473 204.33C39.6818 207.573 38.9979 211.363 39.6123 215.054C40.2266 218.745 42.1011 222.109 44.9166 224.573C47.7322 227.037 51.3147 228.449 55.0544 228.569C58.7941 228.689 62.4597 227.509 65.4273 225.23L94.8473 202.64C94.9873 202.53 95.1173 202.39 95.2673 202.27L90.0973 211.61L89.1973 213.18C87.3261 216.423 86.6379 220.216 87.2499 223.91C87.8619 227.604 89.7363 230.971 92.5534 233.438C95.3706 235.905 98.9561 237.318 102.699 237.437C106.441 237.556 110.109 236.373 113.077 234.09L140.077 213.34C140.236 216.281 141.196 219.122 142.854 221.555C144.512 223.989 146.803 225.923 149.481 227.148C152.159 228.373 155.122 228.841 158.047 228.503C160.972 228.165 163.749 227.033 166.077 225.23L195.457 202.64C197.276 201.242 198.777 199.474 199.86 197.452C200.943 195.43 201.584 193.201 201.74 190.912C201.896 188.624 201.563 186.328 200.765 184.178C199.966 182.028 198.719 180.072 197.107 178.44L196.597 177.93L196.507 177.84L192.857 174.19L199.657 158.5C201.418 156.773 203.021 154.892 204.447 152.88C213.111 151.276 221.013 146.883 226.947 140.37C229.972 137.048 232.428 133.251 234.217 129.13C239.767 125.415 243.924 119.961 246.035 113.625C248.146 107.289 248.09 100.431 245.877 94.13H245.847Z" fill="#F1F1F2"/>
</g>
<g style="mix-blend-mode:multiply" opacity="0.26">
<path d="M248.247 91.76C247.309 89.0679 246 86.5199 244.357 84.19C245.699 78.7461 245.608 73.0473 244.093 67.649C242.578 62.2506 239.691 57.3368 235.712 53.3862C231.733 49.4356 226.799 46.583 221.39 45.1063C215.981 43.6296 210.282 43.5792 204.847 44.96C201.345 43.5789 197.612 42.8732 193.847 42.88C189.825 42.8973 185.847 43.7113 182.141 45.275C178.435 46.8386 175.076 49.1209 172.257 51.99C169.675 51.3166 167.032 50.9012 164.367 50.75C160.604 45.5358 155.658 41.2875 149.936 38.3534C144.214 35.4193 137.878 33.8829 131.447 33.87C130.847 33.87 130.247 33.87 129.637 33.87C122.323 34.1597 115.224 36.4323 109.102 40.4448C102.979 44.4574 98.0622 50.0588 94.8773 56.65C85.4202 58.7411 76.9173 63.8941 70.6873 71.31C50.7673 72.77 34.4173 84.13 28.1473 99.43C24.9923 101.402 22.162 103.851 19.7573 106.69C14.5728 112.88 11.7867 120.727 11.9073 128.8C11.7715 131.323 11.9259 133.853 12.3673 136.34C14.9373 150.86 27.1773 161.91 45.5873 167.62C43.425 170.951 42.5624 174.96 43.1635 178.886C43.7646 182.811 45.7874 186.379 48.8473 188.91L50.4473 190.24L44.6973 200.6L43.9173 201.96C42.0271 205.208 41.3268 209.014 41.9365 212.722C42.5463 216.431 44.428 219.811 47.2588 222.284C50.0895 224.756 53.6926 226.166 57.4495 226.271C61.2064 226.376 64.8827 225.17 67.8473 222.86L97.2273 200.26C97.3673 200.15 97.4973 200.02 97.6473 199.9L92.4773 209.23L91.5773 210.81C89.7062 214.053 89.0179 217.846 89.6299 221.54C90.2419 225.234 92.1163 228.601 94.9334 231.068C97.7506 233.535 101.336 234.948 105.079 235.067C108.821 235.186 112.489 234.003 115.457 231.72L142.457 210.97C142.619 213.909 143.582 216.748 145.24 219.179C146.898 221.611 149.19 223.543 151.866 224.768C154.543 225.992 157.503 226.461 160.427 226.125C163.352 225.789 166.128 224.66 168.457 222.86L197.827 200.26C199.646 198.863 201.146 197.095 202.229 195.074C203.312 193.053 203.953 190.825 204.109 188.537C204.265 186.25 203.933 183.955 203.134 181.805C202.336 179.656 201.089 177.701 199.477 176.07L198.977 175.56L198.877 175.47L195.227 171.82L202.147 156.15C203.875 154.407 205.448 152.516 206.847 150.5C215.51 148.894 223.408 144.497 229.337 137.98C232.362 134.658 234.818 130.861 236.607 126.74C242.16 123.028 246.319 117.573 248.43 111.236C250.541 104.9 250.484 98.0406 248.267 91.74L248.247 91.76Z" fill="#EDEEEE"/>
</g>
<g style="mix-blend-mode:multiply" opacity="0.32">
<path d="M250.617 89.39C249.683 86.6961 248.374 84.1476 246.727 81.82C248.067 76.3791 247.976 70.684 246.462 65.289C244.948 59.8939 242.063 54.9826 238.089 51.033C234.114 47.0834 229.184 44.23 223.78 42.7504C218.375 41.2709 212.68 41.2156 207.247 42.59C203.745 41.2089 200.012 40.5032 196.247 40.51C192.227 40.5257 188.25 41.338 184.546 42.9C180.842 44.4619 177.485 46.7425 174.667 49.61C172.085 48.9365 169.442 48.5245 166.777 48.38C163.011 43.1662 158.064 38.9184 152.34 35.9844C146.616 33.0505 140.279 31.5137 133.847 31.5C133.247 31.5 132.647 31.5 132.037 31.5C124.723 31.7897 117.624 34.0623 111.502 38.0748C105.379 42.0874 100.462 47.6888 97.2773 54.28C87.8093 56.365 79.2951 61.5185 73.0573 68.94C53.1473 70.4 36.7873 81.76 30.5173 97.06C27.3623 99.0319 24.532 101.481 22.1273 104.32C16.9428 110.51 14.1567 118.357 14.2773 126.43C14.1468 128.949 14.3011 131.475 14.7373 133.96C17.3073 148.5 29.5473 159.5 47.9573 165.24C45.8034 168.567 44.9437 172.567 45.5408 176.485C46.1378 180.403 48.1503 183.966 51.1973 186.5L52.7973 187.83L47.0673 198.18L46.2873 199.54C44.3877 202.784 43.677 206.588 44.2771 210.299C44.8773 214.01 46.751 217.396 49.5763 219.876C52.4015 222.356 56.0022 223.775 59.7597 223.889C63.5172 224.002 67.1971 222.804 70.1673 220.5L99.5473 197.9C99.6873 197.79 99.8273 197.66 99.9673 197.54L94.8473 206.86L93.9473 208.43C92.0761 211.673 91.3879 215.466 91.9999 219.16C92.6119 222.854 94.4863 226.221 97.3034 228.688C100.121 231.155 103.706 232.568 107.449 232.687C111.191 232.806 114.859 231.623 117.827 229.34L144.827 208.59C144.988 211.53 145.949 214.37 147.606 216.803C149.264 219.236 151.555 221.17 154.232 222.395C156.909 223.62 159.87 224.09 162.795 223.755C165.72 223.419 168.498 222.29 170.827 220.49L200.207 197.89C202.023 196.491 203.521 194.723 204.602 192.702C205.683 190.681 206.323 188.453 206.479 186.167C206.635 183.88 206.304 181.586 205.507 179.437C204.71 177.288 203.466 175.332 201.857 173.7L201.347 173.19L201.247 173.1L197.497 169.5L204.407 153.83C206.165 152.1 207.768 150.22 209.197 148.21C217.86 146.604 225.758 142.207 231.687 135.69C234.712 132.368 237.168 128.571 238.957 124.45C244.51 120.738 248.669 115.283 250.78 108.946C252.891 102.61 252.834 95.7506 250.617 89.45V89.39Z" fill="#EAEAEB"/>
</g>
<g style="mix-blend-mode:multiply" opacity="0.37">
<path d="M252.997 87.01C252.055 84.3198 250.746 81.7725 249.107 79.44C250.286 74.6608 250.362 69.6759 249.329 64.8629C248.296 60.05 246.182 55.5353 243.145 51.6607C240.109 47.7861 236.231 44.6533 231.805 42.4996C227.378 40.3459 222.52 39.2278 217.597 39.23C214.9 39.2329 212.213 39.5687 209.597 40.23C206.093 38.856 202.361 38.1538 198.597 38.16C194.577 38.1757 190.6 38.988 186.896 40.55C183.192 42.1119 179.835 44.3925 177.017 47.26C174.435 46.5865 171.792 46.1745 169.127 46.03C165.361 40.8162 160.414 36.5684 154.69 33.6344C148.966 30.7005 142.629 29.1637 136.197 29.15C135.597 29.15 134.997 29.15 134.397 29.15C127.083 29.4377 119.985 31.7084 113.863 35.7192C107.74 39.73 102.823 45.33 99.6373 51.92C90.1781 54.0079 81.6699 59.153 75.4273 66.56C55.5173 68.03 39.1673 79.38 32.8473 94.69C29.6912 96.6566 26.8635 99.1064 24.4673 101.95C19.2741 108.135 16.4868 115.985 16.6173 124.06C16.4837 126.579 16.6347 129.105 17.0673 131.59C19.6373 146.12 31.8873 157.17 50.2973 162.87C48.1266 166.198 47.2562 170.208 47.8519 174.136C48.4475 178.064 50.4677 181.635 53.5273 184.17L55.1773 185.5L49.4473 195.85L48.6673 197.21C46.7933 200.452 46.1027 204.244 46.7132 207.938C47.3237 211.633 49.1975 215.001 52.0148 217.468C54.8321 219.935 58.4183 221.347 62.161 221.464C65.9038 221.581 69.5712 220.396 72.5373 218.11L101.917 195.5C102.064 195.385 102.205 195.261 102.337 195.13L97.1773 204.5L96.2673 206.07C94.3961 209.313 93.7079 213.105 94.3199 216.8C94.9319 220.494 96.8063 223.861 99.6234 226.328C102.441 228.795 106.026 230.208 109.769 230.327C113.511 230.446 117.179 229.263 120.147 226.98L147.147 206.23C147.306 209.17 148.266 212.012 149.924 214.445C151.581 216.879 153.873 218.813 156.551 220.038C159.229 221.263 162.192 221.731 165.117 221.393C168.042 221.055 170.819 219.923 173.147 218.12L202.467 195.5C204.283 194.101 205.781 192.333 206.862 190.312C207.943 188.291 208.583 186.063 208.739 183.777C208.895 181.49 208.564 179.196 207.767 177.047C206.97 174.898 205.726 172.942 204.117 171.31L203.607 170.79L203.517 170.71L199.847 167.08L206.757 151.4C208.52 149.675 210.123 147.794 211.547 145.78C220.212 144.178 228.114 139.784 234.047 133.27C237.066 129.946 239.518 126.148 241.307 122.03C246.856 118.314 251.013 112.86 253.126 106.525C255.238 100.19 255.186 93.3323 252.977 87.03L252.997 87.01Z" fill="#E6E7E8"/>
</g>
<g style="mix-blend-mode:multiply" opacity="0.42">
<path d="M255.367 84.64C254.429 81.9479 253.12 79.3999 251.477 77.07C252.656 72.2908 252.732 67.3059 251.699 62.493C250.666 57.68 248.552 53.1653 245.515 49.2907C242.479 45.4161 238.601 42.2833 234.175 40.1296C229.748 37.9759 224.89 36.8578 219.967 36.86C217.27 36.8621 214.582 37.1979 211.967 37.86C208.462 36.4879 204.731 35.7857 200.967 35.79C196.946 35.8049 192.967 36.6169 189.261 38.1788C185.556 39.7408 182.196 42.0218 179.377 44.89C176.795 44.2158 174.152 43.8037 171.487 43.66C167.722 38.445 162.775 34.1964 157.051 31.2623C151.327 28.3282 144.989 26.7921 138.557 26.78C137.967 26.78 137.357 26.78 136.757 26.78C129.443 27.0655 122.344 29.3353 116.221 33.3464C110.098 37.3575 105.181 42.9586 101.997 49.55C92.559 51.648 84.0729 56.7924 77.8473 64.19C57.8473 65.65 41.5373 77.01 35.2573 92.31C32.0944 94.2833 29.2573 96.7358 26.8473 99.58C21.6548 105.761 18.8674 113.608 18.9973 121.68C18.8615 124.203 19.0158 126.733 19.4573 129.22C22.0473 143.75 34.2973 154.79 52.7073 160.5C50.5373 163.826 49.6672 167.834 50.2629 171.761C50.8586 175.687 52.8784 179.257 55.9373 181.79L57.5473 183.12L51.8473 193.5L51.0673 194.86C49.2017 198.103 48.5179 201.893 49.1323 205.584C49.7466 209.275 51.6211 212.639 54.4366 215.103C57.2522 217.567 60.8347 218.979 64.5744 219.099C68.3141 219.219 71.9797 218.039 74.9473 215.76L104.317 193.17C104.467 193.06 104.597 192.92 104.747 192.8L99.5773 202.14L98.6773 203.71C96.8061 206.953 96.1179 210.746 96.7299 214.44C97.3419 218.134 99.2163 221.501 102.033 223.968C104.851 226.435 108.436 227.848 112.179 227.967C115.921 228.086 119.589 226.903 122.557 224.62L149.557 203.87C149.716 206.81 150.676 209.652 152.334 212.085C153.992 214.519 156.283 216.453 158.961 217.678C161.639 218.903 164.602 219.371 167.527 219.033C170.452 218.695 173.229 217.563 175.557 215.76L204.847 193.15C206.663 191.751 208.161 189.983 209.242 187.962C210.323 185.941 210.963 183.713 211.119 181.427C211.275 179.14 210.944 176.846 210.147 174.697C209.35 172.548 208.106 170.592 206.497 168.96L205.987 168.44L205.897 168.35L202.247 164.71L209.157 149.03C210.915 147.3 212.518 145.42 213.947 143.41C220.476 142.197 226.606 139.396 231.796 135.254C236.986 131.113 241.077 125.757 243.707 119.66C249.26 115.948 253.421 110.494 255.533 104.158C257.646 97.8211 257.591 90.9619 255.377 84.66L255.367 84.64Z" fill="#E3E4E4"/>
</g>
<g style="mix-blend-mode:multiply" opacity="0.47">
<path d="M257.737 82.27C256.799 79.5779 255.49 77.03 253.847 74.7C255.018 69.9219 255.089 64.9402 254.052 60.131C253.016 55.3218 250.901 50.811 247.866 46.9391C244.831 43.0673 240.956 39.9356 236.534 37.7807C232.111 35.6258 227.257 34.504 222.337 34.5C219.64 34.5022 216.953 34.8381 214.337 35.5C210.834 34.1221 207.102 33.4198 203.337 33.43C199.325 33.4463 195.355 34.2561 191.656 35.8127C187.958 37.3693 184.604 39.642 181.787 42.5C179.205 41.8266 176.562 41.4112 173.897 41.26C170.133 36.0476 165.187 31.8013 159.465 28.869C153.742 25.9367 147.407 24.4018 140.977 24.39H139.167C131.85 24.6825 124.749 26.9596 118.626 30.9776C112.503 34.9956 107.588 40.6032 104.407 47.2C94.941 49.2722 86.4237 54.4115 80.1773 61.82C60.2573 63.28 43.9073 74.64 37.6373 89.94C34.4823 91.9119 31.652 94.361 29.2473 97.2C24.0628 103.39 21.2767 111.237 21.3973 119.31C21.2615 121.833 21.4158 124.363 21.8573 126.85C24.4173 141.38 36.6673 152.42 55.0773 158.13C52.9073 161.456 52.0372 165.464 52.6329 169.391C53.2286 173.317 55.2484 176.887 58.3073 179.42L59.9173 180.75L54.1873 191.11L53.4073 192.5C51.5417 195.743 50.8579 199.533 51.4723 203.224C52.0866 206.915 53.9611 210.279 56.7766 212.743C59.5922 215.207 63.1747 216.619 66.9144 216.739C70.6541 216.859 74.3197 215.679 77.2873 213.4L106.667 190.8L107.087 190.44L101.917 199.78L101.017 201.35C99.1461 204.593 98.4579 208.386 99.0699 212.08C99.6819 215.774 101.556 219.141 104.373 221.608C107.191 224.075 110.776 225.488 114.519 225.607C118.261 225.726 121.929 224.543 124.897 222.26L151.847 201.5C152.006 204.441 152.966 207.282 154.624 209.715C156.281 212.149 158.573 214.083 161.251 215.308C163.929 216.533 166.892 217.001 169.817 216.663C172.742 216.325 175.519 215.193 177.847 213.39L207.227 190.79C209.047 189.391 210.548 187.62 211.63 185.596C212.712 183.572 213.352 181.341 213.505 179.051C213.658 176.761 213.322 174.464 212.519 172.314C211.716 170.164 210.464 168.209 208.847 166.58L208.337 166.07L208.247 165.98L204.597 162.33L211.507 146.66C213.271 144.935 214.874 143.054 216.297 141.04C222.824 139.82 228.952 137.016 234.142 132.875C239.333 128.734 243.428 123.383 246.067 117.29C251.617 113.575 255.774 108.121 257.885 101.785C259.996 95.4489 259.94 88.591 257.727 82.29L257.737 82.27Z" fill="#DFE0E1"/>
</g>
<g style="mix-blend-mode:multiply" opacity="0.53">
<path d="M260.107 79.9C259.176 77.2052 257.866 74.6564 256.217 72.33C257.557 66.8891 257.466 61.1941 255.952 55.799C254.438 50.4039 251.553 45.4926 247.579 41.543C243.604 37.5934 238.674 34.74 233.27 33.2604C227.865 31.7809 222.17 31.7256 216.737 33.1C213.235 31.7189 209.502 31.0132 205.737 31.02C201.716 31.0383 197.739 31.8517 194.033 33.4134C190.328 34.9752 186.968 37.2545 184.147 40.12C181.567 39.4555 178.928 39.0435 176.267 38.89C172.502 33.6775 167.556 29.4306 161.834 26.4967C156.113 23.5628 149.777 22.0253 143.347 22.01C142.747 22.01 142.147 22.01 141.537 22.01C134.223 22.3008 127.125 24.5738 121.003 28.5862C114.88 32.5986 109.963 38.1995 106.777 44.79C97.2991 46.8863 88.7802 52.0581 82.5473 59.5C62.6273 60.96 46.2773 72.32 40.0073 87.62C36.8523 89.5919 34.022 92.041 31.6173 94.88C26.4328 101.07 23.6467 108.917 23.7673 116.99C23.6315 119.509 23.7858 122.036 24.2273 124.52C26.8473 139 39.0373 150.05 57.4473 155.75C55.2821 159.08 54.4159 163.09 55.0132 167.017C55.6106 170.944 57.6298 174.514 60.6873 177.05L62.2873 178.38L56.5573 188.73L55.7773 190.09C53.9062 193.333 53.2179 197.126 53.8299 200.82C54.4419 204.514 56.3163 207.881 59.1334 210.348C61.9506 212.815 65.5361 214.228 69.2787 214.347C73.0213 214.466 76.6893 213.283 79.6573 211L109.037 188.4L109.457 188.04L104.287 197.37L103.387 198.94C101.524 202.184 100.841 205.973 101.456 209.663C102.07 213.354 103.943 216.717 106.757 219.183C109.571 221.648 113.152 223.062 116.891 223.186C120.63 223.309 124.297 222.134 127.267 219.86L154.267 199.11C154.429 202.049 155.392 204.888 157.05 207.319C158.708 209.751 161 211.683 163.676 212.908C166.353 214.132 169.313 214.601 172.237 214.265C175.162 213.929 177.938 212.8 180.267 211L209.637 188.4C211.455 187.003 212.955 185.235 214.038 183.215C215.121 181.194 215.762 178.966 215.919 176.679C216.076 174.392 215.745 172.097 214.949 169.948C214.152 167.798 212.907 165.842 211.297 164.21L210.787 163.7L210.687 163.61L207.037 159.96L213.957 144.29C215.715 142.56 217.318 140.68 218.747 138.67C227.41 137.064 235.308 132.667 241.237 126.15C244.262 122.828 246.718 119.031 248.507 114.91C254.06 111.198 258.219 105.743 260.33 99.4065C262.441 93.0697 262.384 86.2106 260.167 79.91L260.107 79.9Z" fill="#DCDDDE"/>
</g>
<g style="mix-blend-mode:multiply" opacity="0.58">
<path d="M262.477 77.5C261.546 74.8081 260.236 72.2626 258.587 69.94C259.927 64.4991 259.836 58.804 258.322 53.409C256.808 48.0139 253.923 43.1026 249.949 39.153C245.974 35.2034 241.044 32.35 235.64 30.8704C230.235 29.3909 224.54 29.3356 219.107 30.71C215.605 29.3289 211.872 28.6232 208.107 28.63C204.087 28.6457 200.11 29.458 196.406 31.02C192.702 32.5819 189.345 34.8625 186.527 37.73C183.949 37.0565 181.309 36.6444 178.647 36.5C174.881 31.2862 169.934 27.0384 164.21 24.1044C158.486 21.1705 152.149 19.6337 145.717 19.62C145.117 19.62 144.517 19.62 143.907 19.62C136.583 19.9212 129.478 22.2097 123.355 26.2402C117.231 30.2707 112.32 35.8914 109.147 42.5C99.6878 44.565 91.1721 49.6892 84.9173 57.08C65.0073 58.5 48.6573 69.9 42.3773 85.2C39.2194 87.1841 36.3889 89.6468 33.9873 92.5C28.8032 98.6852 26.02 106.531 26.1473 114.6C26.0082 117.122 26.1592 119.652 26.5973 122.14C29.1673 136.67 41.4173 147.72 59.8173 153.42C57.6528 156.749 56.7869 160.757 57.3843 164.682C57.9816 168.607 60.0006 172.176 63.0573 174.71L64.6573 176.05L58.9373 186.4L58.1473 187.76C56.2761 191.003 55.5879 194.796 56.1999 198.49C56.8119 202.184 58.6863 205.551 61.5034 208.018C64.3205 210.485 67.9061 211.898 71.6487 212.017C75.3913 212.136 79.0593 210.953 82.0273 208.67L111.407 186.07C111.557 185.96 111.687 185.83 111.827 185.71L106.667 195.04L105.757 196.61C103.897 199.853 103.218 203.641 103.835 207.328C104.451 211.016 106.326 214.376 109.14 216.837C111.954 219.299 115.533 220.71 119.27 220.831C123.007 220.952 126.67 219.775 129.637 217.5L156.637 196.75C156.798 199.69 157.759 202.53 159.416 204.963C161.074 207.396 163.365 209.33 166.042 210.555C168.719 211.78 171.68 212.25 174.605 211.915C177.53 211.579 180.308 210.45 182.637 208.65L212.017 186.05C213.833 184.651 215.331 182.883 216.412 180.862C217.493 178.841 218.133 176.613 218.289 174.327C218.445 172.04 218.114 169.746 217.317 167.597C216.52 165.448 215.276 163.492 213.667 161.86L213.157 161.35L213.057 161.26L209.417 157.61L216.327 141.93C218.09 140.205 219.693 138.324 221.117 136.31C229.783 134.712 237.687 130.318 243.617 123.8C246.63 120.455 249.073 116.638 250.847 112.5C256.398 108.786 260.557 103.332 262.668 96.9957C264.779 90.6593 264.722 83.8008 262.507 77.5H262.477Z" fill="#D8D9DB"/>
</g>
<g style="mix-blend-mode:multiply" opacity="0.63">
<path d="M264.847 75.15C263.905 72.4598 262.596 69.9125 260.957 67.58C262.136 62.8008 262.212 57.8159 261.179 53.003C260.146 48.19 258.032 43.6753 254.995 39.8007C251.959 35.9261 248.081 32.7933 243.655 30.6396C239.228 28.486 234.37 27.3678 229.447 27.37C226.75 27.3735 224.063 27.7094 221.447 28.37C217.943 26.996 214.211 26.2938 210.447 26.3C206.427 26.3157 202.45 27.128 198.746 28.69C195.042 30.2519 191.685 32.5326 188.867 35.4C186.285 34.7258 183.642 34.3137 180.977 34.17C177.211 28.9562 172.264 24.7084 166.54 21.7744C160.816 18.8405 154.479 17.3037 148.047 17.29C147.457 17.29 146.847 17.29 146.247 17.29C138.933 17.5777 131.835 19.8484 125.713 23.8592C119.59 27.87 114.673 33.47 111.487 40.06C102.029 42.1437 93.5229 47.2897 87.2873 54.7C67.3773 56.17 51.0273 67.5 44.7473 82.83C41.5912 84.7966 38.7635 87.2464 36.3673 90.09C31.1756 96.2715 28.3883 104.119 28.5173 112.19C28.3815 114.713 28.5358 117.243 28.9773 119.73C31.5373 134.26 43.7873 145.31 62.1973 151.01C60.0273 154.336 59.1572 158.344 59.7529 162.271C60.3486 166.197 62.3684 169.767 65.4273 172.3L67.0373 173.63L61.3073 183.99L60.5273 185.35C58.6533 188.592 57.9627 192.384 58.5732 196.078C59.1837 199.773 61.0575 203.141 63.8748 205.608C66.6921 208.075 70.2783 209.487 74.021 209.604C77.7638 209.721 81.4312 208.536 84.3973 206.25L113.777 183.66C113.927 183.55 114.057 183.41 114.197 183.29L109.037 192.63L108.127 194.2C106.256 197.443 105.568 201.236 106.18 204.93C106.792 208.624 108.666 211.991 111.483 214.458C114.301 216.925 117.886 218.338 121.629 218.457C125.371 218.576 129.039 217.393 132.007 215.11L159.007 194.36C159.166 197.301 160.126 200.142 161.784 202.575C163.441 205.009 165.733 206.943 168.411 208.168C171.089 209.393 174.052 209.861 176.977 209.523C179.902 209.185 182.679 208.053 185.007 206.25L214.387 183.66C216.194 182.257 217.683 180.486 218.755 178.466C219.828 176.445 220.461 174.22 220.611 171.937C220.761 169.654 220.426 167.366 219.627 165.222C218.828 163.078 217.584 161.128 215.977 159.5L215.467 158.98L215.377 158.89L211.727 155.25L218.637 139.5C220.397 137.772 222 135.892 223.427 133.88C232.091 132.276 239.993 127.883 245.927 121.37C248.949 118.048 251.402 114.251 253.187 110.13C258.736 106.414 262.893 100.96 265.006 94.6251C267.118 88.2898 267.066 81.4323 264.857 75.13L264.847 75.15Z" fill="#D5D6D7"/>
</g>
<g style="mix-blend-mode:multiply" opacity="0.68">
<path d="M267.227 72.78C266.289 70.0879 264.98 67.5399 263.337 65.21C264.512 60.4322 264.585 55.45 263.551 50.6398C262.518 45.8295 260.405 41.317 257.372 37.4431C254.339 33.5692 250.465 30.4352 246.043 28.2779C241.622 26.1206 236.767 24.9963 231.847 24.99C229.15 24.9922 226.463 25.328 223.847 25.99C220.342 24.6179 216.611 23.9157 212.847 23.92C208.826 23.9349 204.847 24.7469 201.141 26.3088C197.436 27.8708 194.076 30.1518 191.257 33.02C188.675 32.3458 186.032 31.9337 183.367 31.79C179.605 26.5759 174.662 22.327 168.941 19.3912C163.221 16.4555 156.887 14.9164 150.457 14.9C149.867 14.9 149.257 14.9 148.657 14.9C141.343 15.1855 134.244 17.4553 128.121 21.4664C121.998 25.4775 117.081 31.0786 113.897 37.67C104.426 39.7529 95.9077 44.9066 89.6673 52.33C69.7473 53.79 53.3973 65.15 47.1273 80.5C43.9682 82.4705 41.1373 84.9235 38.7373 87.77C33.5457 93.9346 30.7451 101.761 30.8473 109.82C30.7115 112.339 30.8658 114.866 31.3073 117.35C33.8673 131.89 46.1173 142.93 64.5273 148.64C62.3674 151.976 61.5121 155.991 62.1245 159.919C62.7369 163.846 64.7741 167.41 67.8473 169.93L69.4573 171.26L63.7273 181.62L62.9473 182.97C61.0761 186.213 60.3879 190.006 60.9999 193.7C61.6119 197.394 63.4863 200.761 66.3034 203.228C69.1205 205.695 72.7061 207.108 76.4487 207.227C80.1913 207.346 83.8593 206.163 86.8273 203.88L116.197 181.29L116.627 180.92L111.457 190.26L110.557 191.83C108.686 195.073 107.998 198.866 108.61 202.56C109.222 206.254 111.096 209.621 113.913 212.088C116.731 214.555 120.316 215.968 124.059 216.087C127.801 216.206 131.469 215.023 134.437 212.74L161.437 191.99C161.596 194.93 162.556 197.772 164.214 200.205C165.871 202.639 168.163 204.573 170.841 205.798C173.519 207.023 176.482 207.491 179.407 207.153C182.332 206.815 185.109 205.683 187.437 203.88L216.817 181.29C218.633 179.891 220.131 178.123 221.212 176.102C222.293 174.081 222.933 171.853 223.089 169.566C223.245 167.28 222.914 164.986 222.117 162.837C221.32 160.688 220.076 158.732 218.467 157.1L217.957 156.58L217.867 156.49L214.217 152.84L221.127 137.17C222.888 135.443 224.491 133.562 225.917 131.55C232.444 130.332 238.571 127.53 243.761 123.388C248.95 119.247 253.042 113.894 255.677 107.8C261.23 104.088 265.391 98.6341 267.503 92.2976C269.616 85.9611 269.561 79.1019 267.347 72.8L267.227 72.78Z" fill="#D1D3D4"/>
</g>
<g style="mix-blend-mode:multiply" opacity="0.74">
<path d="M269.597 70.41C268.666 67.7152 267.356 65.1664 265.707 62.84C267.047 57.3991 266.956 51.704 265.442 46.309C263.928 40.9139 261.043 36.0026 257.069 32.053C253.094 28.1034 248.164 25.25 242.76 23.7704C237.355 22.2909 231.66 22.2356 226.227 23.61C222.724 22.2321 218.992 21.5297 215.227 21.54C211.206 21.5549 207.227 22.3669 203.521 23.9288C199.816 25.4908 196.456 27.7718 193.637 30.64C191.058 29.9673 188.418 29.552 185.757 29.4C181.995 24.1858 177.051 19.9363 171.331 16.999C165.611 14.0616 159.277 12.52 152.847 12.5H151.037C143.724 12.7898 136.627 15.0614 130.504 19.072C124.382 23.0825 119.464 28.6813 116.277 35.27C106.813 37.3526 98.2976 42.4941 92.0473 49.9C72.1273 51.36 55.7773 62.72 49.5073 78.02C46.3523 79.9919 43.522 82.441 41.1173 85.28C35.9042 91.4969 33.1129 99.388 33.2573 107.5C33.1215 110.019 33.2758 112.546 33.7173 115.03C36.2773 129.57 48.5273 140.61 66.9373 146.31C64.7666 149.638 63.8962 153.648 64.4919 157.576C65.0876 161.504 67.1077 165.075 70.1673 167.61L71.7773 168.94L66.0473 179.24L65.2673 180.6C63.4017 183.843 62.7179 187.633 63.3322 191.324C63.9466 195.015 65.8211 198.379 68.6366 200.843C71.4522 203.307 75.0347 204.719 78.7744 204.839C82.5141 204.959 86.1797 203.779 89.1473 201.5L118.527 178.9L118.947 178.54L113.777 187.88L112.847 189.5C110.971 192.744 110.278 196.538 110.887 200.236C111.497 203.933 113.371 207.304 116.19 209.774C119.009 212.243 122.597 213.657 126.343 213.775C130.088 213.893 133.759 212.707 136.727 210.42L163.727 189.67C163.886 192.61 164.846 195.452 166.504 197.885C168.161 200.319 170.453 202.253 173.131 203.478C175.809 204.703 178.772 205.171 181.697 204.833C184.622 204.495 187.399 203.363 189.727 201.56L219.107 178.96C220.925 177.563 222.425 175.795 223.508 173.775C224.591 171.754 225.232 169.526 225.389 167.239C225.546 164.952 225.215 162.657 224.419 160.508C223.622 158.358 222.377 156.402 220.767 154.77L220.247 154.26L220.157 154.17L216.467 150.5L223.377 134.83C225.141 133.105 226.744 131.224 228.167 129.21C236.833 127.606 244.736 123.209 250.667 116.69C253.689 113.37 256.145 109.576 257.937 105.46C263.487 101.745 267.644 96.2908 269.755 89.9548C271.866 83.6189 271.81 76.7609 269.597 70.46V70.41Z" fill="#CECFD1"/>
</g>
<g style="mix-blend-mode:multiply" opacity="0.79">
<path d="M271.967 68.04C271.033 65.3557 269.723 62.8171 268.077 60.5C269.417 55.0591 269.326 49.364 267.812 43.969C266.298 38.5739 263.413 33.6626 259.439 29.713C255.464 25.7634 250.534 22.91 245.13 21.4304C239.725 19.9509 234.03 19.8956 228.597 21.27C225.095 19.8889 221.362 19.1832 217.597 19.19C213.578 19.2074 209.601 20.0204 205.897 21.5823C202.194 23.1441 198.836 25.4239 196.017 28.29C193.433 27.6255 190.791 27.2136 188.127 27.06C184.361 21.8462 179.414 17.5984 173.69 14.6644C167.966 11.7305 161.629 10.1937 155.197 10.18C154.597 10.18 153.997 10.18 153.387 10.18C146.075 10.473 138.979 12.7459 132.857 16.7561C126.735 20.7663 121.817 26.3634 118.627 32.95C109.161 35.0284 100.645 40.1706 94.3973 47.58C74.4873 49.05 58.1473 60.41 51.8473 75.71C48.6923 77.6819 45.862 80.131 43.4573 82.97C38.2732 89.1552 35.49 97.0006 35.6173 105.07C35.4731 107.592 35.6241 110.123 36.0673 112.61C38.6373 127.14 50.8873 138.19 69.2873 143.89C67.1228 147.219 66.2569 151.227 66.8543 155.152C67.4516 159.077 69.4706 162.646 72.5273 165.18L74.1473 166.5L68.4273 176.85L67.6373 178.21C65.7662 181.453 65.0779 185.246 65.6899 188.94C66.3019 192.634 68.1763 196.001 70.9934 198.468C73.8106 200.935 77.3961 202.348 81.1387 202.467C84.8813 202.586 88.5493 201.403 91.5173 199.12L120.897 176.5C121.047 176.39 121.177 176.26 121.317 176.14L116.157 185.5L115.247 187.06C113.376 190.303 112.688 194.096 113.3 197.79C113.912 201.484 115.786 204.851 118.603 207.318C121.421 209.785 125.006 211.198 128.749 211.317C132.491 211.436 136.159 210.253 139.127 207.97L166.127 187.22C166.288 190.16 167.249 193 168.906 195.433C170.564 197.866 172.855 199.8 175.532 201.025C178.209 202.25 181.17 202.72 184.095 202.385C187.02 202.049 189.798 200.92 192.127 199.12L221.437 176.5C223.255 175.103 224.755 173.335 225.838 171.315C226.921 169.294 227.562 167.066 227.719 164.779C227.876 162.492 227.545 160.197 226.749 158.048C225.952 155.898 224.707 153.942 223.097 152.31L222.587 151.8L222.487 151.71L218.847 148.1L225.767 132.42C227.53 130.695 229.133 128.814 230.557 126.8C239.222 125.199 247.125 120.805 253.057 114.29C256.076 110.965 258.528 107.168 260.317 103.05C265.87 99.3376 270.029 93.8833 272.14 87.5465C274.251 81.2097 274.194 74.3506 271.977 68.05L271.967 68.04Z" fill="#CACCCD"/>
</g>
<g style="mix-blend-mode:multiply" opacity="0.84">
<path d="M274.337 65.66C273.403 62.9661 272.094 60.4176 270.447 58.09C271.785 52.6498 271.692 46.956 270.177 41.5624C268.662 36.1688 265.777 31.259 261.803 27.3107C257.829 23.3625 252.9 20.51 247.496 19.0309C242.093 17.5518 236.399 17.4964 230.967 18.87C227.465 17.4889 223.732 16.7832 219.967 16.79C215.947 16.8057 211.97 17.618 208.266 19.18C204.562 20.7419 201.205 23.0225 198.387 25.89C195.805 25.2158 193.162 24.8037 190.497 24.66C186.731 19.4462 181.784 15.1984 176.06 12.2644C170.336 9.33047 163.999 7.79372 157.567 7.78C156.977 7.78 156.367 7.78 155.757 7.78C148.444 8.07089 141.348 10.3429 135.225 14.3534C129.103 18.3638 124.185 23.962 120.997 30.55C111.531 32.6284 103.015 37.7706 96.7673 45.18C76.8473 46.68 60.5173 58.03 54.2373 73.34C51.0823 75.3119 48.252 77.761 45.8473 80.6C40.6632 86.7852 37.88 94.6306 38.0073 102.7C37.8668 105.223 38.0212 107.753 38.4673 110.24C41.0273 124.77 53.2773 135.82 71.6773 141.52C69.5128 144.849 68.6469 148.857 69.2443 152.782C69.8416 156.707 71.8606 160.276 74.9173 162.81L76.5173 164.14L70.8473 174.5L70.0573 175.86C68.2284 179.094 67.5683 182.859 68.1878 186.523C68.8074 190.186 70.6689 193.525 73.4596 195.977C76.2503 198.43 79.8001 199.848 83.5128 199.992C87.2254 200.137 90.8746 198.999 93.8473 196.77L123.227 174.17C123.377 174.06 123.507 173.93 123.647 173.81L118.487 183.14L117.577 184.71C115.706 187.953 115.018 191.746 115.63 195.44C116.242 199.134 118.116 202.501 120.933 204.968C123.751 207.435 127.336 208.848 131.079 208.967C134.821 209.086 138.489 207.903 141.457 205.62L168.457 184.87C168.618 187.81 169.579 190.65 171.236 193.083C172.894 195.516 175.185 197.45 177.862 198.675C180.539 199.9 183.5 200.37 186.425 200.035C189.35 199.699 192.128 198.57 194.457 196.77L223.847 174.17C225.663 172.771 227.161 171.003 228.242 168.982C229.323 166.961 229.963 164.733 230.119 162.447C230.275 160.16 229.944 157.866 229.147 155.717C228.35 153.568 227.106 151.612 225.497 149.98L224.987 149.47L224.887 149.37L221.247 145.73L228.157 130.05C229.92 128.325 231.523 126.444 232.947 124.43C241.614 122.834 249.518 118.44 255.447 111.92C258.469 108.598 260.922 104.8 262.707 100.68C268.258 96.9664 272.417 91.512 274.528 85.1757C276.639 78.8393 276.582 71.9808 274.367 65.68L274.337 65.66Z" fill="#C7C8CA"/>
</g>
<g style="mix-blend-mode:multiply" opacity="0.89">
<path d="M276.717 63.29C275.786 60.599 274.483 58.0511 272.847 55.72C274.029 50.9385 274.105 45.9507 273.072 41.135C272.039 36.3193 269.923 31.8021 266.884 27.9259C263.846 24.0497 259.964 20.9163 255.534 18.7634C251.104 16.6104 246.243 15.4944 241.317 15.5C238.62 15.5021 235.932 15.838 233.317 16.5C229.812 15.1281 226.081 14.426 222.317 14.43C218.305 14.4458 214.335 15.2553 210.636 16.8119C206.938 18.3685 203.584 20.6416 200.767 23.5C198.175 22.8306 195.521 22.4252 192.847 22.29C189.084 17.0803 184.141 12.835 178.423 9.90124C172.705 6.96747 166.374 5.42846 159.947 5.41C159.357 5.41 158.747 5.41 158.147 5.41C150.833 5.69551 143.734 7.96535 137.611 11.9764C131.488 15.9875 126.571 21.5886 123.387 28.18C113.921 30.2522 105.404 35.3915 99.1573 42.8C79.2373 44.3 62.8473 55.66 56.6073 70.96C53.4532 72.9333 50.626 75.3861 48.2273 78.23C43.0388 84.4134 40.2519 92.2591 40.3773 100.33C40.2415 102.849 40.3958 105.376 40.8373 107.86C43.3973 122.4 55.6473 133.44 74.0573 139.15C71.8873 142.476 71.0172 146.484 71.6129 150.411C72.2086 154.337 74.2284 157.907 77.2873 160.44L78.8973 161.77L73.1673 172.13L72.3873 173.5C70.5161 176.743 69.8279 180.536 70.4399 184.23C71.0519 187.924 72.9263 191.291 75.7434 193.758C78.5605 196.225 82.1461 197.638 85.8887 197.757C89.6313 197.876 93.2993 196.693 96.2673 194.41L125.637 171.82C125.787 171.7 125.927 171.57 126.057 171.45L120.897 180.79L119.987 182.36C118.137 185.601 117.464 189.382 118.082 193.063C118.7 196.744 120.572 200.097 123.38 202.556C126.188 205.014 129.76 206.426 133.49 206.553C137.22 206.679 140.879 205.513 143.847 203.25L170.847 182.5C171.006 185.44 171.966 188.282 173.624 190.715C175.281 193.149 177.573 195.083 180.251 196.308C182.929 197.533 185.892 198.001 188.817 197.663C191.742 197.325 194.519 196.193 196.847 194.39L226.227 171.8C228.041 170.399 229.536 168.629 230.615 166.607C231.693 164.584 232.33 162.356 232.483 160.07C232.636 157.783 232.302 155.49 231.503 153.342C230.704 151.194 229.458 149.24 227.847 147.61L227.337 147.09L227.247 147L223.597 143.36L230.507 127.68C232.268 125.952 233.87 124.072 235.297 122.06C241.824 120.842 247.951 118.04 253.141 113.898C258.33 109.757 262.422 104.404 265.057 98.31C270.606 94.5942 274.763 89.1403 276.876 82.8051C278.988 76.4698 278.936 69.6123 276.727 63.31L276.717 63.29Z" fill="#C3C5C7"/>
</g>
<g style="mix-blend-mode:multiply" opacity="0.95">
<path d="M279.087 60.92C278.156 58.2252 276.846 55.6764 275.197 53.35C276.372 48.5706 276.445 43.5866 275.41 38.7749C274.376 33.9632 272.261 29.4496 269.226 25.5753C266.19 21.701 262.314 18.5674 257.89 16.4114C253.466 14.2553 248.609 13.1333 243.687 13.13C240.99 13.1322 238.303 13.4681 235.687 14.13C232.184 12.753 228.452 12.0507 224.687 12.06C220.666 12.075 216.687 12.8869 212.981 14.4488C209.276 16.0108 205.916 18.2918 203.097 21.16C200.519 20.4858 197.879 20.0737 195.217 19.93C191.451 14.7142 186.502 10.4652 180.776 7.53109C175.05 4.597 168.711 3.06136 162.277 3.05002H160.477C153.164 3.33984 146.067 5.61142 139.944 9.62199C133.822 13.6326 128.904 19.2314 125.717 25.82C116.261 27.9242 107.76 33.083 101.527 40.5C81.6073 41.93 65.2573 53.29 58.9873 68.59C55.8283 70.5605 52.9973 73.0135 50.5973 75.86C45.4088 82.0434 42.6219 89.8892 42.7473 97.96C42.6115 100.479 42.7658 103.006 43.2073 105.49C45.7673 120.03 58.0173 131.07 76.4273 136.77C74.2567 140.098 73.3862 144.108 73.9819 148.036C74.5776 151.964 76.5977 155.536 79.6573 158.07L81.2673 159.4L75.5373 169.76L74.7573 171.11C72.8862 174.353 72.1979 178.146 72.8099 181.84C73.4219 185.534 75.2963 188.901 78.1134 191.368C80.9306 193.835 84.5161 195.248 88.2587 195.367C92.0013 195.486 95.6693 194.303 98.6373 192.02L128.007 169.42C128.157 169.31 128.297 169.18 128.437 169.06L123.267 178.4L122.367 179.96C120.491 183.204 119.798 186.998 120.408 190.696C121.017 194.393 122.891 197.764 125.71 200.234C128.529 202.703 132.117 204.117 135.863 204.235C139.608 204.353 143.279 203.167 146.247 200.88L173.247 180.13C173.406 183.071 174.366 185.912 176.024 188.345C177.682 190.779 179.973 192.713 182.651 193.938C185.329 195.163 188.292 195.631 191.217 195.293C194.142 194.955 196.919 193.823 199.247 192.02L228.627 169.42C230.442 168.022 231.939 166.255 233.021 164.235C234.102 162.215 234.742 159.989 234.899 157.704C235.056 155.418 234.726 153.125 233.931 150.977C233.136 148.828 231.894 146.873 230.287 145.24L229.767 144.72L229.677 144.63L226.027 140.98L232.847 125.3C234.61 123.579 236.213 121.701 237.637 119.69C244.164 118.472 250.291 115.67 255.481 111.528C260.67 107.387 264.762 102.034 267.397 95.94C272.95 92.2278 277.111 86.7741 279.223 80.4376C281.336 74.1011 281.281 67.2419 279.067 60.94L279.087 60.92Z" fill="#C0C1C3"/>
</g>
<g style="mix-blend-mode:multiply">
<path d="M281.457 58.55C280.526 55.8552 279.216 53.3064 277.567 50.98C278.907 45.5391 278.816 39.8441 277.302 34.449C275.788 29.0539 272.903 24.1426 268.929 20.193C264.954 16.2434 260.024 13.39 254.62 11.9104C249.215 10.4309 243.52 10.3756 238.087 11.75C234.584 10.3721 230.852 9.66974 227.087 9.68001C223.068 9.69442 219.092 10.5052 215.388 12.0654C211.684 13.6256 208.325 15.9044 205.507 18.77C202.928 18.0926 200.289 17.6673 197.627 17.5C193.859 12.2886 188.911 8.04321 183.188 5.11108C177.464 2.17895 171.128 0.643386 164.697 0.630005H162.887C155.564 0.932413 148.461 3.22026 142.338 7.24873C136.216 11.2772 131.303 16.8947 128.127 23.5C118.665 25.5704 110.149 30.7018 103.897 38.1C83.9773 39.56 67.6273 50.92 61.3573 66.22C58.1993 68.1959 55.3686 70.6521 52.9673 73.5C47.7847 79.6861 45.0018 87.5309 45.1273 95.6C44.9831 98.1223 45.1341 100.653 45.5773 103.14C48.1373 117.66 60.3973 128.7 78.8473 134.4C76.6773 137.726 75.8072 141.734 76.4029 145.661C76.9986 149.587 79.0184 153.157 82.0773 155.69L83.6873 157.02L77.9573 167.38L77.1773 168.74C75.3061 171.983 74.6179 175.776 75.2299 179.47C75.8419 183.164 77.7163 186.531 80.5334 188.998C83.3505 191.465 86.9361 192.878 90.6787 192.997C94.4213 193.116 98.0893 191.933 101.057 189.65L130.437 167.05C130.587 166.94 130.717 166.81 130.857 166.69L125.697 176.03L124.787 177.59C122.94 180.828 122.268 184.605 122.884 188.282C123.5 191.959 125.367 195.31 128.17 197.769C130.972 200.228 134.538 201.644 138.263 201.777C141.989 201.91 145.647 200.753 148.617 198.5L175.617 177.75C175.776 180.69 176.736 183.532 178.394 185.965C180.051 188.399 182.343 190.333 185.021 191.558C187.699 192.783 190.662 193.251 193.587 192.913C196.512 192.575 199.289 191.443 201.617 189.64L230.997 167.04C232.815 165.643 234.315 163.875 235.398 161.855C236.481 159.834 237.122 157.606 237.279 155.319C237.436 153.032 237.105 150.737 236.309 148.588C235.512 146.438 234.267 144.482 232.657 142.85L232.137 142.34L232.047 142.25L228.397 138.6L235.307 122.92C237.075 121.2 238.679 119.318 240.097 117.3C248.766 115.702 256.673 111.308 262.607 104.79C265.615 101.469 268.061 97.6792 269.847 93.57C275.397 89.8552 279.554 84.4008 281.665 78.0648C283.776 71.7289 283.72 64.871 281.507 58.57L281.457 58.55Z" fill="#BCBEC0"/>
</g>
</g>
<path d="M279.907 60.1C278.967 57.3994 277.658 54.8418 276.017 52.5C277.196 47.7216 277.272 42.7376 276.24 37.9254C275.208 33.1132 273.094 28.599 270.059 24.7246C267.023 20.8503 263.147 17.7173 258.721 15.5629C254.296 13.4086 249.439 12.2894 244.517 12.29C241.82 12.2923 239.133 12.6282 236.517 13.29C233.014 11.9103 229.282 11.2046 225.517 11.21C221.497 11.2287 217.52 12.0433 213.816 13.6069C210.112 15.1705 206.755 17.4521 203.937 20.32C201.355 19.6466 198.712 19.2312 196.047 19.08C192.284 13.8722 187.34 9.6295 181.622 6.69907C175.904 3.76864 169.573 2.23375 163.147 2.22C162.547 2.22 161.947 2.22 161.337 2.22C154.022 2.50752 146.923 4.77929 140.8 8.79206C134.677 12.8048 129.76 18.4074 126.577 25C117.103 27.071 108.583 32.2228 102.347 39.65C82.4273 41.11 66.0773 52.5 59.8473 67.78C56.6969 69.7462 53.8729 72.1924 51.4773 75.03C46.2814 81.2176 43.4908 89.0712 43.6173 97.15C43.4823 99.6693 43.6366 102.196 44.0773 104.68C46.6473 119.21 58.8873 130.26 77.2873 135.96C75.1228 139.289 74.2569 143.297 74.8543 147.222C75.4516 151.147 77.4706 154.716 80.5273 157.25L82.1373 158.58L76.4073 168.94L75.6173 170.3C73.7517 173.543 73.0679 177.333 73.6823 181.024C74.2966 184.715 76.1711 188.079 78.9866 190.543C81.8022 193.007 85.3848 194.419 89.1244 194.539C92.8641 194.659 96.5297 193.479 99.4973 191.2L128.847 168.61C128.997 168.5 129.127 168.36 129.267 168.24L124.097 177.57L123.187 179.15C121.322 182.393 120.638 186.183 121.252 189.874C121.867 193.565 123.741 196.928 126.557 199.393C129.372 201.857 132.955 203.269 136.694 203.389C140.434 203.509 144.1 202.329 147.067 200.05L174.067 179.31C174.226 182.25 175.186 185.092 176.844 187.525C178.501 189.959 180.793 191.893 183.471 193.118C186.149 194.343 189.112 194.811 192.037 194.473C194.962 194.135 197.739 193.003 200.067 191.2L229.437 168.61C231.256 167.213 232.756 165.445 233.839 163.424C234.922 161.403 235.563 159.175 235.719 156.887C235.875 154.6 235.543 152.305 234.744 150.155C233.946 148.006 232.699 146.051 231.087 144.42L230.577 143.9L230.487 143.81L226.837 140.16L233.687 124.5C235.45 122.775 237.054 120.894 238.477 118.88C245.004 117.66 251.132 114.856 256.322 110.715C261.513 106.574 265.608 101.223 268.247 95.13C273.792 91.4105 277.945 85.9558 280.055 79.6215C282.165 73.2872 282.113 66.4316 279.907 60.13V60.1Z" fill="white"/>
<path d="M281.457 58.55C280.526 55.8552 279.216 53.3064 277.567 50.98C278.907 45.5391 278.816 39.8441 277.302 34.449C275.788 29.0539 272.903 24.1426 268.929 20.193C264.954 16.2434 260.024 13.39 254.62 11.9104C249.215 10.4309 243.52 10.3756 238.087 11.75C234.584 10.3721 230.852 9.66974 227.087 9.68001C223.068 9.69442 219.092 10.5052 215.388 12.0654C211.684 13.6256 208.325 15.9044 205.507 18.77C202.928 18.0926 200.289 17.6673 197.627 17.5C193.859 12.2886 188.911 8.04321 183.188 5.11108C177.464 2.17895 171.128 0.643386 164.697 0.630005H162.887C155.564 0.932413 148.461 3.22026 142.338 7.24873C136.216 11.2772 131.303 16.8947 128.127 23.5C118.665 25.5704 110.149 30.7018 103.897 38.1C83.9773 39.56 67.6273 50.92 61.3573 66.22C58.1993 68.1959 55.3686 70.6521 52.9673 73.5C47.7847 79.6861 45.0018 87.5309 45.1273 95.6C44.9831 98.1223 45.1341 100.653 45.5773 103.14C48.1373 117.66 60.3973 128.7 78.8473 134.4C76.6773 137.726 75.8072 141.734 76.4029 145.661C76.9986 149.587 79.0184 153.157 82.0773 155.69L83.6873 157.02L77.9573 167.38L77.1773 168.74C75.3061 171.983 74.6179 175.776 75.2299 179.47C75.8419 183.164 77.7163 186.531 80.5334 188.998C83.3505 191.465 86.9361 192.878 90.6787 192.997C94.4213 193.116 98.0893 191.933 101.057 189.65L130.437 167.05C130.587 166.94 130.717 166.81 130.857 166.69L125.697 176.03L124.787 177.59C122.94 180.828 122.268 184.605 122.884 188.282C123.5 191.959 125.367 195.31 128.17 197.769C130.972 200.228 134.538 201.644 138.263 201.777C141.989 201.91 145.647 200.753 148.617 198.5L175.617 177.75C175.776 180.69 176.736 183.532 178.394 185.965C180.051 188.399 182.343 190.333 185.021 191.558C187.699 192.783 190.662 193.251 193.587 192.913C196.512 192.575 199.289 191.443 201.617 189.64L230.997 167.04C232.815 165.643 234.315 163.875 235.398 161.855C236.481 159.834 237.122 157.606 237.279 155.319C237.436 153.032 237.105 150.737 236.309 148.588C235.512 146.438 234.267 144.482 232.657 142.85L232.137 142.34L232.047 142.25L228.397 138.6L235.307 122.92C237.075 121.2 238.679 119.318 240.097 117.3C248.766 115.702 256.673 111.308 262.607 104.79C265.615 101.469 268.061 97.6792 269.847 93.57C275.397 89.8552 279.554 84.4008 281.665 78.0648C283.776 71.7289 283.72 64.871 281.507 58.57L281.457 58.55Z" fill="url(#paint0_linear)"/>
<path d="M173.347 112.87L140.177 146.01L154.697 158.02L138.747 185.68L173.447 158.99L172.847 158.38L158.937 145.55L173.347 112.87Z" fill="#E69100"/>
<path d="M173.347 112.87L140.777 145.43L140.767 145.42L154.697 156.95L139.677 184.06L172.867 158.39L158.937 144.47L173.347 112.87Z" fill="#FFBB00"/>
<g style="mix-blend-mode:screen" opacity="0.2">
<g style="mix-blend-mode:screen" opacity="0.2">
<path d="M156.517 149.97C159.313 149.968 162.107 150.115 164.887 150.41L158.947 144.5L173.357 112.9L140.787 145.46L146.957 150.56C150.13 150.178 153.322 149.981 156.517 149.97Z" fill="#FFBB00"/>
</g>
<g style="mix-blend-mode:screen" opacity="0.2">
<path d="M140.777 145.43L140.767 145.42L140.777 145.43Z" fill="#FFBB00"/>
</g>
</g>
<path d="M120.427 115.19L92.3473 143.24L104.637 153.42L91.1373 176.82L120.517 154.24L120.017 153.72L108.227 142.86L120.427 115.19Z" fill="#E69100"/>
<path d="M120.427 115.19L92.8573 142.77L92.8473 142.75L104.637 152.51L91.9273 175.46L120.017 153.73L108.227 141.94L120.427 115.19Z" fill="#FFBB00"/>
<g style="mix-blend-mode:screen" opacity="0.2">
<g style="mix-blend-mode:screen" opacity="0.2">
<path d="M106.177 146.6C108.607 146.6 110.967 146.74 113.267 146.97L108.267 141.97L120.467 115.21L92.8473 142.75L98.0773 147.07C100.766 146.759 103.471 146.602 106.177 146.6Z" fill="#FFBB00"/>
</g>
<g style="mix-blend-mode:screen" opacity="0.2">
<path d="M92.8573 142.77V142.75H92.8473L92.8573 142.77Z" fill="#FFBB00"/>
</g>
</g>
<path d="M220.967 115.19L192.897 143.24L205.187 153.42L191.677 176.82L221.057 154.24L220.557 153.72L208.767 142.86L220.967 115.19Z" fill="#E69100"/>
<path d="M220.967 115.19L193.397 142.77V142.75L205.187 152.51L192.477 175.46L220.557 153.73L208.767 141.94L220.967 115.19Z" fill="#FFBB00"/>
<g style="mix-blend-mode:screen" opacity="0.2">
<g style="mix-blend-mode:screen" opacity="0.2">
<path d="M206.727 146.6C209.147 146.6 211.507 146.74 213.807 146.97L208.807 141.97L221.007 115.21L193.437 142.78L198.657 147.1C201.336 146.78 204.03 146.613 206.727 146.6Z" fill="#FFBB00"/>
</g>
</g>
<path d="M106.357 56.06C108.476 55.9634 110.598 56.0235 112.707 56.24C116.487 47.43 125.707 40.98 136.767 40.5C137.974 40.4464 139.184 40.4731 140.387 40.58C140.993 34.9255 143.552 29.6594 147.624 25.6895C151.696 21.7196 157.025 19.2946 162.693 18.8325C168.361 18.3704 174.013 19.9003 178.674 23.1582C183.335 26.4162 186.714 31.1982 188.227 36.68C190.218 36.0512 192.282 35.6848 194.367 35.59C200.439 35.3213 206.393 37.3232 211.068 41.2057C215.744 45.0881 218.806 50.5726 219.657 56.59C222.97 54.4956 226.737 53.226 230.642 52.8876C234.547 52.5492 238.476 53.1518 242.1 54.645C245.724 56.1381 248.937 58.4783 251.471 61.4693C254.004 64.4603 255.783 68.015 256.659 71.8354C257.535 75.6558 257.482 79.6305 256.506 83.4264C255.529 87.2223 253.656 90.7287 251.045 93.6518C248.434 96.5748 245.16 98.8292 241.498 100.226C237.836 101.623 233.892 102.122 229.997 101.68C228.963 104.818 227.304 107.715 225.119 110.194C222.935 112.674 220.271 114.685 217.288 116.106C214.305 117.528 211.064 118.33 207.763 118.465C204.461 118.6 201.166 118.064 198.077 116.89C191.947 123.46 181.517 128.04 169.517 128.56C153.517 129.28 139.587 122.56 134.767 112.63C131.88 115.001 128.486 116.677 124.849 117.53C121.211 118.384 117.427 118.391 113.786 117.551C110.145 116.712 106.746 115.048 103.849 112.689C100.952 110.329 98.6355 107.336 97.0773 103.94C84.4773 101.03 74.7473 96.66 74.7473 81.94C74.7473 68.42 88.2973 56.85 106.357 56.06Z" fill="#1A485E"/>
<path d="M106.357 54.16C108.475 54.0652 110.597 54.122 112.707 54.33C116.487 45.54 125.707 39.08 136.767 38.59C137.975 38.5496 139.183 38.5797 140.387 38.68C140.993 33.0255 143.552 27.7594 147.624 23.7895C151.696 19.8196 157.025 17.3946 162.693 16.9325C168.361 16.4705 174.013 18.0003 178.674 21.2582C183.335 24.5162 186.714 29.2982 188.227 34.78C190.218 34.1512 192.282 33.7848 194.367 33.69C200.439 33.4213 206.393 35.4233 211.068 39.3057C215.744 43.1881 218.806 48.6726 219.657 54.69C222.835 52.7155 226.423 51.4958 230.145 51.1247C233.868 50.7537 237.626 51.2411 241.131 52.5495C244.636 53.858 247.794 55.9526 250.363 58.6724C252.931 61.3922 254.842 64.6648 255.948 68.2386C257.055 71.8124 257.327 75.5922 256.744 79.2875C256.161 82.9829 254.738 86.4954 252.585 89.555C250.433 92.6146 247.607 95.1399 244.326 96.9368C241.044 98.7336 237.395 99.7542 233.657 99.92C232.446 99.9691 231.232 99.9223 230.027 99.78C228.997 102.921 227.34 105.82 225.156 108.302C222.972 110.784 220.308 112.797 217.324 114.219C214.339 115.641 211.098 116.442 207.795 116.575C204.491 116.707 201.196 116.168 198.107 114.99C191.977 121.55 181.547 126.13 169.547 126.66C153.547 127.37 139.617 120.66 134.797 110.73C131.91 113.101 128.516 114.777 124.879 115.63C121.241 116.484 117.457 116.491 113.816 115.651C110.175 114.812 106.776 113.148 103.879 110.789C100.982 108.429 98.6655 105.436 97.1073 102.04C84.5073 99.13 74.7773 94.75 74.7773 80.04C74.7473 66.5 88.2973 54.95 106.357 54.16Z" fill="#276C8D"/>
<g style="mix-blend-mode:screen" opacity="0.15">
<path d="M165.847 73.67C199.727 73.67 230.967 76.78 256.077 82.02C257.403 77.2764 257.265 72.2429 255.682 67.5789C254.099 62.9149 251.144 58.8378 247.204 55.8817C243.264 52.9256 238.524 51.2282 233.603 51.012C228.682 50.7958 223.811 52.0708 219.627 54.67C218.776 48.6526 215.714 43.1681 211.038 39.2857C206.363 35.4033 200.409 33.4013 194.337 33.67C192.252 33.7648 190.188 34.1312 188.197 34.76C186.684 29.2783 183.305 24.4962 178.644 21.2383C173.983 17.9803 168.331 16.4505 162.663 16.9125C156.995 17.3746 151.666 19.7996 147.594 23.7695C143.522 27.7394 140.963 33.0055 140.357 38.66C139.153 38.5597 137.945 38.5297 136.737 38.57C125.737 39.06 116.457 45.57 112.677 54.31C110.567 54.1021 108.445 54.0452 106.327 54.14C88.2973 54.95 74.7473 66.5 74.7473 80.04C74.7473 80.79 74.7473 81.5 74.8373 82.2C100.097 76.85 131.637 73.67 165.847 73.67Z" fill="#7F8C8D"/>
</g>
<path d="M222.637 87.66C224.304 88.4632 226.113 88.9301 227.961 89.0341C229.809 89.1381 231.658 88.8771 233.405 88.2661C235.152 87.6551 236.761 86.706 238.141 85.473C239.521 84.24 240.644 82.7472 241.447 81.08C241.914 80.1247 242.266 79.1178 242.497 78.08C243.713 79.3956 245.165 80.4709 246.777 81.25C248.443 82.053 250.251 82.5201 252.097 82.6245C253.943 82.729 255.792 82.4687 257.538 81.8586C259.284 81.2485 260.892 80.3006 262.272 79.0689C263.651 77.8372 264.774 76.3458 265.577 74.68C266.38 73.0142 266.847 71.2065 266.952 69.3602C267.056 67.5139 266.796 65.6651 266.186 63.9193C265.576 62.1736 264.628 60.5651 263.396 59.1857C262.164 57.8063 260.673 56.683 259.007 55.88C258.404 55.5962 257.783 55.3524 257.147 55.15C260.23 52.3712 262.134 48.5195 262.47 44.383C262.806 40.2465 261.549 36.138 258.955 32.898C256.362 29.6581 252.628 27.5317 248.518 26.9539C244.409 26.3762 240.234 27.3907 236.847 29.79C235.783 28.7547 234.557 27.9002 233.217 27.26C230.29 25.8541 226.966 25.5034 223.81 26.2674C220.653 27.0314 217.858 28.8631 215.897 31.4521C213.937 34.0412 212.931 37.2284 213.052 40.4738C213.172 43.7192 214.41 46.8232 216.557 49.26C213.665 49.842 211.028 51.3181 209.019 53.4798C207.011 55.6415 205.732 58.3796 205.364 61.3073C204.996 64.235 205.557 67.2043 206.968 69.7958C208.379 72.3874 210.569 74.4702 213.227 75.75C213.728 75.9858 214.243 76.1928 214.767 76.37C215.003 78.768 215.851 81.0653 217.229 83.0421C218.607 85.0188 220.469 86.6088 222.637 87.66Z" fill="#1E546E"/>
<path d="M222.637 85.72C224.304 86.5249 226.112 86.9934 227.96 87.0988C229.807 87.2041 231.657 86.9443 233.404 86.3341C235.151 85.7239 236.761 84.7753 238.141 83.5426C239.521 82.3099 240.645 80.8173 241.447 79.15C241.92 78.1763 242.273 77.1488 242.497 76.09C243.704 77.4176 245.158 78.4977 246.777 79.27C248.443 80.0731 250.251 80.5401 252.097 80.6445C253.943 80.749 255.792 80.4887 257.538 79.8786C259.284 79.2686 260.892 78.3206 262.272 77.0889C263.651 75.8572 264.774 74.3658 265.577 72.7C266.38 71.0342 266.847 69.2265 266.952 67.3802C267.056 65.5339 266.796 63.6851 266.186 61.9393C265.576 60.1936 264.628 58.5851 263.396 57.2057C262.164 55.8263 260.673 54.7031 259.007 53.9C258.404 53.6195 257.782 53.3789 257.147 53.18C260.135 50.3757 261.956 46.5477 262.245 42.4601C262.535 38.3725 261.272 34.326 258.71 31.1284C256.147 27.9307 252.473 25.8171 248.42 25.2094C244.368 24.6018 240.235 25.5447 236.847 27.85C234.22 25.3388 230.724 23.9401 227.089 23.9461C223.454 23.952 219.963 25.3623 217.344 27.8821C214.724 30.4019 213.18 33.8364 213.034 37.468C212.887 41.0996 214.15 44.6474 216.557 47.37C213.667 47.9516 211.032 49.4264 209.025 51.5864C207.018 53.7463 205.741 56.4821 205.373 59.4074C205.005 62.3327 205.565 65.2998 206.974 67.8895C208.384 70.4792 210.571 72.5607 213.227 73.84C213.728 74.079 214.242 74.2894 214.767 74.47C215.008 76.8615 215.858 79.1514 217.236 81.1209C218.614 83.0905 220.473 84.6739 222.637 85.72Z" fill="#0A8BC9"/>
<g style="mix-blend-mode:screen" opacity="0.1">
<path d="M236.117 55.5C245.161 55.4833 254.199 55.9775 263.187 56.98C261.999 55.6956 260.581 54.6442 259.007 53.88C258.404 53.5995 257.782 53.3589 257.147 53.16C260.105 50.3483 261.9 46.5282 262.174 42.4562C262.449 38.3843 261.185 34.3577 258.631 31.174C256.078 27.9903 252.422 25.8818 248.387 25.2662C244.353 24.6506 240.234 25.5727 236.847 27.85C234.22 25.3388 230.724 23.9401 227.089 23.9461C223.454 23.952 219.963 25.3623 217.344 27.8821C214.724 30.4019 213.18 33.8364 213.034 37.468C212.887 41.0996 214.15 44.6474 216.557 47.37C214.428 47.7925 212.426 48.7045 210.709 50.034C208.993 51.3634 207.609 53.0738 206.667 55.03C206.296 55.7935 205.998 56.5904 205.777 57.41C215.839 56.1164 225.973 55.4784 236.117 55.5Z" fill="#9AAAAB"/>
</g>
<path d="M158.137 94.92C156.957 82.56 142.027 75.5 131.607 81.42C130.813 76.1548 128.205 71.3322 124.235 67.7844C120.264 64.2365 115.179 62.1861 109.858 61.987C104.537 61.7878 99.3134 63.4525 95.0887 66.6936C90.8639 69.9347 87.9031 74.549 86.7173 79.74C84.8331 79.2476 82.8948 78.9923 80.9473 78.98C69.0573 78.98 59.4773 88.84 61.5073 100.31C66.9673 131.19 161.487 130.37 158.137 94.92Z" fill="#205A75"/>
<path d="M158.137 92.74C156.957 80.38 142.027 73.32 131.607 79.24C130.813 73.9749 128.205 69.1522 124.235 65.6044C120.264 62.0565 115.179 60.0061 109.858 59.807C104.537 59.6078 99.3134 61.2725 95.0887 64.5136C90.8639 67.7547 87.9031 72.369 86.7173 77.56C84.8335 77.0643 82.8952 76.8056 80.9473 76.79C69.0573 76.79 59.4773 86.65 61.5073 98.13C66.9673 129.01 161.487 128.19 158.137 92.74Z" fill="#1981B3"/>
<g style="mix-blend-mode:screen" opacity="0.1">
<path d="M109.467 92.26C125.763 92.1897 142.042 93.2992 158.177 95.58C158.247 94.6347 158.247 93.6854 158.177 92.74C156.997 80.38 142.067 73.32 131.647 79.24C130.853 73.9749 128.245 69.1522 124.274 65.6044C120.304 62.0565 115.219 60.0061 109.898 59.807C104.577 59.6078 99.3534 61.2725 95.1287 64.5136C90.9039 67.7547 87.9431 72.369 86.7573 77.56C84.8735 77.0643 82.9352 76.8056 80.9873 76.79C69.9873 76.79 61.0373 85.18 61.3073 95.5C77.2633 93.2774 93.3574 92.1947 109.467 92.26Z" fill="#8A9899"/>
</g>
<path style="mix-blend-mode:multiply" d="M281.457 58.55C280.526 55.8552 279.216 53.3064 277.567 50.98C278.907 45.5391 278.816 39.8441 277.302 34.449C275.788 29.0539 272.903 24.1426 268.929 20.193C264.954 16.2434 260.024 13.39 254.62 11.9104C249.215 10.4309 243.52 10.3756 238.087 11.75C234.584 10.3721 230.852 9.66974 227.087 9.68001C223.068 9.69442 219.092 10.5052 215.388 12.0654C211.684 13.6256 208.325 15.9044 205.507 18.77C202.928 18.0926 200.289 17.6673 197.627 17.5C193.859 12.2886 188.911 8.04321 183.188 5.11108C177.464 2.17895 171.128 0.643386 164.697 0.630005H162.887C155.564 0.932413 148.461 3.22026 142.338 7.24873C136.216 11.2772 131.303 16.8947 128.127 23.5C118.665 25.5704 110.149 30.7018 103.897 38.1C83.9773 39.56 67.6273 50.92 61.3573 66.22C58.1993 68.1959 55.3686 70.6521 52.9673 73.5C47.7847 79.6861 45.0018 87.5309 45.1273 95.6C44.9831 98.1223 45.1341 100.653 45.5773 103.14C48.1373 117.66 60.3973 128.7 78.8473 134.4C76.6773 137.726 75.8072 141.734 76.4029 145.661C76.9986 149.587 79.0184 153.157 82.0773 155.69L83.6873 157.02L77.9573 167.38L77.1773 168.74C75.3061 171.983 74.6179 175.776 75.2299 179.47C75.8419 183.164 77.7163 186.531 80.5334 188.998C83.3505 191.465 86.9361 192.878 90.6787 192.997C94.4213 193.116 98.0893 191.933 101.057 189.65L130.437 167.05C130.587 166.94 130.717 166.81 130.857 166.69L125.697 176.03L124.787 177.59C122.94 180.828 122.268 184.605 122.884 188.282C123.5 191.959 125.367 195.31 128.17 197.769C130.972 200.228 134.538 201.644 138.263 201.777C141.989 201.91 145.647 200.753 148.617 198.5L175.617 177.75C175.776 180.69 176.736 183.532 178.394 185.965C180.051 188.399 182.343 190.333 185.021 191.558C187.699 192.783 190.662 193.251 193.587 192.913C196.512 192.575 199.289 191.443 201.617 189.64L230.997 167.04C232.815 165.643 234.315 163.875 235.398 161.855C236.481 159.834 237.122 157.606 237.279 155.319C237.436 153.032 237.105 150.737 236.309 148.588C235.512 146.438 234.267 144.482 232.657 142.85L232.137 142.34L232.047 142.25L228.397 138.6L235.307 122.92C237.075 121.2 238.679 119.318 240.097 117.3C248.766 115.702 256.673 111.308 262.607 104.79C265.615 101.469 268.061 97.6792 269.847 93.57C275.397 89.8552 279.554 84.4008 281.665 78.0648C283.776 71.7289 283.72 64.871 281.507 58.57L281.457 58.55Z" fill="url(#paint1_linear)"/>
<defs>
<linearGradient id="paint0_linear" x1="57.8473" y1="202.84" x2="208.687" y2="51.99" gradientUnits="userSpaceOnUse">
<stop stop-color="#E6E6E6"/>
<stop offset="1" stop-color="#FAFAFA"/>
</linearGradient>
<linearGradient id="paint1_linear" x1="76.9273" y1="183.76" x2="249.057" y2="11.63" gradientUnits="userSpaceOnUse">
<stop offset="0.39" stop-color="white"/>
<stop offset="0.55" stop-color="#FDFDFD"/>
<stop offset="0.61" stop-color="#F6F6F6"/>
<stop offset="0.65" stop-color="#EBEBEB"/>
<stop offset="0.68" stop-color="#DADADA"/>
<stop offset="0.71" stop-color="#C4C4C4"/>
<stop offset="0.72" stop-color="#BABABA"/>
<stop offset="0.77" stop-color="#BDBDBD"/>
<stop offset="0.99" stop-color="#BFBFBF"/>
</linearGradient>
</defs>
</svg>
