<svg width="301" height="300" viewBox="0 0 301 300" fill="none" xmlns="http://www.w3.org/2000/svg">
<g clip-path="url(#clip0)">
<path d="M290.82 115.63L289.99 114.96C289.944 114.926 289.901 114.89 289.86 114.85L261.57 92.11L265.49 56C265.818 53.0034 265.469 49.9714 264.468 47.1277C263.468 44.284 261.842 41.7011 259.71 39.5696C257.579 37.438 254.996 35.8121 252.152 34.8118C249.309 33.8115 246.277 33.4623 243.28 33.79L207.21 37.71L184.46 9.46003C182.573 7.10932 180.182 5.21224 177.464 3.90871C174.746 2.60519 171.77 1.92847 168.755 1.92847C165.74 1.92847 162.764 2.60519 160.046 3.90871C157.328 5.21224 154.937 7.10932 153.05 9.46003L130.31 37.75L94.24 33.83C91.2463 33.5018 88.2171 33.8491 85.3754 34.8465C82.5337 35.8438 79.9518 37.4657 77.8198 39.5929C75.6879 41.72 74.0601 44.2983 73.0564 47.1377C72.0526 49.9772 71.6985 53.0056 72.02 56L75.94 92.07L48.83 113.87L47.74 114.72L46.74 115.51C44.3963 117.399 42.5055 119.788 41.2064 122.503C39.9073 125.218 39.233 128.19 39.233 131.2C39.233 134.21 39.9073 137.182 41.2064 139.897C42.5055 142.612 44.3963 145.001 46.74 146.89L75.8 170.38L72.03 205.03C72.03 205.31 72.03 205.59 72.03 205.87L71.95 206.61C71.6213 209.607 71.9692 212.639 72.9681 215.484C73.9671 218.328 75.5916 220.913 77.722 223.046C79.8524 225.179 82.4343 226.807 85.2775 227.81C88.1207 228.813 91.1527 229.165 94.15 228.84L129.66 225L153.15 253.83C155.039 256.15 157.42 258.021 160.122 259.306C162.824 260.592 165.778 261.259 168.77 261.26C171.767 261.255 174.725 260.583 177.431 259.292C180.136 258.002 182.52 256.126 184.41 253.8L207.79 225L243.24 228.91C246.119 229.231 249.033 228.926 251.782 228.016C254.532 227.106 257.053 225.613 259.173 223.639C261.292 221.665 262.96 219.256 264.063 216.578C265.165 213.899 265.676 211.014 265.56 208.12C265.617 207.12 265.593 206.117 265.49 205.12L261.73 170.5L290.85 147.11C293.204 145.222 295.105 142.829 296.411 140.108C297.716 137.387 298.394 134.408 298.394 131.39C298.394 128.372 297.716 125.393 296.411 122.672C295.105 119.951 293.204 117.558 290.85 115.67L290.82 115.63Z" fill="white"/>
<path d="M292.75 113.69L291.92 113.03C291.879 112.99 291.836 112.954 291.79 112.92L263.51 90.18L267.42 54.11C267.749 51.1126 267.401 48.0794 266.402 45.2345C265.402 42.3895 263.777 39.8053 261.645 37.6726C259.513 35.5399 256.93 33.913 254.085 32.9122C251.241 31.9113 248.208 31.562 245.21 31.89L209.15 35.81L186.39 7.52998C184.503 5.17926 182.112 3.28218 179.394 1.97866C176.676 0.675132 173.7 -0.00158691 170.685 -0.00158691C167.67 -0.00158691 164.694 0.675132 161.976 1.97866C159.258 3.28218 156.867 5.17926 154.98 7.52998L132.24 35.81L96.15 31.89C93.1544 31.5672 90.1245 31.9202 87.2834 32.9232C84.4423 33.9262 81.8623 35.5535 79.7332 37.6854C77.6042 39.8173 75.9804 42.3996 74.9812 45.242C73.9821 48.0845 73.6331 51.1148 73.96 54.11L77.87 90.18L50.76 112L49.68 112.84L48.68 113.64C46.3381 115.529 44.4488 117.918 43.1509 120.632C41.8529 123.346 41.1792 126.316 41.1792 129.325C41.1792 132.334 41.8529 135.304 43.1509 138.018C44.4488 140.732 46.3381 143.121 48.68 145.01L77.74 168.5L73.98 203.16C73.98 203.44 73.98 203.72 73.98 203.99L73.9 204.74C73.5774 207.735 73.9303 210.764 74.9328 213.604C75.9352 216.444 77.5616 219.024 79.6923 221.152C81.8231 223.281 84.404 224.905 87.2452 225.905C90.0864 226.905 93.1156 227.255 96.11 226.93L131.66 223.09L155.13 251.92C157.019 254.24 159.401 256.11 162.103 257.395C164.804 258.68 167.758 259.348 170.75 259.35C173.748 259.345 176.707 258.672 179.413 257.38C182.118 256.087 184.502 254.209 186.39 251.88L209.73 223L245.15 226.93C248.028 227.249 250.942 226.943 253.691 226.032C256.44 225.122 258.96 223.629 261.079 221.655C263.198 219.681 264.866 217.273 265.969 214.596C267.072 211.918 267.584 209.034 267.47 206.14C267.523 205.139 267.496 204.136 267.39 203.14L263.63 168.53L292.75 145.13C295.101 143.24 296.998 140.846 298.302 138.126C299.606 135.405 300.282 132.427 300.282 129.41C300.282 126.393 299.606 123.415 298.302 120.694C296.998 117.974 295.101 115.58 292.75 113.69Z" fill="url(#paint0_linear)"/>
<path d="M170.68 64.8201C157.75 64.824 145.111 68.6619 134.362 75.8483C123.613 83.0348 115.236 93.2471 110.291 105.194C105.346 117.141 104.054 130.286 106.579 142.967C109.104 155.648 115.332 167.296 124.476 176.438C133.621 185.579 145.27 191.804 157.952 194.325C170.634 196.846 183.779 195.55 195.724 190.601C207.67 185.652 217.88 177.272 225.063 166.521C232.246 155.77 236.08 143.13 236.08 130.2C236.081 121.612 234.39 113.108 231.104 105.174C227.818 97.2399 223 90.0311 216.926 83.9594C210.853 77.8878 203.643 73.0724 195.708 69.7884C187.772 66.5044 179.268 64.8161 170.68 64.8201Z" fill="#E69100"/>
<path d="M242.27 159.86L280.15 129.42L279.15 128.63L241.89 99.31L246.48 52.73L200.15 57.56L170.68 21.73L141.38 57.62L94.6 52.52L99.47 99.31L62.31 128.53L61.31 129.32L99.15 159.85L94.05 205.27L93.87 206.87L140.31 201.87L170.68 239.18L201 201.79L247.39 206.91L242.27 159.86ZM200.35 200.07C191.09 203.07 180.94 205.72 170.68 205.72C160.42 205.72 150.55 202.81 141.28 199.86C132.63 195.4 124.54 190.86 117.28 183.6C110.246 176.548 104.343 168.453 99.78 159.6C93.6202 140.518 93.6202 119.982 99.78 100.9C108.913 83.0073 123.456 68.4503 141.34 59.3C160.422 53.1401 180.958 53.1401 200.04 59.3C217.903 68.4469 232.439 82.9788 241.59 100.84C247.75 119.929 247.75 140.471 241.59 159.56C237.034 168.415 231.134 176.511 224.1 183.56C216.83 190.86 209.03 195.62 200.35 200.07Z" fill="#E69100"/>
<path d="M236.08 128.63C236.078 141.56 232.242 154.198 225.058 164.948C217.874 175.698 207.663 184.077 195.718 189.024C183.772 193.972 170.627 195.266 157.946 192.744C145.265 190.222 133.616 183.996 124.473 174.854C115.33 165.712 109.102 154.064 106.578 141.384C104.054 128.703 105.346 115.558 110.292 103.612C115.238 91.6653 123.614 81.4535 134.363 74.2675C145.112 67.0815 157.75 63.2439 170.68 63.24C179.268 63.2387 187.772 64.9291 195.707 68.2146C203.641 71.5002 210.851 76.3166 216.924 82.3887C222.997 88.4609 227.815 95.6699 231.102 103.604C234.388 111.538 236.08 120.042 236.08 128.63Z" fill="#FFBB00"/>
<path d="M242.27 158.28L279.15 128.63L242.27 99L247.39 52L200.34 57.12L170.68 20.16L141.04 57.05L94.04 51.93L99.15 99L62.22 128.63L99.15 158.28L94.03 205.28L141.03 200.16L170.67 237.05L200.33 200.16L247.38 205.28L242.27 158.28ZM200.04 199.53C180.963 205.677 160.437 205.677 141.36 199.53C123.485 190.397 108.94 175.866 99.79 158C93.63 138.915 93.63 118.375 99.79 99.29C108.937 81.4164 123.482 66.8784 141.36 57.74C160.434 51.5934 180.956 51.5934 200.03 57.74C217.893 66.8903 232.431 81.4209 241.59 99.28C247.75 118.372 247.75 138.918 241.59 158.01C232.447 175.877 217.909 190.411 200.04 199.55V199.53Z" fill="#FFBB00"/>
<g style="mix-blend-mode:screen" opacity="0.2">
<path d="M170.68 128.6C192.496 128.576 214.297 129.768 235.98 132.17C236.04 131 236.08 129.82 236.08 128.63C236.08 111.29 229.192 94.6605 216.931 82.3994C204.67 70.1382 188.04 63.25 170.7 63.25C153.36 63.25 136.73 70.1382 124.469 82.3994C112.208 94.6605 105.32 111.29 105.32 128.63C105.32 129.817 105.35 130.997 105.41 132.17C127.083 129.769 148.874 128.577 170.68 128.6Z" fill="#FFBB00"/>
</g>
<g style="mix-blend-mode:screen" opacity="0.2">
<path d="M72.61 137C79.92 135.65 87.52 134.46 95.36 133.42C95.28 131.83 95.17 130.25 95.17 128.65C95.1802 118.683 96.7388 108.778 99.79 99.29C108.937 81.4164 123.482 66.8784 141.36 57.74C160.434 51.5934 180.956 51.5934 200.03 57.74C217.893 66.8903 232.431 81.4209 241.59 99.28C244.646 108.771 246.205 118.68 246.21 128.65C246.21 130.25 246.1 131.83 246.02 133.42C253.873 134.473 261.457 135.667 268.77 137L279.15 128.63L242.27 99L247.39 52L200.34 57.12L170.68 20.16L141.04 57.05L94.04 51.93L99.15 99L62.22 128.63L72.61 137Z" fill="#FFBB00"/>
</g>
<path style="mix-blend-mode:multiply" d="M292.75 113.69L291.92 113.03C291.879 112.99 291.836 112.954 291.79 112.92L263.51 90.18L267.42 54.11C267.749 51.1126 267.401 48.0794 266.402 45.2345C265.402 42.3895 263.777 39.8053 261.645 37.6726C259.513 35.5399 256.93 33.913 254.085 32.9122C251.241 31.9113 248.208 31.562 245.21 31.89L209.15 35.81L186.39 7.52998C184.503 5.17926 182.112 3.28218 179.394 1.97866C176.676 0.675132 173.7 -0.00158691 170.685 -0.00158691C167.67 -0.00158691 164.694 0.675132 161.976 1.97866C159.258 3.28218 156.867 5.17926 154.98 7.52998L132.24 35.81L96.15 31.89C93.1544 31.5672 90.1245 31.9202 87.2834 32.9232C84.4423 33.9262 81.8623 35.5535 79.7332 37.6854C77.6042 39.8173 75.9804 42.3996 74.9812 45.242C73.9821 48.0845 73.6331 51.1148 73.96 54.11L77.87 90.18L50.76 112L49.68 112.84L48.68 113.64C46.3381 115.529 44.4488 117.918 43.1509 120.632C41.8529 123.346 41.1792 126.316 41.1792 129.325C41.1792 132.334 41.8529 135.304 43.1509 138.018C44.4488 140.732 46.3381 143.121 48.68 145.01L77.74 168.5L73.98 203.16C73.98 203.44 73.98 203.72 73.98 203.99L73.9 204.74C73.5774 207.735 73.9303 210.764 74.9328 213.604C75.9352 216.444 77.5616 219.024 79.6923 221.152C81.8231 223.281 84.404 224.905 87.2452 225.905C90.0864 226.905 93.1156 227.255 96.11 226.93L131.66 223.09L155.13 251.92C157.019 254.24 159.401 256.11 162.103 257.395C164.804 258.68 167.758 259.348 170.75 259.35C173.748 259.345 176.707 258.672 179.413 257.38C182.118 256.087 184.502 254.209 186.39 251.88L209.73 223L245.15 226.93C248.028 227.249 250.942 226.943 253.691 226.032C256.44 225.122 258.96 223.629 261.079 221.655C263.198 219.681 264.866 217.273 265.969 214.596C267.072 211.918 267.584 209.034 267.47 206.14C267.523 205.139 267.496 204.136 267.39 203.14L263.63 168.53L292.75 145.13C295.101 143.24 296.998 140.846 298.302 138.126C299.606 135.405 300.282 132.427 300.282 129.41C300.282 126.393 299.606 123.415 298.302 120.694C296.998 117.974 295.101 115.58 292.75 113.69Z" fill="url(#paint1_linear)"/>
</g>
<defs>
<linearGradient id="paint0_linear" x1="64.27" y1="235.83" x2="258.55" y2="41.55" gradientUnits="userSpaceOnUse">
<stop stop-color="#E6E6E6"/>
<stop offset="1" stop-color="#FAFAFA"/>
</linearGradient>
<linearGradient id="paint1_linear" x1="61" y1="239.1" x2="253.44" y2="46.66" gradientUnits="userSpaceOnUse">
<stop offset="0.39" stop-color="white"/>
<stop offset="0.5" stop-color="#FCFCFC"/>
<stop offset="0.58" stop-color="#F3F3F3"/>
<stop offset="0.65" stop-color="#E3E3E3"/>
<stop offset="0.71" stop-color="#CECECE"/>
<stop offset="0.72" stop-color="#C9C9C9"/>
<stop offset="0.76" stop-color="#C9C9C9"/>
<stop offset="0.99" stop-color="#C9C9C9"/>
</linearGradient>
<clipPath id="clip0">
<rect width="300.31" height="300" fill="white"/>
</clipPath>
</defs>
</svg>
