<svg width="301" height="300" viewBox="0 0 301 300" fill="none" xmlns="http://www.w3.org/2000/svg">
<g clip-path="url(#clip0)">
<g style="mix-blend-mode:multiply">
<g style="mix-blend-mode:multiply" opacity="0.02">
<path d="M251.52 157.17L220.41 132.17L224.59 93.7699C224.868 91.2003 224.567 88.6009 223.708 86.1632C222.849 83.7255 221.454 81.5113 219.626 79.6837C217.799 77.856 215.584 76.4614 213.147 75.6024C210.709 74.7434 208.11 74.4418 205.54 74.7199L167.15 78.8899L142.93 48.7799C141.311 46.7665 139.26 45.142 136.93 44.0257C134.6 42.9095 132.049 42.3301 129.465 42.3301C126.881 42.3301 124.33 42.9095 122 44.0257C119.67 45.142 117.619 46.7665 116 48.7799L91.8 78.8899L53.39 74.7099C50.8243 74.4399 48.2306 74.7474 45.7992 75.6101C43.3677 76.4727 41.1602 77.8685 39.3383 79.6951C37.5164 81.5218 36.1264 83.7331 35.2702 86.1668C34.414 88.6004 34.1132 91.1949 34.39 93.7599L38.56 132.16L7.56001 157.07C5.55185 158.691 3.93192 160.74 2.81903 163.068C1.70614 165.397 1.12851 167.944 1.12851 170.525C1.12851 173.105 1.70614 175.653 2.81903 177.981C3.93192 180.31 5.55185 182.359 7.56001 183.98L38.46 208.98L34.46 245.98C34.41 246.39 34.38 246.81 34.37 247.22V247.57C34.0994 250.131 34.4048 252.721 35.2639 255.149C36.1231 257.578 37.5142 259.783 39.3355 261.604C41.1569 263.426 43.3624 264.817 45.7906 265.676C48.2189 266.535 50.8085 266.841 53.37 266.57L91.91 262.41L116.12 292.53C117.739 294.543 119.79 296.168 122.12 297.284C124.45 298.4 127.001 298.98 129.585 298.98C132.169 298.98 134.72 298.4 137.05 297.284C139.38 296.168 141.431 294.543 143.05 292.53L167.15 262.38L205.56 266.55C206.2 266.62 206.78 266.63 207.5 266.66C212.079 266.655 216.47 264.832 219.706 261.592C222.942 258.352 224.76 253.959 224.76 249.38C224.76 248.9 224.76 248.38 224.71 247.95C224.712 247.282 224.675 246.614 224.6 245.95L220.6 209.03L251.6 184.15C253.617 182.532 255.245 180.481 256.363 178.15C257.481 175.818 258.062 173.266 258.062 170.68C258.062 168.094 257.481 165.541 256.363 163.21C255.245 160.879 253.617 158.828 251.6 157.21L251.52 157.17Z" fill="#FDFDFD"/>
</g>
<g style="mix-blend-mode:multiply" opacity="0.05">
<path d="M252.58 156.11L221.47 131.11L225.65 92.71C225.92 90.1442 225.612 87.5506 224.75 85.1192C223.887 82.6877 222.491 80.4801 220.665 78.6583C218.838 76.8364 216.627 75.4464 214.193 74.5902C211.759 73.7339 209.165 73.4332 206.6 73.71L168.2 77.88L143.99 47.72C142.371 45.7066 140.32 44.082 137.99 42.9658C135.66 41.8496 133.109 41.2701 130.525 41.2701C127.941 41.2701 125.39 41.8496 123.06 42.9658C120.73 44.082 118.679 45.7066 117.06 47.72L92.85 77.83L54.45 73.66C51.8881 73.3875 49.2977 73.6916 46.8685 74.55C44.4394 75.4085 42.2331 76.7996 40.4114 78.6214C38.5896 80.4431 37.1985 82.6494 36.34 85.0785C35.4816 87.5077 35.1775 90.0981 35.45 92.66L39.62 131.06L8.57 156C6.56038 157.619 4.939 159.667 3.82504 161.994C2.71107 164.322 2.13284 166.87 2.13284 169.45C2.13284 172.03 2.71107 174.578 3.82504 176.906C4.939 179.233 6.56038 181.281 8.57 182.9L39.46 207.9L35.46 244.9C35.4133 245.307 35.3833 245.717 35.37 246.13V246.49C35.0994 249.051 35.4048 251.641 36.2639 254.069C37.1231 256.498 38.5142 258.703 40.3355 260.524C42.1569 262.346 44.3624 263.737 46.7906 264.596C49.2189 265.455 51.8085 265.761 54.37 265.49L92.9 261.33L117.12 291.45C118.739 293.463 120.79 295.088 123.12 296.204C125.45 297.32 128.001 297.9 130.585 297.9C133.169 297.9 135.72 297.32 138.05 296.204C140.38 295.088 142.431 293.463 144.05 291.45L168.15 261.32L206.56 265.5C207.2 265.57 207.78 265.57 208.5 265.6C213.079 265.595 217.47 263.772 220.706 260.532C223.942 257.292 225.76 252.899 225.76 248.32C225.76 247.84 225.76 247.32 225.71 246.89C225.711 246.222 225.675 245.554 225.6 244.89L221.6 207.97L252.6 183.09C254.614 181.47 256.238 179.418 257.354 177.087C258.471 174.756 259.05 172.205 259.05 169.62C259.05 167.035 258.471 164.484 257.354 162.153C256.238 159.822 254.614 157.77 252.6 156.15L252.58 156.11Z" fill="#FCFCFC"/>
</g>
<g style="mix-blend-mode:multiply" opacity="0.07">
<path d="M253.64 155.06L222.53 130.06L226.71 91.6499C226.98 89.0842 226.673 86.4905 225.81 84.0591C224.947 81.6277 223.551 79.4201 221.725 77.5982C219.898 75.7763 217.687 74.3863 215.253 73.5301C212.819 72.6739 210.225 72.3731 207.66 72.6499L169.26 76.8299L145.05 46.6599C143.431 44.6466 141.38 43.022 139.05 41.9057C136.72 40.7895 134.169 40.2101 131.585 40.2101C129.001 40.2101 126.45 40.7895 124.12 41.9057C121.79 43.022 119.739 44.6466 118.12 46.6599L93.91 76.7799L55.51 72.5999C52.9485 72.3293 50.3589 72.6347 47.9306 73.4939C45.5024 74.353 43.2969 75.7441 41.4756 77.5655C39.6542 79.3868 38.2631 81.5923 37.4039 84.0206C36.5448 86.4488 36.2394 89.0384 36.51 91.5999L40.64 130L9.62001 155C7.61201 156.62 5.99215 158.668 4.87928 160.996C3.76641 163.323 3.18878 165.87 3.18878 168.45C3.18878 171.03 3.76641 173.577 4.87928 175.904C5.99215 178.232 7.61201 180.28 9.62001 181.9L40.52 206.9L36.52 243.9C36.47 244.31 36.45 244.72 36.43 245.13V245.49C36.1594 248.051 36.4648 250.641 37.3239 253.069C38.1831 255.498 39.5742 257.703 41.3956 259.524C43.2169 261.346 45.4224 262.737 47.8506 263.596C50.2789 264.455 52.8685 264.761 55.43 264.49L93.96 260.33L118.15 290.37C119.767 292.387 121.817 294.014 124.147 295.133C126.478 296.251 129.03 296.832 131.615 296.832C134.2 296.832 136.752 296.251 139.083 295.133C141.413 294.014 143.463 292.387 145.08 290.37L169.28 260.26L207.68 264.44C208.32 264.51 208.9 264.51 209.62 264.54C214.201 264.537 218.594 262.716 221.832 259.475C225.071 256.235 226.89 251.841 226.89 247.26C226.89 246.78 226.89 246.31 226.83 245.83C226.835 245.162 226.802 244.494 226.73 243.83L222.73 206.9L253.73 182.02C255.743 180.401 257.368 178.35 258.484 176.02C259.6 173.69 260.18 171.139 260.18 168.555C260.18 165.971 259.6 163.42 258.484 161.09C257.368 158.76 255.743 156.709 253.73 155.09L253.64 155.06Z" fill="#FAFAFA"/>
</g>
<g style="mix-blend-mode:multiply" opacity="0.1">
<path d="M254.69 154L223.58 129L227.76 90.59C228.032 88.0238 227.726 85.4294 226.864 82.9971C226.002 80.5648 224.606 78.3564 222.779 76.5341C220.952 74.7118 218.74 73.3218 216.305 72.4663C213.871 71.6107 211.275 71.3113 208.71 71.59L170.32 75.77L146.15 45.6C144.531 43.5866 142.48 41.962 140.15 40.8458C137.82 39.7296 135.269 39.1501 132.685 39.1501C130.101 39.1501 127.55 39.7296 125.22 40.8458C122.89 41.962 120.839 43.5866 119.22 45.6L94.97 75.72L56.57 71.54C54.0046 71.2613 51.4093 71.5607 48.9747 72.4163C46.5402 73.2718 44.3281 74.6618 42.501 76.4841C40.6739 78.3064 39.2782 80.5148 38.4162 82.9471C37.5543 85.3794 37.248 87.9739 37.52 90.54L41.7 129L10.7 153.91C8.692 155.53 7.07213 157.578 5.95927 159.906C4.8464 162.233 4.26877 164.78 4.26877 167.36C4.26877 169.94 4.8464 172.487 5.95927 174.814C7.07213 177.142 8.692 179.19 10.7 180.81L41.6 205.81L37.6 242.81C37.6 243.22 37.53 243.64 37.51 244.05V244.4C37.2394 246.962 37.5448 249.551 38.4039 251.979C39.2631 254.408 40.6542 256.613 42.4755 258.434C44.2969 260.256 46.5024 261.647 48.9306 262.506C51.3589 263.365 53.9485 263.671 56.51 263.4L95.05 259.25L119.15 289.31C120.767 291.327 122.817 292.954 125.147 294.073C127.478 295.191 130.03 295.772 132.615 295.772C135.2 295.772 137.752 295.191 140.083 294.073C142.413 292.954 144.463 291.327 146.08 289.31L170.28 259.2L208.68 263.38C209.32 263.45 209.9 263.45 210.62 263.48C215.199 263.477 219.589 261.657 222.825 258.418C226.062 255.18 227.88 250.789 227.88 246.21C227.88 245.72 227.88 245.21 227.88 244.77C227.88 244.102 227.847 243.435 227.78 242.77L223.78 205.84L254.78 180.96C256.795 179.342 258.421 177.292 259.538 174.961C260.656 172.631 261.236 170.079 261.236 167.495C261.236 164.911 260.656 162.359 259.538 160.029C258.421 157.698 256.795 155.648 254.78 154.03L254.69 154Z" fill="#F8F9F9"/>
</g>
<g style="mix-blend-mode:multiply" opacity="0.12">
<path d="M255.75 152.94L224.64 127.94L228.82 89.54C229.091 86.9785 228.785 84.3889 227.926 81.9606C227.067 79.5324 225.676 77.3269 223.854 75.5056C222.033 73.6842 219.828 72.2931 217.399 71.4339C214.971 70.5748 212.382 70.2694 209.82 70.54L171.43 74.72L147.15 44.54C145.528 42.5299 143.477 40.9083 141.147 39.7943C138.817 38.6803 136.268 38.1021 133.685 38.1021C131.102 38.1021 128.553 38.6803 126.223 39.7943C123.893 40.9083 121.842 42.5299 120.22 44.54L96.03 74.66L57.63 70.48C55.0685 70.2094 52.4789 70.5148 50.0506 71.3739C47.6224 72.2331 45.4169 73.6242 43.5956 75.4456C41.7742 77.2669 40.3831 79.4724 39.5239 81.9006C38.6648 84.3289 38.3594 86.9185 38.63 89.48L42.81 127.88L11.81 152.79C9.80202 154.41 8.18215 156.458 7.06928 158.786C5.95641 161.113 5.37878 163.66 5.37878 166.24C5.37878 168.82 5.95641 171.367 7.06928 173.694C8.18215 176.022 9.80202 178.07 11.81 179.69L42.71 204.69L38.71 241.69C38.71 242.1 38.64 242.52 38.62 242.93V243.28C38.3513 245.841 38.658 248.43 39.5178 250.857C40.3776 253.285 41.7688 255.489 43.5897 257.31C45.4106 259.131 47.6153 260.522 50.0427 261.382C52.4701 262.242 55.0589 262.549 57.62 262.28L96.16 258.12L120.38 288.24C121.999 290.253 124.05 291.878 126.38 292.994C128.71 294.11 131.261 294.69 133.845 294.69C136.429 294.69 138.98 294.11 141.31 292.994C143.64 291.878 145.691 290.253 147.31 288.24L171.51 258.13L209.91 262.3C210.55 262.37 211.13 262.38 211.85 262.4C216.429 262.397 220.819 260.577 224.055 257.338C227.292 254.1 229.11 249.709 229.11 245.13C229.11 244.64 229.11 244.13 229.11 243.69C229.112 243.022 229.075 242.354 229 241.69L225 204.76L255.95 179.89C257.967 178.272 259.595 176.221 260.713 173.89C261.831 171.559 262.412 169.006 262.412 166.42C262.412 163.834 261.831 161.281 260.713 158.95C259.595 156.619 257.967 154.568 255.95 152.95L255.75 152.94Z" fill="#F7F7F7"/>
</g>
<g style="mix-blend-mode:multiply" opacity="0.15">
<path d="M256.81 151.88L225.7 126.88L229.88 88.48C230.151 85.9185 229.845 83.3288 228.986 80.9006C228.127 78.4723 226.736 76.2668 224.914 74.4455C223.093 72.6242 220.888 71.233 218.459 70.3739C216.031 69.5147 213.441 69.2093 210.88 69.48L172.48 73.66L148.28 43.55C146.66 41.5364 144.608 39.9118 142.277 38.7955C139.946 37.6793 137.395 37.0999 134.81 37.0999C132.225 37.0999 129.674 37.6793 127.343 38.7955C125.012 39.9118 122.96 41.5364 121.34 43.55L97.09 73.6L58.68 69.42C56.1185 69.1493 53.5289 69.4547 51.1006 70.3139C48.6723 71.173 46.4669 72.5642 44.6455 74.3855C42.8242 76.2069 41.4331 78.4123 40.5739 80.8406C39.7148 83.2688 39.4093 85.8585 39.68 88.42L43.85 126.82L12.85 151.73C10.842 153.35 9.22213 155.398 8.10926 157.726C6.99639 160.053 6.41876 162.6 6.41876 165.18C6.41876 167.76 6.99639 170.307 8.10926 172.634C9.22213 174.962 10.842 177.01 12.85 178.63L43.75 203.63L39.75 240.63C39.7 241.04 39.67 241.46 39.66 241.87V242.22C39.3893 244.781 39.6948 247.371 40.5539 249.799C41.4131 252.228 42.8042 254.433 44.6255 256.254C46.4469 258.076 48.6524 259.467 51.0806 260.326C53.5089 261.185 56.0985 261.491 58.66 261.22L97.2 257.06L121.41 287.18C123.03 289.193 125.082 290.818 127.413 291.934C129.744 293.051 132.295 293.63 134.88 293.63C137.465 293.63 140.016 293.051 142.347 291.934C144.678 290.818 146.73 289.193 148.35 287.18L172.55 257.07L210.95 261.24C211.59 261.31 212.17 261.32 212.89 261.35C217.469 261.345 221.86 259.522 225.096 256.282C228.332 253.042 230.15 248.649 230.15 244.07C230.15 243.59 230.15 243.07 230.15 242.64C230.152 241.972 230.115 241.304 230.04 240.64L226.04 203.71L257.04 178.84C259.057 177.222 260.685 175.171 261.803 172.84C262.921 170.509 263.502 167.956 263.502 165.37C263.502 162.784 262.921 160.231 261.803 157.9C260.685 155.569 259.057 153.518 257.04 151.9L256.81 151.88Z" fill="#F5F5F6"/>
</g>
<g style="mix-blend-mode:multiply" opacity="0.17">
<path d="M257.87 150.82L226.76 125.82L230.94 87.4199C231.211 84.8584 230.905 82.2688 230.046 79.8406C229.187 77.4123 227.796 75.2068 225.974 73.3855C224.153 71.5642 221.948 70.173 219.519 69.3139C217.091 68.4547 214.502 68.1493 211.94 68.4199L173.54 72.5899L149.28 42.43C147.661 40.4166 145.61 38.792 143.28 37.6758C140.95 36.5595 138.399 35.9801 135.815 35.9801C133.231 35.9801 130.68 36.5595 128.35 37.6758C126.02 38.792 123.969 40.4166 122.35 42.43L98.15 72.54L59.75 68.37C57.1885 68.0993 54.5989 68.4047 52.1706 69.2639C49.7424 70.123 47.5369 71.5141 45.7155 73.3355C43.8942 75.1568 42.5031 77.3623 41.6439 79.7906C40.7848 82.2188 40.4794 84.8084 40.75 87.37L44.92 125.77L13.92 150.68C11.9102 152.3 10.2888 154.349 9.17479 156.677C8.0608 159.005 7.48257 161.554 7.48257 164.135C7.48257 166.716 8.0608 169.264 9.17479 171.593C10.2888 173.921 11.9102 175.97 13.92 177.59L44.82 202.59L40.82 239.59C40.7733 240.003 40.7433 240.413 40.73 240.82V241.17C40.4594 243.731 40.7648 246.321 41.6239 248.749C42.4831 251.178 43.8742 253.383 45.6955 255.204C47.5169 257.026 49.7224 258.417 52.1506 259.276C54.5789 260.135 57.1685 260.441 59.73 260.17L98.15 256L122.36 286.12C123.979 288.133 126.03 289.758 128.36 290.874C130.69 291.99 133.241 292.57 135.825 292.57C138.409 292.57 140.96 291.99 143.29 290.874C145.62 289.758 147.671 288.133 149.29 286.12L173.48 256L211.89 260.18C212.53 260.24 213.11 260.25 213.83 260.28C218.409 260.275 222.8 258.452 226.036 255.212C229.272 251.972 231.09 247.579 231.09 243C231.09 242.52 231.09 242 231.04 241.57C231.042 240.902 231.005 240.234 230.93 239.57L226.93 202.65L257.93 177.77C259.947 176.152 261.575 174.101 262.693 171.77C263.811 169.439 264.392 166.886 264.392 164.3C264.392 161.714 263.811 159.161 262.693 156.83C261.575 154.499 259.947 152.448 257.93 150.83L257.87 150.82Z" fill="#F4F4F4"/>
</g>
<g style="mix-blend-mode:multiply" opacity="0.2">
<path d="M258.93 149.76L227.82 124.76L232 86.36C232.269 83.7989 231.962 81.2101 231.102 78.7827C230.242 76.3553 228.851 74.1507 227.03 72.3297C225.209 70.5088 223.005 69.1176 220.577 68.2578C218.15 67.398 215.561 67.0913 213 67.36L174.6 71.54L150.34 41.37C148.721 39.3566 146.67 37.732 144.34 36.6158C142.01 35.4996 139.459 34.9202 136.875 34.9202C134.291 34.9202 131.74 35.4996 129.41 36.6158C127.08 37.732 125.029 39.3566 123.41 41.37L99.2 71.49L60.8 67.31C58.2385 67.0394 55.6489 67.3448 53.2206 68.2039C50.7924 69.0631 48.5869 70.4542 46.7655 72.2756C44.9442 74.0969 43.5531 76.3024 42.6939 78.7306C41.8348 81.1589 41.5294 83.7485 41.8 86.31L45.98 124.71L14.98 149.63C12.9704 151.249 11.349 153.297 10.235 155.624C9.12108 157.952 8.54285 160.5 8.54285 163.08C8.54285 165.66 9.12108 168.208 10.235 170.536C11.349 172.863 12.9704 174.911 14.98 176.53L45.87 201.53L41.87 238.53C41.82 238.94 41.8 239.35 41.79 239.76L41.74 240.12C41.4694 242.682 41.7748 245.271 42.6339 247.699C43.4931 250.128 44.8842 252.333 46.7056 254.154C48.5269 255.976 50.7324 257.367 53.1606 258.226C55.5889 259.085 58.1785 259.391 60.74 259.12L99.15 255L123.37 285.12C124.989 287.133 127.04 288.758 129.37 289.874C131.7 290.99 134.251 291.57 136.835 291.57C139.419 291.57 141.97 290.99 144.3 289.874C146.63 288.758 148.681 287.133 150.3 285.12L174.54 255L212.95 259.18C213.59 259.25 214.16 259.25 214.88 259.28C219.461 259.277 223.854 257.456 227.092 254.215C230.331 250.975 232.15 246.581 232.15 242C232.15 241.52 232.15 241 232.09 240.57C232.099 239.902 232.066 239.234 231.99 238.57L227.99 201.65L258.94 176.77C260.954 175.15 262.578 173.098 263.694 170.767C264.811 168.436 265.39 165.885 265.39 163.3C265.39 160.715 264.811 158.164 263.694 155.833C262.578 153.502 260.954 151.45 258.94 149.83L258.93 149.76Z" fill="#F2F2F3"/>
</g>
<g style="mix-blend-mode:multiply" opacity="0.22">
<path d="M259.98 148.71L228.87 123.71L233.05 85.3C233.321 82.7385 233.015 80.1488 232.156 77.7206C231.297 75.2923 229.906 73.0868 228.084 71.2655C226.263 69.4442 224.058 68.053 221.629 67.1939C219.201 66.3347 216.612 66.0293 214.05 66.3L175.65 70.48L151.4 40.31C149.781 38.2966 147.73 36.672 145.4 35.5558C143.07 34.4395 140.519 33.8601 137.935 33.8601C135.351 33.8601 132.8 34.4395 130.47 35.5558C128.14 36.672 126.089 38.2966 124.47 40.31L100.26 70.43L61.86 66.25C59.2946 65.9713 56.6993 66.2707 54.2647 67.1262C51.8302 67.9818 49.6181 69.3717 47.791 71.194C45.9639 73.0163 44.5682 75.2247 43.7062 77.657C42.8443 80.0893 42.5381 82.6838 42.81 85.25L46.99 123.65L15.99 148.57C13.982 150.19 12.3621 152.238 11.2493 154.566C10.1364 156.893 9.55878 159.44 9.55878 162.02C9.55878 164.6 10.1364 167.147 11.2493 169.474C12.3621 171.802 13.982 173.85 15.99 175.47L46.89 200.47L42.89 237.47C42.89 237.88 42.82 238.3 42.8 238.7V239.06C42.5294 241.621 42.8348 244.211 43.6939 246.639C44.5531 249.068 45.9442 251.273 47.7655 253.094C49.5869 254.916 51.7924 256.307 54.2206 257.166C56.6489 258.025 59.2385 258.331 61.8 258.06L100.34 253.9L124.47 284C126.087 286.017 128.137 287.644 130.467 288.763C132.798 289.881 135.35 290.462 137.935 290.462C140.52 290.462 143.072 289.881 145.403 288.763C147.733 287.644 149.783 286.017 151.4 284L175.6 253.89L214 258.07C214.64 258.14 215.22 258.14 215.94 258.17C220.521 258.167 224.914 256.346 228.152 253.105C231.391 249.865 233.21 245.471 233.21 240.89C233.21 240.41 233.21 239.94 233.15 239.46C233.155 238.792 233.122 238.124 233.05 237.46L229.05 200.53L260.05 175.65C262.065 174.032 263.691 171.982 264.808 169.651C265.926 167.321 266.506 164.769 266.506 162.185C266.506 159.601 265.926 157.049 264.808 154.719C263.691 152.388 262.065 150.338 260.05 148.72L259.98 148.71Z" fill="#F0F1F1"/>
</g>
<g style="mix-blend-mode:multiply" opacity="0.24">
<path d="M261.04 147.65L229.93 122.65L234.15 84.24C234.422 81.6739 234.116 79.0794 233.254 76.6471C232.392 74.2148 230.996 72.0064 229.169 70.1841C227.342 68.3618 225.13 66.9718 222.695 66.1163C220.261 65.2607 217.665 64.9613 215.1 65.24L176.71 69.42L152.46 39.25C150.841 37.2366 148.79 35.612 146.46 34.4958C144.13 33.3796 141.579 32.8002 138.995 32.8002C136.411 32.8002 133.86 33.3796 131.53 34.4958C129.2 35.612 127.149 37.2366 125.53 39.25L101.32 69.37L62.92 65.19C60.3546 64.9113 57.7593 65.2107 55.3247 66.0663C52.8902 66.9218 50.6781 68.3118 48.851 70.1341C47.0239 71.9564 45.6282 74.1648 44.7662 76.5971C43.9043 79.0294 43.5981 81.6239 43.87 84.19L48.05 122.59L17.05 147.5C15.042 149.12 13.4221 151.168 12.3093 153.496C11.1964 155.823 10.6188 158.37 10.6188 160.95C10.6188 163.53 11.1964 166.077 12.3093 168.404C13.4221 170.732 15.042 172.78 17.05 174.4L47.95 199.4L43.95 236.4C43.95 236.81 43.88 237.23 43.86 237.64V237.99C43.5913 240.551 43.898 243.14 44.7578 245.567C45.6176 247.995 47.0088 250.199 48.8297 252.02C50.6506 253.841 52.8553 255.232 55.2827 256.092C57.7101 256.952 60.2989 257.259 62.86 256.99L101.4 252.83L125.53 283C127.147 285.017 129.197 286.644 131.527 287.763C133.858 288.881 136.41 289.462 138.995 289.462C141.58 289.462 144.132 288.881 146.463 287.763C148.793 286.644 150.843 285.017 152.46 283L176.66 252.9L215.06 257.07C215.7 257.14 216.28 257.14 217 257.17C221.579 257.167 225.969 255.347 229.205 252.108C232.442 248.87 234.26 244.479 234.26 239.9C234.26 239.41 234.26 238.9 234.21 238.46C234.21 237.792 234.177 237.125 234.11 236.46L230.11 199.53L261.11 174.66C263.125 173.041 264.751 170.99 265.869 168.659C266.986 166.327 267.566 163.775 267.566 161.19C267.566 158.605 266.986 156.053 265.869 153.721C264.751 151.39 263.125 149.339 261.11 147.72L261.04 147.65Z" fill="#EFEFF0"/>
</g>
<g style="mix-blend-mode:multiply" opacity="0.27">
<path d="M262.15 146.59L231.04 121.59L235.15 83.1799C235.429 80.6145 235.129 78.0193 234.274 75.5847C233.418 73.1501 232.028 70.9381 230.206 69.111C228.384 67.2839 226.175 65.8881 223.743 65.0262C221.311 64.1642 218.716 63.858 216.15 64.1299L177.76 68.3099L153.52 38.1899C151.897 36.1797 149.846 34.558 147.515 33.444C145.184 32.3299 142.633 31.7517 140.05 31.7517C137.467 31.7517 134.916 32.3299 132.585 33.444C130.254 34.558 128.203 36.1797 126.58 38.1899L102.38 68.3099L63.97 64.1299C61.4039 63.858 58.8094 64.1642 56.3771 65.0262C53.9448 65.8881 51.7364 67.2839 49.9141 69.111C48.0918 70.9381 46.7018 73.1501 45.8463 75.5847C44.9907 78.0193 44.6913 80.6145 44.97 83.1799L49.15 121.58L18.15 146.49C16.142 148.11 14.5221 150.158 13.4093 152.486C12.2964 154.813 11.7188 157.36 11.7188 159.94C11.7188 162.52 12.2964 165.067 13.4093 167.394C14.5221 169.722 16.142 171.77 18.15 173.39L49.05 198.39L45.05 235.39C45 235.8 44.97 236.22 44.96 236.63V236.98C44.6913 239.541 44.998 242.13 45.8578 244.557C46.7176 246.985 48.1088 249.189 49.9297 251.01C51.7506 252.831 53.9553 254.222 56.3827 255.082C58.8101 255.942 61.3989 256.249 63.96 255.98L102.5 251.82L126.71 281.94C128.33 283.953 130.382 285.578 132.713 286.694C135.044 287.811 137.595 288.39 140.18 288.39C142.765 288.39 145.316 287.811 147.647 286.694C149.978 285.578 152.03 283.953 153.65 281.94L177.85 251.83L216.15 256C216.79 256.07 217.37 256.08 218.09 256.1C222.669 256.097 227.059 254.277 230.295 251.038C233.532 247.8 235.35 243.409 235.35 238.83C235.35 238.34 235.35 237.83 235.35 237.4C235.352 236.732 235.315 236.064 235.24 235.4L231.24 198.47L262.15 173.53C264.167 171.912 265.795 169.861 266.913 167.53C268.031 165.199 268.612 162.646 268.612 160.06C268.612 157.474 268.031 154.921 266.913 152.59C265.795 150.259 264.167 148.208 262.15 146.59Z" fill="#EDEEEE"/>
</g>
<g style="mix-blend-mode:multiply" opacity="0.29">
<path d="M263.15 145.53L232.04 120.53L236.22 82.13C236.5 79.5577 236.2 76.9553 235.34 74.5147C234.481 72.0741 233.085 69.8574 231.254 68.0282C229.424 66.1991 227.207 64.804 224.766 63.9459C222.325 63.0877 219.722 62.7884 217.15 63.07L178.75 67.25L154.57 37.14C152.951 35.1267 150.9 33.5021 148.57 32.3858C146.24 31.2696 143.689 30.6902 141.105 30.6902C138.521 30.6902 135.97 31.2696 133.64 32.3858C131.31 33.5021 129.259 35.1267 127.64 37.14L103.43 67.25L65.03 63.07C62.4643 62.8 59.8706 63.1075 57.4392 63.9702C55.0077 64.8328 52.8002 66.2286 50.9783 68.0553C49.1564 69.8819 47.7664 72.0932 46.9102 74.5269C46.054 76.9606 45.7532 79.555 46.03 82.12L50.15 120.52L19.15 145.43C17.1402 147.05 15.5188 149.099 14.4048 151.427C13.2908 153.756 12.7126 156.304 12.7126 158.885C12.7126 161.466 13.2908 164.014 14.4048 166.343C15.5188 168.671 17.1402 170.72 19.15 172.34L50.05 197.34L46.05 234.29C46 234.71 45.97 235.12 45.96 235.53V235.88C45.6894 238.442 45.9948 241.031 46.8539 243.459C47.7131 245.888 49.1042 248.093 50.9256 249.914C52.7469 251.736 54.9524 253.127 57.3806 253.986C59.8089 254.845 62.3985 255.151 64.96 254.88L103.5 250.72L127.71 280.84C129.329 282.853 131.38 284.478 133.71 285.594C136.04 286.71 138.591 287.29 141.175 287.29C143.759 287.29 146.31 286.71 148.64 285.594C150.97 284.478 153.021 282.853 154.64 280.84L178.84 250.73L217.15 254.91C217.79 254.98 218.37 254.99 219.09 255.02C223.669 255.015 228.06 253.192 231.296 249.952C234.532 246.712 236.35 242.32 236.35 237.74C236.35 237.26 236.35 236.74 236.35 236.31C236.352 235.642 236.315 234.974 236.24 234.31L232.24 197.39L263.15 172.47C265.167 170.852 266.795 168.801 267.913 166.47C269.031 164.139 269.612 161.586 269.612 159C269.612 156.414 269.031 153.861 267.913 151.53C266.795 149.199 265.167 147.148 263.15 145.53Z" fill="#EBECED"/>
</g>
<g style="mix-blend-mode:multiply" opacity="0.32">
<path d="M264.22 144.47L233.11 119.47L237.29 81.07C237.559 78.5089 237.252 75.9201 236.392 73.4927C235.532 71.0653 234.141 68.8606 232.32 67.0397C230.499 65.2188 228.295 63.8276 225.867 62.9678C223.44 62.108 220.851 61.8012 218.29 62.07L179.89 66.24L155.63 36.08C154.011 34.0666 151.96 32.442 149.63 31.3258C147.3 30.2096 144.749 29.6301 142.165 29.6301C139.581 29.6301 137.03 30.2096 134.7 31.3258C132.37 32.442 130.319 34.0666 128.7 36.08L104.49 66.19L66.09 62C63.5285 61.7293 60.9389 62.0348 58.5106 62.8939C56.0824 63.753 53.8769 65.1442 52.0555 66.9655C50.2342 68.7869 48.8431 70.9923 47.9839 73.4206C47.1248 75.8489 46.8194 78.4385 47.09 81L51.26 119.4L20.26 144.31C18.2502 145.93 16.6288 147.979 15.5148 150.307C14.4008 152.635 13.8226 155.184 13.8226 157.765C13.8226 160.346 14.4008 162.894 15.5148 165.223C16.6288 167.551 18.2502 169.6 20.26 171.22L51.16 196.22L47.16 233.22C47.1133 233.627 47.0833 234.037 47.07 234.45V234.8C46.7956 237.362 47.0983 239.954 47.9561 242.384C48.8139 244.814 50.205 247.021 52.0272 248.843C53.8494 250.665 56.0564 252.056 58.4865 252.914C60.9165 253.772 63.5077 254.074 66.07 253.8L104.6 249.64L128.82 279.76C130.439 281.773 132.49 283.398 134.82 284.514C137.15 285.63 139.701 286.21 142.285 286.21C144.869 286.21 147.42 285.63 149.75 284.514C152.08 283.398 154.131 281.773 155.75 279.76L179.95 249.65L218.36 253.83C219 253.9 219.57 253.9 220.3 253.93C224.879 253.925 229.27 252.102 232.506 248.862C235.742 245.622 237.56 241.229 237.56 236.65C237.56 236.17 237.56 235.65 237.5 235.22C237.51 234.552 237.476 233.884 237.4 233.22L233.4 196.3L264.35 171.42C266.364 169.8 267.988 167.748 269.104 165.417C270.221 163.086 270.8 160.535 270.8 157.95C270.8 155.365 270.221 152.814 269.104 150.483C267.988 148.152 266.364 146.1 264.35 144.48L264.22 144.47Z" fill="#EAEAEB"/>
</g>
<g style="mix-blend-mode:multiply" opacity="0.34">
<path d="M265.28 143.42L234.16 118.42L238.35 80C238.619 77.4389 238.312 74.8501 237.452 72.4227C236.592 69.9953 235.201 67.7907 233.38 65.9697C231.559 64.1488 229.355 62.7576 226.927 61.8978C224.5 61.038 221.911 60.7313 219.35 61L180.95 65.18L156.69 35C155.071 32.9866 153.02 31.3621 150.69 30.2458C148.36 29.1296 145.809 28.5502 143.225 28.5502C140.641 28.5502 138.09 29.1296 135.76 30.2458C133.43 31.3621 131.379 32.9866 129.76 35L105.55 65.14L67.15 61C64.5885 60.7294 61.9989 61.0348 59.5706 61.8939C57.1424 62.7531 54.9369 64.1442 53.1156 65.9656C51.2942 67.7869 49.9031 69.9924 49.0439 72.4206C48.1848 74.8489 47.8794 77.4385 48.15 80L52.33 118.4L21.33 143.32C19.3204 144.939 17.699 146.987 16.585 149.314C15.4711 151.642 14.8929 154.19 14.8929 156.77C14.8929 159.35 15.4711 161.898 16.585 164.226C17.699 166.553 19.3204 168.601 21.33 170.22L52.22 195.22L48.22 232.22C48.17 232.63 48.15 233.04 48.13 233.45V233.81C47.8594 236.372 48.1648 238.961 49.0239 241.389C49.8831 243.818 51.2742 246.023 53.0956 247.844C54.9169 249.666 57.1224 251.057 59.5506 251.916C61.9789 252.775 64.5685 253.081 67.13 252.81L105.66 248.65L129.88 278.77C131.497 280.787 133.547 282.414 135.877 283.533C138.208 284.651 140.76 285.232 143.345 285.232C145.93 285.232 148.482 284.651 150.813 283.533C153.143 282.414 155.193 280.787 156.81 278.77L181.01 248.66L219.41 252.84C220.05 252.91 220.63 252.91 221.35 252.94C225.931 252.937 230.324 251.116 233.562 247.875C236.801 244.635 238.62 240.241 238.62 235.66C238.62 235.18 238.62 234.66 238.56 234.23C238.569 233.562 238.536 232.894 238.46 232.23L234.46 195.31L265.46 170.43C267.473 168.811 269.098 166.76 270.214 164.43C271.33 162.1 271.91 159.549 271.91 156.965C271.91 154.381 271.33 151.83 270.214 149.5C269.098 147.17 267.473 145.119 265.46 143.5L265.28 143.42Z" fill="#E8E9E9"/>
</g>
<g style="mix-blend-mode:multiply" opacity="0.37">
<path d="M266.33 142.36L235.22 117.36L239.4 79C239.679 76.4346 239.379 73.8393 238.524 71.4048C237.668 68.9702 236.278 66.7582 234.456 64.9311C232.634 63.104 230.425 61.7082 227.993 60.8463C225.561 59.9843 222.966 59.6781 220.4 59.95L182 64.13L157.75 34C156.131 31.9866 154.08 30.3621 151.75 29.2458C149.42 28.1296 146.869 27.5502 144.285 27.5502C141.701 27.5502 139.15 28.1296 136.82 29.2458C134.49 30.3621 132.439 31.9866 130.82 34L106.61 64.08L68.21 59.9C65.6345 59.617 63.0283 59.9168 60.5844 60.7772C58.1404 61.6376 55.9212 63.0366 54.091 64.8706C52.2608 66.7047 50.8665 68.9268 50.0112 71.3726C49.1559 73.8183 48.8616 76.4251 49.15 79L53.33 117.4L22.33 142.31C20.322 143.93 18.7021 145.978 17.5893 148.306C16.4764 150.633 15.8988 153.18 15.8988 155.76C15.8988 158.34 16.4764 160.887 17.5893 163.214C18.7021 165.542 20.322 167.59 22.33 169.21L53.23 194.21L49.23 231.21C49.23 231.62 49.16 232.04 49.14 232.44V232.8C48.8694 235.362 49.1748 237.951 50.0339 240.379C50.8931 242.808 52.2842 245.013 54.1055 246.834C55.9269 248.656 58.1324 250.047 60.5606 250.906C62.9889 251.765 65.5785 252.071 68.14 251.8L106.68 247.65L130.9 277.76C132.517 279.777 134.567 281.404 136.897 282.523C139.228 283.641 141.78 284.222 144.365 284.222C146.95 284.222 149.502 283.641 151.833 282.523C154.163 281.404 156.213 279.777 157.83 277.76L182.03 247.65L220.43 251.83C221.07 251.9 221.65 251.9 222.37 251.93C226.949 251.927 231.339 250.107 234.575 246.868C237.812 243.63 239.63 239.239 239.63 234.66C239.63 234.17 239.63 233.66 239.58 233.22C239.58 232.552 239.547 231.885 239.48 231.22L235.48 194.29L266.48 169.42C268.495 167.801 270.121 165.75 271.239 163.419C272.356 161.087 272.936 158.535 272.936 155.95C272.936 153.365 272.356 150.813 271.239 148.481C270.121 146.15 268.495 144.099 266.48 142.48L266.33 142.36Z" fill="#E6E7E8"/>
</g>
<g style="mix-blend-mode:multiply" opacity="0.39">
<path d="M267.39 141.3L236.28 116.3L240.46 77.9C240.732 75.3339 240.426 72.7394 239.564 70.3071C238.702 67.8748 237.306 65.6664 235.479 63.8441C233.652 62.0218 231.44 60.6319 229.005 59.7763C226.571 58.9208 223.975 58.6213 221.41 58.9L183.02 63L158.81 32.9C157.187 30.8898 155.136 29.2681 152.805 28.1541C150.474 27.04 147.923 26.4618 145.34 26.4618C142.757 26.4618 140.206 27.04 137.875 28.1541C135.544 29.2681 133.493 30.8898 131.87 32.9L107.67 63L69.27 58.82C66.7046 58.5413 64.1093 58.8408 61.6747 59.6963C59.2402 60.5519 57.0281 61.9418 55.201 63.7641C53.3739 65.5864 51.9782 67.7948 51.1162 70.2271C50.2543 72.6594 49.948 75.2539 50.22 77.82L54.39 116.22L23.39 141.13C21.382 142.75 19.7621 144.798 18.6493 147.126C17.5364 149.453 16.9588 152 16.9588 154.58C16.9588 157.16 17.5364 159.707 18.6493 162.034C19.7621 164.362 21.382 166.41 23.39 168.03L54.29 193.03L50.29 230.03C50.29 230.44 50.22 230.86 50.2 231.27V231.62C49.9312 234.181 50.238 236.77 51.0978 239.197C51.9576 241.625 53.3488 243.829 55.1697 245.65C56.9906 247.471 59.1953 248.862 61.6227 249.722C64.0501 250.582 66.6389 250.889 69.2 250.62L107.74 246.46L131.95 276.58C133.57 278.594 135.622 280.218 137.953 281.334C140.284 282.451 142.835 283.03 145.42 283.03C148.005 283.03 150.556 282.451 152.887 281.334C155.218 280.218 157.27 278.594 158.89 276.58L183.09 246.47L221.49 250.64C222.13 250.71 222.71 250.71 223.43 250.74C228.009 250.737 232.399 248.917 235.635 245.678C238.872 242.44 240.69 238.049 240.69 233.47C240.69 232.98 240.69 232.47 240.64 232.04C240.64 231.372 240.607 230.705 240.54 230.04L236.54 193.11L267.54 168.24C269.555 166.621 271.181 164.57 272.299 162.239C273.416 159.907 273.996 157.355 273.996 154.77C273.996 152.185 273.416 149.633 272.299 147.301C271.181 144.97 269.555 142.919 267.54 141.3H267.39Z" fill="#E5E6E6"/>
</g>
<g style="mix-blend-mode:multiply" opacity="0.41">
<path d="M268.45 140.24L237.34 115.24L241.52 76.8399C241.792 74.2738 241.486 71.6793 240.624 69.247C239.762 66.8147 238.366 64.6063 236.539 62.784C234.712 60.9617 232.5 59.5718 230.065 58.7162C227.631 57.8607 225.035 57.5612 222.47 57.8399L184.07 61.9999L159.87 31.8899C158.25 29.8764 156.198 28.2517 153.867 27.1355C151.536 26.0193 148.985 25.4398 146.4 25.4398C143.815 25.4398 141.264 26.0193 138.933 27.1355C136.602 28.2517 134.55 29.8764 132.93 31.8899L108.73 61.9999L70.32 57.7799C67.7585 57.5093 65.1689 57.8147 62.7406 58.6739C60.3124 59.533 58.1069 60.9241 56.2855 62.7455C54.4642 64.5668 53.0731 66.7723 52.2139 69.2006C51.3548 71.6288 51.0494 74.2184 51.32 76.7799L55.49 115.18L24.49 140.09C22.482 141.71 20.8621 143.758 19.7493 146.086C18.6364 148.413 18.0588 150.96 18.0588 153.54C18.0588 156.12 18.6364 158.667 19.7493 160.994C20.8621 163.322 22.482 165.37 24.49 166.99L55.39 191.99L51.39 228.94C51.34 229.35 51.31 229.77 51.3 230.18V230.53C51.0294 233.091 51.3348 235.681 52.1939 238.109C53.0531 240.538 54.4442 242.743 56.2655 244.564C58.0869 246.386 60.2924 247.777 62.7206 248.636C65.1489 249.495 67.7385 249.801 70.3 249.53L108.84 245.37L133.05 275.49C134.67 277.503 136.722 279.128 139.053 280.244C141.384 281.361 143.935 281.94 146.52 281.94C149.105 281.94 151.656 281.361 153.987 280.244C156.318 279.128 158.37 277.503 159.99 275.49L184.19 245.38L222.59 249.55C223.23 249.62 223.81 249.63 224.53 249.66C229.109 249.655 233.5 247.832 236.736 244.592C239.972 241.352 241.79 236.959 241.79 232.38C241.79 231.9 241.79 231.38 241.74 230.95C241.742 230.282 241.705 229.614 241.63 228.95L237.63 192.02L268.63 167.15C270.647 165.532 272.275 163.481 273.393 161.15C274.511 158.818 275.092 156.266 275.092 153.68C275.092 151.094 274.511 148.541 273.393 146.21C272.275 143.879 270.647 141.828 268.63 140.21L268.45 140.24Z" fill="#E3E4E5"/>
</g>
<g style="mix-blend-mode:multiply" opacity="0.44">
<path d="M269.51 139.18L238.4 114.18L242.58 75.7799C242.85 73.2142 242.542 70.6205 241.68 68.1891C240.817 65.7577 239.421 63.5501 237.595 61.7282C235.768 59.9063 233.557 58.5163 231.123 57.6601C228.689 56.8039 226.095 56.5031 223.53 56.7799L185.15 60.8999L160.92 30.7899C159.301 28.7766 157.25 27.152 154.92 26.0357C152.59 24.9195 150.039 24.3401 147.455 24.3401C144.871 24.3401 142.32 24.9195 139.99 26.0357C137.66 27.152 135.609 28.7766 133.99 30.7899L109.78 60.8999L71.38 56.7299C68.8185 56.4593 66.2289 56.7647 63.8006 57.6239C61.3724 58.483 59.1669 59.8741 57.3456 61.6955C55.5242 63.5168 54.1331 65.7223 53.2739 68.1506C52.4148 70.5788 52.1094 73.1684 52.38 75.7299L56.55 114.13L25.55 139.04C23.5402 140.66 21.9188 142.709 20.8048 145.037C19.6908 147.365 19.1126 149.914 19.1126 152.495C19.1126 155.076 19.6908 157.624 20.8048 159.953C21.9188 162.281 23.5402 164.33 25.55 165.95L56.45 190.95L52.45 227.95C52.4033 228.363 52.3733 228.773 52.36 229.18V229.53C52.0894 232.091 52.3948 234.681 53.2539 237.109C54.1131 239.538 55.5042 241.743 57.3255 243.564C59.1469 245.386 61.3524 246.777 63.7806 247.636C66.2089 248.495 68.7985 248.801 71.36 248.53L109.89 244.37L134.11 274.49C135.729 276.503 137.78 278.128 140.11 279.244C142.44 280.36 144.991 280.94 147.575 280.94C150.159 280.94 152.71 280.36 155.04 279.244C157.37 278.128 159.421 276.503 161.04 274.49L185.15 244.39L223.56 248.57C224.2 248.63 224.78 248.64 225.5 248.67C230.079 248.665 234.47 246.842 237.706 243.602C240.942 240.362 242.76 235.969 242.76 231.39C242.76 230.91 242.76 230.39 242.71 229.96C242.712 229.292 242.675 228.624 242.6 227.96L238.6 191.04L269.6 166.16C271.614 164.54 273.238 162.488 274.354 160.157C275.471 157.826 276.05 155.275 276.05 152.69C276.05 150.105 275.471 147.554 274.354 145.223C273.238 142.892 271.614 140.84 269.6 139.22L269.51 139.18Z" fill="#E2E2E3"/>
</g>
<g style="mix-blend-mode:multiply" opacity="0.46">
<path d="M270.57 138.12L239.46 113.12L243.64 74.72C243.91 72.1543 243.602 69.5606 242.74 67.1292C241.877 64.6977 240.481 62.4902 238.655 60.6683C236.828 58.8464 234.617 57.4564 232.183 56.6002C229.749 55.7439 227.155 55.4432 224.59 55.72L186.15 59.84L161.98 29.73C160.361 27.7166 158.31 26.092 155.98 24.9758C153.65 23.8596 151.099 23.2802 148.515 23.2802C145.931 23.2802 143.38 23.8596 141.05 24.9758C138.72 26.092 136.669 27.7166 135.05 29.73L110.84 59.84L72.44 55.67C69.8746 55.3913 67.2793 55.6907 64.8447 56.5463C62.4102 57.4018 60.1981 58.7918 58.371 60.6141C56.5439 62.4364 55.1482 64.6448 54.2862 67.0771C53.4243 69.5094 53.118 72.1039 53.39 74.67L57.57 113.07L26.56 138C24.5504 139.619 22.929 141.667 21.815 143.994C20.7011 146.322 20.1228 148.87 20.1228 151.45C20.1228 154.03 20.7011 156.578 21.815 158.906C22.929 161.233 24.5504 163.281 26.56 164.9L57.46 189.9L53.46 226.9C53.41 227.31 53.39 227.72 53.38 228.13V228.48C53.1056 231.042 53.4083 233.634 54.2661 236.064C55.1239 238.494 56.515 240.701 58.3372 242.523C60.1594 244.345 62.3664 245.736 64.7964 246.594C67.2264 247.452 69.8177 247.754 72.38 247.48L110.91 243.32L135.13 273.44C136.747 275.457 138.797 277.084 141.127 278.203C143.458 279.321 146.01 279.902 148.595 279.902C151.18 279.902 153.732 279.321 156.063 278.203C158.393 277.084 160.443 275.457 162.06 273.44L186.15 243.33L224.56 247.51C225.2 247.58 225.77 247.58 226.49 247.61C231.071 247.607 235.464 245.786 238.702 242.545C241.941 239.305 243.76 234.911 243.76 230.33C243.76 229.85 243.76 229.33 243.7 228.9C243.709 228.232 243.676 227.564 243.6 226.9L239.6 189.98L270.6 165.1C272.614 163.48 274.238 161.428 275.354 159.097C276.471 156.766 277.05 154.215 277.05 151.63C277.05 149.045 276.471 146.494 275.354 144.163C274.238 141.832 272.614 139.78 270.6 138.16L270.57 138.12Z" fill="#E0E1E2"/>
</g>
<g style="mix-blend-mode:multiply" opacity="0.49">
<path d="M271.62 137.07L240.51 112.07L244.69 73.66C244.961 71.0985 244.655 68.5088 243.796 66.0806C242.937 63.6523 241.546 61.4468 239.724 59.6255C237.903 57.8042 235.698 56.413 233.269 55.5539C230.841 54.6947 228.252 54.3893 225.69 54.66L187.29 58.84L163.04 28.67C161.42 26.6564 159.368 25.0318 157.037 23.9155C154.706 22.7993 152.155 22.2198 149.57 22.2198C146.985 22.2198 144.434 22.7993 142.103 23.9155C139.772 25.0318 137.72 26.6564 136.1 28.67L111.9 58.79L73.5 54.61C70.9385 54.3393 68.3489 54.6447 65.9206 55.5039C63.4924 56.363 61.2869 57.7542 59.4656 59.5755C57.6442 61.3968 56.2531 63.6023 55.3939 66.0306C54.5348 68.4588 54.2294 71.0485 54.5 73.61L58.68 112.01L27.61 137C25.6004 138.619 23.979 140.667 22.865 142.994C21.7511 145.322 21.1729 147.87 21.1729 150.45C21.1729 153.03 21.7511 155.578 22.865 157.905C23.979 160.233 25.6004 162.281 27.61 163.9L58.5 188.9L54.5 225.9C54.5 226.31 54.43 226.72 54.41 227.13V227.49C54.1394 230.051 54.4448 232.641 55.3039 235.069C56.1631 237.498 57.5542 239.703 59.3756 241.524C61.1969 243.346 63.4024 244.737 65.8306 245.596C68.2589 246.455 70.8485 246.761 73.41 246.49L111.95 242.33L136.15 272.38C137.768 274.397 139.819 276.024 142.15 277.143C144.481 278.261 147.034 278.842 149.62 278.842C152.206 278.842 154.759 278.261 157.09 277.143C159.421 276.024 161.472 274.397 163.09 272.38L187.29 242.27L225.69 246.45C226.33 246.52 226.91 246.52 227.63 246.55C232.211 246.547 236.604 244.726 239.842 241.485C243.081 238.245 244.9 233.851 244.9 229.27C244.9 228.79 244.9 228.27 244.84 227.84C244.845 227.172 244.812 226.504 244.74 225.84L240.74 188.91L271.74 164.03C273.755 162.412 275.381 160.362 276.498 158.031C277.616 155.701 278.196 153.149 278.196 150.565C278.196 147.981 277.616 145.429 276.498 143.099C275.381 140.768 273.755 138.718 271.74 137.1L271.62 137.07Z" fill="#DEDFE0"/>
</g>
<g style="mix-blend-mode:multiply" opacity="0.51">
<path d="M272.68 136L241.57 111L245.75 72.6C246.021 70.0385 245.715 67.4489 244.856 65.0206C243.997 62.5924 242.606 60.3869 240.784 58.5656C238.963 56.7442 236.758 55.3531 234.329 54.4939C231.901 53.6348 229.312 53.3294 226.75 53.6L188.35 57.78L164.15 27.61C162.53 25.5965 160.478 23.9718 158.147 22.8556C155.816 21.7393 153.265 21.1599 150.68 21.1599C148.095 21.1599 145.544 21.7393 143.213 22.8556C140.882 23.9718 138.83 25.5965 137.21 27.61L113.01 57.73L74.61 53.55C72.0485 53.2794 69.4589 53.5848 67.0306 54.4439C64.6024 55.3031 62.3969 56.6942 60.5755 58.5156C58.7542 60.3369 57.3631 62.5424 56.5039 64.9706C55.6448 67.3989 55.3394 69.9885 55.61 72.55L59.68 111L28.68 135.91C26.672 137.53 25.0521 139.578 23.9393 141.906C22.8264 144.233 22.2488 146.78 22.2488 149.36C22.2488 151.94 22.8264 154.487 23.9393 156.814C25.0521 159.142 26.672 161.19 28.68 162.81L59.58 187.81L55.58 224.81C55.58 225.22 55.51 225.64 55.49 226.04V226.4C55.2213 228.961 55.528 231.55 56.3878 233.977C57.2476 236.405 58.6388 238.609 60.4597 240.43C62.2806 242.251 64.4853 243.642 66.9127 244.502C69.3401 245.362 71.9289 245.669 74.49 245.4L113.03 241.24L137.15 271.32C138.768 273.337 140.819 274.965 143.15 276.083C145.481 277.201 148.034 277.782 150.62 277.782C153.206 277.782 155.759 277.201 158.09 276.083C160.421 274.965 162.472 273.337 164.09 271.32L188.29 241.22L226.69 245.39C227.33 245.46 227.91 245.46 228.63 245.49C233.209 245.487 237.599 243.667 240.835 240.428C244.072 237.19 245.89 232.799 245.89 228.22C245.89 227.73 245.89 227.22 245.84 226.78C245.84 226.112 245.807 225.445 245.74 224.78L241.74 187.85L272.74 162.98C274.755 161.361 276.381 159.31 277.499 156.979C278.616 154.647 279.196 152.095 279.196 149.51C279.196 146.925 278.616 144.373 277.499 142.041C276.381 139.71 274.755 137.659 272.74 136.04L272.68 136Z" fill="#DDDEDF"/>
</g>
<g style="mix-blend-mode:multiply" opacity="0.54">
<path d="M273.74 135L242.63 110L246.81 71.5999C247.089 69.0345 246.789 66.4392 245.934 64.0047C245.078 61.5701 243.688 59.3581 241.866 57.531C240.044 55.7039 237.835 54.3081 235.403 53.4462C232.971 52.5842 230.376 52.278 227.81 52.5499L189.41 56.7299L165.15 26.5499C163.527 24.5397 161.476 22.918 159.145 21.804C156.814 20.6899 154.263 20.1117 151.68 20.1117C149.097 20.1117 146.546 20.6899 144.215 21.804C141.884 22.918 139.833 24.5397 138.21 26.5499L114.01 56.6699L75.61 52.4899C73.0439 52.218 70.4494 52.5242 68.0171 53.3862C65.5848 54.2481 63.3764 55.6439 61.5541 57.471C59.7318 59.2981 58.3418 61.5101 57.4863 63.9447C56.6307 66.3792 56.3313 68.9745 56.61 71.5399L60.78 109.94L29.78 134.85C27.772 136.47 26.1522 138.518 25.0393 140.846C23.9264 143.173 23.3488 145.72 23.3488 148.3C23.3488 150.88 23.9264 153.427 25.0393 155.754C26.1522 158.082 27.772 160.13 29.78 161.75L60.68 186.75L56.68 223.75C56.63 224.16 56.61 224.58 56.59 224.99V225.34C56.3194 227.901 56.6248 230.491 57.4839 232.919C58.3431 235.348 59.7342 237.553 61.5556 239.374C63.3769 241.196 65.5824 242.587 68.0106 243.446C70.4389 244.305 73.0285 244.611 75.59 244.34L114.13 240.18L138.34 270.3C139.96 272.313 142.012 273.938 144.343 275.054C146.674 276.171 149.225 276.75 151.81 276.75C154.395 276.75 156.946 276.171 159.277 275.054C161.608 273.938 163.66 272.313 165.28 270.3L189.48 240.19L227.88 244.36C228.52 244.43 229.1 244.43 229.82 244.46C234.399 244.457 238.789 242.637 242.025 239.398C245.262 236.16 247.08 231.768 247.08 227.19C247.08 226.71 247.08 226.19 247.03 225.76C247.03 225.092 246.997 224.424 246.93 223.76L242.93 186.83L273.93 161.96C275.945 160.341 277.571 158.29 278.689 155.959C279.806 153.627 280.386 151.075 280.386 148.49C280.386 145.905 279.806 143.353 278.689 141.021C277.571 138.69 275.945 136.639 273.93 135.02L273.74 135Z" fill="#DBDCDD"/>
</g>
<g style="mix-blend-mode:multiply" opacity="0.56">
<path d="M274.8 133.89L243.69 108.89L247.87 70.49C248.15 67.92 247.85 65.3198 246.991 62.8812C246.133 60.4426 244.739 58.2276 242.91 56.3996C241.082 54.5715 238.867 53.1769 236.429 52.3186C233.99 51.4602 231.39 51.16 228.82 51.44L190.42 55.62L166.21 25.5C164.591 23.4866 162.54 21.8621 160.21 20.7458C157.88 19.6296 155.329 19.0502 152.745 19.0502C150.161 19.0502 147.61 19.6296 145.28 20.7458C142.95 21.8621 140.899 23.4866 139.28 25.5L115.07 55.61L76.67 51.43C74.1039 51.1581 71.5094 51.4643 69.0771 52.3263C66.6448 53.1882 64.4364 54.584 62.6141 56.4111C60.7918 58.2382 59.4018 60.4502 58.5463 62.8848C57.6907 65.3193 57.3913 67.9146 57.67 70.48L61.84 108.88L30.84 133.79C28.8302 135.41 27.2088 137.459 26.0948 139.787C24.9808 142.116 24.4026 144.664 24.4026 147.245C24.4026 149.826 24.9808 152.374 26.0948 154.703C27.2088 157.031 28.8302 159.08 30.84 160.7L61.74 185.7L57.74 222.7C57.6933 223.113 57.6633 223.523 57.65 223.93V224.28C57.3794 226.842 57.6848 229.431 58.5439 231.859C59.4031 234.288 60.7942 236.493 62.6156 238.314C64.4369 240.136 66.6424 241.527 69.0706 242.386C71.4989 243.245 74.0885 243.551 76.65 243.28L115.19 239.12L139.4 269.24C141.019 271.253 143.07 272.878 145.4 273.994C147.73 275.11 150.281 275.69 152.865 275.69C155.449 275.69 158 275.11 160.33 273.994C162.66 272.878 164.711 271.253 166.33 269.24L190.53 239.13L228.94 243.3C229.58 243.37 230.16 243.38 230.88 243.41C235.459 243.405 239.85 241.582 243.086 238.342C246.322 235.102 248.14 230.71 248.14 226.13C248.14 225.65 248.14 225.13 248.09 224.7C248.092 224.032 248.055 223.364 247.98 222.7L243.98 185.77L274.93 160.9C276.947 159.282 278.575 157.231 279.693 154.9C280.811 152.569 281.392 150.016 281.392 147.43C281.392 144.844 280.811 142.291 279.693 139.96C278.575 137.629 276.947 135.578 274.93 133.96L274.8 133.89Z" fill="#D9DBDC"/>
</g>
<g style="mix-blend-mode:multiply" opacity="0.59">
<path d="M275.86 132.83L244.75 107.83L248.93 69.43C249.2 66.8642 248.892 64.2706 248.03 61.8391C247.167 59.4077 245.771 57.2001 243.945 55.3782C242.118 53.5564 239.907 52.1664 237.473 51.3101C235.039 50.4539 232.445 50.1532 229.88 50.43L191.48 54.6L167.27 24.44C165.651 22.4266 163.6 20.802 161.27 19.6858C158.94 18.5696 156.389 17.9901 153.805 17.9901C151.221 17.9901 148.67 18.5696 146.34 19.6858C144.01 20.802 141.959 22.4266 140.34 24.44L116.15 54.55L77.75 50.38C75.1885 50.1093 72.5989 50.4147 70.1706 51.2739C67.7424 52.133 65.5369 53.5242 63.7155 55.3455C61.8942 57.1668 60.5031 59.3723 59.6439 61.8006C58.7848 64.2288 58.4794 66.8185 58.75 69.38L62.92 107.78L31.92 132.69C29.9102 134.31 28.2888 136.359 27.1748 138.687C26.0608 141.015 25.4826 143.564 25.4826 146.145C25.4826 148.726 26.0608 151.274 27.1748 153.603C28.2888 155.931 29.9102 157.98 31.92 159.6L62.82 184.6L58.82 221.6C58.7652 222.008 58.7351 222.419 58.73 222.83V223.18C58.4556 225.742 58.7584 228.334 59.6161 230.764C60.4739 233.194 61.865 235.401 63.6872 237.223C65.5094 239.045 67.7165 240.436 70.1465 241.294C72.5765 242.152 75.1677 242.454 77.73 242.18L116.15 238L140.37 268.12C141.989 270.133 144.04 271.758 146.37 272.874C148.7 273.99 151.251 274.57 153.835 274.57C156.419 274.57 158.97 273.99 161.3 272.874C163.63 271.758 165.681 270.133 167.3 268.12L191.47 238L229.88 242.18C230.52 242.25 231.09 242.25 231.81 242.28C236.391 242.277 240.784 240.456 244.022 237.215C247.261 233.975 249.08 229.581 249.08 225C249.08 224.52 249.08 224 249.02 223.57C249.03 222.902 248.996 222.234 248.92 221.57L244.92 184.65L275.87 159.77C277.884 158.15 279.508 156.098 280.624 153.767C281.741 151.436 282.32 148.885 282.32 146.3C282.32 143.715 281.741 141.164 280.624 138.833C279.508 136.502 277.884 134.45 275.87 132.83H275.86Z" fill="#D8D9DA"/>
</g>
<g style="mix-blend-mode:multiply" opacity="0.61">
<path d="M276.92 131.78L245.8 106.78L249.98 68.37C250.251 65.8085 249.945 63.2189 249.086 60.7907C248.227 58.3624 246.836 56.1569 245.014 54.3356C243.193 52.5142 240.988 51.1231 238.559 50.264C236.131 49.4048 233.542 49.0994 230.98 49.37L192.58 53.54L168.33 23.38C166.71 21.3665 164.658 19.7419 162.327 18.6256C159.996 17.5094 157.445 16.9299 154.86 16.9299C152.275 16.9299 149.724 17.5094 147.393 18.6256C145.062 19.7419 143.01 21.3665 141.39 23.38L117.15 53.49L78.75 49.32C76.1885 49.0494 73.5989 49.3548 71.1706 50.214C68.7424 51.0731 66.5369 52.4642 64.7155 54.2856C62.8942 56.1069 61.5031 58.3124 60.6439 60.7407C59.7848 63.1689 59.4793 65.7585 59.75 68.32L63.93 106.72L32.93 131.64C30.9204 133.259 29.299 135.307 28.185 137.635C27.0711 139.962 26.4928 142.51 26.4928 145.09C26.4928 147.67 27.0711 150.218 28.185 152.546C29.299 154.873 30.9204 156.921 32.93 158.54L63.83 183.54L59.83 220.54C59.78 220.95 59.76 221.36 59.75 221.77V222.13C59.4755 224.692 59.7783 227.284 60.6361 229.714C61.4939 232.144 62.885 234.351 64.7072 236.173C66.5294 237.995 68.7364 239.386 71.1664 240.244C73.5964 241.102 76.1877 241.404 78.75 241.13L117.15 237L141.36 267.12C142.978 269.137 145.029 270.765 147.36 271.883C149.691 273.001 152.244 273.582 154.83 273.582C157.416 273.582 159.969 273.001 162.3 271.883C164.631 270.765 166.682 269.137 168.3 267.12L192.53 237L230.93 241.18C231.57 241.25 232.15 241.25 232.87 241.28C237.453 241.28 241.848 239.459 245.089 236.219C248.329 232.978 250.15 228.583 250.15 224C250.15 223.52 250.15 223 250.09 222.57C250.099 221.902 250.066 221.234 249.99 220.57L245.99 183.65L276.99 158.77C279.003 157.151 280.628 155.1 281.744 152.77C282.86 150.44 283.44 147.889 283.44 145.305C283.44 142.721 282.86 140.17 281.744 137.84C280.628 135.51 279.003 133.459 276.99 131.84L276.92 131.78Z" fill="#D6D7D9"/>
</g>
<g style="mix-blend-mode:multiply" opacity="0.63">
<path d="M277.97 130.72L246.86 105.72L251.04 67.32C251.319 64.7546 251.019 62.1593 250.164 59.7247C249.308 57.2902 247.918 55.0781 246.096 53.251C244.274 51.4239 242.065 50.0282 239.633 49.1662C237.201 48.3043 234.606 47.998 232.04 48.27L193.64 52.45L169.39 22.32C167.77 20.3064 165.718 18.6818 163.387 17.5656C161.056 16.4493 158.505 15.8699 155.92 15.8699C153.335 15.8699 150.784 16.4493 148.453 17.5656C146.122 18.6818 144.07 20.3064 142.45 22.32L118.25 52.44L79.85 48.26C77.2799 47.98 74.6798 48.2802 72.2412 49.1385C69.8026 49.9969 67.5876 51.3915 65.7595 53.2195C63.9315 55.0476 62.5369 57.2625 61.6786 59.7012C60.8202 62.1398 60.52 64.7399 60.8 67.31L64.97 105.71L33.97 130.62C31.962 132.24 30.3422 134.288 29.2293 136.616C28.1164 138.943 27.5388 141.49 27.5388 144.07C27.5388 146.65 28.1164 149.197 29.2293 151.524C30.3422 153.852 31.962 155.9 33.97 157.52L64.87 182.52L60.87 219.52C60.87 219.93 60.8 220.35 60.78 220.75V221.11C60.5094 223.671 60.8148 226.261 61.6739 228.689C62.5331 231.118 63.9242 233.323 65.7456 235.144C67.5669 236.966 69.7724 238.357 72.2006 239.216C74.6289 240.075 77.2185 240.381 79.78 240.11L118.32 235.96L142.45 266C144.068 268.017 146.119 269.644 148.45 270.763C150.781 271.881 153.334 272.462 155.92 272.462C158.506 272.462 161.059 271.881 163.39 270.763C165.721 269.644 167.772 268.017 169.39 266L193.59 235.89L231.99 240.07C232.63 240.14 233.21 240.14 233.93 240.17C238.498 240.157 242.875 238.334 246.102 235.101C249.33 231.868 251.145 227.488 251.15 222.92C251.15 222.44 251.15 221.97 251.15 221.49C251.155 220.822 251.122 220.154 251.05 219.49L247.05 182.56L278.05 157.69C280.065 156.071 281.691 154.02 282.809 151.689C283.926 149.357 284.506 146.805 284.506 144.22C284.506 141.635 283.926 139.083 282.809 136.751C281.691 134.42 280.065 132.369 278.05 130.75L277.97 130.72Z" fill="#D5D6D7"/>
</g>
<g style="mix-blend-mode:multiply" opacity="0.66">
<path d="M279.03 129.66L247.92 104.66L252.15 66.25C252.421 63.6885 252.115 61.0989 251.256 58.6707C250.397 56.2424 249.006 54.0369 247.184 52.2156C245.363 50.3942 243.158 49.0031 240.729 48.144C238.301 47.2848 235.712 46.9794 233.15 47.25L194.75 51.43L170.45 21.26C168.83 19.2465 166.778 17.6219 164.447 16.5056C162.116 15.3894 159.565 14.8099 156.98 14.8099C154.395 14.8099 151.844 15.3894 149.513 16.5056C147.182 17.6219 145.13 19.2465 143.51 21.26L119.31 51.3801L80.9 47.2001C78.3385 46.9294 75.7489 47.2348 73.3206 48.094C70.8924 48.9531 68.6869 50.3442 66.8655 52.1656C65.0442 53.9869 63.6531 56.1924 62.7939 58.6207C61.9348 61.0489 61.6293 63.6385 61.9 66.2L66.07 104.6L35.07 129.51C33.062 131.13 31.4421 133.178 30.3293 135.506C29.2164 137.833 28.6388 140.38 28.6388 142.96C28.6388 145.54 29.2164 148.087 30.3293 150.414C31.4421 152.742 33.062 154.79 35.07 156.41L65.97 181.41L61.97 218.41C61.92 218.82 61.9 219.24 61.88 219.64V220C61.6093 222.562 61.9148 225.151 62.7739 227.579C63.6331 230.008 65.0242 232.213 66.8455 234.035C68.6669 235.856 70.8723 237.247 73.3006 238.106C75.7289 238.965 78.3185 239.271 80.88 239L119.42 234.84L143.51 265C145.128 267.017 147.179 268.645 149.51 269.763C151.841 270.881 154.394 271.462 156.98 271.462C159.566 271.462 162.119 270.881 164.45 269.763C166.781 268.645 168.832 267.017 170.45 265L194.65 234.9L233.05 239C233.69 239.07 234.27 239.07 234.99 239.1C239.569 239.097 243.959 237.277 247.195 234.038C250.432 230.8 252.25 226.409 252.25 221.83C252.25 221.34 252.25 220.83 252.25 220.4C252.25 219.732 252.217 219.065 252.15 218.4L248.15 181.47L279.15 156.6C281.165 154.981 282.791 152.93 283.909 150.599C285.026 148.267 285.606 145.715 285.606 143.13C285.606 140.545 285.026 137.993 283.909 135.661C282.791 133.33 281.165 131.279 279.15 129.66H279.03Z" fill="#D3D4D6"/>
</g>
<g style="mix-blend-mode:multiply" opacity="0.68">
<path d="M280.09 128.6L248.98 103.6L253.15 65.19C253.421 62.6285 253.115 60.0389 252.256 57.6106C251.397 55.1823 250.006 52.9769 248.184 51.1555C246.363 49.3342 244.158 47.9431 241.729 47.0839C239.301 46.2248 236.712 45.9193 234.15 46.19L195.75 50.37L171.5 20.21C169.881 18.1966 167.83 16.572 165.5 15.4558C163.17 14.3396 160.619 13.7601 158.035 13.7601C155.451 13.7601 152.9 14.3396 150.57 15.4558C148.24 16.572 146.189 18.1966 144.57 20.21L120.37 50.32L81.96 46.14C79.3985 45.8693 76.8089 46.1748 74.3806 47.0339C71.9524 47.8931 69.7469 49.2842 67.9255 51.1055C66.1042 52.9269 64.7131 55.1323 63.8539 57.5606C62.9948 59.9889 62.6894 62.5785 62.96 65.14L67.13 103.54L36.13 128.45C34.1204 130.069 32.499 132.117 31.385 134.444C30.2711 136.772 29.6928 139.32 29.6928 141.9C29.6928 144.48 30.2711 147.028 31.385 149.356C32.499 151.683 34.1204 153.731 36.13 155.35L67.03 180.35L63.03 217.35C62.98 217.76 62.96 218.17 62.94 218.58V218.93C62.6694 221.491 62.9748 224.081 63.8339 226.509C64.6931 228.938 66.0842 231.143 67.9055 232.964C69.7269 234.786 71.9324 236.177 74.3606 237.036C76.7889 237.895 79.3785 238.201 81.94 237.93L120.48 233.77L144.69 263.89C146.309 265.903 148.36 267.528 150.69 268.644C153.02 269.76 155.571 270.34 158.155 270.34C160.739 270.34 163.29 269.76 165.62 268.644C167.95 267.528 170.001 265.903 171.62 263.89L195.82 233.78L234.15 238C234.79 238.07 235.37 238.08 236.09 238.1C240.669 238.097 245.059 236.277 248.295 233.038C251.532 229.8 253.35 225.409 253.35 220.83C253.35 220.35 253.35 219.83 253.35 219.4C253.35 218.732 253.317 218.065 253.25 217.4L249.25 180.47L280.25 155.6C282.265 153.981 283.891 151.93 285.009 149.599C286.126 147.267 286.706 144.715 286.706 142.13C286.706 139.545 286.126 136.993 285.009 134.661C283.891 132.33 282.265 130.279 280.25 128.66L280.09 128.6Z" fill="#D1D3D4"/>
</g>
<g style="mix-blend-mode:multiply" opacity="0.71">
<path d="M281.15 127.54L250.04 102.54L254.22 64.14C254.489 61.5789 254.182 58.9901 253.322 56.5627C252.462 54.1354 251.071 51.9307 249.25 50.1098C247.429 48.2888 245.225 46.8977 242.797 46.0378C240.37 45.178 237.781 44.8713 235.22 45.14L196.82 49.31L172.56 19.15C170.941 17.1367 168.89 15.5121 166.56 14.3959C164.23 13.2796 161.679 12.7002 159.095 12.7002C156.511 12.7002 153.96 13.2796 151.63 14.3959C149.3 15.5121 147.249 17.1367 145.63 19.15L121.42 49.26L83.02 45.09C80.4585 44.8194 77.8689 45.1248 75.4406 45.984C73.0124 46.8431 70.8069 48.2342 68.9856 50.0556C67.1642 51.8769 65.7731 54.0824 64.9139 56.5107C64.0548 58.9389 63.7494 61.5285 64.02 64.09L68.15 102.53L37.15 127.44C35.1402 129.06 33.5188 131.109 32.4048 133.437C31.2908 135.766 30.7126 138.314 30.7126 140.895C30.7126 143.476 31.2908 146.025 32.4048 148.353C33.5188 150.681 35.1402 152.73 37.15 154.35L68.05 179.35L64.05 216.35C63.9952 216.758 63.9651 217.169 63.96 217.58V217.93C63.6894 220.492 63.9948 223.081 64.8539 225.509C65.7131 227.938 67.1042 230.143 68.9256 231.965C70.7469 233.786 72.9524 235.177 75.3806 236.036C77.8089 236.895 80.3985 237.201 82.96 236.93L121.49 232.77L145.71 262.89C147.329 264.903 149.38 266.528 151.71 267.644C154.04 268.76 156.591 269.34 159.175 269.34C161.759 269.34 164.31 268.76 166.64 267.644C168.97 266.528 171.021 264.903 172.64 262.89L196.84 232.78L235.15 236.93C235.79 236.99 236.36 237 237.09 237.03C241.669 237.025 246.06 235.202 249.296 231.962C252.532 228.722 254.35 224.33 254.35 219.75C254.35 219.27 254.35 218.75 254.29 218.32C254.3 217.652 254.266 216.984 254.19 216.32L250.19 179.4L281.15 154.48C283.164 152.86 284.788 150.808 285.904 148.477C287.021 146.146 287.6 143.595 287.6 141.01C287.6 138.425 287.021 135.874 285.904 133.543C284.788 131.212 283.164 129.16 281.15 127.54Z" fill="#D0D1D2"/>
</g>
<g style="mix-blend-mode:multiply" opacity="0.73">
<path d="M282.21 126.48L251.1 101.48L255.28 63.08C255.549 60.5189 255.242 57.9301 254.382 55.5027C253.522 53.0753 252.131 50.8706 250.31 49.0497C248.489 47.2288 246.285 45.8376 243.857 44.9778C241.43 44.118 238.841 43.8113 236.28 44.08L197.88 48.25L173.62 18.09C172 16.0765 169.948 14.4518 167.617 13.3356C165.286 12.2193 162.735 11.6399 160.15 11.6399C157.565 11.6399 155.014 12.2193 152.683 13.3356C150.352 14.4518 148.3 16.0765 146.68 18.09L122.48 48.2L84.08 44C81.515 43.7232 78.9205 44.024 76.4868 44.8802C74.0531 45.7364 71.8419 47.1264 70.0152 48.9483C68.1886 50.7702 66.7928 52.9777 65.9301 55.4092C65.0675 57.8406 64.76 60.4343 65.03 63L69.21 101.4L38.21 126.31C36.2002 127.93 34.5788 129.979 33.4648 132.307C32.3508 134.636 31.7726 137.184 31.7726 139.765C31.7726 142.346 32.3508 144.894 33.4648 147.223C34.5788 149.551 36.2002 151.6 38.21 153.22L69.11 178.22L65.11 215.22C65.11 215.63 65.04 216.04 65.03 216.45V216.8C64.7556 219.362 65.0584 221.954 65.9162 224.384C66.774 226.814 68.165 229.021 69.9872 230.843C71.8094 232.665 74.0165 234.056 76.4465 234.914C78.8765 235.772 81.4677 236.074 84.03 235.8L122.56 231.64L146.77 261.76C148.388 263.777 150.439 265.405 152.77 266.523C155.101 267.641 157.654 268.222 160.24 268.222C162.826 268.222 165.379 267.641 167.71 266.523C170.041 265.405 172.092 263.777 173.71 261.76L197.91 231.65L236.31 235.83C236.96 235.9 237.53 235.9 238.25 235.93C242.831 235.927 247.224 234.106 250.462 230.865C253.701 227.625 255.52 223.231 255.52 218.65C255.52 218.17 255.52 217.65 255.46 217.22C255.47 216.552 255.436 215.884 255.36 215.22L251.36 178.3L282.31 153.42C284.324 151.8 285.948 149.748 287.064 147.417C288.181 145.086 288.76 142.535 288.76 139.95C288.76 137.365 288.181 134.814 287.064 132.483C285.948 130.152 284.324 128.1 282.31 126.48H282.21Z" fill="#CECFD1"/>
</g>
<g style="mix-blend-mode:multiply" opacity="0.76">
<path d="M283.26 125.43L252.15 100.43L256.33 62C256.601 59.4385 256.295 56.8489 255.436 54.4207C254.577 51.9924 253.186 49.7869 251.364 47.9656C249.543 46.1442 247.338 44.7531 244.909 43.894C242.481 43.0348 239.892 42.7294 237.33 43L198.93 47.18L174.68 17C173.06 14.9865 171.008 13.3618 168.677 12.2456C166.346 11.1294 163.795 10.5499 161.21 10.5499C158.625 10.5499 156.074 11.1294 153.743 12.2456C151.412 13.3618 149.36 14.9865 147.74 17L123.54 47.12L85.15 43C82.5885 42.7294 79.9989 43.0348 77.5706 43.894C75.1424 44.7531 72.9369 46.1442 71.1156 47.9656C69.2942 49.7869 67.9031 51.9924 67.0439 54.4207C66.1848 56.8489 65.8794 59.4385 66.15 62L70.32 100.4L39.32 125.32C37.3104 126.939 35.689 128.987 34.575 131.315C33.4611 133.642 32.8828 136.19 32.8828 138.77C32.8828 141.35 33.4611 143.898 34.575 146.226C35.689 148.553 37.3104 150.601 39.32 152.22L70.15 177.2L66.15 214.2C66.15 214.61 66.08 215.02 66.07 215.43V215.79C65.7956 218.352 66.0984 220.944 66.9562 223.374C67.814 225.804 69.205 228.011 71.0272 229.833C72.8494 231.655 75.0565 233.046 77.4865 233.904C79.9165 234.762 82.5077 235.064 85.07 234.79L123.61 230.63L147.82 260.75C149.438 262.767 151.489 264.395 153.82 265.513C156.151 266.631 158.704 267.212 161.29 267.212C163.876 267.212 166.429 266.631 168.76 265.513C171.091 264.395 173.142 262.767 174.76 260.75L198.96 230.64L237.36 234.82C238 234.89 238.58 234.89 239.3 234.92C241.568 234.919 243.813 234.471 245.908 233.602C248.003 232.732 249.906 231.459 251.509 229.855C253.112 228.25 254.383 226.346 255.249 224.25C256.116 222.154 256.561 219.908 256.56 217.64C256.56 217.16 256.56 216.69 256.51 216.21C256.515 215.542 256.481 214.874 256.41 214.21L252.41 177.29L283.41 152.41C285.425 150.792 287.051 148.742 288.168 146.411C289.286 144.081 289.866 141.529 289.866 138.945C289.866 136.361 289.286 133.809 288.168 131.479C287.051 129.148 285.425 127.098 283.41 125.48L283.26 125.43Z" fill="#CCCECF"/>
</g>
<g style="mix-blend-mode:multiply" opacity="0.78">
<path d="M284.32 124.37L253.21 99.37L257.39 61C257.669 58.4346 257.369 55.8393 256.514 53.4048C255.658 50.9702 254.268 48.7582 252.446 46.9311C250.624 45.104 248.415 43.7082 245.983 42.8463C243.551 41.9843 240.956 41.6781 238.39 41.95L199.99 46.13L175.74 16C174.12 13.9865 172.068 12.3618 169.737 11.2456C167.406 10.1294 164.855 9.54993 162.27 9.54993C159.685 9.54993 157.134 10.1294 154.803 11.2456C152.472 12.3618 150.42 13.9865 148.8 16L124.6 46.12L86.15 41.91C83.5801 41.637 80.9817 41.9439 78.5462 42.8081C76.1106 43.6723 73.8999 45.0717 72.0768 46.9034C70.2538 48.7352 68.8647 50.9524 68.0121 53.3921C67.1594 55.8317 66.8648 58.4315 67.15 61L71.32 99.4L40.32 124.31C38.312 125.93 36.6921 127.978 35.5793 130.306C34.4664 132.633 33.8888 135.18 33.8888 137.76C33.8888 140.34 34.4664 142.887 35.5793 145.214C36.6921 147.542 38.312 149.59 40.32 151.21L71.22 176.21L67.22 213.21C67.22 213.62 67.15 214.04 67.13 214.44V214.8C66.8612 217.361 67.168 219.95 68.0278 222.377C68.8876 224.805 70.2788 227.009 72.0997 228.83C73.9206 230.651 76.1253 232.042 78.5527 232.902C80.9801 233.762 83.5689 234.069 86.13 233.8L124.67 229.64L148.88 259.75C150.498 261.767 152.549 263.395 154.88 264.513C157.211 265.631 159.764 266.212 162.35 266.212C164.936 266.212 167.489 265.631 169.82 264.513C172.151 263.395 174.202 261.767 175.82 259.75L200.02 229.65L238.42 233.82C239.06 233.89 239.64 233.89 240.36 233.92C242.628 233.919 244.873 233.471 246.968 232.602C249.063 231.732 250.966 230.459 252.569 228.855C254.172 227.25 255.443 225.346 256.309 223.25C257.176 221.154 257.621 218.908 257.62 216.64C257.62 216.16 257.62 215.69 257.57 215.22C257.575 214.552 257.542 213.884 257.47 213.22L253.47 176.29L284.47 151.42C286.485 149.801 288.111 147.75 289.229 145.419C290.346 143.087 290.926 140.535 290.926 137.95C290.926 135.365 290.346 132.813 289.229 130.481C288.111 128.15 286.485 126.099 284.47 124.48L284.32 124.37Z" fill="#CBCCCE"/>
</g>
<g style="mix-blend-mode:multiply" opacity="0.8">
<path d="M285.38 123.31L254.27 98.3099L258.45 59.9099C258.721 57.3484 258.415 54.7588 257.556 52.3306C256.697 49.9023 255.306 47.6968 253.484 45.8755C251.663 44.0541 249.458 42.663 247.029 41.8039C244.601 40.9447 242.012 40.6393 239.45 40.9099L201 44.9999L176.8 14.8899C175.18 12.8764 173.128 11.2517 170.797 10.1355C168.466 9.01925 165.915 8.43982 163.33 8.43982C160.745 8.43982 158.194 9.01925 155.863 10.1355C153.532 11.2517 151.48 12.8764 149.86 14.8899L125.66 44.9999L87.25 40.8499C84.6885 40.5793 82.0989 40.8847 79.6706 41.7439C77.2424 42.603 75.0369 43.9941 73.2156 45.8155C71.3942 47.6368 70.0031 49.8423 69.1439 52.2706C68.2848 54.6988 67.9794 57.2884 68.25 59.8499L72.42 98.2499L41.42 123.16C39.4104 124.779 37.789 126.827 36.675 129.154C35.5611 131.482 34.9828 134.03 34.9828 136.61C34.9828 139.19 35.5611 141.738 36.675 144.065C37.789 146.393 39.4104 148.441 41.42 150.06L72.32 175.06L68.32 212.01C68.32 212.42 68.25 212.84 68.23 213.25V213.6C67.9594 216.161 68.2648 218.751 69.1239 221.179C69.9831 223.608 71.3742 225.813 73.1955 227.634C75.0169 229.456 77.2224 230.847 79.6506 231.706C82.0789 232.565 84.6685 232.871 87.23 232.6L125.77 228.44L149.98 258.56C151.6 260.573 153.652 262.198 155.983 263.314C158.314 264.431 160.865 265.01 163.45 265.01C166.035 265.01 168.586 264.431 170.917 263.314C173.248 262.198 175.3 260.573 176.92 258.56L201.12 228.45L239.52 232.62C240.16 232.69 240.74 232.69 241.46 232.72C246.039 232.717 250.429 230.897 253.665 227.658C256.902 224.42 258.72 220.028 258.72 215.45C258.72 214.97 258.72 214.45 258.67 214.02C258.67 213.352 258.637 212.684 258.57 212.02L254.57 175.09L285.57 150.22C287.585 148.601 289.211 146.55 290.329 144.219C291.446 141.887 292.026 139.335 292.026 136.75C292.026 134.165 291.446 131.613 290.329 129.281C289.211 126.95 287.585 124.899 285.57 123.28L285.38 123.31Z" fill="#C9CBCC"/>
</g>
<g style="mix-blend-mode:multiply" opacity="0.83">
<path d="M286.44 122.25L255.33 97.25L259.51 58.85C259.79 56.2799 259.49 53.6798 258.631 51.2412C257.773 48.8026 256.379 46.5876 254.55 44.7595C252.722 42.9315 250.507 41.5369 248.069 40.6785C245.63 39.8202 243.03 39.52 240.46 39.8L202.06 44L177.85 13.86C176.231 11.8466 174.18 10.222 171.85 9.10581C169.52 7.98959 166.969 7.41016 164.385 7.41016C161.801 7.41016 159.25 7.98959 156.92 9.10581C154.59 10.222 152.539 11.8466 150.92 13.86L126.71 44L88.31 39.82C85.7439 39.5481 83.1494 39.8543 80.7171 40.7162C78.2848 41.5782 76.0764 42.9739 74.2541 44.801C72.4318 46.6281 71.0418 48.8402 70.1863 51.2747C69.3307 53.7093 69.0313 56.3046 69.31 58.87L73.48 97.27L42.48 122.18C40.4704 123.799 38.849 125.847 37.735 128.174C36.6211 130.502 36.0428 133.05 36.0428 135.63C36.0428 138.21 36.6211 140.758 37.735 143.086C38.849 145.413 40.4704 147.461 42.48 149.08L73.38 174.08L69.38 211.08C69.3252 211.488 69.2951 211.899 69.29 212.31V212.66C69.0194 215.222 69.3248 217.811 70.1839 220.239C71.0431 222.668 72.4342 224.873 74.2556 226.694C76.0769 228.516 78.2824 229.907 80.7106 230.766C83.1389 231.625 85.7285 231.931 88.29 231.66L126.83 227.5L151.04 257.62C152.659 259.633 154.71 261.258 157.04 262.374C159.37 263.49 161.921 264.07 164.505 264.07C167.089 264.07 169.64 263.49 171.97 262.374C174.3 261.258 176.351 259.633 177.97 257.62L202.17 227.51L240.58 231.68C241.22 231.75 241.8 231.76 242.52 231.78C247.099 231.777 251.489 229.957 254.725 226.718C257.962 223.48 259.78 219.089 259.78 214.51C259.78 214.03 259.78 213.51 259.73 213.08C259.73 212.412 259.697 211.745 259.63 211.08L255.63 174.15L286.63 149.28C288.645 147.661 290.271 145.61 291.389 143.279C292.506 140.947 293.086 138.395 293.086 135.81C293.086 133.225 292.506 130.673 291.389 128.341C290.271 126.01 288.645 123.959 286.63 122.34L286.44 122.25Z" fill="#C7C9CB"/>
</g>
<g style="mix-blend-mode:multiply" opacity="0.85">
<path d="M287.5 121.19L256.39 96.19L260.57 57.79C260.84 55.2242 260.532 52.6306 259.67 50.1991C258.807 47.7677 257.411 45.5601 255.585 43.7382C253.758 41.9164 251.547 40.5264 249.113 39.6701C246.679 38.8139 244.085 38.5132 241.52 38.79L203.15 42.91L178.91 12.8C177.29 10.7864 175.238 9.16177 172.907 8.04553C170.576 6.92929 168.025 6.34985 165.44 6.34985C162.855 6.34985 160.304 6.92929 157.973 8.04553C155.642 9.16177 153.59 10.7864 151.97 12.8L127.77 42.91L89.37 38.74C86.8089 38.4712 84.2201 38.778 81.7927 39.6378C79.3653 40.4976 77.1606 41.8888 75.3397 43.7097C73.5188 45.5306 72.1276 47.7353 71.2678 50.1627C70.408 52.5901 70.1013 55.1789 70.37 57.74L74.55 96.14L43.55 121.05C41.5402 122.67 39.9188 124.719 38.8048 127.047C37.6908 129.375 37.1126 131.924 37.1126 134.505C37.1126 137.086 37.6908 139.634 38.8048 141.963C39.9188 144.291 41.5402 146.34 43.55 147.96L74.45 172.96L70.45 209.96C70.45 210.37 70.38 210.78 70.37 211.19V211.54C70.0956 214.102 70.3984 216.694 71.2562 219.124C72.114 221.554 73.505 223.761 75.3272 225.583C77.1494 227.405 79.3565 228.796 81.7865 229.654C84.2165 230.512 86.8077 230.814 89.37 230.54L127.9 226.38L152.11 256.5C153.73 258.514 155.782 260.138 158.113 261.254C160.444 262.371 162.995 262.95 165.58 262.95C168.165 262.95 170.716 262.371 173.047 261.254C175.378 260.138 177.43 258.514 179.05 256.5L203.15 226.4L241.56 230.58C242.2 230.64 242.77 230.65 243.49 230.68C248.071 230.677 252.464 228.856 255.702 225.615C258.941 222.375 260.76 217.981 260.76 213.4C260.76 212.92 260.76 212.4 260.7 211.97C260.708 211.302 260.678 210.634 260.61 209.97L256.61 173.05L287.61 148.17C289.624 146.55 291.248 144.498 292.364 142.167C293.481 139.836 294.06 137.285 294.06 134.7C294.06 132.115 293.481 129.564 292.364 127.233C291.248 124.902 289.624 122.85 287.61 121.23L287.5 121.19Z" fill="#C6C8C9"/>
</g>
<g style="mix-blend-mode:multiply" opacity="0.88">
<path d="M288.55 120.13L257.44 95.13L261.62 56.72C261.891 54.1585 261.585 51.5689 260.726 49.1406C259.867 46.7124 258.476 44.5069 256.654 42.6856C254.833 40.8642 252.628 39.4731 250.199 38.614C247.771 37.7548 245.182 37.4494 242.62 37.72L204.15 41.85L179.97 11.74C178.35 9.72649 176.298 8.10184 173.967 6.98559C171.636 5.86935 169.085 5.28992 166.5 5.28992C163.915 5.28992 161.364 5.86935 159.033 6.98559C156.702 8.10184 154.65 9.72649 153.03 11.74L128.83 41.85L90.43 37.68C87.8689 37.4113 85.2801 37.718 82.8527 38.5778C80.4253 39.4376 78.2206 40.8288 76.3997 42.6497C74.5788 44.4707 73.1876 46.6753 72.3278 49.1027C71.468 51.5301 71.1613 54.1189 71.43 56.68L75.6 95.08L44.55 120C42.5402 121.62 40.9188 123.669 39.8048 125.997C38.6908 128.326 38.1126 130.874 38.1126 133.455C38.1126 136.036 38.6908 138.585 39.8048 140.913C40.9188 143.241 42.5402 145.29 44.55 146.91L75.45 171.91L71.45 208.91C71.45 209.32 71.38 209.73 71.37 210.14V210.49C71.0956 213.052 71.3984 215.644 72.2562 218.074C73.114 220.504 74.505 222.711 76.3272 224.533C78.1494 226.355 80.3565 227.746 82.7865 228.604C85.2165 229.462 87.8077 229.764 90.37 229.49L128.91 225.33L153.12 255.45C154.738 257.467 156.789 259.095 159.12 260.213C161.451 261.331 164.004 261.912 166.59 261.912C169.176 261.912 171.729 261.331 174.06 260.213C176.391 259.095 178.442 257.467 180.06 255.45L204.15 225.34L242.55 229.52C243.19 229.59 243.77 229.59 244.49 229.62C249.071 229.617 253.464 227.796 256.702 224.555C259.941 221.315 261.76 216.921 261.76 212.34C261.76 211.86 261.76 211.34 261.7 210.91C261.709 210.242 261.676 209.574 261.6 208.91L257.6 171.99L288.6 147.11C290.615 145.491 292.241 143.44 293.359 141.109C294.476 138.777 295.056 136.225 295.056 133.64C295.056 131.055 294.476 128.503 293.359 126.171C292.241 123.84 290.615 121.789 288.6 120.17L288.55 120.13Z" fill="#C4C6C8"/>
</g>
<g style="mix-blend-mode:multiply" opacity="0.9">
<path d="M289.61 119.08L258.5 94.08L262.68 55.68C262.959 53.1145 262.659 50.5193 261.804 48.0847C260.948 45.6501 259.558 43.4381 257.736 41.611C255.914 39.7839 253.705 38.3881 251.273 37.5262C248.841 36.6643 246.246 36.358 243.68 36.63L205.28 40.81L181.03 10.68C179.41 8.66643 177.358 7.04178 175.027 5.92554C172.696 4.80929 170.145 4.22986 167.56 4.22986C164.975 4.22986 162.424 4.80929 160.093 5.92554C157.762 7.04178 155.71 8.66643 154.09 10.68L129.89 40.8L91.49 36.62C88.9239 36.348 86.3294 36.6543 83.8971 37.5162C81.4648 38.3781 79.2564 39.7739 77.4341 41.601C75.6118 43.4281 74.2218 45.6401 73.3663 48.0747C72.5107 50.5093 72.2113 53.1045 72.49 55.67L76.66 94.06L45.6 119C43.5904 120.619 41.969 122.667 40.855 124.994C39.7411 127.322 39.1628 129.87 39.1628 132.45C39.1628 135.03 39.7411 137.578 40.855 139.906C41.969 142.233 43.5904 144.281 45.6 145.9L76.49 170.9L72.49 207.9C72.44 208.31 72.42 208.73 72.41 209.13V209.49C72.1356 212.052 72.4384 214.644 73.2962 217.074C74.1539 219.504 75.545 221.711 77.3672 223.533C79.1894 225.355 81.3965 226.746 83.8265 227.604C86.2565 228.462 88.8477 228.764 91.41 228.49L129.95 224.34L154.16 254.45C155.778 256.467 157.829 258.094 160.16 259.213C162.491 260.331 165.044 260.912 167.63 260.912C170.216 260.912 172.769 260.331 175.1 259.213C177.431 258.094 179.482 256.467 181.1 254.45L205.3 224.34L243.7 228.52C244.34 228.59 244.92 228.59 245.64 228.62C247.908 228.619 250.153 228.171 252.248 227.302C254.343 226.432 256.246 225.159 257.849 223.555C259.452 221.95 260.723 220.045 261.589 217.95C262.456 215.854 262.901 213.608 262.9 211.34C262.9 210.86 262.9 210.39 262.85 209.92C262.855 209.252 262.822 208.584 262.75 207.92L258.75 170.99L289.75 146.12C291.765 144.501 293.391 142.45 294.509 140.119C295.626 137.787 296.206 135.235 296.206 132.65C296.206 130.065 295.626 127.513 294.509 125.181C293.391 122.85 291.765 120.799 289.75 119.18L289.61 119.08Z" fill="#C3C4C6"/>
</g>
<g style="mix-blend-mode:multiply" opacity="0.93">
<path d="M290.67 118L259.56 93L263.74 54.6C264.011 52.0385 263.705 49.4489 262.846 47.0207C261.987 44.5924 260.596 42.3869 258.774 40.5656C256.953 38.7442 254.748 37.3531 252.319 36.494C249.891 35.6348 247.301 35.3294 244.74 35.6L206.34 39.78L182.09 9.62003C180.47 7.60649 178.418 5.98184 176.087 4.8656C173.756 3.74936 171.205 3.16992 168.62 3.16992C166.035 3.16992 163.484 3.74936 161.153 4.8656C158.822 5.98184 156.77 7.60649 155.15 9.62003L130.95 39.74L92.54 35.56C89.9785 35.2894 87.3889 35.5948 84.9606 36.454C82.5324 37.3131 80.3269 38.7042 78.5055 40.5256C76.6842 42.3469 75.2931 44.5524 74.4339 46.9807C73.5748 49.4089 73.2694 51.9985 73.54 54.56L77.67 93L46.67 117.91C44.662 119.53 43.0421 121.578 41.9293 123.906C40.8164 126.233 40.2388 128.78 40.2388 131.36C40.2388 133.94 40.8164 136.487 41.9293 138.814C43.0421 141.142 44.662 143.19 46.67 144.81L77.57 169.81L73.57 206.76C73.57 207.17 73.5 207.59 73.48 207.99V208.35C73.2094 210.912 73.5148 213.501 74.3739 215.929C75.2331 218.358 76.6242 220.563 78.4455 222.384C80.2669 224.206 82.4724 225.597 84.9006 226.456C87.3289 227.315 89.9185 227.621 92.48 227.35L131.02 223.19L155.15 253.33C156.768 255.347 158.819 256.975 161.15 258.093C163.481 259.211 166.034 259.792 168.62 259.792C171.206 259.792 173.759 259.211 176.09 258.093C178.421 256.975 180.472 255.347 182.09 253.33L206.29 223.23L244.69 227.4C245.33 227.47 245.91 227.47 246.63 227.5C251.209 227.497 255.599 225.677 258.835 222.438C262.072 219.2 263.89 214.809 263.89 210.23C263.89 209.75 263.89 209.23 263.84 208.8C263.845 208.132 263.812 207.464 263.74 206.8L259.74 169.87L290.74 145C292.755 143.381 294.381 141.33 295.499 138.999C296.616 136.667 297.196 134.115 297.196 131.53C297.196 128.945 296.616 126.393 295.499 124.061C294.381 121.73 292.755 119.679 290.74 118.06L290.67 118Z" fill="#C1C3C5"/>
</g>
<g style="mix-blend-mode:multiply" opacity="0.95">
<path d="M291.73 117L260.62 92L264.8 53.6C265.071 51.0385 264.765 48.4488 263.906 46.0206C263.047 43.5923 261.656 41.3869 259.834 39.5655C258.013 37.7442 255.808 36.353 253.379 35.4939C250.951 34.6347 248.362 34.3293 245.8 34.6L207.35 38.68L183.15 8.56997C181.531 6.55659 179.48 4.932 177.15 3.81578C174.82 2.69955 172.269 2.12012 169.685 2.12012C167.101 2.12012 164.55 2.69955 162.22 3.81578C159.89 4.932 157.839 6.55659 156.22 8.56997L132 38.68L93.6 34.5C91.0385 34.2293 88.4489 34.5347 86.0206 35.3939C83.5924 36.253 81.3869 37.6442 79.5656 39.4655C77.7442 41.2868 76.3531 43.4923 75.4939 45.9206C74.6348 48.3488 74.3294 50.9385 74.6 53.5L78.73 92L47.73 116.91C45.7204 118.529 44.099 120.577 42.985 122.904C41.8711 125.232 41.2928 127.78 41.2928 130.36C41.2928 132.94 41.8711 135.488 42.985 137.815C44.099 140.143 45.7204 142.191 47.73 143.81L78.63 168.81L74.63 205.81C74.57 206.22 74.56 206.63 74.54 207.04V207.39C74.2694 209.951 74.5748 212.541 75.4339 214.969C76.2931 217.398 77.6842 219.603 79.5056 221.424C81.3269 223.246 83.5324 224.637 85.9606 225.496C88.3889 226.355 90.9785 226.661 93.54 226.39L132.08 222.23L156.29 252.35C157.909 254.363 159.96 255.988 162.29 257.104C164.62 258.22 167.171 258.8 169.755 258.8C172.339 258.8 174.89 258.22 177.22 257.104C179.55 255.988 181.601 254.363 183.22 252.35L207.42 222.24L245.83 226.41C246.47 226.48 247.05 226.48 247.77 226.51C252.349 226.507 256.739 224.687 259.975 221.448C263.212 218.21 265.03 213.819 265.03 209.24C265.03 208.76 265.03 208.24 264.98 207.81C264.985 207.142 264.952 206.474 264.88 205.81L260.88 168.88L291.88 144.01C293.895 142.391 295.521 140.34 296.639 138.009C297.756 135.677 298.336 133.125 298.336 130.54C298.336 127.955 297.756 125.403 296.639 123.071C295.521 120.74 293.895 118.689 291.88 117.07L291.73 117Z" fill="#BFC1C3"/>
</g>
<g style="mix-blend-mode:multiply" opacity="0.98">
<path d="M292.79 115.9L261.68 90.9L265.86 52.5C266.129 49.9389 265.822 47.3501 264.962 44.9227C264.102 42.4954 262.711 40.2907 260.89 38.4698C259.069 36.6488 256.865 35.2577 254.437 34.3978C252.01 33.538 249.421 33.2313 246.86 33.5L208.46 37.67L184.2 7.51005C182.58 5.49651 180.528 3.87186 178.197 2.75561C175.866 1.63937 173.315 1.05994 170.73 1.05994C168.145 1.05994 165.594 1.63937 163.263 2.75561C160.932 3.87186 158.88 5.49651 157.26 7.51005L133.06 37.62L94.66 33.45C92.0985 33.1794 89.5089 33.4848 87.0806 34.344C84.6524 35.2031 82.4469 36.5942 80.6255 38.4156C78.8042 40.2369 77.4131 42.4424 76.5539 44.8707C75.6948 47.2989 75.3894 49.8885 75.66 52.45L79.83 90.85L48.83 115.76C46.8202 117.38 45.1988 119.429 44.0848 121.757C42.9708 124.086 42.3926 126.634 42.3926 129.215C42.3926 131.796 42.9708 134.345 44.0848 136.673C45.1988 139.001 46.8202 141.05 48.83 142.67L79.73 167.67L75.73 204.67C75.6752 205.078 75.6451 205.489 75.64 205.9V206.25C75.3656 208.812 75.6684 211.404 76.5262 213.834C77.384 216.264 78.775 218.471 80.5972 220.293C82.4194 222.115 84.6265 223.506 87.0565 224.364C89.4865 225.222 92.0777 225.524 94.64 225.25L133.17 221.09L157.38 251.21C159 253.224 161.052 254.848 163.383 255.964C165.714 257.081 168.265 257.66 170.85 257.66C173.435 257.66 175.986 257.081 178.317 255.964C180.648 254.848 182.7 253.224 184.32 251.21L208.52 221.1L246.93 225.28C247.57 225.34 248.14 225.35 248.86 225.38C253.441 225.377 257.834 223.556 261.072 220.315C264.311 217.075 266.13 212.681 266.13 208.1C266.13 207.62 266.13 207.1 266.07 206.67C266.078 206.002 266.048 205.334 265.98 204.67L261.98 167.75L292.98 142.87C294.992 141.249 296.615 139.197 297.73 136.866C298.845 134.535 299.424 131.984 299.424 129.4C299.424 126.816 298.845 124.265 297.73 121.934C296.615 119.603 294.992 117.551 292.98 115.93L292.79 115.9Z" fill="#BEC0C2"/>
</g>
<g style="mix-blend-mode:multiply">
<path d="M293.85 114.84L262.73 89.84L266.92 51.44C267.189 48.8789 266.882 46.2901 266.022 43.8627C265.162 41.4353 263.771 39.2306 261.95 37.4097C260.129 35.5888 257.925 34.1976 255.497 33.3378C253.07 32.478 250.481 32.1712 247.92 32.44L209.52 36.61L185.26 6.44999C183.64 4.43645 181.588 2.8118 179.257 1.69556C176.926 0.579313 174.375 -0.00012207 171.79 -0.00012207C169.205 -0.00012207 166.654 0.579313 164.323 1.69556C161.992 2.8118 159.94 4.43645 158.32 6.44999L134.15 36.56L95.75 32.39C93.1889 32.1212 90.6001 32.428 88.1727 33.2878C85.7453 34.1476 83.5406 35.5388 81.7197 37.3597C79.8988 39.1806 78.5076 41.3853 77.6478 43.8127C76.788 46.2401 76.4813 48.8289 76.75 51.39L80.92 89.79L49.92 114.7C47.9102 116.32 46.2888 118.369 45.1748 120.697C44.0608 123.026 43.4826 125.574 43.4826 128.155C43.4826 130.736 44.0608 133.284 45.1748 135.613C46.2888 137.941 47.9102 139.99 49.92 141.61L80.82 166.61L76.82 203.61C76.82 204.02 76.75 204.43 76.74 204.84V205.19C76.4656 207.752 76.7684 210.344 77.6262 212.774C78.484 215.204 79.875 217.411 81.6972 219.233C83.5194 221.055 85.7265 222.446 88.1565 223.304C90.5865 224.162 93.1777 224.464 95.74 224.19L134.15 220L158.36 250.12C159.978 252.137 162.029 253.764 164.36 254.883C166.691 256.001 169.244 256.582 171.83 256.582C174.416 256.582 176.969 256.001 179.3 254.883C181.631 253.764 183.682 252.137 185.3 250.12L209.5 220.01L247.9 224.19C248.54 224.26 249.12 224.26 249.84 224.29C254.421 224.287 258.814 222.466 262.052 219.225C265.291 215.985 267.11 211.591 267.11 207.01C267.11 206.53 267.11 206.01 267.05 205.58C267.058 204.912 267.028 204.244 266.96 203.58L262.96 166.66L293.96 141.78C295.974 140.16 297.598 138.108 298.714 135.777C299.831 133.446 300.41 130.895 300.41 128.31C300.41 125.725 299.831 123.174 298.714 120.843C297.598 118.512 295.974 116.46 293.96 114.84H293.85Z" fill="#BCBEC0"/>
</g>
</g>
<path d="M290.82 115.63L289.99 114.96C289.944 114.926 289.901 114.89 289.86 114.85L261.57 92.11L265.49 56C265.818 53.0034 265.469 49.9714 264.468 47.1277C263.468 44.284 261.842 41.7011 259.71 39.5696C257.579 37.438 254.996 35.8121 252.152 34.8118C249.309 33.8115 246.277 33.4623 243.28 33.79L207.21 37.71L184.46 9.46003C182.573 7.10932 180.182 5.21224 177.464 3.90871C174.746 2.60519 171.77 1.92847 168.755 1.92847C165.74 1.92847 162.764 2.60519 160.046 3.90871C157.328 5.21224 154.937 7.10932 153.05 9.46003L130.31 37.75L94.24 33.83C91.2463 33.5018 88.2171 33.8491 85.3754 34.8465C82.5337 35.8438 79.9518 37.4657 77.8198 39.5929C75.6879 41.72 74.0601 44.2983 73.0564 47.1377C72.0526 49.9772 71.6985 53.0056 72.02 56L75.94 92.07L48.83 113.87L47.74 114.72L46.74 115.51C44.3963 117.399 42.5055 119.788 41.2064 122.503C39.9073 125.218 39.233 128.19 39.233 131.2C39.233 134.21 39.9073 137.182 41.2064 139.897C42.5055 142.612 44.3963 145.001 46.74 146.89L75.8 170.38L72.03 205.03C72.03 205.31 72.03 205.59 72.03 205.87L71.95 206.61C71.6213 209.607 71.9692 212.639 72.9681 215.484C73.9671 218.328 75.5916 220.913 77.722 223.046C79.8524 225.179 82.4343 226.807 85.2775 227.81C88.1207 228.813 91.1527 229.165 94.15 228.84L129.66 225L153.15 253.83C155.039 256.15 157.42 258.021 160.122 259.306C162.824 260.592 165.778 261.259 168.77 261.26C171.767 261.255 174.725 260.583 177.431 259.292C180.136 258.002 182.52 256.126 184.41 253.8L207.79 225L243.24 228.91C246.119 229.231 249.033 228.926 251.782 228.016C254.532 227.106 257.053 225.613 259.173 223.639C261.292 221.665 262.96 219.256 264.063 216.578C265.165 213.899 265.676 211.014 265.56 208.12C265.617 207.12 265.593 206.117 265.49 205.12L261.73 170.5L290.85 147.11C293.204 145.222 295.105 142.829 296.411 140.108C297.716 137.387 298.394 134.408 298.394 131.39C298.394 128.372 297.716 125.393 296.411 122.672C295.105 119.951 293.204 117.558 290.85 115.67L290.82 115.63Z" fill="white"/>
<path d="M292.75 113.69L291.92 113.03C291.879 112.99 291.836 112.954 291.79 112.92L263.51 90.18L267.42 54.11C267.749 51.1126 267.401 48.0794 266.402 45.2345C265.402 42.3895 263.777 39.8053 261.645 37.6726C259.513 35.5399 256.93 33.913 254.085 32.9122C251.241 31.9113 248.208 31.562 245.21 31.89L209.15 35.81L186.39 7.52998C184.503 5.17926 182.112 3.28218 179.394 1.97866C176.676 0.675132 173.7 -0.00158691 170.685 -0.00158691C167.67 -0.00158691 164.694 0.675132 161.976 1.97866C159.258 3.28218 156.867 5.17926 154.98 7.52998L132.24 35.81L96.15 31.89C93.1544 31.5672 90.1245 31.9202 87.2834 32.9232C84.4423 33.9262 81.8623 35.5535 79.7332 37.6854C77.6042 39.8173 75.9804 42.3996 74.9812 45.242C73.9821 48.0845 73.6331 51.1148 73.96 54.11L77.87 90.18L50.76 112L49.68 112.84L48.68 113.64C46.3381 115.529 44.4488 117.918 43.1509 120.632C41.8529 123.346 41.1792 126.316 41.1792 129.325C41.1792 132.334 41.8529 135.304 43.1509 138.018C44.4488 140.732 46.3381 143.121 48.68 145.01L77.74 168.5L73.98 203.16C73.98 203.44 73.98 203.72 73.98 203.99L73.9 204.74C73.5774 207.735 73.9303 210.764 74.9328 213.604C75.9352 216.444 77.5616 219.024 79.6923 221.152C81.8231 223.281 84.404 224.905 87.2452 225.905C90.0864 226.905 93.1156 227.255 96.11 226.93L131.66 223.09L155.13 251.92C157.019 254.24 159.401 256.11 162.103 257.395C164.804 258.68 167.758 259.348 170.75 259.35C173.748 259.345 176.707 258.672 179.413 257.38C182.118 256.087 184.502 254.209 186.39 251.88L209.73 223L245.15 226.93C248.028 227.249 250.942 226.943 253.691 226.032C256.44 225.122 258.96 223.629 261.079 221.655C263.198 219.681 264.866 217.273 265.969 214.596C267.072 211.918 267.584 209.034 267.47 206.14C267.523 205.139 267.496 204.136 267.39 203.14L263.63 168.53L292.75 145.13C295.101 143.24 296.998 140.846 298.302 138.126C299.606 135.405 300.282 132.427 300.282 129.41C300.282 126.393 299.606 123.415 298.302 120.694C296.998 117.974 295.101 115.58 292.75 113.69Z" fill="url(#paint0_linear)"/>
<path d="M170.68 64.8201C157.75 64.824 145.111 68.6619 134.362 75.8483C123.613 83.0348 115.236 93.2471 110.291 105.194C105.346 117.141 104.054 130.286 106.579 142.967C109.104 155.648 115.332 167.296 124.476 176.438C133.621 185.579 145.27 191.804 157.952 194.325C170.634 196.846 183.779 195.55 195.724 190.601C207.67 185.652 217.88 177.272 225.063 166.521C232.246 155.77 236.08 143.13 236.08 130.2C236.081 121.612 234.39 113.108 231.104 105.174C227.818 97.2399 223 90.0311 216.926 83.9594C210.853 77.8878 203.643 73.0724 195.708 69.7884C187.772 66.5044 179.268 64.8161 170.68 64.8201Z" fill="#E69100"/>
<path d="M242.27 159.86L280.15 129.42L279.15 128.63L241.89 99.31L246.48 52.73L200.15 57.56L170.68 21.73L141.38 57.62L94.6 52.52L99.47 99.31L62.31 128.53L61.31 129.32L99.15 159.85L94.05 205.27L93.87 206.87L140.31 201.87L170.68 239.18L201 201.79L247.39 206.91L242.27 159.86ZM200.35 200.07C191.09 203.07 180.94 205.72 170.68 205.72C160.42 205.72 150.55 202.81 141.28 199.86C132.63 195.4 124.54 190.86 117.28 183.6C110.246 176.548 104.343 168.453 99.78 159.6C93.6202 140.518 93.6202 119.982 99.78 100.9C108.913 83.0073 123.456 68.4503 141.34 59.3C160.422 53.1401 180.958 53.1401 200.04 59.3C217.903 68.4469 232.439 82.9788 241.59 100.84C247.75 119.929 247.75 140.471 241.59 159.56C237.034 168.415 231.134 176.511 224.1 183.56C216.83 190.86 209.03 195.62 200.35 200.07Z" fill="#E69100"/>
<path d="M236.08 128.63C236.078 141.56 232.242 154.198 225.058 164.948C217.874 175.698 207.663 184.077 195.718 189.024C183.772 193.972 170.627 195.266 157.946 192.744C145.265 190.222 133.616 183.996 124.473 174.854C115.33 165.712 109.102 154.064 106.578 141.384C104.054 128.703 105.346 115.558 110.292 103.612C115.238 91.6653 123.614 81.4535 134.363 74.2675C145.112 67.0815 157.75 63.2439 170.68 63.24C179.268 63.2387 187.772 64.9291 195.707 68.2146C203.641 71.5002 210.851 76.3166 216.924 82.3887C222.997 88.4609 227.815 95.6699 231.102 103.604C234.388 111.538 236.08 120.042 236.08 128.63Z" fill="#FFBB00"/>
<path d="M242.27 158.28L279.15 128.63L242.27 99L247.39 52L200.34 57.12L170.68 20.16L141.04 57.05L94.04 51.93L99.15 99L62.22 128.63L99.15 158.28L94.03 205.28L141.03 200.16L170.67 237.05L200.33 200.16L247.38 205.28L242.27 158.28ZM200.04 199.53C180.963 205.677 160.437 205.677 141.36 199.53C123.485 190.397 108.94 175.866 99.79 158C93.63 138.915 93.63 118.375 99.79 99.29C108.937 81.4164 123.482 66.8784 141.36 57.74C160.434 51.5934 180.956 51.5934 200.03 57.74C217.893 66.8903 232.431 81.4209 241.59 99.28C247.75 118.372 247.75 138.918 241.59 158.01C232.447 175.877 217.909 190.411 200.04 199.55V199.53Z" fill="#FFBB00"/>
<g style="mix-blend-mode:screen" opacity="0.2">
<path d="M170.68 128.6C192.496 128.576 214.297 129.768 235.98 132.17C236.04 131 236.08 129.82 236.08 128.63C236.08 111.29 229.192 94.6605 216.931 82.3994C204.67 70.1382 188.04 63.25 170.7 63.25C153.36 63.25 136.73 70.1382 124.469 82.3994C112.208 94.6605 105.32 111.29 105.32 128.63C105.32 129.817 105.35 130.997 105.41 132.17C127.083 129.769 148.874 128.577 170.68 128.6Z" fill="#FFBB00"/>
</g>
<g style="mix-blend-mode:screen" opacity="0.2">
<path d="M72.61 137C79.92 135.65 87.52 134.46 95.36 133.42C95.28 131.83 95.17 130.25 95.17 128.65C95.1802 118.683 96.7388 108.778 99.79 99.29C108.937 81.4164 123.482 66.8784 141.36 57.74C160.434 51.5934 180.956 51.5934 200.03 57.74C217.893 66.8903 232.431 81.4209 241.59 99.28C244.646 108.771 246.205 118.68 246.21 128.65C246.21 130.25 246.1 131.83 246.02 133.42C253.873 134.473 261.457 135.667 268.77 137L279.15 128.63L242.27 99L247.39 52L200.34 57.12L170.68 20.16L141.04 57.05L94.04 51.93L99.15 99L62.22 128.63L72.61 137Z" fill="#FFBB00"/>
</g>
<path style="mix-blend-mode:multiply" d="M292.75 113.69L291.92 113.03C291.879 112.99 291.836 112.954 291.79 112.92L263.51 90.18L267.42 54.11C267.749 51.1126 267.401 48.0794 266.402 45.2345C265.402 42.3895 263.777 39.8053 261.645 37.6726C259.513 35.5399 256.93 33.913 254.085 32.9122C251.241 31.9113 248.208 31.562 245.21 31.89L209.15 35.81L186.39 7.52998C184.503 5.17926 182.112 3.28218 179.394 1.97866C176.676 0.675132 173.7 -0.00158691 170.685 -0.00158691C167.67 -0.00158691 164.694 0.675132 161.976 1.97866C159.258 3.28218 156.867 5.17926 154.98 7.52998L132.24 35.81L96.15 31.89C93.1544 31.5672 90.1245 31.9202 87.2834 32.9232C84.4423 33.9262 81.8623 35.5535 79.7332 37.6854C77.6042 39.8173 75.9804 42.3996 74.9812 45.242C73.9821 48.0845 73.6331 51.1148 73.96 54.11L77.87 90.18L50.76 112L49.68 112.84L48.68 113.64C46.3381 115.529 44.4488 117.918 43.1509 120.632C41.8529 123.346 41.1792 126.316 41.1792 129.325C41.1792 132.334 41.8529 135.304 43.1509 138.018C44.4488 140.732 46.3381 143.121 48.68 145.01L77.74 168.5L73.98 203.16C73.98 203.44 73.98 203.72 73.98 203.99L73.9 204.74C73.5774 207.735 73.9303 210.764 74.9328 213.604C75.9352 216.444 77.5616 219.024 79.6923 221.152C81.8231 223.281 84.404 224.905 87.2452 225.905C90.0864 226.905 93.1156 227.255 96.11 226.93L131.66 223.09L155.13 251.92C157.019 254.24 159.401 256.11 162.103 257.395C164.804 258.68 167.758 259.348 170.75 259.35C173.748 259.345 176.707 258.672 179.413 257.38C182.118 256.087 184.502 254.209 186.39 251.88L209.73 223L245.15 226.93C248.028 227.249 250.942 226.943 253.691 226.032C256.44 225.122 258.96 223.629 261.079 221.655C263.198 219.681 264.866 217.273 265.969 214.596C267.072 211.918 267.584 209.034 267.47 206.14C267.523 205.139 267.496 204.136 267.39 203.14L263.63 168.53L292.75 145.13C295.101 143.24 296.998 140.846 298.302 138.126C299.606 135.405 300.282 132.427 300.282 129.41C300.282 126.393 299.606 123.415 298.302 120.694C296.998 117.974 295.101 115.58 292.75 113.69Z" fill="url(#paint1_linear)"/>
</g>
<defs>
<linearGradient id="paint0_linear" x1="64.27" y1="235.83" x2="258.55" y2="41.55" gradientUnits="userSpaceOnUse">
<stop stop-color="#E6E6E6"/>
<stop offset="1" stop-color="#FAFAFA"/>
</linearGradient>
<linearGradient id="paint1_linear" x1="61" y1="239.1" x2="253.44" y2="46.66" gradientUnits="userSpaceOnUse">
<stop offset="0.39" stop-color="white"/>
<stop offset="0.5" stop-color="#FCFCFC"/>
<stop offset="0.58" stop-color="#F3F3F3"/>
<stop offset="0.65" stop-color="#E3E3E3"/>
<stop offset="0.71" stop-color="#CECECE"/>
<stop offset="0.72" stop-color="#C9C9C9"/>
<stop offset="0.76" stop-color="#C9C9C9"/>
<stop offset="0.99" stop-color="#C9C9C9"/>
</linearGradient>
<clipPath id="clip0">
<rect width="300.31" height="300" fill="white"/>
</clipPath>
</defs>
</svg>
